<svg xmlns="http://www.w3.org/2000/svg" width="50" height="28" viewBox="0 0 50 28" fill="white">
	<rect width="2" height="28" class="a"/>
	<rect x="24" width="2" height="28" class="a"/>
	<rect x="48" y="26" width="2" height="2" class="a"/>
	<rect x="48" y="21" width="2" height="2" class="a"/>
	<rect x="48" y="17" width="2" height="2" class="a"/>
	<rect x="48" y="13" width="2" height="2" class="a"/>
	<rect x="48" y="9" width="2" height="2" class="a"/>
	<rect x="48" y="5" width="2" height="2" class="a"/>
	<rect x="48" y="2" width="2" height="1" class="a"/>
	<rect x="48" width="2" height="2" class="a"/>
	<rect y="26" width="25" height="2" class="a"/>
	<rect x="27" y="26" width="2" height="2" class="a"/>
	<rect x="27" width="2" height="2" class="a"/>
	<rect x="31" y="26" width="2" height="2" class="a"/>
	<rect x="31" width="2" height="2" class="a"/>
	<rect x="35" y="26" width="2" height="2" class="a"/>
	<rect x="35" width="2" height="2" class="a"/>
	<rect x="39" y="26" width="2" height="2" class="a"/>
	<rect x="39" width="2" height="2" class="a"/>
	<rect x="43" y="26" width="2" height="2" class="a"/>
	<rect x="43" width="2" height="2" class="a"/>
	<rect x="47" y="26" width="1" height="2" class="a"/>
	<rect x="48" y="25" width="2" height="1" class="a"/>
	<rect x="47" width="1" height="2" class="a"/>
	<rect width="25" height="2" class="a"/>
	<rect x="2" y="2" width="22" height="24" style="fill-opacity:0.2"/>
</svg>
