<svg xmlns="http://www.w3.org/2000/svg" width="50" height="28" viewBox="0 0 50 28" fill="none">
	<rect width="2" height="28" transform="matrix(-1 0 0 1 50 0)"/>
	<rect width="2" height="28" transform="matrix(-1 0 0 1 26 0)"/>
	<rect width="2" height="2" transform="matrix(-1 0 0 1 2 26)"/>
	<rect width="2" height="2" transform="matrix(-1 0 0 1 2 21)"/>
	<rect width="2" height="2" transform="matrix(-1 0 0 1 2 17)"/>
	<rect width="2" height="2" transform="matrix(-1 0 0 1 2 13)"/>
	<rect width="2" height="2" transform="matrix(-1 0 0 1 2 9)"/>
	<rect width="2" height="2" transform="matrix(-1 0 0 1 2 5)"/>
	<rect width="2" height="1" transform="matrix(-1 0 0 1 2 2)"/>
	<rect width="2" height="2" transform="matrix(-1 0 0 1 2 0)"/>
	<rect width="25" height="2" transform="matrix(-1 0 0 1 50 26)"/>
	<rect width="2" height="2" transform="matrix(-1 0 0 1 23 26)"/>
	<rect width="2" height="2" transform="matrix(-1 0 0 1 23 0)"/>
	<rect width="2" height="2" transform="matrix(-1 0 0 1 19 26)"/>
	<rect width="2" height="2" transform="matrix(-1 0 0 1 19 0)"/>
	<rect width="2" height="2" transform="matrix(-1 0 0 1 15 26)"/>
	<rect width="2" height="2" transform="matrix(-1 0 0 1 15 0)"/>
	<rect width="2" height="2" transform="matrix(-1 0 0 1 11 26)"/>
	<rect width="2" height="2" transform="matrix(-1 0 0 1 11 0)"/>
	<rect width="2" height="2" transform="matrix(-1 0 0 1 7 26)"/>
	<rect width="2" height="2" transform="matrix(-1 0 0 1 7 0)"/>
	<rect width="1" height="2" transform="matrix(-1 0 0 1 3 26)"/>
	<rect width="2" height="1" transform="matrix(-1 0 0 1 2 25)"/>
	<rect width="1" height="2" transform="matrix(-1 0 0 1 3 0)"/>
	<rect width="25" height="2" transform="matrix(-1 0 0 1 50 0)"/>
	<rect x="26" y="2" width="22" height="24" fill-opacity="0.2"/>
</svg>