<svg width="967" height="851" viewBox="0 0 967 851" fill="none" xmlns="http://www.w3.org/2000/svg">
<path d="M959 -3.49691e-07C963.418 -1.56562e-07 967 3.58172 967 8L967 426L953 426L953 -6.11959e-07L959 -3.49691e-07Z" fill="#FFC300"/>
<path d="M967 426L967 843C967 847.418 963.418 851 959 851L953 851L953 426L967 426Z" fill="#007EFF"/>
<rect x="954" y="14" width="264" height="14" transform="rotate(180 954 14)" fill="#FFC300"/>
<path d="M690 851L0 851L1.08277e-06 837L690 837L690 851Z" fill="#00C091"/>
<rect x="690" y="837" width="264" height="14" fill="#007EFF"/>
<rect width="690" height="14" fill="#F80023"/>
</svg>
