<svg width="92" height="92" viewBox="0 0 92 92" fill="none" xmlns="http://www.w3.org/2000/svg">
<path d="M77.0353 16.3607C71.2353 13.6994 65.0157 11.7387 58.5126 10.6157C58.3942 10.594 58.2759 10.6482 58.2149 10.7565C57.415 12.1792 56.5289 14.0352 55.9085 15.494C48.914 14.4469 41.9555 14.4469 35.1045 15.494C34.4839 14.0028 33.5657 12.1792 32.7622 10.7565C32.7012 10.6518 32.5829 10.5976 32.4644 10.6157C25.965 11.7351 19.7453 13.6958 13.9417 16.3607C13.8915 16.3824 13.8484 16.4185 13.8198 16.4654C2.02244 34.0904 -1.20935 51.2823 0.376058 68.2609C0.383232 68.344 0.429861 68.4235 0.494426 68.474C8.278 74.19 15.8177 77.6602 23.2174 79.9603C23.3359 79.9965 23.4613 79.9532 23.5367 79.8556C25.2871 77.4653 26.8474 74.9448 28.1853 72.2943C28.2642 72.1391 28.1889 71.9549 28.0275 71.8935C25.5525 70.9547 23.1959 69.81 20.929 68.5101C20.7497 68.4054 20.7353 68.1489 20.9003 68.0261C21.3773 67.6687 21.8545 67.2967 22.31 66.9212C22.3924 66.8526 22.5072 66.8381 22.6041 66.8815C37.4969 73.681 53.62 73.681 68.337 66.8815C68.4339 66.8346 68.5488 66.849 68.6348 66.9176C69.0904 67.2931 69.5675 67.6687 70.0481 68.0261C70.213 68.1489 70.2023 68.4054 70.023 68.5101C67.756 69.8352 65.3994 70.9547 62.9209 71.8899C62.7595 71.9513 62.6877 72.1391 62.7667 72.2943C64.1332 74.9411 65.6935 77.4616 67.4116 79.852C67.4834 79.9532 67.6125 79.9965 67.7309 79.9603C75.1665 77.6602 82.7062 74.19 90.4898 68.474C90.5579 68.4235 90.601 68.3476 90.6082 68.2645C92.5056 48.6353 87.4301 31.5845 77.1536 16.469C77.1285 16.4185 77.0856 16.3824 77.0353 16.3607ZM30.4093 57.9227C25.9255 57.9227 22.231 53.8063 22.231 48.7509C22.231 43.6956 25.8539 39.5792 30.4093 39.5792C35.0004 39.5792 38.6591 43.7317 38.5873 48.7509C38.5873 53.8063 34.9645 57.9227 30.4093 57.9227ZM60.6468 57.9227C56.1631 57.9227 52.4687 53.8063 52.4687 48.7509C52.4687 43.6956 56.0914 39.5792 60.6468 39.5792C65.238 39.5792 68.8966 43.7317 68.825 48.7509C68.825 53.8063 65.238 57.9227 60.6468 57.9227Z" fill="#FFFFFF"/>
</svg>
