<svg width="29" height="34" viewBox="0 0 29 34" fill="none" xmlns="http://www.w3.org/2000/svg">
<path d="M11.2036 28.3664C11.2036 31.257 8.86639 33.6002 5.98328 33.6002C3.10016 33.6002 0.762939 31.257 0.762939 28.3664C0.762939 25.4759 3.10016 23.1327 5.98328 23.1327C6.14323 23.1327 6.3015 23.1399 6.45778 23.154V9.66096C6.45778 8.82185 6.98157 8.07197 7.76941 7.78316L26.3118 0.985769C27.617 0.507301 29.0002 1.47344 29.0002 2.86357L29.0001 24.322C29.0001 27.2126 26.6629 29.5558 23.7798 29.5558C20.8967 29.5558 18.5594 27.2126 18.5594 24.322C18.5594 21.4315 20.8967 19.0882 23.7798 19.0882C23.9398 19.0882 24.0981 19.0954 24.2544 19.1096V11.1219C24.2544 9.73326 22.874 8.76724 21.5694 9.24287L12.5185 12.5426C11.7289 12.8304 11.2035 13.5812 11.2035 14.4216L11.2036 28.3664Z" fill="#000"/>
</svg>
