<svg width="35" height="35" viewBox="0 0 35 35" fill="none" xmlns="http://www.w3.org/2000/svg">
<path d="M17.6499 2.47009H17.7171V32.8962H17.6499V2.47009Z" fill="white"/>
<path d="M32.8965 17.6494V17.7166L2.47038 17.7166V17.6494L32.8965 17.6494Z" fill="white"/>
<path d="M30.3442 25.5078V25.575L5.15706 25.575V25.5078L30.3442 25.5078Z" fill="white"/>
<path d="M30.3442 9.79065V9.85782L5.15706 9.85782V9.79065L30.3442 9.79065Z" fill="white"/>
<path d="M17.6832 33.3664C26.3448 33.3664 33.3664 26.3448 33.3664 17.6832C33.3664 9.02162 26.3448 2 17.6832 2M17.6832 33.3664C9.02162 33.3664 2 26.3448 2 17.6832C2 9.02162 9.02162 2 17.6832 2M17.6832 33.3664C22.4128 33.3664 26.2474 26.3449 26.2474 17.6833C26.2474 9.02174 22.4128 2 17.6832 2M17.6832 33.3664C12.9536 33.3664 9.12012 26.3449 9.12012 17.6833C9.12012 9.02174 12.9536 2 17.6832 2M17.6499 2.47009H17.7171V32.8962H17.6499V2.47009ZM32.8965 17.6494V17.7166L2.47038 17.7166V17.6494L32.8965 17.6494ZM30.3442 25.5078V25.575L5.15706 25.575V25.5078L30.3442 25.5078ZM30.3442 9.79065V9.85782L5.15706 9.85782V9.79065L30.3442 9.79065Z" stroke="white" stroke-width="2.68663"/>
</svg>
