<svg width="52" height="30" viewBox="0 0 52 30" fill="none" xmlns="http://www.w3.org/2000/svg" style="color:#ffffff">
<g clip-path="url(#clip0)">
<path d="M45.7574 3.02028C46.6115 3.02028 47.4307 3.35937 48.0349 3.96303C48.6391 4.56669 48.9789 5.38554 48.9797 6.23964V23.0094C48.9785 23.8633 48.6385 24.6817 48.0343 25.2851C47.4302 25.8884 46.6112 26.2273 45.7574 26.2273H6.23964C5.38632 26.2265 4.56814 25.8873 3.96461 25.284C3.36107 24.6808 3.02146 23.8628 3.02028 23.0094V6.23964C3.02107 5.38606 3.36051 4.56766 3.96408 3.96408C4.56766 3.36051 5.38606 3.02107 6.23964 3.02028H45.7574ZM45.7574 0H6.23964C4.58479 0 2.99771 0.657389 1.82755 1.82755C0.657389 2.99771 0 4.58479 0 6.23964L0 23.0094C0 24.6643 0.657389 26.2514 1.82755 27.4215C2.99771 28.5917 4.58479 29.2491 6.23964 29.2491H45.7574C47.4122 29.2491 48.9993 28.5917 50.1695 27.4215C51.3396 26.2514 51.997 24.6643 51.997 23.0094V6.23964C51.997 4.58479 51.3396 2.99771 50.1695 1.82755C48.9993 0.657389 47.4122 0 45.7574 0V0Z" fill="currentColor"/>
<path d="M30.7273 27.7382C29.0724 27.7382 27.4853 27.0808 26.3152 25.9106C25.145 24.7405 24.4876 23.1534 24.4876 21.4985" stroke="currentColor" stroke-width="3.02028" stroke-miterlimit="10"/>
<path d="M6.23967 27.6149C5.01823 27.6149 3.84681 27.1297 2.98312 26.266C2.11943 25.4023 1.63422 24.2309 1.63422 23.0095V16.2588H19.7589C20.9803 16.2588 22.1518 16.744 23.0154 17.6077C23.8791 18.4714 24.3643 19.6428 24.3643 20.8642V27.6149H6.23967Z" fill="currentColor"/>
<path d="M19.7589 17.8929C20.5469 17.8929 21.3027 18.2059 21.8599 18.7632C22.4171 19.3204 22.7301 20.0761 22.7301 20.8642V25.9807H6.23964C5.45162 25.9807 4.69587 25.6676 4.13865 25.1104C3.58143 24.5532 3.26838 23.7974 3.26838 23.0094V17.8929H19.7589ZM19.7589 14.6245H0V23.0094C0 24.6643 0.657389 26.2513 1.82755 27.4215C2.99771 28.5917 4.58479 29.249 6.23964 29.249H25.9985V20.8642C25.9985 19.2093 25.3411 17.6222 24.171 16.4521C23.0008 15.2819 21.4137 14.6245 19.7589 14.6245Z" fill="currentColor"/>
<path d="M7.7535 16.1339C6.09864 16.1339 4.51156 15.4765 3.3414 14.3064C2.17124 13.1362 1.51385 11.5491 1.51385 9.89429" stroke="currentColor" stroke-width="3.02028" stroke-miterlimit="10"/>
</g>
</svg>
