<svg width="52" height="30" viewBox="0 0 52 30" fill="none" xmlns="http://www.w3.org/2000/svg" style="color:#ffffff">
<path d="M6.24261 26.2287C5.38851 26.2287 4.56935 25.8897 3.96513 25.286C3.36091 24.6823 3.02107 23.8635 3.02028 23.0094V6.2396C3.02146 5.38575 3.36148 4.56729 3.96566 3.96395C4.56983 3.36061 5.38877 3.02172 6.24261 3.02172H45.7604C46.6137 3.02251 47.4319 3.36174 48.0354 3.96499C48.6389 4.56825 48.9785 5.38627 48.9797 6.2396V23.0094C48.9789 23.863 48.6395 24.6814 48.0359 25.2849C47.4323 25.8885 46.6139 26.228 45.7604 26.2287H6.24261ZM6.24261 29.249H45.7604C47.4152 29.249 49.0023 28.5916 50.1725 27.4215C51.3426 26.2513 52 24.6642 52 23.0094V6.2396C52 4.58474 51.3426 2.99766 50.1725 1.8275C49.0023 0.657341 47.4152 -4.76837e-05 45.7604 -4.76837e-05H6.24261C4.58775 -4.76837e-05 3.00068 0.657341 1.83052 1.8275C0.660355 2.99766 0.00296783 4.58474 0.00296783 6.2396V23.0094C0.00296783 24.6642 0.660355 26.2513 1.83052 27.4215C3.00068 28.5916 4.58775 29.249 6.24261 29.249V29.249Z" fill="currentColor"/>
<path d="M21.2727 1.51084C22.9276 1.51084 24.5147 2.16824 25.6848 3.3384C26.855 4.50856 27.5124 6.09563 27.5124 7.75049" stroke="currentColor" stroke-width="3.02028" stroke-miterlimit="10"/>
<path d="M45.7604 1.63408C46.9818 1.63408 48.1532 2.1193 49.0169 2.98299C49.8806 3.84668 50.3658 5.01809 50.3658 6.23953V12.9902H32.2411C31.0197 12.9902 29.8483 12.505 28.9846 11.6413C28.1209 10.7776 27.6357 9.60622 27.6357 8.38478V1.63408H45.7604Z" fill="currentColor"/>
<path d="M32.2411 11.3561C31.4531 11.3561 30.6973 11.0431 30.1401 10.4859C29.5829 9.92865 29.2699 9.17289 29.2699 8.38487V3.26836H45.7604C46.5484 3.26836 47.3041 3.5814 47.8614 4.13862C48.4186 4.69584 48.7316 5.45159 48.7316 6.23962V11.3561H32.2411ZM32.2411 14.6245H52V6.23962C52 4.58476 51.3426 2.99768 50.1725 1.82753C49.0023 0.657365 47.4152 -2.38419e-05 45.7604 -2.38419e-05H26.0015V8.38487C26.0015 10.0397 26.6589 11.6268 27.829 12.797C28.9992 13.9671 30.5863 14.6245 32.2411 14.6245Z" fill="currentColor"/>
<path d="M44.2465 13.1151C45.9014 13.1151 47.4884 13.7725 48.6586 14.9426C49.8288 16.1128 50.4861 17.6999 50.4861 19.3547" stroke="currentColor" stroke-width="3.02028" stroke-miterlimit="10"/>
</svg>
