<svg width="653" height="141" viewBox="0 0 653 141" fill="none" xmlns="http://www.w3.org/2000/svg">
<mask id="mask0_3724_1990" style="mask-type:alpha" maskUnits="userSpaceOnUse" x="-47" y="-1" width="700" height="162">
<path fill-rule="evenodd" clip-rule="evenodd" d="M-13.8474 144.73C46.1426 103.716 65.5069 118.403 79.8127 129.254C87.2255 134.876 93.28 139.468 102.925 134.747C126.356 123.278 135.747 96.5326 133.305 66.6301C132.493 56.6787 123.93 49.047 113.111 39.4033C102.256 29.7282 89.1291 18.028 79.276 -0.0712891C79.276 57.9898 27.5654 33.56 43.2993 10.3675C15.7908 1.64543 0.310905 18.9638 -15.0994 36.2044C-23.1756 45.2397 -31.2327 54.2537 -40.9921 59.4868C-54.0394 81.0979 -46.2076 121.382 -13.8474 144.73ZM107.301 143.765C100.811 147.885 95.2185 147.115 92.4252 146.73C92.0628 146.68 91.7476 146.636 91.4836 146.611C87.1122 146.19 93.5839 161.82 98.0489 160.966C108.996 158.873 114.492 139.2 107.301 143.765ZM89.6632 71.8014C96.6329 71.8014 102.283 66.1512 102.283 59.1815C102.283 52.2117 96.6329 46.5616 89.6632 46.5616C82.6934 46.5616 77.0433 52.2117 77.0433 59.1815C77.0433 66.1512 82.6934 71.8014 89.6632 71.8014ZM68.2331 93.2314C75.2029 93.2314 80.853 87.5813 80.853 80.6115C80.853 73.6417 75.2029 67.9916 68.2331 67.9916C61.2633 67.9916 55.6132 73.6417 55.6132 80.6115C55.6132 87.5813 61.2633 93.2314 68.2331 93.2314ZM102.283 102.041C102.283 109.011 96.6329 114.661 89.6632 114.661C82.6934 114.661 77.0433 109.011 77.0433 102.041C77.0433 95.0715 82.6934 89.4213 89.6632 89.4213C96.6329 89.4213 102.283 95.0715 102.283 102.041ZM111.093 93.2314C118.063 93.2314 123.713 87.5813 123.713 80.6115C123.713 73.6417 118.063 67.9916 111.093 67.9916C104.123 67.9916 98.4733 73.6417 98.4733 80.6115C98.4733 87.5813 104.123 93.2314 111.093 93.2314ZM-28.2014 69.4209H-6.77142L-6.77139 47.9908H14.6586V69.4208L36.0886 69.4209V91.3271L14.6586 91.3272V112.757H-6.77139L-6.77142 91.3271H-28.2014V69.4209ZM169.774 100.442L167.512 114.232H179.299L181.561 100.442H189.318L191.321 88.6545H183.495L185.003 79.4607H192.736L194.74 67.6736H186.937L189.2 53.8828H177.413L175.15 67.6736H165.72L167.983 53.8828H156.196L153.933 67.6736H146.177L144.173 79.4607H152L150.491 88.6545H142.759L140.755 100.442H148.557L146.295 114.232H158.082L160.344 100.442H169.774ZM171.708 88.6545L173.216 79.4607H163.787L162.278 88.6545H171.708ZM197.112 114.232H214.792L218.279 102.681H238.18L241.667 114.232H259.347L239.427 53.8828H217.032L197.112 114.232ZM234.479 90.4226L228.465 70.5025H227.994L221.98 90.4226H234.479ZM293.132 68.1451C294.448 69.2452 295.185 70.7775 295.342 72.7421H311.019C310.999 68.7934 310.017 65.3457 308.072 62.3989C306.147 59.4325 303.406 57.134 299.851 55.5035C296.295 53.873 292.081 53.0577 287.209 53.0577C282.435 53.0577 278.202 53.8631 274.508 55.474C270.835 57.0849 267.957 59.3343 265.874 62.2221C263.812 65.0903 262.79 68.4398 262.81 72.2706C262.79 76.9854 264.313 80.7081 267.377 83.4388C270.461 86.1498 274.675 88.0848 280.019 89.2439L286.03 90.5405C288.27 91.0316 290.048 91.562 291.364 92.1317C292.68 92.6818 293.623 93.3104 294.193 94.0176C294.782 94.7052 295.087 95.5107 295.106 96.434C295.087 97.4162 294.772 98.2905 294.163 99.0566C293.554 99.8228 292.66 100.422 291.482 100.854C290.303 101.286 288.839 101.502 287.091 101.502C285.009 101.502 283.211 101.178 281.698 100.53C280.205 99.8817 279.046 98.9289 278.221 97.6716C277.396 96.4143 276.935 94.8624 276.836 93.0158H261.277C261.297 98.0645 262.378 102.21 264.519 105.451C266.68 108.673 269.705 111.06 273.595 112.612C277.504 114.164 282.082 114.94 287.327 114.94C292.435 114.94 296.806 114.223 300.44 112.789C304.094 111.354 306.903 109.262 308.868 106.512C310.832 103.762 311.824 100.402 311.844 96.434C311.824 94.1355 311.451 92.0139 310.724 90.069C310.017 88.1241 308.907 86.3757 307.394 84.8238C305.882 83.2522 303.937 81.8868 301.56 80.7278C299.183 79.5687 296.324 78.6356 292.985 77.9283L288.034 76.8675C286.6 76.5728 285.362 76.2389 284.321 75.8656C283.28 75.4924 282.425 75.0798 281.757 74.628C281.089 74.1565 280.598 73.6359 280.284 73.0662C279.989 72.4768 279.862 71.8187 279.901 71.0919C279.921 70.2078 280.186 69.422 280.697 68.7345C281.207 68.0469 281.993 67.5066 283.054 67.1137C284.134 66.7012 285.519 66.4949 287.209 66.4949C289.861 66.4949 291.835 67.045 293.132 68.1451ZM313.722 114.232H331.403L334.89 102.681H354.79L358.277 114.232H375.958L356.038 53.8828H333.642L313.722 114.232ZM351.09 90.4226L345.076 70.5025H344.604L338.591 90.4226H351.09ZM381.77 53.8828V114.232H398.154V96.3161H407.23C411.827 96.3161 415.845 95.4616 419.283 93.7524C422.74 92.0433 425.422 89.6073 427.327 86.4445C429.253 83.2816 430.215 79.5392 430.215 75.2173C430.215 70.9347 429.282 67.1923 427.416 63.9902C425.549 60.788 422.937 58.3029 419.577 56.5349C416.218 54.7668 412.299 53.8828 407.82 53.8828H381.77ZM398.154 83.5861H403.93C405.855 83.5861 407.496 83.2522 408.851 82.5842C410.226 81.8966 411.277 80.9242 412.004 79.6669C412.751 78.4096 413.124 76.9264 413.124 75.2173C413.124 73.4886 412.751 72.0152 412.004 70.7972C411.277 69.5595 410.226 68.6166 408.851 67.9683C407.496 67.3004 405.855 66.9664 403.93 66.9664H398.154V83.5861ZM436.344 102.445V114.232H482.667V101.149H459.093V100.795L464.751 96.0804C469.348 92.2496 472.894 88.9492 475.389 86.1793C477.884 83.4093 479.613 80.8849 480.575 78.6061C481.538 76.3076 482.019 73.9993 482.019 71.6812C482.019 67.929 481.047 64.6581 479.102 61.8685C477.177 59.0789 474.436 56.9179 470.88 55.3856C467.344 53.8337 463.16 53.0577 458.327 53.0577C453.652 53.0577 449.575 53.8828 446.098 55.533C442.621 57.1832 439.93 59.5406 438.024 62.6052C436.118 65.6698 435.166 69.3238 435.166 73.5671H450.725C450.725 71.8777 451.039 70.4436 451.668 69.2649C452.296 68.0862 453.18 67.1923 454.32 66.5833C455.479 65.9743 456.815 65.6698 458.327 65.6698C459.84 65.6698 461.176 65.9743 462.335 66.5833C463.494 67.1727 464.398 68.0174 465.046 69.1175C465.714 70.2177 466.048 71.5437 466.048 73.0957C466.048 74.5101 465.753 75.7969 465.164 76.9559C464.594 78.115 463.769 79.2446 462.688 80.3447C461.628 81.4252 460.351 82.5842 458.858 83.8219L436.344 102.445ZM502.072 112.081C506.06 114.596 510.794 115.863 516.275 115.883C521.756 115.883 526.481 114.635 530.449 112.14C534.437 109.626 537.512 106.001 539.673 101.267C541.833 96.5322 542.914 90.8352 542.914 84.1755C542.934 77.5551 541.863 71.9268 539.702 67.2905C537.541 62.6543 534.467 59.128 530.479 56.7117C526.491 54.2757 521.756 53.0577 516.275 53.0577C510.794 53.0577 506.06 54.2659 502.072 56.6822C498.104 59.0985 495.039 62.6248 492.878 67.2611C490.737 71.8973 489.656 77.5354 489.637 84.1755C489.617 90.7959 490.688 96.4733 492.849 101.208C495.009 105.942 498.084 109.567 502.072 112.081ZM523.23 98.1431C521.422 101.09 519.104 102.563 516.275 102.563C514.389 102.563 512.71 101.915 511.236 100.618C509.783 99.3218 508.643 97.318 507.818 94.607C506.993 91.8763 506.59 88.3992 506.61 84.1755C506.649 77.9676 507.563 73.4296 509.35 70.5614C511.138 67.6933 513.446 66.2592 516.275 66.2592C518.161 66.2592 519.831 66.8976 521.285 68.1746C522.738 69.4319 523.878 71.3767 524.703 74.0092C525.528 76.6416 525.941 80.0304 525.941 84.1755C525.96 90.5208 525.057 95.1767 523.23 98.1431ZM550.605 102.445V114.232H596.928V101.149H573.354V100.795L579.012 96.0804C583.609 92.2496 587.155 88.9492 589.65 86.1793C592.145 83.4093 593.873 80.8849 594.836 78.6061C595.799 76.3076 596.28 73.9993 596.28 71.6812C596.28 67.929 595.307 64.6581 593.363 61.8685C591.437 59.0789 588.697 56.9179 585.141 55.3856C581.605 53.8337 577.421 53.0577 572.588 53.0577C567.912 53.0577 563.836 53.8828 560.359 55.533C556.882 57.1832 554.19 59.5406 552.285 62.6052C550.379 65.6698 549.426 69.3238 549.426 73.5671H564.985C564.985 71.8777 565.3 70.4436 565.928 69.2649C566.557 68.0862 567.441 67.1923 568.58 66.5833C569.739 65.9743 571.075 65.6698 572.588 65.6698C574.101 65.6698 575.436 65.9743 576.595 66.5833C577.755 67.1727 578.658 68.0174 579.306 69.1175C579.974 70.2177 580.308 71.5437 580.308 73.0957C580.308 74.5101 580.014 75.7969 579.424 76.9559C578.855 78.115 578.03 79.2446 576.949 80.3447C575.888 81.4252 574.611 82.5842 573.118 83.8219L550.605 102.445ZM615.154 112.612C618.847 114.242 623.071 115.058 627.825 115.058C632.756 115.058 637.107 114.282 640.879 112.73C644.671 111.178 647.627 109.036 649.749 106.306C651.89 103.575 652.951 100.442 652.931 96.9055C652.971 93.2122 651.762 90.1476 649.307 87.7116C646.851 85.256 643.187 83.7629 638.315 83.2325V82.761C641.91 82.3681 644.877 81.0912 647.215 78.9302C649.572 76.7693 650.731 73.9993 650.692 70.6204C650.711 67.2218 649.749 64.2063 647.804 61.5738C645.879 58.9217 643.197 56.8394 639.759 55.3267C636.341 53.814 632.402 53.0577 627.943 53.0577C623.385 53.0577 619.348 53.8631 615.832 55.474C612.315 57.0849 609.545 59.3048 607.522 62.1337C605.518 64.9626 604.506 68.2237 604.487 71.917H620.163C620.183 70.699 620.527 69.6185 621.195 68.6755C621.863 67.7326 622.776 66.9959 623.935 66.4654C625.114 65.935 626.45 65.6698 627.943 65.6698C629.318 65.6698 630.526 65.9252 631.567 66.436C632.628 66.9468 633.453 67.654 634.043 68.5576C634.632 69.4613 634.917 70.5025 634.897 71.6812C634.917 72.8992 634.573 73.9797 633.866 74.9226C633.178 75.8656 632.206 76.6023 630.948 77.1327C629.711 77.6631 628.277 77.9283 626.646 77.9283H620.517V89.2439H626.646C628.414 89.2439 629.976 89.5091 631.331 90.0395C632.687 90.5699 633.738 91.3066 634.485 92.2496C635.251 93.1926 635.624 94.273 635.604 95.491C635.624 96.7287 635.31 97.8288 634.661 98.7914C634.013 99.754 633.109 100.51 631.95 101.06C630.791 101.591 629.455 101.856 627.943 101.856C626.371 101.856 624.976 101.601 623.758 101.09C622.54 100.579 621.578 99.8719 620.87 98.9682C620.183 98.0449 619.829 97.0037 619.81 95.8446H603.308C603.327 99.5968 604.388 102.917 606.49 105.805C608.592 108.693 611.48 110.962 615.154 112.612Z" fill="black"/>
</mask>
<g mask="url(#mask0_3724_1990)">
<rect x="-58" y="-5" width="816" height="42" fill="#D3CEC1"/>
<rect x="-57.5396" y="39.3926" width="815.54" height="14.9482" fill="#D3CEC1"/>
<rect x="-57.5396" y="57.9771" width="815.54" height="13.7362" fill="#D3CEC1"/>
<rect x="-57.5396" y="76.5605" width="815.54" height="12.5242" fill="#D3CEC1"/>
<rect x="-57.5396" y="95.3467" width="815.54" height="11.1102" fill="#D3CEC1"/>
<rect x="-57.5396" y="113.931" width="815.54" height="9.29213" fill="#D3CEC1"/>
<rect x="-57.5396" y="133.324" width="815.54" height="7.67611" fill="#D3CEC1"/>
</g>
</svg>
