<svg width="1920" height="1080" viewBox="0 0 1920 1080" fill="none" xmlns="http://www.w3.org/2000/svg">
<path d="M1398 532H1920V548H1398C1380.33 548 1366 562.327 1366 580V642C1366 659.673 1351.67 674 1334 674H1000C982.327 674 968 688.327 968 706V1080H952V706C952 688.327 937.673 674 920 674H586C568.327 674 554 659.673 554 642V580C554 562.327 539.673 548 522 548H0V532H522C539.673 532 554 517.673 554 500V437C554 419.327 568.327 405 586 405H920C937.673 405 952 390.673 952 373V-1H968V373C968 390.673 982.327 405 1000 405H1334C1351.67 405 1366 419.327 1366 437V500C1366 517.673 1380.33 532 1398 532Z" fill="url(#paint0_linear_6332_1271)"/>
<defs>
<linearGradient id="paint0_linear_6332_1271" x1="0" y1="539.5" x2="1920" y2="539.5" gradientUnits="userSpaceOnUse">
<stop stop-color="#FF4B0A"/>
<stop offset="1" stop-color="#FF0046"/>
</linearGradient>
</defs>
</svg>
