<svg width="1920" height="1080" viewBox="0 0 1920 1080" fill="none" xmlns="http://www.w3.org/2000/svg">
<g clip-path="url(#clip0_6127_6362)">
<rect width="1920" height="1080" fill="#191919"/>
<rect x="981.217" y="540.003" width="1128.24" height="1128.24" transform="rotate(-45 981.217 540.003)" fill="#F80023" fill-opacity="0.25" stroke="#F80023" stroke-width="30"/>
<rect x="-680.787" y="540" width="1145.21" height="1145.21" transform="rotate(-45 -680.787 540)" stroke="#007EFF" stroke-width="30"/>
<rect x="223.719" y="-217.498" width="1041.26" height="1041.26" transform="rotate(-45 223.719 -217.498)" fill="#FFC300" fill-opacity="0.25" stroke="#FFC300" stroke-width="30"/>
<rect x="223.719" y="1297.5" width="1041.26" height="1041.26" transform="rotate(-45 223.719 1297.5)" fill="#00C091" fill-opacity="0.25" stroke="#00C091" stroke-width="30"/>
<path d="M1517.42 1079L2116 1079V859L1297 859L1517.42 1079Z" fill="url(#paint0_linear_6127_6362)" fill-opacity="0.5"/>
<path d="M1517.42 -3.99989L2116 -4V216L1297 216L1517.42 -3.99989Z" fill="url(#paint1_linear_6127_6362)" fill-opacity="0.5"/>
</g>
<defs>
<linearGradient id="paint0_linear_6127_6362" x1="1755" y1="949.5" x2="1755" y2="859" gradientUnits="userSpaceOnUse">
<stop stop-color="#F80023"/>
<stop offset="1" stop-color="#F80023" stop-opacity="0"/>
</linearGradient>
<linearGradient id="paint1_linear_6127_6362" x1="1755" y1="125.5" x2="1755" y2="216" gradientUnits="userSpaceOnUse">
<stop stop-color="#F80023"/>
<stop offset="1" stop-color="#F80023" stop-opacity="0"/>
</linearGradient>
<clipPath id="clip0_6127_6362">
<rect width="1920" height="1080" fill="white"/>
</clipPath>
</defs>
</svg>
