<?xml version="1.0" encoding="utf-8"?>
<!-- Generator: Adobe Illustrator 27.5.0, SVG Export Plug-In . SVG Version: 6.00 Build 0)  -->
<svg version="1.1" id="Layer_1" xmlns="http://www.w3.org/2000/svg" xmlns:xlink="http://www.w3.org/1999/xlink" x="0px" y="0px"
	 viewBox="0 0 513 231.9" style="enable-background:new 0 0 513 231.9;" xml:space="preserve">
<style type="text/css">
	.st0{fill:#FFFFFF;}
</style>
<path class="st0" d="M182.6,86.1c0-11.5,8.7-20.8,24-20.8c13.4,0,21.8,7.2,23.6,16.8H217c-1.6-4.2-5.7-7.1-10.4-7.1
	c-6.2,0-11.1,5-11.1,11.1s5,11.1,11.1,11.1c4.7,0,8.8-2.9,10.4-7.1h13.2c-1.8,9.6-10.2,16.8-23.6,16.8
	C191.4,106.9,182.6,97.6,182.6,86.1z M206.6,156.3c13.4,0,21.8-7.2,23.6-16.8H217c-1.6,4.1-5.7,7.1-10.4,7.1
	c-6.2,0-11.1-5-11.1-11.1s5-11.1,11.1-11.1c4.7,0,8.8,2.9,10.4,7.1h13.2c-1.8-9.6-10.2-16.8-23.6-16.8c-15.2,0-24,9.3-24,20.8
	S191.4,156.3,206.6,156.3z M390.9,135.5c0-11.5,8.4-20.8,22.9-20.8c13.3,0,22.4,10.3,22.4,20.8c0,1.3-0.1,2.9-0.4,4h-32.3
	c2,4.1,6.9,7.1,13.2,7.1c12,0,17.6-5,17.6-5v9.1c0,0-7.7,5.6-19.7,5.6C400.1,156.3,390.9,147,390.9,135.5z M403.4,131.4h20.8
	c-1.6-4.2-5.7-7.1-10.4-7.1C409.1,124.3,405,127.3,403.4,131.4z M322,86.1c0-11.5,8.4-20.8,22.9-20.8c13.3,0,22.4,10.3,22.4,20.8
	c0,1.3-0.1,2.8-0.4,4h-32.3c2,4.1,6.9,7.1,13.2,7.1c12,0,17.6-5,17.6-5v9.1c0,0-7.7,5.6-19.7,5.6C331.2,106.9,322,97.6,322,86.1z
	 M334.5,82h20.8c-1.6-4.2-5.7-7.1-10.4-7.1S336.2,77.9,334.5,82z M369.1,72.9h1.7v-5.1h2.6v-1.5h-6.9v1.5h2.6V72.9z M253,106.9
	c9.7,0,14.4-7.5,14.4-7.5l1.1,6.4h12.9l-1.1-6.4V66.3h-12.9v21.4c0,5.2-4.2,9.4-9.4,9.4c-5.2,0-9.4-4.2-9.4-9.4V66.3h-12.9l0,22
	C235.6,96,239,106.9,253,106.9z M234.5,135.5c0-11.7,8.7-20.8,19.6-20.8c6.6,0,12.2,3.9,14.4,7.5v-6.4h12.9l0,33.1l1.1,6.4h-12.9
	l-1.1-6.4c-2.2,3.6-7.8,7.5-14.4,7.5C243.3,156.3,234.5,147.1,234.5,135.5z M247.4,135.5c0,6.2,5,11.1,11.1,11.1
	c6.2,0,11.1-5,11.1-11.1c0-6.2-5-11.1-11.1-11.1C252.3,124.3,247.4,129.3,247.4,135.5z M375.8,67.8l2.2,5.1h1.9l2.2-5.1v5.1h1.7
	v-6.6h-2.6l-2.2,5.1l-2.2-5.1h-2.6v6.6h1.7V67.8z M289.2,155.2h12.9v-21.4c0-5.2,4.2-9.4,9.4-9.4c5.2,0,9.4,4.2,9.4,9.4v21.4h12.9
	l0-22c0-7.6-3.3-18.5-17.4-18.5c-9.7,0-14.4,7.5-14.4,7.5l-1.1-6.4h-12.9l1.1,6.4V155.2z M468.6,114.7c-9.7,0-14.4,7.5-14.4,7.5
	l-1.1-6.4h-12.9l1.1,6.4l0,33.1h12.9v-18.9c0-6.6,5.3-11.9,11.9-11.9c2.6,0,5,0.8,6.9,2.2v-11.5
	C471.7,114.8,470.2,114.7,468.6,114.7z M386.5,139.5h-13.2c-1.6,4.1-5.7,7.1-10.4,7.1c-6.2,0-11.1-5-11.1-11.1s5-11.1,11.1-11.1
	c4.7,0,8.8,2.9,10.4,7.1h13.2c-1.8-9.6-10.2-16.8-23.6-16.8c-15.2,0-24,9.3-24,20.8s8.7,20.8,24,20.8
	C376.3,156.3,384.7,149.1,386.5,139.5z M301,105.8V86.9c0-6.6,5.3-11.9,11.9-11.9c2.6,0,5,0.8,6.9,2.2V65.7
	c-1.4-0.3-2.9-0.4-4.5-0.4c-9.7,0-14.4,7.5-14.4,7.5l-1.1-6.4H287l1.1,6.4l0,33.1H301z M135.5,86.6c-2.7,0-5.2-0.5-7.5-1.5
	c3.7,4,8.9,6.6,14.8,6.6c11,0,20-8.9,20-20c0-8.4-5.1-15.5-12.4-18.5c3.2,3.5,5.2,8.2,5.2,13.4C155.4,77.7,146.5,86.6,135.5,86.6z
	 M138.8,60.6c0,11-8.9,20-20,20c-0.3,0-0.5,0-0.8,0c2.8,1.5,6,2.3,9.3,2.3c11,0,20-8.9,20-20c0-10.8-8.5-19.5-19.2-19.9
	C134.5,46.4,138.8,53,138.8,60.6z M121.1,60.6c0,8.9-5.8,16.4-13.8,19c0.9,0.1,1.8,0.2,2.7,0.2c11,0,20-8.9,20-20c0-11-8.9-20-20-20
	c-2.1,0-4.2,0.3-6.1,1C113.6,42.2,121.1,50.5,121.1,60.6z M104.5,66.7c0,6.4-3,12.1-7.7,15.8c9-1.9,15.8-9.9,15.8-19.5
	c0-11-8.9-20-20-20c-4.6,0-8.8,1.6-12.2,4.2c1.3-0.3,2.7-0.4,4.2-0.4C95.6,46.7,104.5,55.7,104.5,66.7z M91,78
	c0,3.9-1.1,7.5-3.1,10.6c5.6-3.5,9.3-9.8,9.3-16.9c0-11-8.9-20-20-20c-7.1,0-13.4,3.7-16.9,9.3c3.1-1.9,6.7-3.1,10.6-3.1
	C82,58.1,91,67,91,78z M62.2,73.4c11,0,20,8.9,20,20c0,1.4-0.2,2.8-0.4,4.2c2.6-3.4,4.2-7.6,4.2-12.2c0-11-8.9-20-20-20
	c-9.6,0-17.6,6.7-19.5,15.8C50,76.4,55.7,73.4,62.2,73.4z M59.1,90.8c10.1,0,18.4,7.5,19.8,17.2c0.6-1.9,1-4,1-6.1
	c0-11-8.9-20-20-20c-11,0-20,8.9-20,20c0,0.9,0.1,1.8,0.2,2.7C42.7,96.6,50.2,90.8,59.1,90.8z M62.2,108.2c7.6,0,14.3,4.3,17.6,10.6
	c-0.4-10.7-9.2-19.2-19.9-19.2c-11,0-20,8.9-20,20c0,3.4,0.8,6.5,2.3,9.3c0-0.3,0-0.5,0-0.8C42.2,117.2,51.1,108.2,62.2,108.2z
	 M71,123.5c5.2,0,9.8,2,13.4,5.2c-3-7.3-10.1-12.4-18.5-12.4c-11,0-20,8.9-20,20c0,5.9,2.5,11.1,6.6,14.8c-0.9-2.3-1.5-4.9-1.5-7.5
	C51,132.5,60,123.5,71,123.5z M84.5,134.9c2.7,0,5.2,0.5,7.5,1.5c-3.7-4-8.9-6.6-14.8-6.6c-11,0-20,8.9-20,20
	c0,8.4,5.1,15.5,12.4,18.5c-3.2-3.5-5.2-8.2-5.2-13.4C64.6,143.8,73.5,134.9,84.5,134.9z M81.2,160.9c0-11,8.9-20,20-20
	c0.3,0,0.5,0,0.8,0c-2.8-1.5-6-2.3-9.3-2.3c-11,0-20,8.9-20,20c0,10.8,8.5,19.5,19.2,19.9C85.5,175.2,81.2,168.6,81.2,160.9z
	 M98.9,160.9c0-8.9,5.8-16.4,13.8-19c-0.9-0.1-1.8-0.2-2.7-0.2c-11,0-20,8.9-20,20c0,11,8.9,20,20,20c2.1,0,4.2-0.3,6.1-1
	C106.4,179.4,98.9,171,98.9,160.9z M115.5,154.9c0-6.4,3-12.1,7.7-15.8c-9,1.9-15.8,9.9-15.8,19.5c0,11,8.9,20,20,20
	c4.6,0,8.9-1.6,12.2-4.2c-1.4,0.3-2.8,0.4-4.2,0.4C124.4,174.8,115.5,165.9,115.5,154.9z M142.7,129.8c-11,0-20,8.9-20,20
	c0,11,8.9,20,20,20c11,0,20-8.9,20-20C162.7,138.8,153.7,129.8,142.7,129.8z M415.4,180.5c0.6-0.3,1.3-0.5,2.2-0.5
	c1.1,0,2,0.3,2.7,0.8c0.7,0.5,1.2,1.2,1.4,2.2h5.6c-0.1-1.4-0.7-2.7-1.5-3.7c-0.9-1-2-1.9-3.4-2.5c-1.4-0.6-3-0.9-4.7-0.9
	c-1.9,0-3.6,0.4-5.1,1.1c-1.5,0.7-2.6,1.7-3.4,2.9c-0.8,1.2-1.2,2.7-1.2,4.3c0,1.6,0.4,3.1,1.2,4.3c0.8,1.2,2,2.2,3.4,2.9
	c1.5,0.7,3.2,1,5.1,1c1.7,0,3.3-0.3,4.7-0.9c1.4-0.6,2.5-1.4,3.4-2.5c0.9-1.1,1.4-2.3,1.5-3.7h-5.6c-0.2,0.9-0.6,1.6-1.4,2.1
	c-0.7,0.5-1.6,0.8-2.7,0.8c-0.8,0-1.5-0.2-2.2-0.5c-0.6-0.3-1.1-0.8-1.4-1.4c-0.3-0.6-0.5-1.4-0.5-2.2c0-0.9,0.2-1.6,0.5-2.3
	C414.3,181.3,414.8,180.8,415.4,180.5z M469.7,175.7l1.1,1.8h-1.5l-0.9-1.6h-0.7v1.6h-1.3v-4.6h2.5c0.5,0,1,0.1,1.3,0.4
	c0.3,0.3,0.5,0.6,0.5,1.1c0,0.5-0.2,0.8-0.5,1.1C470.1,175.5,469.9,175.6,469.7,175.7z M469.4,174.3c0-0.2-0.1-0.3-0.2-0.4
	c-0.1-0.1-0.2-0.1-0.4-0.1h-1.1v1h1.1c0.2,0,0.3,0,0.4-0.1C469.3,174.6,469.4,174.5,469.4,174.3z M472.7,173.5
	c0.2,0.5,0.3,1.1,0.3,1.7c0,0.6-0.1,1.2-0.3,1.7c-0.2,0.5-0.5,0.9-0.9,1.3s-0.9,0.7-1.4,0.9c-0.6,0.2-1.2,0.3-1.8,0.3
	c-0.6,0-1.3-0.1-1.8-0.3c-0.6-0.2-1-0.5-1.4-0.9c-0.4-0.4-0.7-0.8-0.9-1.3c-0.2-0.5-0.3-1.1-0.3-1.7c0-0.6,0.1-1.1,0.3-1.7
	c0.2-0.5,0.5-0.9,0.9-1.3c0.4-0.4,0.9-0.7,1.4-0.9c0.6-0.2,1.2-0.3,1.8-0.3c0.7,0,1.3,0.1,1.8,0.3c0.6,0.2,1,0.5,1.4,0.9
	C472.2,172.6,472.5,173,472.7,173.5z M472.1,175.2c0-0.6-0.1-1.2-0.4-1.7c-0.3-0.5-0.7-0.9-1.2-1.1c-0.5-0.3-1.1-0.4-1.9-0.4
	c-0.7,0-1.3,0.1-1.8,0.4c-0.5,0.3-0.9,0.7-1.2,1.1c-0.3,0.5-0.4,1-0.4,1.7c0,0.6,0.1,1.2,0.4,1.7c0.3,0.5,0.7,0.9,1.2,1.2
	c0.5,0.3,1.1,0.4,1.8,0.4c0.7,0,1.3-0.1,1.9-0.4c0.5-0.3,0.9-0.7,1.2-1.2C471.9,176.3,472.1,175.8,472.1,175.2z M460.4,175.9
	c-1.1,0-2,0.2-2.7,0.7c-0.8,0.4-1.4,1.1-1.9,1.8c-0.4,0.6-0.7,1.4-1,2.2l-0.7-4.2h-5.7l1,5.3V192h5.6v-6.4c0-1.2,0.2-2.2,0.6-2.9
	c0.4-0.7,1-1.3,1.6-1.6c0.7-0.3,1.4-0.5,2.2-0.5c0.4,0,0.8,0,1.3,0.1c0.5,0,1,0.1,1.5,0.2v-4.8c-0.3-0.1-0.7-0.1-1-0.2
	S460.7,175.9,460.4,175.9z M446.9,185.8h-12.4c0.1,0.1,0.1,0.3,0.2,0.4c0.4,0.7,1.1,1.2,2,1.6c0.9,0.4,1.9,0.5,3.2,0.5
	c1.1,0,2.3-0.1,3.4-0.5c1.1-0.3,2.2-0.7,3.1-1.3v3.6c-1.1,0.7-2.3,1.3-3.7,1.7c-1.4,0.4-2.9,0.6-4.5,0.6c-1.9,0-3.6-0.3-5.1-1
	c-1.5-0.7-2.7-1.7-3.5-2.9c-0.9-1.3-1.3-2.7-1.3-4.4c0-1.6,0.4-3.1,1.2-4.3c0.8-1.2,1.9-2.2,3.4-2.9c1.4-0.7,3.1-1,4.9-1
	c1.9,0,3.5,0.4,4.8,1.2c1.3,0.8,2.3,2,3.1,3.4C446.5,182,446.9,183.8,446.9,185.8z M441.7,182.4c-0.1-0.3-0.2-0.6-0.4-0.9
	c-0.3-0.6-0.8-1-1.3-1.3c-0.5-0.3-1.2-0.4-1.9-0.4c-0.8,0-1.5,0.2-2.1,0.5c-0.6,0.3-1,0.8-1.4,1.4c-0.1,0.2-0.2,0.5-0.3,0.7H441.7z
	 M402.6,176.8c-1.1-0.6-2.3-0.9-3.8-0.9c-1.3,0-2.4,0.3-3.5,0.9c-1,0.6-1.9,1.4-2.6,2.6c-0.1,0.1-0.1,0.2-0.2,0.3l-0.5-3.3h-5.6
	l1,5.4V192h5.6v-7.5c0-0.8,0.2-1.5,0.5-2.1c0.3-0.6,0.8-1.1,1.3-1.4c0.6-0.3,1.2-0.5,2-0.5c1.1,0,2,0.3,2.6,0.9
	c0.6,0.6,0.9,1.5,0.9,2.7v7.9h5.6v-8.8c0-1.5-0.3-2.8-0.8-3.9C404.4,178.2,403.6,177.4,402.6,176.8z M284.9,185.8h-12.4
	c0.1,0.1,0.1,0.3,0.2,0.4c0.4,0.7,1.1,1.2,2,1.6c0.9,0.4,1.9,0.5,3.2,0.5c1.2,0,2.3-0.1,3.4-0.5c1.1-0.3,2.2-0.7,3.1-1.3v3.6
	c-1.1,0.7-2.3,1.3-3.7,1.7c-1.4,0.4-2.9,0.6-4.5,0.6c-1.9,0-3.6-0.3-5.1-1c-1.5-0.7-2.7-1.7-3.5-2.9c-0.9-1.3-1.3-2.7-1.3-4.4
	c0-1.6,0.4-3.1,1.2-4.3c0.8-1.2,1.9-2.2,3.4-2.9c1.4-0.7,3.1-1,4.9-1c1.9,0,3.5,0.4,4.8,1.2c1.3,0.8,2.3,2,3.1,3.4
	C284.6,182,284.9,183.8,284.9,185.8z M279.7,182.4c-0.1-0.3-0.2-0.6-0.4-0.9c-0.3-0.6-0.8-1-1.3-1.3c-0.5-0.3-1.2-0.4-1.9-0.4
	c-0.8,0-1.5,0.2-2.1,0.5c-0.6,0.3-1,0.8-1.4,1.4c-0.1,0.2-0.2,0.5-0.3,0.7H279.7z M231.7,176.3l-1,7.8l1,7.8h-5.8l-0.4-3.2
	c-0.7,1.1-1.6,2-2.7,2.6c-1.2,0.7-2.5,1-4,1c-1.5,0-2.9-0.3-4-1c-1.2-0.7-2.1-1.7-2.7-2.9c-0.7-1.3-1-2.7-1-4.3c0-1.7,0.3-3.1,1-4.4
	c0.7-1.2,1.6-2.2,2.7-2.9c1.2-0.7,2.5-1,4-1c1.5,0,2.8,0.3,4,1c1.1,0.6,2,1.5,2.7,2.6l0.4-3.1H231.7z M225.7,184.2
	c-0.3-0.8-0.6-1.5-1.2-2.1c-0.5-0.6-1.1-1.1-1.8-1.4c-0.7-0.3-1.4-0.5-2.2-0.5c-0.7,0-1.4,0.2-1.9,0.5c-0.6,0.3-1,0.8-1.3,1.4
	c-0.3,0.6-0.5,1.3-0.5,2.1c0,0.8,0.2,1.5,0.5,2.1c0.3,0.6,0.8,1.1,1.3,1.4c0.6,0.3,1.2,0.5,1.9,0.5c0.8,0,1.5-0.2,2.2-0.5
	c0.7-0.3,1.3-0.8,1.8-1.4C225,185.6,225.4,185,225.7,184.2z M384.5,176.3l-1,7.8l1,7.8h-5.8l-0.4-3.2c-0.7,1.1-1.6,2-2.7,2.6
	c-1.2,0.7-2.5,1-4,1c-1.5,0-2.9-0.3-4-1s-2.1-1.7-2.7-2.9c-0.7-1.3-1-2.7-1-4.3c0-1.7,0.3-3.1,1-4.4c0.7-1.2,1.6-2.2,2.7-2.9
	c1.2-0.7,2.5-1,4-1c1.5,0,2.8,0.3,4,1c1.1,0.6,2,1.5,2.7,2.6l0.4-3.1H384.5z M378.4,184.2c-0.3-0.8-0.6-1.5-1.1-2.1
	c-0.5-0.6-1.1-1.1-1.8-1.4c-0.7-0.3-1.4-0.5-2.2-0.5c-0.7,0-1.4,0.2-1.9,0.5c-0.6,0.3-1,0.8-1.3,1.4c-0.3,0.6-0.5,1.3-0.5,2.1
	c0,0.8,0.2,1.5,0.5,2.1c0.3,0.6,0.8,1.1,1.3,1.4c0.6,0.3,1.2,0.5,1.9,0.5c0.8,0,1.5-0.2,2.2-0.5c0.7-0.3,1.3-0.8,1.8-1.4
	C377.8,185.6,378.2,185,378.4,184.2z M312,176.1c1,1.6,1.5,3.5,1.5,5.6c0,2.1-0.5,4-1.5,5.6c-1,1.6-2.4,2.9-4.3,3.8
	c-1.8,0.9-4,1.3-6.4,1.3c-2.4,0-4.6-0.4-6.4-1.3c-1.8-0.9-3.3-2.1-4.3-3.8c-1-1.6-1.5-3.5-1.5-5.6c0-2.1,0.5-4,1.5-5.6
	c1-1.6,2.4-2.9,4.3-3.8c1.8-0.9,4-1.3,6.4-1.3c2.4,0,4.6,0.4,6.4,1.3C309.6,173.2,311,174.5,312,176.1z M307.8,181.7
	c0-1.2-0.3-2.2-0.8-3c-0.5-0.8-1.3-1.5-2.2-1.9c-1-0.5-2.1-0.7-3.5-0.7c-1.3,0-2.5,0.2-3.4,0.7c-1,0.5-1.7,1.1-2.2,1.9
	c-0.5,0.8-0.8,1.8-0.8,3c0,1.2,0.3,2.2,0.8,3c0.5,0.8,1.3,1.5,2.2,1.9c1,0.5,2.1,0.7,3.4,0.7c1.3,0,2.5-0.2,3.5-0.7
	c1-0.5,1.7-1.1,2.2-1.9C307.6,183.9,307.8,182.9,307.8,181.7z M261.4,176.8c-1-0.6-2.2-0.9-3.7-0.9c-1.2,0-2.3,0.3-3.3,0.9
	c-1,0.6-1.8,1.4-2.5,2.6c-0.1,0.1-0.1,0.3-0.2,0.4c-0.1-0.1-0.1-0.3-0.2-0.4c-0.5-1.1-1.3-1.9-2.3-2.5c-1-0.6-2.2-0.9-3.7-0.9
	c-1.2,0-2.3,0.3-3.3,0.9c-1,0.6-1.8,1.4-2.5,2.6c0,0.1-0.1,0.1-0.1,0.2l-0.5-3.2h-5.6l1,5.4V192h5.6v-7.5c0-0.8,0.1-1.5,0.4-2.1
	c0.3-0.6,0.7-1.1,1.2-1.4c0.5-0.3,1.1-0.5,1.8-0.5c1,0,1.8,0.3,2.3,0.9c0.5,0.6,0.8,1.5,0.8,2.7v7.9h5.6v-7.5c0-0.8,0.1-1.5,0.4-2.1
	c0.3-0.6,0.7-1.1,1.2-1.4c0.5-0.3,1.1-0.5,1.8-0.5c1,0,1.8,0.3,2.3,0.9c0.5,0.6,0.8,1.5,0.8,2.7v7.9h5.6v-8.8c0-1.5-0.3-2.8-0.8-3.9
	C263.2,178.2,262.4,177.4,261.4,176.8z M197.8,185.4h5.6c-0.1,0.1-0.1,0.2-0.2,0.2c-0.6,0.7-1.4,1.3-2.5,1.7c-1,0.4-2.2,0.6-3.5,0.6
	c-1.4,0-2.6-0.2-3.6-0.7c-1-0.5-1.8-1.1-2.3-2.1c-0.5-0.9-0.8-2-0.8-3.4c0-1.3,0.3-2.4,0.8-3.3c0.5-0.9,1.2-1.6,2.2-2
	c0.9-0.4,2-0.7,3.3-0.7c1.1,0,2,0.1,2.8,0.4s1.5,0.6,2.1,1.1c0.6,0.5,0.9,1.1,1.1,1.8h5.7c-0.3-1.6-0.9-3-1.9-4.2
	c-1-1.2-2.3-2.2-4-2.8c-1.6-0.7-3.6-1-5.9-1c-1.7,0-3.3,0.2-4.7,0.7c-1.4,0.5-2.7,1.2-3.8,2.1c-1.1,0.9-1.9,2-2.5,3.4
	c-0.6,1.3-0.9,2.9-0.9,4.6c0,1.7,0.3,3.2,0.9,4.6c0.6,1.3,1.4,2.5,2.5,3.4c1.1,0.9,2.3,1.6,3.7,2.1c1.4,0.5,2.9,0.7,4.5,0.7
	c1.7,0,3.2-0.2,4.4-0.7c1.3-0.5,2.3-1.2,3.2-2.1c0.1-0.1,0.3-0.3,0.4-0.4l0.3,2.8h4v-10.6h-10.9V185.4z M347.2,176.6
	c0.9-0.5,2-0.7,3.3-0.7c1.1,0,2.1,0.2,2.9,0.5c0.8,0.3,1.5,0.8,2.1,1.4c0.5,0.6,0.9,1.4,1.1,2.2h5.7c-0.2-1.8-0.8-3.4-1.9-4.8
	c-1-1.4-2.4-2.4-4.1-3.2s-3.6-1.1-5.8-1.1c-2.4,0-4.5,0.4-6.3,1.3c-1.8,0.9-3.2,2.1-4.2,3.8c-1,1.6-1.5,3.5-1.5,5.6
	c0,2.1,0.5,4,1.5,5.6c1,1.6,2.4,2.9,4.2,3.8c1.8,0.9,3.9,1.3,6.3,1.3c2.2,0,4.1-0.4,5.8-1.1c1.7-0.7,3.1-1.8,4.1-3.2
	c1-1.4,1.7-2.9,1.9-4.8h-5.7c-0.2,0.9-0.5,1.7-1.1,2.3c-0.5,0.6-1.2,1.1-2.1,1.4c-0.8,0.3-1.8,0.5-2.9,0.5c-1.3,0-2.4-0.2-3.3-0.7
	c-0.9-0.5-1.6-1.1-2.1-2c-0.5-0.9-0.7-1.9-0.7-3.1c0-1.2,0.2-2.2,0.7-3.1C345.6,177.7,346.3,177.1,347.2,176.6z M331.4,176.8
	c-1.1-0.6-2.3-0.9-3.8-0.9c-1.3,0-2.4,0.3-3.5,0.9c-1,0.6-1.9,1.4-2.6,2.6c-0.1,0.1-0.1,0.2-0.2,0.3l-0.5-3.3h-5.6l1,5.4V192h5.6
	v-7.5c0-0.8,0.2-1.5,0.5-2.1c0.3-0.6,0.8-1.1,1.3-1.4c0.6-0.3,1.2-0.5,2-0.5c1.1,0,2,0.3,2.6,0.9c0.6,0.6,0.9,1.5,0.9,2.7v7.9h5.6
	v-8.8c0-1.5-0.3-2.8-0.8-3.9C333.3,178.2,332.5,177.4,331.4,176.8z"/>
</svg>
