<?xml version="1.0" encoding="utf-8"?>
<!-- Generator: Adobe Illustrator 27.5.0, SVG Export Plug-In . SVG Version: 6.00 Build 0)  -->
<svg version="1.1" id="Layer_1" xmlns="http://www.w3.org/2000/svg" xmlns:xlink="http://www.w3.org/1999/xlink" x="0px" y="0px"
	 viewBox="0 0 191 89.1" style="enable-background:new 0 0 191 89.1;" xml:space="preserve">
<style type="text/css">
	.st0{fill:#FFFFFF;}
</style>
<path class="st0" d="M87,55.8c0.6,1.1,0.8,2.4,0.8,3.9v8.8h-5.6v-7.9c0-1.2-0.3-2.1-0.9-2.7c-0.6-0.6-1.4-0.9-2.6-0.9
	c-0.8,0-1.4,0.2-2,0.5c-0.6,0.3-1,0.8-1.3,1.4C75.1,59.4,75,60.1,75,61v7.5h-5.6V58.3l-1-5.4h5.6l0.5,3.3c0.1-0.1,0.1-0.2,0.2-0.3
	c0.7-1.1,1.6-2,2.6-2.6c1-0.6,2.2-0.9,3.5-0.9c1.5,0,2.8,0.3,3.8,0.9C85.6,53.9,86.4,54.7,87,55.8z M66.5,52.9l-1,7.8l1,7.8h-5.8
	l-0.4-3.2c-0.7,1.1-1.6,2-2.7,2.6c-1.2,0.7-2.5,1-4,1c-1.5,0-2.9-0.3-4-1s-2.1-1.7-2.7-2.9c-0.7-1.3-1-2.7-1-4.3
	c0-1.7,0.3-3.1,1-4.4c0.7-1.2,1.6-2.2,2.7-2.9c1.2-0.7,2.5-1,4-1c1.5,0,2.8,0.3,4,1c1.1,0.6,2,1.5,2.7,2.6l0.4-3.1H66.5z M60.4,60.7
	c-0.3-0.8-0.6-1.5-1.1-2.1c-0.5-0.6-1.1-1.1-1.8-1.4c-0.7-0.3-1.4-0.5-2.2-0.5c-0.7,0-1.4,0.2-1.9,0.5c-0.6,0.3-1,0.8-1.3,1.4
	c-0.3,0.6-0.5,1.3-0.5,2.1c0,0.8,0.2,1.5,0.5,2.1c0.3,0.6,0.8,1.1,1.3,1.4c0.6,0.3,1.2,0.5,1.9,0.5c0.8,0,1.5-0.2,2.2-0.5
	c0.7-0.3,1.3-0.8,1.8-1.4C59.8,62.1,60.2,61.5,60.4,60.7z M29.2,53.1c0.9-0.5,2-0.7,3.3-0.7c1.1,0,2.1,0.2,2.9,0.5
	c0.8,0.3,1.5,0.8,2.1,1.4c0.5,0.6,0.9,1.4,1.1,2.2h5.7c-0.2-1.8-0.8-3.4-1.9-4.8c-1-1.4-2.4-2.4-4.1-3.2c-1.7-0.7-3.6-1.1-5.8-1.1
	c-2.4,0-4.5,0.4-6.3,1.3C24.4,49.7,23,51,22,52.6c-1,1.6-1.5,3.5-1.5,5.6c0,2.1,0.5,4,1.5,5.6c1,1.6,2.4,2.9,4.2,3.8
	c1.8,0.9,3.9,1.3,6.3,1.3c2.2,0,4.1-0.4,5.8-1.1c1.7-0.7,3.1-1.8,4.1-3.2c1-1.4,1.7-2.9,1.9-4.8h-5.7c-0.2,0.9-0.5,1.7-1.1,2.3
	c-0.5,0.6-1.2,1.1-2.1,1.4c-0.8,0.3-1.8,0.5-2.9,0.5c-1.3,0-2.4-0.2-3.3-0.7c-0.9-0.5-1.6-1.1-2.1-2c-0.5-0.9-0.7-1.9-0.7-3.1
	s0.2-2.2,0.7-3.1C27.5,54.2,28.3,53.6,29.2,53.1z M154.7,50c0.2,0.5,0.3,1.1,0.3,1.7c0,0.6-0.1,1.2-0.3,1.7
	c-0.2,0.5-0.5,0.9-0.9,1.3c-0.4,0.4-0.9,0.7-1.4,0.9c-0.6,0.2-1.2,0.3-1.8,0.3c-0.6,0-1.3-0.1-1.8-0.3c-0.6-0.2-1-0.5-1.4-0.9
	c-0.4-0.4-0.7-0.8-0.9-1.3c-0.2-0.5-0.3-1.1-0.3-1.7c0-0.6,0.1-1.1,0.3-1.7c0.2-0.5,0.5-0.9,0.9-1.3c0.4-0.4,0.9-0.7,1.4-0.9
	c0.6-0.2,1.2-0.3,1.8-0.3c0.7,0,1.3,0.1,1.8,0.3c0.6,0.2,1,0.5,1.4,0.9C154.2,49.1,154.5,49.5,154.7,50z M154.1,51.7
	c0-0.6-0.1-1.2-0.4-1.7c-0.3-0.5-0.7-0.9-1.2-1.1c-0.5-0.3-1.1-0.4-1.9-0.4c-0.7,0-1.3,0.1-1.8,0.4c-0.5,0.3-0.9,0.7-1.2,1.1
	c-0.3,0.5-0.4,1-0.4,1.7c0,0.6,0.1,1.2,0.4,1.7c0.3,0.5,0.7,0.9,1.2,1.2c0.5,0.3,1.1,0.4,1.8,0.4c0.7,0,1.3-0.1,1.9-0.4
	c0.5-0.3,0.9-0.7,1.2-1.2C153.9,52.9,154.1,52.3,154.1,51.7z M97.4,57c0.6-0.3,1.3-0.5,2.2-0.5c1.1,0,2,0.3,2.7,0.8
	c0.7,0.5,1.2,1.2,1.4,2.2h5.6c-0.1-1.4-0.7-2.7-1.5-3.7c-0.9-1-2-1.9-3.4-2.5c-1.4-0.6-3-0.9-4.7-0.9c-1.9,0-3.6,0.4-5.1,1.1
	c-1.5,0.7-2.6,1.7-3.4,2.9c-0.8,1.2-1.2,2.7-1.2,4.3c0,1.6,0.4,3.1,1.2,4.3c0.8,1.2,2,2.2,3.4,2.9c1.5,0.7,3.2,1,5.1,1
	c1.7,0,3.3-0.3,4.7-0.9c1.4-0.6,2.5-1.4,3.4-2.5c0.9-1.1,1.4-2.3,1.5-3.7h-5.6c-0.2,0.9-0.6,1.6-1.4,2.1c-0.7,0.5-1.6,0.8-2.7,0.8
	c-0.8,0-1.5-0.2-2.2-0.5c-0.6-0.3-1.1-0.8-1.4-1.4c-0.3-0.6-0.5-1.4-0.5-2.2c0-0.9,0.2-1.6,0.5-2.3C96.3,57.8,96.8,57.4,97.4,57z
	 M128.9,62.3h-12.4c0.1,0.1,0.1,0.3,0.2,0.4c0.4,0.7,1.1,1.2,2,1.6c0.9,0.4,1.9,0.5,3.2,0.5c1.1,0,2.3-0.1,3.4-0.5
	c1.1-0.3,2.2-0.7,3.1-1.3v3.6c-1.1,0.7-2.3,1.3-3.7,1.7c-1.4,0.4-2.9,0.6-4.5,0.6c-1.9,0-3.6-0.3-5.1-1c-1.5-0.7-2.7-1.7-3.5-2.9
	c-0.9-1.3-1.3-2.7-1.3-4.4c0-1.6,0.4-3.1,1.2-4.3c0.8-1.2,1.9-2.2,3.4-2.9c1.4-0.7,3.1-1,4.9-1c1.9,0,3.5,0.4,4.8,1.2
	c1.3,0.8,2.3,2,3.1,3.4C128.5,58.5,128.9,60.3,128.9,62.3z M123.7,58.9c-0.1-0.3-0.2-0.6-0.4-0.9c-0.3-0.6-0.8-1-1.3-1.3
	c-0.5-0.3-1.2-0.4-1.9-0.4c-0.8,0-1.5,0.2-2.1,0.5c-0.6,0.3-1,0.8-1.4,1.4c-0.1,0.2-0.2,0.5-0.3,0.7H123.7z M151.7,52.2l1.1,1.8
	h-1.5l-0.9-1.6h-0.7V54h-1.3v-4.6h2.5c0.5,0,1,0.1,1.3,0.4c0.3,0.3,0.5,0.6,0.5,1.1c0,0.5-0.2,0.8-0.5,1.1
	C152.1,52.1,151.9,52.1,151.7,52.2z M151.4,50.8c0-0.2-0.1-0.3-0.2-0.4c-0.1-0.1-0.2-0.1-0.4-0.1h-1.1v1h1.1c0.2,0,0.3,0,0.4-0.1
	C151.3,51.1,151.4,51,151.4,50.8z M142.3,52.4c-1.1,0-2,0.2-2.7,0.7c-0.8,0.4-1.4,1.1-1.9,1.8c-0.4,0.6-0.7,1.4-1,2.2l-0.7-4.2h-5.7
	l1,5.3v10.4h5.6v-6.4c0-1.2,0.2-2.2,0.6-2.9c0.4-0.7,1-1.3,1.6-1.6c0.7-0.3,1.4-0.5,2.2-0.5c0.4,0,0.8,0,1.3,0.1
	c0.5,0,1,0.1,1.5,0.2v-4.8c-0.3-0.1-0.7-0.1-1-0.2C143,52.4,142.7,52.4,142.3,52.4z M33.6,34.5h5.6c-0.1,0.1-0.1,0.2-0.2,0.2
	c-0.6,0.7-1.4,1.3-2.5,1.7c-1,0.4-2.2,0.6-3.5,0.6c-1.4,0-2.6-0.2-3.6-0.7c-1-0.5-1.8-1.1-2.3-2.1c-0.5-0.9-0.8-2-0.8-3.4
	c0-1.3,0.3-2.4,0.8-3.3c0.5-0.9,1.2-1.6,2.2-2c0.9-0.4,2-0.7,3.3-0.7c1.1,0,2,0.1,2.8,0.4c0.8,0.3,1.5,0.6,2.1,1.1
	c0.6,0.5,0.9,1.1,1.1,1.8h5.7c-0.3-1.6-0.9-3-1.9-4.2c-1-1.2-2.3-2.2-4-2.8c-1.6-0.7-3.6-1-5.9-1c-1.7,0-3.3,0.2-4.7,0.7
	c-1.4,0.5-2.7,1.2-3.8,2.1c-1.1,0.9-1.9,2-2.5,3.4c-0.6,1.3-0.9,2.9-0.9,4.6c0,1.7,0.3,3.2,0.9,4.6c0.6,1.3,1.4,2.5,2.5,3.4
	c1.1,0.9,2.3,1.6,3.7,2.1c1.4,0.5,2.9,0.7,4.5,0.7c1.7,0,3.2-0.2,4.4-0.7c1.3-0.5,2.3-1.2,3.2-2.1c0.1-0.1,0.3-0.3,0.4-0.4l0.3,2.8
	h4V30.5H33.6V34.5z M103.5,37.6c-0.9-1.3-1.3-2.7-1.3-4.4c0-1.6,0.4-3.1,1.2-4.3c0.8-1.2,1.9-2.2,3.4-2.9c1.4-0.7,3.1-1,4.9-1
	c1.9,0,3.5,0.4,4.8,1.2c1.3,0.8,2.3,2,3.1,3.4c0.7,1.5,1.1,3.2,1.1,5.2h-12.4c0.1,0.1,0.1,0.3,0.2,0.4c0.4,0.7,1.1,1.2,2,1.6
	c0.9,0.4,1.9,0.5,3.2,0.5c1.2,0,2.3-0.1,3.4-0.5c1.1-0.3,2.2-0.7,3.1-1.3v3.6c-1.1,0.7-2.3,1.3-3.7,1.7c-1.4,0.4-2.9,0.6-4.5,0.6
	c-1.9,0-3.6-0.3-5.1-1C105.5,39.8,104.3,38.8,103.5,37.6z M108,31.5h7.4c-0.1-0.3-0.2-0.6-0.4-0.9c-0.3-0.6-0.8-1-1.3-1.3
	c-0.5-0.3-1.2-0.4-1.9-0.4c-0.8,0-1.5,0.2-2.1,0.5c-0.6,0.3-1,0.8-1.4,1.4C108.2,31,108.1,31.3,108,31.5z M169.6,28.4
	c-0.6-1.1-1.4-1.9-2.4-2.5c-1.1-0.6-2.3-0.9-3.8-0.9c-1.3,0-2.4,0.3-3.5,0.9c-1,0.6-1.9,1.4-2.6,2.6c-0.1,0.1-0.1,0.2-0.2,0.3
	l-0.5-3.3H151l1,5.4v10.2h5.6v-7.5c0-0.8,0.2-1.5,0.5-2.1c0.3-0.6,0.8-1.1,1.3-1.4c0.6-0.3,1.2-0.5,2-0.5c1.1,0,2,0.3,2.6,0.9
	c0.6,0.6,0.9,1.5,0.9,2.7v7.9h5.6v-8.8C170.4,30.8,170.2,29.5,169.6,28.4z M147.8,36.4c-1,1.6-2.4,2.9-4.3,3.8
	c-1.8,0.9-4,1.3-6.4,1.3c-2.4,0-4.6-0.4-6.4-1.3c-1.8-0.9-3.3-2.1-4.3-3.8c-1-1.6-1.5-3.5-1.5-5.6c0-2.1,0.5-4,1.5-5.6
	c1-1.6,2.4-2.9,4.3-3.8c1.8-0.9,4-1.3,6.4-1.3c2.4,0,4.6,0.4,6.4,1.3c1.8,0.9,3.3,2.1,4.3,3.8c1,1.6,1.5,3.5,1.5,5.6
	C149.3,33,148.8,34.8,147.8,36.4z M143.6,30.8c0-1.2-0.3-2.2-0.8-3c-0.5-0.8-1.3-1.5-2.2-1.9c-1-0.5-2.1-0.7-3.5-0.7
	c-1.3,0-2.5,0.2-3.4,0.7c-1,0.5-1.7,1.1-2.2,1.9c-0.5,0.8-0.8,1.8-0.8,3c0,1.2,0.3,2.2,0.8,3c0.5,0.8,1.3,1.5,2.2,1.9
	c1,0.5,2.1,0.7,3.4,0.7c1.3,0,2.5-0.2,3.5-0.7s1.7-1.1,2.2-1.9C143.3,33,143.6,32,143.6,30.8z M93.9,30.5c0.5,0.6,0.8,1.5,0.8,2.7
	v7.9h5.6v-8.8c0-1.5-0.3-2.8-0.8-3.9c-0.5-1.1-1.3-1.9-2.3-2.5c-1-0.6-2.2-0.9-3.7-0.9c-1.2,0-2.3,0.3-3.3,0.9
	c-1,0.6-1.8,1.4-2.5,2.6c-0.1,0.1-0.1,0.3-0.2,0.4c-0.1-0.1-0.1-0.3-0.2-0.4c-0.5-1.1-1.3-1.9-2.3-2.5c-1-0.6-2.2-0.9-3.7-0.9
	c-1.2,0-2.3,0.3-3.3,0.9c-1,0.6-1.8,1.4-2.5,2.6c0,0.1-0.1,0.1-0.1,0.2l-0.5-3.2h-5.6l1,5.4v10.2h5.6v-7.5c0-0.8,0.1-1.5,0.4-2.1
	c0.3-0.6,0.7-1.1,1.2-1.4c0.5-0.3,1.1-0.5,1.8-0.5c1,0,1.8,0.3,2.3,0.9c0.5,0.6,0.8,1.5,0.8,2.7v7.9h5.6v-7.5c0-0.8,0.1-1.5,0.4-2.1
	c0.3-0.6,0.7-1.1,1.2-1.4c0.5-0.3,1.1-0.5,1.8-0.5C92.6,29.5,93.4,29.8,93.9,30.5z M67.5,25.5l-1,7.8l1,7.8h-5.8l-0.4-3.2
	c-0.7,1.1-1.6,2-2.7,2.6c-1.2,0.7-2.5,1-4,1c-1.5,0-2.9-0.3-4-1c-1.2-0.7-2.1-1.7-2.7-2.9c-0.7-1.3-1-2.7-1-4.3c0-1.7,0.3-3.1,1-4.4
	c0.7-1.2,1.6-2.2,2.7-2.9c1.2-0.7,2.5-1,4-1c1.5,0,2.8,0.3,4,1c1.1,0.6,2,1.5,2.7,2.6l0.4-3.1H67.5z M61.4,33.3
	c-0.3-0.8-0.6-1.5-1.2-2.1c-0.5-0.6-1.1-1.1-1.8-1.4c-0.7-0.3-1.4-0.5-2.2-0.5c-0.7,0-1.4,0.2-1.9,0.5c-0.6,0.3-1,0.8-1.3,1.4
	c-0.3,0.6-0.5,1.3-0.5,2.1c0,0.8,0.2,1.5,0.5,2.1c0.3,0.6,0.8,1.1,1.3,1.4c0.6,0.3,1.2,0.5,1.9,0.5c0.8,0,1.5-0.2,2.2-0.5
	c0.7-0.3,1.3-0.8,1.8-1.4C60.7,34.7,61.1,34.1,61.4,33.3z"/>
</svg>
