<svg width="846" height="282" viewBox="0 0 846 282" fill="none" xmlns="http://www.w3.org/2000/svg">
<g clip-path="url(#clip0_1686_6701)">
<path d="M328.5 158.2H282.7C270.6 158.2 261.6 155.8 255.7 150.9C249.8 146.1 246.9 138.6 246.9 128.5V83.1C246.9 73 249.8 65.6 255.7 60.7C261.6 55.9 270.6 53.4 282.7 53.4H319C320.8 53.4 322.2 53.8 323 54.6C323.8 55.4 324.2 56.8 324.2 58.6V76.2C324.2 78 323.8 79.4 323 80.2C322.2 81 320.8 81.4 319 81.4H288.8C285.8 81.4 283.6 82 282.1 83.2C280.6 84.4 279.9 86.2 279.9 88.7V123.4C279.9 125.8 280.5 127.6 281.6 128.8C282.7 130 284.4 130.5 286.6 130.5H300.7V107.8C300.7 106 301.1 104.6 301.9 103.8C302.7 103 304.1 102.6 305.9 102.6H328.4C330.2 102.6 331.6 103 332.4 103.8C333.2 104.6 333.6 106 333.6 107.8V153C333.6 154.8 333.2 156.2 332.4 157C331.6 157.8 330.3 158.2 328.5 158.2Z" fill="white"/>
<path d="M377.5 153C377.5 154.8 377.1 156.2 376.3 157C375.5 157.8 374.1 158.2 372.3 158.2H350.9C349.1 158.2 347.7 157.8 346.9 157C346.1 156.2 345.7 154.8 345.7 153V114.6C345.7 111.7 346.2 108.3 347.1 104.6C348 100.8 349.4 96.4 351.4 91.4L364 58.4C364.6 56.8 365.5 55.5 366.7 54.8C367.9 54 369.5 53.6 371.4 53.6H410.5C412.3 53.6 413.9 54 415.1 54.8C416.3 55.6 417.2 56.8 417.8 58.4L430.4 91.4C432.3 96.4 433.8 100.9 434.7 104.6C435.6 108.4 436.1 111.7 436.1 114.6V153C436.1 154.8 435.7 156.2 434.9 157C434.1 157.8 432.7 158.2 430.9 158.2H408.9C407 158.2 405.5 157.8 404.6 157C403.7 156.2 403.2 154.8 403.2 153V132.6H377.5V153ZM385.7 84.1L378.9 106.2H401.7L394.9 84.1C394.5 83.2 394.1 82.6 393.7 82.2C393.3 81.8 392.8 81.6 392.2 81.6H388.6C388 81.6 387.5 81.8 387.1 82.2C386.5 82.6 386.1 83.2 385.7 84.1Z" fill="white"/>
<path d="M477.2 158.2H455.5C453.7 158.2 452.3 157.8 451.5 157C450.7 156.2 450.3 154.8 450.3 153V58.8C450.3 57 450.7 55.6 451.5 54.8C452.3 54 453.7 53.6 455.5 53.6H478.9C480.4 53.6 481.7 53.9 482.8 54.6C483.8 55.3 484.8 56.4 485.6 57.9L498.7 81.6C499.2 82.5 499.6 83.1 499.9 83.5C500.2 83.9 500.7 84.1 501.3 84.1H502.6C503.2 84.1 503.6 83.9 504 83.5C504.3 83.1 504.7 82.5 505.2 81.6L518.1 57.9C519 56.4 519.9 55.2 520.9 54.6C521.9 53.9 523.2 53.6 524.8 53.6H548.4C550.2 53.6 551.6 54 552.4 54.8C553.2 55.6 553.6 57 553.6 58.8V153C553.6 154.8 553.2 156.2 552.4 157C551.6 157.8 550.2 158.2 548.4 158.2H526C524.2 158.2 522.8 157.8 522 157C521.2 156.2 520.8 154.8 520.8 153V101.8L512.2 117.6C511.3 119.2 510.3 120.4 509.1 121.2C507.9 121.9 506.4 122.3 504.5 122.3H498.7C496.9 122.3 495.3 121.9 494.1 121.2C492.9 120.5 491.8 119.3 491 117.6L482.4 101.8V153C482.4 154.8 482 156.2 481.2 157C480.4 157.8 479 158.2 477.2 158.2Z" fill="white"/>
<path d="M642.8 158.2H575.3C573.5 158.2 572.1 157.8 571.3 157C570.5 156.2 570.1 154.8 570.1 153V58.8C570.1 57 570.5 55.6 571.3 54.8C572.1 54 573.5 53.6 575.3 53.6H642.8C644.6 53.6 646 54 646.8 54.8C647.6 55.6 648 57 648 58.8V75.8C648 77.6 647.6 79 646.8 79.8C646 80.6 644.6 81 642.8 81H602.7V92.2H631C632.8 92.2 634.2 92.6 635 93.4C635.8 94.2 636.2 95.6 636.2 97.4V113C636.2 114.8 635.8 116.2 635 117C634.2 117.8 632.8 118.2 631 118.2H602.7V130.7H642.8C644.6 130.7 646 131.1 646.8 131.9C647.6 132.7 648 134.1 648 135.9V152.9C648 154.7 647.6 156.1 646.8 156.9C646 157.8 644.6 158.2 642.8 158.2Z" fill="white"/>
<path d="M738.1 138.4C738.1 141.7 737.6 144.7 736.6 147.4C735.6 150.1 733.9 152.4 731.4 154.3C728.9 156.2 725.5 157.7 721.2 158.8C716.9 159.9 711.3 160.4 704.7 160.4C698 160.4 692.5 159.9 688.1 158.8C683.7 157.7 680.3 156.2 677.8 154.3C675.3 152.4 673.6 150.1 672.6 147.4C671.6 144.7 671.1 141.7 671.1 138.4V101.6C671.1 98.3 671.6 95.3 672.6 92.6C673.6 89.9 675.3 87.6 677.8 85.6C680.3 83.7 683.7 82.2 688.1 81.1C692.5 80 698 79.5 704.7 79.5C711.4 79.5 716.9 80 721.2 81.1C725.5 82.2 729 83.7 731.4 85.6C733.9 87.5 735.6 89.9 736.6 92.6C737.6 95.3 738.1 98.3 738.1 101.6V138.4ZM695.6 134.5C695.6 135.9 696.1 137.1 697.2 138.1C698.3 139.1 700.8 139.6 704.6 139.6C708.5 139.6 711 139.1 712 138.1C713.1 137.1 713.6 135.9 713.6 134.5V105.5C713.6 104.1 713.1 103 712 102C710.9 101 708.4 100.5 704.6 100.5C700.7 100.5 698.2 101 697.2 102C696.1 103 695.6 104.1 695.6 105.5V134.5Z" fill="white"/>
<path d="M769.1 158.8H752.9C751.5 158.8 750.5 158.5 749.9 157.9C749.3 157.3 749 156.3 749 154.9V85.1C749 83.7 749.3 82.7 749.9 82.1C750.5 81.5 751.5 81.2 752.9 81.2H764.1C765.5 81.2 766.6 81.4 767.6 81.8C768.6 82.2 769.5 83 770.5 84.1L791.4 108V85C791.4 83.6 791.7 82.6 792.3 82C792.9 81.4 793.9 81.1 795.3 81.1H811.5C812.9 81.1 813.9 81.4 814.5 82C815.1 82.6 815.4 83.6 815.4 85V154.8C815.4 156.2 815.1 157.2 814.5 157.8C813.9 158.4 812.9 158.7 811.5 158.7H795.3C793.9 158.7 792.9 158.4 792.3 157.8C791.7 157.2 791.4 156.2 791.4 154.8V141.5L773 119.2V154.8C773 156.2 772.7 157.2 772.1 157.8C771.5 158.5 770.5 158.8 769.1 158.8Z" fill="white"/>
<path d="M318.1 280.2H282.6C270.5 280.2 261.5 277.8 255.6 272.9C249.7 268.1 246.8 260.6 246.8 250.5V205.3C246.8 195.2 249.7 187.7 255.6 182.8C261.5 177.9 270.5 175.5 282.6 175.5H318.1C319.9 175.5 321.3 175.9 322.1 176.7C322.9 177.5 323.3 178.9 323.3 180.7V198.3C323.3 200.1 322.9 201.5 322.1 202.3C321.3 203.1 319.9 203.5 318.1 203.5H288.9C285.9 203.5 283.7 204.1 282.2 205.3C280.7 206.5 280 208.3 280 210.8V245.4C280 247.8 280.7 249.6 282.2 250.7C283.7 251.8 285.9 252.4 288.9 252.4H318.1C319.9 252.4 321.3 252.8 322.1 253.6C322.9 254.4 323.3 255.8 323.3 257.6V275C323.3 276.8 322.9 278.2 322.1 279C321.3 279.8 320 280.2 318.1 280.2Z" fill="white"/>
<path d="M365.8 275C365.8 276.8 365.4 278.2 364.6 279C363.8 279.8 362.4 280.2 360.6 280.2H339.2C337.4 280.2 336 279.8 335.2 279C334.4 278.2 334 276.8 334 275V236.6C334 233.7 334.5 230.3 335.4 226.6C336.3 222.8 337.7 218.4 339.7 213.4L352.3 180.4C352.9 178.8 353.8 177.5 355 176.8C356.2 176 357.8 175.6 359.7 175.6H398.8C400.6 175.6 402.2 176 403.4 176.8C404.6 177.6 405.5 178.8 406.1 180.4L418.7 213.4C420.6 218.4 422.1 222.9 423 226.6C423.9 230.4 424.4 233.7 424.4 236.6V275C424.4 276.8 424 278.2 423.2 279C422.4 279.8 421 280.2 419.2 280.2H397.2C395.3 280.2 393.8 279.8 392.9 279C392 278.2 391.5 276.8 391.5 275V254.6H365.8V275ZM374.1 206.1L367.3 228.2H390.1L383.3 206.1C382.9 205.2 382.5 204.6 382.1 204.2C381.7 203.8 381.2 203.6 380.6 203.6H377C376.4 203.6 375.9 203.8 375.5 204.2C374.9 204.6 374.5 205.2 374.1 206.1Z" fill="white"/>
<path d="M465.7 280.2H443.9C442.1 280.2 440.7 279.8 439.9 279C439.1 278.2 438.7 276.8 438.7 275V180.8C438.7 179 439.1 177.6 439.9 176.8C440.7 176 442.1 175.6 443.9 175.6H459C460.8 175.6 462.4 175.9 463.7 176.5C465 177.1 466.3 178.1 467.6 179.6L495.8 211.9V180.9C495.8 179.1 496.2 177.7 497 176.9C497.8 176.1 499.2 175.7 501 175.7H522.8C524.6 175.7 526 176.1 526.8 176.9C527.6 177.7 528 179.1 528 180.9V275C528 276.8 527.6 278.2 526.8 279C526 279.8 524.6 280.2 522.8 280.2H501C499.2 280.2 497.8 279.8 497 279C496.2 278.2 495.8 276.8 495.8 275V257.1L470.9 227V275C470.9 276.8 470.5 278.2 469.7 279C468.9 279.8 467.5 280.2 465.7 280.2Z" fill="white"/>
<path d="M614.1 280.2H578.6C566.5 280.2 557.5 277.8 551.6 272.9C545.7 268.1 542.8 260.6 542.8 250.5V205.3C542.8 195.2 545.7 187.7 551.6 182.8C557.5 177.9 566.5 175.5 578.6 175.5H614.1C615.9 175.5 617.3 175.9 618.1 176.7C618.9 177.5 619.3 178.9 619.3 180.7V198.3C619.3 200.1 618.9 201.5 618.1 202.3C617.3 203.1 615.9 203.5 614.1 203.5H584.9C581.9 203.5 579.7 204.1 578.2 205.3C576.7 206.5 576 208.3 576 210.8V245.4C576 247.8 576.7 249.6 578.2 250.7C579.7 251.8 581.9 252.4 584.9 252.4H614.1C615.9 252.4 617.3 252.8 618.1 253.6C618.9 254.4 619.3 255.8 619.3 257.6V275C619.3 276.8 618.9 278.2 618.1 279C617.3 279.8 616 280.2 614.1 280.2Z" fill="white"/>
<path d="M704.9 280.2H637.4C635.6 280.2 634.2 279.8 633.4 279C632.6 278.2 632.2 276.8 632.2 275V180.8C632.2 179 632.6 177.6 633.4 176.8C634.2 176 635.6 175.6 637.4 175.6H704.9C706.7 175.6 708.1 176 708.9 176.8C709.7 177.6 710.1 179 710.1 180.8V197.8C710.1 199.6 709.7 201 708.9 201.8C708.1 202.6 706.7 203 704.9 203H664.8V214.2H693.1C694.9 214.2 696.3 214.6 697.1 215.4C697.9 216.2 698.3 217.6 698.3 219.4V235C698.3 236.8 697.9 238.2 697.1 239C696.3 239.8 694.9 240.2 693.1 240.2H664.8V252.7H704.9C706.7 252.7 708.1 253.1 708.9 253.9C709.7 254.7 710.1 256.1 710.1 257.9V274.9C710.1 276.7 709.7 278.1 708.9 278.9C708 279.8 706.7 280.2 704.9 280.2Z" fill="white"/>
<path d="M751.2 280.2H728.8C727 280.2 725.6 279.8 724.8 279C724 278.2 723.6 276.8 723.6 275V180.8C723.6 179 724 177.6 724.8 176.8C725.6 176 727 175.6 728.8 175.6H777.2C788.1 175.6 795.5 177.9 799.7 182.4C803.8 186.9 805.9 192.7 805.9 199.9V206.6C805.9 210.7 805.3 214.1 804.1 217C802.9 219.9 800.8 221.9 797.8 223.2C803 223.8 807.3 225.9 810.5 229.6C813.7 233.3 815.4 238.2 815.4 244.3V275C815.4 276.8 815 278.2 814.2 279C813.4 279.8 812 280.2 810.2 280.2H787.7C785.9 280.2 784.5 279.8 783.7 279C782.9 278.2 782.5 276.8 782.5 275V252.8C782.5 250.7 782.1 249.1 781.3 248.1C780.5 247.1 779 246.6 777 246.6H756.6V275C756.6 276.8 756.2 278.2 755.4 279C754.4 279.8 753.1 280.2 751.2 280.2ZM756.5 201.7V220.3H767.4C769.9 220.3 771.6 219.6 772.5 218.3C773.4 217 773.8 215.4 773.8 213.4V208.5C773.8 206.6 773.4 204.9 772.5 203.6C771.6 202.3 769.9 201.6 767.4 201.6H756.5V201.7Z" fill="white"/>
<path d="M93.5 121.7C91.3 124.9 88.6 127.8 85.2 130.2C69.5 141.5 47.6 138.1 36.2 122.5C24.8 106.9 28.3 85.2 44 73.8C53.7 66.8 65.9 65.4001 76.4 69.2001C74 74.1001 72.5 79.5 72.3 85.4C66.4 82.7 59.3 83.2001 53.7 87.2001C45.5 93.1001 43.6 104.6 49.6 112.8C55.6 121 67.1 122.8 75.4 116.9C77.6 115.3 79.3 113.3 80.6 111C84.1 115.4 88.5 119 93.5 121.7Z" fill="white"/>
<path d="M70.2999 141.2C70.3999 145 69.9 149 68.6 152.9C62.6 171.2 42.7999 181.2 24.3999 175.3C5.99995 169.4 -4.10005 149.7 1.89995 131.4C5.59995 120 14.6999 111.9 25.3999 108.7C26.2999 114.1 28.4 119.3 31.7 124.1C25.4 125.4 19.9 129.9 17.7 136.4C14.6 146 19.9 156.4 29.5 159.5C39.2 162.6 49.6 157.4 52.7 147.7C53.5 145.1 53.7999 142.5 53.5 139.9C59 141.6 64.6999 142 70.2999 141.2Z" fill="white"/>
<path d="M63 170.5C65.4 173.6 67.3 177 68.6001 180.9C74.6001 199.2 64.5001 218.9 46.1001 224.8C27.7001 230.8 7.90004 220.7 1.90004 202.4C-1.79996 191 0.700044 179.1 7.50004 170.3C11.4 174.1 16.2001 177.2 21.7001 179.1C17.3001 183.8 15.6001 190.7 17.7001 197.2C20.8001 206.8 31.2 212.1 40.9 209C50.6 205.9 55.9 195.5 52.8 185.9C51.9 183.3 50.6 181.1 48.8 179.2C54.1 177.4 59 174.4 63 170.5Z" fill="white"/>
<path d="M74.5 198.5C78.2 199.6 81.8 201.3 85.2 203.7C100.9 215 104.3 236.8 93 252.4C81.6 268 59.7 271.4 44 260.1C34.3 253.1 29.2 242 29.6 230.9C35.1 231.7 40.7 231.4 46.3 229.8C45.5 236.2 48.2 242.7 53.8 246.8C62 252.7 73.6 250.9 79.6 242.7C85.6 234.5 83.8 223.1 75.5 217.1C73.3 215.5 70.8 214.5 68.3 214C71.4 209.3 73.6 204 74.5 198.5Z" fill="white"/>
<path d="M100.4 214.4C104.1 213.1 108 212.4 112.1 212.4C131.5 212.4 147.2 228 147.2 247.2C147.2 266.4 131.5 282 112.1 282C100.1 282 89.5 276 83.2 266.8C88.1 264.3 92.3999 260.7 96.0999 256.1C99.2999 261.7 105.3 265.5 112.2 265.5C122.4 265.5 130.6 257.3 130.6 247.2C130.6 237.1 122.3 228.9 112.2 228.9C109.4 228.9 106.9 229.5 104.5 230.6C104.2 225 102.9 219.4 100.4 214.4Z" fill="white"/>
<path d="M130.7 212.1C132.9 208.9 135.7 206 139 203.6C154.7 192.3 176.6 195.7 188 211.3C199.4 226.9 195.9 248.7 180.2 260C170.5 267 158.3 268.3 147.8 264.6C150.2 259.7 151.7 254.3 151.9 248.5C157.8 251.2 164.9 250.7 170.5 246.7C178.7 240.7 180.6 229.3 174.6 221.1C168.6 212.9 157.1 211.1 148.9 217.1C146.7 218.7 145 220.7 143.7 222.9C140.1 218.5 135.7 214.8 130.7 212.1Z" fill="white"/>
<path d="M153.9 192.6C153.8 188.7 154.3 184.8 155.6 180.9C161.6 162.6 181.4 152.6 199.8 158.5C218.2 164.4 228.3 184.1 222.3 202.4C218.6 213.8 209.5 222 198.8 225.1C197.9 219.7 195.8 214.5 192.5 209.7C198.9 208.4 204.3 203.9 206.5 197.4C209.6 187.8 204.3 177.5 194.7 174.3C185 171.2 174.6 176.4 171.5 186C170.6 188.6 170.4 191.2 170.7 193.8C165.2 192.3 159.5 191.8 153.9 192.6Z" fill="white"/>
<path d="M161.1 163.3C158.7 160.2 156.8 156.7 155.5 152.9C149.5 134.6 159.6 115 178 109C196.4 103.1 216.2 113.1 222.2 131.4C225.9 142.8 223.4 154.7 216.6 163.5C212.7 159.7 207.9 156.6 202.4 154.7C206.8 150 208.5 143.1 206.4 136.6C203.3 127 192.9 121.7 183.2 124.8C173.5 127.9 168.2 138.3 171.4 147.9C172.2 150.5 173.6 152.7 175.4 154.6C170.1 156.4 165.2 159.4 161.1 163.3Z" fill="white"/>
<path d="M149.7 135.4C146 134.3 142.4 132.6 139 130.2C123.3 118.9 119.9 97.1001 131.2 81.5001C142.6 65.9001 164.5 62.5001 180.2 73.8001C189.9 80.8001 194.9 91.9001 194.6 103C189.2 102.2 183.5 102.5 177.9 104.1C178.7 97.7001 176 91.2001 170.4 87.1001C162.2 81.1001 150.6 83.0001 144.6 91.2001C138.6 99.4001 140.4 110.8 148.7 116.8C150.9 118.4 153.4 119.4 155.9 119.9C152.8 124.5 150.6 129.8 149.7 135.4Z" fill="white"/>
<path d="M123.8 119.5C120.1 120.8 116.2 121.5 112.1 121.5C92.7 121.5 77 105.9 77 86.7C77 67.5 92.7 51.9 112.1 51.9C124.1 51.9 134.7 57.9 141 67.1C136.1 69.6 131.7 73.2 128.2 77.8C125 72.2 119 68.4 112.1 68.4C101.9 68.4 93.6 76.6 93.6 86.7C93.6 96.8 101.9 105 112.1 105C114.8 105 117.4 104.4 119.8 103.3C120 108.9 121.3 114.4 123.8 119.5Z" fill="white"/>
<path d="M830 206.2C837.456 206.2 843.5 200.156 843.5 192.7C843.5 185.244 837.456 179.2 830 179.2C822.544 179.2 816.5 185.244 816.5 192.7C816.5 200.156 822.544 206.2 830 206.2Z" stroke="white" stroke-width="5" stroke-miterlimit="10"/>
<path d="M828 198.9H825.2C825 198.9 824.8 198.8 824.7 198.7C824.6 198.6 824.5 198.4 824.5 198.2V186.3C824.5 186.1 824.6 185.9 824.7 185.8C824.8 185.7 825 185.6 825.2 185.6H831.3C832.7 185.6 833.6 185.9 834.1 186.5C834.6 187.1 834.9 187.8 834.9 188.7V189.5C834.9 190 834.8 190.5 834.7 190.8C834.5 191.2 834.3 191.4 833.9 191.6C834.6 191.7 835.1 191.9 835.5 192.4C835.9 192.9 836.1 193.5 836.1 194.3V198.2C836.1 198.4 836 198.6 835.9 198.7C835.8 198.8 835.6 198.9 835.4 198.9H832.5C832.3 198.9 832.1 198.8 832 198.7C831.9 198.6 831.8 198.4 831.8 198.2V195.4C831.8 195.1 831.7 194.9 831.6 194.8C831.5 194.7 831.3 194.6 831.1 194.6H828.5V198.2C828.5 198.4 828.4 198.6 828.3 198.7C828.4 198.9 828.2 198.9 828 198.9ZM828.7 189V191.4H830.1C830.4 191.4 830.6 191.3 830.7 191.2C830.8 191 830.9 190.8 830.9 190.6V190C830.9 189.8 830.8 189.5 830.7 189.4C830.6 189.2 830.4 189.2 830.1 189.2H828.7V189Z" fill="white"/>
<path d="M374.3 18.4C374.3 5.69999 379.3 0 389.4 0C395.8 0 400.2 2.6 402.1 10.5L394 12.9C393.1 9.69999 391.7 8.5 389.4 8.5C386.1 8.5 384.2 10.8 384.2 18.8C384.2 26.6 386.1 29 389.4 29C391.8 29 393.4 27.3 394.2 24.1L402.4 26.9C400.5 33.8 396.2 37.1 389.1 37.1C378.8 36.9 374.3 30.7 374.3 18.4Z" fill="white"/>
<path d="M415.5 23.9H420.8L418.2 11.3L415.5 23.9ZM422.5 31.1H413.9L412.8 36H403.2L412.7 0.599976H424.2L433.6 36H423.7L422.5 31.1Z" fill="white"/>
<path d="M445.4 18.8999L445.6 36.0999H436.6V0.699951H443.9L455.6 19.4999L455.4 0.699951H464.3V36.0999H456.1L445.4 18.8999Z" fill="white"/>
<path d="M468.4 18.4C468.4 5.69999 473.4 0 483.5 0C489.9 0 494.3 2.6 496.1 10.5L488 12.9C487.1 9.69999 485.8 8.5 483.4 8.5C480.1 8.5 478.2 10.8 478.2 18.8C478.2 26.6 480.1 29 483.4 29C485.8 29 487.4 27.3 488.2 24.1L496.4 26.9C494.5 33.8 490.2 37.1 483 37.1C472.9 36.9 468.4 30.7 468.4 18.4Z" fill="white"/>
<path d="M499.5 0.699951H522.9V8.39993H508.8V14.2999H520.7V22.2H508.8V28.3999H523V36.0999H499.5V0.699951Z" fill="white"/>
<path d="M536.8 8.69995V17.2999H540.3C542.6 17.2999 544 15.7999 544 12.9999C544 10.2999 542.8 8.69995 540.2 8.69995H536.8ZM536.8 36.0999H527.3V0.699951H542.3C550 0.699951 553.5 5.69993 553.5 12.8999C553.5 17.3999 551.9 20.7 549.1 22.7L553.6 35.9999H543.3L540 25.0999H536.7V36.0999H536.8Z" fill="white"/>
<path d="M246.9 18.4C246.9 5.69999 251.9 0 262 0C268.4 0 272.8 2.6 274.7 10.5L266.6 12.9C265.7 9.69999 264.4 8.5 262 8.5C258.7 8.5 256.8 10.8 256.8 18.8C256.8 26.6 258.7 29 262 29C264.4 29 266 27.3 266.8 24.1L275 26.9C273.1 33.8 268.8 37.1 261.6 37.1C251.4 36.9 246.9 30.7 246.9 18.4Z" fill="white"/>
<path d="M296.2 0.699951H305.9V23.3999C305.9 32.4999 300.9 36.8999 292.2 36.8999C283.4 36.8999 278.5 32.3999 278.5 23.3999V0.699951H288.2V23.7999C288.2 26.7999 289.7 28.2999 292.3 28.2999C294.9 28.2999 296.4 26.7999 296.4 23.7999V0.699951H296.2Z" fill="white"/>
<path d="M319.8 8.69995V17.2999H323.3C325.6 17.2999 327 15.7999 327 12.9999C327 10.2999 325.8 8.69995 323.2 8.69995H319.8ZM319.8 36.0999H310.3V0.699951H325.3C333 0.699951 336.5 5.69993 336.5 12.8999C336.5 17.4999 334.9 20.6999 332.1 22.7999L336.6 36.0999H326.3L323 25.2H319.7V36.0999H319.8Z" fill="white"/>
<path d="M340.2 0.699951H363.5V8.39993H349.5V14.2999H361.4V22.0999H349.5V28.3999H363.7V36.0999H340.2V0.699951Z" fill="white"/>
</g>
<defs>
<clipPath id="clip0_1686_6701">
<rect width="846" height="282" fill="white"/>
</clipPath>
</defs>
</svg>
