<svg width="325" height="114" viewBox="0 0 325 114" fill="none" xmlns="http://www.w3.org/2000/svg">
<path d="M107.083 34.5432C107.083 25.9633 113.611 19.0249 125.092 19.0249C135.148 19.0249 141.451 24.3966 142.802 31.5589H132.897C131.696 28.4254 128.619 26.2618 125.092 26.2618C120.44 26.2618 116.763 29.9921 116.763 34.5432C116.763 39.0942 120.515 42.8246 125.092 42.8246C128.619 42.8246 131.696 40.661 132.897 37.5275H142.802C141.451 44.6898 135.148 50.0615 125.092 50.0615C113.686 50.0615 107.083 43.123 107.083 34.5432ZM125.092 86.9175C135.148 86.9175 141.451 81.5458 142.802 74.3835H132.897C131.696 77.4424 128.619 79.6806 125.092 79.6806C120.44 79.6806 116.763 75.9503 116.763 71.3992C116.763 66.8482 120.515 63.1178 125.092 63.1178C128.619 63.1178 131.696 65.2814 132.897 68.4149H142.802C141.451 61.2526 135.148 55.8809 125.092 55.8809C113.686 55.8809 107.083 62.8194 107.083 71.3992C107.083 79.979 113.686 86.9175 125.092 86.9175ZM263.392 71.3992C263.392 62.8194 269.695 55.8809 280.576 55.8809C290.556 55.8809 297.385 63.5654 297.385 71.3992C297.385 72.3691 297.31 73.5628 297.085 74.3835H272.847C274.348 77.4424 278.025 79.6806 282.752 79.6806C291.757 79.6806 295.959 75.9503 295.959 75.9503V82.7395C295.959 82.7395 290.181 86.9175 281.176 86.9175C270.296 86.9175 263.392 79.979 263.392 71.3992ZM272.772 68.3403H288.38C287.18 65.2068 284.103 63.0432 280.576 63.0432C277.049 63.0432 273.973 65.2814 272.772 68.3403ZM211.689 34.5432C211.689 25.9633 217.992 19.0249 228.873 19.0249C238.854 19.0249 245.682 26.7094 245.682 34.5432C245.682 35.5131 245.607 36.6322 245.382 37.5275H221.144C222.645 40.5864 226.322 42.8246 231.049 42.8246C240.054 42.8246 244.257 39.0942 244.257 39.0942V45.8835C244.257 45.8835 238.478 50.0615 229.474 50.0615C218.593 50.0615 211.689 43.123 211.689 34.5432ZM221.069 31.4843H236.677C235.477 28.3508 232.4 26.1872 228.873 26.1872C225.346 26.1872 222.345 28.4254 221.069 31.4843ZM247.033 24.695H248.309V20.8901H250.26V19.7709H245.082V20.8901H247.033V24.695ZM159.911 50.0615C167.19 50.0615 170.717 44.466 170.717 44.466L171.542 49.2408H181.223L180.397 44.466V19.7709H170.717V35.7369C170.717 39.6165 167.565 42.75 163.663 42.75C159.761 42.75 156.609 39.6165 156.609 35.7369V19.7709H146.929V36.1846C146.854 41.9293 149.405 50.0615 159.911 50.0615ZM146.029 71.3992C146.029 62.6701 152.557 55.8809 160.737 55.8809C165.689 55.8809 169.891 58.7906 171.542 61.4764V56.7016H181.223V81.3966L182.048 86.1715H172.368L171.542 81.3966C169.891 84.0825 165.689 86.9921 160.737 86.9921C152.632 86.9175 146.029 80.0537 146.029 71.3992ZM155.709 71.3992C155.709 76.0249 159.461 79.6806 164.038 79.6806C168.691 79.6806 172.368 75.9503 172.368 71.3992C172.368 66.7736 168.616 63.1178 164.038 63.1178C159.386 63.0432 155.709 66.7736 155.709 71.3992ZM252.061 20.8901L253.712 24.695H255.137L256.788 20.8901V24.695H258.064V19.7709H256.113L254.462 23.5759L252.811 19.7709H250.86V24.695H252.136V20.8901H252.061ZM187.076 86.0968H196.756V70.1309C196.756 66.2513 199.908 63.1178 203.81 63.1178C207.712 63.1178 210.864 66.2513 210.864 70.1309V86.0968H220.544V69.6832C220.544 64.0131 218.067 55.8809 207.487 55.8809C200.208 55.8809 196.681 61.4764 196.681 61.4764L195.855 56.7016H186.175L187.001 61.4764V86.0968H187.076ZM321.698 55.8809C314.419 55.8809 310.892 61.4764 310.892 61.4764L310.067 56.7016H300.387L301.212 61.4764V86.1715H310.892V72.0707C310.892 67.1466 314.87 63.1924 319.822 63.1924C321.773 63.1924 323.574 63.7893 325 64.8338V56.2539C324.024 55.9555 322.899 55.8809 321.698 55.8809ZM260.09 74.3835H250.185C248.984 77.4424 245.907 79.6806 242.381 79.6806C237.728 79.6806 234.051 75.9503 234.051 71.3992C234.051 66.8482 237.803 63.1178 242.381 63.1178C245.907 63.1178 248.984 65.2814 250.185 68.4149H260.09C258.739 61.2526 252.436 55.8809 242.381 55.8809C230.974 55.8809 224.371 62.8194 224.371 71.3992C224.371 79.979 230.899 86.9175 242.381 86.9175C252.436 86.9175 258.739 81.5458 260.09 74.3835ZM195.931 49.2408V35.1401C195.931 30.216 199.908 26.2618 204.86 26.2618C206.811 26.2618 208.612 26.8586 210.038 27.9031V19.3233C208.988 19.0995 207.862 19.0249 206.661 19.0249C199.382 19.0249 195.855 24.6204 195.855 24.6204L195.03 19.8455H185.425L186.25 24.6204V49.3154H195.931V49.2408ZM71.7386 34.9162C69.7125 34.9162 67.8365 34.5432 66.1106 33.7971C68.8871 36.7814 72.7892 38.7212 77.2166 38.7212C85.471 38.7212 92.2247 32.0811 92.2247 23.7997C92.2247 17.5327 88.3976 12.2356 82.9196 9.99738C85.3209 12.6086 86.8218 16.1152 86.8218 19.9948C86.6717 28.2762 79.9931 34.9162 71.7386 34.9162ZM74.215 15.5183C74.215 23.7251 67.5364 30.4398 59.2069 30.4398C58.9818 30.4398 58.8317 30.4398 58.6066 30.4398C60.7077 31.5589 63.109 32.1558 65.5853 32.1558C73.8398 32.1558 80.5934 25.5157 80.5934 17.2343C80.5934 9.1767 74.215 2.68586 66.1856 2.38743C70.9882 4.92408 74.215 9.84817 74.215 15.5183ZM60.9328 15.5183C60.9328 22.1584 56.5805 27.7539 50.5772 29.6937C51.2526 29.7683 51.928 29.8429 52.6033 29.8429C60.8578 29.8429 67.6114 23.2029 67.6114 14.9215C67.6114 6.71466 60.9328 0 52.6033 0C51.0275 0 49.4516 0.223822 48.0259 0.746073C55.3048 1.79058 60.9328 7.98298 60.9328 15.5183ZM48.4761 20.0694C48.4761 24.8442 46.2249 29.0969 42.698 31.8573C49.4516 30.4398 54.5544 24.4712 54.5544 17.3089C54.5544 9.10209 47.8758 2.38743 39.5463 2.38743C36.0944 2.38743 32.9427 3.58115 30.3914 5.52094C31.3669 5.29712 32.4175 5.22251 33.5431 5.22251C41.7975 5.14791 48.4761 11.8626 48.4761 20.0694ZM38.3456 28.5C38.3456 31.4097 37.5202 34.0955 36.0194 36.4084C40.2217 33.7971 42.9982 29.0969 42.9982 23.7997C42.9982 15.5929 36.3196 8.87827 27.9901 8.87827C22.6622 8.87827 17.9347 11.6387 15.3082 15.8168C17.6345 14.3992 20.336 13.5039 23.2625 13.5039C31.592 13.6531 38.3456 20.2932 38.3456 28.5ZM16.734 25.0681C24.9885 25.0681 31.7421 31.7081 31.7421 39.9895C31.7421 41.034 31.592 42.0785 31.4419 43.123C33.393 40.5864 34.5936 37.4529 34.5936 34.0209C34.5936 25.8141 27.915 19.0995 19.5855 19.0995C12.3817 19.0995 6.37843 24.0982 4.95267 30.8874C7.57908 27.3063 11.8564 25.0681 16.734 25.0681ZM14.4078 38.0497C21.9868 38.0497 28.2152 43.6453 29.2658 50.8822C29.716 49.4647 30.0162 47.8979 30.0162 46.3311C30.0162 38.1243 23.3376 31.4097 15.0081 31.4097C6.75364 31.4097 0 38.0497 0 46.3311C0 47.0026 0.0750381 47.6741 0.150079 48.3455C2.10113 42.377 7.72916 38.0497 14.4078 38.0497ZM16.734 51.0314C22.4371 51.0314 27.4648 54.2395 29.9411 58.9398C29.641 50.9568 23.0374 44.6152 15.0081 44.6152C6.75364 44.6152 0 51.2552 0 59.5366C0 62.0733 0.600323 64.3861 1.72593 66.4751C1.72593 66.2513 1.72593 66.1021 1.72593 65.8783C1.72593 57.7461 8.40452 51.0314 16.734 51.0314ZM23.3376 62.4463C27.2397 62.4463 30.6915 63.9385 33.393 66.3259C31.1418 60.8796 25.8139 57.0746 19.5105 57.0746C11.2561 57.0746 4.50242 63.7147 4.50242 71.9961C4.50242 76.3979 6.37843 80.2775 9.45509 83.038C8.77973 81.322 8.32948 79.3822 8.32948 77.4424C8.32948 69.161 15.0831 62.4463 23.3376 62.4463ZM33.468 70.9516C35.4941 70.9516 37.3701 71.3246 39.0961 72.0707C36.3196 69.0864 32.4175 67.1466 27.9901 67.1466C19.7356 67.1466 12.982 73.7866 12.982 82.0681C12.982 88.3351 16.809 93.6322 22.287 95.8704C19.8857 93.2592 18.3849 89.7526 18.3849 85.873C18.535 77.5916 25.2136 70.9516 33.468 70.9516ZM30.9917 90.3495C30.9917 82.1427 37.6703 75.428 45.9998 75.428C46.2249 75.428 46.375 75.428 46.6001 75.428C44.499 74.3089 42.0977 73.712 39.6213 73.712C31.3669 73.712 24.6133 80.3521 24.6133 88.6335C24.6133 96.6911 30.9917 103.182 39.021 103.48C34.2184 101.018 30.9917 96.0942 30.9917 90.3495ZM44.2738 90.3495C44.2738 83.7094 48.6262 78.1139 54.6294 76.1741C53.9541 76.0995 53.2787 76.0249 52.6033 76.0249C44.3489 76.0249 37.5952 82.6649 37.5952 90.9463C37.5952 99.1531 44.2738 105.868 52.6033 105.868C54.1792 105.868 55.755 105.644 57.1808 105.122C49.9019 104.152 44.2738 97.8848 44.2738 90.3495ZM56.7305 85.873C56.7305 81.0982 58.9818 76.8455 62.5087 74.0851C55.755 75.5026 50.6523 81.4712 50.6523 88.6335C50.6523 96.8403 57.3309 103.555 65.6604 103.555C69.1122 103.555 72.339 102.361 74.8153 100.421C73.7647 100.645 72.7141 100.72 71.6636 100.72C63.4091 100.72 56.7305 94.0798 56.7305 85.873ZM77.1415 67.1466C68.8871 67.1466 62.1335 73.7866 62.1335 82.0681C62.1335 90.2749 68.812 96.9895 77.1415 96.9895C85.396 96.9895 92.1496 90.3495 92.1496 82.0681C92.1496 73.8613 85.396 67.1466 77.1415 67.1466ZM281.777 104.973C282.227 104.749 282.752 104.599 283.428 104.599C284.253 104.599 284.928 104.823 285.454 105.196C285.979 105.569 286.354 106.092 286.504 106.838H290.707C290.631 105.793 290.181 104.823 289.581 104.077C288.906 103.331 288.08 102.66 287.03 102.212C285.979 101.764 284.778 101.541 283.503 101.541C282.077 101.541 280.801 101.839 279.676 102.361C278.55 102.883 277.725 103.63 277.124 104.525C276.524 105.42 276.224 106.539 276.224 107.733C276.224 108.927 276.524 110.046 277.124 110.941C277.725 111.836 278.625 112.582 279.676 113.105C280.801 113.627 282.077 113.851 283.503 113.851C284.778 113.851 285.979 113.627 287.03 113.179C288.08 112.732 288.906 112.135 289.581 111.314C290.256 110.493 290.631 109.598 290.707 108.554H286.504C286.354 109.225 286.054 109.747 285.454 110.12C284.928 110.493 284.253 110.717 283.428 110.717C282.827 110.717 282.302 110.568 281.777 110.344C281.326 110.12 280.951 109.747 280.726 109.3C280.501 108.852 280.351 108.255 280.351 107.658C280.351 106.987 280.501 106.465 280.726 105.942C280.951 105.569 281.326 105.196 281.777 104.973ZM322.524 101.391L323.349 102.734H322.224L321.548 101.541H321.023V102.734H320.047V99.3023H321.923C322.299 99.3023 322.674 99.377 322.899 99.6008C323.124 99.8246 323.274 100.048 323.274 100.421C323.274 100.794 323.124 101.018 322.899 101.242C322.824 101.242 322.674 101.317 322.524 101.391ZM322.299 100.347C322.299 100.198 322.224 100.123 322.148 100.048C322.073 99.9738 321.998 99.9738 321.848 99.9738H321.023V100.72H321.848C321.998 100.72 322.073 100.72 322.148 100.645C322.224 100.571 322.299 100.496 322.299 100.347ZM324.775 99.75C324.925 100.123 325 100.571 325 101.018C325 101.466 324.925 101.914 324.775 102.287C324.625 102.66 324.4 102.958 324.1 103.257C323.799 103.555 323.424 103.779 323.049 103.928C322.599 104.077 322.148 104.152 321.698 104.152C321.248 104.152 320.723 104.077 320.347 103.928C319.897 103.779 319.597 103.555 319.297 103.257C318.997 102.958 318.772 102.66 318.622 102.287C318.472 101.914 318.396 101.466 318.396 101.018C318.396 100.571 318.472 100.198 318.622 99.75C318.772 99.377 318.997 99.0785 319.297 98.7801C319.597 98.4817 319.972 98.2578 320.347 98.1086C320.798 97.9594 321.248 97.8848 321.698 97.8848C322.224 97.8848 322.674 97.9594 323.049 98.1086C323.499 98.2578 323.799 98.4817 324.1 98.7801C324.4 99.0785 324.625 99.377 324.775 99.75ZM324.325 101.018C324.325 100.571 324.25 100.123 324.025 99.75C323.799 99.377 323.499 99.0785 323.124 98.9293C322.749 98.7055 322.299 98.6309 321.698 98.6309C321.173 98.6309 320.723 98.7055 320.347 98.9293C319.972 99.1531 319.672 99.4516 319.447 99.75C319.222 100.123 319.147 100.496 319.147 101.018C319.147 101.466 319.222 101.914 319.447 102.287C319.672 102.66 319.972 102.958 320.347 103.182C320.723 103.406 321.173 103.48 321.698 103.48C322.224 103.48 322.674 103.406 323.124 103.182C323.499 102.958 323.799 102.66 324.025 102.287C324.175 101.839 324.325 101.466 324.325 101.018ZM315.545 101.541C314.719 101.541 314.044 101.69 313.519 102.063C312.919 102.361 312.468 102.883 312.093 103.406C311.793 103.853 311.568 104.45 311.343 105.047L310.817 101.914H306.54L307.29 105.868V113.552H311.493V108.777C311.493 107.882 311.643 107.136 311.943 106.614C312.243 106.092 312.693 105.644 313.144 105.42C313.669 105.196 314.194 105.047 314.795 105.047C315.095 105.047 315.395 105.047 315.77 105.122C316.145 105.122 316.52 105.196 316.896 105.271V101.69C316.671 101.615 316.37 101.615 316.145 101.541C315.92 101.466 315.77 101.541 315.545 101.541ZM305.414 108.927H296.109C296.184 109.001 296.185 109.151 296.26 109.225C296.56 109.747 297.085 110.12 297.76 110.419C298.436 110.717 299.186 110.792 300.162 110.792C300.987 110.792 301.888 110.717 302.713 110.419C303.538 110.195 304.364 109.897 305.039 109.449V112.135C304.214 112.657 303.313 113.105 302.263 113.403C301.212 113.702 300.087 113.851 298.886 113.851C297.46 113.851 296.185 113.627 295.059 113.105C293.933 112.582 293.033 111.836 292.432 110.941C291.757 109.971 291.457 108.927 291.457 107.658C291.457 106.465 291.757 105.346 292.357 104.45C292.958 103.555 293.783 102.809 294.909 102.287C295.959 101.764 297.235 101.541 298.586 101.541C300.012 101.541 301.212 101.839 302.188 102.436C303.163 103.033 303.914 103.928 304.514 104.973C305.114 106.092 305.414 107.435 305.414 108.927ZM301.512 106.39C301.437 106.166 301.362 105.942 301.212 105.719C300.987 105.271 300.612 104.972 300.237 104.749C299.861 104.525 299.336 104.45 298.811 104.45C298.211 104.45 297.685 104.599 297.235 104.823C296.785 105.047 296.485 105.42 296.184 105.868C296.109 106.017 296.034 106.241 295.959 106.39H301.512ZM272.172 102.212C271.346 101.764 270.446 101.541 269.32 101.541C268.344 101.541 267.519 101.764 266.694 102.212C265.943 102.66 265.268 103.257 264.743 104.152C264.668 104.226 264.668 104.301 264.592 104.376L264.217 101.914H260.015L260.765 105.942V113.552H264.968V107.957C264.968 107.36 265.118 106.838 265.343 106.39C265.568 105.942 265.943 105.569 266.318 105.346C266.769 105.122 267.219 104.973 267.819 104.973C268.645 104.973 269.32 105.196 269.77 105.644C270.221 106.092 270.446 106.763 270.446 107.658V113.552H274.648V106.987C274.648 105.868 274.423 104.898 274.048 104.077C273.522 103.257 272.922 102.66 272.172 102.212ZM183.849 108.927H174.544C174.619 109.001 174.619 109.151 174.694 109.225C174.994 109.747 175.52 110.12 176.195 110.419C176.87 110.717 177.621 110.792 178.596 110.792C179.497 110.792 180.322 110.717 181.148 110.419C181.973 110.195 182.798 109.897 183.474 109.449V112.135C182.648 112.657 181.748 113.105 180.697 113.403C179.647 113.702 178.521 113.851 177.321 113.851C175.895 113.851 174.619 113.627 173.493 113.105C172.368 112.582 171.467 111.836 170.867 110.941C170.192 109.971 169.891 108.927 169.891 107.658C169.891 106.465 170.192 105.346 170.792 104.45C171.392 103.555 172.218 102.809 173.343 102.287C174.394 101.764 175.67 101.541 177.02 101.541C178.446 101.541 179.647 101.839 180.622 102.436C181.598 103.033 182.348 103.928 182.949 104.973C183.624 106.092 183.849 107.435 183.849 108.927ZM179.947 106.39C179.872 106.166 179.797 105.942 179.647 105.719C179.422 105.271 179.046 104.972 178.671 104.749C178.296 104.525 177.771 104.45 177.245 104.45C176.645 104.45 176.12 104.599 175.67 104.823C175.219 105.047 174.919 105.42 174.619 105.868C174.544 106.017 174.469 106.241 174.394 106.39H179.947ZM143.927 101.839L143.177 107.658L143.927 113.478H139.575L139.275 111.09C138.75 111.911 138.074 112.582 137.249 113.03C136.348 113.552 135.373 113.776 134.247 113.776C133.122 113.776 132.071 113.552 131.246 113.03C130.345 112.508 129.67 111.762 129.22 110.866C128.694 109.897 128.469 108.852 128.469 107.658C128.469 106.39 128.694 105.346 129.22 104.376C129.745 103.48 130.42 102.734 131.246 102.212C132.146 101.69 133.122 101.466 134.247 101.466C135.373 101.466 136.348 101.69 137.249 102.212C138.074 102.66 138.75 103.331 139.275 104.152L139.575 101.839H143.927ZM139.425 107.733C139.2 107.136 138.975 106.614 138.525 106.166C138.149 105.719 137.699 105.346 137.174 105.122C136.649 104.898 136.123 104.749 135.523 104.749C134.998 104.749 134.472 104.898 134.097 105.122C133.647 105.346 133.347 105.719 133.122 106.166C132.897 106.614 132.746 107.136 132.746 107.733C132.746 108.33 132.897 108.852 133.122 109.3C133.347 109.747 133.722 110.12 134.097 110.344C134.547 110.568 134.998 110.717 135.523 110.717C136.123 110.717 136.649 110.568 137.174 110.344C137.699 110.12 138.149 109.747 138.525 109.3C138.9 108.777 139.2 108.33 139.425 107.733ZM258.589 101.839L257.839 107.658L258.589 113.478H254.237L253.937 111.09C253.411 111.911 252.736 112.582 251.911 113.03C251.01 113.552 250.035 113.776 248.909 113.776C247.783 113.776 246.733 113.552 245.907 113.03C245.082 112.508 244.332 111.762 243.881 110.866C243.356 109.897 243.131 108.852 243.131 107.658C243.131 106.39 243.356 105.346 243.881 104.376C244.407 103.48 245.082 102.734 245.907 102.212C246.808 101.69 247.783 101.466 248.909 101.466C250.035 101.466 251.01 101.69 251.911 102.212C252.736 102.66 253.411 103.331 253.937 104.152L254.237 101.839H258.589ZM254.012 107.733C253.787 107.136 253.562 106.614 253.186 106.166C252.811 105.719 252.361 105.346 251.836 105.122C251.31 104.898 250.785 104.749 250.185 104.749C249.659 104.749 249.134 104.898 248.759 105.122C248.309 105.346 248.009 105.719 247.783 106.166C247.558 106.614 247.408 107.136 247.408 107.733C247.408 108.33 247.558 108.852 247.783 109.3C248.009 109.747 248.384 110.12 248.759 110.344C249.209 110.568 249.659 110.717 250.185 110.717C250.785 110.717 251.31 110.568 251.836 110.344C252.361 110.12 252.811 109.747 253.186 109.3C253.562 108.777 253.862 108.33 254.012 107.733ZM204.185 101.69C204.935 102.884 205.311 104.301 205.311 105.868C205.311 107.435 204.935 108.852 204.185 110.046C203.435 111.24 202.384 112.209 200.958 112.881C199.607 113.552 197.957 113.851 196.156 113.851C194.355 113.851 192.704 113.552 191.353 112.881C190.002 112.209 188.877 111.314 188.126 110.046C187.376 108.852 187.001 107.435 187.001 105.868C187.001 104.301 187.376 102.884 188.126 101.69C188.877 100.496 189.927 99.5262 191.353 98.8547C192.704 98.1832 194.355 97.8848 196.156 97.8848C197.957 97.8848 199.607 98.1832 200.958 98.8547C202.384 99.5262 203.435 100.496 204.185 101.69ZM201.033 105.868C201.033 104.972 200.808 104.226 200.433 103.63C200.058 103.033 199.457 102.51 198.782 102.212C198.032 101.839 197.206 101.69 196.156 101.69C195.18 101.69 194.28 101.839 193.604 102.212C192.854 102.585 192.329 103.033 191.953 103.63C191.578 104.226 191.353 104.972 191.353 105.868C191.353 106.763 191.578 107.509 191.953 108.106C192.329 108.703 192.929 109.225 193.604 109.524C194.355 109.897 195.18 110.046 196.156 110.046C197.131 110.046 198.032 109.897 198.782 109.524C199.532 109.151 200.058 108.703 200.433 108.106C200.883 107.509 201.033 106.763 201.033 105.868ZM166.215 102.212C165.464 101.764 164.564 101.541 163.438 101.541C162.538 101.541 161.712 101.764 160.962 102.212C160.211 102.66 159.611 103.257 159.086 104.152C159.011 104.226 159.011 104.376 158.936 104.45C158.861 104.376 158.861 104.226 158.786 104.152C158.41 103.331 157.81 102.734 157.06 102.287C156.309 101.839 155.409 101.615 154.283 101.615C153.383 101.615 152.557 101.839 151.807 102.287C151.056 102.734 150.456 103.331 149.931 104.226C149.931 104.301 149.856 104.301 149.856 104.376L149.481 101.988H145.278L146.029 106.017V113.552H150.231V107.957C150.231 107.36 150.306 106.838 150.531 106.39C150.756 105.942 151.056 105.569 151.432 105.346C151.807 105.122 152.257 104.973 152.782 104.973C153.533 104.973 154.133 105.196 154.508 105.644C154.883 106.092 155.109 106.763 155.109 107.658V113.552H159.311V107.957C159.311 107.36 159.386 106.838 159.611 106.39C159.836 105.942 160.136 105.569 160.511 105.346C160.887 105.122 161.337 104.973 161.862 104.973C162.613 104.973 163.213 105.196 163.588 105.644C163.963 106.092 164.188 106.763 164.188 107.658V113.552H168.391V106.987C168.391 105.868 168.166 104.898 167.79 104.077C167.565 103.257 166.965 102.66 166.215 102.212ZM118.489 108.628H122.691C122.616 108.703 122.616 108.777 122.541 108.777C122.091 109.3 121.49 109.747 120.665 110.046C119.915 110.344 119.014 110.493 118.039 110.493C116.988 110.493 116.088 110.344 115.337 109.971C114.587 109.598 113.986 109.151 113.611 108.404C113.236 107.733 113.011 106.912 113.011 105.868C113.011 104.898 113.236 104.077 113.611 103.406C113.986 102.734 114.512 102.212 115.262 101.914C115.937 101.615 116.763 101.391 117.738 101.391C118.564 101.391 119.239 101.466 119.84 101.69C120.44 101.914 120.965 102.137 121.415 102.51C121.866 102.884 122.091 103.331 122.241 103.853H126.518C126.293 102.66 125.843 101.615 125.092 100.72C124.342 99.8246 123.366 99.0785 122.091 98.6309C120.89 98.1086 119.389 97.8848 117.663 97.8848C116.388 97.8848 115.187 98.034 114.136 98.4071C113.086 98.7801 112.11 99.3024 111.285 99.9738C110.459 100.645 109.859 101.466 109.409 102.51C108.959 103.48 108.734 104.674 108.734 105.942C108.734 107.211 108.959 108.33 109.409 109.374C109.859 110.344 110.459 111.24 111.285 111.911C112.11 112.582 113.011 113.105 114.061 113.478C115.112 113.851 116.238 114 117.438 114C118.714 114 119.84 113.851 120.74 113.478C121.716 113.105 122.466 112.582 123.141 111.911C123.216 111.836 123.366 111.687 123.441 111.613L123.667 113.702H126.668V105.793H118.489V108.628ZM230.599 102.063C231.275 101.69 232.1 101.541 233.076 101.541C233.901 101.541 234.651 101.69 235.252 101.914C235.852 102.137 236.377 102.51 236.828 102.958C237.203 103.406 237.503 104.003 237.653 104.599H241.93C241.78 103.257 241.33 102.063 240.505 101.018C239.754 99.9738 238.704 99.2277 237.428 98.6309C236.152 98.034 234.726 97.8102 233.076 97.8102C231.275 97.8102 229.699 98.1086 228.348 98.7801C226.997 99.4516 225.947 100.347 225.196 101.615C224.446 102.809 224.071 104.226 224.071 105.793C224.071 107.36 224.446 108.777 225.196 109.971C225.947 111.165 226.997 112.135 228.348 112.806C229.699 113.478 231.275 113.776 233.076 113.776C234.726 113.776 236.152 113.478 237.428 112.955C238.704 112.433 239.754 111.613 240.505 110.568C241.255 109.524 241.78 108.404 241.93 106.987H237.653C237.503 107.658 237.278 108.255 236.828 108.703C236.452 109.151 235.927 109.524 235.252 109.747C234.651 109.971 233.901 110.12 233.076 110.12C232.1 110.12 231.275 109.971 230.599 109.598C229.924 109.225 229.399 108.777 229.023 108.106C228.648 107.435 228.498 106.688 228.498 105.793C228.498 104.898 228.648 104.152 229.023 103.48C229.399 102.883 229.924 102.436 230.599 102.063ZM218.743 102.212C217.917 101.764 217.017 101.541 215.891 101.541C214.916 101.541 214.09 101.764 213.265 102.212C212.514 102.66 211.839 103.257 211.314 104.152C211.239 104.226 211.239 104.301 211.164 104.376L210.788 101.914H206.586L207.337 105.942V113.552H211.539V107.957C211.539 107.36 211.689 106.838 211.914 106.39C212.139 105.942 212.514 105.569 212.89 105.346C213.34 105.122 213.79 104.973 214.39 104.973C215.216 104.973 215.891 105.196 216.342 105.644C216.792 106.092 217.017 106.763 217.017 107.658V113.552H221.219V106.987C221.219 105.868 220.994 104.898 220.619 104.077C220.169 103.257 219.568 102.66 218.743 102.212Z" fill="white"/>
</svg>
