<svg width="239" height="80" viewBox="0 0 239 80" fill="none" xmlns="http://www.w3.org/2000/svg">
<g clip-path="url(#clip0_2173_11515)">
<path d="M105.742 5.21986C105.742 1.61702 107.154 0 110.008 0C111.816 0 113.059 0.737589 113.596 2.97872L111.307 3.65957C111.053 2.75177 110.658 2.41135 110.008 2.41135C109.076 2.41135 108.539 3.06383 108.539 5.33333C108.539 7.5461 109.076 8.22695 110.008 8.22695C110.686 8.22695 111.138 7.74468 111.364 6.83688L113.68 7.6312C113.144 9.58865 111.929 10.5248 109.923 10.5248C107.013 10.4681 105.742 8.70922 105.742 5.21986Z" fill="white"/>
<path d="M117.381 6.78034H118.878L118.144 3.20587L117.381 6.78034ZM119.359 8.82289H116.929L116.618 10.213H113.906L116.59 0.17041H119.839L122.495 10.213H119.698L119.359 8.82289Z" fill="white"/>
<path d="M125.828 5.36185L125.885 10.2413H123.342V0.19873H125.404L128.71 5.53206L128.653 0.19873H131.167V10.2413H128.851L125.828 5.36185Z" fill="white"/>
<path d="M132.326 5.21986C132.326 1.61702 133.738 0 136.592 0C138.4 0 139.643 0.737589 140.151 2.97872L137.863 3.65957C137.609 2.75177 137.241 2.41135 136.563 2.41135C135.631 2.41135 135.094 3.06383 135.094 5.33333C135.094 7.5461 135.631 8.22695 136.563 8.22695C137.241 8.22695 137.693 7.74468 137.919 6.83688L140.236 7.6312C139.699 9.58865 138.484 10.5248 136.45 10.5248C133.597 10.4681 132.326 8.70922 132.326 5.21986Z" fill="white"/>
<path d="M141.112 0.19873H147.722V2.38312H143.739V4.05688H147.101V6.29802H143.739V8.05688H147.751V10.2413H141.112V0.19873Z" fill="white"/>
<path d="M151.649 2.46823V4.90794H152.638C153.288 4.90794 153.683 4.48242 153.683 3.68809C153.683 2.92213 153.344 2.46823 152.61 2.46823H151.649ZM151.649 10.2413H148.965V0.19873H153.203C155.378 0.19873 156.367 1.61717 156.367 3.65972C156.367 4.93631 155.915 5.87249 155.124 6.43987L156.395 10.2129H153.485L152.553 7.12071H151.621V10.2413H151.649Z" fill="white"/>
<path d="M69.7507 5.21986C69.7507 1.61702 71.1633 0 74.0166 0C75.8246 0 77.0676 0.737589 77.6044 2.97872L75.3161 3.65957C75.0618 2.75177 74.6946 2.41135 74.0166 2.41135C73.0843 2.41135 72.5475 3.06383 72.5475 5.33333C72.5475 7.5461 73.0843 8.22695 74.0166 8.22695C74.6946 8.22695 75.1466 7.74468 75.3726 6.83688L77.6891 7.6312C77.1524 9.58865 75.9376 10.5248 73.9036 10.5248C71.022 10.4681 69.7507 8.70922 69.7507 5.21986Z" fill="white"/>
<path d="M83.6782 0.19873H86.4185V6.63844C86.4185 9.22 85.006 10.4682 82.5482 10.4682C80.0621 10.4682 78.6779 9.19163 78.6779 6.63844V0.19873H81.4182V6.75191C81.4182 7.60298 81.8419 8.02851 82.5764 8.02851C83.311 8.02851 83.7347 7.60298 83.7347 6.75191V0.19873H83.6782Z" fill="white"/>
<path d="M90.3454 2.46823V4.90794H91.3342C91.984 4.90794 92.3795 4.48242 92.3795 3.68809C92.3795 2.92213 92.0405 2.46823 91.306 2.46823H90.3454ZM90.3454 10.2413H87.6616V0.19873H91.8992C94.0745 0.19873 95.0633 1.61717 95.0633 3.65972C95.0633 4.96468 94.6113 5.87248 93.8202 6.46823L95.0915 10.2413H92.1817L91.2494 7.14909H90.3172V10.2413H90.3454Z" fill="white"/>
<path d="M96.1085 0.19873H102.691V2.38312H98.7358V4.05688H102.098V6.26965H98.7358V8.05688H102.747V10.2413H96.1085V0.19873Z" fill="white"/>
<path d="M92.8032 44.8794H79.8644C76.4461 44.8794 73.9036 44.1986 72.2368 42.8085C70.57 41.4468 69.7507 39.3191 69.7507 36.4539V23.5745C69.7507 20.7092 70.57 18.6099 72.2368 17.2199C73.9036 15.8582 76.4461 15.1489 79.8644 15.1489H90.1194C90.6279 15.1489 91.0234 15.2624 91.2494 15.4894C91.4754 15.7163 91.5884 16.1135 91.5884 16.6241V21.617C91.5884 22.1277 91.4754 22.5248 91.2494 22.7518C91.0234 22.9787 90.6279 23.0922 90.1194 23.0922H81.5877C80.7402 23.0922 80.1187 23.2624 79.6949 23.6028C79.2712 23.9433 79.0734 24.4539 79.0734 25.1631V35.0071C79.0734 35.6879 79.2429 36.1986 79.5537 36.539C79.8644 36.8794 80.3447 37.0213 80.9662 37.0213H84.9495V30.5815C84.9495 30.0709 85.0626 29.6737 85.2886 29.4468C85.5146 29.2198 85.9101 29.1064 86.4186 29.1064H92.775C93.2835 29.1064 93.679 29.2198 93.905 29.4468C94.131 29.6737 94.244 30.0709 94.244 30.5815V43.4042C94.244 43.9149 94.131 44.312 93.905 44.539C93.679 44.7659 93.3117 44.8794 92.8032 44.8794Z" fill="#F16660"/>
<path d="M106.646 43.4041C106.646 43.9148 106.533 44.3119 106.307 44.5389C106.081 44.7658 105.686 44.8793 105.177 44.8793H99.1314C98.6229 44.8793 98.2274 44.7658 98.0014 44.5389C97.7754 44.3119 97.6624 43.9148 97.6624 43.4041V32.5105C97.6624 31.6878 97.8036 30.7233 98.0579 29.6737C98.3121 28.5956 98.7076 27.3474 99.2726 25.929L102.832 16.5673C103.002 16.1134 103.256 15.7446 103.595 15.546C103.934 15.319 104.386 15.2056 104.923 15.2056H115.969C116.477 15.2056 116.929 15.319 117.268 15.546C117.607 15.7729 117.862 16.1134 118.031 16.5673L121.591 25.929C122.127 27.3474 122.551 28.624 122.805 29.6737C123.06 30.7517 123.201 31.6878 123.201 32.5105V43.4041C123.201 43.9148 123.088 44.3119 122.862 44.5389C122.636 44.7658 122.24 44.8793 121.732 44.8793H115.517C114.98 44.8793 114.556 44.7658 114.302 44.5389C114.048 44.3119 113.906 43.9148 113.906 43.4041V37.6169H106.646V43.4041ZM108.963 23.858L107.042 30.1276H113.483L111.562 23.858C111.449 23.6027 111.336 23.4325 111.223 23.319C111.11 23.2056 110.968 23.1488 110.799 23.1488H109.782C109.612 23.1488 109.471 23.2056 109.358 23.319C109.189 23.4325 109.076 23.6027 108.963 23.858Z" fill="#F16660"/>
<path d="M134.812 44.8793H128.681C128.173 44.8793 127.777 44.7658 127.551 44.5389C127.325 44.3119 127.212 43.9148 127.212 43.4041V16.6807C127.212 16.1701 127.325 15.7729 127.551 15.546C127.777 15.319 128.173 15.2056 128.681 15.2056H135.292C135.716 15.2056 136.083 15.2907 136.394 15.4893C136.676 15.6878 136.959 15.9999 137.185 16.4254L140.886 23.1488C141.027 23.4041 141.14 23.5744 141.225 23.6878C141.309 23.8013 141.451 23.858 141.62 23.858H141.987C142.157 23.858 142.27 23.8013 142.383 23.6878C142.468 23.5744 142.581 23.4041 142.722 23.1488L146.366 16.4254C146.621 15.9999 146.875 15.6595 147.157 15.4893C147.44 15.2907 147.807 15.2056 148.259 15.2056H154.926C155.435 15.2056 155.83 15.319 156.056 15.546C156.282 15.7729 156.395 16.1701 156.395 16.6807V43.4041C156.395 43.9148 156.282 44.3119 156.056 44.5389C155.83 44.7658 155.435 44.8793 154.926 44.8793H148.598C148.09 44.8793 147.694 44.7658 147.468 44.5389C147.242 44.3119 147.129 43.9148 147.129 43.4041V28.8793L144.7 33.3616C144.445 33.8155 144.163 34.1559 143.824 34.3829C143.485 34.5815 143.061 34.6949 142.524 34.6949H140.886C140.377 34.6949 139.925 34.5815 139.586 34.3829C139.247 34.1843 138.936 33.8439 138.71 33.3616L136.281 28.8793V43.4041C136.281 43.9148 136.168 44.3119 135.942 44.5389C135.716 44.7658 135.32 44.8793 134.812 44.8793Z" fill="#F16660"/>
<path d="M181.595 44.8793H162.526C162.017 44.8793 161.622 44.7658 161.396 44.5389C161.17 44.3119 161.057 43.9148 161.057 43.4041V16.6807C161.057 16.1701 161.17 15.7729 161.396 15.546C161.622 15.319 162.017 15.2056 162.526 15.2056H181.595C182.103 15.2056 182.499 15.319 182.725 15.546C182.951 15.7729 183.064 16.1701 183.064 16.6807V21.5034C183.064 22.0141 182.951 22.4112 182.725 22.6382C182.499 22.8651 182.103 22.9786 181.595 22.9786H170.266V26.1559H178.261C178.77 26.1559 179.165 26.2694 179.391 26.4963C179.617 26.7233 179.73 27.1205 179.73 27.6311V32.0566C179.73 32.5673 179.617 32.9644 179.391 33.1914C179.165 33.4183 178.77 33.5318 178.261 33.5318H170.266V37.0779H181.595C182.103 37.0779 182.499 37.1914 182.725 37.4183C182.951 37.6453 183.064 38.0424 183.064 38.5531V43.3758C183.064 43.8864 182.951 44.2836 182.725 44.5105C182.499 44.7658 182.103 44.8793 181.595 44.8793Z" fill="#F16660"/>
<path d="M208.518 39.2624C208.518 40.1986 208.376 41.0497 208.094 41.8156C207.811 42.5816 207.331 43.2341 206.625 43.7731C205.919 44.3121 204.958 44.7376 203.743 45.0497C202.528 45.3617 200.946 45.5036 199.082 45.5036C197.189 45.5036 195.635 45.3617 194.392 45.0497C193.149 44.7376 192.189 44.3121 191.483 43.7731C190.776 43.2341 190.296 42.5816 190.013 41.8156C189.731 41.0497 189.59 40.1986 189.59 39.2624V28.8227C189.59 27.8866 189.731 27.0355 190.013 26.2695C190.296 25.5036 190.776 24.8511 191.483 24.2837C192.189 23.7447 193.149 23.3192 194.392 23.0071C195.635 22.6951 197.189 22.5532 199.082 22.5532C200.975 22.5532 202.528 22.6951 203.743 23.0071C204.958 23.3192 205.947 23.7447 206.625 24.2837C207.331 24.8227 207.811 25.5036 208.094 26.2695C208.376 27.0355 208.518 27.8866 208.518 28.8227V39.2624ZM196.511 38.1561C196.511 38.5532 196.652 38.8936 196.963 39.1773C197.274 39.461 197.98 39.6029 199.054 39.6029C200.155 39.6029 200.862 39.461 201.144 39.1773C201.455 38.8936 201.596 38.5532 201.596 38.1561V29.9291C201.596 29.5319 201.455 29.2199 201.144 28.9362C200.833 28.6525 200.127 28.5107 199.054 28.5107C197.952 28.5107 197.246 28.6525 196.963 28.9362C196.652 29.2199 196.511 29.5319 196.511 29.9291V38.1561Z" fill="#CDDE00"/>
<path d="M217.275 45.0499H212.699C212.303 45.0499 212.021 44.9648 211.851 44.7946C211.682 44.6243 211.597 44.3407 211.597 43.9435V24.1421C211.597 23.7449 211.682 23.4612 211.851 23.291C212.021 23.1208 212.303 23.0357 212.699 23.0357H215.863C216.258 23.0357 216.569 23.0924 216.852 23.2059C217.134 23.3194 217.388 23.5463 217.671 23.8584L223.575 30.6385V24.1137C223.575 23.7165 223.66 23.4329 223.829 23.2626C223.999 23.0924 224.281 23.0073 224.677 23.0073H229.254C229.649 23.0073 229.932 23.0924 230.101 23.2626C230.271 23.4329 230.355 23.7165 230.355 24.1137V43.9151C230.355 44.3123 230.271 44.596 230.101 44.7662C229.932 44.9364 229.649 45.0215 229.254 45.0215H224.677C224.281 45.0215 223.999 44.9364 223.829 44.7662C223.66 44.596 223.575 44.3123 223.575 43.9151V40.1421L218.377 33.8158V43.9151C218.377 44.3123 218.292 44.596 218.123 44.7662C217.953 44.9648 217.671 45.0499 217.275 45.0499Z" fill="#CDDE00"/>
<path d="M89.8651 79.4892H79.8361C76.4178 79.4892 73.8752 78.8084 72.2085 77.4183C70.5417 76.0566 69.7224 73.929 69.7224 71.0637V58.241C69.7224 55.3758 70.5417 53.2481 72.2085 51.858C73.8752 50.468 76.4178 49.7871 79.8361 49.7871H89.8651C90.3736 49.7871 90.7691 49.9006 90.9951 50.1275C91.2211 50.3545 91.3341 50.7517 91.3341 51.2623V56.2552C91.3341 56.7658 91.2211 57.163 90.9951 57.3899C90.7691 57.6169 90.3736 57.7304 89.8651 57.7304H81.6159C80.7684 57.7304 80.1469 57.9006 79.7231 58.241C79.2994 58.5814 79.1016 59.0921 79.1016 59.8013V69.6169C79.1016 70.2978 79.2994 70.8084 79.7231 71.1204C80.1469 71.4325 80.7684 71.6027 81.6159 71.6027H89.8651C90.3736 71.6027 90.7691 71.7162 90.9951 71.9431C91.2211 72.1701 91.3341 72.5672 91.3341 73.0779V78.0141C91.3341 78.5247 91.2211 78.9219 90.9951 79.1488C90.7691 79.3758 90.4018 79.4892 89.8651 79.4892Z" fill="white"/>
<path d="M103.341 78.014C103.341 78.5246 103.228 78.9218 103.002 79.1488C102.776 79.3757 102.38 79.4892 101.872 79.4892H95.826C95.3175 79.4892 94.9219 79.3757 94.6959 79.1488C94.4699 78.9218 94.3569 78.5246 94.3569 78.014V67.1204C94.3569 66.2977 94.4982 65.3331 94.7524 64.2835C95.0067 63.2055 95.4022 61.9573 95.9672 60.5388L99.5268 51.1771C99.6963 50.7232 99.9506 50.3544 100.29 50.1558C100.629 49.9289 101.081 49.8154 101.617 49.8154H112.663C113.172 49.8154 113.624 49.9289 113.963 50.1558C114.302 50.3828 114.556 50.7232 114.726 51.1771L118.285 60.5388C118.822 61.9573 119.246 63.2339 119.5 64.2835C119.754 65.3615 119.895 66.2977 119.895 67.1204V78.014C119.895 78.5246 119.782 78.9218 119.556 79.1488C119.33 79.3757 118.935 79.4892 118.426 79.4892H112.211C111.675 79.4892 111.251 79.3757 110.997 79.1488C110.742 78.9218 110.601 78.5246 110.601 78.014V72.2268H103.341V78.014ZM105.685 58.4679L103.764 64.7374H110.206L108.284 58.4679C108.171 58.2126 108.058 58.0424 107.945 57.9289C107.832 57.8154 107.691 57.7587 107.522 57.7587H106.505C106.335 57.7587 106.194 57.8154 106.081 57.9289C105.911 58.0424 105.798 58.2126 105.685 58.4679Z" fill="white"/>
<path d="M131.563 79.4892H125.404C124.896 79.4892 124.5 79.3757 124.274 79.1488C124.048 78.9218 123.935 78.5246 123.935 78.014V51.2906C123.935 50.78 124.048 50.3828 124.274 50.1558C124.5 49.9289 124.896 49.8154 125.404 49.8154H129.67C130.179 49.8154 130.631 49.9005 130.998 50.0707C131.365 50.241 131.732 50.5246 132.1 50.9502L140.066 60.1133V51.319C140.066 50.8083 140.179 50.4112 140.405 50.1842C140.631 49.9573 141.027 49.8438 141.535 49.8438H147.694C148.203 49.8438 148.598 49.9573 148.824 50.1842C149.05 50.4112 149.163 50.8083 149.163 51.319V78.014C149.163 78.5246 149.05 78.9218 148.824 79.1488C148.598 79.3757 148.203 79.4892 147.694 79.4892H141.535C141.027 79.4892 140.631 79.3757 140.405 79.1488C140.179 78.9218 140.066 78.5246 140.066 78.014V72.936L133.032 64.397V78.014C133.032 78.5246 132.919 78.9218 132.693 79.1488C132.467 79.3757 132.071 79.4892 131.563 79.4892Z" fill="white"/>
<path d="M173.487 79.4892H163.458C160.04 79.4892 157.497 78.8084 155.83 77.4183C154.164 76.0566 153.344 73.929 153.344 71.0637V58.241C153.344 55.3758 154.164 53.2481 155.83 51.858C157.497 50.468 160.04 49.7871 163.458 49.7871H173.487C173.995 49.7871 174.391 49.9006 174.617 50.1275C174.843 50.3545 174.956 50.7517 174.956 51.2623V56.2552C174.956 56.7658 174.843 57.163 174.617 57.3899C174.391 57.6169 173.995 57.7304 173.487 57.7304H165.238C164.39 57.7304 163.769 57.9006 163.345 58.241C162.921 58.5814 162.723 59.0921 162.723 59.8013V69.6169C162.723 70.2978 162.921 70.8084 163.345 71.1204C163.769 71.4325 164.39 71.6027 165.238 71.6027H173.487C173.995 71.6027 174.391 71.7162 174.617 71.9431C174.843 72.1701 174.956 72.5672 174.956 73.0779V78.0141C174.956 78.5247 174.843 78.9219 174.617 79.1488C174.391 79.3758 174.024 79.4892 173.487 79.4892Z" fill="white"/>
<path d="M199.138 79.4892H180.069C179.561 79.4892 179.165 79.3757 178.939 79.1488C178.713 78.9218 178.6 78.5246 178.6 78.014V51.2906C178.6 50.78 178.713 50.3828 178.939 50.1558C179.165 49.9289 179.561 49.8154 180.069 49.8154H199.138C199.647 49.8154 200.042 49.9289 200.268 50.1558C200.494 50.3828 200.607 50.78 200.607 51.2906V56.1133C200.607 56.6239 200.494 57.0211 200.268 57.248C200.042 57.475 199.647 57.5885 199.138 57.5885H187.81V60.7658H195.805C196.313 60.7658 196.709 60.8793 196.935 61.1062C197.161 61.3332 197.274 61.7303 197.274 62.241V66.6665C197.274 67.1771 197.161 67.5743 196.935 67.8012C196.709 68.0282 196.313 68.1417 195.805 68.1417H187.81V71.6878H199.138C199.647 71.6878 200.042 71.8012 200.268 72.0282C200.494 72.2551 200.607 72.6523 200.607 73.163V77.9856C200.607 78.4963 200.494 78.8934 200.268 79.1204C200.014 79.3757 199.647 79.4892 199.138 79.4892Z" fill="white"/>
<path d="M212.218 79.4892H205.89C205.382 79.4892 204.986 79.3757 204.76 79.1488C204.534 78.9218 204.421 78.5246 204.421 78.014V51.2906C204.421 50.78 204.534 50.3828 204.76 50.1558C204.986 49.9289 205.382 49.8154 205.89 49.8154H219.564C222.643 49.8154 224.733 50.4679 225.92 51.7445C227.078 53.0211 227.672 54.6665 227.672 56.709V58.6098C227.672 59.7729 227.502 60.7374 227.163 61.5601C226.824 62.3828 226.231 62.9502 225.383 63.319C226.852 63.4892 228.067 64.0849 228.971 65.1346C229.875 66.1842 230.355 67.5743 230.355 69.3048V78.014C230.355 78.5246 230.242 78.9218 230.016 79.1488C229.79 79.3757 229.395 79.4892 228.886 79.4892H222.53C222.021 79.4892 221.626 79.3757 221.4 79.1488C221.174 78.9218 221.061 78.5246 221.061 78.014V71.7161C221.061 71.1204 220.948 70.6665 220.722 70.3828C220.496 70.0991 220.072 69.9573 219.507 69.9573H213.744V78.014C213.744 78.5246 213.631 78.9218 213.405 79.1488C213.122 79.3757 212.755 79.4892 212.218 79.4892ZM213.716 57.2197V62.4963H216.795C217.501 62.4963 217.982 62.2977 218.236 61.9289C218.49 61.5601 218.603 61.1062 218.603 60.5388V59.1488C218.603 58.6098 218.49 58.1275 218.236 57.7587C217.982 57.3899 217.501 57.1913 216.795 57.1913H213.716V57.2197Z" fill="white"/>
<path d="M26.4143 34.5249C25.7928 35.4327 25.03 36.2554 24.0695 36.9363C19.6341 40.142 13.4473 39.1774 10.2267 34.7519C7.00613 30.3263 7.99489 24.1703 12.4302 20.9363C15.1705 18.9505 18.6171 18.5533 21.5834 19.6313C20.9054 21.0214 20.4817 22.5533 20.4251 24.2271C18.7584 23.4611 16.7526 23.6029 15.1705 24.7377C12.854 26.4115 12.3172 29.6739 14.0123 32.0001C15.7073 34.3263 18.9561 34.837 21.3009 33.1632C21.9224 32.7093 22.4027 32.1419 22.77 31.4895C23.7587 32.7377 25.0017 33.759 26.4143 34.5249Z" fill="url(#paint0_linear_2173_11515)"/>
<path d="M19.8602 40.0568C19.8884 41.1348 19.7472 42.2695 19.3799 43.3759C17.6849 48.5674 12.0912 51.4043 6.89314 49.7305C1.69503 48.0568 -1.15828 42.4681 0.536755 37.2766C1.58203 34.0426 4.15283 31.7447 7.17564 30.8369C7.4299 32.3688 8.02317 33.844 8.95544 35.2057C7.17565 35.5745 5.62187 36.8511 5.00035 38.6951C4.12459 41.4185 5.62186 44.3688 8.33392 45.2483C11.0742 46.1277 14.0123 44.6525 14.8881 41.9007C15.1141 41.1632 15.1988 40.4256 15.1141 39.688C16.6678 40.1702 18.2781 40.2837 19.8602 40.0568Z" fill="url(#paint1_linear_2173_11515)"/>
<path d="M17.7979 48.3692C18.4759 49.2487 19.0127 50.2132 19.3799 51.3196C21.075 56.5111 18.2216 62.0997 13.0235 63.7735C7.82543 65.4756 2.23181 62.6104 0.53677 57.4189C-0.508502 54.1848 0.197765 50.809 2.11881 48.3125C3.22058 49.3905 4.57661 50.27 6.13039 50.809C4.88737 52.1423 4.40711 54.0997 5.00037 55.9437C5.87614 58.6671 8.81419 60.1707 11.5545 59.2912C14.2948 58.4118 15.7921 55.4614 14.9163 52.738C14.6621 52.0004 14.2948 51.3763 13.7863 50.8373C15.2836 50.3267 16.6679 49.4756 17.7979 48.3692Z" fill="url(#paint2_linear_2173_11515)"/>
<path d="M21.0467 56.3125C22.092 56.6246 23.109 57.1068 24.0695 57.7877C28.5049 60.9934 29.4654 67.1778 26.2731 71.6033C23.0525 76.0288 16.8656 76.9933 12.4303 73.7877C9.68997 71.8019 8.24919 68.6529 8.36219 65.504C9.91598 65.7309 11.498 65.6458 13.08 65.1919C12.854 67.0075 13.6168 68.8515 15.1988 70.0146C17.5154 71.6884 20.7925 71.1778 22.4875 68.8515C24.1825 66.5253 23.674 63.2912 21.3292 61.5891C20.7077 61.1352 20.0014 60.8515 19.2952 60.7097C20.1709 59.3763 20.7925 57.8728 21.0467 56.3125Z" fill="url(#paint3_linear_2173_11515)"/>
<path d="M28.3636 60.8227C29.4089 60.454 30.5107 60.2554 31.6689 60.2554C37.1495 60.2554 41.5849 64.6809 41.5849 70.1277C41.5849 75.5745 37.1495 80 31.6689 80C28.2789 80 25.2843 78.2979 23.5045 75.688C24.8888 74.9788 26.1036 73.9575 27.1488 72.6525C28.0529 74.2412 29.7479 75.3192 31.6972 75.3192C34.5787 75.3192 36.8953 72.993 36.8953 70.1277C36.8953 67.2625 34.5505 64.9362 31.6972 64.9362C30.9062 64.9362 30.1999 65.1064 29.5219 65.4185C29.4371 63.8298 29.0699 62.2412 28.3636 60.8227Z" fill="url(#paint4_linear_2173_11515)"/>
<path d="M36.9235 60.1705C37.545 59.2627 38.336 58.4401 39.2683 57.7592C43.7036 54.5535 49.8905 55.5181 53.111 59.9436C56.3316 64.3691 55.3428 70.5535 50.9075 73.7592C48.1672 75.745 44.7206 76.1138 41.7543 75.0642C42.4323 73.6741 42.8561 72.1422 42.9126 70.4968C44.5794 71.2628 46.5852 71.1209 48.1672 69.9862C50.4837 68.284 51.0205 65.05 49.3255 62.7237C47.6304 60.3975 44.3816 59.8869 42.0651 61.589C41.4436 62.0429 40.9633 62.6103 40.596 63.2344C39.579 61.9862 38.336 60.9365 36.9235 60.1705Z" fill="url(#paint5_linear_2173_11515)"/>
<path d="M43.4776 54.6387C43.4494 53.5323 43.5906 52.426 43.9579 51.3196C45.6529 46.1281 51.2465 43.2912 56.4446 44.965C61.6427 46.6387 64.496 52.2274 62.801 57.4189C61.7557 60.6529 59.1849 62.9791 56.1621 63.8586C55.9079 62.3267 55.3146 60.8515 54.3823 59.4898C56.1904 59.121 57.7159 57.8444 58.3374 56.0004C59.2132 53.277 57.7159 50.355 55.0039 49.4472C52.2636 48.5678 49.3255 50.043 48.4497 52.7664C48.1955 53.504 48.139 54.2416 48.2237 54.9791C46.6699 54.5536 45.0597 54.4118 43.4776 54.6387Z" fill="url(#paint6_linear_2173_11515)"/>
<path d="M45.5117 46.3262C44.8337 45.4468 44.2969 44.4539 43.9296 43.3759C42.2346 38.1844 45.0879 32.6241 50.286 30.922C55.4841 29.2482 61.0778 32.0851 62.7728 37.2766C63.8181 40.5106 63.1118 43.8865 61.1907 46.383C60.089 45.305 58.733 44.4255 57.1792 43.8865C58.4222 42.5532 58.9025 40.5958 58.3092 38.7518C57.4334 36.0284 54.4954 34.5248 51.7551 35.4043C49.0147 36.2837 47.5175 39.234 48.4215 41.9575C48.6475 42.695 49.043 43.3192 49.5515 43.8582C48.0542 44.3688 46.6699 45.2199 45.5117 46.3262Z" fill="url(#paint7_linear_2173_11515)"/>
<path d="M42.2911 38.4116C41.2458 38.0996 40.2288 37.6173 39.2683 36.9365C34.8329 33.7308 33.8724 27.5464 37.0647 23.1209C40.2853 18.6953 46.4722 17.7308 50.9075 20.9364C53.6478 22.9223 55.0604 26.0712 54.9756 29.2201C53.4501 28.9932 51.8398 29.0783 50.2578 29.5322C50.4838 27.7166 49.721 25.8726 48.139 24.7095C45.8224 23.0074 42.5453 23.5464 40.8503 25.8726C39.1553 28.1989 39.6638 31.4329 42.0086 33.135C42.6301 33.5889 43.3364 33.8726 44.0426 34.0145C43.1669 35.3194 42.5454 36.823 42.2911 38.4116Z" fill="url(#paint8_linear_2173_11515)"/>
<path d="M34.9742 33.9009C33.9289 34.2697 32.8272 34.4683 31.6689 34.4683C26.1883 34.4683 21.7529 30.0428 21.7529 24.596C21.7529 19.1492 26.1883 14.7236 31.6689 14.7236C35.059 14.7236 38.0535 16.4258 39.8333 19.0357C38.449 19.7449 37.206 20.7662 36.2172 22.0711C35.3132 20.4825 33.6182 19.4045 31.6689 19.4045C28.7873 19.4045 26.4425 21.7307 26.4425 24.596C26.4425 27.4612 28.7873 29.7875 31.6689 29.7875C32.4317 29.7875 33.1662 29.6172 33.8442 29.3052C33.9007 30.8938 34.2679 32.4541 34.9742 33.9009Z" fill="url(#paint9_linear_2173_11515)"/>
<path d="M234.48 58.4965C236.586 58.4965 238.294 56.7818 238.294 54.6667C238.294 52.5516 236.586 50.8369 234.48 50.8369C232.374 50.8369 230.666 52.5516 230.666 54.6667C230.666 56.7818 232.374 58.4965 234.48 58.4965Z" stroke="white" stroke-width="5" stroke-miterlimit="10"/>
<path d="M233.915 56.4254H233.124C233.067 56.4254 233.011 56.397 232.983 56.3687C232.954 56.3403 232.926 56.2835 232.926 56.2268V52.8509C232.926 52.7942 232.954 52.7374 232.983 52.7091C233.011 52.6807 233.067 52.6523 233.124 52.6523H234.847C235.243 52.6523 235.497 52.7374 235.638 52.9077C235.779 53.0779 235.864 53.2765 235.864 53.5318V53.7587C235.864 53.9006 235.836 54.0424 235.808 54.1275C235.751 54.241 235.695 54.2977 235.582 54.3545C235.779 54.3828 235.921 54.4396 236.034 54.5814C236.147 54.7233 236.203 54.8935 236.203 55.1204V56.2268C236.203 56.2835 236.175 56.3403 236.147 56.3687C236.118 56.397 236.062 56.4254 236.005 56.4254H235.186C235.13 56.4254 235.073 56.397 235.045 56.3687C235.017 56.3403 234.988 56.2835 234.988 56.2268V55.4325C234.988 55.3474 234.96 55.2906 234.932 55.2623C234.904 55.2339 234.847 55.2055 234.791 55.2055H234.056V56.2268C234.056 56.2835 234.028 56.3403 234 56.3687C234.028 56.4254 233.971 56.4254 233.915 56.4254ZM234.113 53.6169V54.2977H234.508C234.593 54.2977 234.649 54.2694 234.678 54.241C234.706 54.1843 234.734 54.1275 234.734 54.0708V53.9006C234.734 53.8438 234.706 53.7587 234.678 53.7304C234.649 53.6736 234.593 53.6736 234.508 53.6736H234.113V53.6169Z" fill="white"/>
</g>
<defs>
<linearGradient id="paint0_linear_2173_11515" x1="17.3847" y1="25.2606" x2="17.3847" y2="70.6678" gradientUnits="userSpaceOnUse">
<stop stop-color="#F16660"/>
<stop offset="0.2619" stop-color="#90278E"/>
<stop offset="0.503" stop-color="#CDDE00"/>
<stop offset="1" stop-color="white"/>
</linearGradient>
<linearGradient id="paint1_linear_2173_11515" x1="9.95906" y1="25.2605" x2="9.95906" y2="70.6677" gradientUnits="userSpaceOnUse">
<stop stop-color="#F16660"/>
<stop offset="0.2619" stop-color="#90278E"/>
<stop offset="0.503" stop-color="#CDDE00"/>
<stop offset="1" stop-color="white"/>
</linearGradient>
<linearGradient id="paint2_linear_2173_11515" x1="9.96207" y1="25.2609" x2="9.96207" y2="70.6681" gradientUnits="userSpaceOnUse">
<stop stop-color="#F16660"/>
<stop offset="0.2619" stop-color="#90278E"/>
<stop offset="0.503" stop-color="#CDDE00"/>
<stop offset="1" stop-color="white"/>
</linearGradient>
<linearGradient id="paint3_linear_2173_11515" x1="18.2503" y1="25.2609" x2="18.2503" y2="70.6681" gradientUnits="userSpaceOnUse">
<stop stop-color="#F16660"/>
<stop offset="0.2619" stop-color="#90278E"/>
<stop offset="0.503" stop-color="#CDDE00"/>
<stop offset="1" stop-color="white"/>
</linearGradient>
<linearGradient id="paint4_linear_2173_11515" x1="32.5265" y1="25.2605" x2="32.5265" y2="70.6677" gradientUnits="userSpaceOnUse">
<stop stop-color="#F16660"/>
<stop offset="0.2619" stop-color="#90278E"/>
<stop offset="0.503" stop-color="#CDDE00"/>
<stop offset="1" stop-color="white"/>
</linearGradient>
<linearGradient id="paint5_linear_2173_11515" x1="45.9527" y1="25.2608" x2="45.9527" y2="70.668" gradientUnits="userSpaceOnUse">
<stop stop-color="#F16660"/>
<stop offset="0.2619" stop-color="#90278E"/>
<stop offset="0.503" stop-color="#CDDE00"/>
<stop offset="1" stop-color="white"/>
</linearGradient>
<linearGradient id="paint6_linear_2173_11515" x1="53.3788" y1="25.2609" x2="53.3788" y2="70.6681" gradientUnits="userSpaceOnUse">
<stop stop-color="#F16660"/>
<stop offset="0.2619" stop-color="#90278E"/>
<stop offset="0.503" stop-color="#CDDE00"/>
<stop offset="1" stop-color="white"/>
</linearGradient>
<linearGradient id="paint7_linear_2173_11515" x1="53.3755" y1="25.2605" x2="53.3755" y2="70.6677" gradientUnits="userSpaceOnUse">
<stop stop-color="#F16660"/>
<stop offset="0.2619" stop-color="#90278E"/>
<stop offset="0.503" stop-color="#CDDE00"/>
<stop offset="1" stop-color="white"/>
</linearGradient>
<linearGradient id="paint8_linear_2173_11515" x1="45.086" y1="25.2607" x2="45.086" y2="70.6679" gradientUnits="userSpaceOnUse">
<stop stop-color="#F16660"/>
<stop offset="0.2619" stop-color="#90278E"/>
<stop offset="0.503" stop-color="#CDDE00"/>
<stop offset="1" stop-color="white"/>
</linearGradient>
<linearGradient id="paint9_linear_2173_11515" x1="30.8091" y1="25.2607" x2="30.8091" y2="70.6679" gradientUnits="userSpaceOnUse">
<stop stop-color="#F16660"/>
<stop offset="0.2619" stop-color="#90278E"/>
<stop offset="0.503" stop-color="#CDDE00"/>
<stop offset="1" stop-color="white"/>
</linearGradient>
<clipPath id="clip0_2173_11515">
<rect width="239" height="80" fill="white"/>
</clipPath>
</defs>
</svg>
