<svg width="117" height="38" viewBox="0 0 117 38" fill="none" xmlns="http://www.w3.org/2000/svg">
<path d="M51.87 27.7992C52.338 28.6557 52.494 29.668 52.494 30.8361V37.6885H48.126V31.5369C48.126 30.6025 47.892 29.9016 47.424 29.4344C46.956 28.9672 46.332 28.7336 45.396 28.7336C44.772 28.7336 44.304 28.8893 43.836 29.123C43.368 29.3566 43.056 29.7459 42.822 30.2131C42.588 30.6025 42.51 31.1475 42.51 31.8484V37.6885H38.142V29.7459L37.362 25.541H41.73L42.12 28.1107C42.198 28.0328 42.198 27.9549 42.276 27.8771C42.822 27.0205 43.524 26.3197 44.304 25.8525C45.084 25.3852 46.02 25.1516 47.034 25.1516C48.204 25.1516 49.218 25.3852 49.998 25.8525C50.778 26.3197 51.402 26.9426 51.87 27.7992ZM35.88 25.541L35.1 31.6148L35.88 37.6885H31.356L31.044 35.1967C30.498 36.0533 29.796 36.7541 28.938 37.2213C28.002 37.7664 26.988 38 25.818 38C24.648 38 23.556 37.7664 22.698 37.2213C21.84 36.6762 21.06 35.8975 20.592 34.9631C20.046 33.9508 19.812 32.8607 19.812 31.6148C19.812 30.291 20.046 29.2008 20.592 28.1885C21.138 27.2541 21.84 26.4754 22.698 25.9303C23.634 25.3852 24.648 25.1516 25.818 25.1516C26.988 25.1516 28.002 25.3852 28.938 25.9303C29.796 26.3975 30.498 27.0984 31.044 27.9549L31.356 25.541H35.88ZM31.122 31.6148C30.888 30.9918 30.654 30.4467 30.264 29.9795C29.874 29.5123 29.406 29.1229 28.86 28.8893C28.314 28.6557 27.768 28.5 27.144 28.5C26.598 28.5 26.052 28.6557 25.662 28.8893C25.194 29.1229 24.882 29.5123 24.648 29.9795C24.414 30.4467 24.258 30.9918 24.258 31.6148C24.258 32.2377 24.414 32.7828 24.648 33.25C24.882 33.7172 25.272 34.1066 25.662 34.3402C26.13 34.5738 26.598 34.7295 27.144 34.7295C27.768 34.7295 28.314 34.5738 28.86 34.3402C29.406 34.1066 29.874 33.7172 30.264 33.25C30.654 32.7049 30.966 32.2377 31.122 31.6148ZM6.786 25.6967C7.488 25.3074 8.346 25.1516 9.36 25.1516C10.218 25.1516 10.998 25.3074 11.622 25.541C12.246 25.7746 12.792 26.1639 13.26 26.6311C13.65 27.0984 13.962 27.7213 14.118 28.3443H18.564C18.408 26.9426 17.94 25.6967 17.082 24.6066C16.302 23.5164 15.21 22.7377 13.884 22.1148C12.558 21.5697 11.076 21.2582 9.36 21.2582C7.488 21.2582 5.85 21.5697 4.446 22.2705C3.042 23.0492 1.95 24.0615 1.17 25.3074C0.39 26.5533 0 28.0328 0 29.668C0 31.3033 0.39 32.7828 1.17 34.0287C1.95 35.2746 3.042 36.2869 4.446 36.9877C5.85 37.6885 7.488 38 9.36 38C11.076 38 12.558 37.6885 13.884 37.1434C15.21 36.5984 16.302 35.7418 17.082 34.6516C17.862 33.5615 18.408 32.3934 18.564 30.9139H14.118C13.962 31.6148 13.728 32.2377 13.26 32.7049C12.87 33.1721 12.324 33.5615 11.622 33.7951C10.998 34.0287 10.218 34.1844 9.36 34.1844C8.346 34.1844 7.488 34.0287 6.786 33.6393C6.084 33.25 5.538 32.7828 5.148 32.082C4.758 31.3811 4.602 30.6025 4.602 29.668C4.602 28.7336 4.758 27.9549 5.148 27.2541C5.46 26.5533 6.084 26.0861 6.786 25.6967ZM104.676 23.2828C104.832 23.6721 104.91 24.1393 104.91 24.6066C104.91 25.0738 104.832 25.541 104.676 25.9303C104.52 26.3197 104.286 26.6311 103.974 26.9426C103.662 27.2541 103.272 27.4877 102.882 27.6434C102.414 27.7992 101.946 27.8771 101.478 27.8771C101.01 27.8771 100.464 27.7992 100.074 27.6434C99.606 27.4877 99.294 27.2541 98.982 26.9426C98.67 26.6311 98.436 26.3197 98.28 25.9303C98.124 25.541 98.046 25.0738 98.046 24.6066C98.046 24.1393 98.124 23.75 98.28 23.2828C98.436 22.8934 98.67 22.582 98.982 22.2705C99.294 21.959 99.684 21.7254 100.074 21.5697C100.542 21.4139 101.01 21.3361 101.478 21.3361C102.024 21.3361 102.492 21.4139 102.882 21.5697C103.35 21.7254 103.662 21.959 103.974 22.2705C104.286 22.582 104.52 22.8934 104.676 23.2828ZM104.208 24.6066C104.208 24.1393 104.13 23.6721 103.896 23.2828C103.662 22.8934 103.35 22.582 102.96 22.4262C102.57 22.1926 102.102 22.1148 101.478 22.1148C100.932 22.1148 100.464 22.1926 100.074 22.4262C99.684 22.6598 99.372 22.9713 99.138 23.2828C98.904 23.6721 98.826 24.0615 98.826 24.6066C98.826 25.0738 98.904 25.541 99.138 25.9303C99.372 26.3197 99.684 26.6311 100.074 26.8648C100.464 27.0984 100.932 27.1762 101.478 27.1762C102.024 27.1762 102.492 27.0984 102.96 26.8648C103.35 26.6311 103.662 26.3197 103.896 25.9303C104.052 25.541 104.208 25.0738 104.208 24.6066ZM59.982 28.7336C60.45 28.5 60.996 28.3443 61.698 28.3443C62.556 28.3443 63.258 28.5779 63.804 28.9672C64.35 29.3566 64.74 29.9016 64.896 30.6803H69.264C69.186 29.5902 68.718 28.5779 68.094 27.7992C67.392 27.0205 66.534 26.3197 65.442 25.8525C64.35 25.3852 63.102 25.1516 61.776 25.1516C60.294 25.1516 58.968 25.4631 57.798 26.0082C56.628 26.5533 55.77 27.332 55.146 28.2664C54.522 29.2008 54.21 30.3689 54.21 31.6148C54.21 32.8607 54.522 34.0287 55.146 34.9631C55.77 35.8975 56.706 36.6762 57.798 37.2213C58.968 37.7664 60.294 38 61.776 38C63.102 38 64.35 37.7664 65.442 37.2992C66.534 36.832 67.392 36.209 68.094 35.3525C68.796 34.4959 69.186 33.5615 69.264 32.4713H64.896C64.74 33.1721 64.428 33.7172 63.804 34.1066C63.258 34.4959 62.556 34.7295 61.698 34.7295C61.074 34.7295 60.528 34.5738 59.982 34.3402C59.514 34.1066 59.124 33.7172 58.89 33.25C58.656 32.7828 58.5 32.1598 58.5 31.5369C58.5 30.8361 58.656 30.291 58.89 29.7459C59.124 29.3566 59.514 29.0451 59.982 28.7336ZM84.552 32.8607H74.88C74.958 32.9385 74.958 33.0943 75.036 33.1721C75.348 33.7172 75.894 34.1066 76.596 34.418C77.298 34.7295 78.078 34.8074 79.092 34.8074C79.95 34.8074 80.886 34.7295 81.744 34.418C82.602 34.1844 83.46 33.873 84.162 33.4057V36.209C83.304 36.7541 82.368 37.2213 81.276 37.5328C80.184 37.8443 79.014 38 77.766 38C76.284 38 74.958 37.7664 73.788 37.2213C72.618 36.6762 71.682 35.8975 71.058 34.9631C70.356 33.9508 70.044 32.8607 70.044 31.5369C70.044 30.291 70.356 29.1229 70.98 28.1885C71.604 27.2541 72.462 26.4754 73.632 25.9303C74.724 25.3852 76.05 25.1516 77.454 25.1516C78.936 25.1516 80.184 25.4631 81.198 26.0861C82.212 26.709 82.992 27.6434 83.616 28.7336C84.24 29.9016 84.552 31.3033 84.552 32.8607ZM80.496 30.2131C80.418 29.9795 80.34 29.7459 80.184 29.5123C79.95 29.0451 79.56 28.7336 79.17 28.5C78.78 28.2664 78.234 28.1885 77.688 28.1885C77.064 28.1885 76.518 28.3443 76.05 28.5779C75.582 28.8115 75.27 29.2008 74.958 29.668C74.88 29.8238 74.802 30.0574 74.724 30.2131H80.496ZM102.336 24.9959L103.194 26.3975H102.024L101.322 25.1516H100.776V26.3975H99.762V22.8156H101.712C102.102 22.8156 102.492 22.8934 102.726 23.127C102.96 23.3607 103.116 23.5943 103.116 23.9836C103.116 24.373 102.96 24.6066 102.726 24.8402C102.648 24.918 102.492 24.918 102.336 24.9959ZM102.102 23.9057C102.102 23.75 102.024 23.6721 101.946 23.5943C101.868 23.5164 101.79 23.5164 101.634 23.5164H100.776V24.2951H101.634C101.79 24.2951 101.868 24.2951 101.946 24.2172C102.024 24.1393 102.102 24.0615 102.102 23.9057ZM95.004 25.1516C94.146 25.1516 93.444 25.3074 92.898 25.6967C92.274 26.0082 91.806 26.5533 91.416 27.0984C91.104 27.5656 90.87 28.1885 90.636 28.8115L90.09 25.541H85.644L86.424 29.668V37.7664H90.792V32.7828C90.792 31.8484 90.948 31.0697 91.26 30.5246C91.572 29.9795 92.04 29.5123 92.508 29.2787C93.054 29.0451 93.6 28.8893 94.224 28.8893C94.536 28.8893 94.848 28.8893 95.238 28.9672C95.628 28.9672 96.018 29.0451 96.408 29.123V25.3852C96.174 25.3074 95.862 25.3074 95.628 25.2295C95.55 25.1516 95.316 25.1516 95.004 25.1516ZM10.218 11.2131H14.586C14.508 11.291 14.508 11.3689 14.43 11.3689C13.962 11.9139 13.338 12.3811 12.48 12.6926C11.7 13.0041 10.764 13.1598 9.75 13.1598C8.658 13.1598 7.722 13.0041 6.942 12.6148C6.162 12.2254 5.538 11.7582 5.148 10.9795C4.758 10.2787 4.524 9.42213 4.524 8.33197C4.524 7.31967 4.758 6.46311 5.148 5.76229C5.538 5.06147 6.084 4.51639 6.864 4.20492C7.566 3.89344 8.424 3.65984 9.438 3.65984C10.296 3.65984 10.998 3.7377 11.622 3.97131C12.246 4.20492 12.792 4.43852 13.26 4.82787C13.728 5.21721 13.962 5.68443 14.118 6.22951H18.564C18.33 4.98361 17.862 3.89344 17.082 2.95902C16.302 2.02459 15.288 1.2459 13.962 0.778688C12.714 0.233607 11.154 0 9.36 0C8.034 0 6.786 0.155737 5.694 0.545081C4.602 0.934425 3.588 1.47951 2.73 2.18033C1.872 2.88115 1.248 3.7377 0.78 4.82787C0.312 5.84016 0.0780003 7.08606 0.0780003 8.40983C0.0780003 9.73361 0.312 10.9016 0.78 11.9918C1.248 13.0041 1.872 13.9385 2.73 14.6393C3.588 15.3402 4.524 15.8852 5.616 16.2746C6.708 16.6639 7.878 16.8197 9.126 16.8197C10.452 16.8197 11.622 16.6639 12.558 16.2746C13.572 15.8852 14.352 15.3402 15.054 14.6393C15.132 14.5615 15.288 14.4057 15.366 14.3279L15.6 16.5082H18.72V8.09836H10.218V11.2131ZM64.74 13.627C64.038 12.6148 63.726 11.5246 63.726 10.2008C63.726 8.95492 64.038 7.78688 64.662 6.85246C65.286 5.91803 66.144 5.13934 67.314 4.59426C68.406 4.04918 69.732 3.81557 71.136 3.81557C72.618 3.81557 73.866 4.12705 74.88 4.75C75.894 5.37295 76.674 6.30738 77.298 7.39754C77.844 8.56557 78.156 9.88934 78.156 11.4467H68.484C68.562 11.5246 68.562 11.6803 68.64 11.7582C68.952 12.3033 69.498 12.6926 70.2 13.0041C70.902 13.3156 71.682 13.3934 72.696 13.3934C73.632 13.3934 74.49 13.3156 75.348 13.0041C76.206 12.7705 77.064 12.459 77.766 11.9918V14.7951C76.908 15.3402 75.972 15.8074 74.88 16.1189C73.788 16.4303 72.618 16.5861 71.37 16.5861C69.888 16.5861 68.562 16.3525 67.392 15.8074C66.3 15.3402 65.364 14.5615 64.74 13.627ZM68.25 8.87705H74.022C73.944 8.64344 73.866 8.40984 73.71 8.17623C73.476 7.70902 73.086 7.39754 72.696 7.16393C72.306 6.93033 71.76 6.85246 71.214 6.85246C70.59 6.85246 70.044 7.0082 69.576 7.2418C69.108 7.47541 68.796 7.86475 68.484 8.33197C68.406 8.4877 68.328 8.72131 68.25 8.87705ZM116.298 6.46311C115.83 5.60656 115.206 4.98361 114.426 4.51639C113.568 4.04918 112.632 3.81557 111.462 3.81557C110.448 3.81557 109.59 4.04918 108.732 4.51639C107.952 4.98361 107.25 5.60656 106.704 6.54098C106.626 6.61885 106.626 6.69672 106.548 6.77459L106.158 4.20492H101.79L102.57 8.40983V16.3525H106.938V10.5123C106.938 9.88934 107.094 9.34426 107.328 8.87705C107.562 8.40983 107.952 8.02049 108.342 7.78689C108.81 7.55328 109.278 7.39754 109.902 7.39754C110.76 7.39754 111.462 7.63115 111.93 8.09836C112.398 8.56557 112.632 9.26639 112.632 10.2008V16.3525H117V9.5C116.922 8.33197 116.766 7.31967 116.298 6.46311ZM99.294 12.6926C98.514 13.9385 97.422 14.9508 95.94 15.6516C94.536 16.3525 92.82 16.6639 90.948 16.6639C89.076 16.6639 87.36 16.3525 85.956 15.6516C84.552 14.9508 83.382 14.0164 82.602 12.6926C81.822 11.4467 81.432 9.96721 81.432 8.33197C81.432 6.69672 81.822 5.21721 82.602 3.97131C83.382 2.72541 84.474 1.71311 85.956 1.01229C87.36 0.311475 89.076 0 90.948 0C92.82 0 94.536 0.311475 95.94 1.01229C97.344 1.71311 98.514 2.64754 99.294 3.97131C100.074 5.21721 100.464 6.69672 100.464 8.33197C100.464 10.0451 100.074 11.4467 99.294 12.6926ZM96.018 8.33197C96.018 7.39754 95.784 6.61885 95.394 5.9959C95.004 5.37295 94.38 4.82787 93.678 4.51639C92.898 4.12705 92.04 3.97131 90.948 3.97131C89.934 3.97131 88.998 4.12705 88.296 4.51639C87.516 4.90574 86.97 5.37295 86.58 5.9959C86.19 6.61885 85.956 7.39754 85.956 8.33197C85.956 9.26639 86.19 10.0451 86.58 10.668C86.97 11.291 87.594 11.8361 88.296 12.1475C89.076 12.5369 89.934 12.6926 90.948 12.6926C91.962 12.6926 92.898 12.5369 93.678 12.1475C94.458 11.7582 95.004 11.291 95.394 10.668C95.784 10.0451 96.018 9.26639 96.018 8.33197ZM57.252 8.09836C57.642 8.56557 57.876 9.26639 57.876 10.2008V16.3525H62.244V9.5C62.244 8.33197 62.01 7.31967 61.62 6.46311C61.23 5.60656 60.606 4.98361 59.826 4.51639C59.046 4.04918 58.11 3.81557 56.94 3.81557C56.004 3.81557 55.146 4.04918 54.366 4.51639C53.586 4.98361 52.962 5.60656 52.416 6.54098C52.338 6.61885 52.338 6.77459 52.26 6.85246C52.182 6.77459 52.182 6.61885 52.104 6.54098C51.714 5.68443 51.09 5.06147 50.31 4.59426C49.53 4.12705 48.594 3.89344 47.424 3.89344C46.488 3.89344 45.63 4.12705 44.85 4.59426C44.07 5.06147 43.446 5.68443 42.9 6.61885C42.9 6.69672 42.822 6.69672 42.822 6.77459L42.432 4.28279H38.064L38.844 8.4877V16.4303H43.212V10.5902C43.212 9.96721 43.29 9.42213 43.524 8.95492C43.758 8.4877 44.07 8.09836 44.46 7.86475C44.85 7.63115 45.318 7.47541 45.864 7.47541C46.644 7.47541 47.268 7.70902 47.658 8.17623C48.048 8.64344 48.282 9.34426 48.282 10.2787V16.4303H52.65V10.5902C52.65 9.96721 52.728 9.42213 52.962 8.95492C53.196 8.4877 53.508 8.09836 53.898 7.86475C54.288 7.63115 54.756 7.47541 55.302 7.47541C56.238 7.31967 56.862 7.55328 57.252 8.09836ZM36.66 4.20492L35.88 10.2787L36.66 16.3525H32.136L31.824 13.8607C31.278 14.7172 30.576 15.418 29.718 15.8852C28.782 16.4303 27.768 16.6639 26.598 16.6639C25.428 16.6639 24.336 16.4303 23.478 15.8852C22.542 15.3402 21.84 14.5615 21.372 13.627C20.826 12.6148 20.592 11.5246 20.592 10.2787C20.592 8.95492 20.826 7.86475 21.372 6.85246C21.918 5.91803 22.62 5.13934 23.478 4.59426C24.414 4.04918 25.428 3.81557 26.598 3.81557C27.768 3.81557 28.782 4.04918 29.718 4.59426C30.576 5.06147 31.278 5.76229 31.824 6.61885L32.136 4.20492H36.66ZM31.902 10.2787C31.668 9.65574 31.434 9.11066 30.966 8.64344C30.576 8.17623 30.108 7.78688 29.562 7.55328C29.016 7.31967 28.47 7.16393 27.846 7.16393C27.3 7.16393 26.754 7.31967 26.364 7.55328C25.896 7.78688 25.584 8.17623 25.35 8.64344C25.116 9.11066 24.96 9.65574 24.96 10.2787C24.96 10.9016 25.116 11.4467 25.35 11.9139C25.584 12.3811 25.974 12.7705 26.364 13.0041C26.832 13.2377 27.3 13.3934 27.846 13.3934C28.47 13.3934 29.016 13.2377 29.562 13.0041C30.108 12.7705 30.576 12.3811 30.966 11.9139C31.356 11.3689 31.668 10.9016 31.902 10.2787Z" fill="#ffffff"/>
</svg>
