<svg width="846" height="231" viewBox="0 0 846 231" fill="none" xmlns="http://www.w3.org/2000/svg">
<g clip-path="url(#clip0_1686_6703)">
<path d="M328.5 107.2H282.7C270.6 107.2 261.6 104.8 255.7 99.9C249.8 95.1 246.9 87.6 246.9 77.5V32.1C246.9 22 249.8 14.6 255.7 9.70004C261.6 4.90004 270.6 2.40002 282.7 2.40002H319C320.8 2.40002 322.2 2.80004 323 3.60004C323.8 4.40004 324.2 5.80004 324.2 7.60004V25.2C324.2 27 323.8 28.4 323 29.2C322.2 30 320.8 30.4 319 30.4H288.8C285.8 30.4 283.6 31 282.1 32.2C280.6 33.4 279.9 35.2 279.9 37.7V72.4C279.9 74.8 280.5 76.6 281.6 77.8C282.7 79 284.4 79.5 286.6 79.5H300.7V56.8C300.7 55 301.1 53.6 301.9 52.8C302.7 52 304.1 51.6 305.9 51.6H328.4C330.2 51.6 331.6 52 332.4 52.8C333.2 53.6 333.6 55 333.6 56.8V102C333.6 103.8 333.2 105.2 332.4 106C331.6 106.8 330.3 107.2 328.5 107.2Z" fill="white"/>
<path d="M377.5 102C377.5 103.8 377.1 105.2 376.3 106C375.5 106.8 374.1 107.2 372.3 107.2H350.9C349.1 107.2 347.7 106.8 346.9 106C346.1 105.2 345.7 103.8 345.7 102V63.6C345.7 60.7 346.2 57.3 347.1 53.6C348 49.8 349.4 45.4 351.4 40.4L364 7.39996C364.6 5.79996 365.5 4.49996 366.7 3.79996C367.9 2.99996 369.5 2.59998 371.4 2.59998H410.5C412.3 2.59998 413.9 2.99996 415.1 3.79996C416.3 4.59996 417.2 5.79996 417.8 7.39996L430.4 40.4C432.3 45.4 433.8 49.9 434.7 53.6C435.6 57.4 436.1 60.7 436.1 63.6V102C436.1 103.8 435.7 105.2 434.9 106C434.1 106.8 432.7 107.2 430.9 107.2H408.9C407 107.2 405.5 106.8 404.6 106C403.7 105.2 403.2 103.8 403.2 102V81.6H377.5V102ZM385.7 33.1L378.9 55.2H401.7L394.9 33.1C394.5 32.2 394.1 31.6 393.7 31.2C393.3 30.8 392.8 30.6 392.2 30.6H388.6C388 30.6 387.5 30.8 387.1 31.2C386.5 31.6 386.1 32.2 385.7 33.1Z" fill="white"/>
<path d="M477.2 107.2H455.5C453.7 107.2 452.3 106.8 451.5 106C450.7 105.2 450.3 103.8 450.3 102V7.79996C450.3 5.99996 450.7 4.59996 451.5 3.79996C452.3 2.99996 453.7 2.59998 455.5 2.59998H478.9C480.4 2.59998 481.7 2.89998 482.8 3.59998C483.8 4.29998 484.8 5.39996 485.6 6.89996L498.7 30.6C499.2 31.5 499.6 32.1 499.9 32.5C500.2 32.9 500.7 33.1 501.3 33.1H502.6C503.2 33.1 503.6 32.9 504 32.5C504.3 32.1 504.7 31.5 505.2 30.6L518.1 6.89996C519 5.39996 519.9 4.19998 520.9 3.59998C521.9 2.89998 523.2 2.59998 524.8 2.59998H548.4C550.2 2.59998 551.6 2.99996 552.4 3.79996C553.2 4.59996 553.6 5.99996 553.6 7.79996V102C553.6 103.8 553.2 105.2 552.4 106C551.6 106.8 550.2 107.2 548.4 107.2H526C524.2 107.2 522.8 106.8 522 106C521.2 105.2 520.8 103.8 520.8 102V50.8L512.2 66.6C511.3 68.2 510.3 69.4 509.1 70.2C507.9 70.9 506.4 71.3 504.5 71.3H498.7C496.9 71.3 495.3 70.9 494.1 70.2C492.9 69.5 491.8 68.3 491 66.6L482.4 50.8V102C482.4 103.8 482 105.2 481.2 106C480.4 106.8 479 107.2 477.2 107.2Z" fill="white"/>
<path d="M642.8 107.2H575.3C573.5 107.2 572.1 106.8 571.3 106C570.5 105.2 570.1 103.8 570.1 102V7.79996C570.1 5.99996 570.5 4.59996 571.3 3.79996C572.1 2.99996 573.5 2.59998 575.3 2.59998H642.8C644.6 2.59998 646 2.99996 646.8 3.79996C647.6 4.59996 648 5.99996 648 7.79996V24.8C648 26.6 647.6 28 646.8 28.8C646 29.6 644.6 30 642.8 30H602.7V41.2H631C632.8 41.2 634.2 41.6 635 42.4C635.8 43.2 636.2 44.6 636.2 46.4V62C636.2 63.8 635.8 65.2 635 66C634.2 66.8 632.8 67.2 631 67.2H602.7V79.7H642.8C644.6 79.7 646 80.1 646.8 80.9C647.6 81.7 648 83.1 648 84.9V101.9C648 103.7 647.6 105.1 646.8 105.9C646 106.8 644.6 107.2 642.8 107.2Z" fill="white"/>
<path d="M738.1 87.4C738.1 90.7 737.6 93.7 736.6 96.4C735.6 99.1 733.9 101.4 731.4 103.3C728.9 105.2 725.5 106.7 721.2 107.8C716.9 108.9 711.3 109.4 704.7 109.4C698 109.4 692.5 108.9 688.1 107.8C683.7 106.7 680.3 105.2 677.8 103.3C675.3 101.4 673.6 99.1 672.6 96.4C671.6 93.7 671.1 90.7 671.1 87.4V50.6C671.1 47.3 671.6 44.3 672.6 41.6C673.6 38.9 675.3 36.6 677.8 34.6C680.3 32.7 683.7 31.2 688.1 30.1C692.5 29 698 28.5 704.7 28.5C711.4 28.5 716.9 29 721.2 30.1C725.5 31.2 729 32.7 731.4 34.6C733.9 36.5 735.6 38.9 736.6 41.6C737.6 44.3 738.1 47.3 738.1 50.6V87.4ZM695.6 83.5C695.6 84.9 696.1 86.1 697.2 87.1C698.3 88.1 700.8 88.6 704.6 88.6C708.5 88.6 711 88.1 712 87.1C713.1 86.1 713.6 84.9 713.6 83.5V54.5C713.6 53.1 713.1 52 712 51C710.9 50 708.4 49.5 704.6 49.5C700.7 49.5 698.2 50 697.2 51C696.1 52 695.6 53.1 695.6 54.5V83.5Z" fill="white"/>
<path d="M769.1 107.8H752.9C751.5 107.8 750.5 107.5 749.9 106.9C749.3 106.3 749 105.3 749 103.9V34.1001C749 32.7001 749.3 31.7001 749.9 31.1001C750.5 30.5001 751.5 30.2001 752.9 30.2001H764.1C765.5 30.2001 766.6 30.4001 767.6 30.8001C768.6 31.2001 769.5 32.0001 770.5 33.1001L791.4 57.0001V34.0001C791.4 32.6001 791.7 31.6001 792.3 31.0001C792.9 30.4001 793.9 30.1001 795.3 30.1001H811.5C812.9 30.1001 813.9 30.4001 814.5 31.0001C815.1 31.6001 815.4 32.6001 815.4 34.0001V103.8C815.4 105.2 815.1 106.2 814.5 106.8C813.9 107.4 812.9 107.7 811.5 107.7H795.3C793.9 107.7 792.9 107.4 792.3 106.8C791.7 106.2 791.4 105.2 791.4 103.8V90.5001L773 68.2001V103.8C773 105.2 772.7 106.2 772.1 106.8C771.5 107.5 770.5 107.8 769.1 107.8Z" fill="white"/>
<path d="M318.1 229.2H282.6C270.5 229.2 261.5 226.8 255.6 221.9C249.7 217.1 246.8 209.6 246.8 199.5V154.3C246.8 144.2 249.7 136.7 255.6 131.8C261.5 126.9 270.5 124.5 282.6 124.5H318.1C319.9 124.5 321.3 124.9 322.1 125.7C322.9 126.5 323.3 127.9 323.3 129.7V147.3C323.3 149.1 322.9 150.5 322.1 151.3C321.3 152.1 319.9 152.5 318.1 152.5H288.9C285.9 152.5 283.7 153.1 282.2 154.3C280.7 155.5 280 157.3 280 159.8V194.4C280 196.8 280.7 198.6 282.2 199.7C283.7 200.8 285.9 201.4 288.9 201.4H318.1C319.9 201.4 321.3 201.8 322.1 202.6C322.9 203.4 323.3 204.8 323.3 206.6V224C323.3 225.8 322.9 227.2 322.1 228C321.3 228.8 320 229.2 318.1 229.2Z" fill="white"/>
<path d="M365.8 224C365.8 225.8 365.4 227.2 364.6 228C363.8 228.8 362.4 229.2 360.6 229.2H339.2C337.4 229.2 336 228.8 335.2 228C334.4 227.2 334 225.8 334 224V185.6C334 182.7 334.5 179.3 335.4 175.6C336.3 171.8 337.7 167.4 339.7 162.4L352.3 129.4C352.9 127.8 353.8 126.5 355 125.8C356.2 125 357.8 124.6 359.7 124.6H398.8C400.6 124.6 402.2 125 403.4 125.8C404.6 126.6 405.5 127.8 406.1 129.4L418.7 162.4C420.6 167.4 422.1 171.9 423 175.6C423.9 179.4 424.4 182.7 424.4 185.6V224C424.4 225.8 424 227.2 423.2 228C422.4 228.8 421 229.2 419.2 229.2H397.2C395.3 229.2 393.8 228.8 392.9 228C392 227.2 391.5 225.8 391.5 224V203.6H365.8V224ZM374.1 155.1L367.3 177.2H390.1L383.3 155.1C382.9 154.2 382.5 153.6 382.1 153.2C381.7 152.8 381.2 152.6 380.6 152.6H377C376.4 152.6 375.9 152.8 375.5 153.2C374.9 153.6 374.5 154.2 374.1 155.1Z" fill="white"/>
<path d="M465.7 229.2H443.9C442.1 229.2 440.7 228.8 439.9 228C439.1 227.2 438.7 225.8 438.7 224V129.8C438.7 128 439.1 126.6 439.9 125.8C440.7 125 442.1 124.6 443.9 124.6H459C460.8 124.6 462.4 124.9 463.7 125.5C465 126.1 466.3 127.1 467.6 128.6L495.8 160.9V129.9C495.8 128.1 496.2 126.7 497 125.9C497.8 125.1 499.2 124.7 501 124.7H522.8C524.6 124.7 526 125.1 526.8 125.9C527.6 126.7 528 128.1 528 129.9V224C528 225.8 527.6 227.2 526.8 228C526 228.8 524.6 229.2 522.8 229.2H501C499.2 229.2 497.8 228.8 497 228C496.2 227.2 495.8 225.8 495.8 224V206.1L470.9 176V224C470.9 225.8 470.5 227.2 469.7 228C468.9 228.8 467.5 229.2 465.7 229.2Z" fill="white"/>
<path d="M614.1 229.2H578.6C566.5 229.2 557.5 226.8 551.6 221.9C545.7 217.1 542.8 209.6 542.8 199.5V154.3C542.8 144.2 545.7 136.7 551.6 131.8C557.5 126.9 566.5 124.5 578.6 124.5H614.1C615.9 124.5 617.3 124.9 618.1 125.7C618.9 126.5 619.3 127.9 619.3 129.7V147.3C619.3 149.1 618.9 150.5 618.1 151.3C617.3 152.1 615.9 152.5 614.1 152.5H584.9C581.9 152.5 579.7 153.1 578.2 154.3C576.7 155.5 576 157.3 576 159.8V194.4C576 196.8 576.7 198.6 578.2 199.7C579.7 200.8 581.9 201.4 584.9 201.4H614.1C615.9 201.4 617.3 201.8 618.1 202.6C618.9 203.4 619.3 204.8 619.3 206.6V224C619.3 225.8 618.9 227.2 618.1 228C617.3 228.8 616 229.2 614.1 229.2Z" fill="white"/>
<path d="M704.9 229.2H637.4C635.6 229.2 634.2 228.8 633.4 228C632.6 227.2 632.2 225.8 632.2 224V129.8C632.2 128 632.6 126.6 633.4 125.8C634.2 125 635.6 124.6 637.4 124.6H704.9C706.7 124.6 708.1 125 708.9 125.8C709.7 126.6 710.1 128 710.1 129.8V146.8C710.1 148.6 709.7 150 708.9 150.8C708.1 151.6 706.7 152 704.9 152H664.8V163.2H693.1C694.9 163.2 696.3 163.6 697.1 164.4C697.9 165.2 698.3 166.6 698.3 168.4V184C698.3 185.8 697.9 187.2 697.1 188C696.3 188.8 694.9 189.2 693.1 189.2H664.8V201.7H704.9C706.7 201.7 708.1 202.1 708.9 202.9C709.7 203.7 710.1 205.1 710.1 206.9V223.9C710.1 225.7 709.7 227.1 708.9 227.9C708 228.8 706.7 229.2 704.9 229.2Z" fill="white"/>
<path d="M751.2 229.2H728.8C727 229.2 725.6 228.8 724.8 228C724 227.2 723.6 225.8 723.6 224V129.8C723.6 128 724 126.6 724.8 125.8C725.6 125 727 124.6 728.8 124.6H777.2C788.1 124.6 795.5 126.9 799.7 131.4C803.8 135.9 805.9 141.7 805.9 148.9V155.6C805.9 159.7 805.3 163.1 804.1 166C802.9 168.9 800.8 170.9 797.8 172.2C803 172.8 807.3 174.9 810.5 178.6C813.7 182.3 815.4 187.2 815.4 193.3V224C815.4 225.8 815 227.2 814.2 228C813.4 228.8 812 229.2 810.2 229.2H787.7C785.9 229.2 784.5 228.8 783.7 228C782.9 227.2 782.5 225.8 782.5 224V201.8C782.5 199.7 782.1 198.1 781.3 197.1C780.5 196.1 779 195.6 777 195.6H756.6V224C756.6 225.8 756.2 227.2 755.4 228C754.4 228.8 753.1 229.2 751.2 229.2ZM756.5 150.7V169.3H767.4C769.9 169.3 771.6 168.6 772.5 167.3C773.4 166 773.8 164.4 773.8 162.4V157.5C773.8 155.6 773.4 153.9 772.5 152.6C771.6 151.3 769.9 150.6 767.4 150.6H756.5V150.7Z" fill="white"/>
<path d="M93.5 70.7001C91.3 73.9001 88.6 76.8001 85.2 79.2001C69.5 90.5001 47.6 87.1001 36.2 71.5C24.8 55.9 28.3 34.2 44 22.8C53.7 15.8 65.9 14.4001 76.4 18.2001C74 23.1001 72.5 28.5 72.3 34.4C66.4 31.7 59.3 32.2001 53.7 36.2001C45.5 42.1001 43.6 53.6 49.6 61.8C55.6 70 67.1 71.8 75.4 65.9C77.6 64.3 79.3 62.3 80.6 60C84.1 64.4001 88.5 68.0001 93.5 70.7001Z" fill="white"/>
<path d="M70.2999 90.2C70.3999 94 69.9 97.9999 68.6 101.9C62.6 120.2 42.7999 130.2 24.3999 124.3C5.99995 118.4 -4.10005 98.6999 1.89995 80.3999C5.59995 68.9999 14.6999 60.9 25.3999 57.7C26.2999 63.1 28.4 68.2999 31.7 73.0999C25.4 74.3999 19.9 78.8999 17.7 85.3999C14.6 94.9999 19.9 105.4 29.5 108.5C39.2 111.6 49.6 106.4 52.7 96.7C53.5 94.1 53.7999 91.4999 53.5 88.8999C59 90.5999 64.6999 91 70.2999 90.2Z" fill="white"/>
<path d="M63 119.5C65.4 122.6 67.3 126 68.6001 129.9C74.6001 148.2 64.5001 167.9 46.1001 173.8C27.7001 179.8 7.90004 169.7 1.90004 151.4C-1.79996 140 0.700044 128.1 7.50004 119.3C11.4 123.1 16.2001 126.2 21.7001 128.1C17.3001 132.8 15.6001 139.7 17.7001 146.2C20.8001 155.8 31.2 161.1 40.9 158C50.6 154.9 55.9 144.5 52.8 134.9C51.9 132.3 50.6 130.1 48.8 128.2C54.1 126.4 59 123.4 63 119.5Z" fill="white"/>
<path d="M74.5 147.5C78.2 148.6 81.8 150.3 85.2 152.7C100.9 164 104.3 185.8 93 201.4C81.6 217 59.7 220.4 44 209.1C34.3 202.1 29.2 191 29.6 179.9C35.1 180.7 40.7 180.4 46.3 178.8C45.5 185.2 48.2 191.7 53.8 195.8C62 201.7 73.6 199.9 79.6 191.7C85.6 183.5 83.8 172.1 75.5 166.1C73.3 164.5 70.8 163.5 68.3 163C71.4 158.3 73.6 153 74.5 147.5Z" fill="white"/>
<path d="M100.4 163.4C104.1 162.1 108 161.4 112.1 161.4C131.5 161.4 147.2 177 147.2 196.2C147.2 215.4 131.5 231 112.1 231C100.1 231 89.5 225 83.2 215.8C88.1 213.3 92.3999 209.7 96.0999 205.1C99.2999 210.7 105.3 214.5 112.2 214.5C122.4 214.5 130.6 206.3 130.6 196.2C130.6 186.1 122.3 177.9 112.2 177.9C109.4 177.9 106.9 178.5 104.5 179.6C104.2 174 102.9 168.4 100.4 163.4Z" fill="white"/>
<path d="M130.7 161.1C132.9 157.9 135.7 155 139 152.6C154.7 141.3 176.6 144.7 188 160.3C199.4 175.9 195.9 197.7 180.2 209C170.5 216 158.3 217.3 147.8 213.6C150.2 208.7 151.7 203.3 151.9 197.5C157.8 200.2 164.9 199.7 170.5 195.7C178.7 189.7 180.6 178.3 174.6 170.1C168.6 161.9 157.1 160.1 148.9 166.1C146.7 167.7 145 169.7 143.7 171.9C140.1 167.5 135.7 163.8 130.7 161.1Z" fill="white"/>
<path d="M153.9 141.6C153.8 137.7 154.3 133.8 155.6 129.9C161.6 111.6 181.4 101.6 199.8 107.5C218.2 113.4 228.3 133.1 222.3 151.4C218.6 162.8 209.5 171 198.8 174.1C197.9 168.7 195.8 163.5 192.5 158.7C198.9 157.4 204.3 152.9 206.5 146.4C209.6 136.8 204.3 126.5 194.7 123.3C185 120.2 174.6 125.4 171.5 135C170.6 137.6 170.4 140.2 170.7 142.8C165.2 141.3 159.5 140.8 153.9 141.6Z" fill="white"/>
<path d="M161.1 112.3C158.7 109.2 156.8 105.7 155.5 101.9C149.5 83.6 159.6 64 178 58C196.4 52.1 216.2 62.1 222.2 80.4C225.9 91.8 223.4 103.7 216.6 112.5C212.7 108.7 207.9 105.6 202.4 103.7C206.8 99 208.5 92.1 206.4 85.6C203.3 76 192.9 70.7 183.2 73.8C173.5 76.9 168.2 87.3 171.4 96.9C172.2 99.5 173.6 101.7 175.4 103.6C170.1 105.4 165.2 108.4 161.1 112.3Z" fill="white"/>
<path d="M149.7 84.3999C146 83.2999 142.4 81.6 139 79.2C123.3 67.9 119.9 46.0999 131.2 30.4999C142.6 14.8999 164.5 11.4999 180.2 22.7999C189.9 29.7999 194.9 40.8999 194.6 51.9999C189.2 51.1999 183.5 51.5 177.9 53.1C178.7 46.7 176 40.2 170.4 36.1C162.2 30.1 150.6 32 144.6 40.2C138.6 48.4 140.4 59.7999 148.7 65.7999C150.9 67.3999 153.4 68.3999 155.9 68.8999C152.8 73.4999 150.6 78.7999 149.7 84.3999Z" fill="white"/>
<path d="M123.8 68.5C120.1 69.8 116.2 70.5 112.1 70.5C92.7 70.5 77 54.9 77 35.7C77 16.5 92.7 0.900024 112.1 0.900024C124.1 0.900024 134.7 6.90004 141 16.1C136.1 18.6 131.7 22.2 128.2 26.8C125 21.2 119 17.4 112.1 17.4C101.9 17.4 93.6 25.6 93.6 35.7C93.6 45.8 101.9 54 112.1 54C114.8 54 117.4 53.4 119.8 52.3C120 57.9 121.3 63.4 123.8 68.5Z" fill="white"/>
<path d="M830 155.2C837.456 155.2 843.5 149.156 843.5 141.7C843.5 134.244 837.456 128.2 830 128.2C822.544 128.2 816.5 134.244 816.5 141.7C816.5 149.156 822.544 155.2 830 155.2Z" stroke="white" stroke-width="5" stroke-miterlimit="10"/>
<path d="M828 147.9H825.2C825 147.9 824.8 147.8 824.7 147.7C824.6 147.6 824.5 147.4 824.5 147.2V135.3C824.5 135.1 824.6 134.9 824.7 134.8C824.8 134.7 825 134.6 825.2 134.6H831.3C832.7 134.6 833.6 134.9 834.1 135.5C834.6 136.1 834.9 136.8 834.9 137.7V138.5C834.9 139 834.8 139.5 834.7 139.8C834.5 140.2 834.3 140.4 833.9 140.6C834.6 140.7 835.1 140.9 835.5 141.4C835.9 141.9 836.1 142.5 836.1 143.3V147.2C836.1 147.4 836 147.6 835.9 147.7C835.8 147.8 835.6 147.9 835.4 147.9H832.5C832.3 147.9 832.1 147.8 832 147.7C831.9 147.6 831.8 147.4 831.8 147.2V144.4C831.8 144.1 831.7 143.9 831.6 143.8C831.5 143.7 831.3 143.6 831.1 143.6H828.5V147.2C828.5 147.4 828.4 147.6 828.3 147.7C828.4 147.9 828.2 147.9 828 147.9ZM828.7 138V140.4H830.1C830.4 140.4 830.6 140.3 830.7 140.2C830.8 140 830.9 139.8 830.9 139.6V139C830.9 138.8 830.8 138.5 830.7 138.4C830.6 138.2 830.4 138.2 830.1 138.2H828.7V138Z" fill="white"/>
</g>
<defs>
<clipPath id="clip0_1686_6703">
<rect width="846" height="231" fill="white"/>
</clipPath>
</defs>
</svg>
