<?xml version="1.0" encoding="utf-8"?>
<!-- Generator: Adobe Illustrator 26.0.3, SVG Export Plug-In . SVG Version: 6.00 Build 0)  -->
<svg version="1.1" id="Layer_1" xmlns="http://www.w3.org/2000/svg" xmlns:xlink="http://www.w3.org/1999/xlink" x="0px" y="0px"
	 viewBox="0 0 1600 900" style="enable-background:new 0 0 1600 900;" xml:space="preserve">
<style type="text/css">
	.st0{fill:#F16660;}
	.st1{fill:#CDDE00;}
	.st2{fill:#162D54;}
	.st3{fill:url(#SVGID_1_);}
	.st4{fill:url(#SVGID_00000137132066261233164800000016730100843614576519_);}
	.st5{fill:url(#SVGID_00000137811635374019381750000002572089184732027011_);}
	.st6{fill:url(#SVGID_00000152265668358425309530000018368361865153003698_);}
	.st7{fill:url(#SVGID_00000111179408461332483890000000876400849556828578_);}
	.st8{fill:url(#SVGID_00000005256571824766099480000003959516069186997695_);}
	.st9{fill:url(#SVGID_00000181074072836799587130000011744777283744958132_);}
	.st10{fill:url(#SVGID_00000099648693744453936660000008045768709156481718_);}
	.st11{fill:url(#SVGID_00000116209318169411093110000005467651426889372852_);}
	.st12{fill:url(#SVGID_00000101799821206549220330000006678844727362963894_);}
	.st13{fill:none;stroke:#162D54;stroke-width:5;stroke-miterlimit:10;}
</style>
<path class="st0" d="M696.5,460.2h-45.8c-12.1,0-21.1-2.4-27-7.3c-5.9-4.8-8.8-12.3-8.8-22.4v-45.4c0-10.1,2.9-17.5,8.8-22.4
	c5.9-4.8,14.9-7.3,27-7.3H687c1.8,0,3.2,0.4,4,1.2c0.8,0.8,1.2,2.2,1.2,4v17.6c0,1.8-0.4,3.2-1.2,4c-0.8,0.8-2.2,1.2-4,1.2h-30.2
	c-3,0-5.2,0.6-6.7,1.8c-1.5,1.2-2.2,3-2.2,5.5v34.7c0,2.4,0.6,4.2,1.7,5.4c1.1,1.2,2.8,1.7,5,1.7h14.1v-22.7c0-1.8,0.4-3.2,1.2-4
	c0.8-0.8,2.2-1.2,4-1.2h22.5c1.8,0,3.2,0.4,4,1.2c0.8,0.8,1.2,2.2,1.2,4V455c0,1.8-0.4,3.2-1.2,4
	C699.6,459.8,698.3,460.2,696.5,460.2z"/>
<path class="st0" d="M745.5,455c0,1.8-0.4,3.2-1.2,4c-0.8,0.8-2.2,1.2-4,1.2h-21.4c-1.8,0-3.2-0.4-4-1.2c-0.8-0.8-1.2-2.2-1.2-4
	v-38.4c0-2.9,0.5-6.3,1.4-10c0.9-3.8,2.3-8.2,4.3-13.2l12.6-33c0.6-1.6,1.5-2.9,2.7-3.6c1.2-0.8,2.8-1.2,4.7-1.2h39.1
	c1.8,0,3.4,0.4,4.6,1.2c1.2,0.8,2.1,2,2.7,3.6l12.6,33c1.9,5,3.4,9.5,4.3,13.2c0.9,3.8,1.4,7.1,1.4,10V455c0,1.8-0.4,3.2-1.2,4
	c-0.8,0.8-2.2,1.2-4,1.2h-22c-1.9,0-3.4-0.4-4.3-1.2c-0.9-0.8-1.4-2.2-1.4-4v-20.4h-25.7V455z M753.7,386.1l-6.8,22.1h22.8
	l-6.8-22.1c-0.4-0.9-0.8-1.5-1.2-1.9c-0.4-0.4-0.9-0.6-1.5-0.6h-3.6c-0.6,0-1.1,0.2-1.5,0.6C754.5,384.6,754.1,385.2,753.7,386.1z"
	/>
<path class="st0" d="M845.2,460.2h-21.7c-1.8,0-3.2-0.4-4-1.2c-0.8-0.8-1.2-2.2-1.2-4v-94.2c0-1.8,0.4-3.2,1.2-4
	c0.8-0.8,2.2-1.2,4-1.2h23.4c1.5,0,2.8,0.3,3.9,1c1,0.7,2,1.8,2.8,3.3l13.1,23.7c0.5,0.9,0.9,1.5,1.2,1.9c0.3,0.4,0.8,0.6,1.4,0.6
	h1.3c0.6,0,1-0.2,1.4-0.6c0.3-0.4,0.7-1,1.2-1.9l12.9-23.7c0.9-1.5,1.8-2.7,2.8-3.3c1-0.7,2.3-1,3.9-1h23.6c1.8,0,3.2,0.4,4,1.2
	c0.8,0.8,1.2,2.2,1.2,4V455c0,1.8-0.4,3.2-1.2,4c-0.8,0.8-2.2,1.2-4,1.2H894c-1.8,0-3.2-0.4-4-1.2c-0.8-0.8-1.2-2.2-1.2-4v-51.2
	l-8.6,15.8c-0.9,1.6-1.9,2.8-3.1,3.6c-1.2,0.7-2.7,1.1-4.6,1.1h-5.8c-1.8,0-3.4-0.4-4.6-1.1c-1.2-0.7-2.3-1.9-3.1-3.6l-8.6-15.8V455
	c0,1.8-0.4,3.2-1.2,4C848.4,459.8,847,460.2,845.2,460.2z"/>
<path class="st0" d="M1010.8,460.2h-67.5c-1.8,0-3.2-0.4-4-1.2c-0.8-0.8-1.2-2.2-1.2-4v-94.2c0-1.8,0.4-3.2,1.2-4
	c0.8-0.8,2.2-1.2,4-1.2h67.5c1.8,0,3.2,0.4,4,1.2c0.8,0.8,1.2,2.2,1.2,4v17c0,1.8-0.4,3.2-1.2,4c-0.8,0.8-2.2,1.2-4,1.2h-40.1v11.2
	H999c1.8,0,3.2,0.4,4,1.2c0.8,0.8,1.2,2.2,1.2,4V415c0,1.8-0.4,3.2-1.2,4c-0.8,0.8-2.2,1.2-4,1.2h-28.3v12.5h40.1
	c1.8,0,3.2,0.4,4,1.2c0.8,0.8,1.2,2.2,1.2,4v17c0,1.8-0.4,3.2-1.2,4C1014,459.8,1012.6,460.2,1010.8,460.2z"/>
<path class="st1" d="M1106.1,440.4c0,3.3-0.5,6.3-1.5,9c-1,2.7-2.7,5-5.2,6.9c-2.5,1.9-5.9,3.4-10.2,4.5c-4.3,1.1-9.9,1.6-16.5,1.6
	c-6.7,0-12.2-0.5-16.6-1.6c-4.4-1.1-7.8-2.6-10.3-4.5c-2.5-1.9-4.2-4.2-5.2-6.9s-1.5-5.7-1.5-9v-36.8c0-3.3,0.5-6.3,1.5-9
	s2.7-5,5.2-7c2.5-1.9,5.9-3.4,10.3-4.5c4.4-1.1,9.9-1.6,16.6-1.6c6.7,0,12.2,0.5,16.5,1.6c4.3,1.1,7.8,2.6,10.2,4.5
	c2.5,1.9,4.2,4.3,5.2,7c1,2.7,1.5,5.7,1.5,9V440.4z M1063.6,436.5c0,1.4,0.5,2.6,1.6,3.6c1.1,1,3.6,1.5,7.4,1.5
	c3.9,0,6.4-0.5,7.4-1.5c1.1-1,1.6-2.2,1.6-3.6v-29c0-1.4-0.5-2.5-1.6-3.5c-1.1-1-3.6-1.5-7.4-1.5c-3.9,0-6.4,0.5-7.4,1.5
	c-1.1,1-1.6,2.1-1.6,3.5V436.5z"/>
<path class="st1" d="M1137.1,460.8h-16.2c-1.4,0-2.4-0.3-3-0.9c-0.6-0.6-0.9-1.6-0.9-3v-69.8c0-1.4,0.3-2.4,0.9-3
	c0.6-0.6,1.6-0.9,3-0.9h11.2c1.4,0,2.5,0.2,3.5,0.6c1,0.4,1.9,1.2,2.9,2.3l20.9,23.9v-23c0-1.4,0.3-2.4,0.9-3c0.6-0.6,1.6-0.9,3-0.9
	h16.2c1.4,0,2.4,0.3,3,0.9c0.6,0.6,0.9,1.6,0.9,3v69.8c0,1.4-0.3,2.4-0.9,3c-0.6,0.6-1.6,0.9-3,0.9h-16.2c-1.4,0-2.4-0.3-3-0.9
	c-0.6-0.6-0.9-1.6-0.9-3v-13.3l-18.4-22.3v35.6c0,1.4-0.3,2.4-0.9,3C1139.5,460.5,1138.5,460.8,1137.1,460.8z"/>
<path class="st2" d="M686.1,582.2h-35.5c-12.1,0-21.1-2.4-27-7.3c-5.9-4.8-8.8-12.3-8.8-22.4v-45.2c0-10.1,2.9-17.6,8.8-22.5
	c5.9-4.9,14.9-7.3,27-7.3h35.5c1.8,0,3.2,0.4,4,1.2c0.8,0.8,1.2,2.2,1.2,4v17.6c0,1.8-0.4,3.2-1.2,4c-0.8,0.8-2.2,1.2-4,1.2h-29.2
	c-3,0-5.2,0.6-6.7,1.8c-1.5,1.2-2.2,3-2.2,5.5v34.6c0,2.4,0.7,4.2,2.2,5.3c1.5,1.1,3.7,1.7,6.7,1.7h29.2c1.8,0,3.2,0.4,4,1.2
	c0.8,0.8,1.2,2.2,1.2,4V577c0,1.8-0.4,3.2-1.2,4C689.3,581.8,688,582.2,686.1,582.2z"/>
<path class="st2" d="M733.8,577c0,1.8-0.4,3.2-1.2,4c-0.8,0.8-2.2,1.2-4,1.2h-21.4c-1.8,0-3.2-0.4-4-1.2c-0.8-0.8-1.2-2.2-1.2-4
	v-38.4c0-2.9,0.5-6.3,1.4-10c0.9-3.8,2.3-8.2,4.3-13.2l12.6-33c0.6-1.6,1.5-2.9,2.7-3.6c1.2-0.8,2.8-1.2,4.7-1.2h39.1
	c1.8,0,3.4,0.4,4.6,1.2c1.2,0.8,2.1,2,2.7,3.6l12.6,33c1.9,5,3.4,9.5,4.3,13.2c0.9,3.8,1.4,7.1,1.4,10V577c0,1.8-0.4,3.2-1.2,4
	c-0.8,0.8-2.2,1.2-4,1.2h-22c-1.9,0-3.4-0.4-4.3-1.2c-0.9-0.8-1.4-2.2-1.4-4v-20.4h-25.7V577z M742.1,508.1l-6.8,22.1h22.8
	l-6.8-22.1c-0.4-0.9-0.8-1.5-1.2-1.9c-0.4-0.4-0.9-0.6-1.5-0.6h-3.6c-0.6,0-1.1,0.2-1.5,0.6C742.9,506.6,742.5,507.2,742.1,508.1z"
	/>
<path class="st2" d="M833.7,582.2h-21.8c-1.8,0-3.2-0.4-4-1.2c-0.8-0.8-1.2-2.2-1.2-4v-94.2c0-1.8,0.4-3.2,1.2-4
	c0.8-0.8,2.2-1.2,4-1.2H827c1.8,0,3.4,0.3,4.7,0.9c1.3,0.6,2.6,1.6,3.9,3.1l28.2,32.3v-31c0-1.8,0.4-3.2,1.2-4
	c0.8-0.8,2.2-1.2,4-1.2h21.8c1.8,0,3.2,0.4,4,1.2c0.8,0.8,1.2,2.2,1.2,4V577c0,1.8-0.4,3.2-1.2,4c-0.8,0.8-2.2,1.2-4,1.2H869
	c-1.8,0-3.2-0.4-4-1.2c-0.8-0.8-1.2-2.2-1.2-4v-17.9L838.9,529v48c0,1.8-0.4,3.2-1.2,4C836.9,581.8,835.5,582.2,833.7,582.2z"/>
<path class="st2" d="M982.1,582.2h-35.5c-12.1,0-21.1-2.4-27-7.3c-5.9-4.8-8.8-12.3-8.8-22.4v-45.2c0-10.1,2.9-17.6,8.8-22.5
	c5.9-4.9,14.9-7.3,27-7.3h35.5c1.8,0,3.2,0.4,4,1.2c0.8,0.8,1.2,2.2,1.2,4v17.6c0,1.8-0.4,3.2-1.2,4c-0.8,0.8-2.2,1.2-4,1.2h-29.2
	c-3,0-5.2,0.6-6.7,1.8c-1.5,1.2-2.2,3-2.2,5.5v34.6c0,2.4,0.7,4.2,2.2,5.3c1.5,1.1,3.7,1.7,6.7,1.7h29.2c1.8,0,3.2,0.4,4,1.2
	c0.8,0.8,1.2,2.2,1.2,4V577c0,1.8-0.4,3.2-1.2,4C985.3,581.8,984,582.2,982.1,582.2z"/>
<path class="st2" d="M1072.9,582.2h-67.5c-1.8,0-3.2-0.4-4-1.2c-0.8-0.8-1.2-2.2-1.2-4v-94.2c0-1.8,0.4-3.2,1.2-4
	c0.8-0.8,2.2-1.2,4-1.2h67.5c1.8,0,3.2,0.4,4,1.2c0.8,0.8,1.2,2.2,1.2,4v17c0,1.8-0.4,3.2-1.2,4c-0.8,0.8-2.2,1.2-4,1.2h-40.1v11.2
	h28.3c1.8,0,3.2,0.4,4,1.2c0.8,0.8,1.2,2.2,1.2,4V537c0,1.8-0.4,3.2-1.2,4c-0.8,0.8-2.2,1.2-4,1.2h-28.3v12.5h40.1
	c1.8,0,3.2,0.4,4,1.2c0.8,0.8,1.2,2.2,1.2,4v17c0,1.8-0.4,3.2-1.2,4C1076,581.8,1074.7,582.2,1072.9,582.2z"/>
<path class="st2" d="M1119.2,582.2h-22.4c-1.8,0-3.2-0.4-4-1.2c-0.8-0.8-1.2-2.2-1.2-4v-94.2c0-1.8,0.4-3.2,1.2-4
	c0.8-0.8,2.2-1.2,4-1.2h48.4c10.9,0,18.3,2.3,22.5,6.8c4.1,4.5,6.2,10.3,6.2,17.5v6.7c0,4.1-0.6,7.5-1.8,10.4
	c-1.2,2.9-3.3,4.9-6.3,6.2c5.2,0.6,9.5,2.7,12.7,6.4c3.2,3.7,4.9,8.6,4.9,14.7V577c0,1.8-0.4,3.2-1.2,4c-0.8,0.8-2.2,1.2-4,1.2
	h-22.5c-1.8,0-3.2-0.4-4-1.2c-0.8-0.8-1.2-2.2-1.2-4v-22.2c0-2.1-0.4-3.7-1.2-4.7c-0.8-1-2.3-1.5-4.3-1.5h-20.4V577
	c0,1.8-0.4,3.2-1.2,4C1122.4,581.8,1121.1,582.2,1119.2,582.2z M1124.5,503.7v18.6h10.9c2.5,0,4.2-0.7,5.1-2
	c0.9-1.3,1.3-2.9,1.3-4.9v-4.9c0-1.9-0.4-3.6-1.3-4.9c-0.9-1.3-2.6-2-5.1-2H1124.5z"/>
<g>
	<linearGradient id="SVGID_1_" gradientUnits="userSpaceOnUse" x1="429.5374" y1="391.0431" x2="429.5374" y2="551.1035">
		<stop  offset="0" style="stop-color:#F16660"/>
		<stop  offset="0.503" style="stop-color:#CDDE00"/>
		<stop  offset="0.7494" style="stop-color:#90278E"/>
		<stop  offset="1" style="stop-color:#162D54"/>
	</linearGradient>
	<path class="st3" d="M461.5,423.7c-2.2,3.2-4.9,6.1-8.3,8.5c-15.7,11.3-37.6,7.9-49-7.7c-11.4-15.6-7.9-37.3,7.8-48.7
		c9.7-7,21.9-8.4,32.4-4.6v0c-2.4,4.9-3.9,10.3-4.1,16.2v0c-5.9-2.7-13-2.2-18.6,1.8c-8.2,5.9-10.1,17.4-4.1,25.6
		c6,8.2,17.5,10,25.8,4.1c2.2-1.6,3.9-3.6,5.2-5.9h0C452.1,417.4,456.5,421,461.5,423.7L461.5,423.7z"/>
	
		<linearGradient id="SVGID_00000035523368631827806780000010943236747042144686_" gradientUnits="userSpaceOnUse" x1="403.2526" y1="391.0431" x2="403.2526" y2="551.1035">
		<stop  offset="0" style="stop-color:#F16660"/>
		<stop  offset="0.503" style="stop-color:#CDDE00"/>
		<stop  offset="0.7494" style="stop-color:#90278E"/>
		<stop  offset="1" style="stop-color:#162D54"/>
	</linearGradient>
	<path style="fill:url(#SVGID_00000035523368631827806780000010943236747042144686_);" d="M438.3,443.2c0.1,3.8-0.4,7.8-1.7,11.7
		c-6,18.3-25.8,28.3-44.2,22.4c-18.4-5.9-28.5-25.6-22.5-43.9c3.7-11.4,12.8-19.5,23.5-22.7l0,0c0.9,5.4,3,10.6,6.3,15.4h0
		c-6.3,1.3-11.8,5.8-14,12.3c-3.1,9.6,2.2,20,11.8,23.1c9.7,3.1,20.1-2.1,23.2-11.8c0.8-2.6,1.1-5.2,0.8-7.8l0,0
		C427,443.6,432.7,444,438.3,443.2L438.3,443.2z"/>
	
		<linearGradient id="SVGID_00000122719968766667193040000004887882268003409855_" gradientUnits="userSpaceOnUse" x1="403.2632" y1="391.0431" x2="403.2632" y2="551.1035">
		<stop  offset="0" style="stop-color:#F16660"/>
		<stop  offset="0.503" style="stop-color:#CDDE00"/>
		<stop  offset="0.7494" style="stop-color:#90278E"/>
		<stop  offset="1" style="stop-color:#162D54"/>
	</linearGradient>
	<path style="fill:url(#SVGID_00000122719968766667193040000004887882268003409855_);" d="M431,472.5c2.4,3.1,4.3,6.5,5.6,10.4
		c6,18.3-4.1,38-22.5,43.9c-18.4,6-38.2-4.1-44.2-22.4c-3.7-11.4-1.2-23.3,5.6-32.1h0c3.9,3.8,8.7,6.9,14.2,8.8l0,0
		c-4.4,4.7-6.1,11.6-4,18.1c3.1,9.6,13.5,14.9,23.2,11.8c9.7-3.1,15-13.5,11.9-23.1c-0.9-2.6-2.2-4.8-4-6.7l0,0
		C422.1,479.4,427,476.4,431,472.5L431,472.5z"/>
	
		<linearGradient id="SVGID_00000127008173864953172040000007926165036144196011_" gradientUnits="userSpaceOnUse" x1="432.6013" y1="391.0431" x2="432.6013" y2="551.1035">
		<stop  offset="0" style="stop-color:#F16660"/>
		<stop  offset="0.503" style="stop-color:#CDDE00"/>
		<stop  offset="0.7494" style="stop-color:#90278E"/>
		<stop  offset="1" style="stop-color:#162D54"/>
	</linearGradient>
	<path style="fill:url(#SVGID_00000127008173864953172040000007926165036144196011_);" d="M442.5,500.5c3.7,1.1,7.3,2.8,10.7,5.2
		c15.7,11.3,19.1,33.1,7.8,48.7c-11.4,15.6-33.3,19-49,7.7c-9.7-7-14.8-18.1-14.4-29.2h0c5.5,0.8,11.1,0.5,16.7-1.1l0,0
		c-0.8,6.4,1.9,12.9,7.5,17c8.2,5.9,19.8,4.1,25.8-4.1c6-8.2,4.2-19.6-4.1-25.6c-2.2-1.6-4.7-2.6-7.2-3.1l0,0
		C439.4,511.3,441.6,506,442.5,500.5L442.5,500.5z"/>
	
		<linearGradient id="SVGID_00000033338932993366013170000010256171869791005580_" gradientUnits="userSpaceOnUse" x1="483.1354" y1="391.0431" x2="483.1354" y2="551.1035">
		<stop  offset="0" style="stop-color:#F16660"/>
		<stop  offset="0.503" style="stop-color:#CDDE00"/>
		<stop  offset="0.7494" style="stop-color:#90278E"/>
		<stop  offset="1" style="stop-color:#162D54"/>
	</linearGradient>
	<path style="fill:url(#SVGID_00000033338932993366013170000010256171869791005580_);" d="M468.4,516.4c3.7-1.3,7.6-2,11.7-2
		c19.4,0,35.1,15.6,35.1,34.8c0,19.2-15.7,34.8-35.1,34.8c-12,0-22.6-6-28.9-15.2l0,0c4.9-2.5,9.2-6.1,12.9-10.7v0
		c3.2,5.6,9.2,9.4,16.1,9.4c10.2,0,18.4-8.2,18.4-18.3c0-10.1-8.3-18.3-18.4-18.3c-2.8,0-5.3,0.6-7.7,1.7v0
		C472.2,527,470.9,521.4,468.4,516.4L468.4,516.4z"/>
	
		<linearGradient id="SVGID_00000161607266929364638460000006500557793986717322_" gradientUnits="userSpaceOnUse" x1="530.6614" y1="391.0431" x2="530.6614" y2="551.1035">
		<stop  offset="0" style="stop-color:#F16660"/>
		<stop  offset="0.503" style="stop-color:#CDDE00"/>
		<stop  offset="0.7494" style="stop-color:#90278E"/>
		<stop  offset="1" style="stop-color:#162D54"/>
	</linearGradient>
	<path style="fill:url(#SVGID_00000161607266929364638460000006500557793986717322_);" d="M498.7,514.1c2.2-3.2,5-6.1,8.3-8.5
		c15.7-11.3,37.6-7.9,49,7.7c11.4,15.6,7.9,37.4-7.8,48.7c-9.7,7-21.9,8.3-32.4,4.6v0c2.4-4.9,3.9-10.3,4.1-16.1l0,0
		c5.9,2.7,13,2.2,18.6-1.8c8.2-6,10.1-17.4,4.1-25.6c-6-8.2-17.5-10-25.7-4c-2.2,1.6-3.9,3.6-5.2,5.8l0,0
		C508.1,520.5,503.7,516.8,498.7,514.1L498.7,514.1z"/>
	
		<linearGradient id="SVGID_00000174582064807095558200000012526300817038257811_" gradientUnits="userSpaceOnUse" x1="556.9476" y1="391.0431" x2="556.9476" y2="551.1035">
		<stop  offset="0" style="stop-color:#F16660"/>
		<stop  offset="0.503" style="stop-color:#CDDE00"/>
		<stop  offset="0.7494" style="stop-color:#90278E"/>
		<stop  offset="1" style="stop-color:#162D54"/>
	</linearGradient>
	<path style="fill:url(#SVGID_00000174582064807095558200000012526300817038257811_);" d="M521.9,494.6c-0.1-3.9,0.4-7.8,1.7-11.7
		c6-18.3,25.8-28.3,44.2-22.4c18.4,5.9,28.5,25.6,22.5,43.9c-3.7,11.4-12.8,19.6-23.5,22.7v0c-0.9-5.4-3-10.6-6.3-15.4h0
		c6.4-1.3,11.8-5.8,14-12.3c3.1-9.6-2.2-19.9-11.8-23.1c-9.7-3.1-20.1,2.1-23.2,11.7c-0.9,2.6-1.1,5.2-0.8,7.8h0
		C533.2,494.3,527.5,493.8,521.9,494.6L521.9,494.6z"/>
	
		<linearGradient id="SVGID_00000132047980642431032690000010956664327855244178_" gradientUnits="userSpaceOnUse" x1="556.9359" y1="391.0431" x2="556.9359" y2="551.1035">
		<stop  offset="0" style="stop-color:#F16660"/>
		<stop  offset="0.503" style="stop-color:#CDDE00"/>
		<stop  offset="0.7494" style="stop-color:#90278E"/>
		<stop  offset="1" style="stop-color:#162D54"/>
	</linearGradient>
	<path style="fill:url(#SVGID_00000132047980642431032690000010956664327855244178_);" d="M529.1,465.3c-2.4-3.1-4.3-6.6-5.6-10.4
		c-6-18.3,4.1-37.9,22.5-43.9c18.4-5.9,38.2,4.1,44.2,22.4c3.7,11.4,1.2,23.3-5.6,32.1l0,0c-3.9-3.8-8.7-6.9-14.2-8.8l0,0
		c4.4-4.7,6.1-11.6,4-18.1c-3.1-9.6-13.5-14.9-23.2-11.8c-9.7,3.1-15,13.5-11.8,23.1c0.8,2.6,2.2,4.8,4,6.7l0,0
		C538.1,458.4,533.2,461.4,529.1,465.3L529.1,465.3z"/>
	
		<linearGradient id="SVGID_00000119106128940648654510000014398933030583700143_" gradientUnits="userSpaceOnUse" x1="527.5934" y1="391.0431" x2="527.5934" y2="551.1035">
		<stop  offset="0" style="stop-color:#F16660"/>
		<stop  offset="0.503" style="stop-color:#CDDE00"/>
		<stop  offset="0.7494" style="stop-color:#90278E"/>
		<stop  offset="1" style="stop-color:#162D54"/>
	</linearGradient>
	<path style="fill:url(#SVGID_00000119106128940648654510000014398933030583700143_);" d="M517.7,437.4c-3.7-1.1-7.3-2.8-10.7-5.2
		c-15.7-11.3-19.1-33.1-7.8-48.7c11.4-15.6,33.3-19,49-7.7c9.7,7,14.7,18.1,14.4,29.2l0,0c-5.4-0.8-11.1-0.5-16.7,1.1v0
		c0.8-6.4-1.9-12.9-7.5-17c-8.2-6-19.8-4.1-25.8,4.1c-6,8.2-4.2,19.6,4.1,25.6c2.2,1.6,4.7,2.6,7.2,3.1l0,0
		C520.8,426.5,518.6,431.8,517.7,437.4L517.7,437.4z"/>
	
		<linearGradient id="SVGID_00000037686295813966357280000011923008137738286997_" gradientUnits="userSpaceOnUse" x1="477.0565" y1="391.0431" x2="477.0565" y2="551.1035">
		<stop  offset="0" style="stop-color:#F16660"/>
		<stop  offset="0.503" style="stop-color:#CDDE00"/>
		<stop  offset="0.7494" style="stop-color:#90278E"/>
		<stop  offset="1" style="stop-color:#162D54"/>
	</linearGradient>
	<path style="fill:url(#SVGID_00000037686295813966357280000011923008137738286997_);" d="M491.8,421.5c-3.7,1.3-7.6,2-11.7,2
		c-19.4,0-35.1-15.6-35.1-34.8c0-19.2,15.7-34.8,35.1-34.8c12,0,22.6,6,28.9,15.2c-4.9,2.5-9.3,6.1-12.8,10.7v0
		c-3.2-5.6-9.2-9.4-16.1-9.4c-10.2,0-18.5,8.2-18.5,18.3c0,10.1,8.3,18.3,18.5,18.3c2.7,0,5.3-0.6,7.7-1.7v0
		C488,410.9,489.3,416.4,491.8,421.5L491.8,421.5z"/>
</g>
<circle class="st13" cx="1198" cy="494.7" r="13.5"/>
<path class="st2" d="M1196,500.9h-2.8c-0.2,0-0.4-0.1-0.5-0.2c-0.1-0.1-0.2-0.3-0.2-0.5v-11.9c0-0.2,0.1-0.4,0.2-0.5
	c0.1-0.1,0.3-0.2,0.5-0.2h6.1c1.4,0,2.3,0.3,2.8,0.9c0.5,0.6,0.8,1.3,0.8,2.2v0.8c0,0.5-0.1,1-0.2,1.3c-0.2,0.4-0.4,0.6-0.8,0.8
	c0.7,0.1,1.2,0.3,1.6,0.8c0.4,0.5,0.6,1.1,0.6,1.9v3.9c0,0.2-0.1,0.4-0.2,0.5c-0.1,0.1-0.3,0.2-0.5,0.2h-2.9c-0.2,0-0.4-0.1-0.5-0.2
	c-0.1-0.1-0.2-0.3-0.2-0.5v-2.8c0-0.3-0.1-0.5-0.2-0.6c-0.1-0.1-0.3-0.2-0.5-0.2h-2.6v3.6c0,0.2-0.1,0.4-0.2,0.5
	C1196.4,500.9,1196.2,500.9,1196,500.9z M1196.7,491v2.4h1.4c0.3,0,0.5-0.1,0.6-0.2c0.1-0.2,0.2-0.4,0.2-0.6v-0.6
	c0-0.2-0.1-0.5-0.2-0.6c-0.1-0.2-0.3-0.2-0.6-0.2H1196.7z"/>
<circle class="st13" cx="1198" cy="494.7" r="13.5"/>
<path class="st2" d="M1196,500.9h-2.8c-0.2,0-0.4-0.1-0.5-0.2c-0.1-0.1-0.2-0.3-0.2-0.5v-11.9c0-0.2,0.1-0.4,0.2-0.5
	c0.1-0.1,0.3-0.2,0.5-0.2h6.1c1.4,0,2.3,0.3,2.8,0.9c0.5,0.6,0.8,1.3,0.8,2.2v0.8c0,0.5-0.1,1-0.2,1.3c-0.2,0.4-0.4,0.6-0.8,0.8
	c0.7,0.1,1.2,0.3,1.6,0.8c0.4,0.5,0.6,1.1,0.6,1.9v3.9c0,0.2-0.1,0.4-0.2,0.5c-0.1,0.1-0.3,0.2-0.5,0.2h-2.9c-0.2,0-0.4-0.1-0.5-0.2
	c-0.1-0.1-0.2-0.3-0.2-0.5v-2.8c0-0.3-0.1-0.5-0.2-0.6c-0.1-0.1-0.3-0.2-0.5-0.2h-2.6v3.6c0,0.2-0.1,0.4-0.2,0.5
	C1196.4,500.9,1196.2,500.9,1196,500.9z M1196.7,491v2.4h1.4c0.3,0,0.5-0.1,0.6-0.2c0.1-0.2,0.2-0.4,0.2-0.6v-0.6
	c0-0.2-0.1-0.5-0.2-0.6c-0.1-0.2-0.3-0.2-0.6-0.2H1196.7z"/>
</svg>
