<svg width="282" height="185" viewBox="0 0 282 185" fill="none" xmlns="http://www.w3.org/2000/svg">
<path d="M89.4109 43.7463L89.2578 43.6698C88.5434 43.4827 87.7865 43.3636 86.987 43.3126C86.1875 43.2615 85.3711 43.151 84.5376 42.9809C85.354 43.151 86.1535 43.2871 86.936 43.3891C87.7184 43.4742 88.4924 43.6443 89.2578 43.8994C89.0197 44.0525 88.7645 44.1291 88.4924 44.1291C88.1692 44.095 87.846 44.044 87.5228 43.976C87.2166 43.9079 86.8849 43.8569 86.5277 43.8229C86.5277 43.7208 86.5532 43.6443 86.6043 43.5932C86.111 43.5932 85.6177 43.5422 85.1244 43.4402C84.6481 43.3381 84.1804 43.2275 83.7211 43.1085C83.2618 42.9724 82.8111 42.8533 82.3688 42.7512C81.9435 42.6322 81.5438 42.5726 81.1696 42.5726C81.1696 42.6237 81.1611 42.6492 81.1441 42.6492C81.5863 42.7342 82.0031 42.8533 82.3943 43.0064C82.7855 43.1595 83.2278 43.2786 83.7211 43.3636C84.1974 43.4827 84.6566 43.5677 85.0989 43.6188C85.5582 43.6698 86.0089 43.7378 86.4512 43.8229C85.7368 43.7548 85.0053 43.6528 84.2569 43.5167C83.5255 43.3806 82.8025 43.2275 82.0881 43.0574L80.8889 42.7512C80.4637 43.8399 80.0299 44.9115 79.5877 45.9661C79.1624 47.0037 78.7457 48.0584 78.3374 49.13C78.3034 49.062 78.2439 49.0194 78.1588 49.0024C78.0908 49.0024 78.0142 49.0024 77.9292 49.0024C77.8611 49.0024 77.7931 48.9769 77.7251 48.9259C77.657 48.8919 77.623 48.8068 77.623 48.6707C77.623 48.5346 77.657 48.339 77.7251 48.0839C77.7931 47.8457 77.9207 47.5225 78.1078 47.1143C78.0738 47.0803 78.0142 47.0633 77.9292 47.0633C77.8611 47.0463 77.8101 47.0378 77.7761 47.0378C77.4359 47.7522 77.1042 48.2965 76.781 48.6707C76.4748 49.062 76.2282 49.2576 76.0411 49.2576C75.837 49.2576 75.7349 49.062 75.7349 48.6707C75.7349 48.3475 75.7944 47.9393 75.9135 47.446C76.0326 46.9357 76.1772 46.3914 76.3473 45.813C76.5344 45.2347 76.7385 44.6394 76.9596 44.027C77.1807 43.3976 77.3934 42.7853 77.5975 42.1899C77.4104 42.0708 77.2063 41.9858 76.9851 41.9348C76.781 41.8837 76.5514 41.8412 76.2962 41.8072C76.3473 41.7392 76.3728 41.6541 76.3728 41.552C76.3728 41.45 76.3813 41.3479 76.3983 41.2459C76.4153 41.1438 76.4493 41.0588 76.5003 40.9907C76.5514 40.9227 76.6449 40.8887 76.781 40.8887C76.815 40.8887 76.9171 40.9057 77.0872 40.9397V40.71C76.815 40.574 76.6024 40.4124 76.4493 40.2253C76.3132 40.0382 76.2452 39.851 76.2452 39.6639C76.2452 39.2557 76.6364 39.0516 77.4189 39.0516C77.64 39.0516 77.8611 39.0686 78.0823 39.1026C78.3204 39.1196 78.5586 39.1451 78.7967 39.1791L79.9704 36.5001C80.2255 35.9217 80.4977 35.3264 80.7869 34.714C81.093 34.1017 81.4503 33.4978 81.8585 32.9025C82.2667 32.3071 82.726 31.7458 83.2363 31.2185C83.7636 30.6742 84.3675 30.1894 85.0479 29.7641L85.4306 29.611C85.9069 29.7301 86.2896 29.8322 86.5788 29.9172C86.8849 29.9852 87.1316 30.0363 87.3187 30.0703C87.4888 30.1383 87.6249 30.1809 87.7269 30.1979H87.7014L87.7269 30.2744C87.7269 30.2914 87.7184 30.3084 87.7014 30.3254L88.0076 30.8613C89.1133 32.7153 90.0488 34.6375 90.8143 36.6276C91.5797 38.6178 92.2346 40.574 92.7789 42.4961C92.915 42.9213 93.0766 43.3806 93.2637 43.8739C93.4678 44.3502 93.6549 44.8095 93.825 45.2517C94.0121 45.677 94.1652 46.0682 94.2843 46.4254C94.4034 46.7656 94.4629 47.0122 94.4629 47.1653C94.4629 47.2844 94.4374 47.361 94.3864 47.395C94.3353 47.412 94.2673 47.4205 94.1822 47.4205C93.74 46.3148 93.3232 45.2262 92.932 44.1546C92.5408 43.1 92.158 42.0368 91.7838 40.9652C92.124 42.0368 92.4812 43.1 92.8555 44.1546C93.2467 45.2262 93.6379 46.3148 94.0291 47.4205H93.8505C93.7485 47.4205 93.6804 47.4715 93.6464 47.5736C93.6804 47.6076 93.723 47.7012 93.774 47.8542C93.825 47.9903 93.8761 48.1349 93.9271 48.288C93.9781 48.4581 94.0206 48.6282 94.0547 48.7983C94.0887 48.9684 94.1057 49.096 94.1057 49.181C94.1057 49.5552 93.9951 49.7424 93.774 49.7424C93.6549 49.7424 93.5614 49.7168 93.4933 49.6658C93.4253 49.6148 93.3487 49.5467 93.2637 49.4617L93.0085 49.2065C92.9065 49.1045 92.7789 49.0024 92.6258 48.9004L90.1764 41.8582C90.5336 42.9639 90.8823 44.0695 91.2225 45.1752C91.5797 46.2808 91.9454 47.3695 92.3196 48.4411C92.0475 48.1179 91.7923 47.7267 91.5542 47.2674C91.3331 46.8081 91.1204 46.3233 90.9163 45.813C90.7292 45.3027 90.5506 44.7839 90.3805 44.2566C90.2104 43.7123 90.0403 43.202 89.8702 42.7257C89.8702 42.7598 89.8702 42.7938 89.8702 42.8278C89.8872 42.8448 89.8957 42.8703 89.8957 42.9043C89.8957 43.1765 89.8107 43.3806 89.6406 43.5167L89.4109 43.7463ZM89.2578 41.0928C89.2919 41.0928 89.3429 41.0843 89.4109 41.0673C89.479 41.0332 89.53 41.0162 89.564 41.0162C89.0027 39.6044 88.4414 38.2351 87.88 36.9083C87.3357 35.5815 86.7319 34.3058 86.0685 33.0811L85.9154 33.2342L86.2981 33.9231C86.8934 35.0117 87.4293 36.1344 87.9055 37.291C88.3818 38.4477 88.8326 39.6384 89.2578 40.8631C88.7645 39.5364 88.2287 38.2181 87.6504 36.9083C87.0891 35.5815 86.4852 34.3823 85.8388 33.3107L85.7368 33.3617C85.1584 33.9571 84.6141 34.6715 84.1038 35.505C83.6105 36.3385 83.1427 37.189 82.7005 38.0565L82.0371 39.6639L82.4709 39.766C82.726 39.834 82.9726 39.9106 83.2108 39.9956C83.4659 40.0637 83.6871 40.1402 83.8742 40.2253C84.2484 40.4124 84.7417 40.557 85.354 40.659C85.9664 40.7611 86.5618 40.8631 87.1401 40.9652C87.7354 41.0502 88.2457 41.1523 88.671 41.2714C89.1133 41.3734 89.3344 41.5265 89.3344 41.7306L86.2216 41.3734C86.4087 41.4075 86.6383 41.45 86.9105 41.501C87.1826 41.535 87.4548 41.5776 87.7269 41.6286C88.0161 41.6796 88.2968 41.7306 88.5689 41.7817C88.8411 41.8157 89.0707 41.8497 89.2578 41.8837C89.2578 41.9348 89.2493 41.9858 89.2323 42.0368C89.2323 42.0708 89.2323 42.1049 89.2323 42.1389C89.2323 42.1729 89.2493 42.1984 89.2834 42.2154C89.3344 42.2154 89.3854 42.2239 89.4364 42.2409C89.5045 42.2409 89.564 42.258 89.615 42.292C89.6661 42.309 89.7171 42.36 89.7681 42.4451L89.2578 41.0928ZM83.7211 35.6326C83.7551 35.6326 83.7636 35.6581 83.7466 35.7091C83.7466 35.7431 83.7551 35.7601 83.7721 35.7601C83.8061 35.7601 83.9082 35.6411 84.0783 35.4029C84.2484 35.1648 84.444 34.8926 84.6651 34.5864C84.8863 34.2803 85.0989 33.9911 85.303 33.7189C85.5071 33.4468 85.6517 33.2682 85.7368 33.1831L85.6092 33.0045C85.252 33.3447 84.9203 33.7445 84.6141 34.2037C84.3079 34.663 84.0103 35.1393 83.7211 35.6326ZM86.2981 32.8769C86.8424 33.7955 87.3442 34.7565 87.8035 35.7601C88.2457 36.7467 88.6625 37.7333 89.0537 38.7199C88.7305 37.7333 88.3393 36.7467 87.88 35.7601C87.4037 34.7565 86.8849 33.7955 86.3236 32.8769H86.2981ZM90.2019 36.7042C90.7292 38.065 91.248 39.4513 91.7583 40.8631C91.282 39.4853 90.7802 38.1245 90.2529 36.7807C89.7596 35.454 89.1898 34.1187 88.5434 32.7749C89.1558 34.0676 89.7086 35.3774 90.2019 36.7042ZM86.4512 32.3156C86.6723 32.3666 86.8254 32.4177 86.9105 32.4687C86.9955 32.5197 87.055 32.5452 87.0891 32.5452L87.1146 32.4687C87.1316 32.4687 87.0976 32.4602 87.0125 32.4432C86.9275 32.4262 86.8594 32.4092 86.8084 32.3922L86.8594 32.2901L86.5532 32.188L86.4512 32.3156ZM85.201 32.0605L85.4051 32.5963L85.3796 32.0605C85.3455 32.0605 85.303 32.052 85.252 32.0349C85.218 32.0179 85.1839 32.0094 85.1499 32.0094L85.201 32.0605ZM85.8643 32.8004L85.6857 32.928L85.8388 33.1321L85.9919 32.979L85.8643 32.8004ZM86.2216 32.7494H86.2471L86.1195 32.5708V32.5963L86.2216 32.7494ZM109.961 32.3666L109.885 32.8259C109.799 33.6594 109.748 34.5524 109.731 35.505C109.714 36.4405 109.646 37.3846 109.527 38.3372C109.663 37.4016 109.774 36.4831 109.859 35.5815C109.944 34.646 110.029 33.7274 110.114 32.8259C110.199 33.0981 110.267 33.3872 110.318 33.6934C110.386 33.9996 110.42 34.3228 110.42 34.663C110.335 35.5135 110.259 36.33 110.191 37.1124C110.123 37.8949 110.029 38.7114 109.91 39.5619L109.578 39.6384C109.493 40.4209 109.315 41.2714 109.043 42.1899C108.77 43.1085 108.371 43.959 107.843 44.7414C107.333 45.5239 106.67 46.1788 105.853 46.7061C105.037 47.2164 104.059 47.4715 102.919 47.4715C102.545 47.4715 102.145 47.446 101.72 47.395C101.311 47.3269 100.912 47.2334 100.521 47.1143C100.129 46.9782 99.7551 46.8081 99.3979 46.604C99.0406 46.3999 98.7345 46.1447 98.4793 45.8386L98.5048 45.8896V45.9151L98.4793 45.9406L98.4028 45.9151C98.5048 46.0682 98.6154 46.2043 98.7345 46.3233C98.4283 46.0512 98.1476 45.7365 97.8925 45.3793C97.4672 44.8009 97.127 44.112 96.8719 43.3126C96.7188 42.8363 96.5997 42.3515 96.5147 41.8582C96.4296 41.3649 96.3701 40.8461 96.3361 40.3018C96.302 39.7405 96.2765 39.1366 96.2595 38.4902C96.2595 37.8439 96.2595 37.1294 96.2595 36.347C96.4126 35.7346 96.5317 35.1223 96.6167 34.5099C96.7018 33.8975 96.7613 33.2852 96.7953 32.6728C96.8464 32.6728 96.9059 32.6643 96.9739 32.6473C97.042 32.6303 97.11 32.6218 97.178 32.6218C97.2971 32.6218 97.3992 32.6898 97.4842 32.8259C97.5863 32.962 97.6373 33.2512 97.6373 33.6934V33.9231C97.6373 33.9911 97.6288 34.0676 97.6118 34.1527H97.918C98.0541 33.4383 98.2157 32.894 98.4028 32.5197C98.5899 32.1455 98.777 31.9584 98.9641 31.9584C99.1002 31.9584 99.2192 32.154 99.3213 32.5452C99.4404 32.9195 99.4999 33.5148 99.4999 34.3313C99.4999 34.9266 99.4829 35.5305 99.4489 36.1429C99.4149 36.7552 99.3979 37.3846 99.3979 38.031C99.3979 39.0346 99.4404 39.9446 99.5254 40.7611C99.6275 41.5776 99.8146 42.275 100.087 42.8533C100.359 43.4316 100.742 43.8824 101.235 44.2056C101.745 44.5118 102.4 44.6649 103.2 44.6649C103.863 44.6649 104.416 44.4607 104.858 44.0525C105.3 43.6443 105.675 43.1 105.981 42.4196C106.287 41.7392 106.542 40.9567 106.746 40.0722C106.967 39.1706 107.171 38.2351 107.359 37.2655C107.393 36.9934 107.418 36.7212 107.435 36.449C107.452 36.1769 107.461 35.8962 107.461 35.607V34.8161C107.461 34.3228 107.486 33.906 107.537 33.5658C107.588 33.2256 107.733 33.03 107.971 32.979C107.971 33.8465 107.945 34.7055 107.894 35.556C107.86 36.3725 107.792 37.189 107.69 38.0055C107.809 37.206 107.903 36.4065 107.971 35.607C108.039 34.7736 108.09 33.9231 108.124 33.0556C108.226 33.1236 108.311 33.1576 108.379 33.1576C108.447 33.1576 108.515 33.1236 108.583 33.0556V32.137C108.668 31.8308 108.753 31.6182 108.838 31.4991C108.923 31.3631 109.017 31.295 109.119 31.295C109.221 31.295 109.323 31.346 109.425 31.4481C109.527 31.5502 109.629 31.6777 109.731 31.8308L109.961 32.3666ZM99.4234 46.8336C99.8316 47.0548 100.248 47.2334 100.674 47.3695C101.116 47.4885 101.524 47.5736 101.898 47.6246C102.29 47.6756 102.604 47.7012 102.842 47.7012C104.033 47.7012 105.045 47.4375 105.879 46.9102C106.712 46.3829 107.393 45.728 107.92 44.9455C108.464 44.1461 108.881 43.2956 109.17 42.394C109.442 41.5435 109.646 40.7611 109.782 40.0467C109.663 40.7611 109.476 41.552 109.221 42.4196C108.932 43.3381 108.515 44.1971 107.971 44.9966C107.444 45.796 106.772 46.4679 105.955 47.0122C105.139 47.5566 104.152 47.8287 102.995 47.8287C102.349 47.8287 101.711 47.7437 101.082 47.5736C100.452 47.4035 99.8656 47.1398 99.3213 46.7826C99.3553 46.7996 99.3893 46.8166 99.4234 46.8336ZM109.196 40.557C109.247 40.2678 109.289 39.9871 109.323 39.715C109.357 39.4768 109.391 39.2387 109.425 39.0005C109.323 39.749 109.153 40.5399 108.915 41.3734C108.677 42.2409 108.345 43.0659 107.92 43.8484C107.495 44.6138 106.959 45.2942 106.312 45.8896C105.7 46.4509 104.986 46.8336 104.169 47.0378C104.884 46.8847 105.521 46.587 106.083 46.1447C106.661 45.6855 107.154 45.1497 107.563 44.5373C107.971 43.9249 108.303 43.2701 108.558 42.5726C108.83 41.8752 109.043 41.2033 109.196 40.557ZM106.67 42.343C106.483 42.7172 106.27 43.0744 106.032 43.4146C105.811 43.7548 105.555 44.061 105.266 44.3332C105.572 44.078 105.836 43.7804 106.057 43.4402C106.295 43.1 106.5 42.7342 106.67 42.343ZM99.3213 46.7826C99.1172 46.6465 98.9216 46.4934 98.7345 46.3233C98.9216 46.4934 99.1172 46.6465 99.3213 46.7826ZM109.808 39.8681L109.782 40.0467L109.808 39.8681ZM109.451 38.873C109.434 38.924 109.425 38.9665 109.425 39.0005C109.425 38.9665 109.434 38.924 109.451 38.873ZM115.097 43.7974C115.369 43.8824 115.692 44.0355 116.066 44.2566C116.457 44.4778 116.891 44.7074 117.367 44.9455C117.844 45.1837 118.362 45.3963 118.924 45.5834C119.502 45.7705 120.114 45.8641 120.761 45.8641H121.042C121.144 45.8641 121.263 45.8471 121.399 45.813L121.679 46.0172C122.343 45.813 122.887 45.4303 123.312 44.869C123.738 44.2906 123.95 43.5167 123.95 42.5471C123.95 41.8497 123.78 41.3734 123.44 41.1183C123.117 40.8461 122.513 40.71 121.628 40.71C121.084 40.71 120.514 40.7526 119.919 40.8376C119.341 40.9057 118.728 40.9397 118.082 40.9397C117.793 40.9397 117.495 40.9312 117.189 40.9142C116.883 40.8801 116.568 40.8206 116.245 40.7356V40.8887C116.925 41.0588 117.597 41.1438 118.26 41.1438C118.907 41.1438 119.519 41.1098 120.097 41.0417C120.693 40.9567 121.263 40.9142 121.807 40.9142C122.266 40.9142 122.623 40.9652 122.879 41.0673C123.151 41.1523 123.355 41.2714 123.491 41.4245C123.627 41.5776 123.712 41.7647 123.746 41.9858C123.797 42.1899 123.823 42.4196 123.823 42.6747C123.823 43.4742 123.61 44.1546 123.185 44.7159C122.777 45.2432 122.292 45.5749 121.73 45.711C122.36 45.4899 122.853 45.1071 123.21 44.5628C123.585 43.9845 123.772 43.3381 123.772 42.6237C123.772 42.1134 123.636 41.7221 123.363 41.45C123.108 41.1778 122.657 41.0417 122.011 41.0417C121.484 41.0417 120.888 41.0758 120.225 41.1438C119.562 41.2118 118.856 41.2459 118.107 41.2459C117.648 41.2459 117.112 41.1863 116.5 41.0673C115.905 40.9482 115.335 40.7271 114.79 40.4039C114.246 40.0807 113.787 39.6384 113.413 39.0771C113.038 38.4987 112.851 37.7503 112.851 36.8318C112.851 36.1003 112.996 35.4284 113.285 34.8161C113.591 34.1867 113.991 33.6424 114.484 33.1831C114.977 32.7068 115.539 32.3326 116.168 32.0605C116.815 31.7883 117.478 31.6437 118.158 31.6267C118.805 31.6267 119.417 31.7203 119.995 31.9074C120.591 32.0775 121.152 32.3071 121.679 32.5963C122.207 32.8684 122.709 33.1746 123.185 33.5148C123.661 33.855 124.103 34.1952 124.512 34.5354L124.001 35.0457C123.882 35.0457 123.704 34.9777 123.465 34.8416C123.227 34.6885 122.862 34.4334 122.368 34.0761L122.215 34.3058C122.828 34.7991 123.27 35.2583 123.542 35.6836C123.831 36.1088 123.976 36.4405 123.976 36.6787C123.942 36.8148 123.857 36.8828 123.721 36.8828C123.585 36.8828 123.312 36.7722 122.904 36.5511C122.496 36.33 122.028 36.0833 121.501 35.8112C120.991 35.539 120.446 35.2924 119.868 35.0712C119.29 34.8501 118.762 34.7395 118.286 34.7395C118.014 34.7395 117.742 34.7906 117.469 34.8926C117.197 34.9947 116.951 35.1393 116.73 35.3264C116.508 35.4965 116.321 35.7091 116.168 35.9643C116.032 36.2194 115.964 36.5001 115.964 36.8063C115.964 37.2995 116.194 37.6312 116.653 37.8013C117.112 37.9714 117.716 38.0565 118.465 38.0565C118.618 38.0565 118.779 38.0565 118.949 38.0565C119.136 38.0395 119.307 38.014 119.46 37.9799C119.851 37.9799 120.106 37.9714 120.225 37.9544C120.361 37.9204 120.489 37.9034 120.608 37.9034C121.339 37.9034 122.071 37.9544 122.802 38.0565C123.534 38.1585 124.188 38.3797 124.767 38.7199C125.345 39.0601 125.813 39.5449 126.17 40.1742C126.527 40.8036 126.706 41.6456 126.706 42.7002C126.706 43.4316 126.578 44.1631 126.323 44.8945C126.085 45.6089 125.719 46.2553 125.226 46.8336C124.733 47.395 124.12 47.8457 123.389 48.1859C122.657 48.5431 121.798 48.7218 120.812 48.7218C120.217 48.7218 119.511 48.6027 118.694 48.3645C117.895 48.1434 117.129 47.8798 116.398 47.5736C115.683 47.2504 115.071 46.9187 114.561 46.5785C114.067 46.2383 113.821 45.9491 113.821 45.711C113.821 45.6429 113.863 45.5919 113.948 45.5579C114.986 46.3233 116.041 46.9527 117.112 47.446C118.167 47.9053 119.247 48.1604 120.353 48.2115C119.808 48.1774 119.264 48.0839 118.72 47.9308C118.158 47.7607 117.597 47.5566 117.036 47.3184C116.491 47.0633 115.964 46.7826 115.454 46.4764C114.96 46.1532 114.484 45.8301 114.025 45.5069L114.408 45.1752C114.357 45.1582 114.263 45.0986 114.127 44.9966C113.991 44.8945 113.855 44.7669 113.719 44.6138C113.6 44.4607 113.489 44.2992 113.387 44.1291C113.285 43.959 113.234 43.7974 113.234 43.6443C113.234 43.4742 113.268 43.3636 113.336 43.3126C113.404 43.2615 113.481 43.236 113.566 43.236C113.651 43.236 113.829 43.2956 114.101 43.4146C114.374 43.5337 114.705 43.6613 115.097 43.7974ZM120.735 46.3999C120.14 46.3999 119.477 46.2808 118.745 46.0427C118.031 45.7875 117.35 45.4643 116.704 45.0731C117.231 45.4303 117.818 45.7535 118.465 46.0427C119.111 46.3148 119.859 46.4509 120.71 46.4509C121.85 46.4509 122.751 46.1022 123.414 45.4048C124.095 44.7074 124.435 43.7718 124.435 42.5982V42.343C124.35 41.7987 124.163 41.3564 123.874 41.0162C123.602 40.659 123.176 40.4634 122.598 40.4294C122.955 40.4974 123.244 40.608 123.465 40.7611C123.704 40.9142 123.882 41.1013 124.001 41.3224C124.137 41.5265 124.231 41.7562 124.282 42.0113C124.333 42.2665 124.358 42.5301 124.358 42.8023C124.29 43.9249 123.933 44.8095 123.287 45.4558C122.64 46.0852 121.79 46.3999 120.735 46.3999ZM123.976 47.395C124.401 47.1228 124.741 46.7911 124.996 46.3999C125.252 46.0087 125.473 45.6004 125.66 45.1752C125.303 45.8896 124.809 46.519 124.18 47.0633C123.568 47.6076 122.836 47.9478 121.986 48.0839C122.309 48.0328 122.64 47.9648 122.981 47.8798C123.338 47.7777 123.67 47.6161 123.976 47.395ZM126.4 42.5982C126.4 42.411 126.366 42.2324 126.298 42.0623C126.247 41.9263 126.204 41.7817 126.17 41.6286L126.196 41.9603C126.213 42.0964 126.221 42.2835 126.221 42.5216C126.221 42.9809 126.17 43.4231 126.068 43.8484C125.966 44.2736 125.838 44.6904 125.685 45.0986C125.838 44.7244 125.983 44.3332 126.119 43.9249C126.272 43.4997 126.366 43.0574 126.4 42.5982ZM126.17 41.552C126.17 41.5691 126.17 41.5946 126.17 41.6286C126.17 41.5946 126.17 41.5691 126.17 41.552ZM121.705 45.7365C121.688 45.7365 121.671 45.7365 121.654 45.7365C121.671 45.7365 121.688 45.7365 121.705 45.7365ZM128.354 46.1958C128.354 46.0937 128.413 46.0002 128.532 45.9151C128.651 45.8301 128.787 45.7535 128.94 45.6855C129.111 45.6174 129.272 45.5579 129.425 45.5069C129.595 45.4558 129.723 45.4133 129.808 45.3793C130.624 45.4813 131.441 45.5664 132.257 45.6344C133.074 45.7025 133.89 45.7365 134.707 45.7365C135.013 45.7365 135.438 45.7365 135.983 45.7365C136.527 45.7195 137.122 45.6855 137.769 45.6344C138.415 45.5834 139.07 45.5069 139.733 45.4048C140.397 45.2857 141.001 45.1241 141.545 44.92C142.089 44.7159 142.531 44.4607 142.872 44.1546C143.212 43.8484 143.382 43.4657 143.382 43.0064C143.382 42.6322 143.297 42.3005 143.127 42.0113C142.974 41.7051 142.761 41.4415 142.489 41.2203C142.234 40.9822 141.945 40.7866 141.621 40.6335C141.502 40.5655 141.375 40.5059 141.239 40.4549C141.375 40.5229 141.502 40.591 141.621 40.659C141.928 40.8291 142.2 41.0417 142.438 41.2969C142.693 41.535 142.897 41.8072 143.05 42.1134C143.203 42.4025 143.28 42.7342 143.28 43.1085C143.28 43.5167 143.127 43.8654 142.821 44.1546C142.531 44.4267 142.149 44.6564 141.672 44.8435C141.213 45.0306 140.694 45.1752 140.116 45.2772C139.555 45.3793 138.993 45.4558 138.432 45.5069C137.871 45.5579 137.352 45.5919 136.876 45.6089C136.399 45.6089 136.025 45.6089 135.753 45.6089C134.885 45.6089 134.009 45.5834 133.125 45.5324C132.257 45.4643 131.39 45.3878 130.522 45.3027C130.829 45.2177 131.135 45.1582 131.441 45.1241C131.764 45.0731 132.087 45.0476 132.41 45.0476C132.955 45.0476 133.491 45.0561 134.018 45.0731C134.545 45.0731 135.073 45.0731 135.6 45.0731C136.229 45.0731 136.85 45.0646 137.462 45.0476C138.075 45.0136 138.704 44.9455 139.351 44.8435L139.427 45.1497C139.682 45.0986 140.005 45.0221 140.397 44.92C140.788 44.8009 141.162 44.6564 141.519 44.4863C141.894 44.3162 142.208 44.1035 142.463 43.8484C142.736 43.5932 142.872 43.2956 142.872 42.9554C142.872 42.4621 142.693 42.0283 142.336 41.6541C141.979 41.2799 141.519 40.9482 140.958 40.659C140.414 40.3528 139.793 40.0892 139.095 39.8681C138.398 39.6469 137.709 39.4513 137.029 39.2812C136.365 39.1111 135.736 38.958 135.141 38.8219C134.545 38.6859 134.069 38.5583 133.712 38.4392V38.5923C134.069 38.7284 134.537 38.873 135.115 39.0261C135.693 39.1621 136.314 39.3152 136.978 39.4853C137.658 39.6554 138.338 39.851 139.019 40.0722C139.699 40.2763 140.312 40.5229 140.856 40.8121C141.417 41.1013 141.868 41.433 142.208 41.8072C142.565 42.1814 142.744 42.6067 142.744 43.0829C142.744 43.3551 142.616 43.5932 142.361 43.7974C142.106 44.0015 141.8 44.1801 141.443 44.3332C141.103 44.4693 140.754 44.5798 140.397 44.6649C140.039 44.7499 139.767 44.8095 139.58 44.8435C139.801 44.7924 140.082 44.7244 140.422 44.6394C140.779 44.5373 141.12 44.4097 141.443 44.2566C141.783 44.1035 142.072 43.9249 142.31 43.7208C142.548 43.4997 142.667 43.2445 142.667 42.9554C142.667 42.4791 142.48 42.0794 142.106 41.7562C141.732 41.433 141.239 41.1438 140.626 40.8887C140.014 40.6335 139.317 40.4039 138.534 40.1997C137.752 39.9956 136.944 39.7745 136.11 39.5364C135.294 39.2982 134.494 39.0261 133.712 38.7199C132.929 38.4137 132.232 38.031 131.619 37.5717C131.007 37.1124 130.514 36.5681 130.14 35.9387C129.765 35.3094 129.578 34.5524 129.578 33.6679C129.578 32.8004 129.782 32.069 130.191 31.4736C130.616 30.8613 131.152 30.368 131.798 29.9938C132.461 29.6025 133.184 29.3219 133.967 29.1518C134.749 28.9817 135.506 28.8966 136.238 28.8966C137.309 28.8966 138.355 29.0497 139.376 29.3559C140.414 29.6621 141.392 30.0873 142.31 30.6316C142.208 30.6656 142.149 30.7167 142.132 30.7847C142.115 30.8357 142.098 30.8953 142.081 30.9633C142.081 31.0314 142.064 31.0909 142.03 31.1419C142.013 31.193 141.962 31.2185 141.877 31.2185C141.808 31.2185 141.672 31.193 141.468 31.1419C141.281 31.0739 141.077 31.0058 140.856 30.9378C140.635 30.8528 140.422 30.7762 140.218 30.7082C140.014 30.6401 139.878 30.5891 139.81 30.5551L139.733 30.7847C139.886 30.8528 140.082 30.9548 140.32 31.0909C140.575 31.21 140.813 31.3631 141.035 31.5502C141.273 31.7203 141.468 31.9074 141.621 32.1115C141.791 32.3156 141.877 32.5197 141.877 32.7239C141.877 32.945 141.774 33.0556 141.57 33.0556C141.315 33.0556 141.009 32.9875 140.652 32.8514C140.312 32.7153 139.929 32.5708 139.504 32.4177C139.078 32.2476 138.619 32.0945 138.126 31.9584C137.65 31.8223 137.165 31.7543 136.671 31.7543C136.348 31.7543 135.966 31.7883 135.523 31.8563C135.098 31.9074 134.681 32.0179 134.273 32.188C133.882 32.3411 133.55 32.5623 133.278 32.8514C133.006 33.1236 132.87 33.4723 132.87 33.8975C132.87 34.2888 133.048 34.6205 133.406 34.8926C133.78 35.1648 134.265 35.4114 134.86 35.6326C135.472 35.8537 136.161 36.0663 136.927 36.2704C137.692 36.4746 138.475 36.7042 139.274 36.9593C140.09 37.1975 140.881 37.4781 141.647 37.8013C142.412 38.1245 143.093 38.5158 143.688 38.975C144.3 39.4343 144.785 39.9786 145.142 40.608C145.517 41.2374 145.704 41.9773 145.704 42.8278C145.704 43.6613 145.534 44.3672 145.193 44.9455C144.853 45.5239 144.403 46.0087 143.841 46.3999C143.28 46.7741 142.642 47.0718 141.928 47.2929C141.213 47.497 140.473 47.6586 139.708 47.7777C138.959 47.8798 138.211 47.9393 137.462 47.9563C136.731 47.9903 136.068 48.0073 135.472 48.0073H132.921C132.768 48.0073 132.555 47.9988 132.283 47.9818C132.028 47.9818 131.773 47.9648 131.517 47.9308C131.262 47.9138 131.041 47.8713 130.854 47.8032C130.667 47.7352 130.573 47.6501 130.573 47.5481L130.599 47.4205C131.296 47.4545 131.985 47.4885 132.666 47.5225C133.346 47.5396 134.035 47.5481 134.732 47.5481C135.379 47.5481 136.025 47.5481 136.671 47.5481C137.25 47.5311 137.828 47.497 138.406 47.446C138.117 47.463 137.828 47.48 137.539 47.497C137.182 47.497 136.833 47.497 136.493 47.497H135.472C133.873 47.497 132.3 47.446 130.752 47.3439C130.786 47.2079 130.803 47.1143 130.803 47.0633C130.803 46.9952 130.786 46.9272 130.752 46.8592C130.718 46.8592 130.667 46.8677 130.599 46.8847C130.548 46.8847 130.48 46.8847 130.395 46.8847C130.208 46.8847 129.995 46.8762 129.757 46.8592C129.536 46.8421 129.315 46.8081 129.094 46.7571C128.889 46.7061 128.711 46.638 128.558 46.553C128.422 46.4509 128.354 46.3318 128.354 46.1958ZM144.02 45.5324C143.731 45.7875 143.424 46.0002 143.101 46.1703C142.812 46.3233 142.514 46.4679 142.208 46.604C142.514 46.5019 142.812 46.3829 143.101 46.2468C143.424 46.1107 143.731 45.8726 144.02 45.5324ZM149.836 55.3046C149.87 54.3521 149.896 53.408 149.913 52.4725C149.93 51.5539 149.938 50.5758 149.938 49.5382C149.938 49.096 149.93 48.6537 149.913 48.2115C149.896 47.7862 149.87 47.3695 149.836 46.9612V49.7679C149.836 50.7034 149.819 51.6305 149.785 52.549C149.768 53.4846 149.709 54.4031 149.607 55.3046C149.522 55.1515 149.445 54.9899 149.377 54.8198C149.309 54.6667 149.258 54.4966 149.224 54.3095C149.258 53.8503 149.275 53.425 149.275 53.0338C149.292 52.6596 149.3 52.2428 149.3 51.7836L149.607 51.6305C149.556 51.2733 149.522 50.9075 149.505 50.5333C149.487 50.1761 149.479 49.8189 149.479 49.4617C149.479 49.0705 149.479 48.6877 149.479 48.3135C149.496 47.9563 149.505 47.5821 149.505 47.1909C149.505 46.7146 149.487 46.2468 149.453 45.7875C149.436 45.3112 149.385 44.835 149.3 44.3587H149.224C149.258 45.0731 149.283 45.779 149.3 46.4764C149.334 47.1738 149.351 47.8713 149.351 48.5687C149.351 48.8748 149.343 49.181 149.326 49.4872L149.3 50.1506C149.266 48.5176 149.207 46.9187 149.122 45.3538C149.054 43.6868 148.935 41.9773 148.765 40.2253L148.867 38.1075C148.68 38.0905 148.484 38.082 148.28 38.082H147.693L147.616 37.4952C147.616 37.4101 147.676 37.3336 147.795 37.2655C147.914 37.1975 148.152 37.1635 148.509 37.1635H148.765V36.8573C148.203 36.7892 147.761 36.6702 147.438 36.5001C147.132 36.33 146.979 36.1514 146.979 35.9643C146.979 35.7942 147.132 35.6496 147.438 35.5305C147.744 35.3944 148.135 35.2924 148.611 35.2243C149.105 35.1393 149.641 35.0797 150.219 35.0457C150.797 35.0117 151.359 34.9947 151.903 34.9947C152.498 34.9947 153.136 35.0117 153.817 35.0457C154.514 35.0797 155.211 35.1648 155.909 35.3009C156.606 35.4369 157.278 35.6496 157.924 35.9387C158.588 36.2109 159.183 36.6021 159.711 37.1124C160.238 37.6057 160.672 38.2351 161.012 39.0005C161.369 39.749 161.599 40.6675 161.701 41.7562C161.701 42.6747 161.497 43.4316 161.088 44.027C160.697 44.6053 160.221 45.0731 159.659 45.4303C159.098 45.7875 158.511 46.0427 157.899 46.1958C157.304 46.3489 156.81 46.4509 156.419 46.5019C156.028 46.587 155.577 46.6891 155.067 46.8081C154.556 46.9102 154.123 46.9612 153.766 46.9612C153.374 46.9612 153.145 46.9187 153.077 46.8336C153.009 46.7486 152.975 46.638 152.975 46.5019C153.74 46.4679 154.505 46.4084 155.271 46.3233C156.036 46.2213 156.802 46.0512 157.567 45.813C156.802 46.0002 156.036 46.1447 155.271 46.2468C154.505 46.3318 153.74 46.3914 152.975 46.4254C152.975 46.3233 152.966 46.2213 152.949 46.1192C152.932 46.0002 152.881 45.9406 152.796 45.9406C152.626 45.9406 152.49 46.2128 152.388 46.7571C152.303 47.3014 152.235 47.9478 152.184 48.6962C152.15 49.4617 152.124 50.2441 152.107 51.0436C152.107 51.8431 152.107 52.5065 152.107 53.0338C152.107 53.2719 152.116 53.5186 152.133 53.7737C152.167 54.0459 152.184 54.2755 152.184 54.4626C152.184 54.6327 152.158 54.7773 152.107 54.8964C152.056 55.0155 151.911 55.075 151.673 55.075V51.8601C151.639 52.4044 151.614 52.9402 151.597 53.4675C151.597 53.9949 151.597 54.5307 151.597 55.075H151.137V55.2791C151.137 55.4322 151.163 55.5428 151.214 55.6108C151.027 55.934 150.814 56.0956 150.576 56.0956C150.389 56.0956 150.244 56.0446 150.142 55.9425C150.057 55.8404 149.93 55.7044 149.76 55.5343L149.836 55.3046ZM152.311 44.6649H152.668C153.264 44.6649 153.944 44.6308 154.71 44.5628C155.492 44.4948 156.223 44.3672 156.904 44.1801C157.584 43.993 158.154 43.7293 158.613 43.3891C159.09 43.0489 159.328 42.6067 159.328 42.0623V41.8582C159.328 41.6881 159.311 41.501 159.277 41.2969C159.26 41.0928 159.192 40.8972 159.073 40.71C159.09 40.7951 159.132 40.9652 159.2 41.2203C159.268 41.4755 159.302 41.6881 159.302 41.8582C159.302 42.3855 159.115 42.8193 158.741 43.1595C158.384 43.4827 157.924 43.7463 157.363 43.9505C156.819 44.1376 156.215 44.2736 155.552 44.3587C154.905 44.4267 154.284 44.4607 153.689 44.4607H153.179C153.009 44.4607 152.838 44.4522 152.668 44.4352C152.907 44.2481 153.213 44.1206 153.587 44.0525C153.978 43.9675 154.386 43.8994 154.812 43.8484C155.237 43.7974 155.654 43.7463 156.062 43.6953C156.47 43.6443 156.819 43.5592 157.108 43.4402L157.261 43.7463C157.856 43.4572 158.273 43.1765 158.511 42.9043C158.766 42.6152 158.894 42.2239 158.894 41.7306C158.894 40.9482 158.673 40.2593 158.231 39.6639C157.805 39.0686 157.227 38.6688 156.496 38.4647L156.419 38.6178C157.048 38.856 157.593 39.2472 158.052 39.7915C158.511 40.3358 158.741 40.9907 158.741 41.7562C158.741 42.1644 158.647 42.4876 158.46 42.7257C158.29 42.9299 158.018 43.117 157.644 43.2871C157.95 43.151 158.18 42.9809 158.333 42.7768C158.52 42.5386 158.647 42.275 158.715 41.9858C158.715 41.2714 158.545 40.6675 158.205 40.1742C157.865 39.6809 157.389 39.2897 156.776 39.0005C156.164 38.6944 155.424 38.4817 154.556 38.3627C153.706 38.2266 152.762 38.1585 151.724 38.1585C151.86 38.89 151.937 39.6894 151.954 40.557C151.988 41.4075 152.048 42.2409 152.133 43.0574L152.311 44.6649ZM149.734 40.7611C149.768 40.7271 149.802 40.5825 149.836 40.3273C149.87 40.0722 149.896 39.8 149.913 39.5108C149.947 39.2047 149.972 38.924 149.989 38.6688C150.023 38.3967 150.057 38.2351 150.091 38.1841L149.76 38.1585L149.734 40.7611ZM157.516 43.3381L157.644 43.2871L157.516 43.3381ZM173.545 48.3645C172.899 48.5857 172.406 48.7047 172.066 48.7218C171.725 48.7558 171.428 48.7813 171.173 48.7983C170.22 48.7983 169.361 48.6197 168.595 48.2625C167.83 47.9053 167.175 47.4205 166.631 46.8081C166.087 46.1958 165.661 45.4813 165.355 44.6649C165.066 43.8314 164.921 42.9469 164.921 42.0113C164.921 41.467 164.972 40.9057 165.074 40.3273C165.176 39.732 165.33 39.1536 165.534 38.5923C165.738 38.014 166.001 37.4781 166.325 36.9849C166.631 36.4916 166.997 36.0493 167.422 35.6581C166.98 36.0153 166.605 36.4405 166.299 36.9338C165.976 37.4271 165.704 37.9629 165.483 38.5413C165.262 39.1026 165.1 39.6894 164.998 40.3018C164.896 40.8972 164.845 41.4755 164.845 42.0368C164.845 42.7512 164.955 43.5167 165.176 44.3332C165.415 45.1326 165.789 45.8811 166.299 46.5785C166.809 47.2589 167.464 47.8287 168.264 48.288C169.08 48.7473 170.067 48.9769 171.224 48.9769C171.768 48.9769 172.338 48.9004 172.933 48.7473C172.287 49.1725 171.564 49.3851 170.764 49.3851C170.118 49.3851 169.506 49.2831 168.927 49.079C168.366 48.8919 167.839 48.6197 167.345 48.2625C166.869 47.9223 166.435 47.514 166.044 47.0378C165.653 46.5615 165.321 46.0512 165.049 45.5069L165.279 45.3027C164.989 44.7244 164.777 44.1461 164.641 43.5677C164.522 42.9894 164.462 42.4025 164.462 41.8072C164.462 40.9397 164.581 40.1062 164.819 39.3067C165.074 38.5073 165.406 37.7503 165.814 37.0359L166.427 36.1939C166.529 36.0068 166.673 35.8197 166.86 35.6326C167.065 35.4455 167.286 35.2668 167.524 35.0967C167.762 34.9096 168.009 34.748 168.264 34.612C168.536 34.4589 168.791 34.3228 169.029 34.2037C169.642 33.8975 170.254 33.6254 170.866 33.3872C171.479 33.1321 172.193 32.945 173.01 32.8259L172.908 32.7494C171.343 32.9025 170.016 33.2852 168.927 33.8975C167.839 34.4929 166.954 35.2243 166.274 36.0918C165.593 36.9593 165.1 37.9119 164.794 38.9495C164.488 39.9701 164.334 40.9737 164.334 41.9603C164.334 42.4876 164.377 43.0234 164.462 43.5677C164.564 44.095 164.709 44.6223 164.896 45.1497C164.471 44.1291 164.258 43.0489 164.258 41.9093C164.258 40.7866 164.445 39.6724 164.819 38.5668C165.193 37.4611 165.78 36.4405 166.58 35.505C167.6 34.5694 168.715 33.855 169.922 33.3617C171.13 32.8514 172.295 32.5963 173.418 32.5963C173.775 32.5963 174.141 32.6558 174.515 32.7749C174.889 32.894 175.229 33.0811 175.536 33.3362C175.842 33.5744 176.088 33.889 176.276 34.2803C176.48 34.6715 176.582 35.1478 176.582 35.7091C176.582 36.1684 176.471 36.7297 176.25 37.3931C176.029 38.0565 175.697 38.7029 175.255 39.3322C174.83 39.9446 174.294 40.4719 173.647 40.9142C173.001 41.3394 172.253 41.552 171.402 41.552H170.56C169.931 41.416 169.352 41.2629 168.825 41.0928C168.315 40.9057 167.83 40.7611 167.371 40.659C167.303 40.9312 167.26 41.1948 167.243 41.45C167.243 41.6881 167.243 41.9263 167.243 42.1644C167.243 42.6577 167.294 43.1425 167.396 43.6188C167.515 44.078 167.694 44.5033 167.932 44.8945C168.17 45.2857 168.468 45.6174 168.825 45.8896C169.199 46.1447 169.65 46.3063 170.177 46.3744C170.501 46.4424 170.781 46.4849 171.019 46.5019C171.258 46.5019 171.453 46.5105 171.606 46.5275C171.776 46.5275 171.895 46.553 171.963 46.604C172.049 46.638 172.091 46.7146 172.091 46.8336C171.921 46.8847 171.742 46.9187 171.555 46.9357C171.385 46.9527 171.207 46.9612 171.019 46.9612C170.424 46.9612 169.888 46.8677 169.412 46.6806C168.936 46.4764 168.527 46.2468 168.187 45.9916C168.578 46.3829 169.046 46.6635 169.591 46.8336C170.135 46.9867 170.671 47.0633 171.198 47.0633C171.487 47.0633 171.785 47.0378 172.091 46.9867C172.057 47.0888 172.04 47.1483 172.04 47.1653C172.04 47.2674 172.083 47.3354 172.168 47.3695C172.236 47.3524 172.355 47.3099 172.525 47.2419C172.695 47.1568 172.865 47.0803 173.035 47.0122C173.222 46.9272 173.401 46.8592 173.571 46.8081C173.741 46.7401 173.86 46.7061 173.928 46.7061C174.013 46.7061 174.09 46.7231 174.158 46.7571C174.226 46.7741 174.26 46.8677 174.26 47.0378C174.26 47.2079 174.2 47.412 174.081 47.6501C173.962 47.8883 173.784 48.1264 173.545 48.3645ZM170.024 38.2606L170.586 38.3627C170.773 38.3967 170.943 38.4137 171.096 38.4137C171.266 38.4137 171.462 38.3627 171.683 38.2606C171.921 38.1415 172.151 37.9799 172.372 37.7758C172.61 37.5717 172.814 37.3166 172.984 37.0104C173.171 36.7042 173.307 36.3555 173.392 35.9643L173.443 35.8112C173.205 35.8112 172.848 35.8707 172.372 35.9898C171.895 36.1088 171.402 36.2704 170.892 36.4746C170.382 36.6617 169.905 36.8913 169.463 37.1635C169.021 37.4186 168.715 37.6993 168.544 38.0055C168.8 38.0565 169.046 38.1075 169.284 38.1585C169.54 38.1926 169.786 38.2266 170.024 38.2606ZM168.851 40.1487C168.885 40.1147 168.902 40.0637 168.902 39.9956C168.919 39.9276 168.927 39.8766 168.927 39.8425L167.728 39.4088L167.6 39.766L168.851 40.1487ZM168.136 45.9406C168.017 45.8045 167.898 45.6685 167.779 45.5324C167.677 45.4133 167.592 45.2942 167.524 45.1752C167.677 45.4643 167.881 45.7195 168.136 45.9406ZM188.172 48.3645C187.525 48.5857 187.032 48.7047 186.692 48.7218C186.352 48.7558 186.054 48.7813 185.799 48.7983C184.846 48.7983 183.987 48.6197 183.222 48.2625C182.456 47.9053 181.801 47.4205 181.257 46.8081C180.713 46.1958 180.288 45.4813 179.981 44.6649C179.692 43.8314 179.548 42.9469 179.548 42.0113C179.548 41.467 179.599 40.9057 179.701 40.3273C179.803 39.732 179.956 39.1536 180.16 38.5923C180.364 38.014 180.628 37.4781 180.951 36.9849C181.257 36.4916 181.623 36.0493 182.048 35.6581C181.606 36.0153 181.232 36.4405 180.925 36.9338C180.602 37.4271 180.33 37.9629 180.109 38.5413C179.888 39.1026 179.726 39.6894 179.624 40.3018C179.522 40.8972 179.471 41.4755 179.471 42.0368C179.471 42.7512 179.582 43.5167 179.803 44.3332C180.041 45.1326 180.415 45.8811 180.925 46.5785C181.436 47.2589 182.091 47.8287 182.89 48.288C183.707 48.7473 184.693 48.9769 185.85 48.9769C186.394 48.9769 186.964 48.9004 187.559 48.7473C186.913 49.1725 186.19 49.3851 185.391 49.3851C184.744 49.3851 184.132 49.2831 183.553 49.079C182.992 48.8919 182.465 48.6197 181.972 48.2625C181.495 47.9223 181.061 47.514 180.67 47.0378C180.279 46.5615 179.947 46.0512 179.675 45.5069L179.905 45.3027C179.616 44.7244 179.403 44.1461 179.267 43.5677C179.148 42.9894 179.088 42.4025 179.088 41.8072C179.088 40.9397 179.207 40.1062 179.446 39.3067C179.701 38.5073 180.032 37.7503 180.441 37.0359L181.053 36.1939C181.155 36.0068 181.3 35.8197 181.487 35.6326C181.691 35.4455 181.912 35.2668 182.15 35.0967C182.388 34.9096 182.635 34.748 182.89 34.612C183.162 34.4589 183.417 34.3228 183.656 34.2037C184.268 33.8975 184.88 33.6254 185.493 33.3872C186.105 33.1321 186.819 32.945 187.636 32.8259L187.534 32.7494C185.969 32.9025 184.642 33.2852 183.553 33.8975C182.465 34.4929 181.58 35.2243 180.9 36.0918C180.22 36.9593 179.726 37.9119 179.42 38.9495C179.114 39.9701 178.961 40.9737 178.961 41.9603C178.961 42.4876 179.003 43.0234 179.088 43.5677C179.19 44.095 179.335 44.6223 179.522 45.1497C179.097 44.1291 178.884 43.0489 178.884 41.9093C178.884 40.7866 179.071 39.6724 179.446 38.5668C179.82 37.4611 180.407 36.4405 181.206 35.505C182.227 34.5694 183.341 33.855 184.549 33.3617C185.756 32.8514 186.921 32.5963 188.044 32.5963C188.401 32.5963 188.767 32.6558 189.141 32.7749C189.515 32.894 189.856 33.0811 190.162 33.3362C190.468 33.5744 190.715 33.889 190.902 34.2803C191.106 34.6715 191.208 35.1478 191.208 35.7091C191.208 36.1684 191.097 36.7297 190.876 37.3931C190.655 38.0565 190.323 38.7029 189.881 39.3322C189.456 39.9446 188.92 40.4719 188.274 40.9142C187.627 41.3394 186.879 41.552 186.028 41.552H185.186C184.557 41.416 183.979 41.2629 183.451 41.0928C182.941 40.9057 182.456 40.7611 181.997 40.659C181.929 40.9312 181.886 41.1948 181.869 41.45C181.869 41.6881 181.869 41.9263 181.869 42.1644C181.869 42.6577 181.921 43.1425 182.023 43.6188C182.142 44.078 182.32 44.5033 182.558 44.8945C182.797 45.2857 183.094 45.6174 183.451 45.8896C183.826 46.1447 184.276 46.3063 184.804 46.3744C185.127 46.4424 185.408 46.4849 185.646 46.5019C185.884 46.5019 186.079 46.5105 186.233 46.5275C186.403 46.5275 186.522 46.553 186.59 46.604C186.675 46.638 186.717 46.7146 186.717 46.8336C186.547 46.8847 186.369 46.9187 186.182 46.9357C186.011 46.9527 185.833 46.9612 185.646 46.9612C185.05 46.9612 184.515 46.8677 184.038 46.6806C183.562 46.4764 183.154 46.2468 182.814 45.9916C183.205 46.3829 183.673 46.6635 184.217 46.8336C184.761 46.9867 185.297 47.0633 185.824 47.0633C186.113 47.0633 186.411 47.0378 186.717 46.9867C186.683 47.0888 186.666 47.1483 186.666 47.1653C186.666 47.2674 186.709 47.3354 186.794 47.3695C186.862 47.3524 186.981 47.3099 187.151 47.2419C187.321 47.1568 187.491 47.0803 187.661 47.0122C187.848 46.9272 188.027 46.8592 188.197 46.8081C188.367 46.7401 188.486 46.7061 188.554 46.7061C188.639 46.7061 188.716 46.7231 188.784 46.7571C188.852 46.7741 188.886 46.8677 188.886 47.0378C188.886 47.2079 188.827 47.412 188.707 47.6501C188.588 47.8883 188.41 48.1264 188.172 48.3645ZM184.651 38.2606L185.212 38.3627C185.399 38.3967 185.569 38.4137 185.722 38.4137C185.892 38.4137 186.088 38.3627 186.309 38.2606C186.547 38.1415 186.777 37.9799 186.998 37.7758C187.236 37.5717 187.44 37.3166 187.61 37.0104C187.797 36.7042 187.934 36.3555 188.019 35.9643L188.07 35.8112C187.831 35.8112 187.474 35.8707 186.998 35.9898C186.522 36.1088 186.028 36.2704 185.518 36.4746C185.008 36.6617 184.532 36.8913 184.089 37.1635C183.647 37.4186 183.341 37.6993 183.171 38.0055C183.426 38.0565 183.673 38.1075 183.911 38.1585C184.166 38.1926 184.412 38.2266 184.651 38.2606ZM183.477 40.1487C183.511 40.1147 183.528 40.0637 183.528 39.9956C183.545 39.9276 183.553 39.8766 183.553 39.8425L182.354 39.4088L182.227 39.766L183.477 40.1487ZM182.762 45.9406C182.643 45.8045 182.524 45.6685 182.405 45.5324C182.303 45.4133 182.218 45.2942 182.15 45.1752C182.303 45.4643 182.507 45.7195 182.762 45.9406ZM206.982 29.2793C207.016 29.7726 207.042 30.2574 207.059 30.7337C207.076 31.193 207.084 31.6692 207.084 32.1625C207.084 33.1831 207.05 34.2122 206.982 35.2498C206.931 36.2704 206.863 37.308 206.778 38.3627C206.693 39.4173 206.608 40.4974 206.523 41.6031C206.438 42.7087 206.362 43.8569 206.293 45.0476C206.293 45.2347 206.285 45.4303 206.268 45.6344C206.268 45.8215 206.251 46.0342 206.217 46.2723V46.5785C206.217 46.6295 206.2 46.6976 206.166 46.7826C206.132 46.8677 206.098 46.9272 206.064 46.9612C205.843 47.2164 205.639 47.412 205.451 47.5481C205.281 47.6671 205.12 47.7607 204.967 47.8287C204.814 47.8798 204.669 47.9053 204.533 47.9053C204.397 47.9223 204.261 47.9393 204.125 47.9563H204.278C204.329 47.9563 204.422 47.9478 204.558 47.9308C204.712 47.9138 204.873 47.8883 205.043 47.8542C205.23 47.8032 205.4 47.7437 205.554 47.6756C205.724 47.5906 205.843 47.48 205.911 47.3439L206.14 46.8847C206.242 46.6976 206.302 46.5019 206.319 46.2978C206.353 46.0767 206.37 45.8641 206.37 45.66C206.387 45.4388 206.396 45.2262 206.396 45.0221C206.396 44.818 206.413 44.6223 206.447 44.4352C206.498 43.3636 206.566 42.292 206.651 41.2203C206.753 40.1487 206.846 39.0686 206.931 37.9799C207.016 36.8913 207.093 35.7942 207.161 34.6885C207.229 33.5658 207.263 32.4262 207.263 31.2695C207.263 30.9123 207.255 30.5721 207.238 30.2489C207.238 29.9087 207.229 29.5855 207.212 29.2793C207.263 29.3474 207.314 29.4579 207.365 29.611C207.433 29.7471 207.484 29.9682 207.518 30.2744C207.603 30.4615 207.654 30.6656 207.671 30.8868C207.688 31.1079 207.714 31.3375 207.748 31.5757C207.748 32.7324 207.705 33.855 207.62 34.9437C207.535 36.0153 207.45 37.0869 207.365 38.1585L207.135 38.2351L206.906 42.5982C206.906 43.8229 206.846 44.835 206.727 45.6344C206.625 46.4169 206.532 46.9357 206.447 47.1909V47.2674C206.191 47.5225 205.97 47.7182 205.783 47.8542C205.613 47.9733 205.451 48.0669 205.298 48.1349C205.145 48.2029 205.001 48.237 204.865 48.237C204.746 48.254 204.618 48.2625 204.482 48.2625H202.849C202.39 48.2115 201.896 48.1859 201.369 48.1859C200.842 48.2029 200.289 48.1519 199.711 48.0328C199.132 47.9138 198.537 47.6671 197.925 47.2929C197.329 46.9187 196.725 46.3233 196.113 45.5069C196.113 45.5409 196.105 45.5664 196.087 45.5834C196.07 45.6004 196.053 45.6259 196.036 45.66C196.598 46.4254 197.27 47.0548 198.052 47.5481C198.852 48.0414 199.711 48.3305 200.629 48.4156H202.772C202.977 48.4496 203.181 48.4666 203.385 48.4666C203.606 48.4836 203.844 48.4921 204.099 48.4921C204.354 48.4921 204.686 48.4581 205.094 48.3901C205.52 48.322 205.919 48.1009 206.293 47.7267C206.362 47.6416 206.404 47.5821 206.421 47.5481C206.455 47.497 206.489 47.429 206.523 47.3439L206.6 47.1909C206.685 47.0378 206.744 46.8847 206.778 46.7316C206.829 46.5615 206.872 46.3999 206.906 46.2468C206.906 46.4339 206.889 46.5955 206.855 46.7316C206.838 46.8677 206.778 47.0718 206.676 47.3439L206.6 47.4205L206.293 47.8798C206.14 48.0328 205.97 48.1519 205.783 48.237C205.596 48.322 205.417 48.3816 205.247 48.4156C205.077 48.4666 204.916 48.5006 204.763 48.5176C204.627 48.5346 204.524 48.5517 204.456 48.5687H203.614C203.393 48.5687 203.206 48.5602 203.053 48.5431C202.917 48.5431 202.806 48.5346 202.721 48.5176C202.653 48.5176 202.594 48.5091 202.543 48.4921H201.777C201.624 48.4921 201.471 48.4921 201.318 48.4921C201.165 48.5091 201.003 48.5176 200.833 48.5176C200.034 48.5176 199.251 48.322 198.486 47.9308C197.737 47.5566 197.04 47.0208 196.394 46.3233C195.764 45.6259 195.203 44.8009 194.71 43.8484C194.216 42.8958 193.842 41.8412 193.587 40.6845C193.587 40.4974 193.57 40.3188 193.536 40.1487C193.519 39.9786 193.51 39.8 193.51 39.6129C193.51 38.9835 193.604 38.3457 193.791 37.6993C193.995 37.0359 194.352 36.4405 194.863 35.9132C195.373 35.3859 196.062 34.9607 196.929 34.6375C197.797 34.2973 198.894 34.1272 200.221 34.1272C200.833 34.1272 201.429 34.1442 202.007 34.1782C202.585 34.1952 203.172 34.2207 203.768 34.2548C203.699 34.3058 203.665 34.3653 203.665 34.4334C203.665 34.5184 203.682 34.595 203.716 34.663C203.75 34.714 203.768 34.7736 203.768 34.8416C203.768 34.9266 203.699 35.0032 203.563 35.0712C203.444 35.1223 203.181 35.1478 202.772 35.1478C202.636 35.1478 202.475 35.1478 202.288 35.1478C202.118 35.1308 201.922 35.1138 201.701 35.0967V35.3264C202.517 35.4455 203.172 35.607 203.665 35.8112C204.176 35.9983 204.49 36.1684 204.61 36.3215L204.661 36.3725L204.763 35.2498C204.814 34.7906 204.839 34.2718 204.839 33.6934C204.839 33.0981 204.822 32.5112 204.788 31.9329C204.754 31.3546 204.737 30.9038 204.737 30.5806C204.737 30.1724 204.763 29.9002 204.814 29.7641C204.865 29.628 204.933 29.56 205.018 29.56C205.086 29.56 205.137 29.7046 205.171 29.9938C205.222 30.2829 205.256 30.6146 205.273 30.9888C205.307 31.346 205.324 31.7033 205.324 32.0605V32.8004C205.324 33.2937 205.315 33.7955 205.298 34.3058C205.281 34.7991 205.256 35.2924 205.222 35.7857C205.273 35.1393 205.315 34.5099 205.349 33.8975C205.383 33.2682 205.4 32.6303 205.4 31.9839C205.4 31.5927 205.392 31.21 205.375 30.8357C205.358 30.4445 205.332 30.0533 205.298 29.6621C205.4 29.7641 205.477 29.8151 205.528 29.8151C205.596 29.8151 205.647 29.7641 205.681 29.6621C205.664 29.526 205.647 29.3814 205.63 29.2283C205.613 29.0922 205.605 28.9561 205.605 28.8201V28.4373C205.69 28.2332 205.8 28.0801 205.936 27.9781C206.072 27.859 206.191 27.7995 206.293 27.7995C206.583 27.7995 206.838 28.1141 207.059 28.7435L206.982 29.2793ZM202.849 36.9338C202.288 36.9678 201.65 37.0019 200.935 37.0359C200.238 37.0699 199.575 37.1635 198.945 37.3166C198.316 37.4526 197.771 37.6653 197.312 37.9544C196.87 38.2436 196.623 38.6433 196.572 39.1536C196.572 39.715 196.691 40.3443 196.929 41.0417C197.168 41.7392 197.482 42.4025 197.874 43.0319C198.265 43.6443 198.707 44.1716 199.2 44.6138C199.711 45.0561 200.238 45.3027 200.782 45.3538H202.237C202.322 45.3538 202.381 45.3623 202.415 45.3793C202.466 45.3793 202.534 45.3963 202.619 45.4303H203.232C203.487 45.4813 203.742 45.5069 203.997 45.5069C203.997 44.078 204.057 42.6152 204.176 41.1183C204.312 39.6044 204.456 38.1245 204.61 36.6787C204.388 36.8488 203.802 36.9338 202.849 36.9338ZM204.686 42.2154C204.686 42.4025 204.669 42.5982 204.635 42.8023C204.618 42.9894 204.61 43.202 204.61 43.4402C204.797 42.4876 204.907 41.484 204.941 40.4294C204.975 39.3748 205.018 38.3627 205.069 37.3931C204.984 38.2096 204.916 39.0176 204.865 39.817C204.831 40.5995 204.771 41.399 204.686 42.2154ZM206.906 44.971C206.906 44.7839 206.914 44.5968 206.931 44.4097C206.948 44.2056 206.974 43.993 207.008 43.7718C206.991 44.2821 206.982 44.7669 206.982 45.2262C206.982 45.6685 206.957 45.9831 206.906 46.1703C206.906 46.0852 206.906 46.0087 206.906 45.9406C206.923 45.8556 206.931 45.7705 206.931 45.6855C206.931 45.5494 206.923 45.4218 206.906 45.3027C206.906 45.1837 206.906 45.0731 206.906 44.971ZM207.289 40.8376C207.255 40.9227 207.229 41.0247 207.212 41.1438C207.195 41.2459 207.17 41.3564 207.135 41.4755L207.238 39.9191L207.289 40.8376ZM207.059 42.8278C207.059 42.9809 207.05 43.134 207.033 43.2871C207.033 43.4402 207.025 43.5847 207.008 43.7208C207.008 43.3806 207.016 43.0404 207.033 42.7002C207.05 42.343 207.076 42.0198 207.11 41.7306L207.059 42.8278ZM204.533 44.4097C204.55 44.3417 204.558 44.2736 204.558 44.2056C204.558 44.1376 204.575 44.061 204.61 43.976V43.6953C204.592 43.7293 204.584 43.7633 204.584 43.7974C204.584 43.8144 204.575 43.8314 204.558 43.8484L204.533 43.8994V44.4097ZM204.456 45.6344C204.473 45.4813 204.49 45.3283 204.507 45.1752C204.524 45.0051 204.533 44.835 204.533 44.6649V44.5883L204.431 45.5834L204.456 45.6344ZM214.719 48.1859C214.549 48.22 214.361 48.237 214.157 48.237H213.417C212.975 48.237 212.66 48.288 212.473 48.3901C212.303 48.4921 212.201 48.5431 212.167 48.5431L212.065 48.0839V47.6246L211.937 45.2262C211.903 44.7669 211.81 44.2736 211.657 43.7463C211.504 43.219 211.385 42.6832 211.3 42.1389C211.249 41.7817 211.206 41.4415 211.172 41.1183L211.07 40.1232C211.036 39.783 210.993 39.4343 210.942 39.0771C210.908 38.7199 210.849 38.3372 210.764 37.9289C210.764 37.8269 210.764 37.7248 210.764 37.6227C210.781 37.5207 210.789 37.4186 210.789 37.3166C210.789 36.7892 210.747 36.2704 210.662 35.7601C210.577 35.2498 210.458 34.748 210.305 34.2548C210.424 34.2037 210.534 34.1612 210.636 34.1272C210.738 34.0761 210.832 34.0506 210.917 34.0506C211.002 34.0506 211.095 34.1527 211.198 34.3568C211.3 34.5439 211.41 34.9437 211.529 35.556C211.563 35.556 211.614 35.5475 211.682 35.5305C211.75 35.4965 211.801 35.4795 211.835 35.4795C211.818 35.1903 211.776 34.8841 211.708 34.5609C211.64 34.2207 211.572 33.8975 211.504 33.5914C211.436 33.2852 211.368 33.013 211.3 32.7749C211.249 32.5197 211.223 32.3156 211.223 32.1625C211.223 32.1285 211.223 32.086 211.223 32.0349C211.24 31.9839 211.283 31.9584 211.351 31.9584C211.436 31.9584 211.546 32.052 211.682 32.2391C211.818 32.4262 211.963 32.6643 212.116 32.9535C212.269 33.2427 212.414 33.5573 212.55 33.8975C212.703 34.2207 212.839 34.5269 212.958 34.8161C213.417 33.9486 213.936 33.2937 214.515 32.8514C215.11 32.3922 215.884 32.1625 216.836 32.1625C217.534 32.1625 218.104 32.2476 218.546 32.4177C218.988 32.5708 219.328 32.7494 219.566 32.9535C219.822 33.1406 219.992 33.3192 220.077 33.4893L220.23 33.7445C220.23 33.8465 220.179 33.9146 220.077 33.9486C219.635 33.5233 219.133 33.2001 218.571 32.979C218.01 32.7579 217.432 32.6473 216.836 32.6473C216.258 32.6473 215.824 32.7239 215.535 32.8769C215.263 33.013 214.974 33.1831 214.668 33.3872C214.991 33.1831 215.288 33.0215 215.561 32.9025C215.85 32.7834 216.267 32.7239 216.811 32.7239C217.406 32.7239 217.976 32.8429 218.52 33.0811C219.065 33.3022 219.532 33.5914 219.924 33.9486C219.839 33.9826 219.762 34.0251 219.694 34.0761C219.643 34.1102 219.617 34.1697 219.617 34.2548C219.703 34.2548 219.796 34.3143 219.898 34.4334C220 34.5354 220.094 34.663 220.179 34.8161C220.264 34.9692 220.332 35.1308 220.383 35.3009C220.451 35.454 220.485 35.5815 220.485 35.6836C220.485 35.9728 220.374 36.1173 220.153 36.1173C219.983 36.1173 219.779 36.0578 219.541 35.9387C219.49 35.9217 219.379 35.8282 219.209 35.6581C219.056 35.488 218.861 35.3179 218.622 35.1478C218.384 34.9607 218.112 34.7906 217.806 34.6375C217.5 34.4844 217.16 34.4078 216.785 34.4078C216.479 34.4078 216.207 34.4759 215.969 34.612C215.748 34.731 215.544 34.9011 215.356 35.1223C215.169 35.3264 214.999 35.5645 214.846 35.8367L214.515 36.449C214.77 35.9898 215.05 35.573 215.356 35.1988C215.697 34.7565 216.122 34.5354 216.632 34.5354C217.075 34.5354 217.483 34.6375 217.857 34.8416C218.231 35.0287 218.537 35.2668 218.776 35.556C218.486 35.4369 218.146 35.3179 217.755 35.1988C217.364 35.0797 216.989 35.0202 216.632 35.0202C216.445 35.0202 216.284 35.0627 216.147 35.1478C216.011 35.2328 215.892 35.3434 215.79 35.4795C215.705 35.5985 215.62 35.7346 215.535 35.8877C215.467 36.0408 215.391 36.1854 215.305 36.3215L214.974 36.3725C214.685 36.8658 214.446 37.4441 214.259 38.1075C214.089 38.7539 214.004 39.4343 214.004 40.1487C214.004 40.574 214.021 40.9567 214.055 41.2969C214.106 41.6371 214.174 41.9858 214.259 42.343L214.566 43.134L214.515 42.394C214.48 41.8157 214.446 41.3054 214.412 40.8631C214.378 40.4039 214.361 39.9021 214.361 39.3578C214.395 38.8645 214.463 38.3967 214.566 37.9544C214.651 37.5802 214.778 37.2315 214.948 36.9083C214.744 37.3166 214.608 37.7843 214.54 38.3116C214.455 38.89 214.412 39.5023 214.412 40.1487C214.412 40.659 214.438 41.1438 214.489 41.6031C214.54 42.0623 214.6 42.5216 214.668 42.9809C214.753 43.4402 214.838 43.9164 214.923 44.4097C215.008 44.886 215.076 45.4133 215.127 45.9916L215.203 46.4764L215.356 47.9308L214.719 48.1859ZM215.025 36.7807L214.948 36.9083L215.025 36.7807ZM235.468 32.3666L235.391 32.8259C235.306 33.6594 235.255 34.5524 235.238 35.505C235.221 36.4405 235.153 37.3846 235.034 38.3372C235.17 37.4016 235.281 36.4831 235.366 35.5815C235.451 34.646 235.536 33.7274 235.621 32.8259C235.706 33.0981 235.774 33.3872 235.825 33.6934C235.893 33.9996 235.927 34.3228 235.927 34.663C235.842 35.5135 235.766 36.33 235.698 37.1124C235.629 37.8949 235.536 38.7114 235.417 39.5619L235.085 39.6384C235 40.4209 234.822 41.2714 234.549 42.1899C234.277 43.1085 233.877 43.959 233.35 44.7414C232.84 45.5239 232.176 46.1788 231.36 46.7061C230.543 47.2164 229.565 47.4715 228.426 47.4715C228.052 47.4715 227.652 47.446 227.227 47.395C226.818 47.3269 226.419 47.2334 226.027 47.1143C225.636 46.9782 225.262 46.8081 224.905 46.604C224.547 46.3999 224.241 46.1447 223.986 45.8386L224.012 45.8896V45.9151L223.986 45.9406L223.91 45.9151C224.012 46.0682 224.122 46.2043 224.241 46.3233C223.935 46.0512 223.654 45.7365 223.399 45.3793C222.974 44.8009 222.634 44.112 222.379 43.3126C222.226 42.8363 222.107 42.3515 222.021 41.8582C221.936 41.3649 221.877 40.8461 221.843 40.3018C221.809 39.7405 221.783 39.1366 221.766 38.4902C221.766 37.8439 221.766 37.1294 221.766 36.347C221.919 35.7346 222.038 35.1223 222.124 34.5099C222.209 33.8975 222.268 33.2852 222.302 32.6728C222.353 32.6728 222.413 32.6643 222.481 32.6473C222.549 32.6303 222.617 32.6218 222.685 32.6218C222.804 32.6218 222.906 32.6898 222.991 32.8259C223.093 32.962 223.144 33.2512 223.144 33.6934V33.9231C223.144 33.9911 223.136 34.0676 223.119 34.1527H223.425C223.561 33.4383 223.722 32.894 223.91 32.5197C224.097 32.1455 224.284 31.9584 224.471 31.9584C224.607 31.9584 224.726 32.154 224.828 32.5452C224.947 32.9195 225.007 33.5148 225.007 34.3313C225.007 34.9266 224.99 35.5305 224.956 36.1429C224.922 36.7552 224.905 37.3846 224.905 38.031C224.905 39.0346 224.947 39.9446 225.032 40.7611C225.134 41.5776 225.321 42.275 225.594 42.8533C225.866 43.4316 226.248 43.8824 226.742 44.2056C227.252 44.5118 227.907 44.6649 228.706 44.6649C229.37 44.6649 229.923 44.4607 230.365 44.0525C230.807 43.6443 231.181 43.1 231.488 42.4196C231.794 41.7392 232.049 40.9567 232.253 40.0722C232.474 39.1706 232.678 38.2351 232.865 37.2655C232.899 36.9934 232.925 36.7212 232.942 36.449C232.959 36.1769 232.967 35.8962 232.967 35.607V34.8161C232.967 34.3228 232.993 33.906 233.044 33.5658C233.095 33.2256 233.24 33.03 233.478 32.979C233.478 33.8465 233.452 34.7055 233.401 35.556C233.367 36.3725 233.299 37.189 233.197 38.0055C233.316 37.206 233.41 36.4065 233.478 35.607C233.546 34.7736 233.597 33.9231 233.631 33.0556C233.733 33.1236 233.818 33.1576 233.886 33.1576C233.954 33.1576 234.022 33.1236 234.09 33.0556V32.137C234.175 31.8308 234.26 31.6182 234.345 31.4991C234.43 31.3631 234.524 31.295 234.626 31.295C234.728 31.295 234.83 31.346 234.932 31.4481C235.034 31.5502 235.136 31.6777 235.238 31.8308L235.468 32.3666ZM224.93 46.8336C225.338 47.0548 225.755 47.2334 226.18 47.3695C226.623 47.4885 227.031 47.5736 227.405 47.6246C227.796 47.6756 228.111 47.7012 228.349 47.7012C229.54 47.7012 230.552 47.4375 231.385 46.9102C232.219 46.3829 232.899 45.728 233.427 44.9455C233.971 44.1461 234.388 43.2956 234.677 42.394C234.949 41.5435 235.153 40.7611 235.289 40.0467C235.17 40.7611 234.983 41.552 234.728 42.4196C234.439 43.3381 234.022 44.1971 233.478 44.9966C232.95 45.796 232.279 46.4679 231.462 47.0122C230.646 47.5566 229.659 47.8287 228.502 47.8287C227.856 47.8287 227.218 47.7437 226.589 47.5736C225.959 47.4035 225.372 47.1398 224.828 46.7826C224.862 46.7996 224.896 46.8166 224.93 46.8336ZM234.702 40.557C234.753 40.2678 234.796 39.9871 234.83 39.715C234.864 39.4768 234.898 39.2387 234.932 39.0005C234.83 39.749 234.66 40.5399 234.422 41.3734C234.184 42.2409 233.852 43.0659 233.427 43.8484C233.001 44.6138 232.466 45.2942 231.819 45.8896C231.207 46.4509 230.492 46.8336 229.676 47.0378C230.39 46.8847 231.028 46.587 231.59 46.1447C232.168 45.6855 232.661 45.1497 233.069 44.5373C233.478 43.9249 233.809 43.2701 234.065 42.5726C234.337 41.8752 234.549 41.2033 234.702 40.557ZM232.176 42.343C231.989 42.7172 231.777 43.0744 231.539 43.4146C231.317 43.7548 231.062 44.061 230.773 44.3332C231.079 44.078 231.343 43.7804 231.564 43.4402C231.802 43.1 232.006 42.7342 232.176 42.343ZM224.828 46.7826C224.624 46.6465 224.428 46.4934 224.241 46.3233C224.428 46.4934 224.624 46.6465 224.828 46.7826ZM235.315 39.8681L235.289 40.0467L235.315 39.8681ZM234.958 38.873C234.941 38.924 234.932 38.9665 234.932 39.0005C234.932 38.9665 234.941 38.924 234.958 38.873ZM238.741 46.2723C238.741 46.1873 238.766 46.0852 238.817 45.9661C238.868 45.8471 238.894 45.7195 238.894 45.5834C238.945 45.1752 238.979 44.886 238.996 44.7159C239.013 44.5288 239.021 44.3672 239.021 44.2311C239.021 43.5167 238.996 42.7512 238.945 41.9348C238.911 41.1013 238.868 40.3018 238.817 39.5364C238.817 39.2982 238.809 39.0176 238.792 38.6944C238.792 38.3712 238.775 38.116 238.741 37.9289C238.792 37.3336 238.834 36.7467 238.868 36.1684C238.902 35.59 238.919 35.0032 238.919 34.4078V33.77C238.919 33.5488 238.911 33.3277 238.894 33.1066C238.945 33.1576 238.996 33.1831 239.047 33.1831C239.115 33.1831 239.183 33.1576 239.251 33.1066C239.336 33.0556 239.413 33.03 239.481 33.03C239.6 33.03 239.693 33.1576 239.761 33.4128C239.846 33.6679 239.889 34.2292 239.889 35.0967H240.119C240.204 34.1442 240.331 33.3872 240.501 32.8259C240.688 32.2646 240.876 31.9839 241.063 31.9839C241.148 31.9839 241.284 32.171 241.471 32.5452C241.658 32.9025 241.752 33.4723 241.752 34.2548L242.032 33.7955C242.219 33.5744 242.423 33.3447 242.645 33.1066C242.883 32.8684 243.146 32.6558 243.436 32.4687C243.725 32.2816 244.048 32.1285 244.405 32.0094C244.762 31.8734 245.171 31.8053 245.63 31.8053C246.514 31.8053 247.28 32.0094 247.926 32.4177C248.59 32.8089 249.142 33.3277 249.585 33.9741C250.027 34.6035 250.384 35.3264 250.656 36.1429C250.945 36.9423 251.167 37.7588 251.32 38.5923C251.473 39.4088 251.575 40.1997 251.626 40.9652C251.677 41.7306 251.702 42.3855 251.702 42.9299C251.702 43.4231 251.668 43.7208 251.6 43.8229C251.549 43.9079 251.447 43.959 251.294 43.976C251.26 42.6662 251.175 41.3309 251.039 39.9701C250.903 38.6093 250.58 37.291 250.069 36.0153C250.529 37.3591 250.818 38.6859 250.937 39.9956C251.073 41.2884 251.141 42.5897 251.141 43.8994C251.039 43.8484 250.945 43.8229 250.86 43.8229C250.792 43.8229 250.733 43.8484 250.682 43.8994C250.682 44.0355 250.69 44.1801 250.707 44.3332C250.724 44.4693 250.733 44.6053 250.733 44.7414C250.75 44.8775 250.758 45.0051 250.758 45.1241C250.656 45.5154 250.554 45.796 250.452 45.9661C250.35 46.1362 250.257 46.2213 250.171 46.2213C250.069 46.2213 249.984 46.1788 249.916 46.0937C249.848 45.9916 249.78 45.8726 249.712 45.7365C249.661 45.6004 249.602 45.4558 249.534 45.3027C249.483 45.1326 249.406 44.971 249.304 44.818C249.338 44.5288 249.364 44.2992 249.381 44.1291C249.398 43.9419 249.406 43.7889 249.406 43.6698C249.406 43.2105 249.398 42.6577 249.381 42.0113C249.364 41.3649 249.312 40.693 249.227 39.9956C249.159 39.2812 249.04 38.5753 248.87 37.8779C248.717 37.1635 248.496 36.5341 248.207 35.9898C247.935 35.4284 247.586 34.9777 247.161 34.6375C246.735 34.2803 246.225 34.1017 245.63 34.1017C245.222 34.1017 244.856 34.2377 244.533 34.5099C244.227 34.7821 243.954 35.1308 243.716 35.556C243.495 35.9813 243.299 36.449 243.129 36.9593C242.959 37.4526 242.823 37.9289 242.721 38.3882C242.874 37.9119 243.027 37.4271 243.18 36.9338C243.35 36.4405 243.546 35.9898 243.767 35.5815C244.005 35.1733 244.278 34.8416 244.584 34.5864C244.89 34.3143 245.247 34.1782 245.655 34.1782C246.183 34.1782 246.633 34.3228 247.008 34.612C247.399 34.9011 247.722 35.2754 247.977 35.7346C248.249 36.1939 248.462 36.7212 248.615 37.3166C248.785 37.8949 248.913 38.4902 248.998 39.1026C249.083 39.698 249.134 40.2848 249.151 40.8631C249.185 41.4245 249.202 41.9093 249.202 42.3175C249.202 42.6407 249.193 42.9639 249.176 43.2871C249.176 43.6103 249.168 43.9419 249.151 44.2821C248.998 43.6358 248.879 42.9639 248.794 42.2665C248.726 41.552 248.649 40.8546 248.564 40.1742C248.479 39.4768 248.368 38.8134 248.232 38.1841C248.113 37.5377 247.935 36.9423 247.697 36.398L247.875 36.1429C247.705 35.7516 247.509 35.454 247.288 35.2498C247.084 35.0287 246.88 34.8671 246.676 34.7651C246.472 34.663 246.285 34.6035 246.115 34.5864C245.945 34.5694 245.834 34.5609 245.783 34.5609C245.358 34.5609 244.975 34.714 244.635 35.0202C244.312 35.3264 244.022 35.7431 243.767 36.2704C243.529 36.7807 243.316 37.3761 243.129 38.0565C242.942 38.7369 242.781 39.4513 242.645 40.1997C242.508 40.9482 242.389 41.7051 242.287 42.4706C242.185 43.219 242.1 43.9249 242.032 44.5883H242.262C242.347 44.01 242.432 43.3721 242.517 42.6747C242.619 41.9773 242.721 41.2714 242.823 40.557C242.942 39.8255 243.078 39.1196 243.231 38.4392C243.385 37.7588 243.563 37.1465 243.767 36.6021C243.988 36.0578 244.244 35.6156 244.533 35.2754C244.805 34.9522 245.137 34.7651 245.528 34.714C245.154 34.7991 244.839 35.0372 244.584 35.4284C244.312 35.8367 244.073 36.3385 243.869 36.9338C243.665 37.5292 243.478 38.1841 243.308 38.8985C243.155 39.5959 243.01 40.2678 242.874 40.9142L242.364 44.6394C242.296 44.8775 242.245 45.0901 242.211 45.2772L242.109 45.813C242.075 45.9831 242.041 46.1703 242.007 46.3744C241.973 46.5615 241.93 46.7826 241.879 47.0378L241.803 47.3439H241.649L239.072 46.4764C238.987 46.4594 238.919 46.4339 238.868 46.3999C238.834 46.3659 238.792 46.3233 238.741 46.2723ZM243.18 33.1831C242.84 33.4723 242.568 33.787 242.364 34.1272C242.177 34.4504 241.998 34.7821 241.828 35.1223V35.1478C242.066 34.6545 242.398 34.1527 242.823 33.6424C243.231 33.1661 243.776 32.8089 244.456 32.5708C244.235 32.6388 244.022 32.7068 243.818 32.7749C243.58 32.8599 243.368 32.996 243.18 33.1831ZM246.242 32.3411C246.157 32.3241 246.038 32.3156 245.885 32.3156C246.429 32.4517 246.94 32.6048 247.416 32.7749C247.892 32.928 248.343 33.2427 248.768 33.7189C248.479 33.3277 248.096 33.0215 247.62 32.8004C247.161 32.5793 246.701 32.4262 246.242 32.3411ZM246.931 35.2498C246.795 35.1478 246.633 35.0712 246.446 35.0202C246.276 34.9522 246.064 34.8671 245.808 34.7651L245.783 34.714C246.072 34.731 246.327 34.7991 246.548 34.9181C246.77 35.0202 246.982 35.2073 247.186 35.4795L246.931 35.2498ZM248.819 33.77C249.057 34.0591 249.278 34.3908 249.483 34.7651C249.687 35.1393 249.865 35.471 250.018 35.7601C249.848 35.3689 249.687 35.0117 249.534 34.6885C249.381 34.3653 249.142 34.0591 248.819 33.77ZM256.376 43.7974C256.648 43.8824 256.971 44.0355 257.345 44.2566C257.737 44.4778 258.17 44.7074 258.647 44.9455C259.123 45.1837 259.642 45.3963 260.203 45.5834C260.781 45.7705 261.394 45.8641 262.04 45.8641H262.321C262.423 45.8641 262.542 45.8471 262.678 45.813L262.959 46.0172C263.622 45.813 264.166 45.4303 264.592 44.869C265.017 44.2906 265.23 43.5167 265.23 42.5471C265.23 41.8497 265.059 41.3734 264.719 41.1183C264.396 40.8461 263.792 40.71 262.908 40.71C262.363 40.71 261.794 40.7526 261.198 40.8376C260.62 40.9057 260.007 40.9397 259.361 40.9397C259.072 40.9397 258.774 40.9312 258.468 40.9142C258.162 40.8801 257.847 40.8206 257.524 40.7356V40.8887C258.204 41.0588 258.876 41.1438 259.54 41.1438C260.186 41.1438 260.798 41.1098 261.377 41.0417C261.972 40.9567 262.542 40.9142 263.086 40.9142C263.546 40.9142 263.903 40.9652 264.158 41.0673C264.43 41.1523 264.634 41.2714 264.77 41.4245C264.906 41.5776 264.991 41.7647 265.025 41.9858C265.076 42.1899 265.102 42.4196 265.102 42.6747C265.102 43.4742 264.889 44.1546 264.464 44.7159C264.056 45.2432 263.571 45.5749 263.01 45.711C263.639 45.4899 264.132 45.1071 264.49 44.5628C264.864 43.9845 265.051 43.3381 265.051 42.6237C265.051 42.1134 264.915 41.7221 264.643 41.45C264.388 41.1778 263.937 41.0417 263.29 41.0417C262.763 41.0417 262.168 41.0758 261.504 41.1438C260.841 41.2118 260.135 41.2459 259.387 41.2459C258.927 41.2459 258.392 41.1863 257.779 41.0673C257.184 40.9482 256.614 40.7271 256.07 40.4039C255.525 40.0807 255.066 39.6384 254.692 39.0771C254.318 38.4987 254.131 37.7503 254.131 36.8318C254.131 36.1003 254.275 35.4284 254.564 34.8161C254.87 34.1867 255.27 33.6424 255.763 33.1831C256.257 32.7068 256.818 32.3326 257.447 32.0605C258.094 31.7883 258.757 31.6437 259.438 31.6267C260.084 31.6267 260.696 31.7203 261.275 31.9074C261.87 32.0775 262.431 32.3071 262.959 32.5963C263.486 32.8684 263.988 33.1746 264.464 33.5148C264.94 33.855 265.383 34.1952 265.791 34.5354L265.281 35.0457C265.161 35.0457 264.983 34.9777 264.745 34.8416C264.507 34.6885 264.141 34.4334 263.648 34.0761L263.495 34.3058C264.107 34.7991 264.549 35.2583 264.821 35.6836C265.11 36.1088 265.255 36.4405 265.255 36.6787C265.221 36.8148 265.136 36.8828 265 36.8828C264.864 36.8828 264.592 36.7722 264.183 36.5511C263.775 36.33 263.307 36.0833 262.78 35.8112C262.27 35.539 261.725 35.2924 261.147 35.0712C260.569 34.8501 260.041 34.7395 259.565 34.7395C259.293 34.7395 259.021 34.7906 258.749 34.8926C258.477 34.9947 258.23 35.1393 258.009 35.3264C257.788 35.4965 257.601 35.7091 257.447 35.9643C257.311 36.2194 257.243 36.5001 257.243 36.8063C257.243 37.2995 257.473 37.6312 257.932 37.8013C258.392 37.9714 258.995 38.0565 259.744 38.0565C259.897 38.0565 260.058 38.0565 260.229 38.0565C260.416 38.0395 260.586 38.014 260.739 37.9799C261.13 37.9799 261.385 37.9714 261.504 37.9544C261.64 37.9204 261.768 37.9034 261.887 37.9034C262.618 37.9034 263.35 37.9544 264.081 38.0565C264.813 38.1585 265.468 38.3797 266.046 38.7199C266.624 39.0601 267.092 39.5449 267.449 40.1742C267.807 40.8036 267.985 41.6456 267.985 42.7002C267.985 43.4316 267.858 44.1631 267.602 44.8945C267.364 45.6089 266.999 46.2553 266.505 46.8336C266.012 47.395 265.4 47.8457 264.668 48.1859C263.937 48.5431 263.078 48.7218 262.091 48.7218C261.496 48.7218 260.79 48.6027 259.973 48.3645C259.174 48.1434 258.409 47.8798 257.677 47.5736C256.963 47.2504 256.35 46.9187 255.84 46.5785C255.347 46.2383 255.1 45.9491 255.1 45.711C255.1 45.6429 255.143 45.5919 255.228 45.5579C256.265 46.3233 257.32 46.9527 258.392 47.446C259.446 47.9053 260.526 48.1604 261.632 48.2115C261.088 48.1774 260.543 48.0839 259.999 47.9308C259.438 47.7607 258.876 47.5566 258.315 47.3184C257.771 47.0633 257.243 46.7826 256.733 46.4764C256.24 46.1532 255.763 45.8301 255.304 45.5069L255.687 45.1752C255.636 45.1582 255.542 45.0986 255.406 44.9966C255.27 44.8945 255.134 44.7669 254.998 44.6138C254.879 44.4607 254.768 44.2992 254.666 44.1291C254.564 43.959 254.513 43.7974 254.513 43.6443C254.513 43.4742 254.547 43.3636 254.615 43.3126C254.683 43.2615 254.76 43.236 254.845 43.236C254.93 43.236 255.109 43.2956 255.381 43.4146C255.653 43.5337 255.985 43.6613 256.376 43.7974ZM262.015 46.3999C261.419 46.3999 260.756 46.2808 260.024 46.0427C259.31 45.7875 258.63 45.4643 257.983 45.0731C258.511 45.4303 259.097 45.7535 259.744 46.0427C260.39 46.3148 261.139 46.4509 261.989 46.4509C263.129 46.4509 264.03 46.1022 264.694 45.4048C265.374 44.7074 265.714 43.7718 265.714 42.5982V42.343C265.629 41.7987 265.442 41.3564 265.153 41.0162C264.881 40.659 264.456 40.4634 263.877 40.4294C264.234 40.4974 264.524 40.608 264.745 40.7611C264.983 40.9142 265.161 41.1013 265.281 41.3224C265.417 41.5265 265.51 41.7562 265.561 42.0113C265.612 42.2665 265.638 42.5301 265.638 42.8023C265.57 43.9249 265.213 44.8095 264.566 45.4558C263.92 46.0852 263.069 46.3999 262.015 46.3999ZM265.255 47.395C265.68 47.1228 266.02 46.7911 266.276 46.3999C266.531 46.0087 266.752 45.6004 266.939 45.1752C266.582 45.8896 266.089 46.519 265.459 47.0633C264.847 47.6076 264.115 47.9478 263.265 48.0839C263.588 48.0328 263.92 47.9648 264.26 47.8798C264.617 47.7777 264.949 47.6161 265.255 47.395ZM267.679 42.5982C267.679 42.411 267.645 42.2324 267.577 42.0623C267.526 41.9263 267.483 41.7817 267.449 41.6286L267.475 41.9603C267.492 42.0964 267.5 42.2835 267.5 42.5216C267.5 42.9809 267.449 43.4231 267.347 43.8484C267.245 44.2736 267.118 44.6904 266.965 45.0986C267.118 44.7244 267.262 44.3332 267.398 43.9249C267.551 43.4997 267.645 43.0574 267.679 42.5982ZM267.449 41.552C267.449 41.5691 267.449 41.5946 267.449 41.6286C267.449 41.5946 267.449 41.5691 267.449 41.552ZM262.984 45.7365C262.967 45.7365 262.95 45.7365 262.933 45.7365C262.95 45.7365 262.967 45.7365 262.984 45.7365Z" fill="white"/>
<path fill-rule="evenodd" clip-rule="evenodd" d="M51.9529 55.193C47.681 51.9529 41.8985 47.5672 23.9847 59.8146C14.3215 52.8425 11.9828 40.813 15.8789 34.3596C18.7932 32.7969 21.1991 30.1052 23.6108 27.4071C28.2126 22.2589 32.8351 17.0873 41.0495 19.6919C36.3511 26.6175 51.7926 33.9126 51.7926 16.5747C54.7349 21.9794 58.6548 25.4733 61.8962 28.3624C65.1271 31.2421 67.6839 33.5211 67.9266 36.4927C68.6557 45.422 65.8515 53.4085 58.8545 56.8335C55.9745 58.2432 54.1665 56.8719 51.9529 55.193ZM55.7192 60.4116C56.5533 60.5265 58.2233 60.7567 60.1612 59.5264C62.3086 58.1631 60.6675 64.0378 57.3985 64.6628C56.0652 64.9178 54.1327 60.2503 55.438 60.3761C55.5168 60.3837 55.6109 60.3967 55.7191 60.4116L55.7192 60.4116ZM58.6629 34.2684C58.6629 36.3497 56.9757 38.0369 54.8944 38.0369C52.8131 38.0369 51.1259 36.3497 51.1259 34.2684C51.1259 32.1872 52.8131 30.4999 54.8944 30.4999C56.9757 30.4999 58.6629 32.1872 58.6629 34.2684ZM52.2636 40.6677C52.2636 42.749 50.5764 44.4362 48.4951 44.4362C46.4138 44.4362 44.7266 42.749 44.7266 40.6677C44.7266 38.5865 46.4138 36.8993 48.4951 36.8993C50.5764 36.8993 52.2636 38.5865 52.2636 40.6677ZM54.8944 50.8354C56.9757 50.8354 58.6629 49.1482 58.6629 47.067C58.6629 44.9857 56.9757 43.2985 54.8944 43.2985C52.8131 43.2985 51.1259 44.9857 51.1259 47.067C51.1259 49.1482 52.8131 50.8354 54.8944 50.8354ZM65.0622 40.6677C65.0622 42.749 63.375 44.4362 61.2937 44.4362C59.2124 44.4362 57.5252 42.749 57.5252 40.6677C57.5252 38.5865 59.2124 36.8993 61.2937 36.8993C63.375 36.8993 65.0622 38.5865 65.0622 40.6677ZM26.0975 37.326H19.6982V43.8675H26.0975L26.0975 50.2668H32.4968V43.8675L38.8961 43.8675V37.326L32.4968 37.326V30.9267H26.0975L26.0975 37.326Z" fill="white"/>
<path d="M152.464 84.62C152.464 88.3472 151.116 88.9507 149.376 88.9507C146.749 88.9507 146.359 87.9922 146.572 86.4659L148.24 74.2904C147.601 74.1484 146.82 74.1484 146.181 74.2904L145.613 76.5622H145.471C145.187 74.6808 143.164 74.0064 140.289 74.0064C137.272 74.0064 134.858 75.2843 134.396 78.7275L133.402 85.9689C132.941 89.4121 135.284 90.69 138.692 90.69C141.709 90.69 143.59 89.7316 144.265 87.7793H144.407C144.62 89.8736 146.607 90.619 149.021 90.619C152.571 90.619 154.488 89.1991 154.488 85.046V75.7812C154.488 69.6758 149.199 67.5459 140.928 67.5459C132.728 67.5459 127.474 69.6758 127.474 75.7812V88.9152C127.474 94.9142 132.551 97.044 140.892 97.044C142.951 97.044 145.046 96.902 146.82 96.5825C146.927 95.9791 146.927 95.4111 146.785 94.8077C145.01 95.0562 142.987 95.1626 140.928 95.1626C135.035 95.1626 129.533 94.2752 129.533 88.4537V76.1362C129.533 70.1017 135.106 69.3918 140.928 69.3918C146.82 69.3918 152.464 70.1017 152.464 76.1362V84.62ZM144.158 85.7914C143.093 87.7438 142.206 88.4537 139.33 88.4537C137.236 88.4537 135.603 88.0632 135.994 85.188L136.775 79.5084C137.165 76.5977 138.905 76.2072 141.034 76.2072C143.91 76.2072 144.62 76.8462 145.152 78.8695L144.158 85.7914Z" fill="white"/>
<g clip-path="url(#clip0_2173_11734)">
<path d="M153.259 166.106H150.722L150.197 168.69H149.153L151.364 158.236H152.649L154.888 168.69H153.783L153.259 166.106ZM153.079 165.166L151.988 159.729L150.897 165.166H153.079Z" fill="#F4B223"/>
<path d="M161.2 166.597C161.2 168.123 160.364 168.807 158.781 168.807H158.724C157.142 168.807 156.306 168.137 156.306 166.597V158.236H157.383V166.328C157.383 167.419 157.756 167.834 158.757 167.834C159.759 167.834 160.132 167.419 160.132 166.328V158.236H161.209V166.597H161.2Z" fill="#F4B223"/>
<path d="M166.722 161.878V160.503C166.722 159.502 166.32 159.067 165.375 159.067C164.431 159.067 164.034 159.502 164.034 160.503V161.235C164.034 161.939 164.27 162.147 164.974 162.534L166.467 163.356C167.274 163.805 167.808 164.358 167.808 165.236V166.625C167.808 168.151 166.986 168.808 165.404 168.808H165.375C163.793 168.808 162.971 168.165 162.971 166.625V164.892H164.034V166.384C164.034 167.372 164.435 167.849 165.394 167.849C166.353 167.849 166.755 167.372 166.755 166.384V165.548C166.755 164.849 166.486 164.58 165.768 164.174L164.303 163.366C163.391 162.856 162.976 162.426 162.976 161.514V160.258C162.976 158.793 163.93 158.108 165.366 158.108H165.394C166.826 158.108 167.785 158.793 167.785 160.258V161.868H166.726L166.722 161.878Z" fill="#F4B223"/>
<path d="M171.904 160.267C171.904 158.803 172.679 158.118 174.176 158.118H174.204C175.697 158.118 176.472 158.803 176.472 160.267V161.746C176.472 162.823 175.574 163.461 174.502 164.344C173.472 165.194 172.92 165.733 172.92 166.555V167.764H176.472V168.69H171.871V166.526C171.871 165.199 172.811 164.405 173.945 163.508C174.899 162.747 175.423 162.341 175.423 161.642V160.447C175.423 159.474 174.974 159.044 174.153 159.044C173.331 159.044 172.929 159.479 172.929 160.447V161.774H171.899V160.267H171.904Z" fill="#F4B223"/>
<path d="M182.967 160.329V166.597C182.967 168.09 182.117 168.808 180.639 168.808H180.52C179.042 168.808 178.192 168.09 178.192 166.597V160.329C178.192 158.836 179.042 158.118 180.52 158.118H180.639C182.117 158.118 182.967 158.836 182.967 160.329ZM180.577 159.091C179.68 159.091 179.231 159.507 179.231 160.598V166.333C179.231 167.424 179.68 167.839 180.577 167.839C181.475 167.839 181.919 167.424 181.919 166.333V160.598C181.919 159.507 181.47 159.091 180.577 159.091Z" fill="#F4B223"/>
<path d="M184.739 160.267C184.739 158.803 185.513 158.118 187.011 158.118H187.039C188.532 158.118 189.307 158.803 189.307 160.267V161.746C189.307 162.823 188.409 163.461 187.337 164.344C186.307 165.194 185.754 165.733 185.754 166.555V167.764H189.307V168.69H184.706V166.526C184.706 165.199 185.646 164.405 186.779 163.508C187.734 162.747 188.258 162.341 188.258 161.642V160.447C188.258 159.474 187.809 159.044 186.987 159.044C186.165 159.044 185.764 159.479 185.764 160.447V161.774H184.734V160.267H184.739Z" fill="#F4B223"/>
<path d="M190.97 160.267C190.97 158.803 191.744 158.118 193.242 158.118H193.27C194.763 158.118 195.538 158.803 195.538 160.267V161.746C195.538 162.823 194.64 163.461 193.568 164.344C192.538 165.194 191.985 165.733 191.985 166.555V167.764H195.538V168.69H190.937V166.526C190.937 165.199 191.877 164.405 193.01 163.508C193.965 162.747 194.489 162.341 194.489 161.642V160.447C194.489 159.474 194.04 159.044 193.218 159.044C192.396 159.044 191.995 159.479 191.995 160.447V161.774H190.965V160.267H190.97Z" fill="#F4B223"/>
<path d="M94.3134 151.59H86.4623V141.959C86.4623 136.966 90.5249 132.903 95.518 132.903H108.806C111.107 132.903 112.978 131.033 112.978 128.732C112.978 126.432 111.107 124.561 108.806 124.561H86.6843V116.701H108.811C115.444 116.701 120.838 122.096 120.838 128.728C120.838 135.36 115.444 140.754 108.811 140.754H95.518C94.852 140.754 94.3134 141.293 94.3134 141.959V151.59Z" fill="#F4B223"/>
<path d="M148.539 151.613H157.524L144.165 120.843C141.869 114.353 132.35 113.413 129.252 120.721L115.836 151.609H124.82L135.586 125.969C135.993 125 137.363 125 137.769 125.969L148.535 151.609L148.539 151.613Z" fill="#F4B223"/>
<path d="M195.415 116.715H185.816L178.055 129.667C177.606 130.414 176.463 130.414 176.014 129.667L168.248 116.715H158.649L169.457 134.178L158.663 151.618H168.262L176.014 138.689C176.463 137.943 177.606 137.943 178.055 138.689L185.807 151.618H195.406L184.612 134.178L195.415 116.715Z" fill="#F4B223"/>
</g>
<defs>
<clipPath id="clip0_2173_11734">
<rect width="110" height="68" fill="white" transform="translate(86 100.568)"/>
</clipPath>
</defs>
</svg>
