<?xml version="1.0" encoding="utf-8"?>
<!-- Generator: Adobe Illustrator 23.1.1, SVG Export Plug-In . SVG Version: 6.00 Build 0)  -->
<svg version="1.1" id="Layer_1" xmlns="http://www.w3.org/2000/svg" xmlns:xlink="http://www.w3.org/1999/xlink" x="0px" y="0px"
	 viewBox="0 0 657.77 160.28" style="enable-background:new 0 0 657.77 160.28;" xml:space="preserve">
<style type="text/css">
	.st0{fill:#FFFFFF;}
</style>
<g>
	<g>
		<path class="st0" d="M7.84,51.66c10.55,0.01,41.43,0,41.43,0c0-7.78,0.47-15.04,5.86-21.55c4.65-5.61,11.33-8.41,18.45-9.09
			c11.79-1.14,28.64-0.73,35.04,10.93c3.57,6.5,4.13,15.79-0.7,21.73c-2.77,3.41-6.68,5.75-10.9,6.99
			c-6.7,1.96-13.94,2.98-20.88,3.66c-7.03,0.69-14.18,1.61-21.44,2.75c-7.26,1.15-14.46,2.7-21.61,4.65
			c-7.15,1.95-13.5,4.25-19.05,8.15c-2.26,1.59-4.27,3.43-6.19,5.45v67.32h144.99V7.65H7.84V51.66z M111.4,106.58
			c0,8.1-2,26.76-26.17,32.11c-12.1,2.67-31.26,0.41-38.2-11.73c-3.77-6.61-4.27-16.04,0.57-22.24
			c6.41-8.97,19.77-10.96,30.45-12.39c11.39-1.52,22.94-2.63,33.35-7V106.58z"/>
	</g>
	<g>
		<rect x="608.5" y="7.65" class="st0" width="41.42" height="144.99"/>
	</g>
	<g>
		<path class="st0" d="M339.24,152.64h41.43l0-86.8c0-25.57,5.18-45.24,31.07-45.24c25.89,0,31.07,19.68,31.07,45.24l0,86.8h41.42
			l0-86.8c0-25.57,5.18-45.24,31.07-45.24c25.89,0,31.07,19.68,31.07,45.24l0,86.8h41.42l0-144.99H339.24V152.64z"/>
	</g>
	<g>
		<path class="st0" d="M211.77,40.57c3.44-5.8,7.89-10.55,13.35-14.22c5.46-3.67,12.23-5.75,20.3-5.75
			c21.34,0.01,33.53,9.98,36.86,31.07h36.25l0-44.01H173.54V80.1v0.08v72.46h144.99l0-44.02h-36.25
			c-3.33,21.08-15.52,31.07-36.86,31.07c-8.07,0-14.84-2.08-20.3-5.75c-5.46-3.68-9.91-8.42-13.35-14.22
			c-3.44-5.81-5.88-11.95-7.3-18.94c-1.41-6.91-2.12-13.85-2.13-20.63c0.02-6.78,0.73-13.73,2.13-20.63
			C205.89,52.52,208.33,46.37,211.77,40.57z"/>
	</g>
</g>
</svg>
