<svg width="308" height="59" viewBox="0 0 308 59" fill="none" xmlns="http://www.w3.org/2000/svg">
<path d="M93.4939 32.943L93.312 32.852C92.4633 32.6297 91.5639 32.4883 90.6141 32.4276C89.6643 32.367 88.6942 32.2356 87.704 32.0336C88.674 32.2356 89.6238 32.3973 90.5535 32.5186C91.4831 32.6196 92.4026 32.8217 93.312 33.1249C93.0291 33.3067 92.726 33.3977 92.4026 33.3977C92.0186 33.3573 91.6347 33.2966 91.2507 33.2158C90.8869 33.135 90.4928 33.0743 90.0684 33.0339C90.0684 32.9127 90.0988 32.8217 90.1594 32.7611C89.5733 32.7611 88.9872 32.7005 88.4012 32.5792C87.8353 32.4579 87.2796 32.3266 86.7339 32.1851C86.1883 32.0234 85.6527 31.882 85.1273 31.7607C84.622 31.6193 84.1471 31.5485 83.7025 31.5485C83.7025 31.6092 83.6924 31.6395 83.6722 31.6395C84.1976 31.7405 84.6928 31.882 85.1576 32.0639C85.6224 32.2458 86.1478 32.3872 86.7339 32.4883C87.2998 32.6297 87.8454 32.7308 88.3709 32.7914C88.9165 32.852 89.4521 32.9329 89.9775 33.0339C89.1287 32.9531 88.2597 32.8318 87.3705 32.6701C86.5015 32.5085 85.6426 32.3266 84.7938 32.1245L83.3691 31.7607C82.8638 33.0541 82.3485 34.3273 81.823 35.5803C81.3178 36.8131 80.8227 38.066 80.3377 39.3392C80.2972 39.2584 80.2265 39.2079 80.1255 39.1877C80.0446 39.1877 79.9537 39.1877 79.8526 39.1877C79.7718 39.1877 79.691 39.1573 79.6101 39.0967C79.5293 39.0563 79.4889 38.9552 79.4889 38.7936C79.4889 38.6319 79.5293 38.3995 79.6101 38.0964C79.691 37.8134 79.8425 37.4294 80.0648 36.9444C80.0244 36.904 79.9537 36.8838 79.8526 36.8838C79.7718 36.8636 79.7112 36.8535 79.6707 36.8535C79.2666 37.7023 78.8725 38.349 78.4885 38.7936C78.1247 39.2584 77.8317 39.4908 77.6094 39.4908C77.3669 39.4908 77.2456 39.2584 77.2456 38.7936C77.2456 38.4096 77.3164 37.9246 77.4578 37.3385C77.5993 36.7322 77.7711 36.0855 77.9732 35.3984C78.1955 34.7113 78.438 34.004 78.7007 33.2764C78.9634 32.5287 79.216 31.8011 79.4585 31.0938C79.2362 30.9524 78.9937 30.8513 78.731 30.7907C78.4885 30.7301 78.2157 30.6795 77.9125 30.6391C77.9732 30.5583 78.0035 30.4572 78.0035 30.336C78.0035 30.2147 78.0136 30.0935 78.0338 29.9722C78.054 29.8509 78.0944 29.7499 78.155 29.6691C78.2157 29.5882 78.3268 29.5478 78.4885 29.5478C78.5289 29.5478 78.6502 29.568 78.8523 29.6084V29.3356C78.5289 29.1739 78.2763 28.9819 78.0944 28.7596C77.9327 28.5373 77.8519 28.315 77.8519 28.0927C77.8519 27.6077 78.3167 27.3652 79.2463 27.3652C79.5091 27.3652 79.7718 27.3854 80.0345 27.4258C80.3174 27.446 80.6004 27.4763 80.8833 27.5168L82.2777 24.3338C82.5809 23.6467 82.9042 22.9394 83.2478 22.2118C83.6116 21.4843 84.036 20.7669 84.521 20.0595C85.006 19.3522 85.5517 18.6853 86.1579 18.0588C86.7844 17.4121 87.5019 16.8361 88.3102 16.3309L88.7649 16.149C89.3308 16.2905 89.7855 16.4117 90.1291 16.5128C90.4928 16.5936 90.7859 16.6543 91.0082 16.6947C91.2103 16.7755 91.3719 16.826 91.4932 16.8462H91.4629L91.4932 16.9372C91.4932 16.9574 91.4831 16.9776 91.4629 16.9978L91.8267 17.6344C93.1403 19.8372 94.2518 22.1209 95.1612 24.4854C96.0706 26.8499 96.8487 29.1739 97.4954 31.4576C97.657 31.9628 97.849 32.5085 98.0713 33.0945C98.3139 33.6604 98.5362 34.2061 98.7382 34.7315C98.9606 35.2367 99.1424 35.7015 99.2839 36.1259C99.4254 36.5301 99.4961 36.8232 99.4961 37.005C99.4961 37.1465 99.4658 37.2375 99.4052 37.2779C99.3445 37.2981 99.2637 37.3082 99.1626 37.3082C98.6372 35.9946 98.1421 34.7012 97.6773 33.428C97.2124 32.175 96.7577 30.9119 96.3131 29.6387C96.7173 30.9119 97.1417 32.175 97.5863 33.428C98.0511 34.7012 98.5159 35.9946 98.9808 37.3082H98.7686C98.6473 37.3082 98.5665 37.3688 98.5261 37.4901C98.5665 37.5305 98.617 37.6416 98.6776 37.8235C98.7382 37.9852 98.7989 38.157 98.8595 38.3389C98.9201 38.541 98.9707 38.7431 99.0111 38.9451C99.0515 39.1472 99.0717 39.2988 99.0717 39.3999C99.0717 39.8445 98.9403 40.0668 98.6776 40.0668C98.5362 40.0668 98.425 40.0364 98.3442 39.9758C98.2633 39.9152 98.1724 39.8344 98.0713 39.7333L97.7682 39.4302C97.6469 39.3089 97.4954 39.1877 97.3135 39.0664L94.4033 30.6997C94.8277 32.0133 95.242 33.327 95.6462 34.6406C96.0706 35.9542 96.5051 37.2476 96.9497 38.5207C96.6264 38.1368 96.3232 37.672 96.0403 37.1263C95.7776 36.5807 95.525 36.0047 95.2825 35.3984C95.0601 34.7921 94.848 34.1757 94.6459 33.5493C94.4438 32.9026 94.2417 32.2963 94.0396 31.7304C94.0396 31.7708 94.0396 31.8113 94.0396 31.8517C94.0598 31.8719 94.0699 31.9022 94.0699 31.9426C94.0699 32.266 93.9688 32.5085 93.7668 32.6701L93.4939 32.943ZM93.312 29.7903C93.3525 29.7903 93.4131 29.7802 93.4939 29.76C93.5748 29.7196 93.6354 29.6994 93.6758 29.6994C93.0089 28.022 92.342 26.3951 91.6751 24.8188C91.0284 23.2425 90.311 21.7268 89.5228 20.2717L89.3409 20.4536L89.7956 21.2721C90.5029 22.5655 91.1395 23.8993 91.7054 25.2735C92.2713 26.6478 92.8068 28.0624 93.312 29.5175C92.726 27.9412 92.0894 26.3749 91.4023 24.8188C90.7354 23.2425 90.0179 21.8177 89.25 20.5445L89.1287 20.6052C88.4416 21.3125 87.7949 22.1613 87.1886 23.1516C86.6025 24.1418 86.0468 25.1523 85.5213 26.183L84.7332 28.0927L85.2485 28.214C85.5517 28.2948 85.8447 28.3858 86.1276 28.4868C86.4308 28.5677 86.6935 28.6586 86.9158 28.7596C87.3604 28.9819 87.9465 29.1537 88.674 29.275C89.4015 29.3962 90.1089 29.5175 90.796 29.6387C91.5033 29.7398 92.1096 29.8611 92.6148 30.0025C93.1403 30.1238 93.403 30.3057 93.403 30.5482L89.7047 30.1238C89.927 30.1642 90.1998 30.2147 90.5232 30.2753C90.8465 30.3158 91.1699 30.3663 91.4932 30.4269C91.8368 30.4875 92.1702 30.5482 92.4936 30.6088C92.8169 30.6492 93.0897 30.6896 93.312 30.7301C93.312 30.7907 93.3019 30.8513 93.2817 30.9119C93.2817 30.9524 93.2817 30.9928 93.2817 31.0332C93.2817 31.0736 93.3019 31.1039 93.3424 31.1241C93.403 31.1241 93.4636 31.1342 93.5242 31.1544C93.6051 31.1544 93.6758 31.1747 93.7364 31.2151C93.7971 31.2353 93.8577 31.2959 93.9183 31.397L93.312 29.7903ZM86.7339 23.3031C86.7743 23.3031 86.7844 23.3334 86.7642 23.3941C86.7642 23.4345 86.7743 23.4547 86.7945 23.4547C86.835 23.4547 86.9562 23.3132 87.1583 23.0303C87.3604 22.7474 87.5928 22.424 87.8555 22.0602C88.1182 21.6965 88.3709 21.3529 88.6134 21.0296C88.8559 20.7062 89.0277 20.494 89.1287 20.393L88.9771 20.1808C88.5527 20.585 88.1587 21.0599 87.7949 21.6055C87.4311 22.1512 87.0775 22.7171 86.7339 23.3031ZM89.7956 20.0292C90.4423 21.1205 91.0385 22.2623 91.5841 23.4547C92.1096 24.6268 92.6047 25.799 93.0695 26.9711C92.6856 25.799 92.2207 24.6268 91.6751 23.4547C91.1092 22.2623 90.4928 21.1205 89.8259 20.0292H89.7956ZM94.4337 24.5763C95.0601 26.1931 95.6765 27.8401 96.2828 29.5175C95.717 27.8805 95.1208 26.2638 94.4943 24.6673C93.9082 23.0909 93.2312 21.5045 92.4633 19.908C93.1908 21.4439 93.8476 23 94.4337 24.5763ZM89.9775 19.3623C90.2402 19.4229 90.4221 19.4836 90.5232 19.5442C90.6242 19.6048 90.6949 19.6351 90.7354 19.6351L90.7657 19.5442C90.7859 19.5442 90.7455 19.5341 90.6444 19.5139C90.5434 19.4937 90.4625 19.4735 90.4019 19.4532L90.4625 19.332L90.0988 19.2107L89.9775 19.3623ZM88.4921 19.0592L88.7346 19.6958L88.7043 19.0592C88.6639 19.0592 88.6134 19.0491 88.5527 19.0288C88.5123 19.0086 88.4719 18.9985 88.4315 18.9985L88.4921 19.0592ZM89.2803 19.9383L89.0681 20.0898L89.25 20.3323L89.4319 20.1505L89.2803 19.9383ZM89.7047 19.8776H89.735L89.5834 19.6654V19.6958L89.7047 19.8776ZM117.909 19.4229L117.818 19.9686C117.717 20.9588 117.657 22.0198 117.636 23.1516C117.616 24.2631 117.535 25.3847 117.394 26.5164C117.556 25.4049 117.687 24.3136 117.788 23.2425C117.889 22.131 117.99 21.0397 118.091 19.9686C118.192 20.2919 118.273 20.6355 118.334 20.9993C118.414 21.363 118.455 21.747 118.455 22.1512C118.354 23.1617 118.263 24.1317 118.182 25.0613C118.101 25.991 117.99 26.961 117.849 27.9715L117.455 28.0624C117.353 28.992 117.141 30.0025 116.818 31.0938C116.495 32.1851 116.02 33.1956 115.393 34.1252C114.787 35.0548 113.999 35.8329 113.029 36.4594C112.059 37.0657 110.897 37.3688 109.543 37.3688C109.098 37.3688 108.623 37.3385 108.118 37.2779C107.633 37.197 107.158 37.0859 106.693 36.9444C106.228 36.7827 105.784 36.5807 105.359 36.3381C104.935 36.0956 104.571 35.7925 104.268 35.4287L104.298 35.4893V35.5197L104.268 35.55L104.177 35.5197C104.298 35.7015 104.43 35.8632 104.571 36.0047C104.207 35.6813 103.874 35.3075 103.571 34.8831C103.065 34.196 102.661 33.3775 102.358 32.4276C102.176 31.8618 102.035 31.2858 101.934 30.6997C101.833 30.1137 101.762 29.4973 101.722 28.8506C101.681 28.1837 101.651 27.4662 101.631 26.6983C101.631 25.9303 101.631 25.0815 101.631 24.1519C101.813 23.4244 101.954 22.6968 102.055 21.9693C102.156 21.2418 102.227 20.5142 102.267 19.7867C102.328 19.7867 102.399 19.7766 102.479 19.7564C102.56 19.7362 102.641 19.7261 102.722 19.7261C102.863 19.7261 102.985 19.8069 103.086 19.9686C103.207 20.1303 103.268 20.4738 103.268 20.9993V21.2721C103.268 21.3529 103.257 21.4439 103.237 21.5449H103.601C103.763 20.6961 103.955 20.0494 104.177 19.6048C104.399 19.1602 104.622 18.9379 104.844 18.9379C105.006 18.9379 105.147 19.1703 105.268 19.6351C105.41 20.0797 105.481 20.7871 105.481 21.7571C105.481 22.4644 105.46 23.1819 105.42 23.9094C105.379 24.6369 105.359 25.3847 105.359 26.1526C105.359 27.345 105.41 28.4262 105.511 29.3962C105.632 30.3663 105.854 31.1949 106.178 31.882C106.501 32.5691 106.956 33.1046 107.542 33.4886C108.148 33.8524 108.926 34.0343 109.876 34.0343C110.664 34.0343 111.321 33.7918 111.846 33.3067C112.372 32.8217 112.816 32.175 113.18 31.3666C113.544 30.5583 113.847 29.6286 114.09 28.5778C114.352 27.5067 114.595 26.3951 114.817 25.2432C114.858 24.9199 114.888 24.5965 114.908 24.2732C114.928 23.9498 114.938 23.6164 114.938 23.2728V22.3331C114.938 21.747 114.969 21.2519 115.029 20.8477C115.09 20.4435 115.262 20.2111 115.545 20.1505C115.545 21.1811 115.514 22.2017 115.454 23.2122C115.413 24.1822 115.333 25.1523 115.211 26.1223C115.353 25.1725 115.464 24.2226 115.545 23.2728C115.626 22.2826 115.686 21.2721 115.727 20.2414C115.848 20.3222 115.949 20.3627 116.03 20.3627C116.111 20.3627 116.191 20.3222 116.272 20.2414V19.1501C116.373 18.7863 116.474 18.5337 116.575 18.3923C116.676 18.2306 116.788 18.1497 116.909 18.1497C117.03 18.1497 117.151 18.2104 117.273 18.3316C117.394 18.4529 117.515 18.6045 117.636 18.7863L117.909 19.4229ZM105.39 36.611C105.875 36.8737 106.37 37.0859 106.875 37.2476C107.4 37.389 107.885 37.4901 108.33 37.5507C108.795 37.6113 109.169 37.6416 109.452 37.6416C110.866 37.6416 112.069 37.3284 113.059 36.7019C114.049 36.0754 114.858 35.2974 115.484 34.3677C116.131 33.4179 116.626 32.4074 116.97 31.3363C117.293 30.3259 117.535 29.3962 117.697 28.5474C117.556 29.3962 117.333 30.336 117.03 31.3666C116.687 32.4579 116.191 33.4785 115.545 34.4284C114.918 35.3782 114.12 36.1765 113.15 36.8232C112.18 37.4699 111.008 37.7932 109.634 37.7932C108.866 37.7932 108.108 37.6922 107.36 37.4901C106.612 37.288 105.915 36.9747 105.268 36.5503C105.309 36.5705 105.349 36.5908 105.39 36.611ZM117 29.1537C117.06 28.8102 117.111 28.4767 117.151 28.1534C117.192 27.8704 117.232 27.5875 117.273 27.3046C117.151 28.1938 116.949 29.1335 116.666 30.1238C116.383 31.1544 115.989 32.1346 115.484 33.0642C114.979 33.9736 114.342 34.782 113.574 35.4893C112.847 36.1563 111.998 36.611 111.028 36.8535C111.877 36.6716 112.635 36.3179 113.302 35.7925C113.989 35.2468 114.575 34.6102 115.06 33.8827C115.545 33.1552 115.939 32.3771 116.242 31.5485C116.565 30.7199 116.818 29.9217 117 29.1537ZM113.999 31.2757C113.776 31.7203 113.524 32.1447 113.241 32.5489C112.978 32.9531 112.675 33.3168 112.331 33.6402C112.695 33.3371 113.008 32.9834 113.271 32.5792C113.554 32.175 113.797 31.7405 113.999 31.2757ZM105.268 36.5503C105.026 36.3887 104.793 36.2068 104.571 36.0047C104.793 36.2068 105.026 36.3887 105.268 36.5503ZM117.727 28.3352L117.697 28.5474L117.727 28.3352ZM117.303 27.153C117.283 27.2136 117.273 27.2642 117.273 27.3046C117.273 27.2642 117.283 27.2136 117.303 27.153ZM124.011 33.0036C124.334 33.1046 124.718 33.2865 125.163 33.5493C125.627 33.812 126.143 34.0848 126.709 34.3677C127.274 34.6507 127.891 34.9033 128.558 35.1256C129.245 35.3479 129.972 35.459 130.74 35.459H131.074C131.195 35.459 131.337 35.4388 131.498 35.3984L131.832 35.6409C132.62 35.3984 133.267 34.9437 133.772 34.2768C134.277 33.5897 134.53 32.6701 134.53 31.5182C134.53 30.6896 134.328 30.1238 133.923 29.8206C133.539 29.4973 132.822 29.3356 131.771 29.3356C131.124 29.3356 130.447 29.3861 129.74 29.4872C129.053 29.568 128.325 29.6084 127.557 29.6084C127.214 29.6084 126.86 29.5983 126.496 29.5781C126.133 29.5377 125.759 29.467 125.375 29.3659V29.5478C126.183 29.7499 126.981 29.8509 127.77 29.8509C128.538 29.8509 129.265 29.8105 129.952 29.7297C130.66 29.6286 131.337 29.5781 131.983 29.5781C132.529 29.5781 132.953 29.6387 133.256 29.76C133.58 29.8611 133.822 30.0025 133.984 30.1844C134.146 30.3663 134.247 30.5886 134.287 30.8513C134.348 31.0938 134.378 31.3666 134.378 31.6698C134.378 32.6196 134.125 33.428 133.62 34.0949C133.135 34.7214 132.559 35.1155 131.892 35.2772C132.64 35.0144 133.226 34.5597 133.65 33.913C134.095 33.2259 134.317 32.4579 134.317 31.6092C134.317 31.0029 134.156 30.5381 133.832 30.2147C133.529 29.8914 132.994 29.7297 132.226 29.7297C131.599 29.7297 130.892 29.7701 130.104 29.8509C129.316 29.9318 128.477 29.9722 127.588 29.9722C127.042 29.9722 126.405 29.9015 125.678 29.76C124.971 29.6185 124.294 29.3558 123.647 28.9718C123 28.5879 122.455 28.0624 122.01 27.3955C121.565 26.7084 121.343 25.8192 121.343 24.7279C121.343 23.8589 121.515 23.0606 121.858 22.3331C122.222 21.5853 122.697 20.9386 123.283 20.393C123.869 19.8271 124.536 19.3825 125.284 19.0592C126.052 18.7358 126.84 18.564 127.648 18.5438C128.416 18.5438 129.144 18.655 129.831 18.8773C130.538 19.0794 131.205 19.3522 131.832 19.6958C132.458 20.0191 133.054 20.3829 133.62 20.7871C134.186 21.1912 134.711 21.5954 135.197 21.9996L134.59 22.6059C134.449 22.6059 134.237 22.5251 133.954 22.3634C133.671 22.1815 133.236 21.8784 132.65 21.454L132.468 21.7268C133.196 22.3129 133.721 22.8585 134.045 23.3637C134.388 23.869 134.56 24.2631 134.56 24.546C134.52 24.7077 134.418 24.7885 134.257 24.7885C134.095 24.7885 133.772 24.6571 133.287 24.3944C132.802 24.1317 132.246 23.8387 131.619 23.5153C131.013 23.192 130.366 22.8989 129.679 22.6362C128.992 22.3735 128.366 22.2421 127.8 22.2421C127.477 22.2421 127.153 22.3028 126.83 22.424C126.507 22.5453 126.213 22.7171 125.951 22.9394C125.688 23.1414 125.466 23.3941 125.284 23.6972C125.122 24.0003 125.041 24.3338 125.041 24.6976C125.041 25.2836 125.314 25.6777 125.86 25.8798C126.405 26.0819 127.123 26.183 128.012 26.183C128.194 26.183 128.386 26.183 128.588 26.183C128.81 26.1627 129.012 26.1324 129.194 26.092C129.659 26.092 129.962 26.0819 130.104 26.0617C130.265 26.0213 130.417 26.0011 130.558 26.0011C131.427 26.0011 132.296 26.0617 133.165 26.183C134.034 26.3042 134.813 26.5669 135.5 26.9711C136.187 27.3753 136.743 27.9513 137.167 28.699C137.591 29.4468 137.804 30.4471 137.804 31.7001C137.804 32.5691 137.652 33.4381 137.349 34.3071C137.066 35.1559 136.631 35.9238 136.045 36.611C135.459 37.2779 134.732 37.8134 133.863 38.2176C132.994 38.642 131.973 38.8542 130.801 38.8542C130.094 38.8542 129.255 38.7127 128.285 38.4298C127.335 38.1671 126.426 37.8538 125.557 37.4901C124.708 37.1061 123.98 36.712 123.374 36.3078C122.788 35.9036 122.495 35.5601 122.495 35.2772C122.495 35.1963 122.545 35.1357 122.647 35.0953C123.879 36.0047 125.132 36.7524 126.405 37.3385C127.658 37.8842 128.942 38.1873 130.255 38.2479C129.609 38.2075 128.962 38.0964 128.315 37.9145C127.648 37.7124 126.981 37.4699 126.315 37.1869C125.668 36.8838 125.041 36.5503 124.435 36.1866C123.849 35.8026 123.283 35.4186 122.737 35.0346L123.192 34.6406C123.132 34.6203 123.02 34.5496 122.859 34.4284C122.697 34.3071 122.535 34.1555 122.374 33.9736C122.232 33.7918 122.101 33.5998 121.98 33.3977C121.858 33.1956 121.798 33.0036 121.798 32.8217C121.798 32.6196 121.838 32.4883 121.919 32.4276C122 32.367 122.091 32.3367 122.192 32.3367C122.293 32.3367 122.505 32.4074 122.828 32.5489C123.152 32.6904 123.546 32.8419 124.011 33.0036ZM130.71 36.0956C130.003 36.0956 129.215 35.9542 128.346 35.6712C127.497 35.3681 126.688 34.9841 125.92 34.5193C126.547 34.9437 127.244 35.3277 128.012 35.6712C128.78 35.9946 129.669 36.1563 130.68 36.1563C132.034 36.1563 133.105 35.742 133.893 34.9134C134.701 34.0848 135.106 32.9733 135.106 31.5788V31.2757C135.005 30.629 134.782 30.1036 134.439 29.6994C134.115 29.275 133.61 29.0426 132.923 29.0022C133.347 29.083 133.691 29.2144 133.954 29.3962C134.237 29.5781 134.449 29.8004 134.59 30.0631C134.752 30.3057 134.863 30.5785 134.924 30.8816C134.984 31.1848 135.015 31.498 135.015 31.8214C134.934 33.1552 134.509 34.2061 133.741 34.974C132.973 35.7218 131.963 36.0956 130.71 36.0956ZM134.56 37.2779C135.065 36.9545 135.469 36.5604 135.772 36.0956C136.076 35.6308 136.338 35.1458 136.561 34.6406C136.136 35.4893 135.55 36.2371 134.802 36.8838C134.075 37.5305 133.206 37.9347 132.195 38.0964C132.579 38.0357 132.973 37.9549 133.378 37.8538C133.802 37.7326 134.196 37.5406 134.56 37.2779ZM137.44 31.5788C137.44 31.3565 137.399 31.1443 137.318 30.9422C137.258 30.7806 137.207 30.6088 137.167 30.4269L137.197 30.821C137.217 30.9827 137.228 31.205 137.228 31.4879C137.228 32.0336 137.167 32.559 137.046 33.0642C136.924 33.5695 136.773 34.0646 136.591 34.5496C136.773 34.105 136.945 33.6402 137.106 33.1552C137.288 32.6499 137.399 32.1245 137.44 31.5788ZM137.167 30.336C137.167 30.3562 137.167 30.3865 137.167 30.4269C137.167 30.3865 137.167 30.3562 137.167 30.336ZM131.862 35.3075C131.842 35.3075 131.822 35.3075 131.801 35.3075C131.822 35.3075 131.842 35.3075 131.862 35.3075ZM139.761 35.8531C139.761 35.7319 139.832 35.6207 139.973 35.5197C140.115 35.4186 140.276 35.3277 140.458 35.2468C140.66 35.166 140.852 35.0953 141.034 35.0346C141.236 34.974 141.388 34.9235 141.489 34.8831C142.459 35.0043 143.429 35.1054 144.399 35.1862C145.369 35.267 146.339 35.3075 147.309 35.3075C147.673 35.3075 148.178 35.3075 148.825 35.3075C149.472 35.2873 150.179 35.2468 150.947 35.1862C151.715 35.1256 152.493 35.0346 153.281 34.9134C154.069 34.7719 154.787 34.5799 155.433 34.3374C156.08 34.0949 156.606 33.7918 157.01 33.428C157.414 33.0642 157.616 32.6095 157.616 32.0639C157.616 31.6193 157.515 31.2252 157.313 30.8816C157.131 30.5179 156.878 30.2046 156.555 29.9419C156.252 29.659 155.908 29.4265 155.524 29.2447C155.383 29.1638 155.231 29.0931 155.07 29.0325C155.231 29.1133 155.383 29.1941 155.524 29.275C155.888 29.4771 156.212 29.7297 156.494 30.0328C156.798 30.3158 157.04 30.6391 157.222 31.0029C157.404 31.3464 157.495 31.7405 157.495 32.1851C157.495 32.6701 157.313 33.0844 156.949 33.428C156.606 33.7513 156.151 34.0242 155.585 34.2465C155.039 34.4688 154.423 34.6406 153.736 34.7618C153.069 34.8831 152.402 34.974 151.735 35.0346C151.068 35.0953 150.452 35.1357 149.886 35.1559C149.32 35.1559 148.876 35.1559 148.552 35.1559C147.522 35.1559 146.481 35.1256 145.43 35.065C144.399 34.9841 143.369 34.8932 142.338 34.7921C142.702 34.6911 143.065 34.6203 143.429 34.5799C143.813 34.5193 144.197 34.489 144.581 34.489C145.228 34.489 145.864 34.4991 146.491 34.5193C147.117 34.5193 147.744 34.5193 148.37 34.5193C149.118 34.5193 149.856 34.5092 150.583 34.489C151.311 34.4486 152.059 34.3677 152.826 34.2465L152.917 34.6102C153.221 34.5496 153.605 34.4587 154.069 34.3374C154.534 34.196 154.979 34.0242 155.403 33.8221C155.848 33.62 156.222 33.3674 156.525 33.0642C156.848 32.7611 157.01 32.4074 157.01 32.0032C157.01 31.4172 156.798 30.9018 156.373 30.4572C155.949 30.0126 155.403 29.6185 154.736 29.275C154.09 28.9112 153.352 28.598 152.523 28.3352C151.695 28.0725 150.876 27.8401 150.068 27.638C149.28 27.4359 148.532 27.254 147.825 27.0924C147.117 26.9307 146.551 26.7791 146.127 26.6377V26.8195C146.551 26.9812 147.107 27.153 147.794 27.3349C148.481 27.4966 149.219 27.6784 150.007 27.8805C150.816 28.0826 151.624 28.315 152.432 28.5778C153.241 28.8203 153.968 29.1133 154.615 29.4569C155.282 29.8004 155.817 30.1945 156.222 30.6391C156.646 31.0837 156.858 31.5889 156.858 32.1548C156.858 32.4782 156.707 32.7611 156.404 33.0036C156.1 33.2461 155.737 33.4583 155.312 33.6402C154.908 33.8019 154.494 33.9332 154.069 34.0343C153.645 34.1353 153.322 34.2061 153.099 34.2465C153.362 34.1858 153.695 34.105 154.1 34.004C154.524 33.8827 154.928 33.7311 155.312 33.5493C155.716 33.3674 156.06 33.1552 156.343 32.9127C156.626 32.6499 156.767 32.3468 156.767 32.0032C156.767 31.4374 156.545 30.9625 156.1 30.5785C155.656 30.1945 155.07 29.8509 154.342 29.5478C153.615 29.2447 152.786 28.9718 151.856 28.7293C150.927 28.4868 149.967 28.2241 148.977 27.9412C148.007 27.6582 147.057 27.3349 146.127 26.9711C145.197 26.6073 144.369 26.1526 143.641 25.607C142.914 25.0613 142.328 24.4146 141.883 23.6669C141.439 22.9191 141.216 22.0198 141.216 20.9689C141.216 19.9383 141.459 19.0693 141.944 18.3619C142.449 17.6344 143.086 17.0483 143.854 16.6037C144.642 16.1389 145.501 15.8055 146.43 15.6034C147.36 15.4013 148.259 15.3002 149.128 15.3002C150.401 15.3002 151.644 15.4821 152.857 15.8459C154.09 16.2096 155.252 16.7149 156.343 17.3616C156.222 17.402 156.151 17.4626 156.131 17.5435C156.11 17.6041 156.09 17.6748 156.07 17.7557C156.07 17.8365 156.05 17.9072 156.009 17.9679C155.989 18.0285 155.929 18.0588 155.828 18.0588C155.747 18.0588 155.585 18.0285 155.343 17.9679C155.12 17.887 154.878 17.8062 154.615 17.7253C154.352 17.6243 154.1 17.5334 153.857 17.4525C153.615 17.3717 153.453 17.3111 153.372 17.2706L153.281 17.5435C153.463 17.6243 153.695 17.7456 153.978 17.9072C154.282 18.0487 154.564 18.2306 154.827 18.4529C155.11 18.655 155.343 18.8773 155.524 19.1198C155.727 19.3623 155.828 19.6048 155.828 19.8473C155.828 20.11 155.706 20.2414 155.464 20.2414C155.161 20.2414 154.797 20.1606 154.372 19.9989C153.968 19.8372 153.514 19.6654 153.008 19.4836C152.503 19.2815 151.957 19.0996 151.371 18.9379C150.806 18.7762 150.23 18.6954 149.644 18.6954C149.26 18.6954 148.805 18.7358 148.279 18.8167C147.774 18.8773 147.279 19.0086 146.794 19.2107C146.329 19.3926 145.935 19.6553 145.612 19.9989C145.288 20.3222 145.127 20.7365 145.127 21.2418C145.127 21.7066 145.339 22.1007 145.763 22.424C146.208 22.7474 146.784 23.0404 147.491 23.3031C148.219 23.5658 149.037 23.8185 149.947 24.061C150.856 24.3035 151.786 24.5763 152.736 24.8794C153.706 25.1624 154.645 25.4958 155.555 25.8798C156.464 26.2638 157.273 26.7286 157.98 27.2743C158.707 27.8199 159.283 28.4666 159.708 29.2144C160.152 29.9621 160.375 30.8412 160.375 31.8517C160.375 32.8419 160.173 33.6806 159.768 34.3677C159.364 35.0548 158.829 35.6308 158.162 36.0956C157.495 36.5402 156.737 36.8939 155.888 37.1566C155.039 37.3991 154.16 37.5911 153.251 37.7326C152.362 37.8538 151.472 37.9246 150.583 37.9448C149.714 37.9852 148.926 38.0054 148.219 38.0054H145.187C145.005 38.0054 144.753 37.9953 144.429 37.9751C144.126 37.9751 143.823 37.9549 143.52 37.9145C143.217 37.8943 142.954 37.8437 142.732 37.7629C142.51 37.6821 142.398 37.581 142.398 37.4598L142.429 37.3082C143.257 37.3486 144.076 37.389 144.884 37.4294C145.693 37.4497 146.511 37.4598 147.34 37.4598C148.108 37.4598 148.876 37.4598 149.644 37.4598C150.331 37.4395 151.018 37.3991 151.705 37.3385C151.361 37.3587 151.018 37.3789 150.674 37.3991C150.25 37.3991 149.835 37.3991 149.431 37.3991H148.219C146.319 37.3991 144.45 37.3385 142.611 37.2172C142.651 37.0556 142.671 36.9444 142.671 36.8838C142.671 36.803 142.651 36.7221 142.611 36.6413C142.57 36.6413 142.51 36.6514 142.429 36.6716C142.368 36.6716 142.287 36.6716 142.186 36.6716C141.964 36.6716 141.711 36.6615 141.428 36.6413C141.166 36.6211 140.903 36.5807 140.64 36.52C140.398 36.4594 140.186 36.3786 140.004 36.2775C139.842 36.1563 139.761 36.0148 139.761 35.8531ZM158.374 35.065C158.03 35.3681 157.667 35.6207 157.283 35.8228C156.939 36.0047 156.585 36.1765 156.222 36.3381C156.585 36.2169 156.939 36.0754 157.283 35.9137C157.667 35.7521 158.03 35.4691 158.374 35.065ZM165.284 46.6752C165.325 45.5435 165.355 44.4219 165.375 43.3104C165.395 42.2191 165.406 41.057 165.406 39.8243C165.406 39.2988 165.395 38.7734 165.375 38.2479C165.355 37.7427 165.325 37.2476 165.284 36.7625V40.0971C165.284 41.2086 165.264 42.31 165.224 43.4013C165.204 44.5128 165.133 45.6041 165.012 46.6752C164.91 46.4933 164.82 46.3013 164.739 46.0992C164.658 45.9174 164.597 45.7153 164.557 45.493C164.597 44.9473 164.617 44.4421 164.617 43.9773C164.638 43.5327 164.648 43.0375 164.648 42.4919L165.012 42.31C164.951 41.8856 164.91 41.4511 164.89 41.0065C164.87 40.5821 164.86 40.1577 164.86 39.7333C164.86 39.2685 164.86 38.8138 164.86 38.3692C164.88 37.9448 164.89 37.5002 164.89 37.0354C164.89 36.4695 164.87 35.9137 164.83 35.3681C164.809 34.8022 164.749 34.2364 164.648 33.6705H164.557C164.597 34.5193 164.628 35.358 164.648 36.1866C164.688 37.0152 164.708 37.8437 164.708 38.6723C164.708 39.0361 164.698 39.3999 164.678 39.7636L164.648 40.5518C164.607 38.6117 164.537 36.712 164.436 34.8528C164.355 32.8722 164.213 30.8412 164.011 28.7596L164.132 26.2436C163.91 26.2234 163.678 26.2133 163.435 26.2133H162.738L162.647 25.516C162.647 25.415 162.718 25.3241 162.859 25.2432C163.001 25.1624 163.284 25.122 163.708 25.122H164.011V24.7582C163.344 24.6774 162.819 24.5359 162.435 24.3338C162.071 24.1317 161.889 23.9195 161.889 23.6972C161.889 23.4951 162.071 23.3233 162.435 23.1819C162.799 23.0202 163.263 22.8989 163.829 22.8181C164.415 22.7171 165.052 22.6463 165.739 22.6059C166.426 22.5655 167.093 22.5453 167.74 22.5453C168.447 22.5453 169.205 22.5655 170.013 22.6059C170.842 22.6463 171.67 22.7474 172.499 22.909C173.328 23.0707 174.126 23.3233 174.894 23.6669C175.682 23.9902 176.389 24.4551 177.016 25.0613C177.642 25.6474 178.158 26.3951 178.562 27.3046C178.986 28.1938 179.259 29.2851 179.38 30.5785C179.38 31.6698 179.138 32.5691 178.653 33.2764C178.188 33.9635 177.622 34.5193 176.955 34.9437C176.288 35.3681 175.591 35.6712 174.864 35.8531C174.156 36.035 173.57 36.1563 173.105 36.2169C172.641 36.3179 172.105 36.4392 171.499 36.5807C170.892 36.7019 170.377 36.7625 169.953 36.7625C169.488 36.7625 169.215 36.712 169.134 36.611C169.053 36.5099 169.013 36.3786 169.013 36.2169C169.922 36.1765 170.832 36.1057 171.741 36.0047C172.651 35.8834 173.56 35.6813 174.469 35.3984C173.56 35.6207 172.651 35.7925 171.741 35.9137C170.832 36.0148 169.922 36.0855 169.013 36.1259C169.013 36.0047 169.003 35.8834 168.983 35.7622C168.962 35.6207 168.902 35.55 168.801 35.55C168.599 35.55 168.437 35.8733 168.316 36.52C168.215 37.1667 168.134 37.9347 168.073 38.8239C168.033 39.7333 168.002 40.6629 167.982 41.6128C167.982 42.5626 167.982 43.3508 167.982 43.9773C167.982 44.2602 167.992 44.5532 168.013 44.8564C168.053 45.1797 168.073 45.4526 168.073 45.6749C168.073 45.8769 168.043 46.0487 167.982 46.1902C167.922 46.3317 167.75 46.4024 167.467 46.4024V42.5828C167.427 43.2295 167.396 43.8661 167.376 44.4926C167.376 45.1191 167.376 45.7557 167.376 46.4024H166.83V46.6449C166.83 46.8268 166.861 46.9581 166.921 47.039C166.699 47.423 166.446 47.6149 166.163 47.6149C165.941 47.6149 165.769 47.5543 165.648 47.4331C165.547 47.3118 165.395 47.1501 165.193 46.948L165.284 46.6752ZM168.225 34.0343H168.649C169.357 34.0343 170.165 33.9939 171.074 33.913C172.004 33.8322 172.873 33.6806 173.681 33.4583C174.49 33.236 175.167 32.9228 175.712 32.5186C176.278 32.1144 176.561 31.5889 176.561 30.9422V30.6997C176.561 30.4976 176.541 30.2753 176.501 30.0328C176.48 29.7903 176.399 29.5579 176.258 29.3356C176.278 29.4367 176.329 29.6387 176.41 29.9419C176.49 30.245 176.531 30.4976 176.531 30.6997C176.531 31.3262 176.309 31.8416 175.864 32.2458C175.44 32.6297 174.894 32.943 174.227 33.1855C173.58 33.4078 172.863 33.5695 172.075 33.6705C171.307 33.7513 170.569 33.7918 169.862 33.7918H169.255C169.053 33.7918 168.851 33.7817 168.649 33.7615C168.932 33.5391 169.296 33.3876 169.74 33.3067C170.205 33.2057 170.69 33.1249 171.196 33.0642C171.701 33.0036 172.196 32.943 172.681 32.8823C173.166 32.8217 173.58 32.7207 173.924 32.5792L174.106 32.943C174.813 32.5994 175.308 32.266 175.591 31.9426C175.894 31.5991 176.046 31.1342 176.046 30.5482C176.046 29.6185 175.783 28.8001 175.258 28.0927C174.752 27.3854 174.065 26.9105 173.196 26.668L173.105 26.8499C173.853 27.1328 174.5 27.5976 175.045 28.2443C175.591 28.891 175.864 29.6691 175.864 30.5785C175.864 31.0635 175.753 31.4475 175.53 31.7304C175.328 31.9729 175.005 32.1952 174.56 32.3973C174.924 32.2356 175.197 32.0336 175.379 31.791C175.601 31.5081 175.753 31.1949 175.834 30.8513C175.834 30.0025 175.632 29.2851 175.227 28.699C174.823 28.1129 174.257 27.6481 173.53 27.3046C172.802 26.9408 171.923 26.6882 170.892 26.5467C169.882 26.385 168.76 26.3042 167.528 26.3042C167.689 27.1732 167.78 28.123 167.8 29.1537C167.841 30.1642 167.912 31.1544 168.013 32.1245L168.225 34.0343ZM165.163 29.3962C165.204 29.3558 165.244 29.184 165.284 28.8809C165.325 28.5778 165.355 28.2544 165.375 27.9108C165.416 27.5471 165.446 27.2136 165.466 26.9105C165.507 26.5871 165.547 26.3951 165.587 26.3345L165.193 26.3042L165.163 29.3962ZM174.409 32.4579L174.56 32.3973L174.409 32.4579ZM193.453 38.4298C192.685 38.6925 192.099 38.834 191.695 38.8542C191.291 38.8946 190.937 38.9249 190.634 38.9451C189.502 38.9451 188.481 38.7329 187.572 38.3086C186.663 37.8842 185.885 37.3082 185.238 36.5807C184.591 35.8531 184.086 35.0043 183.722 34.0343C183.379 33.044 183.207 31.9931 183.207 30.8816C183.207 30.2349 183.267 29.568 183.389 28.8809C183.51 28.1736 183.692 27.4865 183.934 26.8195C184.177 26.1324 184.49 25.4958 184.874 24.9098C185.238 24.3237 185.672 23.7983 186.178 23.3334C185.652 23.7578 185.208 24.2631 184.844 24.8491C184.46 25.4352 184.136 26.0718 183.874 26.7589C183.611 27.4258 183.419 28.123 183.298 28.8506C183.176 29.5579 183.116 30.245 183.116 30.9119C183.116 31.7607 183.247 32.6701 183.51 33.6402C183.793 34.59 184.237 35.4792 184.844 36.3078C185.45 37.1162 186.228 37.7932 187.178 38.3389C188.148 38.8845 189.32 39.1573 190.694 39.1573C191.341 39.1573 192.018 39.0664 192.725 38.8845C191.957 39.3898 191.099 39.6424 190.149 39.6424C189.381 39.6424 188.653 39.5211 187.966 39.2786C187.299 39.0563 186.673 38.7329 186.087 38.3086C185.521 37.9044 185.005 37.4193 184.541 36.8535C184.076 36.2876 183.682 35.6813 183.358 35.0346L183.631 34.7921C183.288 34.105 183.035 33.4179 182.873 32.7308C182.732 32.0437 182.661 31.3464 182.661 30.6391C182.661 29.6084 182.803 28.6182 183.086 27.6683C183.389 26.7185 183.783 25.8192 184.268 24.9704L184.995 23.97C185.117 23.7477 185.288 23.5254 185.511 23.3031C185.753 23.0808 186.016 22.8686 186.299 22.6665C186.582 22.4442 186.875 22.2522 187.178 22.0906C187.501 21.9087 187.804 21.747 188.087 21.6055C188.815 21.2418 189.542 20.9184 190.27 20.6355C190.997 20.3323 191.846 20.11 192.816 19.9686L192.695 19.8776C190.836 20.0595 189.259 20.5142 187.966 21.2418C186.673 21.9491 185.622 22.8181 184.813 23.8488C184.005 24.8794 183.419 26.0112 183.055 27.2439C182.691 28.4565 182.51 29.6489 182.51 30.821C182.51 31.4475 182.56 32.0841 182.661 32.7308C182.782 33.3573 182.954 33.9838 183.176 34.6102C182.671 33.3977 182.419 32.1144 182.419 30.7604C182.419 29.4265 182.641 28.1028 183.086 26.7892C183.53 25.4756 184.227 24.2631 185.177 23.1516C186.39 22.04 187.713 21.1912 189.148 20.6052C190.583 19.9989 191.968 19.6958 193.301 19.6958C193.726 19.6958 194.16 19.7665 194.605 19.908C195.049 20.0494 195.454 20.2717 195.817 20.5749C196.181 20.8578 196.474 21.2317 196.697 21.6965C196.939 22.1613 197.06 22.7272 197.06 23.3941C197.06 23.9397 196.929 24.6066 196.666 25.3948C196.403 26.183 196.009 26.9509 195.484 27.6987C194.979 28.4262 194.342 29.0527 193.574 29.5781C192.806 30.0834 191.917 30.336 190.907 30.336H189.906C189.158 30.1743 188.471 29.9924 187.845 29.7903C187.239 29.568 186.663 29.3962 186.117 29.275C186.036 29.5983 185.986 29.9116 185.965 30.2147C185.965 30.4976 185.965 30.7806 185.965 31.0635C185.965 31.6496 186.026 32.2255 186.147 32.7914C186.289 33.3371 186.501 33.8423 186.784 34.3071C187.067 34.7719 187.42 35.166 187.845 35.4893C188.289 35.7925 188.825 35.9845 189.451 36.0653C189.835 36.1462 190.169 36.1967 190.452 36.2169C190.735 36.2169 190.967 36.227 191.149 36.2472C191.351 36.2472 191.493 36.2775 191.573 36.3381C191.674 36.3786 191.725 36.4695 191.725 36.611C191.523 36.6716 191.311 36.712 191.088 36.7322C190.886 36.7524 190.674 36.7625 190.452 36.7625C189.744 36.7625 189.108 36.6514 188.542 36.4291C187.976 36.1866 187.491 35.9137 187.087 35.6106C187.552 36.0754 188.108 36.4089 188.754 36.611C189.401 36.7929 190.038 36.8838 190.664 36.8838C191.008 36.8838 191.361 36.8535 191.725 36.7929C191.685 36.9141 191.664 36.9848 191.664 37.005C191.664 37.1263 191.715 37.2071 191.816 37.2476C191.897 37.2274 192.038 37.1768 192.24 37.096C192.442 36.9949 192.645 36.904 192.847 36.8232C193.069 36.7221 193.281 36.6413 193.483 36.5807C193.685 36.4998 193.827 36.4594 193.908 36.4594C194.009 36.4594 194.1 36.4796 194.18 36.52C194.261 36.5402 194.302 36.6514 194.302 36.8535C194.302 37.0556 194.231 37.2981 194.09 37.581C193.948 37.8639 193.736 38.1469 193.453 38.4298ZM189.27 26.4255L189.936 26.5467C190.159 26.5871 190.361 26.6073 190.543 26.6073C190.745 26.6073 190.977 26.5467 191.24 26.4255C191.523 26.284 191.796 26.092 192.058 25.8495C192.341 25.607 192.584 25.3038 192.786 24.9401C193.008 24.5763 193.17 24.162 193.271 23.6972L193.332 23.5153C193.049 23.5153 192.624 23.5861 192.058 23.7275C191.493 23.869 190.907 24.061 190.3 24.3035C189.694 24.5258 189.128 24.7986 188.603 25.122C188.077 25.4251 187.713 25.7586 187.511 26.1223C187.815 26.183 188.108 26.2436 188.39 26.3042C188.694 26.3446 188.987 26.385 189.27 26.4255ZM187.875 28.6687C187.916 28.6283 187.936 28.5677 187.936 28.4868C187.956 28.406 187.966 28.3454 187.966 28.3049L186.541 27.7896L186.39 28.214L187.875 28.6687ZM187.026 35.55C186.885 35.3883 186.743 35.2266 186.602 35.065C186.481 34.9235 186.38 34.782 186.299 34.6406C186.481 34.9841 186.723 35.2873 187.026 35.55ZM210.83 38.4298C210.062 38.6925 209.476 38.834 209.072 38.8542C208.668 38.8946 208.314 38.9249 208.011 38.9451C206.879 38.9451 205.859 38.7329 204.949 38.3086C204.04 37.8842 203.262 37.3082 202.615 36.5807C201.968 35.8531 201.463 35.0043 201.099 34.0343C200.756 33.044 200.584 31.9931 200.584 30.8816C200.584 30.2349 200.645 29.568 200.766 28.8809C200.887 28.1736 201.069 27.4865 201.312 26.8195C201.554 26.1324 201.867 25.4958 202.251 24.9098C202.615 24.3237 203.05 23.7983 203.555 23.3334C203.029 23.7578 202.585 24.2631 202.221 24.8491C201.837 25.4352 201.514 26.0718 201.251 26.7589C200.988 27.4258 200.796 28.123 200.675 28.8506C200.554 29.5579 200.493 30.245 200.493 30.9119C200.493 31.7607 200.624 32.6701 200.887 33.6402C201.17 34.59 201.615 35.4792 202.221 36.3078C202.827 37.1162 203.605 37.7932 204.555 38.3389C205.525 38.8845 206.697 39.1573 208.072 39.1573C208.718 39.1573 209.395 39.0664 210.103 38.8845C209.335 39.3898 208.476 39.6424 207.526 39.6424C206.758 39.6424 206.03 39.5211 205.343 39.2786C204.676 39.0563 204.05 38.7329 203.464 38.3086C202.898 37.9044 202.383 37.4193 201.918 36.8535C201.453 36.2876 201.059 35.6813 200.736 35.0346L201.008 34.7921C200.665 34.105 200.412 33.4179 200.251 32.7308C200.109 32.0437 200.038 31.3464 200.038 30.6391C200.038 29.6084 200.18 28.6182 200.463 27.6683C200.766 26.7185 201.16 25.8192 201.645 24.9704L202.373 23.97C202.494 23.7477 202.666 23.5254 202.888 23.3031C203.13 23.0808 203.393 22.8686 203.676 22.6665C203.959 22.4442 204.252 22.2522 204.555 22.0906C204.879 21.9087 205.182 21.747 205.465 21.6055C206.192 21.2418 206.92 20.9184 207.647 20.6355C208.375 20.3323 209.224 20.11 210.194 19.9686L210.072 19.8776C208.213 20.0595 206.637 20.5142 205.343 21.2418C204.05 21.9491 202.999 22.8181 202.191 23.8488C201.382 24.8794 200.796 26.0112 200.432 27.2439C200.069 28.4565 199.887 29.6489 199.887 30.821C199.887 31.4475 199.937 32.0841 200.038 32.7308C200.16 33.3573 200.331 33.9838 200.554 34.6102C200.048 33.3977 199.796 32.1144 199.796 30.7604C199.796 29.4265 200.018 28.1028 200.463 26.7892C200.907 25.4756 201.605 24.2631 202.554 23.1516C203.767 22.04 205.091 21.1912 206.526 20.6052C207.96 19.9989 209.345 19.6958 210.679 19.6958C211.103 19.6958 211.537 19.7665 211.982 19.908C212.427 20.0494 212.831 20.2717 213.195 20.5749C213.558 20.8578 213.851 21.2317 214.074 21.6965C214.316 22.1613 214.438 22.7272 214.438 23.3941C214.438 23.9397 214.306 24.6066 214.043 25.3948C213.781 26.183 213.387 26.9509 212.861 27.6987C212.356 28.4262 211.719 29.0527 210.951 29.5781C210.183 30.0834 209.294 30.336 208.284 30.336H207.283C206.536 30.1743 205.849 29.9924 205.222 29.7903C204.616 29.568 204.04 29.3962 203.494 29.275C203.413 29.5983 203.363 29.9116 203.343 30.2147C203.343 30.4976 203.343 30.7806 203.343 31.0635C203.343 31.6496 203.403 32.2255 203.524 32.7914C203.666 33.3371 203.878 33.8423 204.161 34.3071C204.444 34.7719 204.798 35.166 205.222 35.4893C205.667 35.7925 206.202 35.9845 206.829 36.0653C207.213 36.1462 207.546 36.1967 207.829 36.2169C208.112 36.2169 208.344 36.227 208.526 36.2472C208.728 36.2472 208.87 36.2775 208.951 36.3381C209.052 36.3786 209.102 36.4695 209.102 36.611C208.9 36.6716 208.688 36.712 208.466 36.7322C208.264 36.7524 208.051 36.7625 207.829 36.7625C207.122 36.7625 206.485 36.6514 205.919 36.4291C205.353 36.1866 204.868 35.9137 204.464 35.6106C204.929 36.0754 205.485 36.4089 206.131 36.611C206.778 36.7929 207.415 36.8838 208.041 36.8838C208.385 36.8838 208.739 36.8535 209.102 36.7929C209.062 36.9141 209.042 36.9848 209.042 37.005C209.042 37.1263 209.092 37.2071 209.193 37.2476C209.274 37.2274 209.416 37.1768 209.618 37.096C209.82 36.9949 210.022 36.904 210.224 36.8232C210.446 36.7221 210.658 36.6413 210.86 36.5807C211.063 36.4998 211.204 36.4594 211.285 36.4594C211.386 36.4594 211.477 36.4796 211.558 36.52C211.639 36.5402 211.679 36.6514 211.679 36.8535C211.679 37.0556 211.608 37.2981 211.467 37.581C211.325 37.8639 211.113 38.1469 210.83 38.4298ZM206.647 26.4255L207.314 26.5467C207.536 26.5871 207.738 26.6073 207.92 26.6073C208.122 26.6073 208.355 26.5467 208.617 26.4255C208.9 26.284 209.173 26.092 209.436 25.8495C209.719 25.607 209.961 25.3038 210.163 24.9401C210.386 24.5763 210.547 24.162 210.648 23.6972L210.709 23.5153C210.426 23.5153 210.002 23.5861 209.436 23.7275C208.87 23.869 208.284 24.061 207.678 24.3035C207.071 24.5258 206.505 24.7986 205.98 25.122C205.454 25.4251 205.091 25.7586 204.889 26.1223C205.192 26.183 205.485 26.2436 205.768 26.3042C206.071 26.3446 206.364 26.385 206.647 26.4255ZM205.252 28.6687C205.293 28.6283 205.313 28.5677 205.313 28.4868C205.333 28.406 205.343 28.3454 205.343 28.3049L203.919 27.7896L203.767 28.214L205.252 28.6687ZM204.404 35.55C204.262 35.3883 204.121 35.2266 203.979 35.065C203.858 34.9235 203.757 34.782 203.676 34.6406C203.858 34.9841 204.1 35.2873 204.404 35.55ZM233.179 15.7549C233.219 16.341 233.25 16.917 233.27 17.4828C233.29 18.0285 233.3 18.5943 233.3 19.1804C233.3 20.393 233.26 21.6156 233.179 22.8484C233.118 24.061 233.037 25.2937 232.936 26.5467C232.835 27.7997 232.734 29.083 232.633 30.3966C232.532 31.7102 232.441 33.0743 232.36 34.489C232.36 34.7113 232.35 34.9437 232.33 35.1862C232.33 35.4085 232.31 35.6611 232.27 35.9441V36.3078C232.27 36.3685 232.249 36.4493 232.209 36.5503C232.168 36.6514 232.128 36.7221 232.088 36.7625C231.825 37.0657 231.582 37.2981 231.36 37.4598C231.158 37.6012 230.966 37.7124 230.784 37.7932C230.602 37.8538 230.43 37.8842 230.269 37.8842C230.107 37.9044 229.945 37.9246 229.784 37.9448H229.966C230.026 37.9448 230.137 37.9347 230.299 37.9145C230.481 37.8943 230.673 37.8639 230.875 37.8235C231.097 37.7629 231.299 37.6922 231.481 37.6113C231.683 37.5103 231.825 37.3789 231.906 37.2172L232.179 36.6716C232.3 36.4493 232.371 36.2169 232.391 35.9744C232.431 35.7117 232.451 35.459 232.451 35.2165C232.472 34.9538 232.482 34.7012 232.482 34.4587C232.482 34.2162 232.502 33.9838 232.542 33.7615C232.603 32.4883 232.684 31.2151 232.785 29.9419C232.906 28.6687 233.017 27.3854 233.118 26.092C233.219 24.7986 233.31 23.4951 233.391 22.1815C233.472 20.8477 233.512 19.4937 233.512 18.1194C233.512 17.695 233.502 17.2908 233.482 16.9069C233.482 16.5027 233.472 16.1187 233.452 15.7549C233.512 15.8358 233.573 15.9671 233.634 16.149C233.714 16.3107 233.775 16.5734 233.816 16.9372C233.917 17.1595 233.977 17.402 233.997 17.6647C234.018 17.9274 234.048 18.2003 234.088 18.4832C234.088 19.8574 234.038 21.1912 233.937 22.4846C233.836 23.7578 233.735 25.031 233.634 26.3042L233.361 26.3952L233.088 31.5788C233.088 33.0339 233.017 34.2364 232.876 35.1862C232.755 36.1158 232.643 36.7322 232.542 37.0354V37.1263C232.239 37.4294 231.976 37.6619 231.754 37.8235C231.552 37.965 231.36 38.0761 231.178 38.157C230.996 38.2378 230.825 38.2782 230.663 38.2782C230.521 38.2984 230.37 38.3086 230.208 38.3086H228.268C227.722 38.2479 227.136 38.2176 226.51 38.2176C225.883 38.2378 225.227 38.1772 224.539 38.0357C223.852 37.8943 223.145 37.6012 222.417 37.1566C221.71 36.712 220.993 36.0047 220.265 35.0346C220.265 35.0751 220.255 35.1054 220.235 35.1256C220.215 35.1458 220.194 35.1761 220.174 35.2165C220.841 36.1259 221.639 36.8737 222.569 37.4598C223.519 38.0458 224.539 38.3894 225.631 38.4904H228.177C228.42 38.5309 228.662 38.5511 228.905 38.5511C229.167 38.5713 229.45 38.5814 229.753 38.5814C230.057 38.5814 230.451 38.541 230.936 38.4601C231.441 38.3793 231.916 38.1166 232.36 37.672C232.441 37.5709 232.492 37.5002 232.512 37.4598C232.552 37.3991 232.593 37.3183 232.633 37.2172L232.724 37.0354C232.825 36.8535 232.896 36.6716 232.936 36.4897C232.997 36.2876 233.048 36.0956 233.088 35.9137C233.088 36.136 233.068 36.328 233.027 36.4897C233.007 36.6514 232.936 36.8939 232.815 37.2172L232.724 37.3082L232.36 37.8538C232.179 38.0357 231.976 38.1772 231.754 38.2782C231.532 38.3793 231.32 38.45 231.118 38.4904C230.915 38.5511 230.723 38.5915 230.542 38.6117C230.38 38.6319 230.259 38.6521 230.178 38.6723H229.177C228.915 38.6723 228.692 38.6622 228.511 38.642C228.349 38.642 228.218 38.6319 228.116 38.6117C228.036 38.6117 227.965 38.6016 227.904 38.5814H226.995C226.813 38.5814 226.631 38.5814 226.449 38.5814C226.267 38.6016 226.075 38.6117 225.873 38.6117C224.923 38.6117 223.994 38.3793 223.084 37.9145C222.195 37.4699 221.367 36.8333 220.599 36.0047C219.851 35.1761 219.184 34.196 218.598 33.0642C218.012 31.9325 217.567 30.6795 217.264 29.3053C217.264 29.083 217.244 28.8708 217.203 28.6687C217.183 28.4666 217.173 28.2544 217.173 28.0321C217.173 27.2844 217.284 26.5265 217.507 25.7586C217.749 24.9704 218.174 24.2631 218.78 23.6366C219.386 23.0101 220.205 22.5049 221.235 22.1209C222.266 21.7167 223.569 21.5146 225.146 21.5146C225.873 21.5146 226.581 21.5348 227.268 21.5752C227.955 21.5954 228.652 21.6257 229.359 21.6662C229.279 21.7268 229.238 21.7975 229.238 21.8784C229.238 21.9794 229.258 22.0704 229.299 22.1512C229.339 22.2118 229.359 22.2826 229.359 22.3634C229.359 22.4644 229.279 22.5554 229.117 22.6362C228.975 22.6968 228.662 22.7272 228.177 22.7272C228.015 22.7272 227.823 22.7272 227.601 22.7272C227.399 22.7069 227.167 22.6867 226.904 22.6665V22.9394C227.874 23.0808 228.652 23.2728 229.238 23.5153C229.844 23.7376 230.218 23.9397 230.36 24.1216L230.42 24.1822L230.542 22.8484C230.602 22.3028 230.633 21.6864 230.633 20.9993C230.633 20.2919 230.612 19.5947 230.572 18.9076C230.532 18.2205 230.511 17.6849 230.511 17.301C230.511 16.8159 230.542 16.4926 230.602 16.3309C230.663 16.1692 230.744 16.0884 230.845 16.0884C230.926 16.0884 230.986 16.2602 231.027 16.6037C231.087 16.9473 231.128 17.3414 231.148 17.786C231.188 18.2104 231.209 18.6348 231.209 19.0592V19.9383C231.209 20.5243 231.198 21.1205 231.178 21.7268C231.158 22.3129 231.128 22.8989 231.087 23.485C231.148 22.7171 231.198 21.9693 231.239 21.2418C231.279 20.494 231.299 19.7362 231.299 18.9682C231.299 18.5034 231.289 18.0487 231.269 17.6041C231.249 17.1393 231.219 16.6745 231.178 16.2096C231.299 16.3309 231.39 16.3915 231.451 16.3915C231.532 16.3915 231.592 16.3309 231.633 16.2096C231.613 16.048 231.592 15.8762 231.572 15.6943C231.552 15.5326 231.542 15.371 231.542 15.2093V14.7546C231.643 14.5121 231.774 14.3302 231.936 14.2089C232.098 14.0675 232.239 13.9967 232.36 13.9967C232.704 13.9967 233.007 14.3706 233.27 15.1183L233.179 15.7549ZM228.268 24.8491C227.601 24.8896 226.843 24.93 225.995 24.9704C225.166 25.0108 224.378 25.122 223.63 25.3038C222.882 25.4655 222.236 25.7181 221.69 26.0617C221.164 26.4053 220.871 26.8802 220.811 27.4865C220.811 28.1534 220.952 28.9011 221.235 29.7297C221.518 30.5583 221.892 31.3464 222.357 32.0942C222.822 32.8217 223.347 33.4482 223.933 33.9736C224.539 34.4991 225.166 34.7921 225.813 34.8528H227.541C227.642 34.8528 227.712 34.8629 227.753 34.8831C227.813 34.8831 227.894 34.9033 227.995 34.9437H228.723C229.026 35.0043 229.329 35.0346 229.632 35.0346C229.632 33.3371 229.703 31.5991 229.844 29.8206C230.006 28.022 230.178 26.2638 230.36 24.546C230.097 24.7481 229.4 24.8491 228.268 24.8491ZM230.451 31.1241C230.451 31.3464 230.43 31.5788 230.39 31.8214C230.37 32.0437 230.36 32.2963 230.36 32.5792C230.582 31.4475 230.713 30.2551 230.754 29.0022C230.794 27.7492 230.845 26.5467 230.905 25.3948C230.804 26.3648 230.723 27.3248 230.663 28.2746C230.622 29.2042 230.552 30.1541 230.451 31.1241ZM233.088 34.398C233.088 34.1757 233.098 33.9534 233.118 33.7311C233.139 33.4886 233.169 33.236 233.209 32.9733C233.189 33.5796 233.179 34.1555 233.179 34.7012C233.179 35.2266 233.149 35.6005 233.088 35.8228C233.088 35.7218 233.088 35.6308 233.088 35.55C233.108 35.4489 233.118 35.3479 233.118 35.2468C233.118 35.0852 233.108 34.9336 233.088 34.7921C233.088 34.6507 233.088 34.5193 233.088 34.398ZM233.543 29.4872C233.502 29.5882 233.472 29.7095 233.452 29.8509C233.432 29.9722 233.401 30.1036 233.361 30.245L233.482 28.3959L233.543 29.4872ZM233.27 31.8517C233.27 32.0336 233.26 32.2154 233.24 32.3973C233.24 32.5792 233.229 32.751 233.209 32.9127C233.209 32.5085 233.219 32.1043 233.24 31.7001C233.26 31.2757 233.29 30.8917 233.331 30.5482L233.27 31.8517ZM230.269 33.7311C230.289 33.6503 230.299 33.5695 230.299 33.4886C230.299 33.4078 230.319 33.3168 230.36 33.2158V32.8823C230.34 32.9228 230.329 32.9632 230.329 33.0036C230.329 33.0238 230.319 33.044 230.299 33.0642L230.269 33.1249V33.7311ZM230.178 35.1862C230.198 35.0043 230.218 34.8224 230.238 34.6406C230.259 34.4385 230.269 34.2364 230.269 34.0343V33.9433L230.148 35.1256L230.178 35.1862ZM242.37 38.2176C242.168 38.258 241.946 38.2782 241.703 38.2782H240.824C240.299 38.2782 239.925 38.3389 239.703 38.4601C239.5 38.5814 239.379 38.642 239.339 38.642L239.218 38.0964V37.5507L239.066 34.7012C239.026 34.1555 238.914 33.5695 238.733 32.943C238.551 32.3165 238.409 31.6799 238.308 31.0332C238.248 30.6088 238.197 30.2046 238.157 29.8206L238.035 28.6384C237.995 28.2342 237.944 27.8199 237.884 27.3955C237.843 26.9711 237.773 26.5164 237.672 26.0314C237.672 25.9101 237.672 25.7889 237.672 25.6676C237.692 25.5464 237.702 25.4251 237.702 25.3038C237.702 24.6774 237.651 24.061 237.55 23.4547C237.449 22.8484 237.308 22.2522 237.126 21.6662C237.267 21.6055 237.399 21.555 237.52 21.5146C237.641 21.454 237.752 21.4237 237.853 21.4237C237.954 21.4237 238.066 21.5449 238.187 21.7874C238.308 22.0097 238.44 22.4846 238.581 23.2122C238.621 23.2122 238.682 23.2021 238.763 23.1819C238.844 23.1414 238.904 23.1212 238.945 23.1212C238.925 22.7777 238.874 22.4139 238.793 22.0299C238.712 21.6257 238.631 21.2418 238.551 20.878C238.47 20.5142 238.389 20.1909 238.308 19.908C238.248 19.6048 238.217 19.3623 238.217 19.1804C238.217 19.14 238.217 19.0895 238.217 19.0288C238.237 18.9682 238.288 18.9379 238.369 18.9379C238.47 18.9379 238.601 19.0491 238.763 19.2714C238.925 19.4937 239.096 19.7766 239.278 20.1202C239.46 20.4637 239.632 20.8376 239.794 21.2418C239.975 21.6257 240.137 21.9895 240.279 22.3331C240.824 21.3024 241.441 20.5243 242.128 19.9989C242.835 19.4532 243.755 19.1804 244.886 19.1804C245.715 19.1804 246.392 19.2815 246.917 19.4836C247.443 19.6654 247.847 19.8776 248.13 20.1202C248.433 20.3425 248.635 20.5547 248.736 20.7567L248.918 21.0599C248.918 21.1811 248.857 21.262 248.736 21.3024C248.211 20.7972 247.615 20.4132 246.948 20.1505C246.281 19.8877 245.594 19.7564 244.886 19.7564C244.199 19.7564 243.684 19.8473 243.34 20.0292C243.017 20.1909 242.673 20.393 242.31 20.6355C242.694 20.393 243.047 20.201 243.371 20.0595C243.714 19.9181 244.209 19.8473 244.856 19.8473C245.563 19.8473 246.24 19.9888 246.887 20.2717C247.534 20.5344 248.089 20.878 248.554 21.3024C248.453 21.3428 248.362 21.3933 248.281 21.454C248.221 21.4944 248.191 21.5651 248.191 21.6662C248.292 21.6662 248.403 21.7369 248.524 21.8784C248.645 21.9996 248.756 22.1512 248.857 22.3331C248.958 22.515 249.039 22.7069 249.1 22.909C249.181 23.0909 249.221 23.2425 249.221 23.3637C249.221 23.7073 249.09 23.8791 248.827 23.8791C248.625 23.8791 248.382 23.8084 248.1 23.6669C248.039 23.6467 247.908 23.5355 247.705 23.3334C247.524 23.1313 247.291 22.9292 247.008 22.7272C246.725 22.5049 246.402 22.3028 246.038 22.1209C245.674 21.939 245.27 21.848 244.826 21.848C244.462 21.848 244.139 21.9289 243.856 22.0906C243.593 22.232 243.35 22.4341 243.128 22.6968C242.906 22.9394 242.704 23.2223 242.522 23.5456L242.128 24.2732C242.431 23.7275 242.764 23.2324 243.128 22.7878C243.532 22.2623 244.037 21.9996 244.644 21.9996C245.169 21.9996 245.654 22.1209 246.099 22.3634C246.543 22.5857 246.907 22.8686 247.19 23.2122C246.847 23.0707 246.442 22.9292 245.978 22.7878C245.513 22.6463 245.068 22.5756 244.644 22.5756C244.421 22.5756 244.229 22.6261 244.068 22.7272C243.906 22.8282 243.765 22.9596 243.643 23.1212C243.542 23.2627 243.441 23.4244 243.34 23.6063C243.259 23.7881 243.168 23.9599 243.067 24.1216L242.673 24.1822C242.33 24.7683 242.047 25.4554 241.825 26.2436C241.622 27.0115 241.521 27.8199 241.521 28.6687C241.521 29.1739 241.542 29.6286 241.582 30.0328C241.643 30.437 241.724 30.8513 241.825 31.2757L242.188 32.2154L242.128 31.3363C242.087 30.6492 242.047 30.0429 242.006 29.5175C241.966 28.9718 241.946 28.3757 241.946 27.729C241.986 27.1429 242.067 26.5871 242.188 26.0617C242.289 25.6171 242.441 25.2028 242.643 24.8188C242.401 25.3038 242.239 25.8596 242.158 26.4861C242.057 27.1732 242.006 27.9007 242.006 28.6687C242.006 29.275 242.037 29.8509 242.097 30.3966C242.158 30.9422 242.229 31.4879 242.31 32.0336C242.411 32.5792 242.512 33.1451 242.613 33.7311C242.714 34.297 242.795 34.9235 242.855 35.6106L242.946 36.1866L243.128 37.9145L242.37 38.2176ZM242.734 24.6673L242.643 24.8188L242.734 24.6673ZM267.022 19.4229L266.931 19.9686C266.83 20.9588 266.77 22.0198 266.749 23.1516C266.729 24.2631 266.648 25.3847 266.507 26.5164C266.668 25.4049 266.8 24.3136 266.901 23.2425C267.002 22.131 267.103 21.0397 267.204 19.9686C267.305 20.2919 267.386 20.6355 267.447 20.9993C267.527 21.363 267.568 21.747 267.568 22.1512C267.467 23.1617 267.376 24.1317 267.295 25.0613C267.214 25.991 267.103 26.961 266.962 27.9715L266.567 28.0624C266.466 28.992 266.254 30.0025 265.931 31.0938C265.607 32.1851 265.133 33.1956 264.506 34.1252C263.9 35.0548 263.112 35.8329 262.142 36.4594C261.172 37.0657 260.01 37.3688 258.655 37.3688C258.211 37.3688 257.736 37.3385 257.231 37.2779C256.746 37.197 256.271 37.0859 255.806 36.9444C255.341 36.7827 254.897 36.5807 254.472 36.3381C254.048 36.0956 253.684 35.7925 253.381 35.4287L253.411 35.4893V35.5197L253.381 35.55L253.29 35.5197C253.411 35.7015 253.543 35.8632 253.684 36.0047C253.32 35.6813 252.987 35.3075 252.684 34.8831C252.178 34.196 251.774 33.3775 251.471 32.4276C251.289 31.8618 251.148 31.2858 251.047 30.6997C250.946 30.1137 250.875 29.4973 250.834 28.8506C250.794 28.1837 250.764 27.4662 250.744 26.6983C250.744 25.9303 250.744 25.0815 250.744 24.1519C250.925 23.4244 251.067 22.6968 251.168 21.9693C251.269 21.2418 251.34 20.5142 251.38 19.7867C251.441 19.7867 251.511 19.7766 251.592 19.7564C251.673 19.7362 251.754 19.7261 251.835 19.7261C251.976 19.7261 252.098 19.8069 252.199 19.9686C252.32 20.1303 252.38 20.4738 252.38 20.9993V21.2721C252.38 21.3529 252.37 21.4439 252.35 21.5449H252.714C252.876 20.6961 253.068 20.0494 253.29 19.6048C253.512 19.1602 253.735 18.9379 253.957 18.9379C254.118 18.9379 254.26 19.1703 254.381 19.6351C254.523 20.0797 254.593 20.7871 254.593 21.7571C254.593 22.4644 254.573 23.1819 254.533 23.9094C254.492 24.6369 254.472 25.3847 254.472 26.1526C254.472 27.345 254.523 28.4262 254.624 29.3962C254.745 30.3663 254.967 31.1949 255.291 31.882C255.614 32.5691 256.069 33.1046 256.655 33.4886C257.261 33.8524 258.039 34.0343 258.989 34.0343C259.777 34.0343 260.434 33.7918 260.959 33.3067C261.485 32.8217 261.929 32.175 262.293 31.3666C262.657 30.5583 262.96 29.6286 263.203 28.5778C263.465 27.5067 263.708 26.3951 263.93 25.2432C263.971 24.9199 264.001 24.5965 264.021 24.2732C264.041 23.9498 264.051 23.6164 264.051 23.2728V22.3331C264.051 21.747 264.082 21.2519 264.142 20.8477C264.203 20.4435 264.375 20.2111 264.658 20.1505C264.658 21.1811 264.627 22.2017 264.567 23.2122C264.526 24.1822 264.445 25.1523 264.324 26.1223C264.466 25.1725 264.577 24.2226 264.658 23.2728C264.738 22.2826 264.799 21.2721 264.84 20.2414C264.961 20.3222 265.062 20.3627 265.143 20.3627C265.224 20.3627 265.304 20.3222 265.385 20.2414V19.1501C265.486 18.7863 265.587 18.5337 265.688 18.3923C265.789 18.2306 265.901 18.1497 266.022 18.1497C266.143 18.1497 266.264 18.2104 266.386 18.3316C266.507 18.4529 266.628 18.6045 266.749 18.7863L267.022 19.4229ZM254.502 36.611C254.987 36.8737 255.483 37.0859 255.988 37.2476C256.513 37.389 256.998 37.4901 257.443 37.5507C257.908 37.6113 258.282 37.6416 258.565 37.6416C259.979 37.6416 261.182 37.3284 262.172 36.7019C263.162 36.0754 263.971 35.2974 264.597 34.3677C265.244 33.4179 265.739 32.4074 266.082 31.3363C266.406 30.3259 266.648 29.3962 266.81 28.5474C266.668 29.3962 266.446 30.336 266.143 31.3666C265.799 32.4579 265.304 33.4785 264.658 34.4284C264.031 35.3782 263.233 36.1765 262.263 36.8232C261.293 37.4699 260.121 37.7932 258.746 37.7932C257.978 37.7932 257.221 37.6922 256.473 37.4901C255.725 37.288 255.028 36.9747 254.381 36.5503C254.422 36.5705 254.462 36.5908 254.502 36.611ZM266.113 29.1537C266.173 28.8102 266.224 28.4767 266.264 28.1534C266.305 27.8704 266.345 27.5875 266.386 27.3046C266.264 28.1938 266.062 29.1335 265.779 30.1238C265.496 31.1544 265.102 32.1346 264.597 33.0642C264.092 33.9736 263.455 34.782 262.687 35.4893C261.96 36.1563 261.111 36.611 260.141 36.8535C260.99 36.6716 261.748 36.3179 262.414 35.7925C263.102 35.2468 263.688 34.6102 264.173 33.8827C264.658 33.1552 265.052 32.3771 265.355 31.5485C265.678 30.7199 265.931 29.9217 266.113 29.1537ZM263.112 31.2757C262.889 31.7203 262.637 32.1447 262.354 32.5489C262.091 32.9531 261.788 33.3168 261.444 33.6402C261.808 33.3371 262.121 32.9834 262.384 32.5792C262.667 32.175 262.91 31.7405 263.112 31.2757ZM254.381 36.5503C254.139 36.3887 253.906 36.2068 253.684 36.0047C253.906 36.2068 254.139 36.3887 254.381 36.5503ZM266.84 28.3352L266.81 28.5474L266.84 28.3352ZM266.416 27.153C266.396 27.2136 266.386 27.2642 266.386 27.3046C266.386 27.2642 266.396 27.2136 266.416 27.153ZM270.911 35.9441C270.911 35.843 270.941 35.7218 271.002 35.5803C271.062 35.4388 271.093 35.2873 271.093 35.1256C271.153 34.6406 271.194 34.297 271.214 34.0949C271.234 33.8726 271.244 33.6806 271.244 33.5189C271.244 32.6701 271.214 31.7607 271.153 30.7907C271.113 29.8004 271.062 28.8506 271.002 27.9412C271.002 27.6582 270.991 27.3248 270.971 26.9408C270.971 26.5568 270.951 26.2537 270.911 26.0314C270.971 25.3241 271.022 24.6268 271.062 23.9397C271.103 23.2526 271.123 22.5554 271.123 21.848V21.0902C271.123 20.8275 271.113 20.5648 271.093 20.302C271.153 20.3627 271.214 20.393 271.274 20.393C271.355 20.393 271.436 20.3627 271.517 20.302C271.618 20.2414 271.709 20.2111 271.79 20.2111C271.931 20.2111 272.042 20.3627 272.123 20.6658C272.224 20.9689 272.275 21.6359 272.275 22.6665H272.548C272.649 21.5348 272.8 20.6355 273.002 19.9686C273.225 19.3017 273.447 18.9682 273.669 18.9682C273.77 18.9682 273.932 19.1905 274.154 19.6351C274.377 20.0595 274.488 20.7365 274.488 21.6662L274.821 21.1205C275.043 20.8578 275.286 20.585 275.549 20.302C275.832 20.0191 276.145 19.7665 276.488 19.5442C276.832 19.3219 277.216 19.14 277.64 18.9985C278.065 18.8369 278.55 18.756 279.095 18.756C280.146 18.756 281.056 18.9985 281.824 19.4836C282.612 19.9484 283.269 20.5648 283.794 21.3327C284.32 22.0805 284.744 22.9394 285.067 23.9094C285.411 24.8592 285.674 25.8293 285.855 26.8195C286.037 27.7896 286.159 28.7293 286.219 29.6387C286.28 30.5482 286.31 31.3262 286.31 31.9729C286.31 32.559 286.27 32.9127 286.189 33.0339C286.128 33.135 286.007 33.1956 285.825 33.2158C285.785 31.6597 285.684 30.0732 285.522 28.4565C285.36 26.8398 284.976 25.2735 284.37 23.7578C284.916 25.3544 285.259 26.9307 285.401 28.4868C285.562 30.0227 285.643 31.5687 285.643 33.1249C285.522 33.0642 285.411 33.0339 285.31 33.0339C285.229 33.0339 285.158 33.0642 285.098 33.1249C285.098 33.2865 285.108 33.4583 285.128 33.6402C285.148 33.8019 285.158 33.9635 285.158 34.1252C285.178 34.2869 285.189 34.4385 285.189 34.5799C285.067 35.0447 284.946 35.3782 284.825 35.5803C284.703 35.7824 284.592 35.8834 284.491 35.8834C284.37 35.8834 284.269 35.8329 284.188 35.7319C284.107 35.6106 284.026 35.4691 283.946 35.3075C283.885 35.1458 283.814 34.974 283.733 34.7921C283.673 34.59 283.582 34.398 283.461 34.2162C283.501 33.8726 283.531 33.5998 283.552 33.3977C283.572 33.1754 283.582 32.9935 283.582 32.852C283.582 32.3064 283.572 31.6496 283.552 30.8816C283.531 30.1137 283.471 29.3154 283.37 28.4868C283.289 27.638 283.147 26.7993 282.945 25.9708C282.763 25.122 282.501 24.3742 282.157 23.7275C281.834 23.0606 281.419 22.5251 280.914 22.1209C280.409 21.6965 279.803 21.4843 279.095 21.4843C278.61 21.4843 278.176 21.646 277.792 21.9693C277.428 22.2927 277.105 22.7069 276.822 23.2122C276.559 23.7174 276.327 24.2732 276.125 24.8794C275.923 25.4655 275.761 26.0314 275.64 26.577C275.821 26.0112 276.003 25.4352 276.185 24.8491C276.387 24.2631 276.62 23.7275 276.882 23.2425C277.165 22.7575 277.489 22.3634 277.853 22.0602C278.216 21.7369 278.641 21.5752 279.126 21.5752C279.752 21.5752 280.288 21.747 280.732 22.0906C281.197 22.4341 281.581 22.8787 281.884 23.4244C282.208 23.97 282.46 24.5965 282.642 25.3038C282.844 25.991 282.996 26.6983 283.097 27.4258C283.198 28.1332 283.259 28.8304 283.279 29.5175C283.319 30.1844 283.339 30.7604 283.339 31.2454C283.339 31.6294 283.329 32.0133 283.309 32.3973C283.309 32.7813 283.299 33.1754 283.279 33.5796C283.097 32.8116 282.955 32.0133 282.854 31.1848C282.773 30.336 282.683 29.5074 282.582 28.699C282.48 27.8704 282.349 27.0823 282.187 26.3345C282.046 25.5666 281.834 24.8592 281.551 24.2125L281.763 23.9094C281.561 23.4446 281.329 23.0909 281.066 22.8484C280.823 22.5857 280.581 22.3937 280.338 22.2724C280.096 22.1512 279.873 22.0805 279.671 22.0602C279.469 22.04 279.338 22.0299 279.277 22.0299C278.772 22.0299 278.317 22.2118 277.913 22.5756C277.529 22.9394 277.186 23.4345 276.882 24.061C276.6 24.6673 276.347 25.3746 276.125 26.183C275.902 26.9913 275.71 27.8401 275.549 28.7293C275.387 29.6185 275.246 30.5179 275.124 31.4273C275.003 32.3165 274.902 33.1552 274.821 33.9433H275.094C275.195 33.2562 275.296 32.4984 275.397 31.6698C275.518 30.8412 275.64 30.0025 275.761 29.1537C275.902 28.2847 276.064 27.446 276.246 26.6377C276.428 25.8293 276.64 25.1018 276.882 24.4551C277.145 23.8084 277.448 23.2829 277.792 22.8787C278.115 22.4947 278.509 22.2724 278.974 22.2118C278.53 22.3129 278.156 22.5958 277.853 23.0606C277.529 23.5456 277.246 24.1418 277.004 24.8491C276.761 25.5565 276.539 26.3345 276.337 27.1833C276.155 28.0119 275.983 28.8102 275.821 29.5781L275.215 34.004C275.134 34.2869 275.074 34.5395 275.033 34.7618L274.912 35.3984C274.872 35.6005 274.831 35.8228 274.791 36.0653C274.75 36.2876 274.7 36.5503 274.639 36.8535L274.548 37.2172H274.366L271.305 36.1866C271.204 36.1664 271.123 36.136 271.062 36.0956C271.022 36.0552 270.971 36.0047 270.911 35.9441ZM276.185 20.393C275.781 20.7365 275.458 21.1104 275.215 21.5146C274.993 21.8986 274.781 22.2927 274.579 22.6968V22.7272C274.862 22.1411 275.256 21.5449 275.761 20.9386C276.246 20.3728 276.893 19.9484 277.701 19.6654C277.438 19.7463 277.186 19.8271 276.943 19.908C276.66 20.009 276.408 20.1707 276.185 20.393ZM279.823 19.3926C279.722 19.3724 279.58 19.3623 279.399 19.3623C280.045 19.524 280.652 19.7059 281.217 19.908C281.783 20.0898 282.319 20.4637 282.824 21.0296C282.48 20.5648 282.026 20.201 281.46 19.9383C280.914 19.6755 280.369 19.4937 279.823 19.3926ZM280.641 22.8484C280.48 22.7272 280.288 22.6362 280.065 22.5756C279.863 22.4947 279.611 22.3937 279.308 22.2724L279.277 22.2118C279.621 22.232 279.924 22.3129 280.187 22.4543C280.449 22.5756 280.702 22.7979 280.945 23.1212L280.641 22.8484ZM282.885 21.0902C283.168 21.4338 283.43 21.8278 283.673 22.2724C283.915 22.7171 284.128 23.1111 284.309 23.4547C284.107 22.9899 283.915 22.5655 283.733 22.1815C283.552 21.7975 283.269 21.4338 282.885 21.0902ZM291.863 33.0036C292.186 33.1046 292.57 33.2865 293.014 33.5493C293.479 33.812 293.995 34.0848 294.561 34.3677C295.126 34.6507 295.743 34.9033 296.41 35.1256C297.097 35.3479 297.824 35.459 298.592 35.459H298.926C299.047 35.459 299.188 35.4388 299.35 35.3984L299.684 35.6409C300.472 35.3984 301.118 34.9437 301.624 34.2768C302.129 33.5897 302.382 32.6701 302.382 31.5182C302.382 30.6896 302.179 30.1238 301.775 29.8206C301.391 29.4973 300.674 29.3356 299.623 29.3356C298.976 29.3356 298.299 29.3861 297.592 29.4872C296.905 29.568 296.177 29.6084 295.409 29.6084C295.066 29.6084 294.712 29.5983 294.348 29.5781C293.985 29.5377 293.611 29.467 293.227 29.3659V29.5478C294.035 29.7499 294.833 29.8509 295.621 29.8509C296.389 29.8509 297.117 29.8105 297.804 29.7297C298.511 29.6286 299.188 29.5781 299.835 29.5781C300.381 29.5781 300.805 29.6387 301.108 29.76C301.432 29.8611 301.674 30.0025 301.836 30.1844C301.998 30.3663 302.099 30.5886 302.139 30.8513C302.2 31.0938 302.23 31.3666 302.23 31.6698C302.23 32.6196 301.977 33.428 301.472 34.0949C300.987 34.7214 300.411 35.1155 299.744 35.2772C300.492 35.0144 301.078 34.5597 301.502 33.913C301.947 33.2259 302.169 32.4579 302.169 31.6092C302.169 31.0029 302.008 30.5381 301.684 30.2147C301.381 29.8914 300.846 29.7297 300.078 29.7297C299.451 29.7297 298.744 29.7701 297.956 29.8509C297.168 29.9318 296.329 29.9722 295.44 29.9722C294.894 29.9722 294.257 29.9015 293.53 29.76C292.823 29.6185 292.145 29.3558 291.499 28.9718C290.852 28.5879 290.306 28.0624 289.862 27.3955C289.417 26.7084 289.195 25.8192 289.195 24.7279C289.195 23.8589 289.367 23.0606 289.71 22.3331C290.074 21.5853 290.549 20.9386 291.135 20.393C291.721 19.8271 292.388 19.3825 293.136 19.0592C293.904 18.7358 294.692 18.564 295.5 18.5438C296.268 18.5438 296.996 18.655 297.683 18.8773C298.39 19.0794 299.057 19.3522 299.684 19.6958C300.31 20.0191 300.906 20.3829 301.472 20.7871C302.038 21.1912 302.563 21.5954 303.048 21.9996L302.442 22.6059C302.301 22.6059 302.088 22.5251 301.806 22.3634C301.523 22.1815 301.088 21.8784 300.502 21.454L300.32 21.7268C301.048 22.3129 301.573 22.8585 301.896 23.3637C302.24 23.869 302.412 24.2631 302.412 24.546C302.371 24.7077 302.27 24.7885 302.109 24.7885C301.947 24.7885 301.624 24.6571 301.139 24.3944C300.654 24.1317 300.098 23.8387 299.471 23.5153C298.865 23.192 298.218 22.8989 297.531 22.6362C296.844 22.3735 296.218 22.2421 295.652 22.2421C295.328 22.2421 295.005 22.3028 294.682 22.424C294.358 22.5453 294.065 22.7171 293.803 22.9394C293.54 23.1414 293.318 23.3941 293.136 23.6972C292.974 24.0003 292.893 24.3338 292.893 24.6976C292.893 25.2836 293.166 25.6777 293.712 25.8798C294.257 26.0819 294.975 26.183 295.864 26.183C296.046 26.183 296.238 26.183 296.44 26.183C296.662 26.1627 296.864 26.1324 297.046 26.092C297.511 26.092 297.814 26.0819 297.956 26.0617C298.117 26.0213 298.269 26.0011 298.41 26.0011C299.279 26.0011 300.148 26.0617 301.017 26.183C301.886 26.3042 302.664 26.5669 303.352 26.9711C304.039 27.3753 304.594 27.9513 305.019 28.699C305.443 29.4468 305.655 30.4471 305.655 31.7001C305.655 32.5691 305.504 33.4381 305.201 34.3071C304.918 35.1559 304.483 35.9238 303.897 36.611C303.311 37.2779 302.584 37.8134 301.715 38.2176C300.846 38.642 299.825 38.8542 298.653 38.8542C297.946 38.8542 297.107 38.7127 296.137 38.4298C295.187 38.1671 294.278 37.8538 293.409 37.4901C292.56 37.1061 291.832 36.712 291.226 36.3078C290.64 35.9036 290.347 35.5601 290.347 35.2772C290.347 35.1963 290.397 35.1357 290.498 35.0953C291.731 36.0047 292.984 36.7524 294.257 37.3385C295.51 37.8842 296.794 38.1873 298.107 38.2479C297.461 38.2075 296.814 38.0964 296.167 37.9145C295.5 37.7124 294.833 37.4699 294.166 37.1869C293.52 36.8838 292.893 36.5503 292.287 36.1866C291.701 35.8026 291.135 35.4186 290.589 35.0346L291.044 34.6406C290.983 34.6203 290.872 34.5496 290.711 34.4284C290.549 34.3071 290.387 34.1555 290.226 33.9736C290.084 33.7918 289.953 33.5998 289.832 33.3977C289.71 33.1956 289.65 33.0036 289.65 32.8217C289.65 32.6196 289.69 32.4883 289.771 32.4276C289.852 32.367 289.943 32.3367 290.044 32.3367C290.145 32.3367 290.357 32.4074 290.68 32.5489C291.004 32.6904 291.398 32.8419 291.863 33.0036ZM298.562 36.0956C297.855 36.0956 297.066 35.9542 296.197 35.6712C295.349 35.3681 294.54 34.9841 293.772 34.5193C294.399 34.9437 295.096 35.3277 295.864 35.6712C296.632 35.9946 297.521 36.1563 298.532 36.1563C299.886 36.1563 300.957 35.742 301.745 34.9134C302.553 34.0848 302.957 32.9733 302.957 31.5788V31.2757C302.856 30.629 302.634 30.1036 302.291 29.6994C301.967 29.275 301.462 29.0426 300.775 29.0022C301.199 29.083 301.543 29.2144 301.806 29.3962C302.088 29.5781 302.301 29.8004 302.442 30.0631C302.604 30.3057 302.715 30.5785 302.776 30.8816C302.836 31.1848 302.867 31.498 302.867 31.8214C302.786 33.1552 302.361 34.2061 301.593 34.974C300.825 35.7218 299.815 36.0956 298.562 36.0956ZM302.412 37.2779C302.917 36.9545 303.321 36.5604 303.624 36.0956C303.928 35.6308 304.19 35.1458 304.413 34.6406C303.988 35.4893 303.402 36.2371 302.654 36.8838C301.927 37.5305 301.058 37.9347 300.047 38.0964C300.431 38.0357 300.825 37.9549 301.23 37.8538C301.654 37.7326 302.048 37.5406 302.412 37.2779ZM305.292 31.5788C305.292 31.3565 305.251 31.1443 305.17 30.9422C305.11 30.7806 305.059 30.6088 305.019 30.4269L305.049 30.821C305.069 30.9827 305.079 31.205 305.079 31.4879C305.079 32.0336 305.019 32.559 304.898 33.0642C304.776 33.5695 304.625 34.0646 304.443 34.5496C304.625 34.105 304.797 33.6402 304.958 33.1552C305.14 32.6499 305.251 32.1245 305.292 31.5788ZM305.019 30.336C305.019 30.3562 305.019 30.3865 305.019 30.4269C305.019 30.3865 305.019 30.3562 305.019 30.336ZM299.714 35.3075C299.694 35.3075 299.673 35.3075 299.653 35.3075C299.673 35.3075 299.694 35.3075 299.714 35.3075Z" fill="white"/>
<path fill-rule="evenodd" clip-rule="evenodd" d="M48.9906 46.809C43.9151 42.9595 37.0451 37.7488 15.7619 52.2998C4.28114 44.0164 1.50258 29.7243 6.13149 22.0571C9.59391 20.2005 12.4524 17.0025 15.3177 13.797C20.7849 7.68039 26.2769 1.53618 36.0363 4.63061C30.4543 12.8588 48.8001 21.526 48.8001 0.927124C52.2958 7.34839 56.9529 11.4994 60.804 14.9319C64.6426 18.3533 67.6803 21.0609 67.9686 24.5914C68.8349 35.2002 65.5032 44.6888 57.1902 48.758C53.7685 50.4329 51.6204 48.8037 48.9906 46.809ZM53.4652 53.0091C54.4562 53.1456 56.4403 53.4191 58.7427 51.9574C61.294 50.3378 59.3442 57.3173 55.4604 58.0599C53.8763 58.3628 51.5803 52.8175 53.1311 52.9669C53.2248 52.9759 53.3366 52.9914 53.4652 53.0091ZM56.9629 21.9487C56.9629 24.4215 54.9583 26.426 52.4856 26.426C50.0129 26.426 48.0083 24.4215 48.0083 21.9487C48.0083 19.476 50.0129 17.4715 52.4856 17.4715C54.9583 17.4715 56.9629 19.476 56.9629 21.9487ZM49.36 29.5517C49.36 32.0244 47.3554 34.029 44.8827 34.029C42.4099 34.029 40.4054 32.0244 40.4054 29.5517C40.4054 27.0789 42.4099 25.0744 44.8827 25.0744C47.3554 25.0744 49.36 27.0789 49.36 29.5517ZM52.4856 41.6318C54.9583 41.6318 56.9629 39.6272 56.9629 37.1545C56.9629 34.6818 54.9583 32.6772 52.4856 32.6772C50.0129 32.6772 48.0083 34.6818 48.0083 37.1545C48.0083 39.6272 50.0129 41.6318 52.4856 41.6318ZM64.5658 29.5517C64.5658 32.0244 62.5613 34.029 60.0885 34.029C57.6158 34.029 55.6113 32.0244 55.6113 29.5517C55.6113 27.0789 57.6158 25.0744 60.0885 25.0744C62.5613 25.0744 64.5658 27.0789 64.5658 29.5517ZM18.2721 25.5816H10.6692V33.3535H18.2721L18.2721 40.9564H25.875V33.3535L33.4779 33.3535V25.5816L25.875 25.5816V17.9786H18.2721L18.2721 25.5816Z" fill="white"/>
</svg>
