<svg width="89" height="78" viewBox="0 0 89 78" fill="none" xmlns="http://www.w3.org/2000/svg">
<path fill-rule="evenodd" clip-rule="evenodd" d="M62.2616 62.6266C55.3339 57.3722 45.9566 50.2599 16.9059 70.1214C1.23531 58.8149 -2.55731 39.3068 3.76095 28.8414C8.48699 26.3073 12.3887 21.9422 16.2997 17.5668C23.7622 9.2179 31.2585 0.831332 44.5797 5.05509C36.9604 16.2862 62.0017 28.1165 62.0016 0C66.7731 8.76473 73.1299 14.4306 78.3864 19.1158C83.6259 23.7859 87.7722 27.4816 88.1657 32.3007C89.3482 46.7811 84.8006 59.7327 73.4537 65.2869C68.7832 67.5731 65.8513 65.3493 62.2616 62.6266ZM68.3693 71.0895C69.7219 71.2759 72.4302 71.6491 75.5728 69.654C79.0552 67.4432 76.3938 76.97 71.0926 77.9836C68.9304 78.3971 65.7964 70.828 67.9133 71.0319C68.0411 71.0442 68.1937 71.0653 68.3691 71.0894L68.3693 71.0895ZM73.143 28.6936C73.143 32.0688 70.4069 34.8049 67.0317 34.8049C63.6565 34.8049 60.9204 32.0688 60.9204 28.6936C60.9204 25.3185 63.6565 22.5824 67.0317 22.5824C70.4069 22.5824 73.143 25.3185 73.143 28.6936ZM62.7653 39.0713C62.7653 42.4465 60.0292 45.1826 56.654 45.1826C53.2789 45.1826 50.5427 42.4465 50.5427 39.0713C50.5427 35.6961 53.2789 32.96 56.654 32.96C60.0292 32.96 62.7653 35.6961 62.7653 39.0713ZM67.0317 55.5601C70.4069 55.5601 73.143 52.824 73.143 49.4488C73.143 46.0736 70.4069 43.3375 67.0317 43.3375C63.6565 43.3375 60.9204 46.0736 60.9204 49.4488C60.9204 52.824 63.6565 55.5601 67.0317 55.5601ZM83.5206 39.0713C83.5206 42.4465 80.7845 45.1826 77.4093 45.1826C74.0342 45.1826 71.2981 42.4465 71.2981 39.0713C71.2981 35.6961 74.0342 32.96 77.4093 32.96C80.7845 32.96 83.5206 35.6961 83.5206 39.0713ZM20.3317 33.6519H9.9541V44.2602H20.3317L20.3318 54.6379H30.7094V44.2602L41.0871 44.2602V33.6519L30.7094 33.6519V23.2743H20.3318L20.3317 33.6519Z" fill="#CC7722"/>
</svg>
