<svg width="32" height="32" viewBox="0 0 32 32" fill="none" xmlns="http://www.w3.org/2000/svg">
<path fill-rule="evenodd" clip-rule="evenodd" d="M16.0036 7.79386C11.4632 7.79386 7.801 11.4561 7.801 15.9964C7.801 20.5368 11.4632 24.199 16.0036 24.199C20.5439 24.199 24.2061 20.5368 24.2061 15.9964C24.2061 11.4561 20.5439 7.79386 16.0036 7.79386ZM16.0036 21.3292C13.0695 21.3292 10.6708 18.9376 10.6708 15.9964C10.6708 13.0552 13.0624 10.6637 16.0036 10.6637C18.9448 10.6637 21.3363 13.0552 21.3363 15.9964C21.3363 18.9376 18.9376 21.3292 16.0036 21.3292V21.3292ZM26.4549 7.45834C26.4549 8.52203 25.5982 9.37156 24.5417 9.37156C23.478 9.37156 22.6284 8.51489 22.6284 7.45834C22.6284 6.40178 23.4851 5.54512 24.5417 5.54512C25.5982 5.54512 26.4549 6.40178 26.4549 7.45834ZM31.8876 9.40011C31.7662 6.83726 31.1808 4.56709 29.3033 2.69671C27.4329 0.826324 25.1627 0.240937 22.5999 0.112437C19.9585 -0.0374791 12.0415 -0.0374791 9.40011 0.112437C6.8444 0.233798 4.57423 0.819186 2.69671 2.68957C0.819186 4.55996 0.240937 6.83012 0.112437 9.39297C-0.0374791 12.0344 -0.0374791 19.9514 0.112437 22.5927C0.233798 25.1556 0.819186 27.4258 2.69671 29.2962C4.57423 31.1665 6.83726 31.7519 9.40011 31.8804C12.0415 32.0303 19.9585 32.0303 22.5999 31.8804C25.1627 31.7591 27.4329 31.1737 29.3033 29.2962C31.1737 27.4258 31.7591 25.1556 31.8876 22.5927C32.0375 19.9514 32.0375 12.0415 31.8876 9.40011V9.40011ZM28.4752 25.4269C27.9184 26.8261 26.8404 27.9041 25.434 28.468C23.3281 29.3033 18.3308 29.1105 16.0036 29.1105C13.6763 29.1105 8.67195 29.2962 6.57312 28.468C5.1739 27.9112 4.09593 26.8332 3.53196 25.4269C2.69671 23.3209 2.88946 18.3237 2.88946 15.9964C2.88946 13.6692 2.70385 8.66481 3.53196 6.56598C4.08879 5.16676 5.16676 4.08879 6.57312 3.52482C8.67909 2.68957 13.6763 2.88232 16.0036 2.88232C18.3308 2.88232 23.3352 2.69671 25.434 3.52482C26.8332 4.08165 27.9112 5.15962 28.4752 6.56598C29.3104 8.67195 29.1177 13.6692 29.1177 15.9964C29.1177 18.3237 29.3104 23.3281 28.4752 25.4269Z" fill="white"/>
</svg>
