<svg width="334" height="64" viewBox="0 0 334 64" fill="none" xmlns="http://www.w3.org/2000/svg">
<path d="M56.8633 34.2543L56.7482 34.1967C56.2111 34.0561 55.642 33.9666 55.041 33.9282C54.44 33.8898 53.8262 33.8067 53.1996 33.6788C53.8134 33.8067 54.4144 33.909 55.0026 33.9857C55.5909 34.0497 56.1727 34.1776 56.7482 34.3694C56.5691 34.4845 56.3773 34.542 56.1727 34.542C55.9298 34.5164 55.6868 34.4781 55.4438 34.4269C55.2136 34.3758 54.9643 34.3374 54.6957 34.3118C54.6957 34.2351 54.7149 34.1776 54.7533 34.1392C54.3824 34.1392 54.0116 34.1008 53.6408 34.0241C53.2827 33.9474 52.931 33.8643 52.5858 33.7747C52.2405 33.6724 51.9016 33.5829 51.5692 33.5062C51.2495 33.4167 50.949 33.3719 50.6676 33.3719C50.6676 33.4103 50.6612 33.4295 50.6485 33.4295C50.9809 33.4934 51.2942 33.5829 51.5883 33.698C51.8825 33.8131 52.2149 33.9026 52.5858 33.9666C52.9438 34.0561 53.2891 34.12 53.6216 34.1584C53.9668 34.1967 54.3057 34.2479 54.6382 34.3118C54.1011 34.2607 53.5513 34.1839 52.9886 34.0816C52.4387 33.9793 51.8952 33.8643 51.3582 33.7364L50.4566 33.5062C50.1369 34.3246 49.8109 35.1302 49.4784 35.9231C49.1587 36.7031 48.8454 37.4959 48.5385 38.3016C48.5129 38.2504 48.4682 38.2185 48.4042 38.2057C48.3531 38.2057 48.2955 38.2057 48.2316 38.2057C48.1804 38.2057 48.1293 38.1865 48.0781 38.1481C48.027 38.1225 48.0014 38.0586 48.0014 37.9563C48.0014 37.854 48.027 37.7069 48.0781 37.5151C48.1293 37.3361 48.2252 37.0931 48.3659 36.7862C48.3403 36.7607 48.2955 36.7479 48.2316 36.7479C48.1804 36.7351 48.1421 36.7287 48.1165 36.7287C47.8607 37.2658 47.6114 37.675 47.3684 37.9563C47.1382 38.2504 46.9528 38.3975 46.8122 38.3975C46.6587 38.3975 46.582 38.2504 46.582 37.9563C46.582 37.7133 46.6267 37.4064 46.7162 37.0356C46.8058 36.652 46.9145 36.2428 47.0423 35.808C47.183 35.3732 47.3365 34.9256 47.5027 34.4653C47.6689 33.9921 47.8288 33.5318 47.9822 33.0842C47.8416 32.9947 47.6881 32.9308 47.5219 32.8924C47.3684 32.854 47.1958 32.8221 47.004 32.7965C47.0423 32.7453 47.0615 32.6814 47.0615 32.6047C47.0615 32.5279 47.0679 32.4512 47.0807 32.3745C47.0935 32.2978 47.1191 32.2338 47.1574 32.1827C47.1958 32.1315 47.2661 32.106 47.3684 32.106C47.394 32.106 47.4707 32.1187 47.5986 32.1443V31.9717C47.394 31.8694 47.2341 31.7479 47.1191 31.6072C47.0168 31.4666 46.9656 31.3259 46.9656 31.1852C46.9656 30.8783 47.2597 30.7249 47.848 30.7249C48.0142 30.7249 48.1804 30.7377 48.3467 30.7632C48.5257 30.776 48.7047 30.7952 48.8838 30.8208L49.7661 28.8067C49.9579 28.372 50.1625 27.9244 50.3799 27.464C50.6101 27.0037 50.8786 26.5497 51.1855 26.1021C51.4924 25.6546 51.8377 25.2326 52.2213 24.8362C52.6178 24.427 53.0717 24.0625 53.5832 23.7428L53.8709 23.6277C54.229 23.7173 54.5167 23.794 54.7341 23.8579C54.9643 23.9091 55.1497 23.9474 55.2904 23.973C55.4182 24.0242 55.5205 24.0561 55.5973 24.0689H55.5781L55.5973 24.1265C55.5973 24.1392 55.5909 24.152 55.5781 24.1648L55.8083 24.5676C56.6395 25.9615 57.3428 27.4065 57.9182 28.9026C58.4937 30.3988 58.986 31.8694 59.3952 33.3144C59.4975 33.6341 59.619 33.9793 59.7597 34.3502C59.9131 34.7082 60.0538 35.0535 60.1816 35.386C60.3223 35.7057 60.4374 35.9998 60.5269 36.2683C60.6164 36.5241 60.6612 36.7095 60.6612 36.8246C60.6612 36.9141 60.642 36.9717 60.6036 36.9972C60.5653 37.01 60.5141 37.0164 60.4502 37.0164C60.1177 36.1852 59.8044 35.3668 59.5103 34.5612C59.2162 33.7683 58.9285 32.9691 58.6471 32.1635C58.9029 32.9691 59.1714 33.7683 59.4528 34.5612C59.7469 35.3668 60.041 36.1852 60.3351 37.0164H60.2008C60.1241 37.0164 60.073 37.0548 60.0474 37.1315C60.073 37.1571 60.1049 37.2274 60.1433 37.3425C60.1816 37.4448 60.22 37.5535 60.2584 37.6686C60.2967 37.7965 60.3287 37.9243 60.3543 38.0522C60.3799 38.1801 60.3926 38.276 60.3926 38.3399C60.3926 38.6213 60.3095 38.7619 60.1433 38.7619C60.0538 38.7619 59.9834 38.7427 59.9323 38.7044C59.8811 38.666 59.8236 38.6149 59.7597 38.5509L59.5678 38.3591C59.4911 38.2824 59.3952 38.2057 59.2801 38.1289L57.4387 32.8348C57.7072 33.666 57.9694 34.4972 58.2251 35.3284C58.4937 36.1596 58.7686 36.978 59.0499 37.7837C58.8453 37.5407 58.6535 37.2466 58.4745 36.9013C58.3083 36.5561 58.1484 36.1916 57.995 35.808C57.8543 35.4243 57.72 35.0343 57.5921 34.6379C57.4643 34.2287 57.3364 33.8451 57.2085 33.487C57.2085 33.5126 57.2085 33.5382 57.2085 33.5637C57.2213 33.5765 57.2277 33.5957 57.2277 33.6213C57.2277 33.8259 57.1638 33.9793 57.0359 34.0816L56.8633 34.2543ZM56.7482 32.2594C56.7737 32.2594 56.8121 32.253 56.8633 32.2402C56.9144 32.2146 56.9528 32.2019 56.9783 32.2019C56.5563 31.1405 56.1344 30.1111 55.7124 29.1136C55.3032 28.1162 54.8492 27.1571 54.3505 26.2364L54.2354 26.3515L54.5231 26.8694C54.9707 27.6878 55.3735 28.5318 55.7315 29.4014C56.0896 30.2709 56.4285 31.1661 56.7482 32.0868C56.3773 31.0893 55.9745 30.0983 55.5397 29.1136C55.1177 28.1162 54.6638 27.2147 54.1778 26.4091L54.1011 26.4474C53.6663 26.895 53.2571 27.4321 52.8735 28.0587C52.5027 28.6853 52.151 29.3246 51.8185 29.9768L51.3198 31.1852L51.6459 31.262C51.8377 31.3131 52.0231 31.3707 52.2022 31.4346C52.394 31.4858 52.5602 31.5433 52.7009 31.6072C52.9822 31.7479 53.353 31.8566 53.8134 31.9333C54.2738 32.01 54.7213 32.0868 55.1561 32.1635C55.6037 32.2274 55.9873 32.3042 56.307 32.3937C56.6395 32.4704 56.8057 32.5855 56.8057 32.7389L54.4656 32.4704C54.6062 32.496 54.7789 32.5279 54.9835 32.5663C55.1881 32.5919 55.3927 32.6239 55.5973 32.6622C55.8147 32.7006 56.0257 32.7389 56.2303 32.7773C56.4349 32.8029 56.6075 32.8285 56.7482 32.854C56.7482 32.8924 56.7418 32.9308 56.729 32.9691C56.729 32.9947 56.729 33.0203 56.729 33.0458C56.729 33.0714 56.7418 33.0906 56.7673 33.1034C56.8057 33.1034 56.8441 33.1098 56.8824 33.1226C56.9336 33.1226 56.9783 33.1354 57.0167 33.1609C57.0551 33.1737 57.0934 33.2121 57.1318 33.276L56.7482 32.2594ZM52.5858 28.1546C52.6114 28.1546 52.6178 28.1737 52.605 28.2121C52.605 28.2377 52.6114 28.2505 52.6241 28.2505C52.6497 28.2505 52.7264 28.161 52.8543 27.9819C52.9822 27.8029 53.1293 27.5983 53.2955 27.3681C53.4617 27.1379 53.6216 26.9206 53.775 26.716C53.9285 26.5114 54.0372 26.3771 54.1011 26.3131L54.0052 26.1789C53.7367 26.4346 53.4873 26.7351 53.2571 27.0804C53.027 27.4257 52.8032 27.7837 52.5858 28.1546ZM54.5231 26.083C54.9323 26.7735 55.3096 27.496 55.6548 28.2505C55.9873 28.9922 56.3006 29.7338 56.5947 30.4755C56.3517 29.7338 56.0576 28.9922 55.7124 28.2505C55.3543 27.496 54.9643 26.7735 54.5423 26.083H54.5231ZM57.4579 28.9602C57.8543 29.9832 58.2443 31.0254 58.6279 32.0868C58.2699 31.051 57.8927 30.028 57.4962 29.0177C57.1254 28.0203 56.697 27.0165 56.2111 26.0062C56.6714 26.9781 57.087 27.9628 57.4579 28.9602ZM54.6382 25.661C54.8044 25.6993 54.9195 25.7377 54.9835 25.7761C55.0474 25.8144 55.0922 25.8336 55.1177 25.8336L55.1369 25.7761C55.1497 25.7761 55.1241 25.7697 55.0602 25.7569C54.9963 25.7441 54.9451 25.7313 54.9067 25.7185L54.9451 25.6418L54.7149 25.5651L54.6382 25.661ZM53.6983 25.4692L53.8518 25.872L53.8326 25.4692C53.807 25.4692 53.775 25.4628 53.7367 25.45C53.7111 25.4372 53.6855 25.4308 53.6599 25.4308L53.6983 25.4692ZM54.197 26.0254L54.0628 26.1213L54.1778 26.2748L54.2929 26.1597L54.197 26.0254ZM54.4656 25.9871H54.4847L54.3888 25.8528V25.872L54.4656 25.9871ZM72.3123 25.6993L72.2547 26.0446C72.1908 26.6712 72.1524 27.3426 72.1397 28.0587C72.1269 28.762 72.0757 29.4717 71.9862 30.1878C72.0885 29.4845 72.1716 28.7939 72.2356 28.1162C72.2995 27.4129 72.3634 26.7223 72.4274 26.0446C72.4913 26.2492 72.5425 26.4666 72.5808 26.6968C72.632 26.927 72.6576 27.1699 72.6576 27.4257C72.5936 28.0651 72.5361 28.6789 72.4849 29.2671C72.4338 29.8553 72.3634 30.4691 72.2739 31.1085L72.0246 31.1661C71.9606 31.7543 71.8264 32.3937 71.6218 33.0842C71.4172 33.7747 71.1166 34.4141 70.7202 35.0024C70.3366 35.5906 69.8379 36.0829 69.2241 36.4793C68.6103 36.863 67.875 37.0548 67.0182 37.0548C66.7369 37.0548 66.4364 37.0356 66.1167 36.9972C65.8098 36.9461 65.5093 36.8757 65.2151 36.7862C64.921 36.6839 64.6397 36.5561 64.3712 36.4026C64.1026 36.2492 63.8724 36.0573 63.6806 35.8272L63.6998 35.8655V35.8847L63.6806 35.9039L63.6231 35.8847C63.6998 35.9998 63.7829 36.1021 63.8724 36.1916C63.6423 35.987 63.4313 35.7504 63.2394 35.4819C62.9198 35.0471 62.664 34.5292 62.4722 33.9282C62.3571 33.5701 62.2676 33.2057 62.2036 32.8348C62.1397 32.464 62.095 32.074 62.0694 31.6648C62.0438 31.2428 62.0246 30.7888 62.0118 30.3029C62.0118 29.817 62.0118 29.2799 62.0118 28.6916C62.1269 28.2313 62.2164 27.7709 62.2804 27.3106C62.3443 26.8502 62.3891 26.3899 62.4146 25.9295C62.453 25.9295 62.4978 25.9231 62.5489 25.9103C62.6001 25.8975 62.6512 25.8912 62.7024 25.8912C62.7919 25.8912 62.8686 25.9423 62.9325 26.0446C63.0093 26.1469 63.0476 26.3643 63.0476 26.6968V26.8694C63.0476 26.9206 63.0412 26.9781 63.0284 27.042H63.2586C63.3609 26.505 63.4824 26.0958 63.6231 25.8144C63.7637 25.5331 63.9044 25.3924 64.0451 25.3924C64.1474 25.3924 64.2369 25.5395 64.3136 25.8336C64.4031 26.1149 64.4479 26.5625 64.4479 27.1763C64.4479 27.6239 64.4351 28.0778 64.4095 28.5382C64.3839 28.9986 64.3712 29.4717 64.3712 29.9576C64.3712 30.7121 64.4031 31.3962 64.4671 32.01C64.5438 32.6239 64.6845 33.1481 64.8891 33.5829C65.0937 34.0177 65.3814 34.3566 65.7522 34.5995C66.1358 34.8297 66.6282 34.9448 67.2292 34.9448C67.7279 34.9448 68.1435 34.7914 68.476 34.4845C68.8085 34.1776 69.0898 33.7683 69.32 33.2568C69.5502 32.7453 69.742 32.1571 69.8954 31.4921C70.0617 30.8144 70.2151 30.1111 70.3558 29.3822C70.3814 29.1776 70.4005 28.973 70.4133 28.7684C70.4261 28.5638 70.4325 28.3528 70.4325 28.1354V27.5408C70.4325 27.1699 70.4517 26.8566 70.49 26.6009C70.5284 26.3451 70.6371 26.1981 70.8161 26.1597C70.8161 26.8119 70.7969 27.4576 70.7586 28.097C70.733 28.7108 70.6819 29.3246 70.6051 29.9384C70.6946 29.3374 70.765 28.7364 70.8161 28.1354C70.8673 27.5088 70.9056 26.8694 70.9312 26.2172C71.0079 26.2684 71.0719 26.294 71.123 26.294C71.1742 26.294 71.2253 26.2684 71.2765 26.2172V25.5267C71.3404 25.2965 71.4044 25.1367 71.4683 25.0472C71.5322 24.9449 71.6026 24.8937 71.6793 24.8937C71.756 24.8937 71.8327 24.9321 71.9095 25.0088C71.9862 25.0855 72.0629 25.1814 72.1397 25.2965L72.3123 25.6993ZM64.3903 36.5752C64.6972 36.7415 65.0105 36.8757 65.3302 36.978C65.6627 37.0676 65.9696 37.1315 66.2509 37.1699C66.5451 37.2082 66.7816 37.2274 66.9607 37.2274C67.8558 37.2274 68.6167 37.0292 69.2432 36.6328C69.8698 36.2364 70.3814 35.744 70.7778 35.1558C71.187 34.5548 71.5003 33.9154 71.7177 33.2377C71.9223 32.5983 72.0757 32.01 72.178 31.473C72.0885 32.01 71.9478 32.6047 71.756 33.2568C71.5386 33.9474 71.2253 34.5932 70.8161 35.1942C70.4197 35.7952 69.9146 36.3003 69.3008 36.7095C68.687 37.1187 67.9453 37.3233 67.0757 37.3233C66.5898 37.3233 66.1103 37.2594 65.6371 37.1315C65.164 37.0036 64.7228 36.8054 64.3136 36.5369C64.3392 36.5497 64.3648 36.5624 64.3903 36.5752ZM71.7368 31.8566C71.7752 31.6392 71.8072 31.4282 71.8327 31.2236C71.8583 31.0446 71.8839 30.8655 71.9095 30.6865C71.8327 31.2492 71.7049 31.8438 71.5258 32.4704C71.3468 33.1226 71.0975 33.7428 70.7778 34.331C70.4581 34.9064 70.0553 35.418 69.5693 35.8655C69.109 36.2875 68.5719 36.5752 67.9581 36.7287C68.4952 36.6136 68.9747 36.3898 69.3967 36.0573C69.8315 35.7121 70.2023 35.3093 70.5092 34.8489C70.8161 34.3885 71.0655 33.8962 71.2573 33.3719C71.4619 32.8476 71.6218 32.3425 71.7368 31.8566ZM69.8379 33.1993C69.6972 33.4806 69.5374 33.7492 69.3583 34.0049C69.1921 34.2607 69.0003 34.4908 68.7829 34.6955C69.0131 34.5036 69.2113 34.2799 69.3775 34.0241C69.5565 33.7683 69.71 33.4934 69.8379 33.1993ZM64.3136 36.5369C64.1602 36.4346 64.0131 36.3195 63.8724 36.1916C64.0131 36.3195 64.1602 36.4346 64.3136 36.5369ZM72.1972 31.3387L72.178 31.473L72.1972 31.3387ZM71.9287 30.5906C71.9159 30.629 71.9095 30.6609 71.9095 30.6865C71.9095 30.6609 71.9159 30.629 71.9287 30.5906ZM76.173 34.2926C76.3776 34.3566 76.6206 34.4717 76.9019 34.6379C77.196 34.8041 77.5221 34.9768 77.8802 35.1558C78.2382 35.3348 78.6282 35.4947 79.0502 35.6353C79.485 35.776 79.9454 35.8463 80.4313 35.8463H80.6423C80.719 35.8463 80.8085 35.8336 80.9108 35.808L81.1218 35.9614C81.6205 35.808 82.0298 35.5203 82.3494 35.0983C82.6691 34.6635 82.829 34.0816 82.829 33.3527C82.829 32.8285 82.7011 32.4704 82.4454 32.2786C82.2024 32.074 81.7484 31.9717 81.0835 31.9717C80.6743 31.9717 80.2459 32.0037 79.7983 32.0676C79.3635 32.1187 78.9032 32.1443 78.4172 32.1443C78.1999 32.1443 77.9761 32.1379 77.7459 32.1251C77.5157 32.0996 77.2791 32.0548 77.0362 31.9909V32.106C77.5477 32.2338 78.0528 32.2978 78.5515 32.2978C79.0374 32.2978 79.4978 32.2722 79.9326 32.221C80.3801 32.1571 80.8085 32.1251 81.2177 32.1251C81.563 32.1251 81.8315 32.1635 82.0234 32.2402C82.228 32.3042 82.3814 32.3937 82.4837 32.5088C82.586 32.6239 82.65 32.7645 82.6755 32.9308C82.7139 33.0842 82.7331 33.2568 82.7331 33.4487C82.7331 34.0497 82.5732 34.5612 82.2535 34.9832C81.9466 35.3796 81.5822 35.629 81.1602 35.7313C81.6333 35.565 82.0042 35.2773 82.2727 34.8681C82.554 34.4333 82.6947 33.9474 82.6947 33.4103C82.6947 33.0267 82.5924 32.7325 82.3878 32.5279C82.196 32.3233 81.8571 32.221 81.3712 32.221C80.9748 32.221 80.5272 32.2466 80.0285 32.2978C79.5298 32.3489 78.9991 32.3745 78.4364 32.3745C78.0912 32.3745 77.6883 32.3297 77.228 32.2402C76.7804 32.1507 76.352 31.9845 75.9428 31.7415C75.5336 31.4985 75.1884 31.1661 74.907 30.7441C74.6257 30.3093 74.485 29.7466 74.485 29.0561C74.485 28.5062 74.5937 28.0011 74.8111 27.5408C75.0413 27.0676 75.3418 26.6584 75.7127 26.3131C76.0835 25.9551 76.5055 25.6738 76.9786 25.4692C77.4646 25.2646 77.9633 25.1559 78.4748 25.1431C78.9607 25.1431 79.4211 25.2134 79.8559 25.3541C80.3034 25.4819 80.7254 25.6546 81.1218 25.872C81.5182 26.0766 81.8955 26.3068 82.2535 26.5625C82.6116 26.8183 82.9441 27.074 83.251 27.3298L82.8673 27.7134C82.7778 27.7134 82.6436 27.6622 82.4645 27.5599C82.2855 27.4449 82.0106 27.253 81.6397 26.9845L81.5246 27.1571C81.985 27.528 82.3175 27.8732 82.5221 28.1929C82.7395 28.5126 82.8482 28.762 82.8482 28.941C82.8226 29.0433 82.7587 29.0945 82.6563 29.0945C82.554 29.0945 82.3494 29.0113 82.0425 28.8451C81.7356 28.6789 81.384 28.4934 80.9876 28.2888C80.6039 28.0842 80.1947 27.8988 79.7599 27.7326C79.3252 27.5663 78.9287 27.4832 78.5707 27.4832C78.3661 27.4832 78.1615 27.5216 77.9569 27.5983C77.7523 27.675 77.5669 27.7837 77.4006 27.9244C77.2344 28.0523 77.0937 28.2121 76.9786 28.4039C76.8763 28.5957 76.8252 28.8067 76.8252 29.0369C76.8252 29.4078 76.9978 29.6571 77.3431 29.785C77.6883 29.9129 78.1423 29.9768 78.705 29.9768C78.8201 29.9768 78.9415 29.9768 79.0694 29.9768C79.2101 29.964 79.338 29.9448 79.453 29.9193C79.7472 29.9193 79.939 29.9129 80.0285 29.9001C80.1308 29.8745 80.2267 29.8617 80.3162 29.8617C80.8661 29.8617 81.4159 29.9001 81.9658 29.9768C82.5157 30.0535 83.008 30.2198 83.4428 30.4755C83.8776 30.7313 84.2292 31.0957 84.4978 31.5689C84.7663 32.042 84.9006 32.675 84.9006 33.4678C84.9006 34.0177 84.8047 34.5676 84.6129 35.1174C84.4338 35.6545 84.1589 36.1405 83.7881 36.5752C83.4172 36.9972 82.9569 37.3361 82.407 37.5919C81.8571 37.8604 81.2113 37.9947 80.4697 37.9947C80.0221 37.9947 79.4914 37.9052 78.8776 37.7261C78.2766 37.5599 77.7011 37.3617 77.1513 37.1315C76.6142 36.8885 76.1538 36.6392 75.7702 36.3834C75.3994 36.1277 75.2139 35.9103 75.2139 35.7313C75.2139 35.6801 75.2459 35.6417 75.3098 35.6162C76.0899 36.1916 76.8827 36.6648 77.6883 37.0356C78.4812 37.3809 79.2932 37.5727 80.1244 37.611C79.7152 37.5855 79.306 37.5151 78.8968 37.4C78.4748 37.2722 78.0528 37.1187 77.6308 36.9397C77.2216 36.7479 76.8252 36.5369 76.4415 36.3067C76.0707 36.0637 75.7127 35.8208 75.3674 35.5778L75.6551 35.3284C75.6167 35.3157 75.5464 35.2709 75.4441 35.1942C75.3418 35.1174 75.2395 35.0215 75.1372 34.9064C75.0477 34.7914 74.9646 34.6699 74.8878 34.542C74.8111 34.4141 74.7728 34.2926 74.7728 34.1776C74.7728 34.0497 74.7983 33.9666 74.8495 33.9282C74.9006 33.8898 74.9582 33.8706 75.0221 33.8706C75.0861 33.8706 75.2203 33.9154 75.4249 34.0049C75.6295 34.0944 75.8789 34.1903 76.173 34.2926ZM80.4121 36.2492C79.9645 36.2492 79.4658 36.1596 78.916 35.9806C78.3789 35.7888 77.8674 35.5458 77.3814 35.2517C77.7779 35.5203 78.219 35.7632 78.705 35.9806C79.1909 36.1852 79.7536 36.2875 80.3929 36.2875C81.2497 36.2875 81.9275 36.0254 82.4262 35.5011C82.9377 34.9768 83.1934 34.2735 83.1934 33.3911V33.1993C83.1295 32.7901 82.9888 32.4576 82.7714 32.2019C82.5668 31.9333 82.2471 31.7863 81.8124 31.7607C82.0809 31.8118 82.2983 31.895 82.4645 32.01C82.6436 32.1251 82.7778 32.2658 82.8673 32.432C82.9696 32.5855 83.04 32.7581 83.0783 32.9499C83.1167 33.1418 83.1359 33.34 83.1359 33.5446C83.0847 34.3885 82.8162 35.0535 82.3303 35.5394C81.8443 36.0126 81.205 36.2492 80.4121 36.2492ZM82.8482 36.9972C83.1679 36.7926 83.4236 36.5433 83.6154 36.2492C83.8072 35.955 83.9735 35.6481 84.1141 35.3284C83.8456 35.8655 83.4748 36.3387 83.0016 36.7479C82.5413 37.1571 81.9914 37.4128 81.352 37.5151C81.595 37.4768 81.8443 37.4256 82.1001 37.3617C82.3686 37.285 82.618 37.1635 82.8482 36.9972ZM84.6704 33.3911C84.6704 33.2504 84.6448 33.1162 84.5937 32.9883C84.5553 32.886 84.5233 32.7773 84.4978 32.6622L84.517 32.9116C84.5297 33.0139 84.5361 33.1545 84.5361 33.3336C84.5361 33.6788 84.4978 34.0113 84.421 34.331C84.3443 34.6507 84.2484 34.964 84.1333 35.2709C84.2484 34.9896 84.3571 34.6955 84.4594 34.3885C84.5745 34.0689 84.6448 33.7364 84.6704 33.3911ZM84.4978 32.6047C84.4978 32.6175 84.4978 32.6366 84.4978 32.6622C84.4978 32.6366 84.4978 32.6175 84.4978 32.6047ZM81.141 35.7504C81.1282 35.7504 81.1154 35.7504 81.1026 35.7504C81.1154 35.7504 81.1282 35.7504 81.141 35.7504ZM86.1393 36.0957C86.1393 36.019 86.184 35.9486 86.2736 35.8847C86.3631 35.8208 86.4654 35.7632 86.5805 35.7121C86.7083 35.6609 86.8298 35.6162 86.9449 35.5778C87.0728 35.5394 87.1687 35.5075 87.2326 35.4819C87.8464 35.5586 88.4602 35.6226 89.0741 35.6737C89.6879 35.7249 90.3017 35.7504 90.9155 35.7504C91.1457 35.7504 91.4653 35.7504 91.8745 35.7504C92.2838 35.7376 92.7313 35.7121 93.2173 35.6737C93.7032 35.6353 94.1955 35.5778 94.6942 35.5011C95.1929 35.4116 95.6469 35.2901 96.0561 35.1366C96.4653 34.9832 96.7978 34.7914 97.0535 34.5612C97.3093 34.331 97.4372 34.0433 97.4372 33.698C97.4372 33.4167 97.3732 33.1673 97.2454 32.9499C97.1303 32.7198 96.9704 32.5216 96.7658 32.3553C96.574 32.1763 96.3566 32.0292 96.1137 31.9141C96.0241 31.863 95.9282 31.8182 95.8259 31.7799C95.9282 31.831 96.0241 31.8822 96.1137 31.9333C96.3438 32.0612 96.5484 32.221 96.7275 32.4129C96.9193 32.5919 97.0727 32.7965 97.1878 33.0267C97.3029 33.2441 97.3605 33.4934 97.3605 33.7747C97.3605 34.0816 97.2454 34.3438 97.0152 34.5612C96.7978 34.7658 96.5101 34.9384 96.152 35.0791C95.8068 35.2197 95.4167 35.3284 94.9819 35.4052C94.56 35.4819 94.138 35.5394 93.716 35.5778C93.294 35.6162 92.904 35.6417 92.5459 35.6545C92.1878 35.6545 91.9065 35.6545 91.7019 35.6545C91.0497 35.6545 90.3912 35.6353 89.7262 35.597C89.0741 35.5458 88.4219 35.4883 87.7697 35.4243C87.9999 35.3604 88.2301 35.3157 88.4602 35.2901C88.7032 35.2517 88.9462 35.2325 89.1891 35.2325C89.5983 35.2325 90.0012 35.2389 90.3976 35.2517C90.794 35.2517 91.1904 35.2517 91.5868 35.2517C92.06 35.2517 92.5267 35.2453 92.9871 35.2325C93.4474 35.207 93.9206 35.1558 94.4065 35.0791L94.464 35.3093C94.6559 35.2709 94.8988 35.2134 95.1929 35.1366C95.4871 35.0471 95.7684 34.9384 96.0369 34.8105C96.3183 34.6827 96.5548 34.5228 96.7466 34.331C96.9512 34.1392 97.0535 33.9154 97.0535 33.6597C97.0535 33.2888 96.9193 32.9627 96.6507 32.6814C96.3822 32.4001 96.0369 32.1507 95.6149 31.9333C95.2057 31.7031 94.739 31.5049 94.2147 31.3387C93.6904 31.1725 93.1725 31.0254 92.661 30.8975C92.1623 30.7696 91.6891 30.6546 91.2416 30.5523C90.794 30.45 90.4359 30.354 90.1674 30.2645V30.3796C90.4359 30.4819 90.7876 30.5906 91.2224 30.7057C91.6572 30.808 92.1239 30.9231 92.6226 31.051C93.1341 31.1788 93.6456 31.3259 94.1571 31.4921C94.6687 31.6456 95.129 31.831 95.5382 32.0484C95.9602 32.2658 96.2991 32.5152 96.5548 32.7965C96.8234 33.0778 96.9576 33.3975 96.9576 33.7556C96.9576 33.9602 96.8617 34.1392 96.6699 34.2926C96.4781 34.4461 96.2479 34.5804 95.9794 34.6955C95.7236 34.7978 95.4615 34.8809 95.1929 34.9448C94.9244 35.0087 94.7198 35.0535 94.5791 35.0791C94.7454 35.0407 94.9564 34.9896 95.2121 34.9256C95.4807 34.8489 95.7364 34.753 95.9794 34.6379C96.2351 34.5228 96.4525 34.3885 96.6316 34.2351C96.8106 34.0689 96.9001 33.877 96.9001 33.6597C96.9001 33.3016 96.7594 33.0011 96.4781 32.7581C96.1968 32.5152 95.8259 32.2978 95.3656 32.106C94.9052 31.9141 94.3809 31.7415 93.7927 31.5881C93.2045 31.4346 92.5971 31.2684 91.9705 31.0893C91.3566 30.9103 90.7556 30.7057 90.1674 30.4755C89.5792 30.2453 89.0549 29.9576 88.5945 29.6124C88.1342 29.2671 87.7633 28.8579 87.482 28.3847C87.2007 27.9116 87.06 27.3426 87.06 26.6776C87.06 26.0254 87.2134 25.4756 87.5204 25.028C87.84 24.5676 88.2429 24.1968 88.7288 23.9155C89.2275 23.6213 89.771 23.4103 90.3592 23.2825C90.9474 23.1546 91.5165 23.0907 92.0664 23.0907C92.872 23.0907 93.6584 23.2057 94.4257 23.4359C95.2057 23.6661 95.941 23.9858 96.6316 24.395C96.5548 24.4206 96.5101 24.4589 96.4973 24.5101C96.4845 24.5484 96.4717 24.5932 96.4589 24.6444C96.4589 24.6955 96.4461 24.7403 96.4206 24.7786C96.4078 24.817 96.3694 24.8362 96.3055 24.8362C96.2543 24.8362 96.152 24.817 95.9986 24.7786C95.8579 24.7275 95.7045 24.6763 95.5382 24.6252C95.372 24.5612 95.2121 24.5037 95.0587 24.4525C94.9052 24.4014 94.8029 24.363 94.7518 24.3375L94.6942 24.5101C94.8093 24.5612 94.9564 24.638 95.1354 24.7403C95.3272 24.8298 95.5062 24.9449 95.6725 25.0855C95.8515 25.2134 95.9986 25.3541 96.1137 25.5075C96.2415 25.661 96.3055 25.8144 96.3055 25.9679C96.3055 26.1341 96.2287 26.2172 96.0753 26.2172C95.8835 26.2172 95.6533 26.1661 95.3848 26.0638C95.129 25.9615 94.8413 25.8528 94.5216 25.7377C94.2019 25.6098 93.8566 25.4947 93.4858 25.3924C93.1277 25.2901 92.7633 25.239 92.3924 25.239C92.1495 25.239 91.8618 25.2646 91.5293 25.3157C91.2096 25.3541 90.8963 25.4372 90.5894 25.5651C90.2953 25.6802 90.0459 25.8464 89.8413 26.0638C89.6367 26.2684 89.5344 26.5305 89.5344 26.8502C89.5344 27.1443 89.6687 27.3937 89.9372 27.5983C90.2185 27.8029 90.583 27.9883 91.0306 28.1546C91.4909 28.3208 92.0088 28.4807 92.5843 28.6341C93.1597 28.7876 93.7479 28.9602 94.349 29.152C94.9628 29.331 95.5574 29.542 96.1328 29.785C96.7083 30.028 97.2198 30.3221 97.6674 30.6673C98.1277 31.0126 98.4922 31.4218 98.7607 31.895C99.042 32.3681 99.1827 32.9244 99.1827 33.5637C99.1827 34.1903 99.0548 34.721 98.7991 35.1558C98.5433 35.5906 98.2044 35.955 97.7824 36.2492C97.3605 36.5305 96.8809 36.7543 96.3438 36.9205C95.8068 37.074 95.2505 37.1954 94.675 37.285C94.1124 37.3617 93.5497 37.4064 92.9871 37.4192C92.4372 37.4448 91.9385 37.4576 91.4909 37.4576H89.5728C89.4577 37.4576 89.2978 37.4512 89.0932 37.4384C88.9014 37.4384 88.7096 37.4256 88.5178 37.4C88.326 37.3873 88.1597 37.3553 88.0191 37.3041C87.8784 37.253 87.8081 37.189 87.8081 37.1123L87.8273 37.0164C88.3516 37.042 88.8695 37.0676 89.381 37.0931C89.8925 37.1059 90.4104 37.1123 90.9347 37.1123C91.4206 37.1123 91.9065 37.1123 92.3924 37.1123C92.8272 37.0995 93.262 37.074 93.6968 37.0356C93.4794 37.0484 93.262 37.0612 93.0446 37.074C92.7761 37.074 92.5139 37.074 92.2582 37.074H91.4909C90.2889 37.074 89.106 37.0356 87.9423 36.9589C87.9679 36.8566 87.9807 36.7862 87.9807 36.7479C87.9807 36.6967 87.9679 36.6456 87.9423 36.5944C87.9168 36.5944 87.8784 36.6008 87.8273 36.6136C87.7889 36.6136 87.7377 36.6136 87.6738 36.6136C87.5331 36.6136 87.3733 36.6072 87.1943 36.5944C87.028 36.5816 86.8618 36.5561 86.6955 36.5177C86.5421 36.4793 86.4078 36.4282 86.2927 36.3642C86.1904 36.2875 86.1393 36.198 86.1393 36.0957ZM97.9167 35.597C97.6993 35.7888 97.4691 35.9486 97.2262 36.0765C97.0088 36.1916 96.785 36.3003 96.5548 36.4026C96.785 36.3259 97.0088 36.2364 97.2262 36.1341C97.4691 36.0318 97.6993 35.8527 97.9167 35.597ZM102.289 42.9435C102.315 42.2274 102.334 41.5177 102.347 40.8143C102.36 40.1238 102.366 39.3885 102.366 38.6085C102.366 38.276 102.36 37.9435 102.347 37.611C102.334 37.2913 102.315 36.978 102.289 36.6711V38.7811C102.289 39.4844 102.277 40.1814 102.251 40.8719C102.238 41.5752 102.193 42.2657 102.117 42.9435C102.053 42.8284 101.995 42.7069 101.944 42.579C101.893 42.464 101.855 42.3361 101.829 42.1954C101.855 41.8501 101.867 41.5305 101.867 41.2363C101.88 40.955 101.887 40.6417 101.887 40.2964L102.117 40.1814C102.078 39.9128 102.053 39.6379 102.04 39.3566C102.027 39.088 102.021 38.8195 102.021 38.5509C102.021 38.2568 102.021 37.9691 102.021 37.6878C102.034 37.4192 102.04 37.1379 102.04 36.8438C102.04 36.4857 102.027 36.1341 102.002 35.7888C101.989 35.4307 101.95 35.0727 101.887 34.7146H101.829C101.855 35.2517 101.874 35.7824 101.887 36.3067C101.912 36.831 101.925 37.3553 101.925 37.8796C101.925 38.1098 101.919 38.3399 101.906 38.5701L101.887 39.0688C101.861 37.8412 101.816 36.6392 101.752 35.4627C101.701 34.2095 101.612 32.9244 101.484 31.6072L101.56 30.0152C101.42 30.0024 101.273 29.996 101.119 29.996H100.678L100.621 29.5548C100.621 29.4909 100.665 29.4333 100.755 29.3822C100.844 29.331 101.023 29.3055 101.292 29.3055H101.484V29.0753C101.062 29.0241 100.729 28.9346 100.486 28.8067C100.256 28.6789 100.141 28.5446 100.141 28.4039C100.141 28.276 100.256 28.1674 100.486 28.0778C100.716 27.9755 101.011 27.8988 101.369 27.8477C101.739 27.7837 102.142 27.739 102.577 27.7134C103.012 27.6878 103.434 27.675 103.843 27.675C104.291 27.675 104.77 27.6878 105.282 27.7134C105.806 27.739 106.33 27.8029 106.855 27.9052C107.379 28.0075 107.884 28.1674 108.37 28.3847C108.869 28.5893 109.316 28.8835 109.713 29.2671C110.109 29.6379 110.435 30.1111 110.691 30.6865C110.959 31.2492 111.132 31.9397 111.209 32.7581C111.209 33.4487 111.055 34.0177 110.748 34.4653C110.454 34.9001 110.096 35.2517 109.674 35.5203C109.252 35.7888 108.811 35.9806 108.351 36.0957C107.903 36.2108 107.532 36.2875 107.238 36.3259C106.944 36.3898 106.605 36.4665 106.222 36.5561C105.838 36.6328 105.512 36.6711 105.243 36.6711C104.949 36.6711 104.777 36.6392 104.725 36.5752C104.674 36.5113 104.649 36.4282 104.649 36.3259C105.224 36.3003 105.8 36.2555 106.375 36.1916C106.95 36.1149 107.526 35.987 108.101 35.808C107.526 35.9486 106.95 36.0573 106.375 36.1341C105.8 36.198 105.224 36.2428 104.649 36.2683C104.649 36.1916 104.642 36.1149 104.629 36.0382C104.617 35.9486 104.578 35.9039 104.514 35.9039C104.387 35.9039 104.284 36.1085 104.207 36.5177C104.144 36.9269 104.092 37.4128 104.054 37.9755C104.028 38.5509 104.009 39.1392 103.996 39.7402C103.996 40.3412 103.996 40.8399 103.996 41.2363C103.996 41.4154 104.003 41.6008 104.016 41.7926C104.041 41.9972 104.054 42.1698 104.054 42.3105C104.054 42.4384 104.035 42.5471 103.996 42.6366C103.958 42.7261 103.849 42.7709 103.67 42.7709V40.354C103.645 40.7632 103.626 41.166 103.613 41.5624C103.613 41.9588 103.613 42.3617 103.613 42.7709H103.268V42.9243C103.268 43.0394 103.287 43.1225 103.325 43.1737C103.184 43.4166 103.025 43.5381 102.846 43.5381C102.705 43.5381 102.596 43.4998 102.52 43.423C102.456 43.3463 102.36 43.244 102.232 43.1161L102.289 42.9435ZM104.15 34.9448H104.418C104.866 34.9448 105.378 34.9192 105.953 34.8681C106.541 34.8169 107.091 34.721 107.603 34.5804C108.114 34.4397 108.543 34.2415 108.888 33.9857C109.246 33.73 109.425 33.3975 109.425 32.9883V32.8348C109.425 32.707 109.412 32.5663 109.386 32.4129C109.374 32.2594 109.323 32.1123 109.233 31.9717C109.246 32.0356 109.278 32.1635 109.329 32.3553C109.38 32.5471 109.406 32.707 109.406 32.8348C109.406 33.2313 109.265 33.5574 108.984 33.8131C108.715 34.0561 108.37 34.2543 107.948 34.4077C107.539 34.5484 107.085 34.6507 106.586 34.7146C106.1 34.7658 105.633 34.7914 105.186 34.7914H104.802C104.674 34.7914 104.546 34.785 104.418 34.7722C104.598 34.6315 104.828 34.5356 105.109 34.4845C105.403 34.4205 105.71 34.3694 106.03 34.331C106.349 34.2926 106.663 34.2543 106.97 34.2159C107.277 34.1776 107.539 34.1136 107.756 34.0241L107.871 34.2543C108.319 34.0369 108.632 33.8259 108.811 33.6213C109.003 33.4039 109.099 33.1098 109.099 32.7389C109.099 32.1507 108.933 31.6328 108.6 31.1852C108.28 30.7377 107.846 30.4372 107.296 30.2837L107.238 30.3988C107.711 30.5778 108.121 30.8719 108.466 31.2811C108.811 31.6904 108.984 32.1827 108.984 32.7581C108.984 33.065 108.913 33.308 108.773 33.487C108.645 33.6405 108.44 33.7811 108.159 33.909C108.389 33.8067 108.562 33.6788 108.677 33.5254C108.817 33.3464 108.913 33.1481 108.965 32.9308C108.965 32.3937 108.837 31.9397 108.581 31.5689C108.325 31.198 107.967 30.9039 107.507 30.6865C107.046 30.4563 106.49 30.2965 105.838 30.207C105.199 30.1047 104.489 30.0535 103.709 30.0535C103.811 30.6034 103.869 31.2044 103.881 31.8566C103.907 32.496 103.952 33.1226 104.016 33.7364L104.15 34.9448ZM102.213 32.01C102.238 31.9845 102.264 31.8758 102.289 31.684C102.315 31.4921 102.334 31.2875 102.347 31.0702C102.372 30.84 102.392 30.629 102.404 30.4372C102.43 30.2326 102.456 30.1111 102.481 30.0727L102.232 30.0535L102.213 32.01ZM108.063 33.9474L108.159 33.909L108.063 33.9474ZM120.113 37.7261C119.627 37.8924 119.257 37.9819 119.001 37.9947C118.745 38.0202 118.521 38.0394 118.329 38.0522C117.613 38.0522 116.968 37.9179 116.392 37.6494C115.817 37.3809 115.324 37.0164 114.915 36.5561C114.506 36.0957 114.186 35.5586 113.956 34.9448C113.739 34.3182 113.63 33.6533 113.63 32.9499C113.63 32.5407 113.668 32.1187 113.745 31.684C113.822 31.2364 113.937 30.8016 114.09 30.3796C114.244 29.9448 114.442 29.542 114.685 29.1712C114.915 28.8003 115.19 28.4679 115.51 28.1737C115.177 28.4423 114.896 28.762 114.666 29.1328C114.423 29.5037 114.218 29.9065 114.052 30.3413C113.886 30.7632 113.764 31.2044 113.687 31.6648C113.611 32.1123 113.572 32.5471 113.572 32.9691C113.572 33.5062 113.656 34.0816 113.822 34.6955C114.001 35.2965 114.282 35.8591 114.666 36.3834C115.049 36.8949 115.542 37.3233 116.143 37.6686C116.757 38.0138 117.498 38.1865 118.368 38.1865C118.777 38.1865 119.205 38.1289 119.653 38.0138C119.167 38.3335 118.624 38.4934 118.023 38.4934C117.537 38.4934 117.076 38.4167 116.641 38.2632C116.219 38.1225 115.823 37.9179 115.452 37.6494C115.094 37.3936 114.768 37.0867 114.474 36.7287C114.18 36.3706 113.93 35.987 113.726 35.5778L113.898 35.4243C113.681 34.9896 113.521 34.5548 113.419 34.12C113.329 33.6852 113.285 33.2441 113.285 32.7965C113.285 32.1443 113.374 31.5177 113.553 30.9167C113.745 30.3157 113.994 29.7466 114.301 29.2095L114.762 28.5766C114.838 28.4359 114.947 28.2952 115.088 28.1546C115.241 28.0139 115.407 27.8796 115.586 27.7518C115.765 27.6111 115.951 27.4896 116.143 27.3873C116.347 27.2722 116.539 27.1699 116.718 27.0804C117.179 26.8502 117.639 26.6456 118.099 26.4666C118.56 26.2748 119.097 26.1341 119.71 26.0446L119.634 25.9871C118.457 26.1021 117.46 26.3899 116.641 26.8502C115.823 27.2978 115.158 27.8477 114.647 28.4998C114.135 29.152 113.764 29.8681 113.534 30.6482C113.304 31.4154 113.189 32.1699 113.189 32.9116C113.189 33.308 113.221 33.7108 113.285 34.12C113.361 34.5164 113.47 34.9128 113.611 35.3093C113.291 34.542 113.131 33.73 113.131 32.8732C113.131 32.0292 113.272 31.1916 113.553 30.3604C113.835 29.5292 114.276 28.762 114.877 28.0587C115.644 27.3553 116.482 26.8183 117.39 26.4474C118.297 26.0638 119.173 25.872 120.017 25.872C120.286 25.872 120.561 25.9167 120.842 26.0062C121.124 26.0958 121.379 26.2364 121.609 26.4282C121.84 26.6073 122.025 26.8438 122.166 27.1379C122.319 27.4321 122.396 27.7901 122.396 28.2121C122.396 28.5574 122.313 28.9794 122.147 29.4781C121.98 29.9768 121.731 30.4627 121.398 30.9359C121.079 31.3962 120.676 31.7927 120.19 32.1251C119.704 32.4448 119.141 32.6047 118.502 32.6047H117.869C117.396 32.5024 116.961 32.3873 116.565 32.2594C116.181 32.1187 115.817 32.01 115.471 31.9333C115.42 32.1379 115.388 32.3361 115.375 32.5279C115.375 32.707 115.375 32.886 115.375 33.065C115.375 33.4359 115.414 33.8003 115.491 34.1584C115.58 34.5036 115.714 34.8233 115.893 35.1174C116.072 35.4116 116.296 35.6609 116.565 35.8655C116.846 36.0573 117.185 36.1788 117.581 36.23C117.824 36.2811 118.035 36.3131 118.214 36.3259C118.393 36.3259 118.54 36.3323 118.655 36.3451C118.783 36.3451 118.873 36.3642 118.924 36.4026C118.988 36.4282 119.02 36.4857 119.02 36.5752C118.892 36.6136 118.758 36.6392 118.617 36.652C118.489 36.6648 118.355 36.6711 118.214 36.6711C117.767 36.6711 117.364 36.6008 117.006 36.4601C116.648 36.3067 116.341 36.1341 116.085 35.9422C116.379 36.2364 116.731 36.4474 117.14 36.5752C117.549 36.6903 117.952 36.7479 118.349 36.7479C118.566 36.7479 118.79 36.7287 119.02 36.6903C118.994 36.7671 118.982 36.8118 118.982 36.8246C118.982 36.9013 119.014 36.9525 119.077 36.978C119.129 36.9653 119.218 36.9333 119.346 36.8821C119.474 36.8182 119.602 36.7607 119.73 36.7095C119.87 36.6456 120.005 36.5944 120.132 36.5561C120.26 36.5049 120.35 36.4793 120.401 36.4793C120.465 36.4793 120.522 36.4921 120.574 36.5177C120.625 36.5305 120.65 36.6008 120.65 36.7287C120.65 36.8566 120.606 37.01 120.516 37.189C120.427 37.3681 120.292 37.5471 120.113 37.7261ZM117.466 30.1303L117.888 30.207C118.029 30.2326 118.157 30.2453 118.272 30.2453C118.4 30.2453 118.547 30.207 118.713 30.1303C118.892 30.0407 119.065 29.9193 119.231 29.7658C119.41 29.6124 119.563 29.4205 119.691 29.1904C119.832 28.9602 119.934 28.698 119.998 28.4039L120.037 28.2888C119.858 28.2888 119.589 28.3336 119.231 28.4231C118.873 28.5126 118.502 28.6341 118.118 28.7876C117.735 28.9282 117.377 29.1009 117.044 29.3055C116.712 29.4973 116.482 29.7083 116.354 29.9384C116.546 29.9768 116.731 30.0152 116.91 30.0535C117.102 30.0791 117.287 30.1047 117.466 30.1303ZM116.584 31.5497C116.609 31.5241 116.622 31.4858 116.622 31.4346C116.635 31.3834 116.641 31.3451 116.641 31.3195L115.74 30.9934L115.644 31.262L116.584 31.5497ZM116.047 35.9039C115.957 35.8016 115.868 35.6993 115.778 35.597C115.702 35.5075 115.638 35.418 115.586 35.3284C115.702 35.5458 115.855 35.7376 116.047 35.9039ZM131.109 37.7261C130.623 37.8924 130.252 37.9819 129.996 37.9947C129.741 38.0202 129.517 38.0394 129.325 38.0522C128.609 38.0522 127.963 37.9179 127.388 37.6494C126.812 37.3809 126.32 37.0164 125.911 36.5561C125.502 36.0957 125.182 35.5586 124.952 34.9448C124.734 34.3182 124.626 33.6533 124.626 32.9499C124.626 32.5407 124.664 32.1187 124.741 31.684C124.817 31.2364 124.932 30.8016 125.086 30.3796C125.239 29.9448 125.438 29.542 125.681 29.1712C125.911 28.8003 126.186 28.4679 126.505 28.1737C126.173 28.4423 125.892 28.762 125.661 29.1328C125.418 29.5037 125.214 29.9065 125.048 30.3413C124.881 30.7632 124.76 31.2044 124.683 31.6648C124.606 32.1123 124.568 32.5471 124.568 32.9691C124.568 33.5062 124.651 34.0816 124.817 34.6955C124.996 35.2965 125.278 35.8591 125.661 36.3834C126.045 36.8949 126.537 37.3233 127.138 37.6686C127.752 38.0138 128.494 38.1865 129.363 38.1865C129.773 38.1865 130.201 38.1289 130.649 38.0138C130.163 38.3335 129.619 38.4934 129.018 38.4934C128.532 38.4934 128.072 38.4167 127.637 38.2632C127.215 38.1225 126.819 37.9179 126.448 37.6494C126.09 37.3936 125.764 37.0867 125.47 36.7287C125.175 36.3706 124.926 35.987 124.721 35.5778L124.894 35.4243C124.677 34.9896 124.517 34.5548 124.415 34.12C124.325 33.6852 124.28 33.2441 124.28 32.7965C124.28 32.1443 124.37 31.5177 124.549 30.9167C124.741 30.3157 124.99 29.7466 125.297 29.2095L125.757 28.5766C125.834 28.4359 125.943 28.2952 126.083 28.1546C126.237 28.0139 126.403 27.8796 126.582 27.7518C126.761 27.6111 126.947 27.4896 127.138 27.3873C127.343 27.2722 127.535 27.1699 127.714 27.0804C128.174 26.8502 128.635 26.6456 129.095 26.4666C129.555 26.2748 130.092 26.1341 130.706 26.0446L130.629 25.9871C129.453 26.1021 128.455 26.3899 127.637 26.8502C126.819 27.2978 126.154 27.8477 125.642 28.4998C125.131 29.152 124.76 29.8681 124.53 30.6482C124.299 31.4154 124.184 32.1699 124.184 32.9116C124.184 33.308 124.216 33.7108 124.28 34.12C124.357 34.5164 124.466 34.9128 124.606 35.3093C124.287 34.542 124.127 33.73 124.127 32.8732C124.127 32.0292 124.268 31.1916 124.549 30.3604C124.83 29.5292 125.271 28.762 125.872 28.0587C126.64 27.3553 127.477 26.8183 128.385 26.4474C129.293 26.0638 130.169 25.872 131.013 25.872C131.282 25.872 131.556 25.9167 131.838 26.0062C132.119 26.0958 132.375 26.2364 132.605 26.4282C132.835 26.6073 133.021 26.8438 133.161 27.1379C133.315 27.4321 133.392 27.7901 133.392 28.2121C133.392 28.5574 133.308 28.9794 133.142 29.4781C132.976 29.9768 132.727 30.4627 132.394 30.9359C132.074 31.3962 131.672 31.7927 131.186 32.1251C130.7 32.4448 130.137 32.6047 129.498 32.6047H128.865C128.392 32.5024 127.957 32.3873 127.56 32.2594C127.177 32.1187 126.812 32.01 126.467 31.9333C126.416 32.1379 126.384 32.3361 126.371 32.5279C126.371 32.707 126.371 32.886 126.371 33.065C126.371 33.4359 126.409 33.8003 126.486 34.1584C126.576 34.5036 126.71 34.8233 126.889 35.1174C127.068 35.4116 127.292 35.6609 127.56 35.8655C127.842 36.0573 128.181 36.1788 128.577 36.23C128.82 36.2811 129.031 36.3131 129.21 36.3259C129.389 36.3259 129.536 36.3323 129.651 36.3451C129.779 36.3451 129.869 36.3642 129.92 36.4026C129.984 36.4282 130.016 36.4857 130.016 36.5752C129.888 36.6136 129.753 36.6392 129.613 36.652C129.485 36.6648 129.351 36.6711 129.21 36.6711C128.762 36.6711 128.36 36.6008 128.002 36.4601C127.643 36.3067 127.337 36.1341 127.081 35.9422C127.375 36.2364 127.727 36.4474 128.136 36.5752C128.545 36.6903 128.948 36.7479 129.344 36.7479C129.562 36.7479 129.785 36.7287 130.016 36.6903C129.99 36.7671 129.977 36.8118 129.977 36.8246C129.977 36.9013 130.009 36.9525 130.073 36.978C130.124 36.9653 130.214 36.9333 130.342 36.8821C130.47 36.8182 130.597 36.7607 130.725 36.7095C130.866 36.6456 131 36.5944 131.128 36.5561C131.256 36.5049 131.345 36.4793 131.397 36.4793C131.461 36.4793 131.518 36.4921 131.569 36.5177C131.62 36.5305 131.646 36.6008 131.646 36.7287C131.646 36.8566 131.601 37.01 131.512 37.189C131.422 37.3681 131.288 37.5471 131.109 37.7261ZM128.462 30.1303L128.884 30.207C129.025 30.2326 129.152 30.2453 129.267 30.2453C129.395 30.2453 129.542 30.207 129.709 30.1303C129.888 30.0407 130.06 29.9193 130.227 29.7658C130.406 29.6124 130.559 29.4205 130.687 29.1904C130.828 28.9602 130.93 28.698 130.994 28.4039L131.032 28.2888C130.853 28.2888 130.585 28.3336 130.227 28.4231C129.869 28.5126 129.498 28.6341 129.114 28.7876C128.73 28.9282 128.372 29.1009 128.04 29.3055C127.707 29.4973 127.477 29.7083 127.349 29.9384C127.541 29.9768 127.727 30.0152 127.906 30.0535C128.097 30.0791 128.283 30.1047 128.462 30.1303ZM127.58 31.5497C127.605 31.5241 127.618 31.4858 127.618 31.4346C127.631 31.3834 127.637 31.3451 127.637 31.3195L126.736 30.9934L126.64 31.262L127.58 31.5497ZM127.042 35.9039C126.953 35.8016 126.863 35.6993 126.774 35.597C126.697 35.5075 126.633 35.418 126.582 35.3284C126.697 35.5458 126.851 35.7376 127.042 35.9039ZM145.25 23.3784C145.276 23.7492 145.295 24.1137 145.308 24.4717C145.321 24.817 145.327 25.175 145.327 25.5459C145.327 26.3131 145.301 27.0868 145.25 27.8668C145.212 28.6341 145.161 29.4142 145.097 30.207C145.033 30.9998 144.969 31.8118 144.905 32.643C144.841 33.4742 144.784 34.3374 144.732 35.2325C144.732 35.3732 144.726 35.5203 144.713 35.6737C144.713 35.8144 144.7 35.9742 144.675 36.1532V36.3834C144.675 36.4218 144.662 36.4729 144.637 36.5369C144.611 36.6008 144.585 36.6456 144.56 36.6711C144.394 36.863 144.24 37.01 144.099 37.1123C143.972 37.2018 143.85 37.2722 143.735 37.3233C143.62 37.3617 143.511 37.3809 143.409 37.3809C143.307 37.3936 143.204 37.4064 143.102 37.4192H143.217C143.255 37.4192 143.326 37.4128 143.428 37.4C143.543 37.3873 143.665 37.3681 143.793 37.3425C143.933 37.3041 144.061 37.2594 144.176 37.2082C144.304 37.1443 144.394 37.0612 144.445 36.9589L144.617 36.6136C144.694 36.4729 144.739 36.3259 144.752 36.1724C144.777 36.0062 144.79 35.8463 144.79 35.6929C144.803 35.5266 144.809 35.3668 144.809 35.2134C144.809 35.0599 144.822 34.9128 144.848 34.7722C144.886 33.9666 144.937 33.1609 145.001 32.3553C145.078 31.5497 145.148 30.7377 145.212 29.9193C145.276 29.1009 145.333 28.276 145.385 27.4449C145.436 26.6009 145.461 25.7441 145.461 24.8745C145.461 24.606 145.455 24.3502 145.442 24.1073C145.442 23.8515 145.436 23.6086 145.423 23.3784C145.461 23.4295 145.5 23.5126 145.538 23.6277C145.589 23.73 145.628 23.8963 145.653 24.1265C145.717 24.2671 145.755 24.4206 145.768 24.5868C145.781 24.7531 145.8 24.9257 145.826 25.1047C145.826 25.9743 145.794 26.8183 145.73 27.6367C145.666 28.4423 145.602 29.2479 145.538 30.0535L145.365 30.1111L145.193 33.3911C145.193 34.3118 145.148 35.0727 145.059 35.6737C144.982 36.2619 144.911 36.652 144.848 36.8438V36.9013C144.656 37.0931 144.489 37.2402 144.349 37.3425C144.221 37.432 144.099 37.5023 143.984 37.5535C143.869 37.6046 143.761 37.6302 143.658 37.6302C143.569 37.643 143.473 37.6494 143.371 37.6494H142.143C141.798 37.611 141.427 37.5919 141.03 37.5919C140.634 37.6046 140.218 37.5663 139.784 37.4768C139.349 37.3873 138.901 37.2018 138.441 36.9205C137.993 36.6392 137.539 36.1916 137.079 35.5778C137.079 35.6034 137.073 35.6226 137.06 35.6353C137.047 35.6481 137.034 35.6673 137.021 35.6929C137.443 36.2683 137.949 36.7415 138.537 37.1123C139.138 37.4832 139.784 37.7006 140.474 37.7645H142.085C142.239 37.7901 142.392 37.8029 142.546 37.8029C142.712 37.8156 142.891 37.822 143.083 37.822C143.275 37.822 143.524 37.7965 143.831 37.7453C144.151 37.6942 144.451 37.5279 144.732 37.2466C144.784 37.1827 144.816 37.1379 144.828 37.1123C144.854 37.074 144.879 37.0228 144.905 36.9589L144.963 36.8438C145.027 36.7287 145.071 36.6136 145.097 36.4985C145.135 36.3706 145.167 36.2492 145.193 36.1341C145.193 36.2747 145.18 36.3962 145.154 36.4985C145.142 36.6008 145.097 36.7543 145.02 36.9589L144.963 37.0164L144.732 37.3617C144.617 37.4768 144.489 37.5663 144.349 37.6302C144.208 37.6942 144.074 37.7389 143.946 37.7645C143.818 37.8029 143.697 37.8284 143.582 37.8412C143.479 37.854 143.403 37.8668 143.351 37.8796H142.718C142.552 37.8796 142.411 37.8732 142.296 37.8604C142.194 37.8604 142.111 37.854 142.047 37.8412C141.996 37.8412 141.951 37.8348 141.913 37.822H141.337C141.222 37.822 141.107 37.822 140.992 37.822C140.877 37.8348 140.755 37.8412 140.628 37.8412C140.027 37.8412 139.438 37.6942 138.863 37.4C138.3 37.1187 137.776 36.7159 137.29 36.1916C136.817 35.6673 136.395 35.0471 136.024 34.331C135.653 33.6149 135.372 32.8221 135.18 31.9525C135.18 31.8118 135.167 31.6776 135.142 31.5497C135.129 31.4218 135.122 31.2875 135.122 31.1469C135.122 30.6737 135.193 30.1942 135.333 29.7083C135.487 29.2095 135.755 28.762 136.139 28.3656C136.523 27.9691 137.041 27.6495 137.693 27.4065C138.345 27.1507 139.17 27.0229 140.167 27.0229C140.628 27.0229 141.075 27.0356 141.51 27.0612C141.945 27.074 142.386 27.0932 142.833 27.1188C142.782 27.1571 142.757 27.2019 142.757 27.253C142.757 27.317 142.77 27.3745 142.795 27.4257C142.821 27.464 142.833 27.5088 142.833 27.5599C142.833 27.6239 142.782 27.6814 142.68 27.7326C142.59 27.7709 142.392 27.7901 142.085 27.7901C141.983 27.7901 141.862 27.7901 141.721 27.7901C141.593 27.7773 141.446 27.7645 141.28 27.7518V27.9244C141.894 28.0139 142.386 28.1354 142.757 28.2888C143.14 28.4295 143.377 28.5574 143.466 28.6725L143.505 28.7108L143.582 27.8668C143.62 27.5216 143.639 27.1316 143.639 26.6968C143.639 26.2492 143.626 25.808 143.601 25.3733C143.575 24.9385 143.562 24.5996 143.562 24.3566C143.562 24.0497 143.582 23.8451 143.62 23.7428C143.658 23.6405 143.709 23.5894 143.773 23.5894C143.824 23.5894 143.863 23.6981 143.888 23.9155C143.927 24.1328 143.952 24.3822 143.965 24.6635C143.991 24.9321 144.004 25.2006 144.004 25.4692V26.0254C144.004 26.3963 143.997 26.7735 143.984 27.1571C143.972 27.528 143.952 27.8988 143.927 28.2697C143.965 27.7837 143.997 27.3106 144.023 26.8502C144.048 26.3771 144.061 25.8975 144.061 25.4116C144.061 25.1175 144.055 24.8298 144.042 24.5484C144.029 24.2543 144.01 23.9602 143.984 23.6661C144.061 23.7428 144.119 23.7812 144.157 23.7812C144.208 23.7812 144.246 23.7428 144.272 23.6661C144.259 23.5638 144.246 23.4551 144.234 23.34C144.221 23.2377 144.215 23.1354 144.215 23.0331V22.7454C144.278 22.5919 144.362 22.4768 144.464 22.4001C144.566 22.3106 144.656 22.2659 144.732 22.2659C144.95 22.2659 145.142 22.5024 145.308 22.9756L145.25 23.3784ZM142.143 29.1328C141.721 29.1584 141.241 29.184 140.704 29.2095C140.18 29.2351 139.681 29.3055 139.208 29.4205C138.735 29.5228 138.326 29.6827 137.981 29.9001C137.648 30.1175 137.463 30.418 137.424 30.8016C137.424 31.2236 137.514 31.6967 137.693 32.221C137.872 32.7453 138.108 33.2441 138.403 33.7172C138.697 34.1776 139.029 34.574 139.4 34.9064C139.784 35.2389 140.18 35.4243 140.589 35.4627H141.683C141.747 35.4627 141.791 35.4691 141.817 35.4819C141.855 35.4819 141.906 35.4947 141.97 35.5203H142.431C142.622 35.5586 142.814 35.5778 143.006 35.5778C143.006 34.5036 143.051 33.4039 143.14 32.2786C143.243 31.1405 143.351 30.028 143.466 28.941C143.3 29.0689 142.859 29.1328 142.143 29.1328ZM143.524 33.1034C143.524 33.2441 143.511 33.3911 143.486 33.5446C143.473 33.6852 143.466 33.8451 143.466 34.0241C143.607 33.308 143.69 32.5535 143.716 31.7607C143.741 30.9679 143.773 30.207 143.812 29.4781C143.748 30.0919 143.697 30.6993 143.658 31.3003C143.633 31.8886 143.588 32.4896 143.524 33.1034ZM145.193 35.175C145.193 35.0343 145.199 34.8937 145.212 34.753C145.225 34.5995 145.244 34.4397 145.269 34.2735C145.257 34.6571 145.25 35.0215 145.25 35.3668C145.25 35.6993 145.231 35.9359 145.193 36.0765C145.193 36.0126 145.193 35.955 145.193 35.9039C145.206 35.8399 145.212 35.776 145.212 35.7121C145.212 35.6098 145.206 35.5139 145.193 35.4243C145.193 35.3348 145.193 35.2517 145.193 35.175ZM145.48 32.0676C145.455 32.1315 145.436 32.2083 145.423 32.2978C145.41 32.3745 145.391 32.4576 145.365 32.5471L145.442 31.3771L145.48 32.0676ZM145.308 33.5637C145.308 33.6788 145.301 33.7939 145.289 33.909C145.289 34.0241 145.282 34.1328 145.269 34.2351C145.269 33.9793 145.276 33.7236 145.289 33.4678C145.301 33.1993 145.321 32.9563 145.346 32.7389L145.308 33.5637ZM143.409 34.753C143.422 34.7018 143.428 34.6507 143.428 34.5995C143.428 34.5484 143.441 34.4908 143.466 34.4269V34.2159C143.454 34.2415 143.447 34.2671 143.447 34.2926C143.447 34.3054 143.441 34.3182 143.428 34.331L143.409 34.3694V34.753ZM143.351 35.6737C143.364 35.5586 143.377 35.4435 143.39 35.3284C143.403 35.2006 143.409 35.0727 143.409 34.9448V34.8873L143.332 35.6353L143.351 35.6737ZM151.066 37.5919C150.938 37.6174 150.798 37.6302 150.644 37.6302H150.088C149.755 37.6302 149.519 37.6686 149.378 37.7453C149.25 37.822 149.174 37.8604 149.148 37.8604L149.071 37.5151V37.1699L148.975 35.3668C148.95 35.0215 148.88 34.6507 148.764 34.2543C148.649 33.8579 148.56 33.455 148.496 33.0458C148.458 32.7773 148.426 32.5216 148.4 32.2786L148.323 31.5305C148.298 31.2748 148.266 31.0126 148.227 30.7441C148.202 30.4755 148.157 30.1878 148.093 29.8809C148.093 29.8042 148.093 29.7274 148.093 29.6507C148.106 29.574 148.112 29.4973 148.112 29.4205C148.112 29.0241 148.08 28.6341 148.016 28.2505C147.952 27.8668 147.863 27.4896 147.748 27.1188C147.837 27.0804 147.92 27.0484 147.997 27.0229C148.074 26.9845 148.144 26.9653 148.208 26.9653C148.272 26.9653 148.342 27.042 148.419 27.1955C148.496 27.3362 148.579 27.6367 148.669 28.097C148.694 28.097 148.732 28.0906 148.784 28.0778C148.835 28.0523 148.873 28.0395 148.899 28.0395C148.886 27.8221 148.854 27.5919 148.803 27.3489C148.752 27.0932 148.7 26.8502 148.649 26.62C148.598 26.3899 148.547 26.1853 148.496 26.0062C148.458 25.8144 148.438 25.661 148.438 25.5459C148.438 25.5203 148.438 25.4883 148.438 25.45C148.451 25.4116 148.483 25.3924 148.534 25.3924C148.598 25.3924 148.681 25.4628 148.784 25.6034C148.886 25.7441 148.995 25.9231 149.11 26.1405C149.225 26.3579 149.333 26.5945 149.436 26.8502C149.551 27.0932 149.653 27.3234 149.743 27.5408C150.088 26.8886 150.478 26.3963 150.913 26.0638C151.36 25.7185 151.942 25.5459 152.658 25.5459C153.183 25.5459 153.611 25.6098 153.943 25.7377C154.276 25.8528 154.532 25.9871 154.711 26.1405C154.902 26.2812 155.03 26.4154 155.094 26.5433L155.209 26.7351C155.209 26.8119 155.171 26.863 155.094 26.8886C154.762 26.5689 154.385 26.3259 153.963 26.1597C153.541 25.9935 153.106 25.9103 152.658 25.9103C152.223 25.9103 151.897 25.9679 151.68 26.083C151.475 26.1853 151.258 26.3131 151.028 26.4666C151.271 26.3131 151.495 26.1917 151.699 26.1021C151.917 26.0126 152.23 25.9679 152.639 25.9679C153.087 25.9679 153.515 26.0574 153.924 26.2364C154.333 26.4027 154.685 26.62 154.979 26.8886C154.915 26.9142 154.858 26.9461 154.807 26.9845C154.768 27.0101 154.749 27.0548 154.749 27.1188C154.813 27.1188 154.883 27.1635 154.96 27.253C155.037 27.3298 155.107 27.4257 155.171 27.5408C155.235 27.6558 155.286 27.7773 155.324 27.9052C155.376 28.0203 155.401 28.1162 155.401 28.1929C155.401 28.4103 155.318 28.519 155.152 28.519C155.024 28.519 154.871 28.4743 154.691 28.3847C154.653 28.372 154.57 28.3016 154.442 28.1737C154.327 28.0459 154.18 27.918 154.001 27.7901C153.822 27.6495 153.617 27.5216 153.387 27.4065C153.157 27.2914 152.901 27.2339 152.62 27.2339C152.39 27.2339 152.185 27.285 152.006 27.3873C151.84 27.4768 151.686 27.6047 151.546 27.7709C151.405 27.9244 151.277 28.1034 151.162 28.308L150.913 28.7684C151.105 28.4231 151.316 28.1098 151.546 27.8285C151.801 27.496 152.121 27.3298 152.505 27.3298C152.837 27.3298 153.144 27.4065 153.426 27.5599C153.707 27.7006 153.937 27.8796 154.116 28.097C153.899 28.0075 153.643 27.918 153.349 27.8285C153.055 27.739 152.773 27.6942 152.505 27.6942C152.364 27.6942 152.243 27.7262 152.14 27.7901C152.038 27.8541 151.949 27.9372 151.872 28.0395C151.808 28.129 151.744 28.2313 151.68 28.3464C151.629 28.4615 151.571 28.5702 151.507 28.6725L151.258 28.7108C151.041 29.0817 150.862 29.5165 150.721 30.0152C150.593 30.5011 150.529 31.0126 150.529 31.5497C150.529 31.8694 150.542 32.1571 150.567 32.4129C150.606 32.6686 150.657 32.9308 150.721 33.1993L150.951 33.7939L150.913 33.2377C150.887 32.8029 150.862 32.4192 150.836 32.0868C150.81 31.7415 150.798 31.3643 150.798 30.9551C150.823 30.5842 150.874 30.2326 150.951 29.9001C151.015 29.6188 151.111 29.3566 151.239 29.1136C151.085 29.4205 150.983 29.7722 150.932 30.1686C150.868 30.6034 150.836 31.0638 150.836 31.5497C150.836 31.9333 150.855 32.2978 150.894 32.643C150.932 32.9883 150.977 33.3336 151.028 33.6788C151.092 34.0241 151.156 34.3822 151.22 34.753C151.284 35.1111 151.335 35.5075 151.373 35.9422L151.431 36.3067L151.546 37.4L151.066 37.5919ZM151.296 29.0177L151.239 29.1136L151.296 29.0177ZM166.665 25.6993L166.607 26.0446C166.543 26.6712 166.505 27.3426 166.492 28.0587C166.48 28.762 166.428 29.4717 166.339 30.1878C166.441 29.4845 166.524 28.7939 166.588 28.1162C166.652 27.4129 166.716 26.7223 166.78 26.0446C166.844 26.2492 166.895 26.4666 166.933 26.6968C166.985 26.927 167.01 27.1699 167.01 27.4257C166.946 28.0651 166.889 28.6789 166.838 29.2671C166.786 29.8553 166.716 30.4691 166.627 31.1085L166.377 31.1661C166.313 31.7543 166.179 32.3937 165.974 33.0842C165.77 33.7747 165.469 34.4141 165.073 35.0024C164.689 35.5906 164.191 36.0829 163.577 36.4793C162.963 36.863 162.228 37.0548 161.371 37.0548C161.09 37.0548 160.789 37.0356 160.469 36.9972C160.162 36.9461 159.862 36.8757 159.568 36.7862C159.274 36.6839 158.992 36.5561 158.724 36.4026C158.455 36.2492 158.225 36.0573 158.033 35.8272L158.052 35.8655V35.8847L158.033 35.9039L157.976 35.8847C158.052 35.9998 158.136 36.1021 158.225 36.1916C157.995 35.987 157.784 35.7504 157.592 35.4819C157.272 35.0471 157.017 34.5292 156.825 33.9282C156.71 33.5701 156.62 33.2057 156.556 32.8348C156.492 32.464 156.448 32.074 156.422 31.6648C156.396 31.2428 156.377 30.7888 156.364 30.3029C156.364 29.817 156.364 29.2799 156.364 28.6916C156.48 28.2313 156.569 27.7709 156.633 27.3106C156.697 26.8502 156.742 26.3899 156.767 25.9295C156.806 25.9295 156.85 25.9231 156.902 25.9103C156.953 25.8975 157.004 25.8912 157.055 25.8912C157.145 25.8912 157.221 25.9423 157.285 26.0446C157.362 26.1469 157.4 26.3643 157.4 26.6968V26.8694C157.4 26.9206 157.394 26.9781 157.381 27.042H157.611C157.714 26.505 157.835 26.0958 157.976 25.8144C158.116 25.5331 158.257 25.3924 158.398 25.3924C158.5 25.3924 158.59 25.5395 158.666 25.8336C158.756 26.1149 158.801 26.5625 158.801 27.1763C158.801 27.6239 158.788 28.0778 158.762 28.5382C158.737 28.9986 158.724 29.4717 158.724 29.9576C158.724 30.7121 158.756 31.3962 158.82 32.01C158.896 32.6239 159.037 33.1481 159.242 33.5829C159.446 34.0177 159.734 34.3566 160.105 34.5995C160.489 34.8297 160.981 34.9448 161.582 34.9448C162.081 34.9448 162.496 34.7914 162.829 34.4845C163.161 34.1776 163.442 33.7683 163.673 33.2568C163.903 32.7453 164.095 32.1571 164.248 31.4921C164.414 30.8144 164.568 30.1111 164.708 29.3822C164.734 29.1776 164.753 28.973 164.766 28.7684C164.779 28.5638 164.785 28.3528 164.785 28.1354V27.5408C164.785 27.1699 164.804 26.8566 164.843 26.6009C164.881 26.3451 164.99 26.1981 165.169 26.1597C165.169 26.8119 165.15 27.4576 165.111 28.097C165.086 28.7108 165.035 29.3246 164.958 29.9384C165.047 29.3374 165.118 28.7364 165.169 28.1354C165.22 27.5088 165.258 26.8694 165.284 26.2172C165.361 26.2684 165.425 26.294 165.476 26.294C165.527 26.294 165.578 26.2684 165.629 26.2172V25.5267C165.693 25.2965 165.757 25.1367 165.821 25.0472C165.885 24.9449 165.955 24.8937 166.032 24.8937C166.109 24.8937 166.185 24.9321 166.262 25.0088C166.339 25.0855 166.416 25.1814 166.492 25.2965L166.665 25.6993ZM158.743 36.5752C159.05 36.7415 159.363 36.8757 159.683 36.978C160.015 37.0676 160.322 37.1315 160.604 37.1699C160.898 37.2082 161.134 37.2274 161.313 37.2274C162.208 37.2274 162.969 37.0292 163.596 36.6328C164.222 36.2364 164.734 35.744 165.13 35.1558C165.54 34.5548 165.853 33.9154 166.07 33.2377C166.275 32.5983 166.428 32.01 166.531 31.473C166.441 32.01 166.3 32.6047 166.109 33.2568C165.891 33.9474 165.578 34.5932 165.169 35.1942C164.772 35.7952 164.267 36.3003 163.653 36.7095C163.04 37.1187 162.298 37.3233 161.428 37.3233C160.942 37.3233 160.463 37.2594 159.99 37.1315C159.517 37.0036 159.075 36.8054 158.666 36.5369C158.692 36.5497 158.717 36.5624 158.743 36.5752ZM166.089 31.8566C166.128 31.6392 166.16 31.4282 166.185 31.2236C166.211 31.0446 166.237 30.8655 166.262 30.6865C166.185 31.2492 166.058 31.8438 165.878 32.4704C165.699 33.1226 165.45 33.7428 165.13 34.331C164.811 34.9064 164.408 35.418 163.922 35.8655C163.462 36.2875 162.925 36.5752 162.311 36.7287C162.848 36.6136 163.327 36.3898 163.749 36.0573C164.184 35.7121 164.555 35.3093 164.862 34.8489C165.169 34.3885 165.418 33.8962 165.61 33.3719C165.815 32.8476 165.974 32.3425 166.089 31.8566ZM164.191 33.1993C164.05 33.4806 163.89 33.7492 163.711 34.0049C163.545 34.2607 163.353 34.4908 163.136 34.6955C163.366 34.5036 163.564 34.2799 163.73 34.0241C163.909 33.7683 164.063 33.4934 164.191 33.1993ZM158.666 36.5369C158.513 36.4346 158.366 36.3195 158.225 36.1916C158.366 36.3195 158.513 36.4346 158.666 36.5369ZM166.55 31.3387L166.531 31.473L166.55 31.3387ZM166.281 30.5906C166.269 30.629 166.262 30.6609 166.262 30.6865C166.262 30.6609 166.269 30.629 166.281 30.5906ZM169.125 36.1532C169.125 36.0893 169.145 36.0126 169.183 35.9231C169.221 35.8336 169.241 35.7376 169.241 35.6353C169.279 35.3284 169.304 35.1111 169.317 34.9832C169.33 34.8425 169.336 34.721 169.336 34.6187C169.336 34.0816 169.317 33.5062 169.279 32.8924C169.253 32.2658 169.221 31.6648 169.183 31.0893C169.183 30.9103 169.177 30.6993 169.164 30.4563C169.164 30.2134 169.151 30.0216 169.125 29.8809C169.164 29.4333 169.196 28.9922 169.221 28.5574C169.247 28.1226 169.26 27.6814 169.26 27.2339V26.7543C169.26 26.5881 169.253 26.4218 169.241 26.2556C169.279 26.294 169.317 26.3131 169.356 26.3131C169.407 26.3131 169.458 26.294 169.509 26.2556C169.573 26.2172 169.631 26.1981 169.682 26.1981C169.771 26.1981 169.842 26.294 169.893 26.4858C169.957 26.6776 169.989 27.0996 169.989 27.7518H170.161C170.225 27.0356 170.321 26.4666 170.449 26.0446C170.59 25.6226 170.73 25.4116 170.871 25.4116C170.935 25.4116 171.037 25.5523 171.178 25.8336C171.318 26.1021 171.389 26.5305 171.389 27.1188L171.6 26.7735C171.74 26.6073 171.894 26.4346 172.06 26.2556C172.239 26.0766 172.437 25.9167 172.655 25.7761C172.872 25.6354 173.115 25.5203 173.384 25.4308C173.652 25.3285 173.959 25.2773 174.304 25.2773C174.969 25.2773 175.545 25.4308 176.031 25.7377C176.529 26.0318 176.945 26.4218 177.278 26.9078C177.61 27.3809 177.879 27.9244 178.083 28.5382C178.301 29.1392 178.467 29.753 178.582 30.3796C178.697 30.9934 178.774 31.5881 178.812 32.1635C178.85 32.7389 178.87 33.2313 178.87 33.6405C178.87 34.0113 178.844 34.2351 178.793 34.3118C178.755 34.3758 178.678 34.4141 178.563 34.4269C178.537 33.4423 178.473 32.4384 178.371 31.4154C178.269 30.3924 178.026 29.4014 177.642 28.4423C177.987 29.4525 178.205 30.45 178.294 31.4346C178.396 32.4065 178.448 33.3847 178.448 34.3694C178.371 34.331 178.301 34.3118 178.237 34.3118C178.185 34.3118 178.141 34.331 178.102 34.3694C178.102 34.4717 178.109 34.5804 178.122 34.6955C178.134 34.7978 178.141 34.9001 178.141 35.0024C178.153 35.1047 178.16 35.2006 178.16 35.2901C178.083 35.5842 178.006 35.7952 177.93 35.9231C177.853 36.0509 177.783 36.1149 177.719 36.1149C177.642 36.1149 177.578 36.0829 177.527 36.019C177.476 35.9422 177.425 35.8527 177.373 35.7504C177.335 35.6481 177.29 35.5394 177.239 35.4243C177.201 35.2965 177.143 35.175 177.067 35.0599C177.092 34.8425 177.111 34.6699 177.124 34.542C177.137 34.4013 177.143 34.2862 177.143 34.1967C177.143 33.8515 177.137 33.4359 177.124 32.9499C177.111 32.464 177.073 31.9589 177.009 31.4346C176.958 30.8975 176.868 30.3668 176.74 29.8425C176.625 29.3055 176.459 28.8323 176.242 28.4231C176.037 28.0011 175.775 27.6622 175.455 27.4065C175.136 27.1379 174.752 27.0037 174.304 27.0037C173.998 27.0037 173.723 27.106 173.48 27.3106C173.249 27.5152 173.045 27.7773 172.866 28.097C172.7 28.4167 172.553 28.7684 172.425 29.152C172.297 29.5228 172.194 29.8809 172.118 30.2262C172.233 29.8681 172.348 29.5037 172.463 29.1328C172.591 28.762 172.738 28.4231 172.904 28.1162C173.083 27.8093 173.288 27.5599 173.518 27.3681C173.748 27.1635 174.017 27.0612 174.324 27.0612C174.72 27.0612 175.059 27.1699 175.34 27.3873C175.634 27.6047 175.877 27.886 176.069 28.2313C176.274 28.5766 176.434 28.973 176.549 29.4205C176.677 29.8553 176.772 30.3029 176.836 30.7632C176.9 31.2108 176.939 31.652 176.951 32.0868C176.977 32.5088 176.99 32.8732 176.99 33.1801C176.99 33.4231 176.983 33.666 176.971 33.909C176.971 34.152 176.964 34.4013 176.951 34.6571C176.836 34.1712 176.747 33.666 176.683 33.1418C176.632 32.6047 176.574 32.0804 176.51 31.5689C176.446 31.0446 176.363 30.5459 176.261 30.0727C176.171 29.5868 176.037 29.1392 175.858 28.73L175.992 28.5382C175.865 28.2441 175.717 28.0203 175.551 27.8668C175.398 27.7006 175.244 27.5791 175.091 27.5024C174.937 27.4257 174.797 27.3809 174.669 27.3681C174.541 27.3553 174.458 27.3489 174.42 27.3489C174.1 27.3489 173.812 27.464 173.556 27.6942C173.313 27.9244 173.096 28.2377 172.904 28.6341C172.725 29.0177 172.565 29.4653 172.425 29.9768C172.284 30.4883 172.162 31.0254 172.06 31.5881C171.958 32.1507 171.868 32.7198 171.792 33.2952C171.715 33.8579 171.651 34.3885 171.6 34.8873H171.772C171.836 34.4525 171.9 33.9729 171.964 33.4487C172.041 32.9244 172.118 32.3937 172.194 31.8566C172.284 31.3067 172.386 30.776 172.501 30.2645C172.616 29.753 172.751 29.2927 172.904 28.8835C173.07 28.4743 173.262 28.1418 173.48 27.886C173.684 27.6431 173.934 27.5024 174.228 27.464C173.946 27.528 173.71 27.707 173.518 28.0011C173.313 28.308 173.134 28.6853 172.981 29.1328C172.827 29.5804 172.687 30.0727 172.559 30.6098C172.444 31.1341 172.335 31.6392 172.233 32.1251L171.849 34.9256C171.798 35.1047 171.76 35.2645 171.734 35.4052L171.657 35.808C171.632 35.9359 171.606 36.0765 171.581 36.23C171.555 36.3706 171.523 36.5369 171.485 36.7287L171.427 36.9589H171.312L169.375 36.3067C169.311 36.2939 169.26 36.2747 169.221 36.2492C169.196 36.2236 169.164 36.1916 169.125 36.1532ZM172.463 26.3131C172.207 26.5305 172.003 26.7671 171.849 27.0229C171.709 27.2658 171.574 27.5152 171.446 27.7709V27.7901C171.625 27.4193 171.875 27.042 172.194 26.6584C172.501 26.3004 172.911 26.0318 173.422 25.8528C173.256 25.9039 173.096 25.9551 172.943 26.0062C172.764 26.0702 172.604 26.1725 172.463 26.3131ZM174.765 25.6802C174.701 25.6674 174.611 25.661 174.496 25.661C174.905 25.7633 175.289 25.8784 175.647 26.0062C176.005 26.1213 176.344 26.3579 176.664 26.716C176.446 26.4218 176.159 26.1917 175.801 26.0254C175.455 25.8592 175.11 25.7441 174.765 25.6802ZM175.283 27.8668C175.18 27.7901 175.059 27.7326 174.918 27.6942C174.79 27.6431 174.63 27.5791 174.439 27.5024L174.42 27.464C174.637 27.4768 174.829 27.528 174.995 27.6175C175.161 27.6942 175.321 27.8349 175.474 28.0395L175.283 27.8668ZM176.702 26.7543C176.881 26.9717 177.047 27.2211 177.201 27.5024C177.354 27.7837 177.489 28.0331 177.604 28.2505C177.476 27.9564 177.354 27.6878 177.239 27.4449C177.124 27.2019 176.945 26.9717 176.702 26.7543ZM182.383 34.2926C182.588 34.3566 182.831 34.4717 183.112 34.6379C183.406 34.8041 183.732 34.9768 184.09 35.1558C184.448 35.3348 184.838 35.4947 185.26 35.6353C185.695 35.776 186.155 35.8463 186.641 35.8463H186.852C186.929 35.8463 187.018 35.8336 187.121 35.808L187.332 35.9614C187.831 35.808 188.24 35.5203 188.559 35.0983C188.879 34.6635 189.039 34.0816 189.039 33.3527C189.039 32.8285 188.911 32.4704 188.655 32.2786C188.412 32.074 187.958 31.9717 187.293 31.9717C186.884 31.9717 186.456 32.0037 186.008 32.0676C185.573 32.1187 185.113 32.1443 184.627 32.1443C184.41 32.1443 184.186 32.1379 183.956 32.1251C183.726 32.0996 183.489 32.0548 183.246 31.9909V32.106C183.758 32.2338 184.263 32.2978 184.761 32.2978C185.247 32.2978 185.708 32.2722 186.143 32.221C186.59 32.1571 187.018 32.1251 187.428 32.1251C187.773 32.1251 188.042 32.1635 188.233 32.2402C188.438 32.3042 188.591 32.3937 188.694 32.5088C188.796 32.6239 188.86 32.7645 188.885 32.9308C188.924 33.0842 188.943 33.2568 188.943 33.4487C188.943 34.0497 188.783 34.5612 188.463 34.9832C188.157 35.3796 187.792 35.629 187.37 35.7313C187.843 35.565 188.214 35.2773 188.483 34.8681C188.764 34.4333 188.905 33.9474 188.905 33.4103C188.905 33.0267 188.802 32.7325 188.598 32.5279C188.406 32.3233 188.067 32.221 187.581 32.221C187.185 32.221 186.737 32.2466 186.238 32.2978C185.74 32.3489 185.209 32.3745 184.646 32.3745C184.301 32.3745 183.898 32.3297 183.438 32.2402C182.99 32.1507 182.562 31.9845 182.153 31.7415C181.744 31.4985 181.398 31.1661 181.117 30.7441C180.836 30.3093 180.695 29.7466 180.695 29.0561C180.695 28.5062 180.804 28.0011 181.021 27.5408C181.251 27.0676 181.552 26.6584 181.923 26.3131C182.293 25.9551 182.715 25.6738 183.189 25.4692C183.675 25.2646 184.173 25.1559 184.685 25.1431C185.171 25.1431 185.631 25.2134 186.066 25.3541C186.513 25.4819 186.935 25.6546 187.332 25.872C187.728 26.0766 188.105 26.3068 188.463 26.5625C188.822 26.8183 189.154 27.074 189.461 27.3298L189.077 27.7134C188.988 27.7134 188.854 27.6622 188.674 27.5599C188.495 27.4449 188.221 27.253 187.85 26.9845L187.735 27.1571C188.195 27.528 188.527 27.8732 188.732 28.1929C188.949 28.5126 189.058 28.762 189.058 28.941C189.033 29.0433 188.969 29.0945 188.866 29.0945C188.764 29.0945 188.559 29.0113 188.253 28.8451C187.946 28.6789 187.594 28.4934 187.198 28.2888C186.814 28.0842 186.405 27.8988 185.97 27.7326C185.535 27.5663 185.139 27.4832 184.781 27.4832C184.576 27.4832 184.371 27.5216 184.167 27.5983C183.962 27.675 183.777 27.7837 183.611 27.9244C183.444 28.0523 183.304 28.2121 183.189 28.4039C183.086 28.5957 183.035 28.8067 183.035 29.0369C183.035 29.4078 183.208 29.6571 183.553 29.785C183.898 29.9129 184.352 29.9768 184.915 29.9768C185.03 29.9768 185.151 29.9768 185.279 29.9768C185.42 29.964 185.548 29.9448 185.663 29.9193C185.957 29.9193 186.149 29.9129 186.238 29.9001C186.341 29.8745 186.437 29.8617 186.526 29.8617C187.076 29.8617 187.626 29.9001 188.176 29.9768C188.726 30.0535 189.218 30.2198 189.653 30.4755C190.088 30.7313 190.439 31.0957 190.708 31.5689C190.976 32.042 191.111 32.675 191.111 33.4678C191.111 34.0177 191.015 34.5676 190.823 35.1174C190.644 35.6545 190.369 36.1405 189.998 36.5752C189.627 36.9972 189.167 37.3361 188.617 37.5919C188.067 37.8604 187.421 37.9947 186.68 37.9947C186.232 37.9947 185.701 37.9052 185.088 37.7261C184.487 37.5599 183.911 37.3617 183.361 37.1315C182.824 36.8885 182.364 36.6392 181.98 36.3834C181.609 36.1277 181.424 35.9103 181.424 35.7313C181.424 35.6801 181.456 35.6417 181.52 35.6162C182.3 36.1916 183.093 36.6648 183.898 37.0356C184.691 37.3809 185.503 37.5727 186.334 37.611C185.925 37.5855 185.516 37.5151 185.107 37.4C184.685 37.2722 184.263 37.1187 183.841 36.9397C183.432 36.7479 183.035 36.5369 182.652 36.3067C182.281 36.0637 181.923 35.8208 181.577 35.5778L181.865 35.3284C181.827 35.3157 181.756 35.2709 181.654 35.1942C181.552 35.1174 181.449 35.0215 181.347 34.9064C181.258 34.7914 181.175 34.6699 181.098 34.542C181.021 34.4141 180.983 34.2926 180.983 34.1776C180.983 34.0497 181.008 33.9666 181.059 33.9282C181.111 33.8898 181.168 33.8706 181.232 33.8706C181.296 33.8706 181.43 33.9154 181.635 34.0049C181.839 34.0944 182.089 34.1903 182.383 34.2926ZM186.622 36.2492C186.175 36.2492 185.676 36.1596 185.126 35.9806C184.589 35.7888 184.077 35.5458 183.591 35.2517C183.988 35.5203 184.429 35.7632 184.915 35.9806C185.401 36.1852 185.964 36.2875 186.603 36.2875C187.46 36.2875 188.137 36.0254 188.636 35.5011C189.148 34.9768 189.403 34.2735 189.403 33.3911V33.1993C189.339 32.7901 189.199 32.4576 188.981 32.2019C188.777 31.9333 188.457 31.7863 188.022 31.7607C188.291 31.8118 188.508 31.895 188.674 32.01C188.854 32.1251 188.988 32.2658 189.077 32.432C189.18 32.5855 189.25 32.7581 189.288 32.9499C189.327 33.1418 189.346 33.34 189.346 33.5446C189.295 34.3885 189.026 35.0535 188.54 35.5394C188.054 36.0126 187.415 36.2492 186.622 36.2492ZM189.058 36.9972C189.378 36.7926 189.634 36.5433 189.825 36.2492C190.017 35.955 190.183 35.6481 190.324 35.3284C190.056 35.8655 189.685 36.3387 189.212 36.7479C188.751 37.1571 188.201 37.4128 187.562 37.5151C187.805 37.4768 188.054 37.4256 188.31 37.3617C188.579 37.285 188.828 37.1635 189.058 36.9972ZM190.88 33.3911C190.88 33.2504 190.855 33.1162 190.804 32.9883C190.765 32.886 190.733 32.7773 190.708 32.6622L190.727 32.9116C190.74 33.0139 190.746 33.1545 190.746 33.3336C190.746 33.6788 190.708 34.0113 190.631 34.331C190.554 34.6507 190.458 34.964 190.343 35.2709C190.458 34.9896 190.567 34.6955 190.669 34.3885C190.784 34.0689 190.855 33.7364 190.88 33.3911ZM190.708 32.6047C190.708 32.6175 190.708 32.6366 190.708 32.6622C190.708 32.6366 190.708 32.6175 190.708 32.6047ZM187.351 35.7504C187.338 35.7504 187.325 35.7504 187.313 35.7504C187.325 35.7504 187.338 35.7504 187.351 35.7504Z" fill="white"/>
<path fill-rule="evenodd" clip-rule="evenodd" d="M28.7033 42.9092C25.4918 40.4733 21.1447 37.1762 7.67753 46.3835C0.413003 41.1421 -1.34516 32.0986 1.58383 27.2472C3.77471 26.0724 5.58345 24.0488 7.39647 22.0205C10.8559 18.1501 14.331 14.2623 20.5064 16.2204C16.9743 21.4268 28.5828 26.9111 28.5828 13.877C30.7948 17.9401 33.7416 20.5666 36.1784 22.7386C38.6073 24.9035 40.5294 26.6168 40.7119 28.8508C41.26 35.5636 39.1519 41.5676 33.8917 44.1424C31.7266 45.2022 30.3674 44.1713 28.7033 42.9092ZM31.5347 46.8323C32.1618 46.9187 33.4172 47.0918 34.8741 46.1669C36.4885 45.142 35.2547 49.5584 32.7972 50.0283C31.7948 50.22 30.342 46.7111 31.3233 46.8057C31.3826 46.8114 31.4533 46.8211 31.5346 46.8323L31.5347 46.8323ZM33.7476 27.1786C33.7476 28.7433 32.4792 30.0117 30.9146 30.0117C29.35 30.0117 28.0816 28.7433 28.0816 27.1786C28.0816 25.614 29.35 24.3456 30.9146 24.3456C32.4792 24.3456 33.7476 25.614 33.7476 27.1786ZM28.9368 31.9895C28.9368 33.5541 27.6684 34.8225 26.1038 34.8225C24.5391 34.8225 23.2707 33.5541 23.2707 31.9895C23.2707 30.4248 24.5391 29.1564 26.1038 29.1564C27.6684 29.1564 28.9368 30.4248 28.9368 31.9895ZM30.9146 39.6333C32.4792 39.6333 33.7476 38.3649 33.7476 36.8002C33.7476 35.2356 32.4792 33.9672 30.9146 33.9672C29.35 33.9672 28.0816 35.2356 28.0816 36.8002C28.0816 38.3649 29.35 39.6333 30.9146 39.6333ZM38.5585 31.9895C38.5585 33.5541 37.2901 34.8225 35.7254 34.8225C34.1608 34.8225 32.8924 33.5541 32.8924 31.9895C32.8924 30.4248 34.1608 29.1564 35.7254 29.1564C37.2901 29.1564 38.5585 30.4248 38.5585 31.9895ZM9.26589 29.4771H4.45506V34.3949H9.26589L9.2659 39.2057H14.0767V34.3949L18.8876 34.3949V29.4771L14.0767 29.4771V24.6663H9.2659L9.26589 29.4771Z" fill="white"/>
<path d="M230.137 33.8317C230.137 36.6337 229.123 37.0874 227.815 37.0874C225.841 37.0874 225.547 36.3668 225.707 35.2194L226.962 26.0662C226.481 25.9594 225.894 25.9594 225.414 26.0662L224.987 27.774H224.88C224.667 26.3597 223.145 25.8527 220.984 25.8527C218.716 25.8527 216.901 26.8134 216.554 29.4019L215.807 34.8458C215.46 37.4343 217.221 38.395 219.783 38.395C222.051 38.395 223.466 37.6744 223.973 36.2067H224.079C224.24 37.7812 225.734 38.3416 227.549 38.3416C230.217 38.3416 231.658 37.2742 231.658 34.1519V27.187C231.658 22.597 227.682 20.9959 221.464 20.9959C215.3 20.9959 211.35 22.597 211.35 27.187V37.0607C211.35 41.5706 215.166 43.1717 221.438 43.1717C222.985 43.1717 224.56 43.065 225.894 42.8248C225.974 42.3711 225.974 41.9442 225.867 41.4905C224.533 41.6773 223.012 41.7574 221.464 41.7574C217.034 41.7574 212.898 41.0902 212.898 36.7138V27.4538C212.898 22.9172 217.088 22.3835 221.464 22.3835C225.894 22.3835 230.137 22.9172 230.137 27.4538V33.8317ZM223.893 34.7123C223.092 36.18 222.425 36.7138 220.263 36.7138C218.689 36.7138 217.461 36.4202 217.755 34.2587L218.342 29.989C218.636 27.8007 219.943 27.5072 221.544 27.5072C223.706 27.5072 224.24 27.9875 224.64 29.5086L223.893 34.7123Z" fill="white"/>
<g clip-path="url(#clip0_2176_11142)">
<path d="M301.96 49.9692H300.053L299.658 51.9116H298.873L300.535 44.053H301.501L303.185 51.9116H302.354L301.96 49.9692ZM301.825 49.2625L301.004 45.1751L300.184 49.2625H301.825Z" fill="#F4B223"/>
<path d="M307.93 50.3382C307.93 51.4853 307.301 52.0002 306.111 52.0002H306.069C304.879 52.0002 304.25 51.4959 304.25 50.3382V44.0527H305.06V50.1358C305.06 50.9561 305.341 51.2686 306.093 51.2686C306.846 51.2686 307.127 50.9561 307.127 50.1358V44.0527H307.937V50.3382H307.93Z" fill="#F4B223"/>
<path d="M312.081 46.7906V45.7572C312.081 45.0044 311.779 44.6777 311.069 44.6777C310.358 44.6777 310.06 45.0044 310.06 45.7572V46.3076C310.06 46.8368 310.238 46.993 310.767 47.2842L311.889 47.9021C312.496 48.2395 312.898 48.6549 312.898 49.3155V50.3595C312.898 51.5065 312.28 52.0001 311.09 52.0001H311.069C309.879 52.0001 309.261 51.5172 309.261 50.3595V49.0562H310.06V50.1784C310.06 50.9206 310.362 51.2792 311.083 51.2792C311.804 51.2792 312.106 50.9206 312.106 50.1784V49.5498C312.106 49.0243 311.903 48.8218 311.363 48.5164L310.263 47.9092C309.577 47.5257 309.265 47.2025 309.265 46.5172V45.5726C309.265 44.4717 309.982 43.9568 311.062 43.9568H311.083C312.159 43.9568 312.88 44.4717 312.88 45.5726V46.7835H312.084L312.081 46.7906Z" fill="#F4B223"/>
<path d="M315.977 45.5799C315.977 44.479 316.559 43.9641 317.685 43.9641H317.706C318.828 43.9641 319.411 44.479 319.411 45.5799V46.6914C319.411 47.501 318.736 47.9804 317.93 48.6445C317.156 49.2837 316.74 49.6885 316.74 50.3064V51.2155H319.411V51.9116H315.952V50.2851C315.952 49.2873 316.658 48.6907 317.511 48.016C318.228 47.4442 318.622 47.1388 318.622 46.6133V45.7148C318.622 44.9833 318.285 44.6601 317.667 44.6601C317.049 44.6601 316.747 44.9868 316.747 45.7148V46.7127H315.973V45.5799H315.977Z" fill="#F4B223"/>
<path d="M324.294 45.626V50.3384C324.294 51.4606 323.655 52.0003 322.543 52.0003H322.454C321.343 52.0003 320.703 51.4606 320.703 50.3384V45.626C320.703 44.5039 321.343 43.9641 322.454 43.9641H322.543C323.655 43.9641 324.294 44.5039 324.294 45.626ZM322.497 44.6956C321.822 44.6956 321.485 45.0081 321.485 45.8285V50.1395C321.485 50.9599 321.822 51.2723 322.497 51.2723C323.172 51.2723 323.505 50.9599 323.505 50.1395V45.8285C323.505 45.0081 323.168 44.6956 322.497 44.6956Z" fill="#F4B223"/>
<path d="M325.626 45.5799C325.626 44.479 326.208 43.9641 327.334 43.9641H327.355C328.477 43.9641 329.06 44.479 329.06 45.5799V46.6914C329.06 47.501 328.385 47.9804 327.579 48.6445C326.805 49.2837 326.389 49.6885 326.389 50.3064V51.2155H329.06V51.9116H325.601V50.2851C325.601 49.2873 326.307 48.6907 327.16 48.016C327.877 47.4442 328.271 47.1388 328.271 46.6133V45.7148C328.271 44.9833 327.934 44.6601 327.316 44.6601C326.698 44.6601 326.396 44.9868 326.396 45.7148V46.7127H325.622V45.5799H325.626Z" fill="#F4B223"/>
<path d="M330.31 45.5799C330.31 44.479 330.892 43.9641 332.018 43.9641H332.039C333.161 43.9641 333.744 44.479 333.744 45.5799V46.6914C333.744 47.501 333.069 47.9804 332.263 48.6445C331.489 49.2837 331.073 49.6885 331.073 50.3064V51.2155H333.744V51.9116H330.285V50.2851C330.285 49.2873 330.992 48.6907 331.844 48.016C332.561 47.4442 332.956 47.1388 332.956 46.6133V45.7148C332.956 44.9833 332.618 44.6601 332 44.6601C331.382 44.6601 331.08 44.9868 331.08 45.7148V46.7127H330.306V45.5799H330.31Z" fill="#F4B223"/>
<path d="M257.646 39.0561H251.744V31.8153C251.744 28.0618 254.798 25.0078 258.552 25.0078H268.542C270.271 25.0078 271.677 23.6015 271.677 21.8721C271.677 20.1427 270.271 18.7365 268.542 18.7365H251.911V12.8274H268.545C273.531 12.8274 277.587 16.8828 277.587 21.8686C277.587 26.8544 273.531 30.9098 268.545 30.9098H258.552C258.051 30.9098 257.646 31.3146 257.646 31.8153V39.0561Z" fill="#F4B223"/>
<path d="M298.412 39.0738H305.166L295.123 15.9417C293.397 11.0625 286.241 10.3558 283.912 15.8494L273.826 39.0703H280.581L288.674 19.7947C288.979 19.0667 290.009 19.0667 290.315 19.7947L298.408 39.0703L298.412 39.0738Z" fill="#F4B223"/>
<path d="M333.652 12.8381H326.435L320.601 22.5753C320.263 23.1364 319.404 23.1364 319.066 22.5753L313.228 12.8381H306.012L314.137 25.9667L306.022 39.0775H313.239L319.066 29.358C319.404 28.7969 320.263 28.7969 320.601 29.358L326.428 39.0775H333.645L325.53 25.9667L333.652 12.8381Z" fill="#F4B223"/>
</g>
<defs>
<clipPath id="clip0_2176_11142">
<rect width="82" height="40" fill="white" transform="translate(251.744 12)"/>
</clipPath>
</defs>
</svg>
