<svg width="792" height="792" viewBox="0 0 792 792" fill="none" xmlns="http://www.w3.org/2000/svg">
<path d="M395.065 719.924C442.269 720.304 489.527 710.255 532.467 690.646C575.406 671.036 614 641.948 644.636 606.043" stroke="#FFC62F" stroke-width="0.22" stroke-linecap="round"/>
<path d="M353.157 335.206C344.412 341.697 337.106 350.116 331.891 359.677C326.704 369.264 323.635 379.965 322.983 390.829" stroke="#FFC62F" stroke-width="0.07" stroke-linecap="round"/>
<path d="M606.857 571.795C632.523 541.376 651.426 505.308 661.828 466.877C672.23 428.473 674.104 387.788 667.287 348.569" stroke="#FFC62F" stroke-width="0.15" stroke-linecap="round"/>
<path d="M416.169 392.703C415.381 387.326 412.149 382.383 407.532 379.531" stroke="#FFC62F" stroke-width="0.22" stroke-linecap="round"/>
<path d="M521.223 380.454C519.05 362.501 512.912 345.01 503.352 329.665C493.791 314.293 480.836 301.066 465.681 291.18" stroke="#FFC62F" stroke-width="0.24" stroke-linecap="round"/>
<path d="M46.9314 300.387C33.1071 351.393 30.6084 405.468 39.6526 457.534C48.6968 509.599 69.2567 559.654 99.4584 603.028" stroke="#FFC62F" stroke-width="0.22" stroke-linecap="round"/>
<path d="M457.56 48.4812C407.097 39.79 354.76 42.2616 305.357 55.7056C255.953 69.1497 209.564 93.512 170.454 126.565" stroke="#FFC62F" stroke-width="0.08" stroke-linecap="round"/>
<path d="M489.635 447.376C497.186 434.013 501.803 418.967 502.998 403.649C504.193 388.331 502.02 372.768 496.642 358.374" stroke="#FFC62F" stroke-width="0.2" stroke-linecap="round"/>
<path d="M448.189 253.483C427.548 246.15 405.304 243.38 383.495 245.444C361.686 247.508 340.338 254.406 321.462 265.515" stroke="#FFC62F" stroke-width="0.14" stroke-linecap="round"/>
<path d="M581.545 352.507C575.298 325.782 563.157 300.442 546.21 278.822C529.262 257.23 507.534 239.387 483.036 227.002" stroke="#FFC62F" stroke-width="0.27" stroke-linecap="round"/>
<path d="M596.78 478.719C608.894 449.767 614.597 418.153 613.348 386.783C612.098 355.414 603.896 324.343 589.501 296.45" stroke="#FFC62F" stroke-width="0.08" stroke-linecap="round"/>
<path d="M447.701 675.763C488.495 668.484 527.632 652.188 561.527 628.369C595.422 604.55 624.022 573.235 644.663 537.329" stroke="#FFC62F" stroke-width="0.09" stroke-linecap="round"/>
<path d="M151.28 247.345C129.743 283.196 116.163 323.772 111.79 365.381C107.417 406.963 112.279 449.495 125.886 489.039" stroke="#FFC62F" stroke-width="0.19" stroke-linecap="round"/>
<path d="M232.025 145.061C195.604 169.152 164.56 201.309 141.746 238.545C118.932 275.781 104.374 318.014 99.4312 361.416" stroke="#FFC62F" stroke-width="0.07" stroke-linecap="round"/>
<path d="M371.789 299.845C357.883 303.62 344.847 310.464 333.847 319.753C322.847 329.042 313.912 340.775 307.882 353.839" stroke="#FFC62F" stroke-width="0.23" stroke-linecap="round"/>
<path d="M268.446 702.976C313.178 721.771 362.066 730.652 410.546 728.778C459.053 726.904 507.099 714.302 550.256 692.112" stroke="#FFC62F" stroke-width="0.22" stroke-linecap="round"/>
<path d="M478.962 545.043C500.745 533.228 519.865 516.607 534.613 496.699C549.36 476.791 559.654 453.623 564.597 429.37" stroke="#FFC62F" stroke-width="0.18" stroke-linecap="round"/>
<path d="M472.877 461.444C482.492 450.526 489.662 437.462 493.763 423.502C497.864 409.542 498.842 394.659 496.642 380.291" stroke="#FFC62F" stroke-width="0.12" stroke-linecap="round"/>
<path d="M643.794 456.04C652.621 420.244 653.49 382.519 646.374 346.369C639.231 310.22 624.103 275.645 602.375 245.878" stroke="#FFC62F" stroke-width="0.08" stroke-linecap="round"/>
<path d="M284.362 582.17C311.522 598.656 342.321 609.112 373.907 612.561C405.494 616.011 437.841 612.48 467.907 602.268" stroke="#FFC62F" stroke-width="0.14" stroke-linecap="round"/>
<path d="M548.382 290.637C533.146 268.719 513.075 250.196 490.016 236.779C466.958 223.362 440.911 215.051 414.349 212.634" stroke="#FFC62F" stroke-width="0.23" stroke-linecap="round"/>
<path d="M520.081 552.946C543.004 535.157 561.961 512.288 575.215 486.486C588.469 460.685 595.993 431.95 597.079 402.943" stroke="#FFC62F" stroke-width="0.24" stroke-linecap="round"/>
<path d="M443.518 527.469C462.72 520.815 480.455 509.897 495.04 495.747C509.652 481.597 521.086 464.214 528.338 445.203" stroke="#FFC62F" stroke-width="0.14" stroke-linecap="round"/>
<path d="M289.196 177.925C257.582 193.704 229.471 216.491 207.472 244.167C185.473 271.843 169.639 304.38 161.409 338.737" stroke="#FFC62F" stroke-width="0.13" stroke-linecap="round"/>
<path d="M662.561 547.704C684.723 509.192 698.33 465.79 702.133 421.52C705.935 377.25 699.933 332.164 684.669 290.42" stroke="#FFC62F" stroke-width="0.26" stroke-linecap="round"/>
<path d="M400.144 281.973C383.658 281.62 367.091 284.933 351.99 291.587C336.889 298.241 323.282 308.236 312.418 320.648" stroke="#FFC62F" stroke-width="0.21" stroke-linecap="round"/>
<path d="M385.098 410.9C389.607 414.567 395.772 416.115 401.475 415.028" stroke="#FFC62F" stroke-width="0.06" stroke-linecap="round"/>
<path d="M732.416 478.256C744.475 429.586 745.724 378.254 736.083 329.041C726.441 279.827 705.881 232.786 676.358 192.264" stroke="#FFC62F" stroke-width="0.13" stroke-linecap="round"/>
<path d="M323.364 252.749C302.613 263.559 284.281 278.958 270.049 297.535C255.817 316.113 245.714 337.813 240.662 360.655" stroke="#FFC62F" stroke-width="0.11" stroke-linecap="round"/>
<path d="M236.181 312.12C224.068 335.613 217.169 361.768 216.137 388.194C215.078 414.594 219.885 441.237 230.097 465.627" stroke="#FFC62F" stroke-width="0.06" stroke-linecap="round"/>
<path d="M410.465 415.246C416.25 411.552 420.27 405.197 421.139 398.38" stroke="#FFC62F" stroke-width="0.23" stroke-linecap="round"/>
<path d="M445.121 343.788C437.624 336.89 428.58 331.675 418.884 328.606C409.161 325.537 398.786 324.614 388.683 325.917" stroke="#FFC62F" stroke-width="0.15" stroke-linecap="round"/>
<path d="M602.239 581.572C629.318 551.832 649.796 516.09 661.773 477.686C673.751 439.282 677.2 398.244 671.822 358.374" stroke="#FFC62F" stroke-width="0.2" stroke-linecap="round"/>
<path d="M299.3 564.705C323.934 579.019 351.718 587.873 380.073 590.426C408.455 592.979 437.353 589.258 464.159 579.616" stroke="#FFC62F" stroke-width="0.09" stroke-linecap="round"/>
<path d="M423.121 386.891C420.65 379.504 414.783 373.339 407.532 370.487" stroke="#FFC62F" stroke-width="0.08" stroke-linecap="round"/>
<path d="M330.724 768.974C385.071 778.725 441.536 776.416 494.878 762.293C548.246 748.17 598.438 722.205 640.834 686.843" stroke="#FFC62F" stroke-width="0.12" stroke-linecap="round"/>
<path d="M487.626 360.356C482.52 347.292 474.535 335.342 464.404 325.646C454.273 315.95 441.97 308.508 428.689 304" stroke="#FFC62F" stroke-width="0.22" stroke-linecap="round"/>
<path d="M556.285 255.438C535.942 232.379 510.466 213.829 482.275 201.526C454.083 189.222 423.175 183.193 392.43 183.953" stroke="#FFC62F" stroke-width="0.14" stroke-linecap="round"/>
<path d="M482.276 298.812C468.234 286.508 451.476 277.328 433.551 272.114C415.626 266.899 396.559 265.677 378.091 268.529" stroke="#FFC62F" stroke-width="0.1" stroke-linecap="round"/>
<path d="M285.72 291.262C270.565 307.558 259.049 327.194 252.205 348.352C245.361 369.509 243.215 392.188 245.958 414.268" stroke="#FFC62F" stroke-width="0.09" stroke-linecap="round"/>
<path d="M353.375 259.105C333.548 265.569 315.188 276.406 299.952 290.61C284.715 304.842 272.629 322.414 264.834 341.752" stroke="#FFC62F" stroke-width="0.26" stroke-linecap="round"/>
<path d="M180.721 376.38C177.95 407.94 182.187 440.097 193.024 469.864C203.861 499.631 221.297 526.981 243.704 549.388" stroke="#FFC62F" stroke-width="0.11" stroke-linecap="round"/>
<path d="M619.704 424.969C624.022 392.677 621.171 359.46 611.42 328.389C601.67 297.319 585.048 268.394 563.103 244.357" stroke="#FFC62F" stroke-width="0.07" stroke-linecap="round"/>
<path d="M413.263 413.888C418.64 409.379 421.9 402.399 421.9 395.392" stroke="#FFC62F" stroke-width="0.19" stroke-linecap="round"/>
<path d="M577.823 389.172C576.927 362.99 570.219 336.998 558.323 313.641C546.427 290.284 529.37 269.588 508.729 253.428" stroke="#FFC62F" stroke-width="0.09" stroke-linecap="round"/>
<path d="M243.405 303.104C229.989 325.537 221.542 350.959 218.853 376.978C216.164 402.997 219.26 429.586 227.816 454.302" stroke="#FFC62F" stroke-width="0.07" stroke-linecap="round"/>
<path d="M494.579 501.397C510.006 487.301 522.282 469.81 530.321 450.526C538.333 431.243 542.081 410.194 541.212 389.335" stroke="#FFC62F" stroke-width="0.25" stroke-linecap="round"/>
<path d="M742.738 384.827C741.217 334.636 728.56 284.852 705.963 240.011C683.367 195.17 650.856 155.381 611.42 124.311" stroke="#FFC62F" stroke-width="0.12" stroke-linecap="round"/>
<path d="M487.001 238.653C464.214 225.671 438.548 217.74 412.393 215.595C386.238 213.449 359.649 217.116 335.042 226.241" stroke="#FFC62F" stroke-width="0.21" stroke-linecap="round"/>
<path d="M510.875 633.61C545.531 617.152 576.493 593.034 600.937 563.484C625.38 533.934 643.279 498.98 652.92 461.852" stroke="#FFC62F" stroke-width="0.2" stroke-linecap="round"/>
<path d="M507.887 208.316C480.673 192.292 449.928 182.297 418.504 179.282C387.081 176.268 355.005 180.206 325.238 190.744" stroke="#FFC62F" stroke-width="0.22" stroke-linecap="round"/>
<path d="M365.923 366.875C357.64 376.136 353.702 389.118 355.44 401.422" stroke="#FFC62F" stroke-width="0.07" stroke-linecap="round"/>
<path d="M163.039 210.842C136.206 244.982 116.949 285.043 107.036 327.303C97.1227 369.591 96.6067 414.024 105.515 456.529" stroke="#FFC62F" stroke-width="0.07" stroke-linecap="round"/>
<path d="M627.308 589.122C655.499 555.715 676.249 516.117 687.684 473.938C699.118 431.758 701.182 387.081 693.713 344.032" stroke="#FFC62F" stroke-width="0.1" stroke-linecap="round"/>
<path d="M297.345 617.586C329.665 632.198 365.19 639.613 400.66 639.178C436.131 638.744 471.466 630.46 503.433 615.087" stroke="#FFC62F" stroke-width="0.25" stroke-linecap="round"/>
<path d="M615.005 294.874C600.393 263.26 578.774 234.933 552.185 212.472C525.568 190.011 494.009 173.443 460.412 164.345" stroke="#FFC62F" stroke-width="0.19" stroke-linecap="round"/>
<path d="M533.824 505.905C549.903 486.106 561.581 462.748 567.774 438.033C573.966 413.29 574.7 387.19 569.865 362.176" stroke="#FFC62F" stroke-width="0.08" stroke-linecap="round"/>
<path d="M565.004 149.542C529.262 125.206 488.115 108.829 445.447 101.876C402.752 94.9506 358.563 97.4492 316.927 109.209" stroke="#FFC62F" stroke-width="0.25" stroke-linecap="round"/>
<path d="M539.609 188.597C509.543 167.956 474.888 153.996 438.928 147.993C402.941 141.991 365.651 143.974 330.506 153.751" stroke="#FFC62F" stroke-width="0.25" stroke-linecap="round"/>
<path d="M477.577 279.094C460.656 267.47 441.183 259.62 420.949 256.253C400.715 252.885 379.747 253.998 359.975 259.485" stroke="#FFC62F" stroke-width="0.16" stroke-linecap="round"/>
<path d="M292.455 655.229C330.261 670.547 371.408 677.473 412.121 675.382C452.833 673.29 493.084 662.155 529.098 643.062" stroke="#FFC62F" stroke-width="0.11" stroke-linecap="round"/>
<path d="M211.737 199.57C183.247 226.621 160.786 259.973 146.418 296.53C132.051 333.087 125.777 372.795 128.194 412.014" stroke="#FFC62F" stroke-width="0.15" stroke-linecap="round"/>
<path d="M328.334 484.177C341.235 494.28 356.391 501.505 372.36 505.199C388.33 508.892 405.115 509.028 421.139 505.633" stroke="#FFC62F" stroke-width="0.07" stroke-linecap="round"/>
<path d="M72.5699 332.083C63.3627 379.368 64.6392 428.663 76.2908 475.432C87.9423 522.174 109.942 566.335 140.252 603.789" stroke="#FFC62F" stroke-width="0.1" stroke-linecap="round"/>
<path d="M250.793 175.642C218.826 197.017 191.639 225.453 171.704 258.317C151.768 291.18 139.139 328.47 134.957 366.684" stroke="#FFC62F" stroke-width="0.16" stroke-linecap="round"/>
<path d="M324.776 720.766C372.089 731.385 421.737 731.494 469.13 721.119C516.497 710.744 561.555 689.858 600.095 660.417" stroke="#FFC62F" stroke-width="0.2" stroke-linecap="round"/>
<path d="M55.0795 366.467C50.8698 416.305 57.714 467.04 74.9604 513.972C92.2069 560.904 119.855 604.006 155.326 639.259" stroke="#FFC62F" stroke-width="0.17" stroke-linecap="round"/>
<path d="M75.2866 387C74.0644 433.905 83.2444 481.027 101.957 524.048C120.671 567.069 148.917 605.907 184.061 637.005" stroke="#FFC62F" stroke-width="0.09" stroke-linecap="round"/>
<path d="M726.142 451.993C734.372 404.219 732.009 354.68 719.298 307.911C706.56 261.142 683.502 217.224 652.187 180.206" stroke="#FFC62F" stroke-width="0.06" stroke-linecap="round"/>
<path d="M308.779 541.946C330.099 554.874 354.271 563.076 379.068 565.792C403.865 568.508 429.232 565.711 452.834 557.698" stroke="#FFC62F" stroke-width="0.21" stroke-linecap="round"/>
<path d="M252.939 322.685C242.374 343.734 236.453 367.119 235.774 390.693C235.095 414.241 239.631 437.924 248.946 459.57" stroke="#FFC62F" stroke-width="0.19" stroke-linecap="round"/>
<path d="M438.71 508.838C455.196 502.89 470.379 493.276 482.818 480.891C495.257 468.506 504.953 453.378 510.983 436.919" stroke="#FFC62F" stroke-width="0.17" stroke-linecap="round"/>
<path d="M273.987 400.634C274.747 418.641 279.5 436.458 287.811 452.428C296.122 468.425 307.936 482.548 322.223 493.548" stroke="#FFC62F" stroke-width="0.12" stroke-linecap="round"/>
<path d="M318.041 534.179C338.22 545.776 360.98 552.865 384.175 554.847C407.369 556.803 430.998 553.652 452.834 545.64" stroke="#FFC62F" stroke-width="0.09" stroke-linecap="round"/>
<path d="M714.898 359.895C709.738 313.778 694.366 268.801 670.193 229.175C646.021 189.549 613.077 155.301 574.428 129.607" stroke="#FFC62F" stroke-width="0.08" stroke-linecap="round"/>
<path d="M102.039 326.108C91.9626 369.102 91.4194 414.323 100.464 457.561C109.508 500.8 128.112 542.001 154.593 577.363" stroke="#FFC62F" stroke-width="0.11" stroke-linecap="round"/>
<path d="M116.271 420.597C119.938 461.527 132.675 501.614 153.29 537.167C173.904 572.719 202.395 603.681 236.127 627.174" stroke="#FFC62F" stroke-width="0.18" stroke-linecap="round"/>
<path d="M516.415 159.754C482.139 142.48 444.061 132.838 405.712 131.671C367.362 130.503 328.768 137.836 293.515 152.991" stroke="#FFC62F" stroke-width="0.08" stroke-linecap="round"/>
<path d="M749.392 412.747C751.918 361.605 743.118 309.92 723.78 262.499C704.442 215.079 674.621 171.949 637.059 137.157" stroke="#FFC62F" stroke-width="0.07" stroke-linecap="round"/>
<path d="M410.764 80.8281C365.027 78.9269 318.882 87.1835 276.622 104.783C234.361 122.41 196.012 149.352 165.158 183.193" stroke="#FFC62F" stroke-width="0.13" stroke-linecap="round"/>
<path d="M445.147 67.7643C397.509 60.8657 348.35 64.5323 302.26 78.4109C256.17 92.2895 213.176 116.38 177.244 148.456" stroke="#FFC62F" stroke-width="0.1" stroke-linecap="round"/>
<path d="M396.667 597.352C426.054 597.515 455.441 591.16 482.112 578.884C508.81 566.607 532.738 548.438 551.75 526.031" stroke="#FFC62F" stroke-width="0.06" stroke-linecap="round"/>
<path d="M323.743 273.147C305.954 283.902 290.581 298.595 279.011 315.869C267.441 333.143 259.701 352.942 256.523 373.502" stroke="#FFC62F" stroke-width="0.18" stroke-linecap="round"/>
<path d="M436.565 417.011C442.866 405.713 443.871 391.617 439.254 379.531" stroke="#FFC62F" stroke-width="0.14" stroke-linecap="round"/>
<path d="M255.138 432.221C260.489 452.944 270.429 472.499 284.063 489.012C297.67 505.552 314.944 519.05 334.282 528.258" stroke="#FFC62F" stroke-width="0.09" stroke-linecap="round"/>
<path d="M393.354 506.475C409.515 507.1 425.81 504.167 440.721 497.92C455.632 491.673 469.157 482.113 480.021 470.135" stroke="#FFC62F" stroke-width="0.08" stroke-linecap="round"/>
<path d="M220.427 626.957C254.105 652.731 293.487 671.064 334.906 680.19C376.324 689.315 419.753 689.288 461.144 680.054" stroke="#FFC62F" stroke-width="0.07" stroke-linecap="round"/>
<path d="M147.884 506.448C164.044 542.788 188.243 575.516 218.228 601.616C248.212 627.717 283.981 647.163 322.195 658.136" stroke="#FFC62F" stroke-width="0.18" stroke-linecap="round"/>
<path d="M308.453 668.402C348.16 681.384 390.719 685.567 432.22 680.542C473.692 675.518 514.052 661.313 549.522 639.259" stroke="#FFC62F" stroke-width="0.15" stroke-linecap="round"/>
<path d="M194.327 429.043C199.216 458.62 210.677 487.111 227.598 511.853C244.546 536.596 266.952 557.563 292.754 572.827" stroke="#FFC62F" stroke-width="0.24" stroke-linecap="round"/>
<path d="M300.603 433.498C306.144 447.621 314.808 460.522 325.807 470.978C336.807 481.435 350.115 489.447 364.51 494.282" stroke="#FFC62F" stroke-width="0.27" stroke-linecap="round"/>
<path d="M288.681 398.162C289.088 414.024 292.999 429.776 300.088 443.981C307.149 458.185 317.361 470.815 329.773 480.701" stroke="#FFC62F" stroke-width="0.22" stroke-linecap="round"/>
<path d="M560.496 415.518C563.429 391.834 561.121 367.526 553.761 344.848C546.4 322.142 534.043 301.094 517.774 283.63" stroke="#FFC62F" stroke-width="0.27" stroke-linecap="round"/>
<path d="M178.14 191.259C148.454 223.199 125.858 261.684 112.441 303.184C99.0238 344.684 94.814 389.118 100.192 432.383" stroke="#FFC62F" stroke-width="0.06" stroke-linecap="round"/>
<path d="M327.356 60.1323C278.604 70.3715 232.134 91.3932 192.264 121.269C152.393 151.145 119.177 189.847 95.6836 233.765" stroke="#FFC62F" stroke-width="0.28" stroke-linecap="round"/>
<path d="M316.058 403.784C317.28 415.653 321.137 427.25 327.248 437.517C333.386 447.756 341.778 456.664 351.665 463.346" stroke="#FFC62F" stroke-width="0.07" stroke-linecap="round"/>
<path d="M467.311 218.718C441.618 208.588 413.697 204.161 386.13 205.872C358.563 207.556 331.376 215.35 307.123 228.523" stroke="#FFC62F" stroke-width="0.14" stroke-linecap="round"/>
<path d="M291.994 494.932C306.47 510.305 324.341 522.472 343.977 530.294C363.587 538.116 384.934 541.566 406.037 540.371" stroke="#FFC62F" stroke-width="0.11" stroke-linecap="round"/>
<path d="M324.287 180.993C293.107 191.667 264.318 209.266 240.553 232.108C216.816 254.976 198.13 283.059 186.288 313.831" stroke="#FFC62F" stroke-width="0.2" stroke-linecap="round"/>
<path d="M448.842 246.041C427.114 238.599 403.756 235.992 380.942 238.436C358.101 240.881 335.83 248.377 316.193 260.246" stroke="#FFC62F" stroke-width="0.06" stroke-linecap="round"/>
<path d="M449.032 78.3026C402.915 70.8337 355.168 73.604 310.219 86.3148C265.269 99.0255 223.172 121.704 187.783 152.259" stroke="#FFC62F" stroke-width="0.12" stroke-linecap="round"/>
<path d="M81.0718 467.909C91.6098 513.972 112.36 557.672 141.394 594.935C170.427 632.226 207.69 663.052 249.761 684.562" stroke="#FFC62F" stroke-width="0.21" stroke-linecap="round"/>
<path d="M130.122 311.415C117.9 350.334 114.315 391.943 119.693 432.384C125.071 472.825 139.411 512.044 161.383 546.428" stroke="#FFC62F" stroke-width="0.25" stroke-linecap="round"/>
<path d="M394.197 521.549C412.557 522.065 430.998 518.507 447.864 511.229C464.703 503.95 479.94 492.923 492.135 479.18" stroke="#FFC62F" stroke-width="0.22" stroke-linecap="round"/>
<path d="M573.261 416.632C576.357 391.102 573.777 364.892 565.792 340.449C557.807 316.005 544.417 293.354 526.845 274.559" stroke="#FFC62F" stroke-width="0.18" stroke-linecap="round"/>
<path d="M291.288 282.625C274.883 298.106 261.928 317.199 253.617 338.166C245.306 359.134 241.64 381.921 242.943 404.436" stroke="#FFC62F" stroke-width="0.25" stroke-linecap="round"/>
<path d="M534.965 584.804C562.505 564.842 585.618 538.796 602.158 509.056C618.698 479.316 628.612 445.937 631.029 412.014" stroke="#FFC62F" stroke-width="0.23" stroke-linecap="round"/>
<path d="M219.831 247.969C198.402 273.853 182.704 304.462 174.203 336.972C165.702 369.482 164.425 403.866 170.455 436.92" stroke="#FFC62F" stroke-width="0.08" stroke-linecap="round"/>
<path d="M333.956 664.735C373.147 673.997 414.348 674.594 453.784 666.446C493.22 658.298 530.809 641.405 563.102 617.369" stroke="#FFC62F" stroke-width="0.13" stroke-linecap="round"/>
<path d="M422.985 663.975C462.041 660.309 500.281 647.978 534.123 628.124C567.964 608.271 597.405 580.948 619.703 548.655" stroke="#FFC62F" stroke-width="0.17" stroke-linecap="round"/>
<path d="M655.554 364.349C651.046 326.841 638.226 290.366 618.291 258.29C598.356 226.215 571.305 198.566 539.691 177.925" stroke="#FFC62F" stroke-width="0.16" stroke-linecap="round"/>
<path d="M629.753 285.45C613.756 251.69 590.29 221.516 561.555 197.697C532.793 173.877 498.789 156.414 462.667 146.989" stroke="#FFC62F" stroke-width="0.08" stroke-linecap="round"/>
<path d="M287.159 207.23C259.782 223.309 236.018 245.444 218.011 271.571C200.004 297.699 187.809 327.819 182.54 359.134" stroke="#FFC62F" stroke-width="0.17" stroke-linecap="round"/>
<path d="M436.104 311.903C423.963 306.308 410.601 303.429 397.238 303.511C383.876 303.592 370.54 306.607 358.454 312.31" stroke="#FFC62F" stroke-width="0.18" stroke-linecap="round"/>
<path d="M466.55 362.284C461.743 352.262 454.709 343.327 446.099 336.292C437.517 329.258 427.359 324.125 416.604 321.382" stroke="#FFC62F" stroke-width="0.21" stroke-linecap="round"/>
<path d="M297.128 350.661C290.637 365.3 287.377 381.351 287.649 397.375C287.948 413.372 291.777 429.315 298.812 443.71" stroke="#FFC62F" stroke-width="0.13" stroke-linecap="round"/>
<path d="M286.59 434.421C292.266 450.581 301.528 465.491 313.505 477.74C325.483 489.989 340.176 499.577 356.2 505.633" stroke="#FFC62F" stroke-width="0.22" stroke-linecap="round"/>
<path d="M459.434 259.811C439.716 250.848 418.016 246.231 396.369 246.448C374.696 246.638 353.104 251.636 333.549 260.978" stroke="#FFC62F" stroke-width="0.06" stroke-linecap="round"/>
<path d="M588.361 305.412C575.27 277.682 556.041 252.885 532.466 233.276C508.891 213.666 480.971 199.326 451.34 191.531" stroke="#FFC62F" stroke-width="0.14" stroke-linecap="round"/>
<path d="M648.221 368.532C644.31 332.11 632.333 296.558 613.402 265.189C594.472 233.819 568.589 206.659 538.17 186.235" stroke="#FFC62F" stroke-width="0.25" stroke-linecap="round"/>
<path d="M442.595 740.185C492.732 733.667 541.402 716.04 584.097 688.907C626.793 661.802 663.458 625.245 690.672 582.631" stroke="#FFC62F" stroke-width="0.24" stroke-linecap="round"/>
<path d="M264.155 464.079C274.15 483.499 288.436 500.718 305.709 514.08C322.983 527.47 343.19 537.003 364.51 541.838" stroke="#FFC62F" stroke-width="0.11" stroke-linecap="round"/>
<path d="M347.726 648.276C384.5 655.555 422.877 654.659 459.298 645.723C495.719 636.76 530.104 619.758 559.328 596.265" stroke="#FFC62F" stroke-width="0.11" stroke-linecap="round"/>
<path d="M267.36 243.542C245.279 262.499 227.408 286.345 215.404 312.853C203.399 339.361 197.288 368.531 197.614 397.619" stroke="#FFC62F" stroke-width="0.09" stroke-linecap="round"/>
<path d="M485.48 445.936C492.84 433.171 497.349 418.777 498.625 404.11C499.902 389.444 497.919 374.479 492.867 360.655" stroke="#FFC62F" stroke-width="0.07" stroke-linecap="round"/>
<path d="M213.476 461.255C223.063 488.061 238.572 512.695 258.588 532.956C278.605 553.19 303.076 568.997 329.774 578.856" stroke="#FFC62F" stroke-width="0.22" stroke-linecap="round"/>
<path d="M637.792 401.911C638.742 366.983 631.952 331.893 618.046 299.844C604.141 267.796 583.173 238.844 557.019 215.676" stroke="#FFC62F" stroke-width="0.11" stroke-linecap="round"/>
<path d="M57.3609 291.643C42.2872 341.155 38.1589 393.953 45.4106 445.204C52.6622 496.454 71.2667 546.048 99.4856 589.422" stroke="#FFC62F" stroke-width="0.08" stroke-linecap="round"/>
<path d="M245.361 341.86C237.566 364.022 234.715 387.896 237.023 411.253C239.332 434.638 246.828 457.479 258.778 477.686" stroke="#FFC62F" stroke-width="0.09" stroke-linecap="round"/>
<path d="M316.248 377.005C313.586 388.846 313.532 401.285 316.112 413.154C318.692 425.023 323.907 436.321 331.267 445.99" stroke="#FFC62F" stroke-width="0.1" stroke-linecap="round"/>
<path d="M312.798 214.292C286.453 226.649 262.878 244.819 244.22 267.145C225.561 289.47 211.872 315.923 204.403 344.034" stroke="#FFC62F" stroke-width="0.25" stroke-linecap="round"/>
<path d="M272.874 266.546C254.134 284.716 239.44 307.014 230.125 331.376C220.809 355.766 216.925 382.192 218.772 408.211" stroke="#FFC62F" stroke-width="0.1" stroke-linecap="round"/>
<path d="M49.5928 423.34C53.6667 473.965 68.9305 523.668 94.0261 567.857C119.122 612.018 153.968 650.612 195.359 680.053" stroke="#FFC62F" stroke-width="0.09" stroke-linecap="round"/>
<path d="M408.292 544.228C429.939 542.707 451.232 536.352 470.217 525.814C489.201 515.276 505.823 500.528 518.561 482.956" stroke="#FFC62F" stroke-width="0.13" stroke-linecap="round"/>
<path d="M510.223 444.877C517.42 428.527 521.005 410.574 520.598 392.703C520.218 374.832 515.845 357.042 507.941 341.018" stroke="#FFC62F" stroke-width="0.23" stroke-linecap="round"/>
<path d="M137.673 225.237C112.93 263.07 96.5803 306.336 90.1435 351.095C83.7066 395.827 87.183 441.971 100.247 485.237" stroke="#FFC62F" stroke-width="0.15" stroke-linecap="round"/>
<path d="M421.003 190.526C391.209 187.131 360.681 190.363 332.245 199.869C303.809 209.402 277.518 225.209 255.763 245.85" stroke="#FFC62F" stroke-width="0.14" stroke-linecap="round"/>
<path d="M417.744 429.83C427.766 423.991 434.991 413.589 436.973 402.182" stroke="#FFC62F" stroke-width="0.24" stroke-linecap="round"/>
<path d="M334.77 588.172C362.826 597.325 392.865 600.258 422.143 596.727C451.421 593.169 479.912 583.147 504.953 567.53" stroke="#FFC62F" stroke-width="0.23" stroke-linecap="round"/>
<path d="M317.877 425.92C322.332 437.545 329.339 448.164 338.274 456.801C347.21 465.438 358.047 472.119 369.807 476.193" stroke="#FFC62F" stroke-width="0.25" stroke-linecap="round"/>
<path d="M305.465 249.028C284.172 262.445 265.893 280.56 252.259 301.718C238.652 322.875 229.717 347.02 226.294 371.953" stroke="#FFC62F" stroke-width="0.2" stroke-linecap="round"/>
<path d="M2.36273 381.161C0.298591 438.658 10.9724 496.59 33.3791 549.578C55.8131 602.567 89.9529 650.558 132.675 689.098" stroke="#FFC62F" stroke-width="0.08" stroke-linecap="round"/>
<path d="M625.977 481.815C638.552 448.626 643.766 412.666 641.132 377.25C638.497 341.861 628.014 307.042 610.659 276.08" stroke="#FFC62F" stroke-width="0.08" stroke-linecap="round"/>
<path d="M204.839 364.023C200.276 392.079 201.933 421.113 209.674 448.463C217.387 475.813 231.184 501.451 249.734 522.962" stroke="#FFC62F" stroke-width="0.25" stroke-linecap="round"/>
<path d="M379.801 581.925C406.934 584.533 434.637 581.138 460.33 572.012C486.023 562.914 509.679 548.112 529.126 529.018" stroke="#FFC62F" stroke-width="0.11" stroke-linecap="round"/>
<path d="M177.407 542.788C198.836 574.836 227.381 602.105 260.353 622.094C293.325 642.084 330.696 654.74 369.046 658.923" stroke="#FFC62F" stroke-width="0.12" stroke-linecap="round"/>
<path d="M558.784 453.433C567.23 429.995 570.462 404.736 568.235 379.912C565.981 355.115 558.24 330.834 545.72 309.297" stroke="#FFC62F" stroke-width="0.12" stroke-linecap="round"/>
<path d="M484.529 420.135C488.114 407.506 488.929 394.089 486.865 381.134C484.801 368.178 479.858 355.685 472.498 344.794" stroke="#FFC62F" stroke-width="0.21" stroke-linecap="round"/>
<path d="M169.911 383.496C168.173 416.631 173.795 450.119 186.234 480.891C198.673 511.663 217.902 539.638 242.183 562.262" stroke="#FFC62F" stroke-width="0.06" stroke-linecap="round"/>
<path d="M496.316 273.228C478.554 258.887 457.614 248.485 435.451 242.999C413.289 237.512 389.932 236.942 367.525 241.342" stroke="#FFC62F" stroke-width="0.14" stroke-linecap="round"/>
<path d="M456.664 438.576C462.938 430.021 467.338 420.053 469.402 409.624C471.466 399.195 471.249 388.331 468.723 378.01" stroke="#FFC62F" stroke-width="0.07" stroke-linecap="round"/>
<path d="M275.237 343.408C267.686 361.225 264.074 380.698 264.753 400.036C265.432 419.374 270.375 438.549 279.175 455.795" stroke="#FFC62F" stroke-width="0.16" stroke-linecap="round"/>
<path d="M432.519 22.1903C378.253 17.1386 322.875 24.0915 271.543 42.4515C220.211 60.8115 172.98 90.5242 134.223 128.847" stroke="#FFC62F" stroke-width="0.19" stroke-linecap="round"/>
<path d="M567.177 584.397C594.663 559.763 616.689 529.018 631.193 495.068C645.696 461.118 652.649 423.964 651.454 387.081" stroke="#FFC62F" stroke-width="0.15" stroke-linecap="round"/>
<path d="M418.45 691.433C461.498 688.418 503.867 675.871 541.619 654.93C579.371 633.99 612.452 604.712 637.819 569.785" stroke="#FFC62F" stroke-width="0.18" stroke-linecap="round"/>
<path d="M595.532 621.714C628.449 592.952 654.984 556.911 672.638 516.905C690.319 476.926 699.119 433.035 698.25 389.335" stroke="#FFC62F" stroke-width="0.1" stroke-linecap="round"/>
<path d="M431.568 571.985C457.261 567.07 481.841 556.45 503.025 541.132C524.237 525.814 542.027 505.797 554.764 482.956" stroke="#FFC62F" stroke-width="0.24" stroke-linecap="round"/>
<path d="M669.894 316.819C658.46 277.22 638.28 240.201 611.202 209.158C584.124 178.114 550.174 153.073 512.503 136.397" stroke="#FFC62F" stroke-width="0.23" stroke-linecap="round"/>
<path d="M414.023 380.726C409.759 376.001 403.349 373.257 396.967 373.475" stroke="#FFC62F" stroke-width="0.18" stroke-linecap="round"/>
<path d="M287.214 451.64C295.389 467.718 307.122 481.95 321.354 493.058C335.559 504.167 352.208 512.125 369.78 516.199" stroke="#FFC62F" stroke-width="0.12" stroke-linecap="round"/>
<path d="M146.88 407.723C148.672 444.198 158.559 480.266 175.615 512.586C192.671 544.879 216.843 573.397 245.959 595.478" stroke="#FFC62F" stroke-width="0.21" stroke-linecap="round"/>
<path d="M440.205 118.254C399.9 112.061 358.237 114.832 319.1 126.266C279.963 137.7 243.378 157.798 212.742 184.714" stroke="#FFC62F" stroke-width="0.18" stroke-linecap="round"/>
<path d="M448.842 387C446.397 372.143 437.109 358.536 424.153 350.85" stroke="#FFC62F" stroke-width="0.26" stroke-linecap="round"/>
<path d="M250.25 666.012C289.604 687.468 333.712 700.179 378.444 702.976C423.176 705.774 468.506 698.685 510.25 682.308" stroke="#FFC62F" stroke-width="0.08" stroke-linecap="round"/>
<path d="M401.855 446.126C416.603 444.931 430.671 436.919 439.254 424.833" stroke="#FFC62F" stroke-width="0.28" stroke-linecap="round"/>
<path d="M659.954 522.31C678.422 484.177 688.417 441.971 689.015 399.602C689.612 357.233 680.839 314.755 663.484 276.107" stroke="#FFC62F" stroke-width="0.13" stroke-linecap="round"/>
<path d="M531.271 320.784C520.408 301.365 505.28 284.363 487.218 271.326C469.184 258.317 448.271 249.3 426.408 245.117" stroke="#FFC62F" stroke-width="0.23" stroke-linecap="round"/>
<path d="M476.734 631.682C511.091 620.193 542.896 601.1 569.186 576.14C595.477 551.207 616.227 520.435 629.508 486.73" stroke="#FFC62F" stroke-width="0.26" stroke-linecap="round"/>
<path d="M338.79 407.37C340.528 415.952 344.167 424.127 349.382 431.162C354.597 438.196 361.332 444.063 369.045 448.245" stroke="#FFC62F" stroke-width="0.16" stroke-linecap="round"/>
<path d="M721.607 313.832C709.738 266.737 687.467 222.276 656.804 184.606C626.14 146.935 587.166 116.054 543.439 94.8699" stroke="#FFC62F" stroke-width="0.27" stroke-linecap="round"/>
</svg>
