<svg width="91" height="91" viewBox="0 0 91 91" fill="none" xmlns="http://www.w3.org/2000/svg">
<g clip-path="url(#clip0)">
<path d="M81.6462 27.1685C81.7039 27.9769 81.7039 28.7854 81.7039 29.5937C81.7039 54.2491 62.9381 82.658 28.6397 82.658C18.073 82.658 8.25704 79.5975 0 74.2856C1.50133 74.4587 2.94471 74.5164 4.50381 74.5164C13.2226 74.5164 21.2488 71.5717 27.6581 66.5482C19.4588 66.3749 12.5876 61.005 10.2201 53.6141C11.375 53.7872 12.5298 53.9027 13.7425 53.9027C15.4169 53.9027 17.0915 53.6717 18.6505 53.2677C10.1048 51.5353 3.69529 44.029 3.69529 34.9636V34.7328C6.17807 36.1186 9.06538 36.9847 12.1254 37.1C7.10194 33.751 3.81082 28.0346 3.81082 21.5676C3.81082 18.1032 4.73451 14.9274 6.35136 12.1558C15.5323 23.4731 29.3325 30.8638 44.807 31.6723C44.5184 30.2865 44.3451 28.8432 44.3451 27.3996C44.3451 17.1215 52.6599 8.74915 62.9955 8.74915C68.3654 8.74915 73.2157 11.001 76.6225 14.6388C80.8375 13.8304 84.8793 12.2713 88.4595 10.1349C87.0735 14.4656 84.1288 18.1033 80.2602 20.4128C84.0134 20.0088 87.6511 18.9693 91 17.5259C88.4598 21.2212 85.2839 24.5123 81.6462 27.1685Z" fill="#FFFFFF"/>
</g>
<defs>
<clipPath id="clip0">
<rect width="91" height="91" fill="white"/>
</clipPath>
</defs>
</svg>
