<svg width="52" height="30" viewBox="0 0 52 30" fill="none" xmlns="http://www.w3.org/2000/svg">
<path d="M45.7574 26.2287C46.6115 26.2287 47.4307 25.8897 48.0349 25.286C48.6391 24.6823 48.9789 23.8635 48.9797 23.0094V6.2396C48.9785 5.38575 48.6385 4.56729 48.0343 3.96395C47.4302 3.36061 46.6112 3.02172 45.7574 3.02172H6.23964C5.38632 3.02251 4.56814 3.36174 3.96461 3.96499C3.36107 4.56825 3.02146 5.38627 3.02028 6.2396V23.0094C3.02107 23.863 3.36051 24.6814 3.96408 25.2849C4.56766 25.8885 5.38606 26.228 6.23964 26.2287H45.7574ZM45.7574 29.249H6.23964C4.58479 29.249 2.99771 28.5916 1.82755 27.4215C0.657389 26.2513 0 24.6642 0 23.0094L0 6.2396C0 4.58474 0.657389 2.99766 1.82755 1.8275C2.99771 0.657341 4.58479 -4.76837e-05 6.23964 -4.76837e-05H45.7574C47.4122 -4.76837e-05 48.9993 0.657341 50.1695 1.8275C51.3396 2.99766 51.997 4.58474 51.997 6.2396V23.0094C51.997 24.6642 51.3396 26.2513 50.1695 27.4215C48.9993 28.5916 47.4122 29.249 45.7574 29.249V29.249Z" fill="#162D54"/>
<path d="M30.7273 1.51084C29.0724 1.51084 27.4853 2.16824 26.3152 3.3384C25.145 4.50856 24.4876 6.09563 24.4876 7.75049" stroke="#162D54" stroke-width="3.02028" stroke-miterlimit="10"/>
<path d="M6.23964 1.63408C5.0182 1.63408 3.84678 2.1193 2.98309 2.98299C2.1194 3.84668 1.63419 5.01809 1.63419 6.23953V12.9902H19.7589C20.9803 12.9902 22.1517 12.505 23.0154 11.6413C23.8791 10.7776 24.3643 9.60622 24.3643 8.38478V1.63408H6.23964Z" fill="#162D54"/>
<path d="M19.7589 11.3561C20.5469 11.3561 21.3027 11.0431 21.8599 10.4859C22.4171 9.92865 22.7301 9.17289 22.7301 8.38487V3.26836H6.23964C5.45162 3.26836 4.69587 3.5814 4.13865 4.13862C3.58143 4.69584 3.26838 5.45159 3.26838 6.23962V11.3561H19.7589ZM19.7589 14.6245H0V6.23962C0 4.58476 0.657389 2.99768 1.82755 1.82753C2.99771 0.657365 4.58479 -2.38419e-05 6.23964 -2.38419e-05H25.9985V8.38487C25.9985 10.0397 25.3411 11.6268 24.171 12.797C23.0008 13.9671 21.4137 14.6245 19.7589 14.6245Z" fill="#162D54"/>
<path d="M7.7535 13.1151C6.09864 13.1151 4.51156 13.7725 3.3414 14.9426C2.17124 16.1128 1.51385 17.6999 1.51385 19.3547" stroke="#162D54" stroke-width="3.02028" stroke-miterlimit="10"/>
</svg>
