<svg width="91" height="91" viewBox="0 0 91 91" fill="none" xmlns="http://www.w3.org/2000/svg">
<path d="M89.1362 23.9769C88.1104 20.1143 85.0879 17.0722 81.2503 16.0399C74.2944 14.1639 46.4019 14.1639 46.4019 14.1639C46.4019 14.1639 18.5095 14.1639 11.5535 16.0399C7.71585 17.0724 4.69339 20.1143 3.66755 23.9769C1.80371 30.9781 1.80371 45.5854 1.80371 45.5854C1.80371 45.5854 1.80371 60.1927 3.66755 67.1938C4.69339 71.0564 7.71585 73.9718 11.5535 75.0041C18.5095 76.8801 46.4019 76.8801 46.4019 76.8801C46.4019 76.8801 74.2942 76.8801 81.2503 75.0041C85.0879 73.9718 88.1104 71.0564 89.1362 67.1938C91.0001 60.1927 91.0001 45.5854 91.0001 45.5854C91.0001 45.5854 91.0001 30.9781 89.1362 23.9769ZM37.2795 58.8477V32.323L60.5921 45.5857L37.2795 58.8477Z" fill="#F2DAB2"/>
</svg>
