<svg width="664" height="69" viewBox="0 0 664 69" fill="none" xmlns="http://www.w3.org/2000/svg">
<g clip-path="url(#clip0_6876_301)">
<path fill-rule="evenodd" clip-rule="evenodd" d="M40.5331 54.842C35.9604 51.4152 29.771 46.7768 10.5965 59.7295C0.253309 52.3563 -2.25005 39.6339 1.92038 32.8089C5.03971 31.1563 7.61491 28.3095 10.1964 25.456C15.122 20.0114 20.0698 14.542 28.8623 17.2966C23.8332 24.6211 40.3616 32.3362 40.3616 14C43.5108 19.7158 47.7067 23.4109 51.176 26.4663C54.6344 29.5119 57.3711 31.9222 57.6308 35.0648C58.4115 44.5084 55.4096 52.9546 47.9204 56.5768C44.8375 58.0677 42.9024 56.6176 40.5331 54.842ZM44.5643 60.3608C45.4572 60.4825 47.2448 60.7257 49.3191 59.4247C51.6175 57.983 49.861 64.1959 46.3616 64.8572C44.9347 65.1267 42.8661 60.1904 44.2633 60.3236C44.348 60.3314 44.4487 60.345 44.5643 60.3608ZM47.7151 32.7119C47.7151 34.9131 45.9094 36.6975 43.6816 36.6975C41.4539 36.6975 39.6479 34.9131 39.6479 32.7119C39.6479 30.5108 41.4539 28.7264 43.6816 28.7264C45.9094 28.7264 47.7151 30.5108 47.7151 32.7119ZM40.8658 39.4796C40.8658 41.681 39.0597 43.4651 36.8321 43.4651C34.6041 43.4651 32.7984 41.681 32.7984 39.4796C32.7984 37.2786 34.6041 35.4942 36.8321 35.4942C39.0597 35.4942 40.8658 37.2786 40.8658 39.4796ZM43.6816 50.2329C45.9094 50.2329 47.7151 48.4485 47.7151 46.2474C47.7151 44.0465 45.9094 42.2621 43.6816 42.2621C41.4539 42.2621 39.6479 44.0465 39.6479 46.2474C39.6479 48.4485 41.4539 50.2329 43.6816 50.2329ZM54.5649 39.4796C54.5649 41.681 52.7589 43.4651 50.5313 43.4651C48.3037 43.4651 46.4977 41.681 46.4977 39.4796C46.4977 37.2786 48.3037 35.4942 50.5313 35.4942C52.7589 35.4942 54.5649 37.2786 54.5649 39.4796ZM12.8581 35.9456H6.00854V42.8635H12.8581V49.6314H19.7079V42.8638L26.5573 42.8635V35.9456L19.7079 35.9454V29.1777H12.8581V35.9456Z" fill="black"/>
<path d="M73.1553 30.0722H77.0379V27.332H80.9204V24.5918H84.803V21.8518H88.6856V24.5918H92.5682V27.332H96.4508V30.0722H100.333V49.2531H92.5682V43.7727H80.9204V49.2531H73.1553V30.0722ZM80.9204 38.2925H92.5682V32.8123H88.6856V30.0722H84.803V32.8123H80.9204V38.2925Z" fill="black"/>
<path d="M122.645 49.2531H110.997V46.5129H107.115V27.332H114.88V43.7727H126.528V27.332H134.293V49.2531H126.528V46.5129H122.645V49.2531Z" fill="black"/>
<path d="M144.957 46.5129H141.075V43.7727H156.605V41.0327H144.957V38.2925H141.075V30.0722H144.957V27.332H160.488V30.0722H164.37V32.8123H148.84V35.5524H160.488V38.2925H164.37V46.5129H160.488V49.2531H144.957V46.5129Z" fill="black"/>
<path d="M171.151 41.0327H178.917V43.7727H190.564V38.2925H175.034V35.5524H171.151V24.5918H175.034V21.8518H194.447V24.5918H198.329V30.0722H190.564V27.332H178.917V32.8123H194.447V35.5524H198.329V46.5129H194.447V49.2531H175.034V46.5129H171.151V41.0327Z" fill="black"/>
<path d="M212.876 43.7727H224.524V32.8123H212.876V43.7727ZM212.876 30.0722H216.759V27.332H228.407V30.0722H232.289V46.5129H228.407V49.2531H212.876V54.7333H205.111V27.332H212.876V30.0722Z" fill="black"/>
<path d="M243.465 49.2337V44.9278H239.072V32.0102H243.465V27.7043H265.429V32.0102H269.822V40.622H247.858V44.9278H265.429V49.2337H243.465ZM247.858 36.3161H261.036V32.0102H247.858V36.3161Z" fill="black"/>
<path d="M280.013 49.2337V44.9278H275.62V32.0102H280.013V27.7043H301.977V32.0102H306.37V40.622H284.406V44.9278H301.977V49.2337H280.013ZM284.406 36.3161H297.584V32.0102H284.406V36.3161Z" fill="black"/>
<path d="M331.581 27.332V21.8518H339.346V49.2531H331.581V46.5129H327.698V49.2531H316.051V46.5129H312.168V30.0722H316.051V27.332H331.581ZM331.581 43.7727V32.8123H319.933V43.7727H331.581Z" fill="black"/>
<path d="M361.659 32.8123H357.776V35.5524H353.894V49.2531H346.128V27.332H353.894V30.0722H357.776V27.332H365.541V30.0722H369.424V32.8123H365.541V35.5524H361.659V32.8123Z" fill="black"/>
<path d="M389.199 49.2531H377.551V46.5129H373.668V27.332H381.434V43.7727H393.081V27.332H400.847V49.2531H393.081V46.5129H389.199V49.2531Z" fill="black"/>
<path d="M415.393 30.0722H419.275V27.332H430.923V30.0722H434.806V49.2531H427.04V32.8123H415.393V49.2531H407.627V27.332H415.393V30.0722Z" fill="black"/>
<path d="M445.47 46.5129H441.588V43.7727H457.118V41.0327H445.47V38.2925H441.588V30.0722H445.47V27.332H461.001V30.0722H464.883V32.8123H449.353V35.5524H461.001V38.2925H464.883V46.5129H461.001V49.2531H445.47V46.5129Z" fill="black"/>
</g>
<path d="M503.828 55C503.406 55 503.039 54.8442 502.728 54.5325L497.228 49.0325C496.934 48.7392 496.788 48.3725 496.788 47.9325V25.3825C496.788 24.9608 496.934 24.5942 497.228 24.2825L502.728 18.7825C503.039 18.4892 503.406 18.3425 503.828 18.3425H514.965C515.405 18.3425 515.772 18.4892 516.065 18.7825L521.565 24.2825C521.877 24.5942 522.033 24.9608 522.033 25.3825V47.9325C522.033 48.3725 521.877 48.7392 521.565 49.0325L516.065 54.5325C515.772 54.8442 515.405 55 514.965 55H503.828ZM508.723 45.0725H510.125C510.877 45.0725 511.253 44.55 511.253 43.505V29.81C511.253 28.7833 510.877 28.27 510.125 28.27H508.723C507.953 28.27 507.568 28.7833 507.568 29.81V43.505C507.568 44.55 507.953 45.0725 508.723 45.0725ZM526.318 55C525.859 55 525.63 54.7708 525.63 54.3125V19.03C525.63 18.5717 525.859 18.3425 526.318 18.3425H542.79C543.212 18.3425 543.579 18.4892 543.89 18.7825L549.39 24.2825C549.702 24.5942 549.858 24.9608 549.858 25.3825V37.675C549.858 38.115 549.702 38.4817 549.39 38.775L543.89 44.275C543.579 44.5867 543.212 44.7425 542.79 44.7425H536.41V54.3125C536.41 54.7708 536.181 55 535.723 55H526.318ZM537.483 34.595C538.473 34.595 539.206 34.3383 539.683 33.825C540.178 33.3117 540.425 32.5508 540.425 31.5425C540.425 30.5158 540.178 29.755 539.683 29.26C539.206 28.7467 538.473 28.49 537.483 28.49C536.529 28.49 535.805 28.7467 535.31 29.26C534.815 29.755 534.568 30.5158 534.568 31.5425C534.568 32.5508 534.815 33.3117 535.31 33.825C535.805 34.3383 536.529 34.595 537.483 34.595ZM553.442 55C552.983 55 552.754 54.7708 552.754 54.3125V19.03C552.754 18.5717 552.983 18.3425 553.442 18.3425H572.582C573.04 18.3425 573.269 18.5717 573.269 19.03V27.5825C573.269 28.0408 573.04 28.27 572.582 28.27H563.534V32.175H572.307C572.765 32.175 572.994 32.4042 572.994 32.8625V40.48C572.994 40.9383 572.765 41.1675 572.307 41.1675H563.534V45.0725H572.582C573.04 45.0725 573.269 45.3017 573.269 45.76V54.3125C573.269 54.7708 573.04 55 572.582 55H553.442ZM577.558 55C577.1 55 576.871 54.7708 576.871 54.3125V19.03C576.871 18.5717 577.1 18.3425 577.558 18.3425H594.471C594.911 18.3425 595.277 18.4892 595.571 18.7825L601.071 24.2825C601.382 24.5942 601.538 24.9608 601.538 25.3825V54.3125C601.538 54.7708 601.309 55 600.851 55H591.446C590.987 55 590.758 54.7708 590.758 54.3125V28.27H587.651V54.3125C587.651 54.7708 587.421 55 586.963 55H577.558ZM614.154 55C613.695 55 613.466 54.7708 613.466 54.3125L613.439 40.7C613.439 40.5167 613.475 40.37 613.549 40.26C613.64 40.15 613.759 40.0308 613.906 39.9025L621.496 33.275V30.8825L613.851 27.445C613.576 27.3167 613.439 27.0417 613.439 26.62V19.03C613.439 18.5717 613.668 18.3425 614.126 18.3425H622.541C622.724 18.3425 622.88 18.37 623.009 18.425C623.155 18.48 623.302 18.5533 623.449 18.645L632.909 24.1175C633.074 24.2092 633.184 24.3283 633.239 24.475C633.294 24.6033 633.321 24.7867 633.321 25.025V35.53C633.321 35.7133 633.284 35.8783 633.211 36.025C633.138 36.1533 633.019 36.2817 632.854 36.41L624.521 43.8625V45.1825H633.074C633.532 45.1825 633.761 45.4117 633.761 45.87V54.3125C633.761 54.7708 633.532 55 633.074 55H614.154ZM643.691 55C643.269 55 642.902 54.8442 642.591 54.5325L637.091 49.0325C636.797 48.7392 636.651 48.3725 636.651 47.9325V27.3625C636.651 27.0325 636.788 26.7575 637.063 26.5375L645.808 18.6175C646.01 18.4342 646.285 18.3425 646.633 18.3425H655.763C656.222 18.3425 656.451 18.5717 656.451 19.03V23.7875C656.451 24.1175 656.313 24.3925 656.038 24.6125L647.843 30.745V31.625H655.708C656.13 31.625 656.497 31.7808 656.808 32.0925L661.401 36.6575C661.694 36.9692 661.841 37.3358 661.841 37.7575V47.9325C661.841 48.3725 661.694 48.7392 661.401 49.0325L655.901 54.5325C655.589 54.8442 655.222 55 654.801 55H643.691ZM649.411 46.1725C650.437 46.1725 651.207 45.8975 651.721 45.3475C652.234 44.7975 652.491 43.9542 652.491 42.8175C652.491 41.6808 652.234 40.8375 651.721 40.2875C651.207 39.7192 650.437 39.435 649.411 39.435C648.384 39.435 647.614 39.7192 647.101 40.2875C646.587 40.8375 646.331 41.6808 646.331 42.8175C646.331 43.9542 646.587 44.7975 647.101 45.3475C647.614 45.8975 648.384 46.1725 649.411 46.1725Z" fill="black"/>
<defs>
<clipPath id="clip0_6876_301">
<rect width="465" height="51" fill="white" transform="translate(0 14)"/>
</clipPath>
</defs>
</svg>
