<svg width="1920" height="1080" viewBox="0 0 1920 1080" fill="none" xmlns="http://www.w3.org/2000/svg">
<path d="M71 108V65.0734L85.3835 48.8818H152.283L167 65.4499V106.494" stroke="var(--trace-outline)" stroke-width="8" stroke-miterlimit="1.5" stroke-linecap="round" stroke-linejoin="round"/>
<path d="M88.7031 48.3268V33.3018" stroke="var(--trace-outline)" stroke-width="8" stroke-miterlimit="1.5" stroke-linecap="round" stroke-linejoin="round"/>
<path d="M108.406 48.3268V33.3018" stroke="var(--trace-outline)" stroke-width="8" stroke-miterlimit="1.5" stroke-linecap="round" stroke-linejoin="round"/>
<path d="M128.107 48.3268V33.3018" stroke="var(--trace-outline)" stroke-width="8" stroke-miterlimit="1.5" stroke-linecap="round" stroke-linejoin="round"/>
<path d="M147.809 48.3268V33.3018" stroke="var(--trace-outline)" stroke-width="8" stroke-miterlimit="1.5" stroke-linecap="round" stroke-linejoin="round"/>
<path d="M88.7759 32.0024C90.1105 32.0024 91.1924 30.8826 91.1924 29.5012C91.1924 28.1198 90.1105 27 88.7759 27C87.4413 27 86.3594 28.1198 86.3594 29.5012C86.3594 30.8826 87.4413 32.0024 88.7759 32.0024Z" fill="#BF87FE" stroke="var(--trace-outline)" stroke-width="8" stroke-miterlimit="1.5" stroke-linecap="round" stroke-linejoin="round"/>
<path d="M108.256 32.0024C109.591 32.0024 110.673 30.8826 110.673 29.5012C110.673 28.1198 109.591 27 108.256 27C106.922 27 105.84 28.1198 105.84 29.5012C105.84 30.8826 106.922 32.0024 108.256 32.0024Z" fill="#BF87FE" stroke="var(--trace-outline)" stroke-width="8" stroke-miterlimit="1.5" stroke-linecap="round" stroke-linejoin="round"/>
<path d="M127.889 32.0024C129.224 32.0024 130.306 30.8826 130.306 29.5012C130.306 28.1198 129.224 27 127.889 27C126.555 27 125.473 28.1198 125.473 29.5012C125.473 30.8826 126.555 32.0024 127.889 32.0024Z" fill="#BF87FE" stroke="var(--trace-outline)" stroke-width="8" stroke-miterlimit="1.5" stroke-linecap="round" stroke-linejoin="round"/>
<path d="M147.823 32.0024C149.157 32.0024 150.239 30.8826 150.239 29.5012C150.239 28.1198 149.157 27 147.823 27C146.488 27 145.406 28.1198 145.406 29.5012C145.406 30.8826 146.488 32.0024 147.823 32.0024Z" fill="#BF87FE" stroke="var(--trace-outline)" stroke-width="8" stroke-miterlimit="1.5" stroke-linecap="round" stroke-linejoin="round"/>
<path d="M151.596 74.9868C152.931 74.9868 154.013 73.867 154.013 72.4856C154.013 71.1042 152.931 69.9844 151.596 69.9844C150.262 69.9844 149.18 71.1042 149.18 72.4856C149.18 73.867 150.262 74.9868 151.596 74.9868Z" fill="#BF87FE" stroke="var(--trace-outline)" stroke-width="8" stroke-miterlimit="1.5" stroke-linecap="round" stroke-linejoin="round"/>
<path d="M151.362 88.9067C152.696 88.9067 153.778 87.7869 153.778 86.4055C153.778 85.0241 152.696 83.9043 151.362 83.9043C150.027 83.9043 148.945 85.0241 148.945 86.4055C148.945 87.7869 150.027 88.9067 151.362 88.9067Z" fill="#BF87FE" stroke="var(--trace-outline)" stroke-width="8" stroke-miterlimit="1.5" stroke-linecap="round" stroke-linejoin="round"/>
<path d="M81.8926 105.572V72.2959H148.549" stroke="var(--trace-outline)" stroke-width="8" stroke-miterlimit="1.5" stroke-linecap="round" stroke-linejoin="round"/>
<path d="M96.0508 106.182V86.6445H148.255" stroke="var(--trace-outline)" stroke-width="8" stroke-miterlimit="1.5" stroke-linecap="round" stroke-linejoin="round"/>
<path d="M208.281 105.448V51.7213L214.856 45.8136H277.023L274.856 34.2117L279.786 28L289.195 28.0854L294.213 34.8124L291.821 45.8039H299.342L311.936 58.3988V105.147" stroke="var(--trace-outline)" stroke-width="8" stroke-miterlimit="1.5" stroke-linecap="round" stroke-linejoin="round"/>
<path d="M217.004 55.2129L296.301 55.4211L304.561 64.3066L304.143 105.185" stroke="var(--trace-outline)" stroke-width="8" stroke-miterlimit="1.5" stroke-linecap="round" stroke-linejoin="round"/>
<path d="M219.299 79.5322H276.029L283.537 87.0404V106.963" stroke="var(--trace-outline)" stroke-width="8" stroke-miterlimit="1.5" stroke-linecap="round" stroke-linejoin="round"/>
<path d="M219.299 91.8125H267.806L274.107 97.7104L274.033 106.722" stroke="var(--trace-outline)" stroke-width="8" stroke-miterlimit="1.5" stroke-linecap="round" stroke-linejoin="round"/>
<path d="M216.129 67.6436L285.414 67.8525L292.923 75.7778L292.714 105.478" stroke="var(--trace-outline)" stroke-width="8" stroke-miterlimit="1.5" stroke-linecap="round" stroke-linejoin="round"/>
<path d="M216.396 58.1749C218.047 58.1749 219.386 56.8363 219.386 55.1851C219.386 53.5339 218.047 52.1953 216.396 52.1953C214.745 52.1953 213.406 53.5339 213.406 55.1851C213.406 56.8363 214.745 58.1749 216.396 58.1749Z" fill="#24374D" stroke="var(--trace-outline)" stroke-width="8"/>
<path fill-rule="evenodd" clip-rule="evenodd" d="M216.396 52.1953C218.047 52.1953 219.387 53.5352 219.387 55.1851C219.387 56.835 218.047 58.1749 216.396 58.1749C214.746 58.1749 213.406 56.835 213.406 55.1851C213.406 53.5352 214.746 52.1953 216.396 52.1953ZM216.396 55.4809C216.559 55.4809 216.692 55.3484 216.692 55.1851C216.692 55.0218 216.559 54.8893 216.396 54.8893C216.233 54.8893 216.1 55.0218 216.1 55.1851C216.1 55.3484 216.233 55.4809 216.396 55.4809Z" fill="var(--trace)" stroke="var(--trace-outline)" stroke-width="8"/>
<path d="M216.314 82.3253C217.965 82.3253 219.304 80.9867 219.304 79.3355C219.304 77.6843 217.965 76.3457 216.314 76.3457C214.663 76.3457 213.324 77.6843 213.324 79.3355C213.324 80.9867 214.663 82.3253 216.314 82.3253Z" fill="#24374D" stroke="var(--trace-outline)" stroke-width="8"/>
<path fill-rule="evenodd" clip-rule="evenodd" d="M216.314 76.3457C217.964 76.3457 219.304 77.6856 219.304 79.3355C219.304 80.9854 217.964 82.3253 216.314 82.3253C214.663 82.3253 213.324 80.9854 213.324 79.3355C213.324 77.6856 214.663 76.3457 216.314 76.3457ZM216.314 79.6313C216.477 79.6313 216.61 79.4988 216.61 79.3355C216.61 79.1722 216.477 79.0397 216.314 79.0397C216.151 79.0397 216.018 79.1722 216.018 79.3355C216.018 79.4988 216.151 79.6313 216.314 79.6313Z" fill="var(--trace)" stroke="var(--trace-outline)" stroke-width="8"/>
<path d="M216.314 94.9268C217.965 94.9268 219.304 93.5883 219.304 91.937C219.304 90.2858 217.965 88.9473 216.314 88.9473C214.663 88.9473 213.324 90.2858 213.324 91.937C213.324 93.5883 214.663 94.9268 216.314 94.9268Z" fill="#24374D" stroke="var(--trace-outline)" stroke-width="8"/>
<path fill-rule="evenodd" clip-rule="evenodd" d="M216.314 88.9463C217.964 88.9463 219.304 90.2862 219.304 91.9368C219.304 93.5867 217.964 94.9266 216.314 94.9266C214.663 94.9266 213.324 93.5867 213.324 91.9368C213.324 90.2862 214.663 88.9463 216.314 88.9463ZM216.314 92.2327C216.477 92.2327 216.61 92.1001 216.61 91.9368C216.61 91.7736 216.477 91.641 216.314 91.641C216.151 91.641 216.018 91.7736 216.018 91.9368C216.018 92.1001 216.151 92.2327 216.314 92.2327Z" fill="var(--trace)" stroke="var(--trace-outline)" stroke-width="8"/>
<path d="M312.009 109.822C313.661 109.822 314.999 108.484 314.999 106.833C314.999 105.181 313.661 103.843 312.009 103.843C310.358 103.843 309.02 105.181 309.02 106.833C309.02 108.484 310.358 109.822 312.009 109.822Z" fill="#24374D" stroke="var(--trace-outline)" stroke-width="8"/>
<path fill-rule="evenodd" clip-rule="evenodd" d="M312.009 103.842C313.66 103.842 314.999 105.182 314.999 106.832C314.999 108.482 313.66 109.822 312.009 109.822C310.359 109.822 309.02 108.482 309.02 106.832C309.02 105.182 310.359 103.842 312.009 103.842ZM312.009 107.128C312.173 107.128 312.305 106.996 312.305 106.832C312.305 106.669 312.173 106.536 312.009 106.536C311.846 106.536 311.713 106.669 311.713 106.832C311.713 106.996 311.846 107.128 312.009 107.128Z" fill="var(--trace)" stroke="var(--trace-outline)" stroke-width="8"/>
<path d="M216.314 70.6446C217.965 70.6446 219.304 69.306 219.304 67.6548C219.304 66.0036 217.965 64.665 216.314 64.665C214.663 64.665 213.324 66.0036 213.324 67.6548C213.324 69.306 214.663 70.6446 216.314 70.6446Z" fill="#24374D" stroke="var(--trace-outline)" stroke-width="8"/>
<path fill-rule="evenodd" clip-rule="evenodd" d="M216.314 64.665C217.964 64.665 219.304 66.0049 219.304 67.6548C219.304 69.3047 217.964 70.6446 216.314 70.6446C214.663 70.6446 213.324 69.3047 213.324 67.6548C213.324 66.0049 214.663 64.665 216.314 64.665ZM216.314 67.9506C216.477 67.9506 216.61 67.8181 216.61 67.6548C216.61 67.4916 216.477 67.359 216.314 67.359C216.151 67.359 216.018 67.4916 216.018 67.6548C216.018 67.8181 216.151 67.9506 216.314 67.9506Z" fill="var(--trace)" stroke="var(--trace-outline)" stroke-width="8"/>
<path d="M211.326 104.662H205V109.293H211.326V104.662Z" fill="var(--trace)" stroke="var(--trace-outline)" stroke-width="8"/>
<path d="M277.079 104.662H270.754V109.293H277.079V104.662Z" fill="var(--trace)" stroke="var(--trace-outline)" stroke-width="8"/>
<path d="M286.56 104.662H280.234V109.293H286.56V104.662Z" fill="var(--trace)" stroke="var(--trace-outline)" stroke-width="8"/>
<path d="M296.04 104.662H289.715V109.293H296.04V104.662Z" fill="var(--trace)" stroke="var(--trace-outline)" stroke-width="8"/>
<path d="M307.173 104.662H300.848V109.293H307.173V104.662Z" fill="var(--trace)" stroke="var(--trace-outline)" stroke-width="8"/>
<path d="M363.336 104.405V69.7363L369.621 63.4512H424.613L430.59 69.429L430.541 104.625" stroke="var(--trace-outline)" stroke-width="8" stroke-miterlimit="1.5" stroke-linecap="round" stroke-linejoin="round"/>
<path d="M391.283 69.6133V105.264" stroke="var(--trace-outline)" stroke-width="8" stroke-miterlimit="1.5" stroke-linecap="round" stroke-linejoin="round"/>
<path d="M391.321 71.609C392.851 71.609 394.091 70.3687 394.091 68.8387C394.091 67.3087 392.851 66.0684 391.321 66.0684C389.791 66.0684 388.551 67.3087 388.551 68.8387C388.551 70.3687 389.791 71.609 391.321 71.609Z" fill="#435466" stroke="var(--trace-outline)" stroke-width="8"/>
<path fill-rule="evenodd" clip-rule="evenodd" d="M391.321 66.0684C392.85 66.0684 394.091 67.3099 394.091 68.8387C394.091 70.3675 392.85 71.6082 391.321 71.6082C389.792 71.6082 388.551 70.3675 388.551 68.8387C388.551 67.3099 389.792 66.0684 391.321 66.0684ZM391.321 68.6141C391.198 68.6141 391.097 68.7146 391.097 68.8387C391.097 68.962 391.198 69.0624 391.321 69.0624C391.445 69.0624 391.546 68.962 391.546 68.8387C391.546 68.7146 391.445 68.6141 391.321 68.6141Z" fill="var(--trace)" stroke="var(--trace-outline)" stroke-width="8"/>
<path d="M397.664 69.6133V105.264" stroke="var(--trace-outline)" stroke-width="8" stroke-miterlimit="1.5" stroke-linecap="round" stroke-linejoin="round"/>
<path d="M397.702 71.609C399.232 71.609 400.472 70.3687 400.472 68.8387C400.472 67.3087 399.232 66.0684 397.702 66.0684C396.172 66.0684 394.932 67.3087 394.932 68.8387C394.932 70.3687 396.172 71.609 397.702 71.609Z" fill="#435466" stroke="var(--trace-outline)" stroke-width="8"/>
<path fill-rule="evenodd" clip-rule="evenodd" d="M397.701 66.0684C399.23 66.0684 400.472 67.3099 400.472 68.8387C400.472 70.3675 399.23 71.6082 397.701 71.6082C396.172 71.6082 394.932 70.3675 394.932 68.8387C394.932 67.3099 396.172 66.0684 397.701 66.0684ZM397.701 68.6141C397.578 68.6141 397.477 68.7146 397.477 68.8387C397.477 68.962 397.578 69.0624 397.701 69.0624C397.825 69.0624 397.926 68.962 397.926 68.8387C397.926 68.7146 397.825 68.6141 397.701 68.6141Z" fill="var(--trace)" stroke="var(--trace-outline)" stroke-width="8"/>
<path d="M403.932 69.6133V105.264" stroke="var(--trace-outline)" stroke-width="8" stroke-miterlimit="1.5" stroke-linecap="round" stroke-linejoin="round"/>
<path d="M403.97 71.609C405.5 71.609 406.74 70.3687 406.74 68.8387C406.74 67.3087 405.5 66.0684 403.97 66.0684C402.44 66.0684 401.199 67.3087 401.199 68.8387C401.199 70.3687 402.44 71.609 403.97 71.609Z" fill="#435466" stroke="var(--trace-outline)" stroke-width="8"/>
<path fill-rule="evenodd" clip-rule="evenodd" d="M403.97 66.0684C405.498 66.0684 406.74 67.3099 406.74 68.8387C406.74 70.3675 405.498 71.6082 403.97 71.6082C402.441 71.6082 401.199 70.3675 401.199 68.8387C401.199 67.3099 402.441 66.0684 403.97 66.0684ZM403.97 68.6141C403.845 68.6141 403.745 68.7146 403.745 68.8387C403.745 68.962 403.845 69.0624 403.97 69.0624C404.093 69.0624 404.193 68.962 404.193 68.8387C404.193 68.7146 404.093 68.6141 403.97 68.6141Z" fill="var(--trace)" stroke="var(--trace-outline)" stroke-width="8"/>
<path d="M386.721 43.1232L386.388 53.1318L367.006 53.1058L351.98 41.587L366.24 27.1318H384.928L394.98 37.3225V50.925" stroke="var(--trace-outline)" stroke-width="8" stroke-miterlimit="1.5" stroke-linecap="round" stroke-linejoin="round"/>
<path d="M394.98 51.1318V54.4537L392.548 57.4633H366.974L358.207 67.0767L357.98 104.132" stroke="var(--trace-outline)" stroke-width="8" stroke-miterlimit="1.5" stroke-linecap="round" stroke-linejoin="round"/>
<path d="M407.24 43.1232L407.116 53.1318L426.954 53.1058L441.98 41.587L427.721 27.1318H409.033L398.98 37.3225V50.925" stroke="var(--trace-outline)" stroke-width="8" stroke-miterlimit="1.5" stroke-linecap="round" stroke-linejoin="round"/>
<path d="M398.98 51.1318V54.4537L401.413 57.4633H426.987L435.754 67.0767L435.98 104.132" stroke="var(--trace-outline)" stroke-width="8" stroke-miterlimit="1.5" stroke-linecap="round" stroke-linejoin="round"/>
<path d="M387.118 47.3463C388.648 47.3463 389.888 46.106 389.888 44.576C389.888 43.046 388.648 41.8057 387.118 41.8057C385.588 41.8057 384.348 43.046 384.348 44.576C384.348 46.106 385.588 47.3463 387.118 47.3463Z" fill="#435466" stroke="var(--trace-outline)" stroke-width="8"/>
<path fill-rule="evenodd" clip-rule="evenodd" d="M386.98 41C388.637 41 389.98 42.3438 389.98 44.0004C389.98 45.6562 388.637 47 386.98 47C385.324 47 383.98 45.6562 383.98 44.0004C383.98 42.3438 385.324 41 386.98 41ZM386.98 43.7572C386.846 43.7572 386.738 43.866 386.738 44.0004C386.738 44.134 386.846 44.2428 386.98 44.2428C387.114 44.2428 387.223 44.134 387.223 44.0004C387.223 43.866 387.114 43.7572 386.98 43.7572Z" fill="var(--trace)" stroke="var(--trace-outline)" stroke-width="8"/>
<path d="M406.845 47.3463C408.375 47.3463 409.615 46.106 409.615 44.576C409.615 43.046 408.375 41.8057 406.845 41.8057C405.315 41.8057 404.074 43.046 404.074 44.576C404.074 46.106 405.315 47.3463 406.845 47.3463Z" fill="#435466" stroke="var(--trace-outline)" stroke-width="8"/>
<path fill-rule="evenodd" clip-rule="evenodd" d="M406.98 41C408.636 41 409.98 42.3438 409.98 44.0004C409.98 45.6562 408.636 47 406.98 47C405.325 47 403.98 45.6562 403.98 44.0004C403.98 42.3438 405.325 41 406.98 41ZM406.98 43.7572C406.847 43.7572 406.738 43.866 406.738 44.0004C406.738 44.134 406.847 44.2428 406.98 44.2428C407.115 44.2428 407.224 44.134 407.224 44.0004C407.224 43.866 407.115 43.7572 406.98 43.7572Z" fill="var(--trace)" stroke="var(--trace-outline)" stroke-width="8"/>
<path d="M360.673 104.129H356.203V109H360.673V104.129Z" fill="#435466" stroke="var(--trace-outline)" stroke-width="8"/>
<path d="M360.673 104.129H356.203V109H360.673V104.129Z" fill="var(--trace)" stroke="var(--trace-outline)" stroke-width="8"/>
<path d="M365.487 104.129H361.018V109H365.487V104.129Z" fill="#435466" stroke="var(--trace-outline)" stroke-width="8"/>
<path d="M365.487 104.129H361.018V109H365.487V104.129Z" fill="var(--trace)" stroke="var(--trace-outline)" stroke-width="8"/>
<path d="M393.19 104.129H388.721V109H393.19V104.129Z" fill="#435466" stroke="var(--trace-outline)" stroke-width="8"/>
<path d="M393.19 104.129H388.721V109H393.19V104.129Z" fill="var(--trace)" stroke="var(--trace-outline)" stroke-width="8"/>
<path d="M399.905 104.129H395.436V109H399.905V104.129Z" fill="#435466" stroke="var(--trace-outline)" stroke-width="8"/>
<path d="M399.905 104.129H395.436V109H399.905V104.129Z" fill="var(--trace)" stroke="var(--trace-outline)" stroke-width="8"/>
<path d="M406.202 104.129H401.732V109H406.202V104.129Z" fill="#435466" stroke="var(--trace-outline)" stroke-width="8"/>
<path d="M406.202 104.129H401.732V109H406.202V104.129Z" fill="var(--trace)" stroke="var(--trace-outline)" stroke-width="8"/>
<path d="M432.794 104.129H428.324V109H432.794V104.129Z" fill="#435466" stroke="var(--trace-outline)" stroke-width="8"/>
<path d="M432.794 104.129H428.324V109H432.794V104.129Z" fill="var(--trace)" stroke="var(--trace-outline)" stroke-width="8"/>
<path d="M437.72 104.129H433.25V109H437.72V104.129Z" fill="#435466" stroke="var(--trace-outline)" stroke-width="8"/>
<path d="M437.72 104.129H433.25V109H437.72V104.129Z" fill="var(--trace)" stroke="var(--trace-outline)" stroke-width="8"/>
<mask id="path-66-inside-1_6156_483" fill="white">
<path d="M497.251 106.188H491.168V111.664H497.251V106.188Z"/>
</mask>
<path d="M497.251 106.188H491.168V111.664H497.251V106.188Z" fill="var(--trace)"/>
<path d="M491.168 106.188V98.1875H483.168V106.188H491.168ZM497.251 106.188H505.251V98.1875H497.251V106.188ZM497.251 111.664V119.664H505.251V111.664H497.251ZM491.168 111.664H483.168V119.664H491.168V111.664ZM491.168 106.188V114.188H497.251V106.188V98.1875H491.168V106.188ZM497.251 106.188H489.251V111.664H497.251H505.251V106.188H497.251ZM497.251 111.664V103.664H491.168V111.664V119.664H497.251V111.664ZM491.168 111.664H499.168V106.188H491.168H483.168V111.664H491.168Z" fill="var(--trace-outline)" mask="url(#path-66-inside-1_6156_483)"/>
<mask id="path-68-inside-2_6156_483" fill="white">
<path d="M490.405 106.188H485.082V111.664H490.405V106.188Z"/>
</mask>
<path d="M490.405 106.188H485.082V111.664H490.405V106.188Z" fill="var(--trace)"/>
<path d="M485.082 106.188V98.1875H477.082V106.188H485.082ZM490.405 106.188H498.405V98.1875H490.405V106.188ZM490.405 111.664V119.664H498.405V111.664H490.405ZM485.082 111.664H477.082V119.664H485.082V111.664ZM485.082 106.188V114.188H490.405V106.188V98.1875H485.082V106.188ZM490.405 106.188H482.405V111.664H490.405H498.405V106.188H490.405ZM490.405 111.664V103.664H485.082V111.664V119.664H490.405V111.664ZM485.082 111.664H493.082V106.188H485.082H477.082V111.664H485.082Z" fill="var(--trace-outline)" mask="url(#path-68-inside-2_6156_483)"/>
<mask id="path-70-inside-3_6156_483" fill="white">
<path d="M484.362 106.188H479V111.664H484.362V106.188Z"/>
</mask>
<path d="M484.362 106.188H479V111.664H484.362V106.188Z" fill="var(--trace)"/>
<path d="M479 106.188V98.1875H471V106.188H479ZM484.362 106.188H492.362V98.1875H484.362V106.188ZM484.362 111.664V119.664H492.362V111.664H484.362ZM479 111.664H471V119.664H479V111.664ZM479 106.188V114.188H484.362V106.188V98.1875H479V106.188ZM484.362 106.188H476.362V111.664H484.362H492.362V106.188H484.362ZM484.362 111.664V103.664H479V111.664V119.664H484.362V111.664ZM479 111.664H487V106.188H479H471V111.664H479Z" fill="var(--trace-outline)" mask="url(#path-70-inside-3_6156_483)"/>
<mask id="path-72-inside-4_6156_483" fill="white">
<path d="M552.001 106.188H545.918V111.664H552.001V106.188Z"/>
</mask>
<path d="M552.001 106.188H545.918V111.664H552.001V106.188Z" fill="var(--trace)"/>
<path d="M545.918 106.188V98.1875H537.918V106.188H545.918ZM552.001 106.188H560.001V98.1875H552.001V106.188ZM552.001 111.664V119.664H560.001V111.664H552.001ZM545.918 111.664H537.918V119.664H545.918V111.664ZM545.918 106.188V114.188H552.001V106.188V98.1875H545.918V106.188ZM552.001 106.188H544.001V111.664H552.001H560.001V106.188H552.001ZM552.001 111.664V103.664H545.918V111.664V119.664H552.001V111.664ZM545.918 111.664H553.918V106.188H545.918H537.918V111.664H545.918Z" fill="var(--trace-outline)" mask="url(#path-72-inside-4_6156_483)"/>
<mask id="path-74-inside-5_6156_483" fill="white">
<path d="M545.538 106.188H541.355V111.664H545.538V106.188Z"/>
</mask>
<path d="M545.538 106.188H541.355V111.664H545.538V106.188Z" fill="var(--trace)"/>
<path d="M541.355 106.188V98.1875H533.355V106.188H541.355ZM545.538 106.188H553.538V98.1875H545.538V106.188ZM545.538 111.664V119.664H553.538V111.664H545.538ZM541.355 111.664H533.355V119.664H541.355V111.664ZM541.355 106.188V114.188H545.538V106.188V98.1875H541.355V106.188ZM545.538 106.188H537.538V111.664H545.538H553.538V106.188H545.538ZM545.538 111.664V103.664H541.355V111.664V119.664H545.538V111.664ZM541.355 111.664H549.355V106.188H541.355H533.355V111.664H541.355Z" fill="var(--trace-outline)" mask="url(#path-74-inside-5_6156_483)"/>
<path d="M486.5 106.926L517 43.5L543.863 106.926" stroke="var(--trace-outline)" stroke-width="8" stroke-miterlimit="1.5" stroke-linecap="round" stroke-linejoin="round"/>
<path d="M482.043 106.826L514.054 41.1493L501.055 34.6388L502.802 27.3628L514.054 34.6388L512.307 21.6185L521.814 20.6611L520.068 34.4476L531.321 28.5114L531.127 37.5109L520.456 41.3405L548.199 107.018" stroke="var(--trace-outline)" stroke-width="8" stroke-miterlimit="1.5" stroke-linecap="round" stroke-linejoin="round"/>
<path d="M494.166 107.25L511.77 66.7549L520.669 66.9429" stroke="var(--trace-outline)" stroke-width="8" stroke-miterlimit="1.5" stroke-linecap="round" stroke-linejoin="round"/>
<path d="M506.354 81.2578H526.279" stroke="var(--trace-outline)" stroke-width="8" stroke-miterlimit="1.5" stroke-linecap="round" stroke-linejoin="round"/>
<path d="M497.842 99.1514H533.824" stroke="var(--trace-outline)" stroke-width="8" stroke-miterlimit="1.5" stroke-linecap="round" stroke-linejoin="round"/>
<path d="M522.619 67.0518C522.619 67.9905 521.867 68.5703 521.167 68.5703C520.51 68.5702 519.809 68.0602 519.724 67.2227L519.716 67.0518C519.716 66.1129 520.467 65.5324 521.167 65.5322C521.867 65.5322 522.619 66.1128 522.619 67.0518Z" fill="#24374D" stroke="var(--trace-outline)" stroke-width="8"/>
<path d="M521.167 68.5703C521.868 68.5703 522.619 67.991 522.619 67.0518C522.619 66.1122 521.868 65.5322 521.167 65.5322M521.167 68.5703V67.1221M521.167 68.5703V67.1221M521.167 68.5703C520.51 68.5702 519.809 68.0617 519.724 67.2236L519.716 67.0518C519.716 66.1116 520.466 65.5324 521.167 65.5322M521.167 67.1221C521.197 67.1221 521.223 67.1045 521.234 67.0791L521.24 67.0518C521.24 67.0221 521.222 66.996 521.195 66.9854L521.167 66.9805M521.167 67.1221C521.137 67.122 521.111 67.1045 521.1 67.0791L521.095 67.0518C521.095 67.0126 521.127 66.9806 521.167 66.9805M521.167 66.9805V65.5322M521.167 66.9805V65.5322" fill="var(--trace)" stroke="var(--trace-outline)" stroke-width="8"/>
<path d="M528.451 81.125C528.451 82.0637 527.699 82.6436 526.999 82.6436C526.342 82.6434 525.641 82.1335 525.556 81.2959L525.548 81.125C525.548 80.1861 526.299 79.6056 526.999 79.6055C527.699 79.6055 528.451 80.186 528.451 81.125Z" fill="#24374D" stroke="var(--trace-outline)" stroke-width="8"/>
<path d="M526.999 82.6436C527.7 82.6436 528.451 82.065 528.451 81.125C528.451 80.1847 527.701 79.6055 526.999 79.6055M526.999 82.6436V81.1953M526.999 82.6436V81.1953M526.999 82.6436C526.342 82.6434 525.641 82.1343 525.556 81.2969L525.548 81.125C525.548 80.1856 526.297 79.6056 526.999 79.6055M526.999 81.1953C527.029 81.1953 527.055 81.1777 527.066 81.1523L527.072 81.125C527.072 81.0954 527.054 81.0693 527.027 81.0586L526.999 81.0537M526.999 81.1953C526.969 81.1952 526.943 81.1778 526.932 81.1523L526.927 81.125C526.927 81.0859 526.959 81.0539 526.999 81.0537M526.999 81.0537V79.6055M526.999 81.0537V79.6055" fill="var(--trace)" stroke="var(--trace-outline)" stroke-width="8"/>
<path d="M535.582 99.0615C535.582 100 534.83 100.58 534.13 100.58C533.473 100.58 532.771 100.07 532.687 99.2324L532.679 99.0615C532.679 98.1227 533.43 97.5422 534.13 97.542C534.83 97.542 535.582 98.1225 535.582 99.0615Z" fill="#24374D" stroke="var(--trace-outline)" stroke-width="8"/>
<path d="M534.131 100.58C534.831 100.58 535.582 100.002 535.582 99.0615C535.582 98.1205 534.83 97.542 534.131 97.542M534.131 100.58V99.1318M534.131 100.58V99.1318M534.131 100.58C533.473 100.58 532.773 100.072 532.688 99.2334L532.679 99.0615C532.679 98.1213 533.43 97.542 534.131 97.542M534.131 99.1318C534.161 99.1318 534.187 99.1143 534.198 99.0889L534.204 99.0615C534.204 99.032 534.186 99.0058 534.159 98.9951L534.131 98.9902M534.131 99.1318C534.101 99.1318 534.075 99.1142 534.063 99.0889L534.058 99.0615C534.058 99.0223 534.091 98.9903 534.131 98.9902M534.131 98.9902V97.542M534.131 98.9902V97.542" fill="var(--trace)" stroke="var(--trace-outline)" stroke-width="8"/>
<path d="M37.5 38L38.9588 1026.01C38.9816 1041.43 51.469 1053.93 66.8899 1053.97L1063.92 1056.42C1081.07 1056.47 1095 1042.57 1095 1025.42V562.088C1095 556.502 1098.1 551.379 1103.05 548.792L1128.5 535.5" stroke="var(--trace-outline)" stroke-width="8"/>
<rect x="49" y="109" width="1029" height="936" rx="20" stroke="var(--trace-outline)" stroke-width="8" stroke-linejoin="round"/>
<path d="M214 989.5H588.5V882H666V989.5H1077.5M200 999H1077.5M1077.5 1009H191.5" stroke="var(--trace-outline)" stroke-width="8"/>
<circle cx="37.5" cy="31.5" r="11" fill="var(--trace)" stroke="var(--trace-outline)" stroke-width="3"/>
<path d="M71 108V65.0734L85.3835 48.8818H152.283L167 65.4499V106.494" stroke="var(--trace)" stroke-width="3" stroke-miterlimit="1.5" stroke-linecap="round" stroke-linejoin="round"/>
<path d="M88.7031 48.3268V33.3018" stroke="var(--trace)" stroke-width="3" stroke-miterlimit="1.5" stroke-linecap="round" stroke-linejoin="round"/>
<path d="M108.406 48.3268V33.3018" stroke="var(--trace)" stroke-width="3" stroke-miterlimit="1.5" stroke-linecap="round" stroke-linejoin="round"/>
<path d="M128.107 48.3268V33.3018" stroke="var(--trace)" stroke-width="3" stroke-miterlimit="1.5" stroke-linecap="round" stroke-linejoin="round"/>
<path d="M147.809 48.3268V33.3018" stroke="var(--trace)" stroke-width="3" stroke-miterlimit="1.5" stroke-linecap="round" stroke-linejoin="round"/>
<path d="M88.7759 32.0024C90.1105 32.0024 91.1924 30.8826 91.1924 29.5012C91.1924 28.1198 90.1105 27 88.7759 27C87.4413 27 86.3594 28.1198 86.3594 29.5012C86.3594 30.8826 87.4413 32.0024 88.7759 32.0024Z" fill="#BF87FE" stroke="var(--trace)" stroke-width="3" stroke-miterlimit="1.5" stroke-linecap="round" stroke-linejoin="round"/>
<path d="M108.256 32.0024C109.591 32.0024 110.673 30.8826 110.673 29.5012C110.673 28.1198 109.591 27 108.256 27C106.922 27 105.84 28.1198 105.84 29.5012C105.84 30.8826 106.922 32.0024 108.256 32.0024Z" fill="#BF87FE" stroke="var(--trace)" stroke-width="3" stroke-miterlimit="1.5" stroke-linecap="round" stroke-linejoin="round"/>
<path d="M127.889 32.0024C129.224 32.0024 130.306 30.8826 130.306 29.5012C130.306 28.1198 129.224 27 127.889 27C126.555 27 125.473 28.1198 125.473 29.5012C125.473 30.8826 126.555 32.0024 127.889 32.0024Z" fill="#BF87FE" stroke="var(--trace)" stroke-width="3" stroke-miterlimit="1.5" stroke-linecap="round" stroke-linejoin="round"/>
<path d="M147.823 32.0024C149.157 32.0024 150.239 30.8826 150.239 29.5012C150.239 28.1198 149.157 27 147.823 27C146.488 27 145.406 28.1198 145.406 29.5012C145.406 30.8826 146.488 32.0024 147.823 32.0024Z" fill="#BF87FE" stroke="var(--trace)" stroke-width="3" stroke-miterlimit="1.5" stroke-linecap="round" stroke-linejoin="round"/>
<path d="M151.596 74.9868C152.931 74.9868 154.013 73.867 154.013 72.4856C154.013 71.1042 152.931 69.9844 151.596 69.9844C150.262 69.9844 149.18 71.1042 149.18 72.4856C149.18 73.867 150.262 74.9868 151.596 74.9868Z" fill="#BF87FE" stroke="var(--trace)" stroke-width="3" stroke-miterlimit="1.5" stroke-linecap="round" stroke-linejoin="round"/>
<path d="M151.362 88.9067C152.696 88.9067 153.778 87.7869 153.778 86.4055C153.778 85.0241 152.696 83.9043 151.362 83.9043C150.027 83.9043 148.945 85.0241 148.945 86.4055C148.945 87.7869 150.027 88.9067 151.362 88.9067Z" fill="#BF87FE" stroke="var(--trace)" stroke-width="3" stroke-miterlimit="1.5" stroke-linecap="round" stroke-linejoin="round"/>
<path d="M81.8926 105.572V72.2959H148.549" stroke="var(--trace)" stroke-width="3" stroke-miterlimit="1.5" stroke-linecap="round" stroke-linejoin="round"/>
<path d="M96.0508 106.182V86.6445H148.255" stroke="var(--trace)" stroke-width="3" stroke-miterlimit="1.5" stroke-linecap="round" stroke-linejoin="round"/>
<path d="M208.281 105.448V51.7213L214.856 45.8136H277.023L274.856 34.2117L279.786 28L289.195 28.0854L294.213 34.8124L291.821 45.8039H299.342L311.936 58.3988V105.147" stroke="var(--trace)" stroke-width="3" stroke-miterlimit="1.5" stroke-linecap="round" stroke-linejoin="round"/>
<path d="M217.004 55.2129L296.301 55.4211L304.561 64.3066L304.143 105.185" stroke="var(--trace)" stroke-width="3" stroke-miterlimit="1.5" stroke-linecap="round" stroke-linejoin="round"/>
<path d="M219.299 79.5322H276.029L283.537 87.0404V106.963" stroke="var(--trace)" stroke-width="3" stroke-miterlimit="1.5" stroke-linecap="round" stroke-linejoin="round"/>
<path d="M219.299 91.8125H267.806L274.107 97.7104L274.033 106.722" stroke="var(--trace)" stroke-width="3" stroke-miterlimit="1.5" stroke-linecap="round" stroke-linejoin="round"/>
<path d="M216.129 67.6436L285.414 67.8525L292.923 75.7778L292.714 105.478" stroke="var(--trace)" stroke-width="3" stroke-miterlimit="1.5" stroke-linecap="round" stroke-linejoin="round"/>
<path d="M216.396 58.1749C218.047 58.1749 219.386 56.8363 219.386 55.1851C219.386 53.5339 218.047 52.1953 216.396 52.1953C214.745 52.1953 213.406 53.5339 213.406 55.1851C213.406 56.8363 214.745 58.1749 216.396 58.1749Z" fill="#24374D" stroke="var(--trace)" stroke-width="3"/>
<path fill-rule="evenodd" clip-rule="evenodd" d="M216.396 52.1953C218.047 52.1953 219.387 53.5352 219.387 55.1851C219.387 56.835 218.047 58.1749 216.396 58.1749C214.746 58.1749 213.406 56.835 213.406 55.1851C213.406 53.5352 214.746 52.1953 216.396 52.1953ZM216.396 55.4809C216.559 55.4809 216.692 55.3484 216.692 55.1851C216.692 55.0218 216.559 54.8893 216.396 54.8893C216.233 54.8893 216.1 55.0218 216.1 55.1851C216.1 55.3484 216.233 55.4809 216.396 55.4809Z" fill="var(--trace)" stroke="var(--trace)" stroke-width="3"/>
<path d="M216.314 82.3253C217.965 82.3253 219.304 80.9867 219.304 79.3355C219.304 77.6843 217.965 76.3457 216.314 76.3457C214.663 76.3457 213.324 77.6843 213.324 79.3355C213.324 80.9867 214.663 82.3253 216.314 82.3253Z" fill="#24374D" stroke="var(--trace)" stroke-width="3"/>
<path fill-rule="evenodd" clip-rule="evenodd" d="M216.314 76.3457C217.964 76.3457 219.304 77.6856 219.304 79.3355C219.304 80.9854 217.964 82.3253 216.314 82.3253C214.663 82.3253 213.324 80.9854 213.324 79.3355C213.324 77.6856 214.663 76.3457 216.314 76.3457ZM216.314 79.6313C216.477 79.6313 216.61 79.4988 216.61 79.3355C216.61 79.1722 216.477 79.0397 216.314 79.0397C216.151 79.0397 216.018 79.1722 216.018 79.3355C216.018 79.4988 216.151 79.6313 216.314 79.6313Z" fill="var(--trace)" stroke="var(--trace)" stroke-width="3"/>
<path d="M216.314 94.9268C217.965 94.9268 219.304 93.5883 219.304 91.937C219.304 90.2858 217.965 88.9473 216.314 88.9473C214.663 88.9473 213.324 90.2858 213.324 91.937C213.324 93.5883 214.663 94.9268 216.314 94.9268Z" fill="#24374D" stroke="var(--trace)" stroke-width="3"/>
<path fill-rule="evenodd" clip-rule="evenodd" d="M216.314 88.9463C217.964 88.9463 219.304 90.2862 219.304 91.9368C219.304 93.5867 217.964 94.9266 216.314 94.9266C214.663 94.9266 213.324 93.5867 213.324 91.9368C213.324 90.2862 214.663 88.9463 216.314 88.9463ZM216.314 92.2327C216.477 92.2327 216.61 92.1001 216.61 91.9368C216.61 91.7736 216.477 91.641 216.314 91.641C216.151 91.641 216.018 91.7736 216.018 91.9368C216.018 92.1001 216.151 92.2327 216.314 92.2327Z" fill="var(--trace)" stroke="var(--trace)" stroke-width="3"/>
<path d="M312.009 109.822C313.661 109.822 314.999 108.484 314.999 106.833C314.999 105.181 313.661 103.843 312.009 103.843C310.358 103.843 309.02 105.181 309.02 106.833C309.02 108.484 310.358 109.822 312.009 109.822Z" fill="#24374D" stroke="var(--trace)" stroke-width="3"/>
<path fill-rule="evenodd" clip-rule="evenodd" d="M312.009 103.842C313.66 103.842 314.999 105.182 314.999 106.832C314.999 108.482 313.66 109.822 312.009 109.822C310.359 109.822 309.02 108.482 309.02 106.832C309.02 105.182 310.359 103.842 312.009 103.842ZM312.009 107.128C312.173 107.128 312.305 106.996 312.305 106.832C312.305 106.669 312.173 106.536 312.009 106.536C311.846 106.536 311.713 106.669 311.713 106.832C311.713 106.996 311.846 107.128 312.009 107.128Z" fill="var(--trace)" stroke="var(--trace)" stroke-width="3"/>
<path d="M216.314 70.6446C217.965 70.6446 219.304 69.306 219.304 67.6548C219.304 66.0036 217.965 64.665 216.314 64.665C214.663 64.665 213.324 66.0036 213.324 67.6548C213.324 69.306 214.663 70.6446 216.314 70.6446Z" fill="#24374D" stroke="var(--trace)" stroke-width="3"/>
<path fill-rule="evenodd" clip-rule="evenodd" d="M216.314 64.665C217.964 64.665 219.304 66.0049 219.304 67.6548C219.304 69.3047 217.964 70.6446 216.314 70.6446C214.663 70.6446 213.324 69.3047 213.324 67.6548C213.324 66.0049 214.663 64.665 216.314 64.665ZM216.314 67.9506C216.477 67.9506 216.61 67.8181 216.61 67.6548C216.61 67.4916 216.477 67.359 216.314 67.359C216.151 67.359 216.018 67.4916 216.018 67.6548C216.018 67.8181 216.151 67.9506 216.314 67.9506Z" fill="var(--trace)" stroke="var(--trace)" stroke-width="3"/>
<path d="M211.326 104.662H205V109.293H211.326V104.662Z" fill="var(--trace)" stroke="var(--trace)" stroke-width="3"/>
<path d="M277.079 104.662H270.754V109.293H277.079V104.662Z" fill="var(--trace)" stroke="var(--trace)" stroke-width="3"/>
<path d="M286.56 104.662H280.234V109.293H286.56V104.662Z" fill="var(--trace)" stroke="var(--trace)" stroke-width="3"/>
<path d="M296.04 104.662H289.715V109.293H296.04V104.662Z" fill="var(--trace)" stroke="var(--trace)" stroke-width="3"/>
<path d="M307.173 104.662H300.848V109.293H307.173V104.662Z" fill="var(--trace)" stroke="var(--trace)" stroke-width="3"/>
<path d="M363.336 104.405V69.7363L369.621 63.4512H424.613L430.59 69.429L430.541 104.625" stroke="var(--trace)" stroke-width="3" stroke-miterlimit="1.5" stroke-linecap="round" stroke-linejoin="round"/>
<path d="M391.283 69.6133V105.264" stroke="var(--trace)" stroke-width="3" stroke-miterlimit="1.5" stroke-linecap="round" stroke-linejoin="round"/>
<path d="M391.321 71.609C392.851 71.609 394.091 70.3687 394.091 68.8387C394.091 67.3087 392.851 66.0684 391.321 66.0684C389.791 66.0684 388.551 67.3087 388.551 68.8387C388.551 70.3687 389.791 71.609 391.321 71.609Z" fill="#435466" stroke="var(--trace)" stroke-width="3"/>
<path fill-rule="evenodd" clip-rule="evenodd" d="M391.321 66.0684C392.85 66.0684 394.091 67.3099 394.091 68.8387C394.091 70.3675 392.85 71.6082 391.321 71.6082C389.792 71.6082 388.551 70.3675 388.551 68.8387C388.551 67.3099 389.792 66.0684 391.321 66.0684ZM391.321 68.6141C391.198 68.6141 391.097 68.7146 391.097 68.8387C391.097 68.962 391.198 69.0624 391.321 69.0624C391.445 69.0624 391.546 68.962 391.546 68.8387C391.546 68.7146 391.445 68.6141 391.321 68.6141Z" fill="var(--trace)" stroke="var(--trace)" stroke-width="3"/>
<path d="M397.664 69.6133V105.264" stroke="var(--trace)" stroke-width="3" stroke-miterlimit="1.5" stroke-linecap="round" stroke-linejoin="round"/>
<path d="M397.702 71.609C399.232 71.609 400.472 70.3687 400.472 68.8387C400.472 67.3087 399.232 66.0684 397.702 66.0684C396.172 66.0684 394.932 67.3087 394.932 68.8387C394.932 70.3687 396.172 71.609 397.702 71.609Z" fill="#435466" stroke="var(--trace)" stroke-width="3"/>
<path fill-rule="evenodd" clip-rule="evenodd" d="M397.701 66.0684C399.23 66.0684 400.472 67.3099 400.472 68.8387C400.472 70.3675 399.23 71.6082 397.701 71.6082C396.172 71.6082 394.932 70.3675 394.932 68.8387C394.932 67.3099 396.172 66.0684 397.701 66.0684ZM397.701 68.6141C397.578 68.6141 397.477 68.7146 397.477 68.8387C397.477 68.962 397.578 69.0624 397.701 69.0624C397.825 69.0624 397.926 68.962 397.926 68.8387C397.926 68.7146 397.825 68.6141 397.701 68.6141Z" fill="var(--trace)" stroke="var(--trace)" stroke-width="3"/>
<path d="M403.932 69.6133V105.264" stroke="var(--trace)" stroke-width="3" stroke-miterlimit="1.5" stroke-linecap="round" stroke-linejoin="round"/>
<path d="M403.97 71.609C405.5 71.609 406.74 70.3687 406.74 68.8387C406.74 67.3087 405.5 66.0684 403.97 66.0684C402.44 66.0684 401.199 67.3087 401.199 68.8387C401.199 70.3687 402.44 71.609 403.97 71.609Z" fill="#435466" stroke="var(--trace)" stroke-width="3"/>
<path fill-rule="evenodd" clip-rule="evenodd" d="M403.97 66.0684C405.498 66.0684 406.74 67.3099 406.74 68.8387C406.74 70.3675 405.498 71.6082 403.97 71.6082C402.441 71.6082 401.199 70.3675 401.199 68.8387C401.199 67.3099 402.441 66.0684 403.97 66.0684ZM403.97 68.6141C403.845 68.6141 403.745 68.7146 403.745 68.8387C403.745 68.962 403.845 69.0624 403.97 69.0624C404.093 69.0624 404.193 68.962 404.193 68.8387C404.193 68.7146 404.093 68.6141 403.97 68.6141Z" fill="var(--trace)" stroke="var(--trace)" stroke-width="3"/>
<path d="M386.721 43.1232L386.388 53.1318L367.006 53.1058L351.98 41.587L366.24 27.1318H384.928L394.98 37.3225V50.925" stroke="var(--trace)" stroke-width="3" stroke-miterlimit="1.5" stroke-linecap="round" stroke-linejoin="round"/>
<path d="M394.98 51.1318V54.4537L392.548 57.4633H366.974L358.207 67.0767L357.98 104.132" stroke="var(--trace)" stroke-width="3" stroke-miterlimit="1.5" stroke-linecap="round" stroke-linejoin="round"/>
<path d="M407.24 43.1232L407.116 53.1318L426.954 53.1058L441.98 41.587L427.721 27.1318H409.033L398.98 37.3225V50.925" stroke="var(--trace)" stroke-width="3" stroke-miterlimit="1.5" stroke-linecap="round" stroke-linejoin="round"/>
<path d="M398.98 51.1318V54.4537L401.413 57.4633H426.987L435.754 67.0767L435.98 104.132" stroke="var(--trace)" stroke-width="3" stroke-miterlimit="1.5" stroke-linecap="round" stroke-linejoin="round"/>
<path d="M387.118 47.3463C388.648 47.3463 389.888 46.106 389.888 44.576C389.888 43.046 388.648 41.8057 387.118 41.8057C385.588 41.8057 384.348 43.046 384.348 44.576C384.348 46.106 385.588 47.3463 387.118 47.3463Z" fill="#435466" stroke="var(--trace)" stroke-width="3"/>
<path fill-rule="evenodd" clip-rule="evenodd" d="M386.98 41C388.637 41 389.98 42.3438 389.98 44.0004C389.98 45.6562 388.637 47 386.98 47C385.324 47 383.98 45.6562 383.98 44.0004C383.98 42.3438 385.324 41 386.98 41ZM386.98 43.7572C386.846 43.7572 386.738 43.866 386.738 44.0004C386.738 44.134 386.846 44.2428 386.98 44.2428C387.114 44.2428 387.223 44.134 387.223 44.0004C387.223 43.866 387.114 43.7572 386.98 43.7572Z" fill="var(--trace)" stroke="var(--trace)" stroke-width="3"/>
<path d="M406.845 47.3463C408.375 47.3463 409.615 46.106 409.615 44.576C409.615 43.046 408.375 41.8057 406.845 41.8057C405.315 41.8057 404.074 43.046 404.074 44.576C404.074 46.106 405.315 47.3463 406.845 47.3463Z" fill="#435466" stroke="var(--trace)" stroke-width="3"/>
<path fill-rule="evenodd" clip-rule="evenodd" d="M406.98 41C408.636 41 409.98 42.3438 409.98 44.0004C409.98 45.6562 408.636 47 406.98 47C405.325 47 403.98 45.6562 403.98 44.0004C403.98 42.3438 405.325 41 406.98 41ZM406.98 43.7572C406.847 43.7572 406.738 43.866 406.738 44.0004C406.738 44.134 406.847 44.2428 406.98 44.2428C407.115 44.2428 407.224 44.134 407.224 44.0004C407.224 43.866 407.115 43.7572 406.98 43.7572Z" fill="var(--trace)" stroke="var(--trace)" stroke-width="3"/>
<path d="M360.673 104.129H356.203V109H360.673V104.129Z" fill="#435466" stroke="var(--trace)" stroke-width="3"/>
<path d="M360.673 104.129H356.203V109H360.673V104.129Z" fill="var(--trace)" stroke="var(--trace)" stroke-width="3"/>
<path d="M365.487 104.129H361.018V109H365.487V104.129Z" fill="#435466" stroke="var(--trace)" stroke-width="3"/>
<path d="M365.487 104.129H361.018V109H365.487V104.129Z" fill="var(--trace)" stroke="var(--trace)" stroke-width="3"/>
<path d="M393.19 104.129H388.721V109H393.19V104.129Z" fill="#435466" stroke="var(--trace)" stroke-width="3"/>
<path d="M393.19 104.129H388.721V109H393.19V104.129Z" fill="var(--trace)" stroke="var(--trace)" stroke-width="3"/>
<path d="M399.905 104.129H395.436V109H399.905V104.129Z" fill="#435466" stroke="var(--trace)" stroke-width="3"/>
<path d="M399.905 104.129H395.436V109H399.905V104.129Z" fill="var(--trace)" stroke="var(--trace)" stroke-width="3"/>
<path d="M406.202 104.129H401.732V109H406.202V104.129Z" fill="#435466" stroke="var(--trace)" stroke-width="3"/>
<path d="M406.202 104.129H401.732V109H406.202V104.129Z" fill="var(--trace)" stroke="var(--trace)" stroke-width="3"/>
<path d="M432.794 104.129H428.324V109H432.794V104.129Z" fill="#435466" stroke="var(--trace)" stroke-width="3"/>
<path d="M432.794 104.129H428.324V109H432.794V104.129Z" fill="var(--trace)" stroke="var(--trace)" stroke-width="3"/>
<path d="M437.72 104.129H433.25V109H437.72V104.129Z" fill="#435466" stroke="var(--trace)" stroke-width="3"/>
<path d="M437.72 104.129H433.25V109H437.72V104.129Z" fill="var(--trace)" stroke="var(--trace)" stroke-width="3"/>
<path d="M497.251 106.188H491.168V111.664H497.251V106.188Z" fill="var(--trace)"/>
<path d="M490.405 106.188H485.082V111.664H490.405V106.188Z" fill="var(--trace)"/>
<path d="M484.362 106.188H479V111.664H484.362V106.188Z" fill="var(--trace)"/>
<path d="M552.001 106.188H545.918V111.664H552.001V106.188Z" fill="var(--trace)"/>
<path d="M545.538 106.188H541.355V111.664H545.538V106.188Z" fill="var(--trace)"/>
<path d="M486.5 106.926L517 43.5L543.863 106.926" stroke="var(--trace)" stroke-width="3" stroke-miterlimit="1.5" stroke-linecap="round" stroke-linejoin="round"/>
<path d="M482.043 106.826L514.054 41.1493L501.055 34.6388L502.802 27.3628L514.054 34.6388L512.307 21.6185L521.814 20.6611L520.068 34.4476L531.321 28.5114L531.127 37.5109L520.456 41.3405L548.199 107.018" stroke="var(--trace)" stroke-width="3" stroke-miterlimit="1.5" stroke-linecap="round" stroke-linejoin="round"/>
<path d="M494.166 107.25L511.77 66.7549L520.669 66.9429" stroke="var(--trace)" stroke-width="3" stroke-miterlimit="1.5" stroke-linecap="round" stroke-linejoin="round"/>
<path d="M506.354 81.2578H526.279" stroke="var(--trace)" stroke-width="3" stroke-miterlimit="1.5" stroke-linecap="round" stroke-linejoin="round"/>
<path d="M497.842 99.1514H533.824" stroke="var(--trace)" stroke-width="3" stroke-miterlimit="1.5" stroke-linecap="round" stroke-linejoin="round"/>
<path d="M521.167 69.5323C522.575 69.5323 523.715 68.4215 523.715 67.0513C523.715 65.6811 522.575 64.5703 521.167 64.5703C519.76 64.5703 518.619 65.6811 518.619 67.0513C518.619 68.4215 519.76 69.5323 521.167 69.5323Z" fill="#24374D"/>
<path fill-rule="evenodd" clip-rule="evenodd" d="M521.167 64.5703C522.573 64.5703 523.715 65.6816 523.715 67.0513C523.715 68.421 522.573 69.5323 521.167 69.5323C519.761 69.5323 518.619 68.421 518.619 67.0513C518.619 65.6816 519.761 64.5703 521.167 64.5703ZM521.167 67.1224C521.208 67.1224 521.24 67.0905 521.24 67.0513C521.24 67.0121 521.208 66.9802 521.167 66.9802C521.127 66.9802 521.094 67.0121 521.094 67.0513C521.094 67.0905 521.127 67.1224 521.167 67.1224Z" fill="var(--trace)"/>
<path d="M526.999 83.6055C528.407 83.6055 529.547 82.4947 529.547 81.1245C529.547 79.7543 528.407 78.6436 526.999 78.6436C525.592 78.6436 524.451 79.7543 524.451 81.1245C524.451 82.4947 525.592 83.6055 526.999 83.6055Z" fill="#24374D"/>
<path fill-rule="evenodd" clip-rule="evenodd" d="M526.999 78.6436C528.406 78.6436 529.547 79.7548 529.547 81.1245C529.547 82.4935 528.406 83.6055 526.999 83.6055C525.593 83.6055 524.451 82.4935 524.451 81.1245C524.451 79.7548 525.593 78.6436 526.999 78.6436ZM526.999 81.1956C527.04 81.1956 527.072 81.1638 527.072 81.1245C527.072 81.0853 527.04 81.0535 526.999 81.0535C526.959 81.0535 526.926 81.0853 526.926 81.1245C526.926 81.1638 526.959 81.1956 526.999 81.1956Z" fill="var(--trace)"/>
<path d="M534.13 101.542C535.537 101.542 536.678 100.431 536.678 99.0611C536.678 97.6908 535.537 96.5801 534.13 96.5801C532.723 96.5801 531.582 97.6908 531.582 99.0611C531.582 100.431 532.723 101.542 534.13 101.542Z" fill="#24374D"/>
<path fill-rule="evenodd" clip-rule="evenodd" d="M534.131 96.5801C535.537 96.5801 536.679 97.6921 536.679 99.0611C536.679 100.431 535.537 101.542 534.131 101.542C532.724 101.542 531.582 100.431 531.582 99.0611C531.582 97.6921 532.724 96.5801 534.131 96.5801ZM534.131 99.1321C534.171 99.1321 534.204 99.1003 534.204 99.0611C534.204 99.0218 534.171 98.99 534.131 98.99C534.091 98.99 534.057 99.0218 534.057 99.0611C534.057 99.1003 534.091 99.1321 534.131 99.1321Z" fill="var(--trace)"/>
<path d="M37.5 38L38.9588 1026.01C38.9816 1041.43 51.469 1053.93 66.8899 1053.97L1063.92 1056.42C1081.07 1056.47 1095 1042.57 1095 1025.42V562.088C1095 556.502 1098.1 551.379 1103.05 548.792L1128.5 535.5" stroke="var(--trace)" stroke-width="3"/>
<rect x="49" y="109" width="1029" height="936" rx="20" stroke="var(--trace)" stroke-width="3" stroke-linejoin="round"/>
<path d="M214 989.5H588.5V882H666V989.5H1077.5M200 999H1077.5M1077.5 1009H191.5" stroke="var(--trace)" stroke-width="3"/>
<circle cx="37.5" cy="31.5" r="9.5" fill="var(--trace)"/>
</svg>
