<svg width="1920" height="1080" viewBox="0 0 1920 1080" fill="none" xmlns="http://www.w3.org/2000/svg">
<path d="M71 107V64.0734L85.3835 47.8818H152.283L167 64.4499V105.494" stroke="#483A72" stroke-width="13" stroke-miterlimit="1.5" stroke-linecap="round" stroke-linejoin="round"/>
<path d="M88.7031 47.3268V32.3018" stroke="#483A72" stroke-width="13" stroke-miterlimit="1.5" stroke-linecap="round" stroke-linejoin="round"/>
<path d="M108.406 47.3268V32.3018" stroke="#483A72" stroke-width="13" stroke-miterlimit="1.5" stroke-linecap="round" stroke-linejoin="round"/>
<path d="M128.107 47.3268V32.3018" stroke="#483A72" stroke-width="13" stroke-miterlimit="1.5" stroke-linecap="round" stroke-linejoin="round"/>
<path d="M147.809 47.3268V32.3018" stroke="#483A72" stroke-width="13" stroke-miterlimit="1.5" stroke-linecap="round" stroke-linejoin="round"/>
<path d="M88.7759 31.0024C90.1105 31.0024 91.1924 29.8826 91.1924 28.5012C91.1924 27.1198 90.1105 26 88.7759 26C87.4413 26 86.3594 27.1198 86.3594 28.5012C86.3594 29.8826 87.4413 31.0024 88.7759 31.0024Z" fill="#BF87FE" stroke="#483A72" stroke-width="13" stroke-miterlimit="1.5" stroke-linecap="round" stroke-linejoin="round"/>
<path d="M108.256 31.0024C109.591 31.0024 110.673 29.8826 110.673 28.5012C110.673 27.1198 109.591 26 108.256 26C106.922 26 105.84 27.1198 105.84 28.5012C105.84 29.8826 106.922 31.0024 108.256 31.0024Z" fill="#BF87FE" stroke="#483A72" stroke-width="13" stroke-miterlimit="1.5" stroke-linecap="round" stroke-linejoin="round"/>
<path d="M127.889 31.0024C129.224 31.0024 130.306 29.8826 130.306 28.5012C130.306 27.1198 129.224 26 127.889 26C126.555 26 125.473 27.1198 125.473 28.5012C125.473 29.8826 126.555 31.0024 127.889 31.0024Z" fill="#BF87FE" stroke="#483A72" stroke-width="13" stroke-miterlimit="1.5" stroke-linecap="round" stroke-linejoin="round"/>
<path d="M147.823 31.0024C149.157 31.0024 150.239 29.8826 150.239 28.5012C150.239 27.1198 149.157 26 147.823 26C146.488 26 145.406 27.1198 145.406 28.5012C145.406 29.8826 146.488 31.0024 147.823 31.0024Z" fill="#BF87FE" stroke="#483A72" stroke-width="13" stroke-miterlimit="1.5" stroke-linecap="round" stroke-linejoin="round"/>
<path d="M151.596 73.9868C152.931 73.9868 154.013 72.867 154.013 71.4856C154.013 70.1042 152.931 68.9844 151.596 68.9844C150.262 68.9844 149.18 70.1042 149.18 71.4856C149.18 72.867 150.262 73.9868 151.596 73.9868Z" fill="#BF87FE" stroke="#483A72" stroke-width="13" stroke-miterlimit="1.5" stroke-linecap="round" stroke-linejoin="round"/>
<path d="M151.362 87.9067C152.696 87.9067 153.778 86.7869 153.778 85.4055C153.778 84.0241 152.696 82.9043 151.362 82.9043C150.027 82.9043 148.945 84.0241 148.945 85.4055C148.945 86.7869 150.027 87.9067 151.362 87.9067Z" fill="#BF87FE" stroke="#483A72" stroke-width="13" stroke-miterlimit="1.5" stroke-linecap="round" stroke-linejoin="round"/>
<path d="M81.8926 104.572V71.2959H148.549" stroke="#483A72" stroke-width="13" stroke-miterlimit="1.5" stroke-linecap="round" stroke-linejoin="round"/>
<path d="M96.0508 105.182V85.6445H148.255" stroke="#483A72" stroke-width="13" stroke-miterlimit="1.5" stroke-linecap="round" stroke-linejoin="round"/>
<path d="M208.281 101.729V48.0025L214.856 42.0949H277.023L274.856 30.493L279.786 24.2812L289.195 24.3666L294.213 31.0936L291.821 42.0851H299.342L311.936 54.6801V101.428" stroke="#483A72" stroke-width="13" stroke-miterlimit="1.5" stroke-linecap="round" stroke-linejoin="round"/>
<path d="M217.004 51.4941L296.301 51.7023L304.561 60.5878L304.143 101.467" stroke="#483A72" stroke-width="13" stroke-miterlimit="1.5" stroke-linecap="round" stroke-linejoin="round"/>
<path d="M219.299 75.8135H276.029L283.537 83.3216V103.244" stroke="#483A72" stroke-width="13" stroke-miterlimit="1.5" stroke-linecap="round" stroke-linejoin="round"/>
<path d="M219.299 88.0938H267.806L274.107 93.9917L274.033 103.004" stroke="#483A72" stroke-width="13" stroke-miterlimit="1.5" stroke-linecap="round" stroke-linejoin="round"/>
<path d="M216.129 63.9248L285.414 64.1338L292.923 72.0591L292.714 101.759" stroke="#483A72" stroke-width="13" stroke-miterlimit="1.5" stroke-linecap="round" stroke-linejoin="round"/>
<path d="M216.396 54.4561C218.047 54.4561 219.386 53.1176 219.386 51.4663C219.386 49.8151 218.047 48.4766 216.396 48.4766C214.745 48.4766 213.406 49.8151 213.406 51.4663C213.406 53.1176 214.745 54.4561 216.396 54.4561Z" fill="#24374D" stroke="#483A72" stroke-width="13"/>
<path fill-rule="evenodd" clip-rule="evenodd" d="M216.396 48.4766C218.047 48.4766 219.387 49.8164 219.387 51.4663C219.387 53.1163 218.047 54.4561 216.396 54.4561C214.746 54.4561 213.406 53.1163 213.406 51.4663C213.406 49.8164 214.746 48.4766 216.396 48.4766ZM216.396 51.7622C216.559 51.7622 216.692 51.6296 216.692 51.4663C216.692 51.3031 216.559 51.1705 216.396 51.1705C216.233 51.1705 216.1 51.3031 216.1 51.4663C216.1 51.6296 216.233 51.7622 216.396 51.7622Z" fill="#CCA0FF" stroke="#483A72" stroke-width="13"/>
<path d="M216.314 78.6065C217.965 78.6065 219.304 77.2679 219.304 75.6167C219.304 73.9655 217.965 72.627 216.314 72.627C214.663 72.627 213.324 73.9655 213.324 75.6167C213.324 77.2679 214.663 78.6065 216.314 78.6065Z" fill="#24374D" stroke="#483A72" stroke-width="13"/>
<path fill-rule="evenodd" clip-rule="evenodd" d="M216.314 72.627C217.964 72.627 219.304 73.9668 219.304 75.6167C219.304 77.2667 217.964 78.6065 216.314 78.6065C214.663 78.6065 213.324 77.2667 213.324 75.6167C213.324 73.9668 214.663 72.627 216.314 72.627ZM216.314 75.9126C216.477 75.9126 216.61 75.78 216.61 75.6167C216.61 75.4535 216.477 75.3209 216.314 75.3209C216.151 75.3209 216.018 75.4535 216.018 75.6167C216.018 75.78 216.151 75.9126 216.314 75.9126Z" fill="#CCA0FF" stroke="#483A72" stroke-width="13"/>
<path d="M216.314 91.2081C217.965 91.2081 219.304 89.8695 219.304 88.2183C219.304 86.5671 217.965 85.2285 216.314 85.2285C214.663 85.2285 213.324 86.5671 213.324 88.2183C213.324 89.8695 214.663 91.2081 216.314 91.2081Z" fill="#24374D" stroke="#483A72" stroke-width="13"/>
<path fill-rule="evenodd" clip-rule="evenodd" d="M216.314 85.2275C217.964 85.2275 219.304 86.5674 219.304 88.2181C219.304 89.868 217.964 91.2078 216.314 91.2078C214.663 91.2078 213.324 89.868 213.324 88.2181C213.324 86.5674 214.663 85.2275 216.314 85.2275ZM216.314 88.5139C216.477 88.5139 216.61 88.3813 216.61 88.2181C216.61 88.0548 216.477 87.9222 216.314 87.9222C216.151 87.9222 216.018 88.0548 216.018 88.2181C216.018 88.3813 216.151 88.5139 216.314 88.5139Z" fill="#CCA0FF" stroke="#483A72" stroke-width="13"/>
<path d="M312.009 106.104C313.661 106.104 314.999 104.765 314.999 103.114C314.999 101.463 313.661 100.124 312.009 100.124C310.358 100.124 309.02 101.463 309.02 103.114C309.02 104.765 310.358 106.104 312.009 106.104Z" fill="#24374D" stroke="#483A72" stroke-width="13"/>
<path fill-rule="evenodd" clip-rule="evenodd" d="M312.009 100.123C313.66 100.123 314.999 101.463 314.999 103.114C314.999 104.764 313.66 106.103 312.009 106.103C310.359 106.103 309.02 104.764 309.02 103.114C309.02 101.463 310.359 100.123 312.009 100.123ZM312.009 103.409C312.173 103.409 312.305 103.277 312.305 103.114C312.305 102.95 312.173 102.817 312.009 102.817C311.846 102.817 311.713 102.95 311.713 103.114C311.713 103.277 311.846 103.409 312.009 103.409Z" fill="#CCA0FF" stroke="#483A72" stroke-width="13"/>
<path d="M216.314 66.9258C217.965 66.9258 219.304 65.5873 219.304 63.9361C219.304 62.2849 217.965 60.9463 216.314 60.9463C214.663 60.9463 213.324 62.2849 213.324 63.9361C213.324 65.5873 214.663 66.9258 216.314 66.9258Z" fill="#24374D" stroke="#483A72" stroke-width="13"/>
<path fill-rule="evenodd" clip-rule="evenodd" d="M216.314 60.9463C217.964 60.9463 219.304 62.2861 219.304 63.9361C219.304 65.586 217.964 66.9258 216.314 66.9258C214.663 66.9258 213.324 65.586 213.324 63.9361C213.324 62.2861 214.663 60.9463 216.314 60.9463ZM216.314 64.2319C216.477 64.2319 216.61 64.0993 216.61 63.9361C216.61 63.7728 216.477 63.6402 216.314 63.6402C216.151 63.6402 216.018 63.7728 216.018 63.9361C216.018 64.0993 216.151 64.2319 216.314 64.2319Z" fill="#CCA0FF" stroke="#483A72" stroke-width="13"/>
<path d="M211.326 100.943H205V105.574H211.326V100.943Z" fill="#CCA0FF" stroke="#483A72" stroke-width="13"/>
<path d="M277.079 100.943H270.754V105.574H277.079V100.943Z" fill="#CCA0FF" stroke="#483A72" stroke-width="13"/>
<path d="M286.56 100.943H280.234V105.574H286.56V100.943Z" fill="#CCA0FF" stroke="#483A72" stroke-width="13"/>
<path d="M296.04 100.943H289.715V105.574H296.04V100.943Z" fill="#CCA0FF" stroke="#483A72" stroke-width="13"/>
<path d="M307.173 100.943H300.848V105.574H307.173V100.943Z" fill="#CCA0FF" stroke="#483A72" stroke-width="13"/>
<path d="M363.336 104.405V69.7363L369.621 63.4512H424.613L430.59 69.429L430.541 104.625" stroke="#483A72" stroke-width="13" stroke-miterlimit="1.5" stroke-linecap="round" stroke-linejoin="round"/>
<path d="M391.283 69.6133V105.264" stroke="#483A72" stroke-width="13" stroke-miterlimit="1.5" stroke-linecap="round" stroke-linejoin="round"/>
<path d="M391.321 71.609C392.851 71.609 394.091 70.3687 394.091 68.8387C394.091 67.3087 392.851 66.0684 391.321 66.0684C389.791 66.0684 388.551 67.3087 388.551 68.8387C388.551 70.3687 389.791 71.609 391.321 71.609Z" fill="#435466" stroke="#483A72" stroke-width="13"/>
<path fill-rule="evenodd" clip-rule="evenodd" d="M391.321 66.0684C392.85 66.0684 394.091 67.3099 394.091 68.8387C394.091 70.3675 392.85 71.6082 391.321 71.6082C389.792 71.6082 388.551 70.3675 388.551 68.8387C388.551 67.3099 389.792 66.0684 391.321 66.0684ZM391.321 68.6141C391.198 68.6141 391.097 68.7146 391.097 68.8387C391.097 68.962 391.198 69.0624 391.321 69.0624C391.445 69.0624 391.546 68.962 391.546 68.8387C391.546 68.7146 391.445 68.6141 391.321 68.6141Z" fill="#CCA0FF" stroke="#483A72" stroke-width="13"/>
<path d="M397.664 69.6133V105.264" stroke="#483A72" stroke-width="13" stroke-miterlimit="1.5" stroke-linecap="round" stroke-linejoin="round"/>
<path d="M397.702 71.609C399.232 71.609 400.472 70.3687 400.472 68.8387C400.472 67.3087 399.232 66.0684 397.702 66.0684C396.172 66.0684 394.932 67.3087 394.932 68.8387C394.932 70.3687 396.172 71.609 397.702 71.609Z" fill="#435466" stroke="#483A72" stroke-width="13"/>
<path fill-rule="evenodd" clip-rule="evenodd" d="M397.701 66.0684C399.23 66.0684 400.472 67.3099 400.472 68.8387C400.472 70.3675 399.23 71.6082 397.701 71.6082C396.172 71.6082 394.932 70.3675 394.932 68.8387C394.932 67.3099 396.172 66.0684 397.701 66.0684ZM397.701 68.6141C397.578 68.6141 397.477 68.7146 397.477 68.8387C397.477 68.962 397.578 69.0624 397.701 69.0624C397.825 69.0624 397.926 68.962 397.926 68.8387C397.926 68.7146 397.825 68.6141 397.701 68.6141Z" fill="#CCA0FF" stroke="#483A72" stroke-width="13"/>
<path d="M403.932 69.6133V105.264" stroke="#483A72" stroke-width="13" stroke-miterlimit="1.5" stroke-linecap="round" stroke-linejoin="round"/>
<path d="M403.97 71.609C405.5 71.609 406.74 70.3687 406.74 68.8387C406.74 67.3087 405.5 66.0684 403.97 66.0684C402.44 66.0684 401.199 67.3087 401.199 68.8387C401.199 70.3687 402.44 71.609 403.97 71.609Z" fill="#435466" stroke="#483A72" stroke-width="13"/>
<path fill-rule="evenodd" clip-rule="evenodd" d="M403.97 66.0684C405.498 66.0684 406.74 67.3099 406.74 68.8387C406.74 70.3675 405.498 71.6082 403.97 71.6082C402.441 71.6082 401.199 70.3675 401.199 68.8387C401.199 67.3099 402.441 66.0684 403.97 66.0684ZM403.97 68.6141C403.845 68.6141 403.745 68.7146 403.745 68.8387C403.745 68.962 403.845 69.0624 403.97 69.0624C404.093 69.0624 404.193 68.962 404.193 68.8387C404.193 68.7146 404.093 68.6141 403.97 68.6141Z" fill="#CCA0FF" stroke="#483A72" stroke-width="13"/>
<path d="M387.015 46.4453L386.689 56.1123L367.712 56.0872L353 44.9616L366.962 31H385.259L395.102 40.8427V53.9808" stroke="#483A72" stroke-width="13" stroke-miterlimit="1.5" stroke-linecap="round" stroke-linejoin="round"/>
<path d="M395.103 53.9805V57.1237L392.703 59.9716H367.471L358.821 69.0684L358.598 104.132" stroke="#483A72" stroke-width="13" stroke-miterlimit="1.5" stroke-linecap="round" stroke-linejoin="round"/>
<path d="M406.945 46.4453L406.823 56.1123L426.247 56.0872L440.96 44.9616L426.998 31H408.7L398.857 40.8427V53.9808" stroke="#483A72" stroke-width="13" stroke-miterlimit="1.5" stroke-linecap="round" stroke-linejoin="round"/>
<path d="M398.857 53.9805V57.1237L401.258 59.9716H426.49L435.14 69.0684L435.363 104.132" stroke="#483A72" stroke-width="13" stroke-miterlimit="1.5" stroke-linecap="round" stroke-linejoin="round"/>
<path d="M387.118 47.3463C388.648 47.3463 389.888 46.106 389.888 44.576C389.888 43.046 388.648 41.8057 387.118 41.8057C385.588 41.8057 384.348 43.046 384.348 44.576C384.348 46.106 385.588 47.3463 387.118 47.3463Z" fill="#435466" stroke="#483A72" stroke-width="13"/>
<path fill-rule="evenodd" clip-rule="evenodd" d="M387.117 41.8057C388.647 41.8057 389.888 43.0464 389.888 44.576C389.888 46.1048 388.647 47.3455 387.117 47.3455C385.588 47.3455 384.348 46.1048 384.348 44.576C384.348 43.0464 385.588 41.8057 387.117 41.8057ZM387.117 44.3515C386.994 44.3515 386.893 44.4519 386.893 44.576C386.893 44.6993 386.994 44.7998 387.117 44.7998C387.241 44.7998 387.342 44.6993 387.342 44.576C387.342 44.4519 387.241 44.3515 387.117 44.3515Z" fill="#CCA0FF" stroke="#483A72" stroke-width="13"/>
<path d="M406.845 47.3463C408.375 47.3463 409.615 46.106 409.615 44.576C409.615 43.046 408.375 41.8057 406.845 41.8057C405.315 41.8057 404.074 43.046 404.074 44.576C404.074 46.106 405.315 47.3463 406.845 47.3463Z" fill="#435466" stroke="#483A72" stroke-width="13"/>
<path fill-rule="evenodd" clip-rule="evenodd" d="M406.845 41.8057C408.373 41.8057 409.615 43.0464 409.615 44.576C409.615 46.1048 408.373 47.3455 406.845 47.3455C405.316 47.3455 404.074 46.1048 404.074 44.576C404.074 43.0464 405.316 41.8057 406.845 41.8057ZM406.845 44.3515C406.721 44.3515 406.621 44.4519 406.621 44.576C406.621 44.6993 406.721 44.7998 406.845 44.7998C406.969 44.7998 407.069 44.6993 407.069 44.576C407.069 44.4519 406.969 44.3515 406.845 44.3515Z" fill="#CCA0FF" stroke="#483A72" stroke-width="13"/>
<path d="M360.673 104.129H356.203V109H360.673V104.129Z" fill="#435466" stroke="#483A72" stroke-width="13"/>
<path d="M360.673 104.129H356.203V109H360.673V104.129Z" fill="#CCA0FF" stroke="#483A72" stroke-width="13"/>
<path d="M365.487 104.129H361.018V109H365.487V104.129Z" fill="#435466" stroke="#483A72" stroke-width="13"/>
<path d="M365.487 104.129H361.018V109H365.487V104.129Z" fill="#CCA0FF" stroke="#483A72" stroke-width="13"/>
<path d="M393.19 104.129H388.721V109H393.19V104.129Z" fill="#435466" stroke="#483A72" stroke-width="13"/>
<path d="M393.19 104.129H388.721V109H393.19V104.129Z" fill="#CCA0FF" stroke="#483A72" stroke-width="13"/>
<path d="M399.905 104.129H395.436V109H399.905V104.129Z" fill="#435466" stroke="#483A72" stroke-width="13"/>
<path d="M399.905 104.129H395.436V109H399.905V104.129Z" fill="#CCA0FF" stroke="#483A72" stroke-width="13"/>
<path d="M406.202 104.129H401.732V109H406.202V104.129Z" fill="#435466" stroke="#483A72" stroke-width="13"/>
<path d="M406.202 104.129H401.732V109H406.202V104.129Z" fill="#CCA0FF" stroke="#483A72" stroke-width="13"/>
<path d="M432.794 104.129H428.324V109H432.794V104.129Z" fill="#435466" stroke="#483A72" stroke-width="13"/>
<path d="M432.794 104.129H428.324V109H432.794V104.129Z" fill="#CCA0FF" stroke="#483A72" stroke-width="13"/>
<path d="M437.72 104.129H433.25V109H437.72V104.129Z" fill="#435466" stroke="#483A72" stroke-width="13"/>
<path d="M437.72 104.129H433.25V109H437.72V104.129Z" fill="#CCA0FF" stroke="#483A72" stroke-width="13"/>
<mask id="path-66-inside-1_6156_483" fill="white">
<path d="M497.251 106.188H491.168V111.664H497.251V106.188Z"/>
</mask>
<path d="M497.251 106.188H491.168V111.664H497.251V106.188Z" fill="#CCA0FF"/>
<path d="M491.168 106.188V95.1875H480.168V106.188H491.168ZM497.251 106.188H508.251V95.1875H497.251V106.188ZM497.251 111.664V122.664H508.251V111.664H497.251ZM491.168 111.664H480.168V122.664H491.168V111.664ZM491.168 106.188V117.188H497.251V106.188V95.1875H491.168V106.188ZM497.251 106.188H486.251V111.664H497.251H508.251V106.188H497.251ZM497.251 111.664V100.664H491.168V111.664V122.664H497.251V111.664ZM491.168 111.664H502.168V106.188H491.168H480.168V111.664H491.168Z" fill="#483A72" mask="url(#path-66-inside-1_6156_483)"/>
<mask id="path-68-inside-2_6156_483" fill="white">
<path d="M490.405 106.188H485.082V111.664H490.405V106.188Z"/>
</mask>
<path d="M490.405 106.188H485.082V111.664H490.405V106.188Z" fill="#CCA0FF"/>
<path d="M485.082 106.188V95.1875H474.082V106.188H485.082ZM490.405 106.188H501.405V95.1875H490.405V106.188ZM490.405 111.664V122.664H501.405V111.664H490.405ZM485.082 111.664H474.082V122.664H485.082V111.664ZM485.082 106.188V117.188H490.405V106.188V95.1875H485.082V106.188ZM490.405 106.188H479.405V111.664H490.405H501.405V106.188H490.405ZM490.405 111.664V100.664H485.082V111.664V122.664H490.405V111.664ZM485.082 111.664H496.082V106.188H485.082H474.082V111.664H485.082Z" fill="#483A72" mask="url(#path-68-inside-2_6156_483)"/>
<mask id="path-70-inside-3_6156_483" fill="white">
<path d="M484.362 106.188H479V111.664H484.362V106.188Z"/>
</mask>
<path d="M484.362 106.188H479V111.664H484.362V106.188Z" fill="#CCA0FF"/>
<path d="M479 106.188V95.1875H468V106.188H479ZM484.362 106.188H495.362V95.1875H484.362V106.188ZM484.362 111.664V122.664H495.362V111.664H484.362ZM479 111.664H468V122.664H479V111.664ZM479 106.188V117.188H484.362V106.188V95.1875H479V106.188ZM484.362 106.188H473.362V111.664H484.362H495.362V106.188H484.362ZM484.362 111.664V100.664H479V111.664V122.664H484.362V111.664ZM479 111.664H490V106.188H479H468V111.664H479Z" fill="#483A72" mask="url(#path-70-inside-3_6156_483)"/>
<mask id="path-72-inside-4_6156_483" fill="white">
<path d="M552.001 106.188H545.918V111.664H552.001V106.188Z"/>
</mask>
<path d="M552.001 106.188H545.918V111.664H552.001V106.188Z" fill="#CCA0FF"/>
<path d="M545.918 106.188V95.1875H534.918V106.188H545.918ZM552.001 106.188H563.001V95.1875H552.001V106.188ZM552.001 111.664V122.664H563.001V111.664H552.001ZM545.918 111.664H534.918V122.664H545.918V111.664ZM545.918 106.188V117.188H552.001V106.188V95.1875H545.918V106.188ZM552.001 106.188H541.001V111.664H552.001H563.001V106.188H552.001ZM552.001 111.664V100.664H545.918V111.664V122.664H552.001V111.664ZM545.918 111.664H556.918V106.188H545.918H534.918V111.664H545.918Z" fill="#483A72" mask="url(#path-72-inside-4_6156_483)"/>
<mask id="path-74-inside-5_6156_483" fill="white">
<path d="M545.538 106.188H541.355V111.664H545.538V106.188Z"/>
</mask>
<path d="M545.538 106.188H541.355V111.664H545.538V106.188Z" fill="#CCA0FF"/>
<path d="M541.355 106.188V95.1875H530.355V106.188H541.355ZM545.538 106.188H556.538V95.1875H545.538V106.188ZM545.538 111.664V122.664H556.538V111.664H545.538ZM541.355 111.664H530.355V122.664H541.355V111.664ZM541.355 106.188V117.188H545.538V106.188V95.1875H541.355V106.188ZM545.538 106.188H534.538V111.664H545.538H556.538V106.188H545.538ZM545.538 111.664V100.664H541.355V111.664V122.664H545.538V111.664ZM541.355 111.664H552.355V106.188H541.355H530.355V111.664H541.355Z" fill="#483A72" mask="url(#path-74-inside-5_6156_483)"/>
<path d="M487.375 107.303L517.554 43.8281L543.863 106.926" stroke="#483A72" stroke-width="11" stroke-miterlimit="1.5" stroke-linecap="round" stroke-linejoin="round"/>
<path d="M482.043 106.826L514.054 41.1493L501.055 34.6388L502.802 27.3628L514.054 34.6388L512.307 21.6185L521.814 20.6611L520.068 34.4476L531.321 28.5114L531.127 37.5109L520.456 41.3405L548.199 107.018" stroke="#483A72" stroke-width="11" stroke-miterlimit="1.5" stroke-linecap="round" stroke-linejoin="round"/>
<path d="M494.166 107.25L511.77 66.7549L520.669 66.9429" stroke="#483A72" stroke-width="11" stroke-miterlimit="1.5" stroke-linecap="round" stroke-linejoin="round"/>
<path d="M506.354 81.2578H526.279" stroke="#483A72" stroke-width="11" stroke-miterlimit="1.5" stroke-linecap="round" stroke-linejoin="round"/>
<path d="M497.842 99.1514H533.824" stroke="#483A72" stroke-width="11" stroke-miterlimit="1.5" stroke-linecap="round" stroke-linejoin="round"/>
<path d="M521.167 69.5322C522.486 69.5322 523.572 68.5559 523.702 67.3047L523.716 67.0518C523.716 65.6816 522.574 64.5703 521.167 64.5703M521.167 69.5322V64.5703M521.167 69.5322C519.848 69.5321 518.762 68.5558 518.632 67.3047L518.619 67.0518C518.619 65.6816 519.76 64.5705 521.167 64.5703M521.167 69.5322V64.5703" fill="#24374D" stroke="#483A72" stroke-width="11"/>
<path d="M521.167 69.5322C522.485 69.5322 523.572 68.5554 523.702 67.3047L523.716 67.0518C523.716 65.6821 522.573 64.5703 521.167 64.5703M521.167 69.5322V67.1221M521.167 69.5322V67.1221M521.167 69.5322C519.848 69.5321 518.762 68.5554 518.632 67.3047L518.619 67.0518C518.619 65.6822 519.76 64.5705 521.167 64.5703M521.167 67.1221C521.197 67.1221 521.223 67.1045 521.234 67.0791L521.24 67.0518C521.24 67.0221 521.222 66.996 521.195 66.9854L521.167 66.9805M521.167 67.1221C521.137 67.122 521.111 67.1045 521.1 67.0791L521.095 67.0518C521.095 67.0126 521.127 66.9806 521.167 66.9805M521.167 66.9805V64.5703M521.167 66.9805V64.5703" fill="#CCA0FF" stroke="#483A72" stroke-width="11"/>
<path d="M526.999 83.6055C528.318 83.6055 529.404 82.6291 529.534 81.3779L529.548 81.125C529.548 79.7548 528.406 78.6436 526.999 78.6436M526.999 83.6055V78.6436M526.999 83.6055C525.68 83.6053 524.594 82.629 524.464 81.3779L524.451 81.125C524.451 79.7549 525.592 78.6437 526.999 78.6436M526.999 83.6055V78.6436" fill="#24374D" stroke="#483A72" stroke-width="11"/>
<path d="M526.999 83.6055C528.318 83.6055 529.404 82.6281 529.534 81.3779L529.548 81.125C529.548 79.7553 528.406 78.6436 526.999 78.6436M526.999 83.6055V81.1953M526.999 83.6055V81.1953M526.999 83.6055C525.681 83.6053 524.594 82.628 524.464 81.3779L524.451 81.125C524.451 79.7554 525.593 78.6437 526.999 78.6436M526.999 81.1953C527.029 81.1953 527.055 81.1777 527.066 81.1523L527.072 81.125C527.072 81.0954 527.054 81.0693 527.027 81.0586L526.999 81.0537M526.999 81.1953C526.969 81.1952 526.943 81.1778 526.932 81.1523L526.927 81.125C526.927 81.0859 526.959 81.0539 526.999 81.0537M526.999 81.0537V78.6436M526.999 81.0537V78.6436" fill="#CCA0FF" stroke="#483A72" stroke-width="11"/>
<path d="M534.13 101.542C535.449 101.542 536.535 100.566 536.665 99.3145L536.679 99.0615C536.679 97.6913 535.537 96.5801 534.13 96.5801M534.13 101.542V96.5801M534.13 101.542C532.811 101.542 531.725 100.566 531.595 99.3145L531.582 99.0615C531.582 97.6914 532.723 96.5802 534.13 96.5801M534.13 101.542V96.5801" fill="#24374D" stroke="#483A72" stroke-width="11"/>
<path d="M534.131 101.542C535.449 101.542 536.535 100.565 536.666 99.3145L536.679 99.0615C536.679 97.6926 535.537 96.5801 534.131 96.5801M534.131 101.542V99.1318M534.131 101.542V99.1318M534.131 101.542C532.812 101.542 531.725 100.565 531.595 99.3145L531.582 99.0615C531.582 97.6926 532.724 96.5801 534.131 96.5801M534.131 99.1318C534.161 99.1318 534.187 99.1143 534.198 99.0889L534.204 99.0615C534.204 99.032 534.186 99.0058 534.159 98.9951L534.131 98.9902M534.131 99.1318C534.101 99.1318 534.075 99.1142 534.063 99.0889L534.058 99.0615C534.058 99.0223 534.091 98.9903 534.131 98.9902M534.131 98.9902V96.5801M534.131 98.9902V96.5801" fill="#CCA0FF" stroke="#483A72" stroke-width="11"/>
<path d="M37.5 38V1034.5L59.5 1056.5H1074.5L1095 1036V553L1128.5 535.5" stroke="#483A72" stroke-width="13"/>
<rect x="49" y="109" width="1029" height="936" rx="20" stroke="#483A72" stroke-width="13" stroke-linejoin="round"/>
<path stroke-linecap="round" d="M214 989.5H588.5V914.5H666V989.5H1074.5M200 1003H1071.5M1071.5 1013H191.5M1865 728L1882.5 740V794.5L1868 823H1150.5M1197.5 831.5H1872.5L1891.5 794.5V730L1865 713M1835 328L1878 284.5V114L1850 86M1835 311.5L1865.5 281V156M1835 296L1846.5 284.5L1841 271H1282M1159 296L1138 275V213M1159 311.5L1129 281.5V197.5M1159 327.5L1115.5 284V185.5M1159 343.5L1102 286.5V78.5L1118.5 56.5H1483.5M1159 360L1090.5 291.5V78.5L1111.5 49H1532" stroke="#483A72" stroke-width="13"/>
<circle cx="37.5" cy="31.5" r="12" stroke="#483A72" stroke-width="5"/>
<path d="M71 107V64.0734L85.3835 47.8818H152.283L167 64.4499V105.494" stroke="#CCA0FF" stroke-width="4.7" stroke-miterlimit="1.5" stroke-linecap="round" stroke-linejoin="round"/>
<path d="M88.7031 47.3268V32.3018" stroke="#CCA0FF" stroke-width="4.7" stroke-miterlimit="1.5" stroke-linecap="round" stroke-linejoin="round"/>
<path d="M108.406 47.3268V32.3018" stroke="#CCA0FF" stroke-width="4.7" stroke-miterlimit="1.5" stroke-linecap="round" stroke-linejoin="round"/>
<path d="M128.107 47.3268V32.3018" stroke="#CCA0FF" stroke-width="4.7" stroke-miterlimit="1.5" stroke-linecap="round" stroke-linejoin="round"/>
<path d="M147.809 47.3268V32.3018" stroke="#CCA0FF" stroke-width="4.7" stroke-miterlimit="1.5" stroke-linecap="round" stroke-linejoin="round"/>
<path d="M88.7759 31.0024C90.1105 31.0024 91.1924 29.8826 91.1924 28.5012C91.1924 27.1198 90.1105 26 88.7759 26C87.4413 26 86.3594 27.1198 86.3594 28.5012C86.3594 29.8826 87.4413 31.0024 88.7759 31.0024Z" fill="#BF87FE" stroke="#CCA0FF" stroke-width="4.7" stroke-miterlimit="1.5" stroke-linecap="round" stroke-linejoin="round"/>
<path d="M108.256 31.0024C109.591 31.0024 110.673 29.8826 110.673 28.5012C110.673 27.1198 109.591 26 108.256 26C106.922 26 105.84 27.1198 105.84 28.5012C105.84 29.8826 106.922 31.0024 108.256 31.0024Z" fill="#BF87FE" stroke="#CCA0FF" stroke-width="4.7" stroke-miterlimit="1.5" stroke-linecap="round" stroke-linejoin="round"/>
<path d="M127.889 31.0024C129.224 31.0024 130.306 29.8826 130.306 28.5012C130.306 27.1198 129.224 26 127.889 26C126.555 26 125.473 27.1198 125.473 28.5012C125.473 29.8826 126.555 31.0024 127.889 31.0024Z" fill="#BF87FE" stroke="#CCA0FF" stroke-width="4.7" stroke-miterlimit="1.5" stroke-linecap="round" stroke-linejoin="round"/>
<path d="M147.823 31.0024C149.157 31.0024 150.239 29.8826 150.239 28.5012C150.239 27.1198 149.157 26 147.823 26C146.488 26 145.406 27.1198 145.406 28.5012C145.406 29.8826 146.488 31.0024 147.823 31.0024Z" fill="#BF87FE" stroke="#CCA0FF" stroke-width="4.7" stroke-miterlimit="1.5" stroke-linecap="round" stroke-linejoin="round"/>
<path d="M151.596 73.9868C152.931 73.9868 154.013 72.867 154.013 71.4856C154.013 70.1042 152.931 68.9844 151.596 68.9844C150.262 68.9844 149.18 70.1042 149.18 71.4856C149.18 72.867 150.262 73.9868 151.596 73.9868Z" fill="#BF87FE" stroke="#CCA0FF" stroke-width="4.7" stroke-miterlimit="1.5" stroke-linecap="round" stroke-linejoin="round"/>
<path d="M151.362 87.9067C152.696 87.9067 153.778 86.7869 153.778 85.4055C153.778 84.0241 152.696 82.9043 151.362 82.9043C150.027 82.9043 148.945 84.0241 148.945 85.4055C148.945 86.7869 150.027 87.9067 151.362 87.9067Z" fill="#BF87FE" stroke="#CCA0FF" stroke-width="4.7" stroke-miterlimit="1.5" stroke-linecap="round" stroke-linejoin="round"/>
<path d="M81.8926 104.572V71.2959H148.549" stroke="#CCA0FF" stroke-width="4.7" stroke-miterlimit="1.5" stroke-linecap="round" stroke-linejoin="round"/>
<path d="M96.0508 105.182V85.6445H148.255" stroke="#CCA0FF" stroke-width="4.7" stroke-miterlimit="1.5" stroke-linecap="round" stroke-linejoin="round"/>
<path d="M208.281 101.729V48.0025L214.856 42.0949H277.023L274.856 30.493L279.786 24.2812L289.195 24.3666L294.213 31.0936L291.821 42.0851H299.342L311.936 54.6801V101.428" stroke="#CCA0FF" stroke-width="4.39" stroke-miterlimit="1.5" stroke-linecap="round" stroke-linejoin="round"/>
<path d="M217.004 51.4941L296.301 51.7023L304.561 60.5878L304.143 101.467" stroke="#CCA0FF" stroke-width="4.39" stroke-miterlimit="1.5" stroke-linecap="round" stroke-linejoin="round"/>
<path d="M219.299 75.8135H276.029L283.537 83.3216V103.244" stroke="#CCA0FF" stroke-width="4.39" stroke-miterlimit="1.5" stroke-linecap="round" stroke-linejoin="round"/>
<path d="M219.299 88.0938H267.806L274.107 93.9917L274.033 103.004" stroke="#CCA0FF" stroke-width="4.39" stroke-miterlimit="1.5" stroke-linecap="round" stroke-linejoin="round"/>
<path d="M216.129 63.9248L285.414 64.1338L292.923 72.0591L292.714 101.759" stroke="#CCA0FF" stroke-width="4.39" stroke-miterlimit="1.5" stroke-linecap="round" stroke-linejoin="round"/>
<path d="M216.396 54.4561C218.047 54.4561 219.386 53.1176 219.386 51.4663C219.386 49.8151 218.047 48.4766 216.396 48.4766C214.745 48.4766 213.406 49.8151 213.406 51.4663C213.406 53.1176 214.745 54.4561 216.396 54.4561Z" fill="#24374D" stroke="#CCA0FF"/>
<path fill-rule="evenodd" clip-rule="evenodd" d="M216.396 48.4766C218.047 48.4766 219.387 49.8164 219.387 51.4663C219.387 53.1163 218.047 54.4561 216.396 54.4561C214.746 54.4561 213.406 53.1163 213.406 51.4663C213.406 49.8164 214.746 48.4766 216.396 48.4766ZM216.396 51.7622C216.559 51.7622 216.692 51.6296 216.692 51.4663C216.692 51.3031 216.559 51.1705 216.396 51.1705C216.233 51.1705 216.1 51.3031 216.1 51.4663C216.1 51.6296 216.233 51.7622 216.396 51.7622Z" fill="#CCA0FF" stroke="#CCA0FF"/>
<path d="M216.314 78.6065C217.965 78.6065 219.304 77.2679 219.304 75.6167C219.304 73.9655 217.965 72.627 216.314 72.627C214.663 72.627 213.324 73.9655 213.324 75.6167C213.324 77.2679 214.663 78.6065 216.314 78.6065Z" fill="#24374D" stroke="#CCA0FF"/>
<path fill-rule="evenodd" clip-rule="evenodd" d="M216.314 72.627C217.964 72.627 219.304 73.9668 219.304 75.6167C219.304 77.2667 217.964 78.6065 216.314 78.6065C214.663 78.6065 213.324 77.2667 213.324 75.6167C213.324 73.9668 214.663 72.627 216.314 72.627ZM216.314 75.9126C216.477 75.9126 216.61 75.78 216.61 75.6167C216.61 75.4535 216.477 75.3209 216.314 75.3209C216.151 75.3209 216.018 75.4535 216.018 75.6167C216.018 75.78 216.151 75.9126 216.314 75.9126Z" fill="#CCA0FF" stroke="#CCA0FF"/>
<path d="M216.314 91.2081C217.965 91.2081 219.304 89.8695 219.304 88.2183C219.304 86.5671 217.965 85.2285 216.314 85.2285C214.663 85.2285 213.324 86.5671 213.324 88.2183C213.324 89.8695 214.663 91.2081 216.314 91.2081Z" fill="#24374D" stroke="#CCA0FF"/>
<path fill-rule="evenodd" clip-rule="evenodd" d="M216.314 85.2275C217.964 85.2275 219.304 86.5674 219.304 88.2181C219.304 89.868 217.964 91.2078 216.314 91.2078C214.663 91.2078 213.324 89.868 213.324 88.2181C213.324 86.5674 214.663 85.2275 216.314 85.2275ZM216.314 88.5139C216.477 88.5139 216.61 88.3813 216.61 88.2181C216.61 88.0548 216.477 87.9222 216.314 87.9222C216.151 87.9222 216.018 88.0548 216.018 88.2181C216.018 88.3813 216.151 88.5139 216.314 88.5139Z" fill="#CCA0FF" stroke="#CCA0FF"/>
<path d="M312.009 106.104C313.661 106.104 314.999 104.765 314.999 103.114C314.999 101.463 313.661 100.124 312.009 100.124C310.358 100.124 309.02 101.463 309.02 103.114C309.02 104.765 310.358 106.104 312.009 106.104Z" fill="#24374D" stroke="#CCA0FF"/>
<path fill-rule="evenodd" clip-rule="evenodd" d="M312.009 100.123C313.66 100.123 314.999 101.463 314.999 103.114C314.999 104.764 313.66 106.103 312.009 106.103C310.359 106.103 309.02 104.764 309.02 103.114C309.02 101.463 310.359 100.123 312.009 100.123ZM312.009 103.409C312.173 103.409 312.305 103.277 312.305 103.114C312.305 102.95 312.173 102.817 312.009 102.817C311.846 102.817 311.713 102.95 311.713 103.114C311.713 103.277 311.846 103.409 312.009 103.409Z" fill="#CCA0FF" stroke="#CCA0FF"/>
<path d="M216.314 66.9258C217.965 66.9258 219.304 65.5873 219.304 63.9361C219.304 62.2849 217.965 60.9463 216.314 60.9463C214.663 60.9463 213.324 62.2849 213.324 63.9361C213.324 65.5873 214.663 66.9258 216.314 66.9258Z" fill="#24374D" stroke="#CCA0FF"/>
<path fill-rule="evenodd" clip-rule="evenodd" d="M216.314 60.9463C217.964 60.9463 219.304 62.2861 219.304 63.9361C219.304 65.586 217.964 66.9258 216.314 66.9258C214.663 66.9258 213.324 65.586 213.324 63.9361C213.324 62.2861 214.663 60.9463 216.314 60.9463ZM216.314 64.2319C216.477 64.2319 216.61 64.0993 216.61 63.9361C216.61 63.7728 216.477 63.6402 216.314 63.6402C216.151 63.6402 216.018 63.7728 216.018 63.9361C216.018 64.0993 216.151 64.2319 216.314 64.2319Z" fill="#CCA0FF" stroke="#CCA0FF"/>
<path d="M211.326 100.943H205V105.574H211.326V100.943Z" fill="#CCA0FF" stroke="#CCA0FF"/>
<path d="M277.079 100.943H270.754V105.574H277.079V100.943Z" fill="#CCA0FF" stroke="#CCA0FF"/>
<path d="M286.56 100.943H280.234V105.574H286.56V100.943Z" fill="#CCA0FF" stroke="#CCA0FF"/>
<path d="M296.04 100.943H289.715V105.574H296.04V100.943Z" fill="#CCA0FF" stroke="#CCA0FF"/>
<path d="M307.173 100.943H300.848V105.574H307.173V100.943Z" fill="#CCA0FF" stroke="#CCA0FF"/>
<path d="M363.336 104.405V69.7363L369.621 63.4512H424.613L430.59 69.429L430.541 104.625" stroke="#CCA0FF" stroke-width="3.45" stroke-miterlimit="1.5" stroke-linecap="round" stroke-linejoin="round"/>
<path d="M391.283 69.6133V105.264" stroke="#CCA0FF" stroke-width="3.45" stroke-miterlimit="1.5" stroke-linecap="round" stroke-linejoin="round"/>
<path d="M391.321 71.609C392.851 71.609 394.091 70.3687 394.091 68.8387C394.091 67.3087 392.851 66.0684 391.321 66.0684C389.791 66.0684 388.551 67.3087 388.551 68.8387C388.551 70.3687 389.791 71.609 391.321 71.609Z" fill="#435466" stroke="#CCA0FF"/>
<path fill-rule="evenodd" clip-rule="evenodd" d="M391.321 66.0684C392.85 66.0684 394.091 67.3099 394.091 68.8387C394.091 70.3675 392.85 71.6082 391.321 71.6082C389.792 71.6082 388.551 70.3675 388.551 68.8387C388.551 67.3099 389.792 66.0684 391.321 66.0684ZM391.321 68.6141C391.198 68.6141 391.097 68.7146 391.097 68.8387C391.097 68.962 391.198 69.0624 391.321 69.0624C391.445 69.0624 391.546 68.962 391.546 68.8387C391.546 68.7146 391.445 68.6141 391.321 68.6141Z" fill="#CCA0FF" stroke="#CCA0FF"/>
<path d="M397.664 69.6133V105.264" stroke="#CCA0FF" stroke-width="3.45" stroke-miterlimit="1.5" stroke-linecap="round" stroke-linejoin="round"/>
<path d="M397.702 71.609C399.232 71.609 400.472 70.3687 400.472 68.8387C400.472 67.3087 399.232 66.0684 397.702 66.0684C396.172 66.0684 394.932 67.3087 394.932 68.8387C394.932 70.3687 396.172 71.609 397.702 71.609Z" fill="#435466" stroke="#CCA0FF"/>
<path fill-rule="evenodd" clip-rule="evenodd" d="M397.701 66.0684C399.23 66.0684 400.472 67.3099 400.472 68.8387C400.472 70.3675 399.23 71.6082 397.701 71.6082C396.172 71.6082 394.932 70.3675 394.932 68.8387C394.932 67.3099 396.172 66.0684 397.701 66.0684ZM397.701 68.6141C397.578 68.6141 397.477 68.7146 397.477 68.8387C397.477 68.962 397.578 69.0624 397.701 69.0624C397.825 69.0624 397.926 68.962 397.926 68.8387C397.926 68.7146 397.825 68.6141 397.701 68.6141Z" fill="#CCA0FF" stroke="#CCA0FF"/>
<path d="M403.932 69.6133V105.264" stroke="#CCA0FF" stroke-width="3.45" stroke-miterlimit="1.5" stroke-linecap="round" stroke-linejoin="round"/>
<path d="M403.97 71.609C405.5 71.609 406.74 70.3687 406.74 68.8387C406.74 67.3087 405.5 66.0684 403.97 66.0684C402.44 66.0684 401.199 67.3087 401.199 68.8387C401.199 70.3687 402.44 71.609 403.97 71.609Z" fill="#435466" stroke="#CCA0FF"/>
<path fill-rule="evenodd" clip-rule="evenodd" d="M403.97 66.0684C405.498 66.0684 406.74 67.3099 406.74 68.8387C406.74 70.3675 405.498 71.6082 403.97 71.6082C402.441 71.6082 401.199 70.3675 401.199 68.8387C401.199 67.3099 402.441 66.0684 403.97 66.0684ZM403.97 68.6141C403.845 68.6141 403.745 68.7146 403.745 68.8387C403.745 68.962 403.845 69.0624 403.97 69.0624C404.093 69.0624 404.193 68.962 404.193 68.8387C404.193 68.7146 404.093 68.6141 403.97 68.6141Z" fill="#CCA0FF" stroke="#CCA0FF"/>
<path d="M387.015 46.4453L386.689 56.1123L367.712 56.0872L353 44.9616L366.962 31H385.259L395.102 40.8427V53.9808" stroke="#CCA0FF" stroke-width="3.45" stroke-miterlimit="1.5" stroke-linecap="round" stroke-linejoin="round"/>
<path d="M395.103 53.9805V57.1237L392.703 59.9716H367.471L358.821 69.0684L358.598 104.132" stroke="#CCA0FF" stroke-width="3.45" stroke-miterlimit="1.5" stroke-linecap="round" stroke-linejoin="round"/>
<path d="M406.945 46.4453L406.823 56.1123L426.247 56.0872L440.96 44.9616L426.998 31H408.7L398.857 40.8427V53.9808" stroke="#CCA0FF" stroke-width="3.45" stroke-miterlimit="1.5" stroke-linecap="round" stroke-linejoin="round"/>
<path d="M398.857 53.9805V57.1237L401.258 59.9716H426.49L435.14 69.0684L435.363 104.132" stroke="#CCA0FF" stroke-width="3.45" stroke-miterlimit="1.5" stroke-linecap="round" stroke-linejoin="round"/>
<path d="M387.118 47.3463C388.648 47.3463 389.888 46.106 389.888 44.576C389.888 43.046 388.648 41.8057 387.118 41.8057C385.588 41.8057 384.348 43.046 384.348 44.576C384.348 46.106 385.588 47.3463 387.118 47.3463Z" fill="#435466" stroke="#CCA0FF"/>
<path fill-rule="evenodd" clip-rule="evenodd" d="M387.117 41.8057C388.647 41.8057 389.888 43.0464 389.888 44.576C389.888 46.1048 388.647 47.3455 387.117 47.3455C385.588 47.3455 384.348 46.1048 384.348 44.576C384.348 43.0464 385.588 41.8057 387.117 41.8057ZM387.117 44.3515C386.994 44.3515 386.893 44.4519 386.893 44.576C386.893 44.6993 386.994 44.7998 387.117 44.7998C387.241 44.7998 387.342 44.6993 387.342 44.576C387.342 44.4519 387.241 44.3515 387.117 44.3515Z" fill="#CCA0FF" stroke="#CCA0FF"/>
<path d="M406.845 47.3463C408.375 47.3463 409.615 46.106 409.615 44.576C409.615 43.046 408.375 41.8057 406.845 41.8057C405.315 41.8057 404.074 43.046 404.074 44.576C404.074 46.106 405.315 47.3463 406.845 47.3463Z" fill="#435466" stroke="#CCA0FF"/>
<path fill-rule="evenodd" clip-rule="evenodd" d="M406.845 41.8057C408.373 41.8057 409.615 43.0464 409.615 44.576C409.615 46.1048 408.373 47.3455 406.845 47.3455C405.316 47.3455 404.074 46.1048 404.074 44.576C404.074 43.0464 405.316 41.8057 406.845 41.8057ZM406.845 44.3515C406.721 44.3515 406.621 44.4519 406.621 44.576C406.621 44.6993 406.721 44.7998 406.845 44.7998C406.969 44.7998 407.069 44.6993 407.069 44.576C407.069 44.4519 406.969 44.3515 406.845 44.3515Z" fill="#CCA0FF" stroke="#CCA0FF"/>
<path d="M360.673 104.129H356.203V109H360.673V104.129Z" fill="#435466" stroke="#CCA0FF"/>
<path d="M360.673 104.129H356.203V109H360.673V104.129Z" fill="#CCA0FF" stroke="#CCA0FF"/>
<path d="M365.487 104.129H361.018V109H365.487V104.129Z" fill="#435466" stroke="#CCA0FF"/>
<path d="M365.487 104.129H361.018V109H365.487V104.129Z" fill="#CCA0FF" stroke="#CCA0FF"/>
<path d="M393.19 104.129H388.721V109H393.19V104.129Z" fill="#435466" stroke="#CCA0FF"/>
<path d="M393.19 104.129H388.721V109H393.19V104.129Z" fill="#CCA0FF" stroke="#CCA0FF"/>
<path d="M399.905 104.129H395.436V109H399.905V104.129Z" fill="#435466" stroke="#CCA0FF"/>
<path d="M399.905 104.129H395.436V109H399.905V104.129Z" fill="#CCA0FF" stroke="#CCA0FF"/>
<path d="M406.202 104.129H401.732V109H406.202V104.129Z" fill="#435466" stroke="#CCA0FF"/>
<path d="M406.202 104.129H401.732V109H406.202V104.129Z" fill="#CCA0FF" stroke="#CCA0FF"/>
<path d="M432.794 104.129H428.324V109H432.794V104.129Z" fill="#435466" stroke="#CCA0FF"/>
<path d="M432.794 104.129H428.324V109H432.794V104.129Z" fill="#CCA0FF" stroke="#CCA0FF"/>
<path d="M437.72 104.129H433.25V109H437.72V104.129Z" fill="#435466" stroke="#CCA0FF"/>
<path d="M437.72 104.129H433.25V109H437.72V104.129Z" fill="#CCA0FF" stroke="#CCA0FF"/>
<path d="M497.251 106.188H491.168V111.664H497.251V106.188Z" fill="#CCA0FF"/>
<path d="M490.405 106.188H485.082V111.664H490.405V106.188Z" fill="#CCA0FF"/>
<path d="M484.362 106.188H479V111.664H484.362V106.188Z" fill="#CCA0FF"/>
<path d="M552.001 106.188H545.918V111.664H552.001V106.188Z" fill="#CCA0FF"/>
<path d="M545.538 106.188H541.355V111.664H545.538V106.188Z" fill="#CCA0FF"/>
<path d="M487.375 107.303L517.554 43.8281L543.863 106.926" stroke="#CCA0FF" stroke-width="3.45" stroke-miterlimit="1.5" stroke-linecap="round" stroke-linejoin="round"/>
<path d="M482.043 106.826L514.054 41.1493L501.055 34.6388L502.802 27.3628L514.054 34.6388L512.307 21.6185L521.814 20.6611L520.068 34.4476L531.321 28.5114L531.127 37.5109L520.456 41.3405L548.199 107.018" stroke="#CCA0FF" stroke-width="3.45" stroke-miterlimit="1.5" stroke-linecap="round" stroke-linejoin="round"/>
<path d="M494.166 107.25L511.77 66.7549L520.669 66.9429" stroke="#CCA0FF" stroke-width="3.45" stroke-miterlimit="1.5" stroke-linecap="round" stroke-linejoin="round"/>
<path d="M506.354 81.2578H526.279" stroke="#CCA0FF" stroke-width="3.45" stroke-miterlimit="1.5" stroke-linecap="round" stroke-linejoin="round"/>
<path d="M497.842 99.1514H533.824" stroke="#CCA0FF" stroke-width="3.45" stroke-miterlimit="1.5" stroke-linecap="round" stroke-linejoin="round"/>
<path d="M521.167 69.5323C522.575 69.5323 523.715 68.4215 523.715 67.0513C523.715 65.6811 522.575 64.5703 521.167 64.5703C519.76 64.5703 518.619 65.6811 518.619 67.0513C518.619 68.4215 519.76 69.5323 521.167 69.5323Z" fill="#24374D"/>
<path fill-rule="evenodd" clip-rule="evenodd" d="M521.167 64.5703C522.573 64.5703 523.715 65.6816 523.715 67.0513C523.715 68.421 522.573 69.5323 521.167 69.5323C519.761 69.5323 518.619 68.421 518.619 67.0513C518.619 65.6816 519.761 64.5703 521.167 64.5703ZM521.167 67.1224C521.208 67.1224 521.24 67.0905 521.24 67.0513C521.24 67.0121 521.208 66.9802 521.167 66.9802C521.127 66.9802 521.094 67.0121 521.094 67.0513C521.094 67.0905 521.127 67.1224 521.167 67.1224Z" fill="#CCA0FF"/>
<path d="M526.999 83.6055C528.407 83.6055 529.547 82.4947 529.547 81.1245C529.547 79.7543 528.407 78.6436 526.999 78.6436C525.592 78.6436 524.451 79.7543 524.451 81.1245C524.451 82.4947 525.592 83.6055 526.999 83.6055Z" fill="#24374D"/>
<path fill-rule="evenodd" clip-rule="evenodd" d="M526.999 78.6436C528.406 78.6436 529.547 79.7548 529.547 81.1245C529.547 82.4935 528.406 83.6055 526.999 83.6055C525.593 83.6055 524.451 82.4935 524.451 81.1245C524.451 79.7548 525.593 78.6436 526.999 78.6436ZM526.999 81.1956C527.04 81.1956 527.072 81.1638 527.072 81.1245C527.072 81.0853 527.04 81.0535 526.999 81.0535C526.959 81.0535 526.926 81.0853 526.926 81.1245C526.926 81.1638 526.959 81.1956 526.999 81.1956Z" fill="#CCA0FF"/>
<path d="M534.13 101.542C535.537 101.542 536.678 100.431 536.678 99.0611C536.678 97.6908 535.537 96.5801 534.13 96.5801C532.723 96.5801 531.582 97.6908 531.582 99.0611C531.582 100.431 532.723 101.542 534.13 101.542Z" fill="#24374D"/>
<path fill-rule="evenodd" clip-rule="evenodd" d="M534.131 96.5801C535.537 96.5801 536.679 97.6921 536.679 99.0611C536.679 100.431 535.537 101.542 534.131 101.542C532.724 101.542 531.582 100.431 531.582 99.0611C531.582 97.6921 532.724 96.5801 534.131 96.5801ZM534.131 99.1321C534.171 99.1321 534.204 99.1003 534.204 99.0611C534.204 99.0218 534.171 98.99 534.131 98.99C534.091 98.99 534.057 99.0218 534.057 99.0611C534.057 99.1003 534.091 99.1321 534.131 99.1321Z" fill="#CCA0FF"/>
<path d="M37.5 38V1034.5L59.5 1056.5H1074.5L1095 1036V553L1128.5 535.5" stroke="#CCA0FF" stroke-width="5"/>
<rect x="49" y="109" width="1029" height="936" rx="20" stroke="#CCA0FF" stroke-width="6" stroke-linejoin="round"/>
<path stroke-linecap="round" d="M214 989.5H588.5V914.5H666V989.5H1074.5M200 1003H1071.5M1071.5 1013H191.5M1865 728L1882.5 740V794.5L1868 823H1150.5M1197.5 831.5H1872.5L1891.5 794.5V730L1865 713M1835 328L1878 284.5V114L1850 86M1835 311.5L1865.5 281V156M1835 296L1846.5 284.5L1841 271H1282M1159 296L1138 275V213M1159 311.5L1129 281.5V197.5M1159 327.5L1115.5 284V185.5M1159 343.5L1102 286.5V78.5L1118.5 56.5H1483.5M1159 360L1090.5 291.5V78.5L1111.5 49H1532" stroke="#CCA0FF" stroke-width="5"/>
<circle cx="37.5" cy="31.5" r="9.5" fill="#CCA0FF"/>
</svg>
