<?xml version="1.0" encoding="utf-8"?>
<!-- Generator: Adobe Illustrator 16.0.4, SVG Export Plug-In . SVG Version: 6.00 Build 0)  -->
<!DOCTYPE svg PUBLIC "-//W3C//DTD SVG 1.1//EN" "http://www.w3.org/Graphics/SVG/1.1/DTD/svg11.dtd">
<svg version="1.1" id="Layer_1" xmlns="http://www.w3.org/2000/svg" xmlns:xlink="http://www.w3.org/1999/xlink" x="0px" y="0px"
	 width="100px" height="70px" viewBox="0 0 100 70" enable-background="new 0 0 100 70" xml:space="preserve">
<g>
	<g>
		<path fill="#008CC7" d="M49.997,12.425c2.201,0,4.271,0.855,5.827,2.414c1.558,1.558,2.416,3.627,2.416,5.829
			c0,4.546-3.698,8.244-8.243,8.244c-2.205,0-4.273-0.857-5.832-2.413c-1.556-1.56-2.414-3.63-2.414-5.831
			c0-2.202,0.858-4.271,2.414-5.829C45.724,13.281,47.792,12.425,49.997,12.425 M41.24,20.668c0,2.339,0.909,4.54,2.565,6.192
			c1.652,1.658,3.853,2.566,6.192,2.566c2.338,0,4.536-0.908,6.19-2.566c1.654-1.652,2.564-3.853,2.564-6.192
			c0-2.339-0.91-4.54-2.564-6.192c-1.654-1.654-3.853-2.565-6.19-2.565C45.167,11.911,41.24,15.841,41.24,20.668 M49.997,13.706
			c1.858,0,3.606,0.722,4.922,2.037c1.315,1.316,2.04,3.066,2.04,4.925c0,3.838-3.124,6.965-6.962,6.965
			c-1.862,0-3.611-0.725-4.926-2.039c-1.314-1.317-2.038-3.064-2.038-4.926c0-1.859,0.724-3.609,2.038-4.925
			C46.386,14.428,48.135,13.706,49.997,13.706 M42.519,20.668c0,1.996,0.777,3.875,2.188,5.288c1.413,1.413,3.291,2.19,5.29,2.19
			c1.997,0,3.871-0.777,5.285-2.19c1.411-1.413,2.189-3.292,2.189-5.288c0-1.998-0.778-3.875-2.189-5.286
			c-1.414-1.414-3.288-2.191-5.285-2.191C45.87,13.191,42.519,16.544,42.519,20.668"/>
	</g>
	<g>
		<defs>
			<path id="SVGID_1_" d="M25.582,23.756c0,1.745,1.676,3.862,5.833,3.862h9.083c-1.143,1.067-4.124,2.579-4.963,2.878
				c2.715,1.207,9.216,2.448,11.465,2.381l0.708-2.559c-3.361-0.8-6.062-3.31-7.128-6.562H25.582z M59.42,23.756
				c-1.065,3.252-3.766,5.762-7.126,6.562l0.708,2.559c2.247,0.067,8.748-1.174,11.463-2.381c-0.836-0.3-3.82-1.811-4.962-2.878
				h9.082c4.158,0,5.835-2.117,5.835-3.862H59.42z M20.114,22.853H40.33c-0.157-0.703-0.241-1.435-0.241-2.184
				c0-0.376,0.021-0.742,0.062-1.104c-0.473-0.433-1.234-0.935-2.567-0.935H15.961c-0.64,0-1.58-0.1-2.148-0.202
				C14.552,20.373,15.826,22.853,20.114,22.853 M84.041,18.63H62.417c-1.332,0-2.095,0.502-2.565,0.935
				c0.041,0.362,0.063,0.728,0.063,1.104c0,0.75-0.087,1.481-0.245,2.184h20.216c4.29,0,5.564-2.479,6.302-4.424
				C85.618,18.531,84.679,18.63,84.041,18.63 M7.344,11.591c0.202,1.959,1.711,6.135,7.543,6.135h22.526
				c1.037,0,2.175,0.207,2.879,0.925c0.223-1.074,0.62-2.089,1.158-3.005c-1.388-1.798-3.042-2.146-5.597-2.146H12.272
				C9.605,13.5,7.797,12.646,7.344,11.591z M87.729,13.5H64.147c-2.557,0-4.209,0.348-5.6,2.146c0.54,0.917,0.938,1.931,1.159,3.005
				c0.707-0.719,1.847-0.925,2.882-0.925h22.526c5.831,0,7.341-4.176,7.542-6.135C92.204,12.646,90.395,13.5,87.729,13.5"/>
		</defs>
		<clipPath id="SVGID_2_">
			<use xlink:href="#SVGID_1_"  overflow="visible"/>
		</clipPath>
		
			<radialGradient id="SVGID_3_" cx="-251.0986" cy="337.9785" r="0.7717" gradientTransform="matrix(40.275 0 0 -40.275 10162.999 13634.3135)" gradientUnits="userSpaceOnUse">
			<stop  offset="0" style="stop-color:#008CC7"/>
			<stop  offset="1" style="stop-color:#004381"/>
		</radialGradient>
		<rect x="7.344" y="11.591" clip-path="url(#SVGID_2_)" fill="url(#SVGID_3_)" width="85.313" height="21.354"/>
	</g>
	<g>
		<defs>
			<path id="SVGID_4_" d="M49.995,30.586c-0.394,0-0.779-0.024-1.164-0.067c-0.45,3.701-0.042,6.71,1.164,9.328
				c1.204-2.618,1.613-5.627,1.161-9.328C50.772,30.562,50.388,30.586,49.995,30.586 M52.206,24.899l0.483,0.729
				c0.132,0.182,0.221,0.245,0.379,0.009l0.436-0.737H52.206z M52.198,16.217c0,0.77-0.254,1.172-0.871,1.04
				c-0.806-0.175-0.689-1.259-2.097-0.871c-0.659,0.18-2.058,0.938-3.836,2.026c-0.591,0.36-0.964,0.801-1.006,1.19
				c-0.084,0.77,1.233,3.656,1.34,3.922c0.185,0.454,0.637,0.467,1.106,0.231c0.471-0.234,1.847-1.003,2.851-1.003
				c1.307,0,1.541,0.57,2.079,1.407h2.146l1.44-2.814c0.2-0.538,0.2-1.206-0.135-1.677l-2.281-3.688
				c-0.189-0.302-0.354-0.452-0.477-0.452C52.302,15.529,52.207,15.761,52.198,16.217 M36.419,7.136
				c1.008,2.7,2.856,5.108,5.803,7.395c0.236-0.302,0.494-0.593,0.77-0.873c0.277-0.279,0.568-0.537,0.866-0.775
				C41.547,9.954,39.125,8.128,36.419,7.136z M56.142,12.883c0.3,0.238,0.592,0.496,0.869,0.775c0.276,0.28,0.531,0.571,0.77,0.873
				c2.944-2.287,4.792-4.695,5.803-7.395C60.877,8.128,58.454,9.954,56.142,12.883 M44.803,5.664
				C44.57,5.59,44.43,5.42,44.476,5.276c0.045-0.142,0.264-0.193,0.492-0.118c0.227,0.075,0.372,0.245,0.327,0.388
				c-0.033,0.097-0.146,0.152-0.288,0.152C44.943,5.698,44.874,5.686,44.803,5.664 M54.694,5.545
				c-0.046-0.143,0.095-0.312,0.326-0.388c0.229-0.078,0.446-0.022,0.493,0.118c0.045,0.146-0.098,0.313-0.327,0.389
				c-0.072,0.022-0.142,0.034-0.205,0.034C54.839,5.697,54.726,5.643,54.694,5.545 M47.59,2.406
				c1.239,1.374,1.608,3.621,1.573,7.878c-0.736-2.111-3.417-1.811-5.345-2.564c-1.007-0.395-1.324-1.861,0.017-2.23
				c-0.189,0.696,2.381,1.29,3.333,0.469c0.387-0.332-0.414-2.135-3.133-2.227c-1.475-0.051-3.284,0.639-3.35,2.697
				c-0.069,2.028,2.389,2.848,2.933,3.05c1.207,0.457,3.529,0.647,2.461,2.073c1.203-0.518,2.524-0.804,3.916-0.804
				c1.388,0,2.712,0.286,3.914,0.804c-1.071-1.426,1.254-1.616,2.463-2.073c0.541-0.202,2.998-1.022,2.933-3.05
				c-0.069-2.058-1.877-2.748-3.353-2.697c-2.718,0.092-3.521,1.895-3.134,2.227c0.956,0.821,3.523,0.227,3.334-0.469
				c1.342,0.369,1.024,1.835,0.017,2.23c-1.926,0.753-4.606,0.454-5.345,2.564c-0.034-4.257,0.335-6.504,1.575-7.878
				c-1.542-0.603-1.834-1.275-2.404-1.912C49.424,1.131,49.129,1.803,47.59,2.406"/>
		</defs>
		<clipPath id="SVGID_5_">
			<use xlink:href="#SVGID_4_"  overflow="visible"/>
		</clipPath>
		
			<radialGradient id="SVGID_6_" cx="-255.3774" cy="342.127" r="0.7714" gradientTransform="matrix(21.9026 0 0 -21.9026 5643.4253 7513.6143)" gradientUnits="userSpaceOnUse">
			<stop  offset="0" style="stop-color:#E84E0F"/>
			<stop  offset="0.2016" style="stop-color:#D83F0E"/>
			<stop  offset="0.4231" style="stop-color:#CC350D"/>
			<stop  offset="0.6716" style="stop-color:#C52F0C"/>
			<stop  offset="1" style="stop-color:#C22E0C"/>
		</radialGradient>
		<rect x="36.419" y="0.494" clip-path="url(#SVGID_5_)" fill="url(#SVGID_6_)" width="27.164" height="39.353"/>
	</g>
	<g>
		<path fill="#004380" d="M41.576,46.533v0.494c0,0.287,0.028,0.513,0.028,0.513h-0.028c0,0-0.59-1.209-2.357-1.209
			c-2.021,0-3.456,1.571-3.456,4c0,2.371,1.299,4.001,3.368,4.001c1.887,0,2.504-1.419,2.504-1.419h0.03
			c0,0-0.015,0.211-0.015,0.515v0.707h1.389v-7.602H41.576z M39.415,53.064c-1.266,0-2.157-1.072-2.157-2.733
			c0-1.735,0.995-2.73,2.202-2.73c1.449,0,2.16,1.358,2.16,2.717C41.62,52.265,40.548,53.064,39.415,53.064 M45.391,43.514h1.464
			v10.621h-1.464V43.514z M23.496,46.331c2.28,0,4.122,1.677,4.122,3.987c0,2.322-1.842,4.014-4.122,4.014
			c-2.278,0-4.121-1.691-4.121-4.014C19.375,48.008,21.218,46.331,23.496,46.331 M23.496,53.064c1.451,0,2.628-1.146,2.628-2.746
			c0-1.587-1.177-2.718-2.628-2.718c-1.432,0-2.626,1.131-2.626,2.718C20.87,51.918,22.064,53.064,23.496,53.064 M28.409,55.757
			c0,0,0.422,0.316,0.892,0.316c0.587,0,1.087-0.422,1.373-1.117l0.377-0.874l-3.199-7.549h1.645l1.917,4.998
			c0.15,0.392,0.286,0.919,0.286,0.919h0.031c0,0,0.121-0.513,0.255-0.907l1.859-5.01h1.584l-3.578,9.013
			c-0.468,1.177-1.404,1.794-2.476,1.794c-0.859,0-1.479-0.466-1.479-0.466L28.409,55.757z M11.452,44.812h-0.981v-1.298h4.649
			c1.873,0,3.185,1.179,3.185,3.125c0,1.782-1.162,2.656-1.917,2.822v0.03c0,0,0.273,0.137,0.454,0.483l1.283,2.517
			c0.151,0.313,0.394,0.346,0.755,0.346h0.196v1.298h-0.739c-0.832,0-1.133-0.105-1.48-0.801l-1.448-2.83
			c-0.271-0.499-0.468-0.574-1.057-0.574h-1.39v4.205h-1.509V44.812z M14.923,48.632c1.147,0,1.826-0.739,1.826-1.932
			c0-1.193-0.679-1.889-1.796-1.889h-1.993v3.82H14.923z"/>
		<path fill="#004380" d="M52.441,44.806h-0.976v-1.292h5.843c0.676,0,0.961,0.286,0.961,0.963v1.336h-1.366v-0.677
			c0-0.225-0.122-0.33-0.333-0.33h-2.626v3.483h3.617v1.294h-3.617v4.552h-1.503V44.806z M59.914,43.514h1.457v8.432
			c0,0.915,0.361,1.081,0.812,1.081c0.133,0,0.254-0.015,0.254-0.015v1.292c0,0-0.225,0.028-0.481,0.028
			c-0.825,0-2.041-0.225-2.041-2.132V43.514z M69.419,46.535h-0.812l-1.876,5.046c-0.152,0.392-0.257,0.918-0.257,0.918h-0.029
			c0,0-0.122-0.526-0.271-0.918l-1.944-5.046h-1.556l3.096,7.57l-0.345,0.825c-0.287,0.676-0.751,1.096-1.337,1.096
			c-0.646,0-1.112-0.539-1.112-0.539l-0.602,1.051c0,0,0.661,0.75,1.788,0.75c1.067,0,1.983-0.616,2.447-1.788l3.59-8.965H69.419z
			 M74.963,46.535h1.413v0.984c0,0.3-0.03,0.555-0.03,0.555h0.03c0.3-0.66,1.2-1.741,2.854-1.741c1.785,0,2.611,0.975,2.611,2.912
			v4.89h-1.455V49.6c0-1.067-0.226-1.908-1.443-1.908c-1.156,0-2.088,0.766-2.401,1.863c-0.092,0.301-0.122,0.645-0.122,1.021v3.56
			h-1.457V46.535z M71.873,43.314c-0.441,0-0.798,0.355-0.798,0.798c0,0.438,0.356,0.799,0.798,0.799c0.44,0,0.799-0.36,0.799-0.799
			C72.672,43.67,72.313,43.314,71.873,43.314 M71.145,46.535h1.457v7.6h-1.457V46.535z M89.412,46.533v0.494
			c0,0.285,0.03,0.513,0.03,0.513h-0.03c0,0-0.59-1.207-2.355-1.207c-2.022,0-3.457,1.569-3.457,3.998
			c0,2.371,1.299,4.001,3.367,4.001c1.888,0,2.506-1.419,2.506-1.419h0.029c0,0-0.024,0.321-0.024,0.435v0.547
			c0,1.547-1.14,2.132-2.461,2.132c-1.142,0-2.088-0.511-2.088-0.511l-0.48,1.142c0.735,0.376,1.68,0.631,2.598,0.631
			c1.923,0,3.829-0.96,3.829-3.469v-7.286H89.412z M87.252,53.064c-1.267,0-2.157-1.072-2.157-2.733c0-1.735,0.997-2.73,2.204-2.73
			c1.449,0,2.16,1.358,2.16,2.717C89.459,52.265,88.386,53.064,87.252,53.064"/>
		<path fill="#004380" d="M15.416,61.507c2.279,0,4.121,1.675,4.121,3.983c0,2.324-1.842,4.016-4.121,4.016
			c-2.279,0-4.12-1.691-4.12-4.016C11.296,63.182,13.137,61.507,15.416,61.507 M15.416,68.236c1.449,0,2.626-1.146,2.626-2.746
			c0-1.585-1.177-2.717-2.626-2.717c-1.434,0-2.626,1.132-2.626,2.717C12.79,67.091,13.982,68.236,15.416,68.236 M1.477,59.978H0.5
			v-1.292h4.297c3.227,0,5.36,1.939,5.36,5.286c0,3.365-2.133,5.317-5.36,5.317h-2.36c-0.674,0-0.959-0.283-0.959-0.96V59.978z
			 M3.309,67.998h1.382c2.358,0,3.904-1.411,3.904-4.026c0-2.596-1.561-3.994-3.904-3.994H2.979v7.69
			C2.979,67.878,3.098,67.998,3.309,67.998 M24.911,61.507c1.908,0,2.854,1.111,2.854,1.111l-0.692,1.019
			c0,0-0.811-0.869-2.102-0.869c-1.531,0-2.643,1.143-2.643,2.703c0,1.546,1.112,2.732,2.688,2.732c1.411,0,2.342-1.021,2.342-1.021
			l0.587,1.066c0,0-1.052,1.217-3.035,1.217c-2.387,0-4.07-1.696-4.07-3.98C20.841,63.233,22.524,61.507,24.911,61.507
			 M43.548,61.706h1.411v1.212c0,0.315-0.03,0.571-0.03,0.571h0.03c0.345-1.112,1.232-1.982,2.403-1.982
			c0.197,0,0.375,0.028,0.375,0.028v1.443c0,0-0.195-0.046-0.42-0.046c-0.932,0-1.788,0.661-2.132,1.787
			c-0.136,0.436-0.18,0.901-0.18,1.365v3.224h-1.458V61.706z M37.655,61.507c2.279,0,4.121,1.675,4.121,3.983
			c0,2.324-1.842,4.016-4.121,4.016c-2.28,0-4.119-1.691-4.119-4.016C33.536,63.182,35.375,61.507,37.655,61.507 M37.655,68.236
			c1.449,0,2.626-1.146,2.626-2.746c0-1.585-1.177-2.717-2.626-2.717c-1.433,0-2.627,1.132-2.627,2.717
			C35.028,67.091,36.222,68.236,37.655,68.236 M30.85,58.686h-1.502v10.623h1.502v-6.311h2.688v-1.292H30.85V58.686z"/>
		<path fill="#004380" d="M82.056,58.487c-0.442,0-0.799,0.357-0.799,0.799c0,0.438,0.356,0.796,0.799,0.796
			c0.44,0,0.799-0.357,0.799-0.796C82.854,58.845,82.496,58.487,82.056,58.487 M81.326,61.709h1.458v7.598h-1.458V61.709z
			 M52.069,66.971c0,0,1.132,1.146,2.716,1.146c0.997,0,1.843-0.558,1.843-1.57c0-2.31-5.162-1.811-5.162-5.087
			c0-1.66,1.434-2.973,3.44-2.973c1.978,0,3.02,1.07,3.02,1.07l-0.68,1.239c0,0-0.981-0.923-2.34-0.923
			c-1.131,0-1.933,0.71-1.933,1.556c0,2.206,5.163,1.616,5.163,5.073c0,1.645-1.268,3.003-3.381,3.003
			c-2.265,0-3.532-1.405-3.532-1.405L52.069,66.971z M63.272,61.507c2.157,0,3.306,1.598,3.306,3.576
			c0,0.195-0.046,0.633-0.046,0.633h-5.57c0.075,1.675,1.269,2.522,2.627,2.522c1.313,0,2.264-0.891,2.264-0.891l0.605,1.071
			c0,0-1.133,1.086-2.959,1.086c-2.4,0-4.047-1.735-4.047-4C59.452,63.074,61.099,61.507,63.272,61.507 M65.083,64.615
			c-0.045-1.314-0.86-1.946-1.841-1.946c-1.116,0-2.023,0.693-2.234,1.946H65.083z M88.64,61.507c1.917,0,2.869,1.114,2.869,1.114
			l-0.697,1.026c0,0-0.813-0.874-2.113-0.874c-1.539,0-2.654,1.146-2.654,2.717c0,1.554,1.115,2.748,2.701,2.748
			c1.418,0,2.354-1.028,2.354-1.028l0.587,1.072c0,0-1.056,1.223-3.047,1.223c-2.399,0-4.092-1.705-4.092-4
			C84.548,63.24,86.24,61.507,88.64,61.507 M96.193,61.507c2.161,0,3.307,1.598,3.307,3.576c0,0.195-0.043,0.633-0.043,0.633h-5.571
			c0.074,1.675,1.267,2.522,2.626,2.522c1.314,0,2.265-0.891,2.265-0.891l0.604,1.071c0,0-1.132,1.086-2.958,1.086
			c-2.4,0-4.046-1.735-4.046-4C92.376,63.074,94.021,61.507,96.193,61.507 M98.007,64.615c-0.046-1.314-0.86-1.946-1.841-1.946
			c-1.118,0-2.024,0.693-2.234,1.946H98.007z M72.491,62.974c-0.047-0.009-0.214-0.041-0.404-0.041
			c-0.931,0-1.787,0.661-2.132,1.787c-0.136,0.436-0.181,0.901-0.181,1.367v3.22h-1.456v-7.601h1.412v1.213
			c0,0.314-0.03,0.568-0.03,0.568h0.03c0.325-1.051,1.137-1.887,2.217-1.975L72.491,62.974z M80.382,61.706l-2.81,7.601h-1.689
			l-2.84-7.601h1.555l1.842,5.124c0.151,0.425,0.243,1.043,0.257,1.043h0.03c0.017,0,0.122-0.618,0.273-1.043l1.844-5.124H80.382z"
			/>
	</g>
</g>
</svg>
