<svg width="1666" height="1666" viewBox="0 0 1666 1666" fill="none" xmlns="http://www.w3.org/2000/svg">
<path fill-rule="evenodd" clip-rule="evenodd" d="M1086.43 1171.89C986.995 1096.47 852.4 994.389 435.431 1279.46C210.508 1117.18 156.072 837.178 246.759 686.967C314.593 650.593 370.595 587.94 426.729 525.139C533.841 405.306 641.436 284.932 832.638 345.557C723.277 506.759 1082.7 676.561 1082.7 273C1151.18 398.802 1242.42 480.126 1317.87 547.373C1393.07 614.404 1452.59 667.449 1458.24 736.617C1475.21 944.458 1409.94 1130.35 1247.07 1210.08C1180.04 1242.89 1137.95 1210.97 1086.43 1171.89ZM1242.6 684.835C1242.6 733.28 1203.33 772.552 1154.89 772.552C1106.44 772.552 1067.17 733.28 1067.17 684.835C1067.17 636.391 1106.44 597.119 1154.89 597.119C1203.33 597.119 1242.6 636.391 1242.6 684.835ZM633.555 607.05H484.603V756.002H335.651V908.264H484.603V756.003H484.604V908.264H633.555V756.003V908.264H782.507V756.002H633.555V607.05ZM633.555 756.003H484.604V756.002H633.555V756.003ZM484.603 908.266H633.555V1057.22H484.603V908.266ZM1005.93 921.503C1054.38 921.503 1093.65 882.231 1093.65 833.787C1093.65 785.343 1054.38 746.071 1005.93 746.071C957.491 746.071 918.219 785.343 918.219 833.787C918.219 882.231 957.491 921.503 1005.93 921.503ZM1242.6 982.741C1242.6 1031.19 1203.33 1070.46 1154.89 1070.46C1106.44 1070.46 1067.17 1031.19 1067.17 982.741C1067.17 934.296 1106.44 895.025 1154.89 895.025C1203.33 895.025 1242.6 934.296 1242.6 982.741ZM1303.84 921.503C1352.28 921.503 1391.55 882.231 1391.55 833.787C1391.55 785.343 1352.28 746.071 1303.84 746.071C1255.39 746.071 1216.12 785.343 1216.12 833.787C1216.12 882.231 1255.39 921.503 1303.84 921.503ZM1277.49 1272.76C1232.38 1301.39 1193.51 1296.04 1174.09 1293.36C1171.57 1293.01 1169.38 1292.71 1167.55 1292.53C1137.17 1289.61 1182.15 1398.25 1213.18 1392.31C1289.27 1377.76 1327.47 1241.03 1277.49 1272.76Z" fill="black" fill-opacity="0.2"/>
</svg>
