<svg width="159" height="46" viewBox="0 0 159 46" fill="none" xmlns="http://www.w3.org/2000/svg">
<path d="M50.6017 24.6249L50.5182 24.5831C50.1282 24.481 49.7149 24.416 49.2785 24.3881C48.842 24.3603 48.3963 24.2999 47.9413 24.207C48.387 24.2999 48.8235 24.3742 49.2506 24.4299C49.6778 24.4763 50.1003 24.5692 50.5182 24.7085C50.3882 24.7921 50.2489 24.8338 50.1003 24.8338C49.9239 24.8153 49.7474 24.7874 49.571 24.7503C49.4038 24.7131 49.2228 24.6853 49.0278 24.6667C49.0278 24.611 49.0417 24.5692 49.0696 24.5413C48.8003 24.5413 48.531 24.5135 48.2617 24.4578C48.0017 24.402 47.7463 24.3417 47.4956 24.2767C47.2449 24.2024 46.9988 24.1374 46.7573 24.0817C46.5252 24.0167 46.307 23.9842 46.1027 23.9842C46.1027 24.012 46.098 24.026 46.0888 24.026C46.3302 24.0724 46.5577 24.1374 46.7713 24.221C46.9849 24.3045 47.2263 24.3695 47.4956 24.416C47.7556 24.481 48.0063 24.5274 48.2477 24.5553C48.4985 24.5831 48.7445 24.6203 48.986 24.6667C48.596 24.6295 48.1967 24.5738 47.7881 24.4995C47.3888 24.4253 46.9941 24.3417 46.6041 24.2488L45.9495 24.0817C45.7173 24.676 45.4805 25.261 45.2391 25.8367C45.0069 26.4032 44.7794 26.9789 44.5566 27.5639C44.538 27.5268 44.5055 27.5036 44.4591 27.4943C44.4219 27.4943 44.3801 27.4943 44.3337 27.4943C44.2966 27.4943 44.2594 27.4803 44.2223 27.4525C44.1851 27.4339 44.1666 27.3875 44.1666 27.3132C44.1666 27.2389 44.1851 27.1321 44.2223 26.9928C44.2594 26.8628 44.3291 26.6864 44.4312 26.4635C44.4126 26.445 44.3801 26.4357 44.3337 26.4357C44.2966 26.4264 44.2687 26.4217 44.2501 26.4217C44.0644 26.8118 43.8833 27.1089 43.7069 27.3132C43.5398 27.5268 43.4051 27.6336 43.303 27.6336C43.1915 27.6336 43.1358 27.5268 43.1358 27.3132C43.1358 27.1368 43.1683 26.9139 43.2333 26.6446C43.2983 26.366 43.3772 26.0689 43.4701 25.7531C43.5723 25.4374 43.6837 25.1124 43.8044 24.7781C43.9251 24.4345 44.0412 24.1002 44.1526 23.7752C44.0505 23.7102 43.9391 23.6638 43.8183 23.6359C43.7069 23.6081 43.5815 23.5849 43.4423 23.5663C43.4701 23.5292 43.484 23.4827 43.484 23.427C43.484 23.3713 43.4887 23.3156 43.498 23.2599C43.5073 23.2041 43.5258 23.1577 43.5537 23.1206C43.5815 23.0834 43.6326 23.0649 43.7069 23.0649C43.7255 23.0649 43.7812 23.0741 43.874 23.0927V22.9674C43.7255 22.8931 43.6094 22.8049 43.5258 22.7027C43.4515 22.6006 43.4144 22.4984 43.4144 22.3963C43.4144 22.1734 43.628 22.062 44.0551 22.062C44.1758 22.062 44.2966 22.0713 44.4173 22.0898C44.5473 22.0991 44.6773 22.113 44.8073 22.1316L45.448 20.6691C45.5873 20.3534 45.7359 20.0283 45.8937 19.694C46.0609 19.3598 46.2559 19.0301 46.4788 18.7051C46.7016 18.3801 46.9524 18.0736 47.2309 17.7858C47.5188 17.4886 47.8484 17.224 48.2199 16.9918L48.4288 16.9083C48.6888 16.9733 48.8978 17.029 49.0556 17.0754C49.2228 17.1125 49.3574 17.1404 49.4596 17.159C49.5524 17.1961 49.6267 17.2193 49.6824 17.2286H49.6685L49.6824 17.2704C49.6824 17.2797 49.6778 17.289 49.6685 17.2983L49.8356 17.5908C50.4392 18.6029 50.95 19.6523 51.3678 20.7387C51.7857 21.8252 52.1432 22.8931 52.4404 23.9424C52.5147 24.1745 52.6029 24.4253 52.705 24.6945C52.8164 24.9546 52.9186 25.2053 53.0115 25.4467C53.1136 25.6789 53.1972 25.8924 53.2622 26.0874C53.3272 26.2732 53.3597 26.4078 53.3597 26.4914C53.3597 26.5564 53.3457 26.5982 53.3179 26.6167C53.29 26.626 53.2529 26.6307 53.2065 26.6307C52.965 26.0271 52.7375 25.4328 52.5239 24.8478C52.3104 24.272 52.1014 23.6917 51.8971 23.1066C52.0829 23.6917 52.2779 24.272 52.4822 24.8478C52.6957 25.4328 52.9093 26.0271 53.1229 26.6307H53.0254C52.9697 26.6307 52.9325 26.6585 52.9139 26.7142C52.9325 26.7328 52.9557 26.7839 52.9836 26.8675C53.0115 26.9418 53.0393 27.0207 53.0672 27.1043C53.095 27.1971 53.1182 27.29 53.1368 27.3828C53.1554 27.4757 53.1647 27.5453 53.1647 27.5918C53.1647 27.7961 53.1043 27.8982 52.9836 27.8982C52.9186 27.8982 52.8675 27.8843 52.8304 27.8564C52.7932 27.8286 52.7514 27.7914 52.705 27.745L52.5657 27.6057C52.51 27.55 52.4404 27.4943 52.3568 27.4386L51.0196 23.5942C51.2146 24.1977 51.405 24.8013 51.5907 25.4049C51.7857 26.0085 51.9854 26.6028 52.1896 27.1878C52.0411 27.0114 51.9018 26.7978 51.7718 26.5471C51.6511 26.2964 51.535 26.0317 51.4235 25.7531C51.3214 25.4746 51.2239 25.1913 51.131 24.9035C51.0382 24.6063 50.9453 24.3278 50.8525 24.0677C50.8525 24.0863 50.8525 24.1049 50.8525 24.1235C50.8617 24.1327 50.8664 24.1467 50.8664 24.1652C50.8664 24.3138 50.82 24.4253 50.7271 24.4995L50.6017 24.6249ZM50.5182 23.1763C50.5367 23.1763 50.5646 23.1716 50.6017 23.1624C50.6389 23.1438 50.6667 23.1345 50.6853 23.1345C50.3789 22.3638 50.0724 21.6162 49.766 20.8919C49.4689 20.1676 49.1392 19.4712 48.777 18.8026L48.6935 18.8862L48.9024 19.2623C49.2274 19.8566 49.5199 20.4694 49.7799 21.1009C50.0399 21.7323 50.286 22.3823 50.5182 23.0509C50.2489 22.3266 49.9564 21.607 49.6406 20.8919C49.3342 20.1676 49.0046 19.513 48.6517 18.928L48.596 18.9558C48.2802 19.2808 47.9831 19.6708 47.7045 20.1258C47.4352 20.5809 47.1799 21.0452 46.9384 21.5187L46.5763 22.3963L46.8131 22.452C46.9524 22.4891 47.087 22.5309 47.217 22.5773C47.3563 22.6145 47.477 22.6563 47.5792 22.7027C47.7834 22.8049 48.0527 22.8838 48.387 22.9395C48.7213 22.9952 49.0463 23.0509 49.3621 23.1066C49.6871 23.1531 49.9657 23.2088 50.1978 23.2738C50.4392 23.3295 50.56 23.4131 50.56 23.5245L48.8606 23.3295C48.9628 23.3481 49.0881 23.3713 49.2367 23.3992C49.3853 23.4177 49.5339 23.4409 49.6824 23.4688C49.8403 23.4967 49.9935 23.5245 50.1421 23.5524C50.2907 23.5709 50.416 23.5895 50.5182 23.6081C50.5182 23.6359 50.5135 23.6638 50.5042 23.6917C50.5042 23.7102 50.5042 23.7288 50.5042 23.7474C50.5042 23.766 50.5135 23.7799 50.5321 23.7892C50.56 23.7892 50.5878 23.7938 50.6157 23.8031C50.6528 23.8031 50.6853 23.8124 50.7132 23.831C50.741 23.8402 50.7689 23.8681 50.7967 23.9145L50.5182 23.1763ZM47.4956 20.1955C47.5142 20.1955 47.5188 20.2094 47.5095 20.2373C47.5095 20.2559 47.5142 20.2651 47.5234 20.2651C47.542 20.2651 47.5977 20.2001 47.6906 20.0701C47.7834 19.9401 47.8902 19.7916 48.011 19.6244C48.1317 19.4573 48.2477 19.2994 48.3592 19.1508C48.4706 19.0022 48.5495 18.9047 48.596 18.8583L48.5263 18.7608C48.3313 18.9465 48.1502 19.1647 47.9831 19.4155C47.8159 19.6662 47.6534 19.9262 47.4956 20.1955ZM48.9024 18.6912C49.1996 19.1926 49.4735 19.7173 49.7242 20.2651C49.9657 20.8037 50.1932 21.3423 50.4067 21.8809C50.2303 21.3423 50.0167 20.8037 49.766 20.2651C49.506 19.7173 49.2228 19.1926 48.9163 18.6912H48.9024ZM51.0335 20.7805C51.3214 21.5234 51.6046 22.2802 51.8832 23.0509C51.6232 22.2988 51.3493 21.5559 51.0614 20.8223C50.7921 20.098 50.481 19.369 50.1282 18.6354C50.4625 19.3412 50.7642 20.0562 51.0335 20.7805ZM48.986 18.3847C49.1067 18.4126 49.1903 18.4404 49.2367 18.4683C49.2831 18.4962 49.3156 18.5101 49.3342 18.5101L49.3481 18.4683C49.3574 18.4683 49.3388 18.4637 49.2924 18.4544C49.246 18.4451 49.2088 18.4358 49.181 18.4265L49.2088 18.3708L49.0417 18.3151L48.986 18.3847ZM48.3035 18.2454L48.4149 18.5379L48.401 18.2454C48.3824 18.2454 48.3592 18.2408 48.3313 18.2315C48.3127 18.2222 48.2942 18.2176 48.2756 18.2176L48.3035 18.2454ZM48.6656 18.6494L48.5681 18.719L48.6517 18.8305L48.7353 18.7469L48.6656 18.6494ZM48.8606 18.6215H48.8745L48.8049 18.524V18.5379L48.8606 18.6215ZM61.8203 18.4126L61.7785 18.6633C61.7321 19.1183 61.7043 19.6058 61.695 20.1258C61.6857 20.6366 61.6485 21.1519 61.5835 21.672C61.6578 21.1612 61.7182 20.6598 61.7646 20.1676C61.811 19.6569 61.8575 19.1555 61.9039 18.6633C61.9503 18.8119 61.9875 18.9697 62.0153 19.1369C62.0525 19.304 62.071 19.4805 62.071 19.6662C62.0246 20.1305 61.9828 20.5762 61.9457 21.0034C61.9085 21.4305 61.8575 21.8763 61.7925 22.3406L61.6114 22.3823C61.565 22.8095 61.4675 23.2738 61.3189 23.7752C61.1703 24.2767 60.9521 24.741 60.6642 25.1681C60.3856 25.5953 60.0235 25.9528 59.5778 26.2407C59.132 26.5192 58.5981 26.6585 57.9759 26.6585C57.7716 26.6585 57.5534 26.6446 57.3213 26.6167C57.0984 26.5796 56.8802 26.5285 56.6666 26.4635C56.453 26.3892 56.2487 26.2964 56.0537 26.1849C55.8587 26.0735 55.6916 25.9342 55.5523 25.7671L55.5662 25.7949V25.8089L55.5523 25.8228L55.5105 25.8089C55.5662 25.8924 55.6266 25.9667 55.6916 26.0317C55.5244 25.8832 55.3712 25.7114 55.2319 25.5164C54.9998 25.2006 54.8141 24.8246 54.6748 24.3881C54.5912 24.1281 54.5262 23.8635 54.4798 23.5942C54.4333 23.3249 54.4008 23.0416 54.3823 22.7445C54.3637 22.4381 54.3498 22.1084 54.3405 21.7555C54.3405 21.4027 54.3405 21.0127 54.3405 20.5855C54.424 20.2512 54.489 19.9169 54.5355 19.5826C54.5819 19.2483 54.6144 18.914 54.633 18.5797C54.6608 18.5797 54.6933 18.5751 54.7305 18.5658C54.7676 18.5565 54.8048 18.5519 54.8419 18.5519C54.9069 18.5519 54.9626 18.589 55.0091 18.6633C55.0648 18.7376 55.0926 18.8955 55.0926 19.1369V19.2623C55.0926 19.2994 55.088 19.3412 55.0787 19.3876H55.2459C55.3201 18.9976 55.4084 18.7004 55.5105 18.4962C55.6127 18.2919 55.7148 18.1897 55.8169 18.1897C55.8912 18.1897 55.9562 18.2965 56.0119 18.5101C56.0769 18.7144 56.1095 19.0394 56.1095 19.4851C56.1095 19.8101 56.1002 20.1398 56.0816 20.4741C56.063 20.8084 56.0537 21.1519 56.0537 21.5048C56.0537 22.0527 56.0769 22.5495 56.1234 22.9952C56.1791 23.4409 56.2812 23.8217 56.4298 24.1374C56.5784 24.4531 56.7873 24.6992 57.0566 24.8756C57.3352 25.0428 57.6927 25.1263 58.1292 25.1263C58.4913 25.1263 58.7931 25.0149 59.0345 24.7921C59.276 24.5692 59.4803 24.272 59.6474 23.9006C59.8146 23.5292 59.9538 23.102 60.0653 22.6191C60.186 22.127 60.2974 21.6162 60.3996 21.0869C60.4181 20.9384 60.4321 20.7898 60.4414 20.6412C60.4506 20.4926 60.4553 20.3394 60.4553 20.1816V19.7498C60.4553 19.4805 60.4692 19.253 60.4971 19.0672C60.5249 18.8815 60.6039 18.7747 60.7339 18.7469C60.7339 19.2205 60.7199 19.6894 60.6921 20.1537C60.6735 20.5994 60.6364 21.0452 60.5806 21.4909C60.6457 21.0544 60.6967 20.618 60.7339 20.1816C60.771 19.7265 60.7989 19.2623 60.8174 18.7887C60.8732 18.8258 60.9196 18.8444 60.9567 18.8444C60.9939 18.8444 61.031 18.8258 61.0682 18.7887V18.2872C61.1146 18.1201 61.161 18.004 61.2075 17.939C61.2539 17.8647 61.305 17.8276 61.3607 17.8276C61.4164 17.8276 61.4721 17.8554 61.5278 17.9111C61.5835 17.9669 61.6393 18.0365 61.695 18.1201L61.8203 18.4126ZM56.0677 26.3103C56.2905 26.431 56.518 26.5285 56.7502 26.6028C56.9916 26.6678 57.2145 26.7142 57.4188 26.7421C57.6324 26.77 57.8041 26.7839 57.9341 26.7839C58.5842 26.7839 59.1367 26.64 59.5917 26.3521C60.0467 26.0642 60.4181 25.7067 60.706 25.2796C61.0032 24.8431 61.2307 24.3788 61.3885 23.8867C61.5371 23.4224 61.6485 22.9952 61.7228 22.6052C61.6578 22.9952 61.5557 23.427 61.4164 23.9006C61.2585 24.402 61.031 24.871 60.7339 25.3074C60.446 25.7439 60.0792 26.1107 59.6335 26.4078C59.1878 26.705 58.6492 26.8535 58.0177 26.8535C57.6649 26.8535 57.3166 26.8071 56.973 26.7142C56.6295 26.6214 56.3091 26.4775 56.0119 26.2825C56.0305 26.2917 56.0491 26.301 56.0677 26.3103ZM61.4025 22.8838C61.4303 22.7259 61.4535 22.5727 61.4721 22.4241C61.4907 22.2941 61.5092 22.1641 61.5278 22.0341C61.4721 22.4427 61.3792 22.8745 61.2492 23.3295C61.1192 23.8031 60.9382 24.2535 60.706 24.6806C60.4739 25.0985 60.1814 25.4699 59.8285 25.7949C59.4942 26.1014 59.1042 26.3103 58.6585 26.4217C59.0485 26.3382 59.3967 26.1757 59.7031 25.9342C60.0188 25.6835 60.2881 25.391 60.511 25.0567C60.7339 24.7224 60.9149 24.3649 61.0542 23.9842C61.2028 23.6034 61.3189 23.2366 61.4025 22.8838ZM60.0235 23.8588C59.9213 24.0631 59.8053 24.2581 59.6753 24.4438C59.5545 24.6295 59.4153 24.7967 59.2574 24.9453C59.4245 24.806 59.5685 24.6435 59.6892 24.4578C59.8192 24.272 59.9306 24.0724 60.0235 23.8588ZM56.0119 26.2825C55.9005 26.2082 55.7937 26.1246 55.6916 26.0317C55.7937 26.1246 55.9005 26.2082 56.0119 26.2825ZM61.7368 22.5077L61.7228 22.6052L61.7368 22.5077ZM61.5417 21.9645C61.5325 21.9923 61.5278 22.0155 61.5278 22.0341C61.5278 22.0155 61.5325 21.9923 61.5417 21.9645ZM64.6239 24.6528C64.7724 24.6992 64.9489 24.7828 65.1532 24.9035C65.3667 25.0242 65.6035 25.1496 65.8635 25.2796C66.1235 25.4096 66.4068 25.5256 66.7132 25.6278C67.0289 25.7299 67.3632 25.781 67.7161 25.781H67.8693C67.925 25.781 67.99 25.7717 68.0643 25.7531L68.2175 25.8646C68.5797 25.7531 68.8768 25.5442 69.109 25.2378C69.3411 24.9221 69.4572 24.4995 69.4572 23.9702C69.4572 23.5895 69.3643 23.3295 69.1786 23.1902C69.0022 23.0416 68.6725 22.9674 68.1897 22.9674C67.8925 22.9674 67.5814 22.9906 67.2564 23.037C66.9407 23.0741 66.6064 23.0927 66.2535 23.0927C66.0957 23.0927 65.9332 23.0881 65.766 23.0788C65.5989 23.0602 65.4271 23.0277 65.2507 22.9813V23.0649C65.6221 23.1577 65.9889 23.2041 66.351 23.2041C66.7039 23.2041 67.0382 23.1856 67.3539 23.1484C67.6789 23.102 67.99 23.0788 68.2872 23.0788C68.5379 23.0788 68.7329 23.1066 68.8722 23.1624C69.0208 23.2088 69.1322 23.2738 69.2065 23.3574C69.2808 23.4409 69.3272 23.5431 69.3458 23.6638C69.3736 23.7752 69.3876 23.9006 69.3876 24.0399C69.3876 24.4763 69.2715 24.8478 69.0393 25.1542C68.8165 25.4421 68.5518 25.6231 68.2454 25.6974C68.589 25.5767 68.8583 25.3678 69.0533 25.0706C69.2576 24.7549 69.3597 24.402 69.3597 24.012C69.3597 23.7334 69.2854 23.5199 69.1368 23.3713C68.9976 23.2227 68.7515 23.1484 68.3986 23.1484C68.1107 23.1484 67.7857 23.167 67.4236 23.2041C67.0614 23.2413 66.6761 23.2599 66.2675 23.2599C66.0168 23.2599 65.7242 23.2274 65.39 23.1624C65.0649 23.0974 64.7539 22.9766 64.4567 22.8002C64.1596 22.6238 63.9088 22.3823 63.7045 22.0759C63.5003 21.7602 63.3981 21.3516 63.3981 20.8502C63.3981 20.4509 63.477 20.0841 63.6349 19.7498C63.802 19.4062 64.0203 19.109 64.2896 18.8583C64.5589 18.5983 64.8653 18.394 65.2089 18.2454C65.5617 18.0969 65.9239 18.0179 66.2953 18.0086C66.6482 18.0086 66.9825 18.0597 67.2982 18.1619C67.6232 18.2547 67.9297 18.3801 68.2175 18.5379C68.5054 18.6865 68.7793 18.8537 69.0393 19.0394C69.2993 19.2251 69.5408 19.4108 69.7636 19.5965L69.4851 19.8751C69.4201 19.8751 69.3226 19.838 69.1926 19.7637C69.0626 19.6801 68.8629 19.5408 68.5936 19.3458L68.51 19.4712C68.8443 19.7405 69.0858 19.9912 69.2343 20.2233C69.3922 20.4555 69.4711 20.6366 69.4711 20.7666C69.4526 20.8409 69.4061 20.878 69.3318 20.878C69.2576 20.878 69.109 20.8177 68.8861 20.6969C68.6633 20.5762 68.4079 20.4416 68.12 20.293C67.8414 20.1444 67.5443 20.0098 67.2286 19.8891C66.9129 19.7683 66.625 19.708 66.365 19.708C66.2164 19.708 66.0678 19.7358 65.9193 19.7916C65.7707 19.8473 65.636 19.9262 65.5153 20.0283C65.3946 20.1212 65.2924 20.2373 65.2089 20.3766C65.1346 20.5159 65.0974 20.6691 65.0974 20.8362C65.0974 21.1055 65.2228 21.2866 65.4735 21.3795C65.7242 21.4723 66.0539 21.5187 66.4625 21.5187C66.5461 21.5187 66.6343 21.5187 66.7271 21.5187C66.8293 21.5095 66.9221 21.4955 67.0057 21.477C67.2193 21.477 67.3586 21.4723 67.4236 21.463C67.4979 21.4445 67.5675 21.4352 67.6325 21.4352C68.0318 21.4352 68.4311 21.463 68.8304 21.5187C69.2297 21.5745 69.5872 21.6952 69.9029 21.8809C70.2187 22.0666 70.474 22.3313 70.669 22.6748C70.864 23.0184 70.9615 23.4781 70.9615 24.0538C70.9615 24.4531 70.8919 24.8524 70.7526 25.2517C70.6226 25.6417 70.423 25.9946 70.1537 26.3103C69.8844 26.6167 69.5501 26.8628 69.1508 27.0485C68.7515 27.2435 68.2825 27.3411 67.7439 27.3411C67.4189 27.3411 67.0336 27.276 66.5878 27.146C66.1514 27.0253 65.7335 26.8814 65.3342 26.7142C64.9442 26.5378 64.6099 26.3567 64.3313 26.171C64.0621 25.9853 63.9274 25.8274 63.9274 25.6974C63.9274 25.6603 63.9506 25.6324 63.9971 25.6139C64.5635 26.0317 65.1392 26.3753 65.7242 26.6446C66.3 26.8953 66.8896 27.0346 67.4932 27.0625C67.1961 27.0439 66.8989 26.9928 66.6018 26.9093C66.2953 26.8164 65.9889 26.705 65.6825 26.575C65.3853 26.4357 65.0974 26.2825 64.8189 26.1153C64.5496 25.9389 64.2896 25.7624 64.0388 25.586L64.2478 25.4049C64.2199 25.3956 64.1688 25.3631 64.0946 25.3074C64.0203 25.2517 63.946 25.1821 63.8717 25.0985C63.8067 25.0149 63.7463 24.9267 63.6906 24.8338C63.6349 24.741 63.607 24.6528 63.607 24.5692C63.607 24.4763 63.6256 24.416 63.6628 24.3881C63.6999 24.3603 63.7417 24.3463 63.7881 24.3463C63.8345 24.3463 63.9321 24.3788 64.0806 24.4438C64.2292 24.5088 64.4103 24.5785 64.6239 24.6528ZM67.7022 26.0735C67.3772 26.0735 67.015 26.0085 66.6157 25.8785C66.2257 25.7392 65.8542 25.5628 65.5014 25.3492C65.7892 25.5442 66.1096 25.7206 66.4625 25.8785C66.8153 26.0271 67.2239 26.1014 67.6882 26.1014C68.3104 26.1014 68.8025 25.911 69.1647 25.5303C69.5361 25.1496 69.7219 24.6388 69.7219 23.9981V23.8588C69.6754 23.5617 69.5733 23.3202 69.4154 23.1345C69.2668 22.9395 69.0347 22.8327 68.719 22.8141C68.914 22.8513 69.0718 22.9116 69.1926 22.9952C69.3226 23.0788 69.4201 23.1809 69.4851 23.3017C69.5594 23.4131 69.6104 23.5384 69.6383 23.6777C69.6661 23.817 69.6801 23.961 69.6801 24.1095C69.6429 24.7224 69.4479 25.2053 69.0951 25.5581C68.7422 25.9017 68.2779 26.0735 67.7022 26.0735ZM69.4711 26.6167C69.7033 26.4682 69.889 26.2871 70.0283 26.0735C70.1676 25.8599 70.2883 25.6371 70.3905 25.4049C70.1954 25.7949 69.9262 26.1385 69.5826 26.4357C69.2483 26.7328 68.849 26.9185 68.3847 26.9928C68.5611 26.965 68.7422 26.9278 68.9279 26.8814C69.1229 26.8257 69.304 26.7375 69.4711 26.6167ZM70.7944 23.9981C70.7944 23.896 70.7758 23.7985 70.7387 23.7056C70.7108 23.6313 70.6876 23.5524 70.669 23.4688L70.683 23.6499C70.6922 23.7242 70.6969 23.8263 70.6969 23.9563C70.6969 24.207 70.669 24.4485 70.6133 24.6806C70.5576 24.9128 70.488 25.1403 70.4044 25.3631C70.488 25.1588 70.5669 24.9453 70.6412 24.7224C70.7247 24.4903 70.7758 24.2488 70.7944 23.9981ZM70.669 23.427C70.669 23.4363 70.669 23.4502 70.669 23.4688C70.669 23.4502 70.669 23.4363 70.669 23.427ZM68.2315 25.7114C68.2222 25.7114 68.2129 25.7114 68.2036 25.7114C68.2129 25.7114 68.2222 25.7114 68.2315 25.7114ZM71.861 25.9621C71.861 25.9064 71.8935 25.8553 71.9585 25.8089C72.0235 25.7624 72.0978 25.7206 72.1814 25.6835C72.2743 25.6464 72.3625 25.6139 72.4461 25.586C72.5389 25.5581 72.6086 25.5349 72.655 25.5164C73.1007 25.5721 73.5464 25.6185 73.9922 25.6556C74.4379 25.6928 74.8836 25.7114 75.3294 25.7114C75.4965 25.7114 75.7287 25.7114 76.0258 25.7114C76.323 25.7021 76.648 25.6835 77.0008 25.6556C77.3537 25.6278 77.7112 25.586 78.0734 25.5303C78.4355 25.4653 78.7652 25.3771 79.0623 25.2656C79.3595 25.1542 79.6009 25.0149 79.7866 24.8478C79.9723 24.6806 80.0652 24.4717 80.0652 24.221C80.0652 24.0167 80.0188 23.8356 79.9259 23.6777C79.8423 23.5106 79.7263 23.3667 79.5777 23.2459C79.4384 23.1159 79.2805 23.0091 79.1041 22.9256C79.0391 22.8884 78.9695 22.8559 78.8952 22.8281C78.9695 22.8652 79.0391 22.9024 79.1041 22.9395C79.2713 23.0324 79.4198 23.1484 79.5498 23.2877C79.6891 23.4177 79.8006 23.5663 79.8841 23.7334C79.9677 23.8913 80.0095 24.0724 80.0095 24.2767C80.0095 24.4995 79.9259 24.6899 79.7588 24.8478C79.6009 24.9963 79.392 25.1217 79.132 25.2238C78.8812 25.326 78.598 25.4049 78.2823 25.4606C77.9759 25.5164 77.6694 25.5581 77.363 25.586C77.0565 25.6139 76.7733 25.6324 76.5133 25.6417C76.2533 25.6417 76.049 25.6417 75.9004 25.6417C75.4269 25.6417 74.9486 25.6278 74.4658 25.5999C73.9922 25.5628 73.5186 25.521 73.045 25.4746C73.2122 25.4281 73.3793 25.3956 73.5464 25.3771C73.7229 25.3492 73.8993 25.3353 74.0757 25.3353C74.3729 25.3353 74.6654 25.3399 74.9533 25.3492C75.2411 25.3492 75.529 25.3492 75.8169 25.3492C76.1605 25.3492 76.4994 25.3446 76.8337 25.3353C77.168 25.3167 77.5116 25.2796 77.8644 25.2238L77.9062 25.391C78.0455 25.3631 78.2219 25.3214 78.4355 25.2656C78.6491 25.2006 78.8534 25.1217 79.0484 25.0288C79.2527 24.936 79.4245 24.8199 79.5638 24.6806C79.7123 24.5413 79.7866 24.3788 79.7866 24.1931C79.7866 23.9238 79.6891 23.687 79.4941 23.4827C79.2991 23.2784 79.0484 23.0974 78.742 22.9395C78.4448 22.7724 78.1059 22.6284 77.7251 22.5077C77.3444 22.387 76.9683 22.2802 76.5969 22.1873C76.2347 22.0945 75.8912 22.0109 75.5661 21.9366C75.2411 21.8623 74.9811 21.7927 74.7861 21.7277V21.8113C74.9811 21.8855 75.2365 21.9645 75.5522 22.048C75.8679 22.1223 76.2069 22.2059 76.569 22.2988C76.9405 22.3916 77.3119 22.4984 77.6834 22.6191C78.0548 22.7306 78.3891 22.8652 78.6862 23.0231C78.9927 23.1809 79.2388 23.362 79.4245 23.5663C79.6195 23.7706 79.717 24.0027 79.717 24.2627C79.717 24.4113 79.6473 24.5413 79.508 24.6528C79.3688 24.7642 79.2016 24.8617 79.0066 24.9453C78.8209 25.0196 78.6305 25.0799 78.4355 25.1263C78.2405 25.1728 78.0919 25.2053 77.9898 25.2238C78.1105 25.196 78.2637 25.1588 78.4494 25.1124C78.6445 25.0567 78.8302 24.9871 79.0066 24.9035C79.1923 24.8199 79.3502 24.7224 79.4802 24.611C79.6102 24.4903 79.6752 24.351 79.6752 24.1931C79.6752 23.9331 79.573 23.7149 79.3688 23.5384C79.1645 23.362 78.8952 23.2041 78.5609 23.0649C78.2266 22.9256 77.8459 22.8002 77.4187 22.6888C76.9915 22.5773 76.5505 22.4566 76.0954 22.3266C75.6497 22.1966 75.2133 22.048 74.7861 21.8809C74.359 21.7137 73.9782 21.5048 73.644 21.2541C73.3097 21.0034 73.0404 20.7062 72.8361 20.3626C72.6318 20.0191 72.5296 19.6058 72.5296 19.123C72.5296 18.6494 72.6411 18.2501 72.8639 17.9251C73.0961 17.5908 73.3886 17.3215 73.7415 17.1172C74.1036 16.9036 74.4983 16.7504 74.9254 16.6575C75.3526 16.5647 75.7658 16.5182 76.1651 16.5182C76.7501 16.5182 77.3212 16.6018 77.8784 16.769C78.4448 16.9361 78.9787 17.1683 79.4802 17.4654C79.4245 17.484 79.392 17.5118 79.3827 17.549C79.3734 17.5768 79.3641 17.6093 79.3548 17.6465C79.3548 17.6836 79.3455 17.7161 79.327 17.744C79.3177 17.7719 79.2898 17.7858 79.2434 17.7858C79.2063 17.7858 79.132 17.7719 79.0205 17.744C78.9184 17.7068 78.807 17.6697 78.6862 17.6326C78.5655 17.5861 78.4494 17.5443 78.338 17.5072C78.2266 17.4701 78.1523 17.4422 78.1152 17.4236L78.0734 17.549C78.1569 17.5861 78.2637 17.6418 78.3937 17.7161C78.533 17.7811 78.663 17.8647 78.7837 17.9669C78.9137 18.0597 79.0205 18.1619 79.1041 18.2733C79.197 18.3847 79.2434 18.4962 79.2434 18.6076C79.2434 18.7283 79.1877 18.7887 79.0762 18.7887C78.937 18.7887 78.7698 18.7515 78.5748 18.6772C78.3891 18.6029 78.1802 18.524 77.948 18.4404C77.7159 18.3476 77.4651 18.264 77.1958 18.1897C76.9358 18.1154 76.6712 18.0783 76.4019 18.0783C76.2255 18.0783 76.0165 18.0969 75.7751 18.134C75.5429 18.1619 75.3154 18.2222 75.0926 18.3151C74.879 18.3987 74.6979 18.5194 74.5493 18.6772C74.4008 18.8258 74.3265 19.0162 74.3265 19.2483C74.3265 19.4619 74.424 19.643 74.619 19.7916C74.8233 19.9401 75.0879 20.0748 75.4129 20.1955C75.7472 20.3162 76.1233 20.4323 76.5412 20.5437C76.959 20.6551 77.3862 20.7805 77.8226 20.9198C78.2684 21.0498 78.7002 21.203 79.118 21.3795C79.5359 21.5559 79.9073 21.7695 80.2324 22.0202C80.5666 22.2709 80.8313 22.5681 81.0263 22.9116C81.2306 23.2552 81.3327 23.6592 81.3327 24.1235C81.3327 24.5785 81.2399 24.9638 81.0542 25.2796C80.8684 25.5953 80.6224 25.8599 80.3159 26.0735C80.0095 26.2778 79.6613 26.4403 79.2713 26.561C78.8812 26.6725 78.4773 26.7607 78.0594 26.8257C77.6509 26.8814 77.2423 26.9139 76.8337 26.9232C76.4344 26.9418 76.0722 26.951 75.7472 26.951H74.3543C74.2708 26.951 74.1547 26.9464 74.0061 26.9371C73.8668 26.9371 73.7275 26.9278 73.5882 26.9093C73.4489 26.9 73.3282 26.8768 73.2261 26.8396C73.1239 26.8025 73.0729 26.756 73.0729 26.7003L73.0868 26.6307C73.4675 26.6492 73.8436 26.6678 74.215 26.6864C74.5865 26.6957 74.9626 26.7003 75.3433 26.7003C75.6962 26.7003 76.049 26.7003 76.4019 26.7003C76.7176 26.691 77.0333 26.6725 77.3491 26.6446C77.1912 26.6539 77.0333 26.6632 76.8755 26.6725C76.6805 26.6725 76.4901 26.6725 76.3044 26.6725H75.7472C74.8743 26.6725 74.0154 26.6446 73.1704 26.5889C73.1889 26.5146 73.1982 26.4635 73.1982 26.4357C73.1982 26.3985 73.1889 26.3614 73.1704 26.3242C73.1518 26.3242 73.1239 26.3289 73.0868 26.3382C73.0589 26.3382 73.0218 26.3382 72.9754 26.3382C72.8732 26.3382 72.7571 26.3335 72.6271 26.3242C72.5064 26.315 72.3857 26.2964 72.265 26.2685C72.1536 26.2407 72.056 26.2035 71.9725 26.1571C71.8982 26.1014 71.861 26.0364 71.861 25.9621ZM80.4134 25.5999C80.2556 25.7392 80.0884 25.8553 79.912 25.9482C79.7541 26.0317 79.5916 26.1107 79.4245 26.1849C79.5916 26.1292 79.7541 26.0642 79.912 25.9899C80.0884 25.9157 80.2556 25.7857 80.4134 25.5999ZM83.5887 30.9347C83.6073 30.4147 83.6212 29.8993 83.6305 29.3886C83.6398 28.8872 83.6444 28.3532 83.6444 27.7868C83.6444 27.5453 83.6398 27.3039 83.6305 27.0625C83.6212 26.8303 83.6073 26.6028 83.5887 26.38V27.9121C83.5887 28.4229 83.5794 28.929 83.5608 29.4304C83.5515 29.9411 83.519 30.4426 83.4633 30.9347C83.4169 30.8512 83.3751 30.7629 83.338 30.6701C83.3008 30.5865 83.273 30.4936 83.2544 30.3915C83.273 30.1408 83.2823 29.9086 83.2823 29.695C83.2915 29.4908 83.2962 29.2632 83.2962 29.0125L83.4633 28.929C83.4355 28.7339 83.4169 28.5343 83.4076 28.33C83.3983 28.135 83.3937 27.94 83.3937 27.745C83.3937 27.5314 83.3937 27.3225 83.3937 27.1182C83.403 26.9232 83.4076 26.7189 83.4076 26.5053C83.4076 26.2453 83.3983 25.9899 83.3798 25.7392C83.3705 25.4792 83.3426 25.2192 83.2962 24.9592H83.2544C83.273 25.3492 83.2869 25.7346 83.2962 26.1153C83.3148 26.496 83.324 26.8768 83.324 27.2575C83.324 27.4246 83.3194 27.5918 83.3101 27.7589L83.2962 28.1211C83.2776 27.2296 83.2451 26.3567 83.1987 25.5024C83.1615 24.5924 83.0965 23.6592 83.0037 22.7027L83.0594 21.5466C82.9572 21.5373 82.8505 21.5327 82.739 21.5327H82.4187L82.3769 21.2123C82.3769 21.1659 82.4094 21.1241 82.4744 21.0869C82.5394 21.0498 82.6694 21.0312 82.8644 21.0312H83.0037V20.8641C82.6972 20.8269 82.4558 20.7619 82.2794 20.6691C82.1122 20.5762 82.0286 20.4787 82.0286 20.3766C82.0286 20.2837 82.1122 20.2048 82.2794 20.1398C82.4465 20.0655 82.6601 20.0098 82.9201 19.9726C83.1894 19.9262 83.4819 19.8937 83.7976 19.8751C84.1133 19.8566 84.4198 19.8473 84.7169 19.8473C85.0419 19.8473 85.3902 19.8566 85.7616 19.8751C86.1423 19.8937 86.5231 19.9401 86.9038 20.0144C87.2845 20.0887 87.6513 20.2048 88.0042 20.3626C88.3663 20.5112 88.6913 20.7248 88.9792 21.0034C89.2671 21.2727 89.5039 21.6162 89.6896 22.0341C89.8846 22.4427 90.0099 22.9441 90.0657 23.5384C90.0657 24.0399 89.9542 24.4531 89.7314 24.7781C89.5178 25.0938 89.2578 25.3492 88.9513 25.5442C88.6449 25.7392 88.3245 25.8785 87.9902 25.9621C87.6652 26.0457 87.3959 26.1014 87.1824 26.1292C86.9688 26.1757 86.7227 26.2314 86.4441 26.2964C86.1655 26.3521 85.9288 26.38 85.7337 26.38C85.5202 26.38 85.3948 26.3567 85.3577 26.3103C85.3205 26.2639 85.302 26.2035 85.302 26.1292C85.7198 26.1107 86.1377 26.0782 86.5556 26.0317C86.9734 25.976 87.3913 25.8832 87.8092 25.7531C87.3913 25.8553 86.9734 25.9342 86.5556 25.9899C86.1377 26.0364 85.7198 26.0689 85.302 26.0874C85.302 26.0317 85.2973 25.976 85.288 25.9203C85.2787 25.8553 85.2509 25.8228 85.2044 25.8228C85.1116 25.8228 85.0373 25.9714 84.9816 26.2685C84.9352 26.5657 84.898 26.9185 84.8702 27.3271C84.8516 27.745 84.8377 28.1721 84.8284 28.6086C84.8284 29.045 84.8284 29.4072 84.8284 29.695C84.8284 29.8251 84.833 29.9597 84.8423 30.099C84.8609 30.2476 84.8702 30.3729 84.8702 30.4751C84.8702 30.5679 84.8562 30.6469 84.8284 30.7119C84.8005 30.7769 84.7216 30.8094 84.5916 30.8094V29.0543C84.573 29.3515 84.5591 29.644 84.5498 29.9318C84.5498 30.2197 84.5498 30.5122 84.5498 30.8094H84.2991V30.9208C84.2991 31.0044 84.313 31.0647 84.3409 31.1019C84.2387 31.2783 84.1226 31.3665 83.9926 31.3665C83.8905 31.3665 83.8116 31.3387 83.7558 31.2829C83.7094 31.2272 83.6398 31.1529 83.5469 31.0601L83.5887 30.9347ZM84.9398 25.1263H85.1348C85.4598 25.1263 85.8313 25.1078 86.2491 25.0706C86.6763 25.0335 87.0756 24.9638 87.447 24.8617C87.8185 24.7595 88.1295 24.6156 88.3803 24.4299C88.6403 24.2442 88.7703 24.0027 88.7703 23.7056V23.5942C88.7703 23.5013 88.761 23.3992 88.7424 23.2877C88.7331 23.1763 88.696 23.0695 88.631 22.9674C88.6403 23.0138 88.6635 23.1066 88.7006 23.2459C88.7378 23.3852 88.7563 23.5013 88.7563 23.5942C88.7563 23.882 88.6542 24.1188 88.4499 24.3045C88.2549 24.481 88.0042 24.6249 87.6977 24.7363C87.4006 24.8385 87.0709 24.9128 86.7088 24.9592C86.3559 24.9963 86.017 25.0149 85.692 25.0149H85.4134C85.3205 25.0149 85.2277 25.0103 85.1348 25.001C85.2648 24.8988 85.432 24.8292 85.6362 24.7921C85.8498 24.7456 86.0727 24.7085 86.3048 24.6806C86.537 24.6528 86.7645 24.6249 86.9874 24.597C87.2102 24.5692 87.4006 24.5228 87.5584 24.4578L87.642 24.6249C87.967 24.467 88.1945 24.3138 88.3245 24.1652C88.4638 24.0074 88.5335 23.7938 88.5335 23.5245C88.5335 23.0974 88.4128 22.7213 88.1713 22.3963C87.9392 22.0713 87.6234 21.853 87.2241 21.7416L87.1824 21.8252C87.5259 21.9552 87.8231 22.1688 88.0738 22.4659C88.3245 22.7631 88.4499 23.1206 88.4499 23.5384C88.4499 23.7613 88.3988 23.9377 88.2967 24.0677C88.2038 24.1792 88.0552 24.2813 87.851 24.3742C88.0181 24.2999 88.1435 24.207 88.227 24.0956C88.3292 23.9656 88.3988 23.8217 88.436 23.6638C88.436 23.2738 88.3431 22.9441 88.1574 22.6748C87.9717 22.4056 87.7117 22.192 87.3774 22.0341C87.0431 21.867 86.6391 21.7509 86.1655 21.6859C85.7012 21.6116 85.1859 21.5745 84.6194 21.5745C84.6937 21.9738 84.7355 22.4102 84.7448 22.8838C84.7634 23.3481 84.7959 23.8031 84.8423 24.2488L84.9398 25.1263ZM83.533 22.9952C83.5515 22.9766 83.5701 22.8977 83.5887 22.7584C83.6073 22.6191 83.6212 22.4706 83.6305 22.3127C83.649 22.1455 83.663 21.9923 83.6723 21.853C83.6908 21.7045 83.7094 21.6162 83.728 21.5884L83.5469 21.5745L83.533 22.9952ZM87.7813 24.402L87.851 24.3742L87.7813 24.402ZM96.5319 27.146C96.179 27.2668 95.9097 27.3318 95.724 27.3411C95.5383 27.3596 95.3758 27.3736 95.2365 27.3828C94.7164 27.3828 94.2475 27.2853 93.8296 27.0903C93.4118 26.8953 93.0543 26.6307 92.7571 26.2964C92.46 25.9621 92.2278 25.5721 92.0607 25.1263C91.9028 24.6713 91.8239 24.1885 91.8239 23.6777C91.8239 23.3806 91.8517 23.0741 91.9074 22.7584C91.9632 22.4334 92.0467 22.1177 92.1582 21.8113C92.2696 21.4955 92.4135 21.203 92.59 20.9337C92.7571 20.6644 92.9568 20.423 93.1889 20.2094C92.9475 20.4044 92.7432 20.6366 92.576 20.9059C92.3996 21.1752 92.251 21.4677 92.1303 21.7834C92.0096 22.0898 91.9214 22.4102 91.8657 22.7445C91.8099 23.0695 91.7821 23.3852 91.7821 23.6917C91.7821 24.0817 91.8424 24.4995 91.9632 24.9453C92.0932 25.3817 92.2974 25.7903 92.576 26.171C92.8546 26.5425 93.2121 26.8535 93.6486 27.1043C94.0943 27.355 94.6329 27.4803 95.2643 27.4803C95.5615 27.4803 95.8726 27.4386 96.1976 27.355C95.8447 27.5871 95.45 27.7032 95.0136 27.7032C94.6607 27.7032 94.3264 27.6475 94.0107 27.5361C93.7043 27.4339 93.4164 27.2853 93.1471 27.0903C92.8871 26.9046 92.6503 26.6817 92.4367 26.4217C92.2232 26.1617 92.0421 25.8832 91.8935 25.586L92.0189 25.4746C91.861 25.1588 91.7449 24.8431 91.6706 24.5274C91.6056 24.2117 91.5731 23.8913 91.5731 23.5663C91.5731 23.0927 91.6381 22.6377 91.7681 22.2013C91.9074 21.7648 92.0885 21.3516 92.3114 20.9616L92.6457 20.5019C92.7014 20.3998 92.7803 20.2976 92.8825 20.1955C92.9939 20.0933 93.1146 19.9958 93.2446 19.903C93.3746 19.8008 93.5093 19.7126 93.6486 19.6383C93.7971 19.5548 93.9364 19.4805 94.0664 19.4155C94.4007 19.2483 94.735 19.0997 95.0693 18.9697C95.4036 18.8305 95.7936 18.7283 96.2393 18.6633L96.1836 18.6215C95.3293 18.7051 94.605 18.914 94.0107 19.2483C93.4164 19.5733 92.9335 19.9726 92.5621 20.4462C92.1907 20.9198 91.9214 21.4398 91.7542 22.0063C91.5871 22.5634 91.5035 23.1113 91.5035 23.6499C91.5035 23.9377 91.5267 24.2302 91.5731 24.5274C91.6289 24.8153 91.7078 25.1031 91.8099 25.391C91.5778 24.8338 91.4617 24.2442 91.4617 23.622C91.4617 23.0091 91.5639 22.4009 91.7681 21.7973C91.9724 21.1937 92.2928 20.6366 92.7292 20.1258C93.2864 19.6151 93.8946 19.2251 94.5539 18.9558C95.2132 18.6772 95.8493 18.5379 96.4622 18.5379C96.6572 18.5379 96.8569 18.5704 97.0612 18.6354C97.2654 18.7004 97.4512 18.8026 97.6183 18.9419C97.7855 19.0719 97.9201 19.2437 98.0223 19.4573C98.1337 19.6708 98.1894 19.9308 98.1894 20.2373C98.1894 20.488 98.129 20.7944 98.0083 21.1566C97.8876 21.5187 97.7065 21.8716 97.4651 22.2152C97.2329 22.5495 96.9404 22.8374 96.5876 23.0788C96.2347 23.3109 95.8261 23.427 95.3618 23.427H94.9022C94.5586 23.3527 94.2429 23.2692 93.955 23.1763C93.6764 23.0741 93.4118 22.9952 93.161 22.9395C93.1239 23.0881 93.1007 23.232 93.0914 23.3713C93.0914 23.5013 93.0914 23.6313 93.0914 23.7613C93.0914 24.0306 93.1193 24.2953 93.175 24.5553C93.24 24.806 93.3375 25.0381 93.4675 25.2517C93.5975 25.4653 93.76 25.6464 93.955 25.7949C94.1593 25.9342 94.4054 26.0224 94.6932 26.0596C94.8697 26.0967 95.0229 26.1199 95.1529 26.1292C95.2829 26.1292 95.3897 26.1339 95.4733 26.1432C95.5661 26.1432 95.6311 26.1571 95.6683 26.1849C95.7147 26.2035 95.7379 26.2453 95.7379 26.3103C95.645 26.3382 95.5475 26.3567 95.4454 26.366C95.3525 26.3753 95.255 26.38 95.1529 26.38C94.8279 26.38 94.5354 26.3289 94.2754 26.2267C94.0154 26.1153 93.7925 25.9899 93.6068 25.8507C93.8203 26.0642 94.0757 26.2174 94.3729 26.3103C94.67 26.3939 94.9625 26.4357 95.2504 26.4357C95.4083 26.4357 95.5708 26.4217 95.7379 26.3939C95.7193 26.4496 95.71 26.4821 95.71 26.4914C95.71 26.5471 95.7333 26.5842 95.7797 26.6028C95.8168 26.5935 95.8818 26.5703 95.9747 26.5332C96.0676 26.4867 96.1604 26.445 96.2533 26.4078C96.3554 26.3614 96.4529 26.3242 96.5458 26.2964C96.6386 26.2592 96.7036 26.2407 96.7408 26.2407C96.7872 26.2407 96.829 26.2499 96.8662 26.2685C96.9033 26.2778 96.9219 26.3289 96.9219 26.4217C96.9219 26.5146 96.8894 26.626 96.8244 26.756C96.7594 26.886 96.6619 27.016 96.5319 27.146ZM94.6097 21.6302L94.9161 21.6859C95.0182 21.7045 95.1111 21.7137 95.1947 21.7137C95.2875 21.7137 95.3943 21.6859 95.515 21.6302C95.645 21.5652 95.7704 21.477 95.8911 21.3655C96.0211 21.2541 96.1326 21.1148 96.2254 20.9477C96.3276 20.7805 96.4019 20.5901 96.4483 20.3766L96.4761 20.293C96.3461 20.293 96.1511 20.3255 95.8911 20.3905C95.6311 20.4555 95.3618 20.5437 95.0832 20.6551C94.8047 20.7573 94.5447 20.8827 94.3032 21.0312C94.0618 21.1705 93.8946 21.3237 93.8018 21.4909C93.9411 21.5187 94.0757 21.5466 94.2057 21.5745C94.345 21.593 94.4797 21.6116 94.6097 21.6302ZM93.9689 22.6609C93.9875 22.6423 93.9968 22.6145 93.9968 22.5773C94.0061 22.5402 94.0107 22.5123 94.0107 22.4938L93.3561 22.257L93.2864 22.452L93.9689 22.6609ZM93.5789 25.8228C93.5139 25.7485 93.4489 25.6742 93.3839 25.5999C93.3282 25.5349 93.2818 25.4699 93.2446 25.4049C93.3282 25.5628 93.4396 25.7021 93.5789 25.8228ZM104.517 27.146C104.164 27.2668 103.894 27.3318 103.709 27.3411C103.523 27.3596 103.36 27.3736 103.221 27.3828C102.701 27.3828 102.232 27.2853 101.814 27.0903C101.396 26.8953 101.039 26.6307 100.742 26.2964C100.445 25.9621 100.212 25.5721 100.045 25.1263C99.8875 24.6713 99.8085 24.1885 99.8085 23.6777C99.8085 23.3806 99.8364 23.0741 99.8921 22.7584C99.9478 22.4334 100.031 22.1177 100.143 21.8113C100.254 21.4955 100.398 21.203 100.575 20.9337C100.742 20.6644 100.941 20.423 101.174 20.2094C100.932 20.4044 100.728 20.6366 100.561 20.9059C100.384 21.1752 100.236 21.4677 100.115 21.7834C99.9943 22.0898 99.906 22.4102 99.8503 22.7445C99.7946 23.0695 99.7667 23.3852 99.7667 23.6917C99.7667 24.0817 99.8271 24.4995 99.9478 24.9453C100.078 25.3817 100.282 25.7903 100.561 26.171C100.839 26.5425 101.197 26.8535 101.633 27.1043C102.079 27.355 102.618 27.4803 103.249 27.4803C103.546 27.4803 103.857 27.4386 104.182 27.355C103.829 27.5871 103.435 27.7032 102.998 27.7032C102.645 27.7032 102.311 27.6475 101.995 27.5361C101.689 27.4339 101.401 27.2853 101.132 27.0903C100.872 26.9046 100.635 26.6817 100.421 26.4217C100.208 26.1617 100.027 25.8832 99.8782 25.586L100.004 25.4746C99.8457 25.1588 99.7296 24.8431 99.6553 24.5274C99.5903 24.2117 99.5578 23.8913 99.5578 23.5663C99.5578 23.0927 99.6228 22.6377 99.7528 22.2013C99.8921 21.7648 100.073 21.3516 100.296 20.9616L100.63 20.5019C100.686 20.3998 100.765 20.2976 100.867 20.1955C100.979 20.0933 101.099 19.9958 101.229 19.903C101.359 19.8008 101.494 19.7126 101.633 19.6383C101.782 19.5548 101.921 19.4805 102.051 19.4155C102.385 19.2483 102.72 19.0997 103.054 18.9697C103.388 18.8305 103.778 18.7283 104.224 18.6633L104.168 18.6215C103.314 18.7051 102.59 18.914 101.995 19.2483C101.401 19.5733 100.918 19.9726 100.547 20.4462C100.175 20.9198 99.906 21.4398 99.7389 22.0063C99.5717 22.5634 99.4882 23.1113 99.4882 23.6499C99.4882 23.9377 99.5114 24.2302 99.5578 24.5274C99.6135 24.8153 99.6925 25.1031 99.7946 25.391C99.5625 24.8338 99.4464 24.2442 99.4464 23.622C99.4464 23.0091 99.5485 22.4009 99.7528 21.7973C99.9571 21.1937 100.277 20.6366 100.714 20.1258C101.271 19.6151 101.879 19.2251 102.539 18.9558C103.198 18.6772 103.834 18.5379 104.447 18.5379C104.642 18.5379 104.842 18.5704 105.046 18.6354C105.25 18.7004 105.436 18.8026 105.603 18.9419C105.77 19.0719 105.905 19.2437 106.007 19.4573C106.118 19.6708 106.174 19.9308 106.174 20.2373C106.174 20.488 106.114 20.7944 105.993 21.1566C105.872 21.5187 105.691 21.8716 105.45 22.2152C105.218 22.5495 104.925 22.8374 104.572 23.0788C104.219 23.3109 103.811 23.427 103.346 23.427H102.887C102.543 23.3527 102.228 23.2692 101.94 23.1763C101.661 23.0741 101.396 22.9952 101.146 22.9395C101.109 23.0881 101.085 23.232 101.076 23.3713C101.076 23.5013 101.076 23.6313 101.076 23.7613C101.076 24.0306 101.104 24.2953 101.16 24.5553C101.225 24.806 101.322 25.0381 101.452 25.2517C101.582 25.4653 101.745 25.6464 101.94 25.7949C102.144 25.9342 102.39 26.0224 102.678 26.0596C102.854 26.0967 103.008 26.1199 103.138 26.1292C103.268 26.1292 103.374 26.1339 103.458 26.1432C103.551 26.1432 103.616 26.1571 103.653 26.1849C103.699 26.2035 103.723 26.2453 103.723 26.3103C103.63 26.3382 103.532 26.3567 103.43 26.366C103.337 26.3753 103.24 26.38 103.138 26.38C102.813 26.38 102.52 26.3289 102.26 26.2267C102 26.1153 101.777 25.9899 101.591 25.8507C101.805 26.0642 102.06 26.2174 102.358 26.3103C102.655 26.3939 102.947 26.4357 103.235 26.4357C103.393 26.4357 103.555 26.4217 103.723 26.3939C103.704 26.4496 103.695 26.4821 103.695 26.4914C103.695 26.5471 103.718 26.5842 103.764 26.6028C103.802 26.5935 103.867 26.5703 103.959 26.5332C104.052 26.4867 104.145 26.445 104.238 26.4078C104.34 26.3614 104.438 26.3242 104.53 26.2964C104.623 26.2592 104.688 26.2407 104.725 26.2407C104.772 26.2407 104.814 26.2499 104.851 26.2685C104.888 26.2778 104.907 26.3289 104.907 26.4217C104.907 26.5146 104.874 26.626 104.809 26.756C104.744 26.886 104.647 27.016 104.517 27.146ZM102.594 21.6302L102.901 21.6859C103.003 21.7045 103.096 21.7137 103.179 21.7137C103.272 21.7137 103.379 21.6859 103.5 21.6302C103.63 21.5652 103.755 21.477 103.876 21.3655C104.006 21.2541 104.117 21.1148 104.21 20.9477C104.312 20.7805 104.387 20.5901 104.433 20.3766L104.461 20.293C104.331 20.293 104.136 20.3255 103.876 20.3905C103.616 20.4555 103.346 20.5437 103.068 20.6551C102.789 20.7573 102.529 20.8827 102.288 21.0312C102.046 21.1705 101.879 21.3237 101.786 21.4909C101.926 21.5187 102.06 21.5466 102.19 21.5745C102.33 21.593 102.464 21.6116 102.594 21.6302ZM101.954 22.6609C101.972 22.6423 101.981 22.6145 101.981 22.5773C101.991 22.5402 101.995 22.5123 101.995 22.4938L101.341 22.257L101.271 22.452L101.954 22.6609ZM101.564 25.8228C101.499 25.7485 101.434 25.6742 101.369 25.5999C101.313 25.5349 101.266 25.4699 101.229 25.4049C101.313 25.5628 101.424 25.7021 101.564 25.8228ZM114.786 16.7272C114.804 16.9965 114.818 17.2611 114.827 17.5211C114.837 17.7719 114.841 18.0319 114.841 18.3012C114.841 18.8583 114.823 19.4201 114.786 19.9866C114.758 20.5437 114.721 21.1102 114.674 21.6859C114.628 22.2616 114.581 22.8513 114.535 23.4549C114.488 24.0585 114.447 24.6853 114.409 25.3353C114.409 25.4374 114.405 25.5442 114.396 25.6556C114.396 25.7578 114.386 25.8739 114.368 26.0039V26.171C114.368 26.1989 114.358 26.236 114.34 26.2825C114.321 26.3289 114.303 26.3614 114.284 26.38C114.163 26.5192 114.052 26.626 113.95 26.7003C113.857 26.7653 113.769 26.8164 113.685 26.8535C113.602 26.8814 113.523 26.8953 113.448 26.8953C113.374 26.9046 113.3 26.9139 113.226 26.9232H113.309C113.337 26.9232 113.388 26.9185 113.462 26.9093C113.546 26.9 113.634 26.886 113.727 26.8675C113.829 26.8396 113.922 26.8071 114.006 26.77C114.098 26.7235 114.163 26.6632 114.201 26.5889L114.326 26.3382C114.382 26.236 114.414 26.1292 114.423 26.0178C114.442 25.8971 114.451 25.781 114.451 25.6696C114.461 25.5489 114.465 25.4328 114.465 25.3214C114.465 25.2099 114.474 25.1031 114.493 25.001C114.521 24.416 114.558 23.831 114.604 23.2459C114.66 22.6609 114.711 22.0713 114.758 21.477C114.804 20.8827 114.846 20.2837 114.883 19.6801C114.92 19.0672 114.939 18.4451 114.939 17.8136C114.939 17.6186 114.934 17.4329 114.925 17.2565C114.925 17.0708 114.92 16.8943 114.911 16.7272C114.939 16.7643 114.967 16.8247 114.994 16.9083C115.032 16.9825 115.059 17.1033 115.078 17.2704C115.124 17.3726 115.152 17.484 115.162 17.6047C115.171 17.7254 115.185 17.8508 115.203 17.9808C115.203 18.6122 115.18 19.2251 115.134 19.8194C115.087 20.4044 115.041 20.9894 114.994 21.5745L114.869 21.6162L114.744 23.9981C114.744 24.6667 114.711 25.2192 114.646 25.6556C114.591 26.0828 114.539 26.366 114.493 26.5053V26.5471C114.354 26.6864 114.233 26.7932 114.131 26.8675C114.038 26.9325 113.95 26.9835 113.866 27.0207C113.783 27.0578 113.704 27.0764 113.629 27.0764C113.564 27.0857 113.495 27.0903 113.421 27.0903H112.529C112.278 27.0625 112.009 27.0485 111.721 27.0485C111.433 27.0578 111.132 27.03 110.816 26.965C110.5 26.9 110.175 26.7653 109.841 26.561C109.516 26.3567 109.186 26.0317 108.852 25.586C108.852 25.6046 108.847 25.6185 108.838 25.6278C108.829 25.6371 108.819 25.651 108.81 25.6696C109.116 26.0874 109.483 26.431 109.91 26.7003C110.347 26.9696 110.816 27.1275 111.317 27.1739H112.487C112.599 27.1925 112.71 27.2018 112.822 27.2018C112.942 27.211 113.072 27.2157 113.212 27.2157C113.351 27.2157 113.532 27.1971 113.755 27.16C113.987 27.1228 114.205 27.0021 114.409 26.7978C114.447 26.7514 114.47 26.7189 114.479 26.7003C114.498 26.6725 114.516 26.6353 114.535 26.5889L114.577 26.5053C114.623 26.4217 114.656 26.3382 114.674 26.2546C114.702 26.1617 114.725 26.0735 114.744 25.9899C114.744 26.0921 114.734 26.1803 114.716 26.2546C114.707 26.3289 114.674 26.4403 114.618 26.5889L114.577 26.6307L114.409 26.8814C114.326 26.965 114.233 27.03 114.131 27.0764C114.029 27.1228 113.931 27.1553 113.838 27.1739C113.746 27.2018 113.657 27.2203 113.574 27.2296C113.499 27.2389 113.444 27.2482 113.407 27.2575H112.947C112.826 27.2575 112.724 27.2528 112.64 27.2435C112.566 27.2435 112.506 27.2389 112.459 27.2296C112.422 27.2296 112.39 27.225 112.362 27.2157H111.944C111.86 27.2157 111.777 27.2157 111.693 27.2157C111.61 27.225 111.522 27.2296 111.429 27.2296C110.992 27.2296 110.565 27.1228 110.147 26.9093C109.739 26.705 109.358 26.4125 109.005 26.0317C108.661 25.651 108.355 25.2006 108.086 24.6806C107.816 24.1606 107.612 23.5849 107.473 22.9534C107.473 22.8513 107.464 22.7538 107.445 22.6609C107.436 22.5681 107.431 22.4706 107.431 22.3684C107.431 22.0248 107.482 21.6766 107.584 21.3237C107.696 20.9616 107.891 20.6366 108.169 20.3487C108.448 20.0608 108.824 19.8287 109.298 19.6523C109.771 19.4665 110.37 19.3737 111.094 19.3737C111.429 19.3737 111.754 19.383 112.069 19.4015C112.385 19.4108 112.705 19.4248 113.03 19.4433C112.993 19.4712 112.975 19.5037 112.975 19.5408C112.975 19.5873 112.984 19.629 113.003 19.6662C113.021 19.694 113.03 19.7265 113.03 19.7637C113.03 19.8101 112.993 19.8519 112.919 19.8891C112.854 19.9169 112.71 19.9308 112.487 19.9308C112.413 19.9308 112.325 19.9308 112.223 19.9308C112.13 19.9216 112.023 19.9123 111.902 19.903V20.0283C112.348 20.0933 112.705 20.1816 112.975 20.293C113.253 20.3951 113.425 20.488 113.49 20.5716L113.518 20.5994L113.574 19.9866C113.602 19.7358 113.616 19.4526 113.616 19.1369C113.616 18.8119 113.606 18.4915 113.588 18.1758C113.569 17.8601 113.56 17.614 113.56 17.4376C113.56 17.2147 113.574 17.0661 113.602 16.9918C113.629 16.9175 113.667 16.8804 113.713 16.8804C113.75 16.8804 113.778 16.9593 113.797 17.1172C113.824 17.2751 113.843 17.4561 113.852 17.6604C113.871 17.8554 113.88 18.0504 113.88 18.2454V18.6494C113.88 18.9187 113.876 19.1926 113.866 19.4712C113.857 19.7405 113.843 20.0098 113.824 20.2791C113.852 19.9262 113.876 19.5826 113.894 19.2483C113.913 18.9047 113.922 18.5565 113.922 18.2036C113.922 17.9901 113.917 17.7811 113.908 17.5768C113.899 17.3633 113.885 17.1497 113.866 16.9361C113.922 16.9918 113.964 17.0197 113.992 17.0197C114.029 17.0197 114.057 16.9918 114.075 16.9361C114.066 16.8618 114.057 16.7829 114.047 16.6993C114.038 16.625 114.033 16.5507 114.033 16.4765V16.2675C114.08 16.1561 114.14 16.0725 114.214 16.0168C114.289 15.9518 114.354 15.9193 114.409 15.9193C114.567 15.9193 114.707 16.0911 114.827 16.4347L114.786 16.7272ZM112.529 20.9059C112.223 20.9244 111.874 20.943 111.484 20.9616C111.104 20.9802 110.742 21.0312 110.398 21.1148C110.054 21.1891 109.757 21.3052 109.506 21.463C109.265 21.6209 109.13 21.8391 109.103 22.1177C109.103 22.4241 109.168 22.7677 109.298 23.1484C109.428 23.5292 109.599 23.8913 109.813 24.2349C110.026 24.5692 110.268 24.8571 110.537 25.0985C110.816 25.3399 111.104 25.4746 111.401 25.5024H112.195C112.241 25.5024 112.274 25.5071 112.292 25.5164C112.32 25.5164 112.357 25.5256 112.404 25.5442H112.738C112.877 25.5721 113.017 25.586 113.156 25.586C113.156 24.806 113.188 24.0074 113.253 23.1902C113.328 22.3638 113.407 21.5559 113.49 20.7666C113.369 20.8594 113.049 20.9059 112.529 20.9059ZM113.532 23.7892C113.532 23.8913 113.523 23.9981 113.504 24.1095C113.495 24.2117 113.49 24.3278 113.49 24.4578C113.592 23.9377 113.653 23.3899 113.671 22.8141C113.69 22.2384 113.713 21.6859 113.741 21.1566C113.694 21.6023 113.657 22.0434 113.629 22.4798C113.611 22.907 113.578 23.3434 113.532 23.7892ZM114.744 25.2935C114.744 25.1913 114.748 25.0892 114.758 24.9871C114.767 24.8756 114.781 24.7595 114.799 24.6388C114.79 24.9174 114.786 25.1821 114.786 25.4328C114.786 25.6742 114.772 25.846 114.744 25.9482C114.744 25.9017 114.744 25.8599 114.744 25.8228C114.753 25.7764 114.758 25.7299 114.758 25.6835C114.758 25.6092 114.753 25.5396 114.744 25.4746C114.744 25.4096 114.744 25.3492 114.744 25.2935ZM114.953 23.037C114.934 23.0834 114.92 23.1391 114.911 23.2041C114.902 23.2599 114.888 23.3202 114.869 23.3852L114.925 22.5356L114.953 23.037ZM114.827 24.1235C114.827 24.207 114.823 24.2906 114.813 24.3742C114.813 24.4578 114.809 24.5367 114.799 24.611C114.799 24.4253 114.804 24.2395 114.813 24.0538C114.823 23.8588 114.837 23.6824 114.855 23.5245L114.827 24.1235ZM113.448 24.9871C113.458 24.9499 113.462 24.9128 113.462 24.8756C113.462 24.8385 113.472 24.7967 113.49 24.7503V24.597C113.481 24.6156 113.476 24.6342 113.476 24.6528C113.476 24.662 113.472 24.6713 113.462 24.6806L113.448 24.7085V24.9871ZM113.407 25.6556C113.416 25.5721 113.425 25.4885 113.434 25.4049C113.444 25.3121 113.448 25.2192 113.448 25.1263V25.0846L113.393 25.6278L113.407 25.6556ZM119.009 27.0485C118.916 27.0671 118.814 27.0764 118.702 27.0764H118.298C118.057 27.0764 117.885 27.1043 117.783 27.16C117.69 27.2157 117.635 27.2435 117.616 27.2435L117.56 26.9928V26.7421L117.491 25.4328C117.472 25.1821 117.421 24.9128 117.337 24.6249C117.254 24.337 117.189 24.0445 117.142 23.7474C117.115 23.5524 117.091 23.3667 117.073 23.1902L117.017 22.647C116.998 22.4613 116.975 22.2709 116.947 22.0759C116.929 21.8809 116.896 21.672 116.85 21.4491C116.85 21.3934 116.85 21.3377 116.85 21.282C116.859 21.2262 116.864 21.1705 116.864 21.1148C116.864 20.8269 116.841 20.5437 116.794 20.2651C116.748 19.9866 116.683 19.7126 116.599 19.4433C116.664 19.4155 116.725 19.3923 116.78 19.3737C116.836 19.3458 116.887 19.3319 116.933 19.3319C116.98 19.3319 117.031 19.3876 117.087 19.499C117.142 19.6012 117.203 19.8194 117.268 20.1537C117.286 20.1537 117.314 20.1491 117.351 20.1398C117.388 20.1212 117.416 20.1119 117.435 20.1119C117.426 19.9541 117.402 19.7869 117.365 19.6105C117.328 19.4248 117.291 19.2483 117.254 19.0812C117.217 18.914 117.18 18.7655 117.142 18.6354C117.115 18.4962 117.101 18.3847 117.101 18.3012C117.101 18.2826 117.101 18.2594 117.101 18.2315C117.11 18.2036 117.133 18.1897 117.17 18.1897C117.217 18.1897 117.277 18.2408 117.351 18.3429C117.426 18.4451 117.505 18.5751 117.588 18.7329C117.672 18.8908 117.751 19.0626 117.825 19.2483C117.908 19.4248 117.983 19.5919 118.048 19.7498C118.298 19.2762 118.582 18.9187 118.897 18.6772C119.222 18.4265 119.645 18.3012 120.165 18.3012C120.546 18.3012 120.857 18.3476 121.098 18.4404C121.34 18.524 121.525 18.6215 121.655 18.7329C121.795 18.8351 121.888 18.9326 121.934 19.0255L122.018 19.1647C122.018 19.2205 121.99 19.2576 121.934 19.2762C121.693 19.044 121.419 18.8676 121.112 18.7469C120.806 18.6262 120.49 18.5658 120.165 18.5658C119.849 18.5658 119.612 18.6076 119.455 18.6912C119.306 18.7655 119.148 18.8583 118.981 18.9697C119.157 18.8583 119.32 18.7701 119.469 18.7051C119.626 18.6401 119.854 18.6076 120.151 18.6076C120.476 18.6076 120.787 18.6726 121.084 18.8026C121.381 18.9233 121.637 19.0812 121.85 19.2762C121.804 19.2948 121.762 19.318 121.725 19.3458C121.697 19.3644 121.683 19.3969 121.683 19.4433C121.73 19.4433 121.781 19.4758 121.836 19.5408C121.892 19.5965 121.943 19.6662 121.99 19.7498C122.036 19.8333 122.073 19.9216 122.101 20.0144C122.138 20.098 122.157 20.1676 122.157 20.2233C122.157 20.3812 122.096 20.4601 121.976 20.4601C121.883 20.4601 121.771 20.4276 121.641 20.3626C121.614 20.3534 121.553 20.3023 121.46 20.2094C121.377 20.1166 121.27 20.0237 121.14 19.9308C121.01 19.8287 120.861 19.7358 120.694 19.6523C120.527 19.5687 120.341 19.5269 120.137 19.5269C119.97 19.5269 119.821 19.564 119.691 19.6383C119.571 19.7033 119.459 19.7962 119.357 19.9169C119.255 20.0283 119.162 20.1583 119.078 20.3069L118.897 20.6412C119.037 20.3905 119.19 20.163 119.357 19.9587C119.543 19.7173 119.775 19.5965 120.054 19.5965C120.295 19.5965 120.518 19.6523 120.722 19.7637C120.926 19.8658 121.094 19.9958 121.224 20.1537C121.066 20.0887 120.88 20.0237 120.666 19.9587C120.453 19.8937 120.249 19.8612 120.054 19.8612C119.951 19.8612 119.863 19.8844 119.789 19.9308C119.715 19.9773 119.65 20.0376 119.594 20.1119C119.547 20.1769 119.501 20.2512 119.455 20.3348C119.417 20.4184 119.376 20.4973 119.329 20.5716L119.148 20.5994C118.99 20.8687 118.86 21.1844 118.758 21.5466C118.665 21.8995 118.619 22.2709 118.619 22.6609C118.619 22.8931 118.628 23.102 118.647 23.2877C118.675 23.4734 118.712 23.6638 118.758 23.8588L118.925 24.2906L118.897 23.8867C118.879 23.5709 118.86 23.2924 118.842 23.0509C118.823 22.8002 118.814 22.5263 118.814 22.2291C118.832 21.9598 118.87 21.7045 118.925 21.463C118.972 21.2587 119.041 21.0684 119.134 20.8919C119.023 21.1148 118.948 21.3702 118.911 21.658C118.865 21.9738 118.842 22.3081 118.842 22.6609C118.842 22.9395 118.856 23.2041 118.883 23.4549C118.911 23.7056 118.944 23.9563 118.981 24.207C119.027 24.4578 119.074 24.7178 119.12 24.9871C119.167 25.2471 119.204 25.5349 119.232 25.8507L119.274 26.1153L119.357 26.9093L119.009 27.0485ZM119.176 20.8223L119.134 20.8919L119.176 20.8223ZM130.336 18.4126L130.294 18.6633C130.248 19.1183 130.22 19.6058 130.211 20.1258C130.202 20.6366 130.164 21.1519 130.099 21.672C130.174 21.1612 130.234 20.6598 130.28 20.1676C130.327 19.6569 130.373 19.1555 130.42 18.6633C130.466 18.8119 130.503 18.9697 130.531 19.1369C130.568 19.304 130.587 19.4805 130.587 19.6662C130.54 20.1305 130.499 20.5762 130.462 21.0034C130.424 21.4305 130.373 21.8763 130.308 22.3406L130.127 22.3823C130.081 22.8095 129.983 23.2738 129.835 23.7752C129.686 24.2767 129.468 24.741 129.18 25.1681C128.901 25.5953 128.539 25.9528 128.094 26.2407C127.648 26.5192 127.114 26.6585 126.492 26.6585C126.287 26.6585 126.069 26.6446 125.837 26.6167C125.614 26.5796 125.396 26.5285 125.182 26.4635C124.969 26.3892 124.765 26.2964 124.57 26.1849C124.375 26.0735 124.207 25.9342 124.068 25.7671L124.082 25.7949V25.8089L124.068 25.8228L124.026 25.8089C124.082 25.8924 124.142 25.9667 124.207 26.0317C124.04 25.8832 123.887 25.7114 123.748 25.5164C123.516 25.2006 123.33 24.8246 123.191 24.3881C123.107 24.1281 123.042 23.8635 122.996 23.5942C122.949 23.3249 122.917 23.0416 122.898 22.7445C122.88 22.4381 122.866 22.1084 122.856 21.7555C122.856 21.4027 122.856 21.0127 122.856 20.5855C122.94 20.2512 123.005 19.9169 123.051 19.5826C123.098 19.2483 123.13 18.914 123.149 18.5797C123.177 18.5797 123.209 18.5751 123.246 18.5658C123.283 18.5565 123.321 18.5519 123.358 18.5519C123.423 18.5519 123.478 18.589 123.525 18.6633C123.581 18.7376 123.608 18.8955 123.608 19.1369V19.2623C123.608 19.2994 123.604 19.3412 123.595 19.3876H123.762C123.836 18.9976 123.924 18.7004 124.026 18.4962C124.128 18.2919 124.231 18.1897 124.333 18.1897C124.407 18.1897 124.472 18.2965 124.528 18.5101C124.593 18.7144 124.625 19.0394 124.625 19.4851C124.625 19.8101 124.616 20.1398 124.597 20.4741C124.579 20.8084 124.57 21.1519 124.57 21.5048C124.57 22.0527 124.593 22.5495 124.639 22.9952C124.695 23.4409 124.797 23.8217 124.946 24.1374C125.094 24.4531 125.303 24.6992 125.572 24.8756C125.851 25.0428 126.209 25.1263 126.645 25.1263C127.007 25.1263 127.309 25.0149 127.55 24.7921C127.792 24.5692 127.996 24.272 128.163 23.9006C128.33 23.5292 128.47 23.102 128.581 22.6191C128.702 22.127 128.813 21.6162 128.915 21.0869C128.934 20.9384 128.948 20.7898 128.957 20.6412C128.966 20.4926 128.971 20.3394 128.971 20.1816V19.7498C128.971 19.4805 128.985 19.253 129.013 19.0672C129.041 18.8815 129.12 18.7747 129.25 18.7469C129.25 19.2205 129.236 19.6894 129.208 20.1537C129.189 20.5994 129.152 21.0452 129.096 21.4909C129.161 21.0544 129.213 20.618 129.25 20.1816C129.287 19.7265 129.315 19.2623 129.333 18.7887C129.389 18.8258 129.435 18.8444 129.473 18.8444C129.51 18.8444 129.547 18.8258 129.584 18.7887V18.2872C129.63 18.1201 129.677 18.004 129.723 17.939C129.77 17.8647 129.821 17.8276 129.876 17.8276C129.932 17.8276 129.988 17.8554 130.044 17.9111C130.099 17.9669 130.155 18.0365 130.211 18.1201L130.336 18.4126ZM124.583 26.3103C124.806 26.431 125.034 26.5285 125.266 26.6028C125.507 26.6678 125.73 26.7142 125.935 26.7421C126.148 26.77 126.32 26.7839 126.45 26.7839C127.1 26.7839 127.653 26.64 128.108 26.3521C128.563 26.0642 128.934 25.7067 129.222 25.2796C129.519 24.8431 129.746 24.3788 129.904 23.8867C130.053 23.4224 130.164 22.9952 130.239 22.6052C130.174 22.9952 130.072 23.427 129.932 23.9006C129.774 24.402 129.547 24.871 129.25 25.3074C128.962 25.7439 128.595 26.1107 128.149 26.4078C127.704 26.705 127.165 26.8535 126.534 26.8535C126.181 26.8535 125.832 26.8071 125.489 26.7142C125.145 26.6214 124.825 26.4775 124.528 26.2825C124.546 26.2917 124.565 26.301 124.583 26.3103ZM129.918 22.8838C129.946 22.7259 129.969 22.5727 129.988 22.4241C130.007 22.2941 130.025 22.1641 130.044 22.0341C129.988 22.4427 129.895 22.8745 129.765 23.3295C129.635 23.8031 129.454 24.2535 129.222 24.6806C128.99 25.0985 128.697 25.4699 128.344 25.7949C128.01 26.1014 127.62 26.3103 127.174 26.4217C127.564 26.3382 127.913 26.1757 128.219 25.9342C128.535 25.6835 128.804 25.391 129.027 25.0567C129.25 24.7224 129.431 24.3649 129.57 23.9842C129.719 23.6034 129.835 23.2366 129.918 22.8838ZM128.539 23.8588C128.437 24.0631 128.321 24.2581 128.191 24.4438C128.07 24.6295 127.931 24.7967 127.773 24.9453C127.94 24.806 128.084 24.6435 128.205 24.4578C128.335 24.272 128.446 24.0724 128.539 23.8588ZM124.528 26.2825C124.416 26.2082 124.31 26.1246 124.207 26.0317C124.31 26.1246 124.416 26.2082 124.528 26.2825ZM130.253 22.5077L130.239 22.6052L130.253 22.5077ZM130.058 21.9645C130.048 21.9923 130.044 22.0155 130.044 22.0341C130.044 22.0155 130.048 21.9923 130.058 21.9645ZM132.123 26.0039C132.123 25.9574 132.137 25.9017 132.165 25.8367C132.193 25.7717 132.206 25.7021 132.206 25.6278C132.234 25.4049 132.253 25.2471 132.262 25.1542C132.271 25.0521 132.276 24.9638 132.276 24.8896C132.276 24.4995 132.262 24.0817 132.234 23.6359C132.216 23.1809 132.193 22.7445 132.165 22.3266C132.165 22.1966 132.16 22.0434 132.151 21.867C132.151 21.6905 132.141 21.5512 132.123 21.4491C132.151 21.1241 132.174 20.8037 132.193 20.488C132.211 20.1723 132.22 19.8519 132.22 19.5269V19.1787C132.22 19.058 132.216 18.9372 132.206 18.8165C132.234 18.8444 132.262 18.8583 132.29 18.8583C132.327 18.8583 132.364 18.8444 132.401 18.8165C132.448 18.7887 132.49 18.7747 132.527 18.7747C132.592 18.7747 132.643 18.8444 132.68 18.9837C132.726 19.123 132.75 19.4294 132.75 19.903H132.875C132.921 19.383 132.991 18.9697 133.084 18.6633C133.186 18.3569 133.288 18.2036 133.39 18.2036C133.437 18.2036 133.511 18.3058 133.613 18.5101C133.715 18.7051 133.766 19.0162 133.766 19.4433L133.92 19.1926C134.022 19.0719 134.133 18.9465 134.254 18.8165C134.384 18.6865 134.528 18.5704 134.686 18.4683C134.844 18.3662 135.02 18.2826 135.215 18.2176C135.41 18.1433 135.633 18.1061 135.884 18.1061C136.367 18.1061 136.784 18.2176 137.137 18.4404C137.499 18.654 137.801 18.9372 138.043 19.2901C138.284 19.6337 138.479 20.0283 138.628 20.4741C138.786 20.9105 138.906 21.3562 138.99 21.8113C139.073 22.257 139.129 22.6888 139.157 23.1066C139.185 23.5245 139.199 23.882 139.199 24.1792C139.199 24.4485 139.18 24.611 139.143 24.6667C139.115 24.7131 139.059 24.741 138.976 24.7503C138.957 24.0352 138.911 23.3063 138.837 22.5634C138.762 21.8205 138.586 21.1009 138.307 20.4044C138.558 21.138 138.716 21.8623 138.781 22.5773C138.855 23.2831 138.892 23.9935 138.892 24.7085C138.837 24.6806 138.786 24.6667 138.739 24.6667C138.702 24.6667 138.669 24.6806 138.642 24.7085C138.642 24.7828 138.646 24.8617 138.656 24.9453C138.665 25.0196 138.669 25.0938 138.669 25.1681C138.679 25.2424 138.683 25.3121 138.683 25.3771C138.628 25.5906 138.572 25.7439 138.516 25.8367C138.461 25.9296 138.409 25.976 138.363 25.976C138.307 25.976 138.261 25.9528 138.224 25.9064C138.187 25.8507 138.149 25.7857 138.112 25.7114C138.084 25.6371 138.052 25.5581 138.015 25.4746C137.987 25.3817 137.945 25.2935 137.889 25.2099C137.908 25.0521 137.922 24.9267 137.931 24.8338C137.941 24.7317 137.945 24.6481 137.945 24.5831C137.945 24.3324 137.941 24.0306 137.931 23.6777C137.922 23.3249 137.894 22.9581 137.848 22.5773C137.811 22.1873 137.746 21.802 137.653 21.4212C137.569 21.0312 137.448 20.6876 137.291 20.3905C137.142 20.0841 136.952 19.838 136.719 19.6523C136.487 19.4573 136.209 19.3598 135.884 19.3598C135.661 19.3598 135.461 19.434 135.285 19.5826C135.118 19.7312 134.969 19.9216 134.839 20.1537C134.718 20.3859 134.612 20.6412 134.519 20.9198C134.426 21.1891 134.351 21.4491 134.296 21.6998C134.379 21.4398 134.463 21.1752 134.547 20.9059C134.639 20.6366 134.746 20.3905 134.867 20.1676C134.997 19.9448 135.145 19.7637 135.313 19.6244C135.48 19.4758 135.675 19.4015 135.898 19.4015C136.185 19.4015 136.432 19.4805 136.636 19.6383C136.849 19.7962 137.026 20.0005 137.165 20.2512C137.314 20.5019 137.43 20.7898 137.513 21.1148C137.606 21.4305 137.676 21.7555 137.722 22.0898C137.769 22.4148 137.797 22.7352 137.806 23.0509C137.824 23.3574 137.834 23.622 137.834 23.8449C137.834 24.0213 137.829 24.1977 137.82 24.3742C137.82 24.5506 137.815 24.7317 137.806 24.9174C137.722 24.5645 137.657 24.1977 137.611 23.817C137.574 23.427 137.532 23.0463 137.486 22.6748C137.439 22.2941 137.379 21.932 137.304 21.5884C137.239 21.2355 137.142 20.9105 137.012 20.6134L137.109 20.4741C137.017 20.2605 136.91 20.098 136.789 19.9866C136.678 19.8658 136.566 19.7776 136.455 19.7219C136.343 19.6662 136.241 19.6337 136.148 19.6244C136.055 19.6151 135.995 19.6105 135.967 19.6105C135.735 19.6105 135.526 19.694 135.34 19.8612C135.164 20.0283 135.006 20.2559 134.867 20.5437C134.737 20.8223 134.621 21.1473 134.519 21.5187C134.416 21.8902 134.328 22.2802 134.254 22.6888C134.18 23.0974 134.115 23.5106 134.059 23.9285C134.003 24.337 133.957 24.7224 133.92 25.0846H134.045C134.091 24.7688 134.138 24.4206 134.184 24.0399C134.24 23.6592 134.296 23.2738 134.351 22.8838C134.416 22.4845 134.491 22.0991 134.574 21.7277C134.658 21.3562 134.755 21.0219 134.867 20.7248C134.988 20.4276 135.127 20.1862 135.285 20.0005C135.433 19.8241 135.614 19.7219 135.828 19.694C135.624 19.7405 135.452 19.8705 135.313 20.0841C135.164 20.3069 135.034 20.5809 134.923 20.9059C134.811 21.2309 134.709 21.5884 134.616 21.9784C134.533 22.3591 134.454 22.7259 134.379 23.0788L134.101 25.1124C134.064 25.2424 134.036 25.3585 134.017 25.4606L133.961 25.7531C133.943 25.846 133.924 25.9482 133.906 26.0596C133.887 26.1617 133.864 26.2825 133.836 26.4217L133.794 26.5889H133.711L132.304 26.1153C132.258 26.106 132.22 26.0921 132.193 26.0735C132.174 26.0549 132.151 26.0317 132.123 26.0039ZM134.547 18.8583C134.361 19.0162 134.212 19.188 134.101 19.3737C133.999 19.5501 133.901 19.7312 133.808 19.9169V19.9308C133.938 19.6615 134.119 19.3876 134.351 19.109C134.574 18.849 134.872 18.654 135.243 18.524C135.122 18.5612 135.006 18.5983 134.895 18.6354C134.765 18.6819 134.649 18.7562 134.547 18.8583ZM136.218 18.3987C136.172 18.3894 136.107 18.3847 136.023 18.3847C136.32 18.459 136.599 18.5426 136.859 18.6354C137.119 18.719 137.365 18.8908 137.597 19.1508C137.439 18.9372 137.23 18.7701 136.97 18.6494C136.719 18.5287 136.469 18.4451 136.218 18.3987ZM136.594 19.9866C136.52 19.9308 136.432 19.8891 136.329 19.8612C136.237 19.8241 136.12 19.7776 135.981 19.7219L135.967 19.694C136.125 19.7033 136.264 19.7405 136.385 19.8055C136.506 19.8612 136.622 19.9633 136.733 20.1119L136.594 19.9866ZM137.625 19.1787C137.755 19.3365 137.876 19.5176 137.987 19.7219C138.098 19.9262 138.196 20.1073 138.279 20.2651C138.187 20.0516 138.098 19.8566 138.015 19.6801C137.931 19.5037 137.801 19.3365 137.625 19.1787ZM141.75 24.6528C141.899 24.6992 142.075 24.7828 142.279 24.9035C142.493 25.0242 142.73 25.1496 142.99 25.2796C143.25 25.4096 143.533 25.5256 143.839 25.6278C144.155 25.7299 144.489 25.781 144.842 25.781H144.996C145.051 25.781 145.116 25.7717 145.191 25.7531L145.344 25.8646C145.706 25.7531 146.003 25.5442 146.235 25.2378C146.467 24.9221 146.583 24.4995 146.583 23.9702C146.583 23.5895 146.491 23.3295 146.305 23.1902C146.128 23.0416 145.799 22.9674 145.316 22.9674C145.019 22.9674 144.708 22.9906 144.383 23.037C144.067 23.0741 143.733 23.0927 143.38 23.0927C143.222 23.0927 143.059 23.0881 142.892 23.0788C142.725 23.0602 142.553 23.0277 142.377 22.9813V23.0649C142.748 23.1577 143.115 23.2041 143.477 23.2041C143.83 23.2041 144.164 23.1856 144.48 23.1484C144.805 23.102 145.116 23.0788 145.413 23.0788C145.664 23.0788 145.859 23.1066 145.998 23.1624C146.147 23.2088 146.258 23.2738 146.333 23.3574C146.407 23.4409 146.453 23.5431 146.472 23.6638C146.5 23.7752 146.514 23.9006 146.514 24.0399C146.514 24.4763 146.398 24.8478 146.166 25.1542C145.943 25.4421 145.678 25.6231 145.372 25.6974C145.715 25.5767 145.984 25.3678 146.179 25.0706C146.384 24.7549 146.486 24.402 146.486 24.012C146.486 23.7334 146.412 23.5199 146.263 23.3713C146.124 23.2227 145.878 23.1484 145.525 23.1484C145.237 23.1484 144.912 23.167 144.55 23.2041C144.188 23.2413 143.802 23.2599 143.394 23.2599C143.143 23.2599 142.85 23.2274 142.516 23.1624C142.191 23.0974 141.88 22.9766 141.583 22.8002C141.286 22.6238 141.035 22.3823 140.831 22.0759C140.626 21.7602 140.524 21.3516 140.524 20.8502C140.524 20.4509 140.603 20.0841 140.761 19.7498C140.928 19.4062 141.146 19.109 141.416 18.8583C141.685 18.5983 141.992 18.394 142.335 18.2454C142.688 18.0969 143.05 18.0179 143.422 18.0086C143.774 18.0086 144.109 18.0597 144.424 18.1619C144.749 18.2547 145.056 18.3801 145.344 18.5379C145.632 18.6865 145.906 18.8537 146.166 19.0394C146.426 19.2251 146.667 19.4108 146.89 19.5965L146.611 19.8751C146.546 19.8751 146.449 19.838 146.319 19.7637C146.189 19.6801 145.989 19.5408 145.72 19.3458L145.636 19.4712C145.971 19.7405 146.212 19.9912 146.361 20.2233C146.518 20.4555 146.597 20.6366 146.597 20.7666C146.579 20.8409 146.532 20.878 146.458 20.878C146.384 20.878 146.235 20.8177 146.012 20.6969C145.789 20.5762 145.534 20.4416 145.246 20.293C144.968 20.1444 144.671 20.0098 144.355 19.8891C144.039 19.7683 143.751 19.708 143.491 19.708C143.343 19.708 143.194 19.7358 143.045 19.7916C142.897 19.8473 142.762 19.9262 142.642 20.0283C142.521 20.1212 142.419 20.2373 142.335 20.3766C142.261 20.5159 142.224 20.6691 142.224 20.8362C142.224 21.1055 142.349 21.2866 142.6 21.3795C142.85 21.4723 143.18 21.5187 143.589 21.5187C143.672 21.5187 143.76 21.5187 143.853 21.5187C143.955 21.5095 144.048 21.4955 144.132 21.477C144.346 21.477 144.485 21.4723 144.55 21.463C144.624 21.4445 144.694 21.4352 144.759 21.4352C145.158 21.4352 145.557 21.463 145.957 21.5187C146.356 21.5745 146.713 21.6952 147.029 21.8809C147.345 22.0666 147.6 22.3313 147.795 22.6748C147.99 23.0184 148.088 23.4781 148.088 24.0538C148.088 24.4531 148.018 24.8524 147.879 25.2517C147.749 25.6417 147.549 25.9946 147.28 26.3103C147.011 26.6167 146.676 26.8628 146.277 27.0485C145.878 27.2435 145.409 27.3411 144.87 27.3411C144.545 27.3411 144.16 27.276 143.714 27.146C143.278 27.0253 142.86 26.8814 142.46 26.7142C142.07 26.5378 141.736 26.3567 141.458 26.171C141.188 25.9853 141.054 25.8274 141.054 25.6974C141.054 25.6603 141.077 25.6324 141.123 25.6139C141.69 26.0317 142.265 26.3753 142.85 26.6446C143.426 26.8953 144.016 27.0346 144.619 27.0625C144.322 27.0439 144.025 26.9928 143.728 26.9093C143.422 26.8164 143.115 26.705 142.809 26.575C142.512 26.4357 142.224 26.2825 141.945 26.1153C141.676 25.9389 141.416 25.7624 141.165 25.586L141.374 25.4049C141.346 25.3956 141.295 25.3631 141.221 25.3074C141.146 25.2517 141.072 25.1821 140.998 25.0985C140.933 25.0149 140.873 24.9267 140.817 24.8338C140.761 24.741 140.733 24.6528 140.733 24.5692C140.733 24.4763 140.752 24.416 140.789 24.3881C140.826 24.3603 140.868 24.3463 140.914 24.3463C140.961 24.3463 141.058 24.3788 141.207 24.4438C141.355 24.5088 141.536 24.5785 141.75 24.6528ZM144.828 26.0735C144.503 26.0735 144.141 26.0085 143.742 25.8785C143.352 25.7392 142.98 25.5628 142.628 25.3492C142.915 25.5442 143.236 25.7206 143.589 25.8785C143.942 26.0271 144.35 26.1014 144.814 26.1014C145.437 26.1014 145.929 25.911 146.291 25.5303C146.662 25.1496 146.848 24.6388 146.848 23.9981V23.8588C146.802 23.5617 146.7 23.3202 146.542 23.1345C146.393 22.9395 146.161 22.8327 145.845 22.8141C146.04 22.8513 146.198 22.9116 146.319 22.9952C146.449 23.0788 146.546 23.1809 146.611 23.3017C146.686 23.4131 146.737 23.5384 146.765 23.6777C146.792 23.817 146.806 23.961 146.806 24.1095C146.769 24.7224 146.574 25.2053 146.221 25.5581C145.868 25.9017 145.404 26.0735 144.828 26.0735ZM146.597 26.6167C146.83 26.4682 147.015 26.2871 147.155 26.0735C147.294 25.8599 147.415 25.6371 147.517 25.4049C147.322 25.7949 147.052 26.1385 146.709 26.4357C146.374 26.7328 145.975 26.9185 145.511 26.9928C145.687 26.965 145.868 26.9278 146.054 26.8814C146.249 26.8257 146.43 26.7375 146.597 26.6167ZM147.921 23.9981C147.921 23.896 147.902 23.7985 147.865 23.7056C147.837 23.6313 147.814 23.5524 147.795 23.4688L147.809 23.6499C147.818 23.7242 147.823 23.8263 147.823 23.9563C147.823 24.207 147.795 24.4485 147.74 24.6806C147.684 24.9128 147.614 25.1403 147.531 25.3631C147.614 25.1588 147.693 24.9453 147.767 24.7224C147.851 24.4903 147.902 24.2488 147.921 23.9981ZM147.795 23.427C147.795 23.4363 147.795 23.4502 147.795 23.4688C147.795 23.4502 147.795 23.4363 147.795 23.427ZM145.358 25.7114C145.348 25.7114 145.339 25.7114 145.33 25.7114C145.339 25.7114 145.348 25.7114 145.358 25.7114Z" fill="white"/>
<path fill-rule="evenodd" clip-rule="evenodd" d="M30.2929 30.9536C27.9608 29.1848 24.8041 26.7905 15.0247 33.4766C9.74942 29.6704 8.4727 23.1033 10.5996 19.5803C12.1906 18.7273 13.504 17.2578 14.8206 15.7849C17.3327 12.9744 19.8562 10.1512 24.3406 11.5731C21.7757 15.3538 30.2054 19.3363 30.2054 9.87134C31.8117 12.8218 33.9516 14.7292 35.7211 16.3064C37.4849 17.8785 38.8807 19.1226 39.0131 20.7448C39.4112 25.6195 37.8803 29.9794 34.0606 31.8491C32.4883 32.6187 31.5013 31.8701 30.2929 30.9536ZM32.349 33.8025C32.8043 33.8652 33.716 33.9909 34.7739 33.3192C35.9462 32.575 35.0503 35.782 33.2658 36.1233C32.5379 36.2624 31.4829 33.7144 32.1955 33.7831C32.2385 33.7872 32.2899 33.7943 32.349 33.8025ZM33.9561 19.5302C33.9561 20.6664 33.035 21.5875 31.8988 21.5875C30.7626 21.5875 29.8415 20.6664 29.8415 19.5302C29.8415 18.3941 30.7626 17.473 31.8988 17.473C33.035 17.473 33.9561 18.3941 33.9561 19.5302ZM30.4626 23.0237C30.4626 24.1599 29.5415 25.081 28.4053 25.081C27.2691 25.081 26.3481 24.1599 26.3481 23.0237C26.3481 21.8875 27.2691 20.9665 28.4053 20.9665C29.5415 20.9665 30.4626 21.8875 30.4626 23.0237ZM31.8988 28.5745C33.035 28.5745 33.9561 27.6534 33.9561 26.5172C33.9561 25.381 33.035 24.4599 31.8988 24.4599C30.7626 24.4599 29.8415 25.381 29.8415 26.5172C29.8415 27.6534 30.7626 28.5745 31.8988 28.5745ZM37.4495 23.0237C37.4495 24.1599 36.5285 25.081 35.3923 25.081C34.2561 25.081 33.335 24.1599 33.335 23.0237C33.335 21.8875 34.2561 20.9665 35.3923 20.9665C36.5285 20.9665 37.4495 21.8875 37.4495 23.0237ZM16.1782 21.1994H12.6847V24.7705H16.1782L16.1782 28.264H19.6717V24.7705L23.1651 24.7705V21.1994L19.6717 21.1994V17.7059H16.1782L16.1782 21.1994Z" fill="white"/>
</svg>
