<svg xmlns="http://www.w3.org/2000/svg" viewBox="0 0 823.16 147.73"><defs><style>.cls-1{fill:#000;}.cls-2{fill:#fff;}</style></defs><g id="Layer_2" data-name="Layer 2"><g id="Layer_8" data-name="Layer 8"><g id="ASM_Wordmark" data-name="ASM Wordmark"><polygon class="cls-1" points="808.39 103.41 808.39 88.64 808.39 14.77 793.61 14.77 793.61 0 734.52 0 734.52 14.77 720.34 14.77 719.75 14.77 705.57 14.77 705.57 0 602.15 0 602.15 14.77 588.09 14.77 588.09 0 484.68 0 484.68 14.77 470.61 14.77 470.61 0 367.91 0 367.2 0 308.82 0 308.82 14.77 294.05 14.77 294.05 0 235.66 0 234.95 0 132.25 0 132.25 14.77 118.19 14.77 118.19 0 14.77 0 14.77 14.77 0 14.77 0 132.96 14.77 132.96 14.77 147.73 73.87 147.73 73.87 132.96 88.64 132.96 88.64 147.73 147.02 147.73 147.73 147.73 249.72 147.73 250.43 147.73 308.82 147.73 308.82 132.96 323.59 132.96 323.59 147.73 367.2 147.73 382.68 147.73 499.45 147.73 500.16 147.73 602.15 147.73 602.86 147.73 734.52 147.73 735.11 147.73 823.16 147.73 823.16 103.41 808.39 103.41"/><path class="cls-2" d="M14.77,118.19V29.55H29.55V14.77h73.86V29.55h14.78v88.64H88.64V73.87H44.32v44.32Zm29.55-59.1H88.64V29.55H44.32Z"/><path class="cls-2" d="M132.25,103.41V88.64H161.8v14.77h44.31V73.87H147V59.09H132.25V29.55H147V14.77h73.87V29.55h14.77V44.32H206.11V29.55H161.8V59.09h59.09V73.87h14.77v29.54H220.89v14.78H147V103.41Z"/><path class="cls-2" d="M249.73,118.19V14.77h29.54V29.55H294V44.32h14.78V29.55h14.77V14.77h29.55V118.19H323.59V59.09H308.82V73.87H294V59.09H279.27v59.1Z"/><path class="cls-2" d="M367.2,44.32V29.55H382V14.77h73.87V29.55h14.77V59.09H455.84V73.87H426.29V59.09h14.78V29.55H396.75V44.32Zm0,73.87V103.41H382V88.64h14.78V73.87h29.54V88.64H411.52v14.77h59.09v14.78Z"/><path class="cls-2" d="M484.68,103.41V29.55h14.77V14.77h73.87V29.55h14.77v73.86H573.32v14.78H499.45V103.41Zm29.54-44.32H529V44.32h14.77V29.55H514.22ZM529,103.41h29.54V59.09H543.77V73.87H529Z"/><path class="cls-2" d="M602.15,44.32V29.55h14.78V14.77h73.86V29.55h14.78V59.09H690.79V73.87H661.25V59.09H676V29.55H631.7V44.32Zm0,73.87V103.41h14.78V88.64H631.7V73.87h29.55V88.64H646.47v14.77h59.1v14.78Z"/><path class="cls-2" d="M719.75,59.09V44.32h14.77V29.55h14.77V14.77h29.55v88.64h14.77v14.78H734.52V103.41h14.77V59.09Z"/></g></g></g></svg>