<svg width="364" height="182" viewBox="0 0 364 182" fill="none" xmlns="http://www.w3.org/2000/svg">
<path d="M107.962 42.2194L107.744 42.11C106.722 41.8423 105.639 41.672 104.495 41.599C103.352 41.526 102.184 41.3679 100.992 41.1245C102.159 41.3679 103.303 41.5625 104.422 41.7085C105.542 41.8301 106.649 42.0735 107.744 42.4384C107.403 42.6574 107.038 42.7669 106.649 42.7669C106.186 42.7182 105.724 42.6452 105.262 42.5479C104.824 42.4506 104.349 42.3776 103.838 42.3289C103.838 42.1829 103.875 42.0735 103.948 42.0005C103.242 42.0005 102.537 41.9275 101.831 41.7815C101.15 41.6355 100.481 41.4773 99.8237 41.307C99.1667 41.1124 98.5219 40.9421 97.8893 40.7961C97.281 40.6257 96.7093 40.5406 96.174 40.5406C96.174 40.6136 96.1618 40.6501 96.1375 40.6501C96.7701 40.7717 97.3662 40.9421 97.9258 41.161C98.4854 41.38 99.1181 41.5503 99.8237 41.672C100.505 41.8423 101.162 41.964 101.795 42.037C102.451 42.11 103.096 42.2073 103.729 42.3289C102.707 42.2316 101.661 42.0856 100.59 41.891C99.5439 41.6963 98.5098 41.4773 97.4879 41.234L95.7725 40.7961C95.1642 42.3533 94.5438 43.8861 93.9112 45.3947C93.3029 46.8789 92.7068 48.3874 92.1228 49.9203C92.0741 49.823 91.989 49.7622 91.8673 49.7378C91.77 49.7378 91.6605 49.7378 91.5388 49.7378C91.4415 49.7378 91.3442 49.7013 91.2469 49.6283C91.1495 49.5797 91.1009 49.458 91.1009 49.2634C91.1009 49.0687 91.1495 48.7889 91.2469 48.4239C91.3442 48.0833 91.5267 47.621 91.7943 47.0371C91.7457 46.9884 91.6605 46.9641 91.5388 46.9641C91.4415 46.9397 91.3685 46.9276 91.3199 46.9276C90.8332 47.9495 90.3588 48.7281 89.8965 49.2634C89.4585 49.823 89.1057 50.1028 88.8381 50.1028C88.5461 50.1028 88.4001 49.823 88.4001 49.2634C88.4001 48.8011 88.4853 48.2171 88.6556 47.5115C88.8259 46.7816 89.0327 46.003 89.276 45.1757C89.5437 44.3484 89.8357 43.4968 90.152 42.6209C90.4683 41.7207 90.7724 40.8447 91.0644 39.9931C90.7967 39.8228 90.5048 39.7012 90.1885 39.6282C89.8965 39.5552 89.568 39.4943 89.203 39.4457C89.276 39.3483 89.3125 39.2267 89.3125 39.0807C89.3125 38.9347 89.3247 38.7887 89.349 38.6427C89.3734 38.4968 89.422 38.3751 89.495 38.2778C89.568 38.1804 89.7018 38.1318 89.8965 38.1318C89.9451 38.1318 90.0911 38.1561 90.3344 38.2048V37.8763C89.9451 37.6817 89.641 37.4505 89.422 37.1829C89.2274 36.9152 89.13 36.6476 89.13 36.3799C89.13 35.796 89.6897 35.504 90.8089 35.504C91.1252 35.504 91.4415 35.5283 91.7578 35.577C92.0985 35.6013 92.4391 35.6378 92.7797 35.6865L94.4586 31.8543C94.8236 31.027 95.2129 30.1754 95.6265 29.2995C96.0645 28.4236 96.5754 27.5598 97.1594 26.7082C97.7433 25.8566 98.4003 25.0537 99.1302 24.2994C99.8845 23.5208 100.748 22.8274 101.722 22.2191L102.269 22.0001C102.95 22.1704 103.498 22.3164 103.911 22.4381C104.349 22.5354 104.702 22.6084 104.97 22.6571C105.213 22.7544 105.408 22.8152 105.554 22.8395H105.517L105.554 22.949C105.554 22.9734 105.542 22.9977 105.517 23.022L105.955 23.7885C107.537 26.4406 108.875 29.19 109.97 32.0368C111.065 34.8836 112.001 37.6817 112.78 40.4311C112.975 41.0394 113.206 41.6963 113.474 42.4019C113.766 43.0832 114.033 43.7402 114.276 44.3728C114.544 44.9811 114.763 45.5407 114.933 46.0516C115.104 46.5383 115.189 46.8911 115.189 47.11C115.189 47.2804 115.152 47.3899 115.079 47.4385C115.006 47.4628 114.909 47.475 114.787 47.475C114.155 45.8935 113.559 44.3363 112.999 42.8034C112.439 41.2949 111.892 39.7741 111.357 38.2413C111.843 39.7741 112.354 41.2949 112.89 42.8034C113.449 44.3363 114.009 45.8935 114.568 47.475H114.313C114.167 47.475 114.07 47.548 114.021 47.694C114.07 47.7427 114.13 47.8765 114.203 48.0955C114.276 48.2901 114.349 48.4969 114.422 48.7159C114.495 48.9592 114.556 49.2025 114.605 49.4459C114.654 49.6892 114.678 49.8717 114.678 49.9933C114.678 50.5286 114.52 50.7962 114.203 50.7962C114.033 50.7962 113.899 50.7597 113.802 50.6867C113.705 50.6138 113.595 50.5164 113.474 50.3948L113.109 50.0298C112.963 49.8838 112.78 49.7378 112.561 49.5918L109.057 39.5187C109.568 41.1002 110.067 42.6817 110.554 44.2633C111.065 45.8448 111.588 47.402 112.123 48.9349C111.734 48.4726 111.369 47.913 111.028 47.256C110.712 46.5991 110.408 45.9056 110.116 45.1757C109.848 44.4458 109.593 43.7037 109.349 42.9494C109.106 42.1708 108.863 41.4408 108.619 40.7596C108.619 40.8082 108.619 40.8569 108.619 40.9056C108.644 40.9299 108.656 40.9664 108.656 41.015C108.656 41.4043 108.534 41.6963 108.291 41.891L107.962 42.2194ZM107.744 38.4238C107.792 38.4238 107.865 38.4116 107.962 38.3873C108.06 38.3386 108.133 38.3143 108.181 38.3143C107.379 36.2948 106.576 34.3361 105.773 32.4383C104.994 30.5404 104.13 28.7156 103.181 26.9637L102.962 27.1827L103.51 28.1681C104.361 29.7253 105.128 31.3312 105.809 32.9857C106.49 34.6402 107.135 36.3434 107.744 38.0953C107.038 36.1974 106.271 34.3118 105.444 32.4383C104.641 30.5404 103.778 28.825 102.853 27.2922L102.707 27.3652C101.88 28.2168 101.101 29.2387 100.371 30.4309C99.6655 31.6232 98.9964 32.8397 98.3638 34.0806L97.4149 36.3799L98.0353 36.5259C98.4003 36.6232 98.7531 36.7327 99.0937 36.8544C99.4587 36.9517 99.775 37.0612 100.043 37.1829C100.578 37.4505 101.284 37.6573 102.159 37.8033C103.035 37.9493 103.887 38.0953 104.714 38.2413C105.566 38.3629 106.296 38.5089 106.904 38.6792C107.537 38.8252 107.853 39.0442 107.853 39.3362L103.4 38.8252C103.668 38.8739 103.996 38.9347 104.386 39.0077C104.775 39.0564 105.164 39.1172 105.554 39.1902C105.967 39.2632 106.369 39.3362 106.758 39.4092C107.147 39.4578 107.476 39.5065 107.744 39.5552C107.744 39.6282 107.731 39.7012 107.707 39.7741C107.707 39.8228 107.707 39.8715 107.707 39.9201C107.707 39.9688 107.731 40.0053 107.78 40.0296C107.853 40.0296 107.926 40.0418 107.999 40.0661C108.096 40.0661 108.181 40.0905 108.254 40.1391C108.327 40.1634 108.4 40.2364 108.473 40.3581L107.744 38.4238ZM99.8237 30.6134C99.8723 30.6134 99.8845 30.6499 99.8602 30.7229C99.8602 30.7716 99.8723 30.7959 99.8967 30.7959C99.9453 30.7959 100.091 30.6256 100.335 30.2849C100.578 29.9443 100.858 29.555 101.174 29.117C101.49 28.6791 101.795 28.2654 102.086 27.8761C102.378 27.4868 102.585 27.2313 102.707 27.1097L102.524 26.8542C102.013 27.3408 101.539 27.9126 101.101 28.5696C100.663 29.2265 100.237 29.9078 99.8237 30.6134ZM103.51 26.6717C104.288 27.9856 105.006 29.3603 105.663 30.7959C106.296 32.2071 106.892 33.6183 107.452 35.0295C106.989 33.6183 106.43 32.2071 105.773 30.7959C105.091 29.3603 104.349 27.9856 103.546 26.6717H103.51ZM109.094 32.1463C109.848 34.0928 110.59 36.0758 111.32 38.0953C110.639 36.1244 109.921 34.1779 109.167 32.2558C108.461 30.3579 107.646 28.4479 106.722 26.5257C107.598 28.3749 108.388 30.2484 109.094 32.1463ZM103.729 25.8688C104.045 25.9418 104.264 26.0148 104.386 26.0878C104.507 26.1608 104.593 26.1973 104.641 26.1973L104.678 26.0878C104.702 26.0878 104.653 26.0756 104.532 26.0513C104.41 26.0269 104.313 26.0026 104.24 25.9783L104.313 25.8323L103.875 25.6863L103.729 25.8688ZM101.94 25.5038L102.232 26.2703L102.196 25.5038C102.147 25.5038 102.086 25.4917 102.013 25.4673C101.965 25.443 101.916 25.4308 101.867 25.4308L101.94 25.5038ZM102.889 26.5622L102.634 26.7447L102.853 27.0367L103.072 26.8177L102.889 26.5622ZM103.4 26.4892H103.437L103.254 26.2338V26.2703L103.4 26.4892ZM137.358 25.9418L137.248 26.5987C137.127 27.791 137.054 29.0684 137.029 30.4309C137.005 31.7691 136.908 33.1195 136.737 34.4821C136.932 33.1439 137.09 31.83 137.212 30.5404C137.333 29.2022 137.455 27.8883 137.577 26.5987C137.698 26.988 137.796 27.4017 137.869 27.8396C137.966 28.2776 138.015 28.7399 138.015 29.2265C137.893 30.4431 137.783 31.611 137.686 32.7302C137.589 33.8495 137.455 35.0174 137.285 36.2339L136.81 36.3434C136.689 37.4627 136.433 38.6792 136.044 39.9931C135.654 41.307 135.083 42.5236 134.328 43.6428C133.598 44.7621 132.65 45.6988 131.482 46.4531C130.314 47.183 128.915 47.548 127.285 47.548C126.749 47.548 126.177 47.5115 125.569 47.4385C124.985 47.3412 124.413 47.2074 123.854 47.0371C123.294 46.8424 122.759 46.5991 122.248 46.3071C121.737 46.0151 121.299 45.6502 120.934 45.2122L120.971 45.2852V45.3217L120.934 45.3582L120.825 45.3217C120.971 45.5407 121.129 45.7353 121.299 45.9056C120.861 45.5163 120.46 45.0662 120.095 44.5553C119.486 43.728 119 42.7426 118.635 41.599C118.416 40.9177 118.245 40.2243 118.124 39.5187C118.002 38.8131 117.917 38.071 117.868 37.2924C117.82 36.4894 117.783 35.6257 117.759 34.7011C117.759 33.7765 117.759 32.7546 117.759 31.6353C117.978 30.7594 118.148 29.8835 118.27 29.0075C118.391 28.1316 118.477 27.2557 118.525 26.3798C118.598 26.3798 118.683 26.3676 118.781 26.3433C118.878 26.3189 118.975 26.3068 119.073 26.3068C119.243 26.3068 119.389 26.4041 119.511 26.5987C119.657 26.7934 119.73 27.207 119.73 27.8396V28.1681C119.73 28.2654 119.717 28.3749 119.693 28.4966H120.131C120.326 27.4747 120.557 26.6961 120.825 26.1608C121.092 25.6255 121.36 25.3578 121.627 25.3578C121.822 25.3578 121.992 25.6376 122.138 26.1973C122.309 26.7326 122.394 27.5842 122.394 28.7521C122.394 29.6037 122.37 30.4674 122.321 31.3433C122.272 32.2193 122.248 33.1195 122.248 34.0441C122.248 35.4797 122.309 36.7814 122.43 37.9493C122.576 39.1172 122.844 40.1148 123.233 40.9421C123.623 41.7693 124.17 42.4141 124.876 42.8764C125.606 43.3144 126.542 43.5333 127.686 43.5333C128.635 43.5333 129.426 43.2414 130.058 42.6574C130.691 42.0735 131.226 41.2949 131.664 40.3216C132.102 39.3483 132.467 38.2291 132.759 36.9639C133.075 35.6743 133.367 34.3361 133.635 32.9492C133.684 32.5599 133.72 32.1706 133.744 31.7813C133.769 31.392 133.781 30.9905 133.781 30.5769V29.4455C133.781 28.7399 133.817 28.1438 133.89 27.6571C133.963 27.1705 134.17 26.8907 134.511 26.8177C134.511 28.0586 134.474 29.2873 134.401 30.5039C134.353 31.6718 134.255 32.8397 134.109 34.0076C134.28 32.864 134.414 31.7205 134.511 30.5769C134.608 29.3847 134.681 28.1681 134.73 26.9272C134.876 27.0245 134.998 27.0732 135.095 27.0732C135.192 27.0732 135.29 27.0245 135.387 26.9272V25.6133C135.509 25.1753 135.63 24.8712 135.752 24.7009C135.873 24.5062 136.007 24.4089 136.153 24.4089C136.299 24.4089 136.445 24.4819 136.591 24.6279C136.737 24.7739 136.883 24.9564 137.029 25.1753L137.358 25.9418ZM122.284 46.6356C122.868 46.9519 123.464 47.2074 124.073 47.402C124.705 47.5723 125.289 47.694 125.825 47.767C126.384 47.84 126.834 47.8765 127.175 47.8765C128.878 47.8765 130.326 47.4993 131.518 46.7451C132.71 45.9908 133.684 45.054 134.438 43.9348C135.217 42.7912 135.813 41.5747 136.226 40.2851C136.616 39.0685 136.908 37.9493 137.102 36.9274C136.932 37.9493 136.664 39.0807 136.299 40.3216C135.886 41.6355 135.29 42.8642 134.511 44.0078C133.757 45.1514 132.796 46.1125 131.628 46.8911C130.46 47.6697 129.049 48.059 127.394 48.059C126.469 48.059 125.557 47.9373 124.657 47.694C123.756 47.4507 122.917 47.0735 122.138 46.5626C122.187 46.5869 122.236 46.6113 122.284 46.6356ZM136.263 37.6573C136.336 37.2437 136.397 36.8422 136.445 36.4529C136.494 36.1123 136.543 35.7716 136.591 35.431C136.445 36.5016 136.202 37.633 135.861 38.8252C135.521 40.0661 135.046 41.2462 134.438 42.3654C133.83 43.4603 133.063 44.4336 132.139 45.2852C131.263 46.0881 130.241 46.6356 129.073 46.9276C130.095 46.7086 131.007 46.2828 131.81 45.6502C132.637 44.9932 133.343 44.2268 133.927 43.3509C134.511 42.4749 134.985 41.5382 135.35 40.5406C135.74 39.543 136.044 38.5819 136.263 37.6573ZM132.65 40.2121C132.382 40.7474 132.078 41.2584 131.737 41.745C131.421 42.2316 131.056 42.6696 130.642 43.0589C131.08 42.6939 131.457 42.2681 131.774 41.7815C132.114 41.2949 132.406 40.7717 132.65 40.2121ZM122.138 46.5626C121.846 46.3679 121.567 46.149 121.299 45.9056C121.567 46.149 121.846 46.3679 122.138 46.5626ZM137.139 36.6719L137.102 36.9274L137.139 36.6719ZM136.628 35.2485C136.603 35.3215 136.591 35.3823 136.591 35.431C136.591 35.3823 136.603 35.3215 136.628 35.2485ZM144.704 42.2924C145.093 42.4141 145.555 42.6331 146.09 42.9494C146.65 43.2657 147.271 43.5942 147.952 43.9348C148.633 44.2754 149.375 44.5796 150.178 44.8472C151.005 45.1149 151.881 45.2487 152.806 45.2487H153.207C153.353 45.2487 153.524 45.2244 153.718 45.1757L154.12 45.4677C155.069 45.1757 155.847 44.6282 156.456 43.8253C157.064 42.998 157.368 41.891 157.368 40.5041C157.368 39.5065 157.125 38.8252 156.638 38.4603C156.176 38.071 155.312 37.8763 154.047 37.8763C153.268 37.8763 152.453 37.9371 151.601 38.0588C150.774 38.1561 149.898 38.2048 148.974 38.2048C148.56 38.2048 148.134 38.1926 147.696 38.1683C147.258 38.1196 146.808 38.0345 146.346 37.9128V38.1318C147.319 38.3751 148.28 38.4968 149.229 38.4968C150.154 38.4968 151.03 38.4481 151.857 38.3508C152.709 38.2291 153.524 38.1683 154.302 38.1683C154.959 38.1683 155.47 38.2413 155.835 38.3873C156.224 38.5089 156.516 38.6792 156.711 38.8982C156.906 39.1172 157.027 39.3848 157.076 39.7012C157.149 39.9931 157.186 40.3216 157.186 40.6866C157.186 41.8301 156.881 42.8034 156.273 43.6063C155.689 44.3606 154.996 44.8351 154.193 45.0297C155.093 44.7134 155.799 44.166 156.31 43.3874C156.845 42.5601 157.113 41.6355 157.113 40.6136C157.113 39.8836 156.918 39.324 156.529 38.9347C156.164 38.5454 155.519 38.3508 154.594 38.3508C153.84 38.3508 152.988 38.3994 152.039 38.4968C151.091 38.5941 150.081 38.6427 149.01 38.6427C148.353 38.6427 147.587 38.5576 146.711 38.3873C145.859 38.2169 145.044 37.9006 144.266 37.4383C143.487 36.976 142.83 36.3434 142.295 35.5405C141.759 34.7132 141.492 33.6427 141.492 32.3288C141.492 31.2825 141.699 30.3214 142.112 29.4455C142.55 28.5452 143.122 27.7666 143.828 27.1097C144.533 26.4284 145.336 25.8931 146.236 25.5038C147.161 25.1145 148.11 24.9077 149.083 24.8834C150.008 24.8834 150.884 25.0172 151.711 25.2848C152.563 25.5282 153.366 25.8566 154.12 26.2703C154.874 26.6596 155.592 27.0975 156.273 27.5842C156.954 28.0708 157.587 28.5574 158.171 29.044L157.441 29.774C157.271 29.774 157.015 29.6766 156.675 29.482C156.334 29.263 155.811 28.898 155.105 28.3871L154.886 28.7156C155.762 29.4212 156.395 30.0781 156.784 30.6864C157.198 31.2947 157.405 31.7691 157.405 32.1098C157.356 32.3044 157.234 32.4018 157.04 32.4018C156.845 32.4018 156.456 32.2436 155.872 31.9273C155.288 31.611 154.619 31.2582 153.864 30.8689C153.134 30.4796 152.356 30.1268 151.529 29.8105C150.701 29.4942 149.947 29.336 149.266 29.336C148.876 29.336 148.487 29.409 148.098 29.555C147.708 29.701 147.356 29.9078 147.039 30.1754C146.723 30.4188 146.455 30.7229 146.236 31.0879C146.042 31.4528 145.944 31.8543 145.944 32.2923C145.944 32.9979 146.273 33.4723 146.93 33.7156C147.587 33.959 148.451 34.0806 149.521 34.0806C149.74 34.0806 149.971 34.0806 150.215 34.0806C150.482 34.0563 150.726 34.0198 150.945 33.9711C151.504 33.9711 151.869 33.959 152.039 33.9346C152.234 33.886 152.417 33.8616 152.587 33.8616C153.633 33.8616 154.679 33.9346 155.726 34.0806C156.772 34.2266 157.709 34.5429 158.536 35.0295C159.363 35.5162 160.032 36.2096 160.543 37.1099C161.054 38.0101 161.31 39.2145 161.31 40.7231C161.31 41.7693 161.127 42.8156 160.762 43.8618C160.422 44.8837 159.898 45.8083 159.193 46.6356C158.487 47.4385 157.611 48.0833 156.565 48.5699C155.519 49.0809 154.29 49.3364 152.879 49.3364C152.027 49.3364 151.018 49.166 149.85 48.8254C148.706 48.5091 147.611 48.132 146.565 47.694C145.543 47.2317 144.667 46.7572 143.937 46.2706C143.232 45.784 142.879 45.3704 142.879 45.0297C142.879 44.9324 142.94 44.8594 143.061 44.8107C144.545 45.9056 146.054 46.8059 147.587 47.5115C149.095 48.1685 150.64 48.5334 152.222 48.6064C151.443 48.5578 150.665 48.4239 149.886 48.205C149.083 47.9616 148.28 47.6697 147.477 47.329C146.699 46.9641 145.944 46.5626 145.215 46.1246C144.509 45.6623 143.828 45.2 143.171 44.7377L143.718 44.2633C143.645 44.2389 143.511 44.1538 143.317 44.0078C143.122 43.8618 142.927 43.6793 142.733 43.4603C142.562 43.2414 142.404 43.0102 142.258 42.7669C142.112 42.5236 142.039 42.2924 142.039 42.0735C142.039 41.8301 142.088 41.672 142.185 41.599C142.283 41.526 142.392 41.4895 142.514 41.4895C142.635 41.4895 142.891 41.5747 143.28 41.745C143.669 41.9153 144.144 42.0978 144.704 42.2924ZM152.769 46.0151C151.918 46.0151 150.969 45.8448 149.923 45.5042C148.901 45.1392 147.927 44.6769 147.003 44.1173C147.757 44.6282 148.597 45.0905 149.521 45.5042C150.446 45.8935 151.516 46.0881 152.733 46.0881C154.363 46.0881 155.653 45.5893 156.602 44.5918C157.575 43.5942 158.061 42.2559 158.061 40.5771V40.2121C157.94 39.4335 157.672 38.8009 157.259 38.3143C156.869 37.8033 156.261 37.5235 155.434 37.4748C155.945 37.5722 156.358 37.7303 156.675 37.9493C157.015 38.1683 157.271 38.4359 157.441 38.7522C157.636 39.0442 157.769 39.3727 157.842 39.7377C157.915 40.1026 157.952 40.4798 157.952 40.8691C157.855 42.4749 157.344 43.7402 156.419 44.6647C155.495 45.565 154.278 46.0151 152.769 46.0151ZM157.405 47.4385C158.013 47.0492 158.499 46.5748 158.864 46.0151C159.229 45.4555 159.546 44.8716 159.813 44.2633C159.302 45.2852 158.597 46.1855 157.696 46.9641C156.821 47.7427 155.774 48.2293 154.558 48.4239C155.02 48.3509 155.495 48.2536 155.981 48.132C156.492 47.986 156.967 47.7548 157.405 47.4385ZM160.872 40.5771C160.872 40.3094 160.823 40.054 160.726 39.8106C160.653 39.616 160.592 39.4092 160.543 39.1902L160.58 39.6647C160.604 39.8593 160.616 40.127 160.616 40.4676C160.616 41.1245 160.543 41.7572 160.397 42.3654C160.251 42.9737 160.069 43.5698 159.85 44.1538C160.069 43.6185 160.276 43.0589 160.47 42.4749C160.689 41.8666 160.823 41.234 160.872 40.5771ZM160.543 39.0807C160.543 39.105 160.543 39.1415 160.543 39.1902C160.543 39.1415 160.543 39.105 160.543 39.0807ZM154.156 45.0662C154.132 45.0662 154.108 45.0662 154.083 45.0662C154.108 45.0662 154.132 45.0662 154.156 45.0662ZM163.667 45.7232C163.667 45.5772 163.752 45.4433 163.922 45.3217C164.092 45.2 164.287 45.0905 164.506 44.9932C164.749 44.8959 164.98 44.8107 165.199 44.7377C165.443 44.6647 165.625 44.6039 165.747 44.5553C166.915 44.7012 168.083 44.8229 169.251 44.9202C170.419 45.0175 171.586 45.0662 172.754 45.0662C173.192 45.0662 173.801 45.0662 174.579 45.0662C175.358 45.0419 176.209 44.9932 177.134 44.9202C178.059 44.8472 178.995 44.7377 179.944 44.5918C180.893 44.4214 181.757 44.1903 182.536 43.8983C183.314 43.6063 183.947 43.2414 184.433 42.8034C184.92 42.3654 185.163 41.818 185.163 41.161C185.163 40.6257 185.042 40.1513 184.798 39.7377C184.579 39.2997 184.275 38.9226 183.886 38.6062C183.521 38.2656 183.107 37.9858 182.645 37.7668C182.475 37.6695 182.292 37.5843 182.098 37.5113C182.292 37.6087 182.475 37.706 182.645 37.8033C183.083 38.0466 183.472 38.3508 183.813 38.7157C184.178 39.0564 184.47 39.4457 184.689 39.8836C184.908 40.2973 185.017 40.7717 185.017 41.307C185.017 41.891 184.798 42.3898 184.36 42.8034C183.947 43.1927 183.399 43.5212 182.718 43.7888C182.061 44.0565 181.319 44.2633 180.492 44.4093C179.689 44.5553 178.886 44.6647 178.083 44.7377C177.28 44.8107 176.538 44.8594 175.857 44.8837C175.175 44.8837 174.64 44.8837 174.251 44.8837C173.01 44.8837 171.757 44.8472 170.492 44.7742C169.251 44.6769 168.01 44.5674 166.769 44.4458C167.207 44.3241 167.645 44.2389 168.083 44.1903C168.545 44.1173 169.007 44.0808 169.47 44.0808C170.248 44.0808 171.015 44.093 171.769 44.1173C172.523 44.1173 173.277 44.1173 174.032 44.1173C174.932 44.1173 175.82 44.1051 176.696 44.0808C177.572 44.0321 178.472 43.9348 179.397 43.7888L179.506 44.2268C179.871 44.1538 180.334 44.0443 180.893 43.8983C181.453 43.728 181.988 43.5212 182.499 43.2779C183.034 43.0345 183.484 42.7304 183.849 42.3654C184.239 42.0005 184.433 41.5747 184.433 41.088C184.433 40.3824 184.178 39.762 183.667 39.2267C183.156 38.6914 182.499 38.2169 181.696 37.8033C180.918 37.3653 180.029 36.9882 179.032 36.6719C178.034 36.3556 177.049 36.0758 176.076 35.8325C175.127 35.5892 174.226 35.3702 173.375 35.1755C172.523 34.9809 171.842 34.7984 171.331 34.6281V34.8471C171.842 35.0417 172.511 35.2485 173.338 35.4675C174.166 35.6622 175.054 35.8811 176.003 36.1244C176.976 36.3678 177.949 36.6476 178.922 36.9639C179.896 37.2559 180.772 37.6087 181.55 38.0223C182.353 38.4359 182.998 38.9104 183.484 39.4457C183.995 39.981 184.251 40.5892 184.251 41.2705C184.251 41.6598 184.068 42.0005 183.703 42.2924C183.338 42.5844 182.901 42.8399 182.39 43.0589C181.903 43.2535 181.404 43.4117 180.893 43.5333C180.382 43.655 179.993 43.7402 179.725 43.7888C180.042 43.7158 180.443 43.6185 180.93 43.4968C181.441 43.3509 181.927 43.1684 182.39 42.9494C182.876 42.7304 183.29 42.4749 183.63 42.1829C183.971 41.8666 184.141 41.5017 184.141 41.088C184.141 40.4068 183.874 39.835 183.338 39.3727C182.803 38.9104 182.098 38.4968 181.222 38.1318C180.346 37.7668 179.348 37.4383 178.229 37.1464C177.11 36.8544 175.954 36.5381 174.762 36.1974C173.594 35.8568 172.45 35.4675 171.331 35.0295C170.212 34.5916 169.214 34.0441 168.338 33.3872C167.462 32.7302 166.757 31.9516 166.221 31.0514C165.686 30.1511 165.418 29.0684 165.418 27.8031C165.418 26.5622 165.71 25.516 166.294 24.6644C166.903 23.7885 167.669 23.0829 168.594 22.5476C169.543 21.9879 170.577 21.5865 171.696 21.3432C172.815 21.0999 173.898 20.9782 174.944 20.9782C176.477 20.9782 177.973 21.1972 179.433 21.6351C180.918 22.0731 182.317 22.6814 183.63 23.46C183.484 23.5087 183.399 23.5816 183.375 23.679C183.351 23.752 183.326 23.8371 183.302 23.9345C183.302 24.0318 183.278 24.1169 183.229 24.1899C183.205 24.2629 183.132 24.2994 183.01 24.2994C182.913 24.2994 182.718 24.2629 182.426 24.1899C182.158 24.0926 181.866 23.9953 181.55 23.898C181.234 23.7763 180.93 23.6668 180.638 23.5695C180.346 23.4722 180.151 23.3992 180.054 23.3505L179.944 23.679C180.163 23.7763 180.443 23.9223 180.784 24.1169C181.149 24.2873 181.489 24.5062 181.806 24.7739C182.146 25.0172 182.426 25.2848 182.645 25.5768C182.888 25.8688 183.01 26.1608 183.01 26.4527C183.01 26.7691 182.864 26.9272 182.572 26.9272C182.207 26.9272 181.769 26.8299 181.258 26.6352C180.772 26.4406 180.224 26.2338 179.616 26.0148C179.008 25.7715 178.351 25.5525 177.645 25.3578C176.964 25.1632 176.27 25.0659 175.565 25.0659C175.102 25.0659 174.555 25.1145 173.922 25.2118C173.314 25.2848 172.718 25.443 172.134 25.6863C171.574 25.9053 171.1 26.2216 170.711 26.6352C170.321 27.0245 170.127 27.5233 170.127 28.1316C170.127 28.6912 170.382 29.1657 170.893 29.555C171.428 29.9443 172.122 30.2971 172.973 30.6134C173.849 30.9297 174.835 31.2339 175.93 31.5258C177.025 31.8178 178.144 32.1463 179.287 32.5112C180.455 32.8519 181.587 33.2534 182.682 33.7156C183.776 34.1779 184.75 34.7376 185.601 35.3945C186.477 36.0515 187.171 36.8301 187.682 37.7303C188.217 38.6306 188.485 39.689 188.485 40.9056C188.485 42.0978 188.241 43.1075 187.755 43.9348C187.268 44.7621 186.623 45.4555 185.82 46.0151C185.017 46.5504 184.105 46.9762 183.083 47.2925C182.061 47.5845 181.003 47.8157 179.908 47.986C178.837 48.132 177.767 48.2171 176.696 48.2415C175.65 48.2901 174.701 48.3144 173.849 48.3144H170.2C169.981 48.3144 169.676 48.3023 169.287 48.2779C168.922 48.2779 168.557 48.2536 168.192 48.205C167.827 48.1806 167.511 48.1198 167.243 48.0225C166.976 47.9251 166.842 47.8035 166.842 47.6575L166.878 47.475C167.876 47.5237 168.861 47.5723 169.835 47.621C170.808 47.6453 171.793 47.6575 172.791 47.6575C173.715 47.6575 174.64 47.6575 175.565 47.6575C176.392 47.6332 177.219 47.5845 178.046 47.5115C177.633 47.5358 177.219 47.5602 176.806 47.5845C176.295 47.5845 175.796 47.5845 175.309 47.5845H173.849C171.562 47.5845 169.311 47.5115 167.097 47.3655C167.146 47.1709 167.17 47.0371 167.17 46.9641C167.17 46.8667 167.146 46.7694 167.097 46.6721C167.049 46.6721 166.976 46.6842 166.878 46.7086C166.805 46.7086 166.708 46.7086 166.586 46.7086C166.319 46.7086 166.015 46.6964 165.674 46.6721C165.358 46.6477 165.041 46.5991 164.725 46.5261C164.433 46.4531 164.178 46.3558 163.959 46.2341C163.764 46.0881 163.667 45.9178 163.667 45.7232ZM186.076 44.7742C185.662 45.1392 185.224 45.4433 184.762 45.6867C184.348 45.9056 183.922 46.1125 183.484 46.3071C183.922 46.1611 184.348 45.9908 184.762 45.7962C185.224 45.6015 185.662 45.2609 186.076 44.7742ZM194.396 58.7526C194.444 57.39 194.481 56.0396 194.505 54.7014C194.529 53.3875 194.542 51.9885 194.542 50.5043C194.542 49.8717 194.529 49.239 194.505 48.6064C194.481 47.9981 194.444 47.402 194.396 46.8181V50.8327C194.396 52.171 194.371 53.497 194.323 54.8109C194.298 56.1491 194.213 57.463 194.067 58.7526C193.946 58.5336 193.836 58.3025 193.739 58.0591C193.641 57.8402 193.568 57.5968 193.52 57.3292C193.568 56.6723 193.593 56.064 193.593 55.5044C193.617 54.9691 193.629 54.3729 193.629 53.716L194.067 53.497C193.994 52.9861 193.946 52.4629 193.921 51.9276C193.897 51.4167 193.885 50.9057 193.885 50.3948C193.885 49.8352 193.885 49.2877 193.885 48.7524C193.909 48.2415 193.921 47.7062 193.921 47.1465C193.921 46.4653 193.897 45.7962 193.848 45.1392C193.824 44.4579 193.751 43.7767 193.629 43.0954H193.52C193.568 44.1173 193.605 45.127 193.629 46.1246C193.678 47.1222 193.702 48.1198 193.702 49.1174C193.702 49.5553 193.69 49.9933 193.666 50.4313L193.629 51.3802C193.581 49.0444 193.495 46.7572 193.374 44.5188C193.276 42.1343 193.106 39.689 192.863 37.1829L193.009 34.1536C192.741 34.1293 192.461 34.1171 192.169 34.1171H191.33L191.22 33.2777C191.22 33.156 191.306 33.0465 191.476 32.9492C191.646 32.8519 191.987 32.8032 192.498 32.8032H192.863V32.3653C192.06 32.2679 191.427 32.0976 190.965 31.8543C190.527 31.611 190.308 31.3555 190.308 31.0879C190.308 30.8445 190.527 30.6377 190.965 30.4674C191.403 30.2728 191.963 30.1268 192.644 30.0295C193.349 29.9078 194.116 29.8226 194.943 29.774C195.77 29.7253 196.573 29.701 197.352 29.701C198.204 29.701 199.116 29.7253 200.089 29.774C201.087 29.8226 202.084 29.9443 203.082 30.1389C204.08 30.3336 205.041 30.6377 205.965 31.0514C206.914 31.4407 207.766 32.0003 208.52 32.7302C209.274 33.4358 209.895 34.3361 210.381 35.431C210.892 36.5016 211.221 37.8155 211.367 39.3727C211.367 40.6866 211.075 41.7693 210.491 42.6209C209.931 43.4482 209.25 44.1173 208.447 44.6282C207.644 45.1392 206.805 45.5042 205.929 45.7232C205.077 45.9421 204.371 46.0881 203.812 46.1611C203.252 46.2828 202.607 46.4288 201.878 46.5991C201.148 46.7451 200.527 46.8181 200.016 46.8181C199.457 46.8181 199.128 46.7572 199.031 46.6356C198.933 46.5139 198.885 46.3558 198.885 46.1611C199.98 46.1125 201.075 46.0273 202.17 45.9056C203.264 45.7597 204.359 45.5163 205.454 45.1757C204.359 45.4433 203.264 45.6502 202.17 45.7962C201.075 45.9178 199.98 46.003 198.885 46.0516C198.885 45.9056 198.873 45.7597 198.848 45.6137C198.824 45.4433 198.751 45.3582 198.629 45.3582C198.386 45.3582 198.191 45.7475 198.045 46.5261C197.924 47.3047 197.826 48.2293 197.753 49.2999C197.705 50.3948 197.668 51.514 197.644 52.6576C197.644 53.8012 197.644 54.7501 197.644 55.5044C197.644 55.845 197.656 56.1978 197.68 56.5628C197.729 56.9521 197.753 57.2805 197.753 57.5482C197.753 57.7915 197.717 57.9983 197.644 58.1686C197.571 58.339 197.364 58.4241 197.023 58.4241V53.8255C196.975 54.6041 196.938 55.3705 196.914 56.1248C196.914 56.8791 196.914 57.6455 196.914 58.4241H196.257V58.7161C196.257 58.9351 196.293 59.0932 196.366 59.1905C196.099 59.6528 195.795 59.884 195.454 59.884C195.186 59.884 194.98 59.811 194.834 59.665C194.712 59.519 194.529 59.3244 194.286 59.0811L194.396 58.7526ZM197.936 43.5333H198.447C199.298 43.5333 200.272 43.4847 201.367 43.3874C202.486 43.29 203.532 43.1075 204.505 42.8399C205.479 42.5723 206.294 42.1951 206.951 41.7085C207.632 41.2219 207.973 40.5892 207.973 39.8106V39.5187C207.973 39.2754 207.948 39.0077 207.9 38.7157C207.875 38.4238 207.778 38.1439 207.608 37.8763C207.632 37.998 207.693 38.2413 207.79 38.6062C207.887 38.9712 207.936 39.2754 207.936 39.5187C207.936 40.2729 207.668 40.8934 207.133 41.38C206.622 41.8423 205.965 42.2194 205.162 42.5114C204.384 42.7791 203.52 42.9737 202.571 43.0954C201.646 43.1927 200.758 43.2414 199.907 43.2414H199.177C198.933 43.2414 198.69 43.2292 198.447 43.2049C198.787 42.9372 199.225 42.7547 199.761 42.6574C200.32 42.5358 200.904 42.4384 201.513 42.3654C202.121 42.2924 202.717 42.2194 203.301 42.1465C203.885 42.0735 204.384 41.9518 204.797 41.7815L205.016 42.2194C205.868 41.8058 206.464 41.4043 206.805 41.015C207.17 40.6014 207.352 40.0418 207.352 39.3362C207.352 38.2169 207.036 37.2315 206.403 36.3799C205.795 35.5283 204.968 34.9565 203.921 34.6646L203.812 34.8836C204.712 35.2242 205.491 35.7838 206.148 36.5624C206.805 37.341 207.133 38.2778 207.133 39.3727C207.133 39.9566 206.999 40.4189 206.732 40.7596C206.488 41.0515 206.099 41.3192 205.564 41.5625C206.002 41.3679 206.33 41.1245 206.549 40.8326C206.817 40.4919 206.999 40.1148 207.097 39.7012C207.097 38.6792 206.853 37.8155 206.367 37.1099C205.88 36.4043 205.199 35.8446 204.323 35.431C203.447 34.993 202.388 34.6889 201.148 34.5186C199.931 34.3239 198.581 34.2266 197.096 34.2266C197.291 35.2729 197.401 36.4164 197.425 37.6573C197.474 38.8739 197.559 40.0661 197.68 41.234L197.936 43.5333ZM194.25 37.9493C194.298 37.9006 194.347 37.6938 194.396 37.3288C194.444 36.9639 194.481 36.5746 194.505 36.1609C194.554 35.723 194.59 35.3215 194.615 34.9565C194.663 34.5672 194.712 34.3361 194.761 34.2631L194.286 34.2266L194.25 37.9493ZM205.381 41.6355L205.564 41.5625L205.381 41.6355ZM228.31 48.8254C227.385 49.1417 226.679 49.312 226.193 49.3364C225.706 49.385 225.28 49.4215 224.915 49.4459C223.553 49.4459 222.324 49.1904 221.229 48.6794C220.134 48.1685 219.198 47.475 218.419 46.5991C217.64 45.7232 217.032 44.7012 216.594 43.5333C216.18 42.3411 215.974 41.0759 215.974 39.7377C215.974 38.959 216.047 38.1561 216.193 37.3288C216.339 36.4773 216.558 35.65 216.85 34.8471C217.142 34.0198 217.519 33.2534 217.981 32.5477C218.419 31.8421 218.942 31.2095 219.55 30.6499C218.918 31.1609 218.382 31.7691 217.944 32.4747C217.482 33.1804 217.093 33.9468 216.777 34.7741C216.46 35.577 216.229 36.4164 216.083 37.2924C215.937 38.1439 215.864 38.9712 215.864 39.7741C215.864 40.7961 216.022 41.891 216.339 43.0589C216.679 44.2025 217.215 45.273 217.944 46.2706C218.674 47.2439 219.611 48.059 220.755 48.7159C221.923 49.3729 223.334 49.7013 224.988 49.7013C225.767 49.7013 226.582 49.5918 227.434 49.3729C226.509 49.9811 225.475 50.2853 224.331 50.2853C223.407 50.2853 222.531 50.1393 221.704 49.8473C220.901 49.5797 220.146 49.1904 219.441 48.6794C218.76 48.1928 218.139 47.6088 217.58 46.9276C217.02 46.2463 216.545 45.5163 216.156 44.7377L216.485 44.4458C216.071 43.6185 215.767 42.7912 215.572 41.964C215.402 41.1367 215.317 40.2973 215.317 39.4457C215.317 38.2048 215.487 37.0125 215.828 35.869C216.193 34.7254 216.667 33.6427 217.251 32.6207L218.127 31.4163C218.273 31.1487 218.48 30.881 218.747 30.6134C219.039 30.3458 219.356 30.0903 219.696 29.847C220.037 29.5793 220.39 29.3482 220.755 29.1535C221.144 28.9345 221.509 28.7399 221.85 28.5696C222.726 28.1316 223.602 27.7423 224.477 27.4017C225.353 27.0367 226.375 26.7691 227.543 26.5987L227.397 26.4892C225.159 26.7082 223.261 27.2557 221.704 28.1316C220.146 28.9832 218.881 30.0295 217.908 31.2703C216.935 32.5112 216.229 33.8738 215.791 35.358C215.353 36.8179 215.134 38.2534 215.134 39.6647C215.134 40.4189 215.195 41.1854 215.317 41.964C215.463 42.7182 215.669 43.4725 215.937 44.2268C215.329 42.7669 215.025 41.2219 215.025 39.5917C215.025 37.9858 215.292 36.3921 215.828 34.8106C216.363 33.229 217.202 31.7691 218.346 30.4309C219.806 29.0927 221.4 28.0708 223.127 27.3652C224.855 26.6352 226.521 26.2703 228.127 26.2703C228.638 26.2703 229.161 26.3554 229.697 26.5257C230.232 26.6961 230.718 26.9637 231.156 27.3287C231.594 27.6693 231.947 28.1194 232.215 28.6791C232.507 29.2387 232.653 29.92 232.653 30.7229C232.653 31.3798 232.495 32.1828 232.178 33.1317C231.862 34.0806 231.388 35.0052 230.755 35.9055C230.147 36.7814 229.38 37.5357 228.456 38.1683C227.531 38.7766 226.46 39.0807 225.244 39.0807H224.039C223.139 38.8861 222.312 38.6671 221.558 38.4238C220.828 38.1561 220.134 37.9493 219.477 37.8033C219.38 38.1926 219.319 38.5697 219.295 38.9347C219.295 39.2754 219.295 39.616 219.295 39.9566C219.295 40.6622 219.368 41.3557 219.514 42.037C219.684 42.6939 219.94 43.3022 220.28 43.8618C220.621 44.4214 221.047 44.8959 221.558 45.2852C222.093 45.6502 222.738 45.8813 223.492 45.9786C223.954 46.076 224.356 46.1368 224.696 46.1611C225.037 46.1611 225.317 46.1733 225.536 46.1976C225.779 46.1976 225.949 46.2341 226.047 46.3071C226.168 46.3558 226.229 46.4653 226.229 46.6356C225.986 46.7086 225.731 46.7572 225.463 46.7816C225.22 46.8059 224.964 46.8181 224.696 46.8181C223.845 46.8181 223.078 46.6842 222.397 46.4166C221.716 46.1246 221.132 45.7962 220.645 45.4312C221.205 45.9908 221.874 46.3923 222.653 46.6356C223.431 46.8546 224.198 46.9641 224.952 46.9641C225.366 46.9641 225.791 46.9276 226.229 46.8546C226.181 47.0006 226.156 47.0857 226.156 47.11C226.156 47.256 226.217 47.3534 226.339 47.402C226.436 47.3777 226.606 47.3169 226.85 47.2195C227.093 47.0979 227.336 46.9884 227.58 46.8911C227.847 46.7694 228.103 46.6721 228.346 46.5991C228.589 46.5018 228.76 46.4531 228.857 46.4531C228.979 46.4531 229.088 46.4774 229.186 46.5261C229.283 46.5504 229.332 46.6842 229.332 46.9276C229.332 47.1709 229.246 47.4628 229.076 47.8035C228.906 48.1441 228.65 48.4848 228.31 48.8254ZM223.273 34.3726L224.076 34.5186C224.344 34.5672 224.587 34.5916 224.806 34.5916C225.049 34.5916 225.329 34.5186 225.645 34.3726C225.986 34.2023 226.314 33.9711 226.631 33.6791C226.971 33.3872 227.263 33.0222 227.507 32.5842C227.774 32.1463 227.969 31.6475 228.091 31.0879L228.164 30.8689C227.823 30.8689 227.312 30.954 226.631 31.1244C225.949 31.2947 225.244 31.5258 224.514 31.8178C223.784 32.0854 223.103 32.4139 222.47 32.8032C221.837 33.1682 221.4 33.5697 221.156 34.0076C221.521 34.0806 221.874 34.1536 222.215 34.2266C222.58 34.2753 222.932 34.3239 223.273 34.3726ZM221.594 37.0734C221.643 37.0247 221.667 36.9517 221.667 36.8544C221.692 36.7571 221.704 36.6841 221.704 36.6354L219.988 36.015L219.806 36.5259L221.594 37.0734ZM220.572 45.3582C220.402 45.1635 220.232 44.9689 220.061 44.7742C219.915 44.6039 219.794 44.4336 219.696 44.2633C219.915 44.6769 220.207 45.0419 220.572 45.3582ZM249.231 48.8254C248.307 49.1417 247.601 49.312 247.114 49.3364C246.628 49.385 246.202 49.4215 245.837 49.4459C244.474 49.4459 243.246 49.1904 242.151 48.6794C241.056 48.1685 240.119 47.475 239.341 46.5991C238.562 45.7232 237.954 44.7012 237.516 43.5333C237.102 42.3411 236.895 41.0759 236.895 39.7377C236.895 38.959 236.968 38.1561 237.114 37.3288C237.26 36.4773 237.479 35.65 237.771 34.8471C238.063 34.0198 238.44 33.2534 238.903 32.5477C239.341 31.8421 239.864 31.2095 240.472 30.6499C239.839 31.1609 239.304 31.7691 238.866 32.4747C238.404 33.1804 238.015 33.9468 237.698 34.7741C237.382 35.577 237.151 36.4164 237.005 37.2924C236.859 38.1439 236.786 38.9712 236.786 39.7741C236.786 40.7961 236.944 41.891 237.26 43.0589C237.601 44.2025 238.136 45.273 238.866 46.2706C239.596 47.2439 240.533 48.059 241.676 48.7159C242.844 49.3729 244.255 49.7013 245.91 49.7013C246.689 49.7013 247.504 49.5918 248.355 49.3729C247.431 49.9811 246.397 50.2853 245.253 50.2853C244.328 50.2853 243.453 50.1393 242.625 49.8473C241.822 49.5797 241.068 49.1904 240.362 48.6794C239.681 48.1928 239.061 47.6088 238.501 46.9276C237.942 46.2463 237.467 45.5163 237.078 44.7377L237.406 44.4458C236.993 43.6185 236.688 42.7912 236.494 41.964C236.323 41.1367 236.238 40.2973 236.238 39.4457C236.238 38.2048 236.409 37.0125 236.749 35.869C237.114 34.7254 237.589 33.6427 238.173 32.6207L239.049 31.4163C239.195 31.1487 239.401 30.881 239.669 30.6134C239.961 30.3458 240.277 30.0903 240.618 29.847C240.959 29.5793 241.311 29.3482 241.676 29.1535C242.066 28.9345 242.431 28.7399 242.771 28.5696C243.647 28.1316 244.523 27.7423 245.399 27.4017C246.275 27.0367 247.297 26.7691 248.465 26.5987L248.319 26.4892C246.08 26.7082 244.182 27.2557 242.625 28.1316C241.068 28.9832 239.803 30.0295 238.83 31.2703C237.856 32.5112 237.151 33.8738 236.713 35.358C236.275 36.8179 236.056 38.2534 236.056 39.6647C236.056 40.4189 236.117 41.1854 236.238 41.964C236.384 42.7182 236.591 43.4725 236.859 44.2268C236.25 42.7669 235.946 41.2219 235.946 39.5917C235.946 37.9858 236.214 36.3921 236.749 34.8106C237.285 33.229 238.124 31.7691 239.268 30.4309C240.727 29.0927 242.321 28.0708 244.049 27.3652C245.776 26.6352 247.443 26.2703 249.049 26.2703C249.56 26.2703 250.083 26.3554 250.618 26.5257C251.153 26.6961 251.64 26.9637 252.078 27.3287C252.516 27.6693 252.869 28.1194 253.136 28.6791C253.428 29.2387 253.574 29.92 253.574 30.7229C253.574 31.3798 253.416 32.1828 253.1 33.1317C252.784 34.0806 252.309 35.0052 251.677 35.9055C251.068 36.7814 250.302 37.5357 249.377 38.1683C248.453 38.7766 247.382 39.0807 246.165 39.0807H244.961C244.061 38.8861 243.234 38.6671 242.479 38.4238C241.749 38.1561 241.056 37.9493 240.399 37.8033C240.302 38.1926 240.241 38.5697 240.216 38.9347C240.216 39.2754 240.216 39.616 240.216 39.9566C240.216 40.6622 240.289 41.3557 240.435 42.037C240.606 42.6939 240.861 43.3022 241.202 43.8618C241.543 44.4214 241.968 44.8959 242.479 45.2852C243.015 45.6502 243.659 45.8813 244.414 45.9786C244.876 46.076 245.277 46.1368 245.618 46.1611C245.959 46.1611 246.238 46.1733 246.457 46.1976C246.701 46.1976 246.871 46.2341 246.968 46.3071C247.09 46.3558 247.151 46.4653 247.151 46.6356C246.908 46.7086 246.652 46.7572 246.384 46.7816C246.141 46.8059 245.886 46.8181 245.618 46.8181C244.766 46.8181 244 46.6842 243.319 46.4166C242.637 46.1246 242.054 45.7962 241.567 45.4312C242.126 45.9908 242.796 46.3923 243.574 46.6356C244.353 46.8546 245.119 46.9641 245.874 46.9641C246.287 46.9641 246.713 46.9276 247.151 46.8546C247.102 47.0006 247.078 47.0857 247.078 47.11C247.078 47.256 247.139 47.3534 247.26 47.402C247.358 47.3777 247.528 47.3169 247.771 47.2195C248.015 47.0979 248.258 46.9884 248.501 46.8911C248.769 46.7694 249.024 46.6721 249.268 46.5991C249.511 46.5018 249.681 46.4531 249.779 46.4531C249.9 46.4531 250.01 46.4774 250.107 46.5261C250.205 46.5504 250.253 46.6842 250.253 46.9276C250.253 47.1709 250.168 47.4628 249.998 47.8035C249.827 48.1441 249.572 48.4848 249.231 48.8254ZM244.195 34.3726L244.998 34.5186C245.265 34.5672 245.509 34.5916 245.728 34.5916C245.971 34.5916 246.251 34.5186 246.567 34.3726C246.908 34.2023 247.236 33.9711 247.552 33.6791C247.893 33.3872 248.185 33.0222 248.428 32.5842C248.696 32.1463 248.891 31.6475 249.012 31.0879L249.085 30.8689C248.745 30.8689 248.234 30.954 247.552 31.1244C246.871 31.2947 246.165 31.5258 245.436 31.8178C244.706 32.0854 244.024 32.4139 243.392 32.8032C242.759 33.1682 242.321 33.5697 242.078 34.0076C242.443 34.0806 242.796 34.1536 243.136 34.2266C243.501 34.2753 243.854 34.3239 244.195 34.3726ZM242.516 37.0734C242.564 37.0247 242.589 36.9517 242.589 36.8544C242.613 36.7571 242.625 36.6841 242.625 36.6354L240.91 36.015L240.727 36.5259L242.516 37.0734ZM241.494 45.3582C241.324 45.1635 241.153 44.9689 240.983 44.7742C240.837 44.6039 240.715 44.4336 240.618 44.2633C240.837 44.6769 241.129 45.0419 241.494 45.3582ZM276.138 21.5257C276.187 22.2313 276.224 22.9247 276.248 23.606C276.272 24.2629 276.284 24.9442 276.284 25.6498C276.284 27.1097 276.236 28.5817 276.138 30.0659C276.065 31.5258 275.968 33.01 275.846 34.5186C275.725 36.0271 275.603 37.5722 275.481 39.1537C275.36 40.7352 275.25 42.3776 275.153 44.0808C275.153 44.3484 275.141 44.6282 275.116 44.9202C275.116 45.1879 275.092 45.492 275.043 45.8326V46.2706C275.043 46.3436 275.019 46.4409 274.97 46.5626C274.922 46.6842 274.873 46.7694 274.824 46.8181C274.508 47.183 274.216 47.4628 273.949 47.6575C273.705 47.8278 273.474 47.9616 273.255 48.059C273.036 48.132 272.829 48.1685 272.635 48.1685C272.44 48.1928 272.245 48.2171 272.051 48.2415H272.27C272.343 48.2415 272.477 48.2293 272.671 48.205C272.89 48.1806 273.121 48.1441 273.365 48.0955C273.632 48.0225 273.876 47.9373 274.095 47.84C274.338 47.7183 274.508 47.5602 274.605 47.3655L274.934 46.7086C275.08 46.4409 275.165 46.1611 275.189 45.8691C275.238 45.5528 275.262 45.2487 275.262 44.9567C275.287 44.6404 275.299 44.3363 275.299 44.0443C275.299 43.7523 275.323 43.4725 275.372 43.2049C275.445 41.672 275.542 40.1391 275.664 38.6062C275.81 37.0734 275.944 35.5283 276.065 33.9711C276.187 32.4139 276.297 30.8446 276.394 29.263C276.491 27.6571 276.54 26.0269 276.54 24.3724C276.54 23.8615 276.528 23.3748 276.503 22.9125C276.503 22.4259 276.491 21.9636 276.467 21.5257C276.54 21.623 276.613 21.7811 276.686 22.0001C276.783 22.1948 276.856 22.5111 276.905 22.949C277.026 23.2167 277.099 23.5087 277.124 23.825C277.148 24.1413 277.185 24.4697 277.233 24.8104C277.233 26.4649 277.172 28.0708 277.051 29.628C276.929 31.1609 276.807 32.6937 276.686 34.2266L276.357 34.3361L276.029 40.5771C276.029 42.3289 275.944 43.7767 275.773 44.9202C275.627 46.0395 275.494 46.7816 275.372 47.1465V47.256C275.007 47.621 274.691 47.9008 274.423 48.0955C274.18 48.2658 273.949 48.3996 273.73 48.4969C273.511 48.5943 273.304 48.6429 273.109 48.6429C272.939 48.6672 272.756 48.6794 272.562 48.6794H270.226C269.569 48.6064 268.863 48.5699 268.109 48.5699C267.355 48.5943 266.564 48.5213 265.737 48.3509C264.909 48.1806 264.058 47.8278 263.182 47.2925C262.33 46.7572 261.467 45.9056 260.591 44.7377C260.591 44.7864 260.578 44.8229 260.554 44.8472C260.53 44.8716 260.505 44.9081 260.481 44.9567C261.284 46.0516 262.245 46.9519 263.364 47.6575C264.508 48.3631 265.737 48.7767 267.051 48.8984H270.116C270.408 48.9471 270.7 48.9714 270.992 48.9714C271.309 48.9957 271.649 49.0079 272.014 49.0079C272.379 49.0079 272.854 48.9592 273.438 48.8619C274.046 48.7646 274.618 48.4483 275.153 47.913C275.25 47.7913 275.311 47.7062 275.335 47.6575C275.384 47.5845 275.433 47.4872 275.481 47.3655L275.591 47.1465C275.713 46.9276 275.798 46.7086 275.846 46.4896C275.919 46.2463 275.98 46.0151 276.029 45.7962C276.029 46.0638 276.005 46.2949 275.956 46.4896C275.932 46.6842 275.846 46.9762 275.7 47.3655L275.591 47.475L275.153 48.132C274.934 48.3509 274.691 48.5213 274.423 48.6429C274.155 48.7646 273.9 48.8497 273.657 48.8984C273.413 48.9714 273.182 49.0201 272.963 49.0444C272.768 49.0687 272.622 49.093 272.525 49.1174H271.321C271.004 49.1174 270.737 49.1052 270.518 49.0809C270.323 49.0809 270.165 49.0687 270.043 49.0444C269.946 49.0444 269.861 49.0322 269.788 49.0079H268.693C268.474 49.0079 268.255 49.0079 268.036 49.0079C267.817 49.0322 267.586 49.0444 267.343 49.0444C266.199 49.0444 265.08 48.7646 263.985 48.205C262.914 47.6697 261.917 46.9032 260.992 45.9056C260.092 44.9081 259.289 43.728 258.583 42.3654C257.878 41.0029 257.342 39.4943 256.977 37.8398C256.977 37.5722 256.953 37.3167 256.904 37.0734C256.88 36.8301 256.868 36.5746 256.868 36.3069C256.868 35.4067 257.002 34.4942 257.269 33.5697C257.561 32.6207 258.072 31.7691 258.802 31.0149C259.532 30.2606 260.518 29.6523 261.759 29.19C262.999 28.7034 264.569 28.4601 266.467 28.4601C267.343 28.4601 268.194 28.4844 269.021 28.5331C269.849 28.5574 270.688 28.5939 271.54 28.6426C271.442 28.7156 271.394 28.8007 271.394 28.898C271.394 29.0197 271.418 29.1292 271.467 29.2265C271.515 29.2995 271.54 29.3847 271.54 29.482C271.54 29.6037 271.442 29.7131 271.248 29.8105C271.077 29.8835 270.7 29.92 270.116 29.92C269.922 29.92 269.691 29.92 269.423 29.92C269.18 29.8956 268.9 29.8713 268.583 29.847V30.1754C269.751 30.3458 270.688 30.5769 271.394 30.8689C272.124 31.1365 272.574 31.3798 272.744 31.5988L272.817 31.6718L272.963 30.0659C273.036 29.409 273.073 28.6669 273.073 27.8396C273.073 26.988 273.048 26.1486 273 25.3213C272.951 24.4941 272.927 23.8493 272.927 23.387C272.927 22.803 272.963 22.4137 273.036 22.2191C273.109 22.0244 273.206 21.9271 273.328 21.9271C273.425 21.9271 273.498 22.1339 273.547 22.5476C273.62 22.9612 273.669 23.4357 273.693 23.9709C273.742 24.4819 273.766 24.9929 273.766 25.5038V26.5622C273.766 27.2678 273.754 27.9856 273.73 28.7156C273.705 29.4212 273.669 30.1268 273.62 30.8324C273.693 29.9078 273.754 29.0075 273.803 28.1316C273.851 27.2313 273.876 26.3189 273.876 25.3943C273.876 24.8347 273.863 24.2873 273.839 23.752C273.815 23.1923 273.778 22.6327 273.73 22.0731C273.876 22.2191 273.985 22.2921 274.058 22.2921C274.155 22.2921 274.228 22.2191 274.277 22.0731C274.253 21.8785 274.228 21.6716 274.204 21.4527C274.18 21.258 274.168 21.0634 274.168 20.8687V20.3213C274.289 20.0293 274.447 19.8103 274.642 19.6643C274.837 19.494 275.007 19.4088 275.153 19.4088C275.567 19.4088 275.932 19.859 276.248 20.7592L276.138 21.5257ZM270.226 32.4747C269.423 32.5234 268.51 32.5721 267.489 32.6207C266.491 32.6694 265.542 32.8032 264.642 33.0222C263.742 33.2169 262.963 33.521 262.306 33.9346C261.673 34.3483 261.321 34.92 261.248 35.65C261.248 36.4529 261.418 37.3532 261.759 38.3508C262.099 39.3483 262.549 40.2973 263.109 41.1975C263.669 42.0735 264.301 42.8277 265.007 43.4603C265.737 44.093 266.491 44.4458 267.27 44.5188H269.35C269.472 44.5188 269.557 44.5309 269.605 44.5553C269.678 44.5553 269.776 44.5796 269.897 44.6282H270.773C271.138 44.7012 271.503 44.7377 271.868 44.7377C271.868 42.6939 271.953 40.6014 272.124 38.4603C272.318 36.2948 272.525 34.1779 272.744 32.1098C272.428 32.3531 271.588 32.4747 270.226 32.4747ZM272.854 40.0296C272.854 40.2973 272.829 40.5771 272.781 40.8691C272.756 41.1367 272.744 41.4408 272.744 41.7815C273.012 40.4189 273.17 38.9834 273.219 37.4748C273.267 35.9663 273.328 34.5186 273.401 33.1317C273.279 34.2996 273.182 35.4553 273.109 36.5989C273.06 37.7182 272.975 38.8617 272.854 40.0296ZM276.029 43.9713C276.029 43.7037 276.041 43.436 276.065 43.1684C276.09 42.8764 276.126 42.5723 276.175 42.2559C276.151 42.9859 276.138 43.6793 276.138 44.3363C276.138 44.9689 276.102 45.419 276.029 45.6867C276.029 45.565 276.029 45.4555 276.029 45.3582C276.053 45.2365 276.065 45.1149 276.065 44.9932C276.065 44.7986 276.053 44.6161 276.029 44.4458C276.029 44.2754 276.029 44.1173 276.029 43.9713ZM276.576 38.0588C276.528 38.1804 276.491 38.3264 276.467 38.4968C276.443 38.6427 276.406 38.8009 276.357 38.9712L276.503 36.7449L276.576 38.0588ZM276.248 40.9056C276.248 41.1245 276.236 41.3435 276.211 41.5625C276.211 41.7815 276.199 41.9883 276.175 42.1829C276.175 41.6963 276.187 41.2097 276.211 40.7231C276.236 40.2121 276.272 39.7498 276.321 39.3362L276.248 40.9056ZM272.635 43.1684C272.659 43.071 272.671 42.9737 272.671 42.8764C272.671 42.7791 272.695 42.6696 272.744 42.5479V42.1465C272.72 42.1951 272.708 42.2438 272.708 42.2924C272.708 42.3168 272.695 42.3411 272.671 42.3654L272.635 42.4384V43.1684ZM272.525 44.9202C272.549 44.7012 272.574 44.4823 272.598 44.2633C272.622 44.02 272.635 43.7767 272.635 43.5333V43.4238L272.489 44.8472L272.525 44.9202ZM287.204 48.5699C286.961 48.6186 286.693 48.6429 286.401 48.6429H285.343C284.71 48.6429 284.26 48.7159 283.993 48.8619C283.749 49.0079 283.603 49.0809 283.555 49.0809L283.409 48.4239V47.767L283.226 44.3363C283.178 43.6793 283.044 42.9737 282.825 42.2194C282.606 41.4652 282.435 40.6987 282.314 39.9201C282.241 39.4092 282.18 38.9226 282.131 38.4603L281.985 37.0369C281.937 36.5502 281.876 36.0515 281.803 35.5405C281.754 35.0295 281.669 34.4821 281.547 33.8981C281.547 33.7521 281.547 33.6062 281.547 33.4602C281.572 33.3142 281.584 33.1682 281.584 33.0222C281.584 32.2679 281.523 31.5258 281.401 30.7959C281.28 30.0659 281.109 29.3482 280.89 28.6426C281.061 28.5696 281.219 28.5087 281.365 28.4601C281.511 28.3871 281.645 28.3506 281.766 28.3506C281.888 28.3506 282.022 28.4966 282.168 28.7886C282.314 29.0562 282.472 29.628 282.642 30.5039C282.691 30.5039 282.764 30.4917 282.861 30.4674C282.959 30.4188 283.032 30.3944 283.08 30.3944C283.056 29.9808 282.995 29.5428 282.898 29.0805C282.8 28.5939 282.703 28.1316 282.606 27.6936C282.508 27.2557 282.411 26.8664 282.314 26.5257C282.241 26.1608 282.204 25.8688 282.204 25.6498C282.204 25.6011 282.204 25.5403 282.204 25.4673C282.229 25.3943 282.289 25.3578 282.387 25.3578C282.508 25.3578 282.667 25.4917 282.861 25.7593C283.056 26.0269 283.263 26.3676 283.482 26.7812C283.701 27.1949 283.907 27.645 284.102 28.1316C284.321 28.5939 284.516 29.0319 284.686 29.4455C285.343 28.2046 286.085 27.2678 286.912 26.6352C287.764 25.9783 288.871 25.6498 290.234 25.6498C291.231 25.6498 292.046 25.7715 292.679 26.0148C293.312 26.2338 293.798 26.4892 294.139 26.7812C294.504 27.0489 294.747 27.3043 294.869 27.5477L295.088 27.9126C295.088 28.0586 295.015 28.1559 294.869 28.2046C294.236 27.5963 293.518 27.134 292.715 26.8177C291.912 26.5014 291.085 26.3433 290.234 26.3433C289.406 26.3433 288.786 26.4527 288.372 26.6717C287.983 26.8664 287.569 27.1097 287.131 27.4017C287.594 27.1097 288.019 26.8785 288.409 26.7082C288.822 26.5379 289.419 26.4527 290.197 26.4527C291.049 26.4527 291.864 26.6231 292.642 26.9637C293.421 27.28 294.09 27.6936 294.65 28.2046C294.528 28.2533 294.419 28.3141 294.321 28.3871C294.248 28.4357 294.212 28.5209 294.212 28.6426C294.333 28.6426 294.467 28.7277 294.613 28.898C294.759 29.044 294.893 29.2265 295.015 29.4455C295.136 29.6645 295.234 29.8956 295.307 30.1389C295.404 30.3579 295.453 30.5404 295.453 30.6864C295.453 31.1 295.295 31.3068 294.978 31.3068C294.735 31.3068 294.443 31.2217 294.102 31.0514C294.029 31.027 293.871 30.8932 293.628 30.6499C293.409 30.4066 293.129 30.1633 292.788 29.92C292.448 29.6523 292.058 29.409 291.621 29.19C291.183 28.971 290.696 28.8615 290.161 28.8615C289.723 28.8615 289.333 28.9589 288.993 29.1535C288.676 29.3238 288.384 29.5672 288.117 29.8835C287.849 30.1754 287.606 30.5161 287.387 30.9054L286.912 31.7813C287.277 31.1244 287.679 30.5282 288.117 29.993C288.603 29.3603 289.212 29.044 289.942 29.044C290.574 29.044 291.158 29.19 291.693 29.482C292.229 29.7496 292.667 30.0903 293.007 30.5039C292.594 30.3336 292.107 30.1633 291.548 29.993C290.988 29.8226 290.453 29.7375 289.942 29.7375C289.674 29.7375 289.443 29.7983 289.248 29.92C289.054 30.0416 288.883 30.1998 288.737 30.3944C288.616 30.5647 288.494 30.7594 288.372 30.9784C288.275 31.1974 288.165 31.4042 288.044 31.5988L287.569 31.6718C287.156 32.3774 286.815 33.2047 286.547 34.1536C286.304 35.0782 286.182 36.0515 286.182 37.0734C286.182 37.6817 286.207 38.2291 286.255 38.7157C286.328 39.2024 286.426 39.7012 286.547 40.2121L286.985 41.3435L286.912 40.2851C286.864 39.4578 286.815 38.7279 286.766 38.0953C286.718 37.4383 286.693 36.7206 286.693 35.942C286.742 35.2364 286.839 34.5672 286.985 33.9346C287.107 33.3993 287.29 32.9005 287.533 32.4383C287.241 33.0222 287.046 33.6913 286.949 34.4456C286.827 35.2729 286.766 36.1488 286.766 37.0734C286.766 37.8033 286.803 38.4968 286.876 39.1537C286.949 39.8106 287.034 40.4676 287.131 41.1245C287.253 41.7815 287.375 42.4628 287.496 43.1684C287.618 43.8496 287.715 44.6039 287.788 45.4312L287.898 46.1246L288.117 48.205L287.204 48.5699ZM287.642 32.2558L287.533 32.4383L287.642 32.2558ZM316.884 25.9418L316.775 26.5987C316.653 27.791 316.58 29.0684 316.556 30.4309C316.532 31.7691 316.434 33.1195 316.264 34.4821C316.459 33.1439 316.617 31.83 316.738 30.5404C316.86 29.2022 316.982 27.8883 317.103 26.5987C317.225 26.988 317.322 27.4017 317.395 27.8396C317.493 28.2776 317.541 28.7399 317.541 29.2265C317.42 30.4431 317.31 31.611 317.213 32.7302C317.116 33.8495 316.982 35.0174 316.811 36.2339L316.337 36.3434C316.215 37.4627 315.96 38.6792 315.571 39.9931C315.181 41.307 314.609 42.5236 313.855 43.6428C313.125 44.7621 312.176 45.6988 311.008 46.4531C309.84 47.183 308.441 47.548 306.811 47.548C306.276 47.548 305.704 47.5115 305.096 47.4385C304.512 47.3412 303.94 47.2074 303.381 47.0371C302.821 46.8424 302.286 46.5991 301.775 46.3071C301.264 46.0151 300.826 45.6502 300.461 45.2122L300.497 45.2852V45.3217L300.461 45.3582L300.351 45.3217C300.497 45.5407 300.655 45.7353 300.826 45.9056C300.388 45.5163 299.986 45.0662 299.621 44.5553C299.013 43.728 298.526 42.7426 298.161 41.599C297.942 40.9177 297.772 40.2243 297.65 39.5187C297.529 38.8131 297.444 38.071 297.395 37.2924C297.346 36.4894 297.31 35.6257 297.286 34.7011C297.286 33.7765 297.286 32.7546 297.286 31.6353C297.504 30.7594 297.675 29.8835 297.796 29.0075C297.918 28.1316 298.003 27.2557 298.052 26.3798C298.125 26.3798 298.21 26.3676 298.307 26.3433C298.405 26.3189 298.502 26.3068 298.599 26.3068C298.77 26.3068 298.916 26.4041 299.037 26.5987C299.183 26.7934 299.256 27.207 299.256 27.8396V28.1681C299.256 28.2654 299.244 28.3749 299.22 28.4966H299.658C299.852 27.4747 300.084 26.6961 300.351 26.1608C300.619 25.6255 300.887 25.3578 301.154 25.3578C301.349 25.3578 301.519 25.6376 301.665 26.1973C301.835 26.7326 301.921 27.5842 301.921 28.7521C301.921 29.6037 301.896 30.4674 301.848 31.3433C301.799 32.2193 301.775 33.1195 301.775 34.0441C301.775 35.4797 301.835 36.7814 301.957 37.9493C302.103 39.1172 302.371 40.1148 302.76 40.9421C303.149 41.7693 303.697 42.4141 304.402 42.8764C305.132 43.3144 306.069 43.5333 307.213 43.5333C308.162 43.5333 308.952 43.2414 309.585 42.6574C310.218 42.0735 310.753 41.2949 311.191 40.3216C311.629 39.3483 311.994 38.2291 312.286 36.9639C312.602 35.6743 312.894 34.3361 313.162 32.9492C313.21 32.5599 313.247 32.1706 313.271 31.7813C313.296 31.392 313.308 30.9905 313.308 30.5769V29.4455C313.308 28.7399 313.344 28.1438 313.417 27.6571C313.49 27.1705 313.697 26.8907 314.038 26.8177C314.038 28.0586 314.001 29.2873 313.928 30.5039C313.879 31.6718 313.782 32.8397 313.636 34.0076C313.806 32.864 313.94 31.7205 314.038 30.5769C314.135 29.3847 314.208 28.1681 314.257 26.9272C314.403 27.0245 314.524 27.0732 314.622 27.0732C314.719 27.0732 314.816 27.0245 314.914 26.9272V25.6133C315.035 25.1753 315.157 24.8712 315.279 24.7009C315.4 24.5062 315.534 24.4089 315.68 24.4089C315.826 24.4089 315.972 24.4819 316.118 24.6279C316.264 24.7739 316.41 24.9564 316.556 25.1753L316.884 25.9418ZM301.811 46.6356C302.395 46.9519 302.991 47.2074 303.599 47.402C304.232 47.5723 304.816 47.694 305.351 47.767C305.911 47.84 306.361 47.8765 306.702 47.8765C308.405 47.8765 309.853 47.4993 311.045 46.7451C312.237 45.9908 313.21 45.054 313.965 43.9348C314.743 42.7912 315.339 41.5747 315.753 40.2851C316.142 39.0685 316.434 37.9493 316.629 36.9274C316.459 37.9493 316.191 39.0807 315.826 40.3216C315.412 41.6355 314.816 42.8642 314.038 44.0078C313.283 45.1514 312.322 46.1125 311.154 46.8911C309.986 47.6697 308.575 48.059 306.921 48.059C305.996 48.059 305.084 47.9373 304.183 47.694C303.283 47.4507 302.444 47.0735 301.665 46.5626C301.714 46.5869 301.762 46.6113 301.811 46.6356ZM315.789 37.6573C315.862 37.2437 315.923 36.8422 315.972 36.4529C316.021 36.1123 316.069 35.7716 316.118 35.431C315.972 36.5016 315.729 37.633 315.388 38.8252C315.047 40.0661 314.573 41.2462 313.965 42.3654C313.356 43.4603 312.59 44.4336 311.665 45.2852C310.789 46.0881 309.767 46.6356 308.6 46.9276C309.621 46.7086 310.534 46.2828 311.337 45.6502C312.164 44.9932 312.87 44.2268 313.454 43.3509C314.038 42.4749 314.512 41.5382 314.877 40.5406C315.266 39.543 315.571 38.5819 315.789 37.6573ZM312.176 40.2121C311.909 40.7474 311.605 41.2584 311.264 41.745C310.948 42.2316 310.583 42.6696 310.169 43.0589C310.607 42.6939 310.984 42.2681 311.3 41.7815C311.641 41.2949 311.933 40.7717 312.176 40.2121ZM301.665 46.5626C301.373 46.3679 301.093 46.149 300.826 45.9056C301.093 46.149 301.373 46.3679 301.665 46.5626ZM316.665 36.6719L316.629 36.9274L316.665 36.6719ZM316.154 35.2485C316.13 35.3215 316.118 35.3823 316.118 35.431C316.118 35.3823 316.13 35.3215 316.154 35.2485ZM321.566 45.8326C321.566 45.711 321.602 45.565 321.675 45.3947C321.748 45.2244 321.785 45.0419 321.785 44.8472C321.858 44.2633 321.907 43.8496 321.931 43.6063C321.955 43.3387 321.967 43.1075 321.967 42.9129C321.967 41.891 321.931 40.7961 321.858 39.6282C321.809 38.4359 321.748 37.2924 321.675 36.1974C321.675 35.8568 321.663 35.4553 321.639 34.993C321.639 34.5307 321.615 34.1658 321.566 33.8981C321.639 33.0465 321.7 32.2071 321.748 31.3798C321.797 30.5526 321.821 29.7131 321.821 28.8615V27.9491C321.821 27.6328 321.809 27.3165 321.785 27.0002C321.858 27.0732 321.931 27.1097 322.004 27.1097C322.101 27.1097 322.199 27.0732 322.296 27.0002C322.418 26.9272 322.527 26.8907 322.624 26.8907C322.795 26.8907 322.929 27.0732 323.026 27.4382C323.148 27.8031 323.208 28.6061 323.208 29.847H323.537C323.658 28.4844 323.841 27.4017 324.084 26.5987C324.352 25.7958 324.62 25.3943 324.887 25.3943C325.009 25.3943 325.204 25.662 325.471 26.1973C325.739 26.7082 325.873 27.5233 325.873 28.6426L326.274 27.9856C326.542 27.6693 326.834 27.3408 327.15 27.0002C327.491 26.6596 327.868 26.3554 328.281 26.0878C328.695 25.8201 329.157 25.6011 329.668 25.4308C330.179 25.2362 330.763 25.1389 331.42 25.1389C332.685 25.1389 333.78 25.4308 334.705 26.0148C335.654 26.5744 336.445 27.3165 337.077 28.2411C337.71 29.1414 338.221 30.1754 338.61 31.3433C339.024 32.4869 339.34 33.6548 339.559 34.8471C339.778 36.015 339.924 37.1464 339.997 38.2413C340.07 39.3362 340.106 40.2729 340.106 41.0515C340.106 41.7572 340.058 42.1829 339.96 42.3289C339.887 42.4506 339.741 42.5236 339.523 42.5479C339.474 40.6744 339.352 38.7644 339.158 36.8179C338.963 34.8714 338.501 32.9857 337.771 31.1609C338.428 33.083 338.841 34.9809 339.012 36.8544C339.206 38.7036 339.304 40.5649 339.304 42.4384C339.158 42.3654 339.024 42.3289 338.902 42.3289C338.805 42.3289 338.72 42.3654 338.647 42.4384C338.647 42.6331 338.659 42.8399 338.683 43.0589C338.707 43.2535 338.72 43.4482 338.72 43.6428C338.744 43.8375 338.756 44.02 338.756 44.1903C338.61 44.7499 338.464 45.1514 338.318 45.3947C338.172 45.638 338.038 45.7597 337.917 45.7597C337.771 45.7597 337.649 45.6988 337.552 45.5772C337.454 45.4312 337.357 45.2609 337.26 45.0662C337.187 44.8716 337.102 44.6647 337.004 44.4458C336.931 44.2025 336.822 43.9713 336.676 43.7523C336.724 43.3387 336.761 43.0102 336.785 42.7669C336.81 42.4993 336.822 42.2803 336.822 42.11C336.822 41.453 336.81 40.6622 336.785 39.7377C336.761 38.8131 336.688 37.852 336.566 36.8544C336.469 35.8325 336.299 34.8227 336.055 33.8251C335.836 32.8032 335.52 31.903 335.106 31.1244C334.717 30.3214 334.218 29.6766 333.61 29.19C333.002 28.6791 332.272 28.4236 331.42 28.4236C330.836 28.4236 330.313 28.6182 329.851 29.0075C329.413 29.3968 329.024 29.8956 328.683 30.5039C328.367 31.1122 328.087 31.7813 327.843 32.5112C327.6 33.2169 327.406 33.8981 327.26 34.5551C327.479 33.8738 327.697 33.1804 327.916 32.4747C328.16 31.7691 328.44 31.1244 328.756 30.5404C329.097 29.9565 329.486 29.482 329.924 29.117C330.362 28.7277 330.873 28.5331 331.457 28.5331C332.211 28.5331 332.856 28.7399 333.391 29.1535C333.951 29.5672 334.413 30.1024 334.778 30.7594C335.167 31.4163 335.471 32.1706 335.69 33.0222C335.934 33.8495 336.116 34.7011 336.238 35.577C336.359 36.4286 336.432 37.268 336.457 38.0953C336.505 38.8982 336.53 39.5917 336.53 40.1756C336.53 40.6379 336.518 41.1002 336.493 41.5625C336.493 42.0248 336.481 42.4993 336.457 42.9859C336.238 42.0613 336.067 41.1002 335.946 40.1026C335.848 39.0807 335.739 38.0831 335.617 37.1099C335.496 36.1123 335.338 35.1634 335.143 34.2631C334.973 33.3385 334.717 32.4869 334.376 31.7083L334.632 31.3433C334.389 30.7837 334.109 30.3579 333.792 30.0659C333.501 29.7496 333.209 29.5185 332.917 29.3725C332.625 29.2265 332.357 29.1414 332.114 29.117C331.87 29.0927 331.712 29.0805 331.639 29.0805C331.031 29.0805 330.483 29.2995 329.997 29.7375C329.535 30.1754 329.121 30.7716 328.756 31.5258C328.415 32.2558 328.111 33.1074 327.843 34.0806C327.576 35.0539 327.345 36.0758 327.15 37.1464C326.955 38.2169 326.785 39.2997 326.639 40.3946C326.493 41.4652 326.371 42.4749 326.274 43.4238H326.603C326.724 42.5966 326.846 41.6842 326.968 40.6866C327.114 39.689 327.26 38.6792 327.406 37.6573C327.576 36.6111 327.77 35.6013 327.989 34.6281C328.208 33.6548 328.464 32.7789 328.756 32.0003C329.072 31.2217 329.437 30.5891 329.851 30.1024C330.24 29.6401 330.715 29.3725 331.274 29.2995C330.739 29.4212 330.289 29.7618 329.924 30.3214C329.535 30.9054 329.194 31.6232 328.902 32.4747C328.61 33.3263 328.342 34.2631 328.099 35.285C327.88 36.2826 327.673 37.2437 327.479 38.1683L326.749 43.4968C326.651 43.8375 326.578 44.1416 326.53 44.4093L326.384 45.1757C326.335 45.419 326.286 45.6867 326.238 45.9786C326.189 46.2463 326.128 46.5626 326.055 46.9276L325.946 47.3655H325.727L322.04 46.1246C321.919 46.1003 321.821 46.0638 321.748 46.0151C321.7 45.9665 321.639 45.9056 321.566 45.8326ZM327.916 27.1097C327.43 27.5233 327.041 27.9735 326.749 28.4601C326.481 28.9224 326.225 29.3968 325.982 29.8835V29.92C326.323 29.2144 326.797 28.4966 327.406 27.7666C327.989 27.0854 328.768 26.5744 329.741 26.2338C329.425 26.3311 329.121 26.4284 328.829 26.5257C328.488 26.6474 328.184 26.842 327.916 27.1097ZM332.296 25.9053C332.174 25.881 332.004 25.8688 331.785 25.8688C332.564 26.0634 333.294 26.2824 333.975 26.5257C334.656 26.7447 335.301 27.1948 335.909 27.8761C335.496 27.3165 334.948 26.8785 334.267 26.5622C333.61 26.2459 332.953 26.0269 332.296 25.9053ZM333.282 30.0659C333.087 29.92 332.856 29.8105 332.588 29.7375C332.345 29.6401 332.041 29.5185 331.676 29.3725L331.639 29.2995C332.053 29.3238 332.418 29.4212 332.734 29.5915C333.05 29.7375 333.355 30.0051 333.647 30.3944L333.282 30.0659ZM335.982 27.9491C336.323 28.3628 336.639 28.8372 336.931 29.3725C337.223 29.9078 337.479 30.3823 337.698 30.7959C337.454 30.2363 337.223 29.7253 337.004 29.263C336.785 28.8007 336.445 28.3628 335.982 27.9491ZM346.791 42.2924C347.181 42.4141 347.643 42.6331 348.178 42.9494C348.738 43.2657 349.358 43.5942 350.04 43.9348C350.721 44.2754 351.463 44.5796 352.266 44.8472C353.093 45.1149 353.969 45.2487 354.894 45.2487H355.295C355.441 45.2487 355.612 45.2244 355.806 45.1757L356.208 45.4677C357.157 45.1757 357.935 44.6282 358.543 43.8253C359.152 42.998 359.456 41.891 359.456 40.5041C359.456 39.5065 359.213 38.8252 358.726 38.4603C358.264 38.071 357.4 37.8763 356.135 37.8763C355.356 37.8763 354.541 37.9371 353.689 38.0588C352.862 38.1561 351.986 38.2048 351.062 38.2048C350.648 38.2048 350.222 38.1926 349.784 38.1683C349.346 38.1196 348.896 38.0345 348.434 37.9128V38.1318C349.407 38.3751 350.368 38.4968 351.317 38.4968C352.242 38.4968 353.118 38.4481 353.945 38.3508C354.796 38.2291 355.612 38.1683 356.39 38.1683C357.047 38.1683 357.558 38.2413 357.923 38.3873C358.312 38.5089 358.604 38.6792 358.799 38.8982C358.994 39.1172 359.115 39.3848 359.164 39.7012C359.237 39.9931 359.273 40.3216 359.273 40.6866C359.273 41.8301 358.969 42.8034 358.361 43.6063C357.777 44.3606 357.084 44.8351 356.281 45.0297C357.181 44.7134 357.887 44.166 358.397 43.3874C358.933 42.5601 359.2 41.6355 359.2 40.6136C359.2 39.8836 359.006 39.324 358.616 38.9347C358.251 38.5454 357.607 38.3508 356.682 38.3508C355.928 38.3508 355.076 38.3994 354.127 38.4968C353.178 38.5941 352.169 38.6427 351.098 38.6427C350.441 38.6427 349.675 38.5576 348.799 38.3873C347.947 38.2169 347.132 37.9006 346.353 37.4383C345.575 36.976 344.918 36.3434 344.383 35.5405C343.847 34.7132 343.58 33.6427 343.58 32.3288C343.58 31.2825 343.786 30.3214 344.2 29.4455C344.638 28.5452 345.21 27.7666 345.915 27.1097C346.621 26.4284 347.424 25.8931 348.324 25.5038C349.249 25.1145 350.198 24.9077 351.171 24.8834C352.096 24.8834 352.972 25.0172 353.799 25.2848C354.65 25.5282 355.453 25.8566 356.208 26.2703C356.962 26.6596 357.68 27.0975 358.361 27.5842C359.042 28.0708 359.675 28.5574 360.259 29.044L359.529 29.774C359.359 29.774 359.103 29.6766 358.762 29.482C358.422 29.263 357.899 28.898 357.193 28.3871L356.974 28.7156C357.85 29.4212 358.483 30.0781 358.872 30.6864C359.286 31.2947 359.492 31.7691 359.492 32.1098C359.444 32.3044 359.322 32.4018 359.127 32.4018C358.933 32.4018 358.543 32.2436 357.959 31.9273C357.376 31.611 356.706 31.2582 355.952 30.8689C355.222 30.4796 354.444 30.1268 353.616 29.8105C352.789 29.4942 352.035 29.336 351.354 29.336C350.964 29.336 350.575 29.409 350.186 29.555C349.796 29.701 349.444 29.9078 349.127 30.1754C348.811 30.4188 348.543 30.7229 348.324 31.0879C348.13 31.4528 348.032 31.8543 348.032 32.2923C348.032 32.9979 348.361 33.4723 349.018 33.7156C349.675 33.959 350.538 34.0806 351.609 34.0806C351.828 34.0806 352.059 34.0806 352.302 34.0806C352.57 34.0563 352.813 34.0198 353.032 33.9711C353.592 33.9711 353.957 33.959 354.127 33.9346C354.322 33.886 354.504 33.8616 354.675 33.8616C355.721 33.8616 356.767 33.9346 357.814 34.0806C358.86 34.2266 359.797 34.5429 360.624 35.0295C361.451 35.5162 362.12 36.2096 362.631 37.1099C363.142 38.0101 363.398 39.2145 363.398 40.7231C363.398 41.7693 363.215 42.8156 362.85 43.8618C362.509 44.8837 361.986 45.8083 361.281 46.6356C360.575 47.4385 359.699 48.0833 358.653 48.5699C357.607 49.0809 356.378 49.3364 354.967 49.3364C354.115 49.3364 353.105 49.166 351.937 48.8254C350.794 48.5091 349.699 48.132 348.653 47.694C347.631 47.2317 346.755 46.7572 346.025 46.2706C345.319 45.784 344.967 45.3704 344.967 45.0297C344.967 44.9324 345.027 44.8594 345.149 44.8107C346.633 45.9056 348.142 46.8059 349.675 47.5115C351.183 48.1685 352.728 48.5334 354.31 48.6064C353.531 48.5578 352.753 48.4239 351.974 48.205C351.171 47.9616 350.368 47.6697 349.565 47.329C348.787 46.9641 348.032 46.5626 347.302 46.1246C346.597 45.6623 345.915 45.2 345.259 44.7377L345.806 44.2633C345.733 44.2389 345.599 44.1538 345.405 44.0078C345.21 43.8618 345.015 43.6793 344.821 43.4603C344.65 43.2414 344.492 43.0102 344.346 42.7669C344.2 42.5236 344.127 42.2924 344.127 42.0735C344.127 41.8301 344.176 41.672 344.273 41.599C344.37 41.526 344.48 41.4895 344.602 41.4895C344.723 41.4895 344.979 41.5747 345.368 41.745C345.757 41.9153 346.232 42.0978 346.791 42.2924ZM354.857 46.0151C354.006 46.0151 353.057 45.8448 352.01 45.5042C350.989 45.1392 350.015 44.6769 349.091 44.1173C349.845 44.6282 350.684 45.0905 351.609 45.5042C352.534 45.8935 353.604 46.0881 354.821 46.0881C356.451 46.0881 357.741 45.5893 358.689 44.5918C359.663 43.5942 360.149 42.2559 360.149 40.5771V40.2121C360.028 39.4335 359.76 38.8009 359.346 38.3143C358.957 37.8033 358.349 37.5235 357.522 37.4748C358.032 37.5722 358.446 37.7303 358.762 37.9493C359.103 38.1683 359.359 38.4359 359.529 38.7522C359.724 39.0442 359.857 39.3727 359.93 39.7377C360.003 40.1026 360.04 40.4798 360.04 40.8691C359.943 42.4749 359.432 43.7402 358.507 44.6647C357.582 45.565 356.366 46.0151 354.857 46.0151ZM359.492 47.4385C360.101 47.0492 360.587 46.5748 360.952 46.0151C361.317 45.4555 361.634 44.8716 361.901 44.2633C361.39 45.2852 360.685 46.1855 359.784 46.9641C358.908 47.7427 357.862 48.2293 356.646 48.4239C357.108 48.3509 357.582 48.2536 358.069 48.132C358.58 47.986 359.054 47.7548 359.492 47.4385ZM362.96 40.5771C362.96 40.3094 362.911 40.054 362.814 39.8106C362.741 39.616 362.68 39.4092 362.631 39.1902L362.668 39.6647C362.692 39.8593 362.704 40.127 362.704 40.4676C362.704 41.1245 362.631 41.7572 362.485 42.3654C362.339 42.9737 362.157 43.5698 361.938 44.1538C362.157 43.6185 362.363 43.0589 362.558 42.4749C362.777 41.8666 362.911 41.234 362.96 40.5771ZM362.631 39.0807C362.631 39.105 362.631 39.1415 362.631 39.1902C362.631 39.1415 362.631 39.105 362.631 39.0807ZM356.244 45.0662C356.22 45.0662 356.195 45.0662 356.171 45.0662C356.195 45.0662 356.22 45.0662 356.244 45.0662Z" fill="white"/>
<path fill-rule="evenodd" clip-rule="evenodd" d="M54.3792 59.4332C48.2685 54.4897 39.9972 47.7983 14.373 66.4844C0.550582 55.847 -2.79471 37.4934 2.77834 27.6473C6.94697 25.2632 10.3885 21.1564 13.8382 17.0399C20.4206 9.18509 27.0327 1.29483 38.7827 5.26863C32.0621 15.8351 54.1499 26.9653 54.1499 0.512695C58.3586 8.75875 63.9656 14.0893 68.6021 18.4973C73.2237 22.891 76.881 26.368 77.2281 30.9018C78.2711 44.5254 74.2598 56.7105 64.2512 61.936C60.1316 64.0869 57.5454 61.9947 54.3792 59.4332ZM63.977 27.5074C63.977 30.6829 61.5636 33.2571 58.5865 33.2571C55.6094 33.2571 53.196 30.6829 53.196 27.5074C53.196 24.332 55.6094 21.7578 58.5865 21.7578C61.5636 21.7578 63.977 24.332 63.977 27.5074ZM26.549 22.4087H17.3953V32.1722H26.5487V32.1722H17.3953V42.1526H26.5487V32.1722H26.549V42.1526H35.7024V32.1722H26.549V22.4087ZM8.24149 32.1722H17.3951V42.1526H8.24149V32.1722ZM17.3953 42.1528H26.549V51.9163H17.3953V42.1528ZM49.4327 43.0205C52.4098 43.0205 54.8232 40.4464 54.8232 37.2709C54.8232 34.0955 52.4098 31.5213 49.4327 31.5213C46.4556 31.5213 44.0422 34.0955 44.0422 37.2709C44.0422 40.4464 46.4556 43.0205 49.4327 43.0205ZM63.977 47.0344C63.977 50.2098 61.5636 52.784 58.5865 52.784C55.6094 52.784 53.196 50.2098 53.196 47.0344C53.196 43.859 55.6094 41.2848 58.5865 41.2848C61.5636 41.2848 63.977 43.859 63.977 47.0344ZM67.7399 43.0205C70.717 43.0205 73.1304 40.4464 73.1304 37.2709C73.1304 34.0955 70.717 31.5213 67.7399 31.5213C64.7628 31.5213 62.3494 34.0955 62.3494 37.2709C62.3494 40.4464 64.7628 43.0205 67.7399 43.0205ZM66.1205 66.0448C63.3486 67.9218 60.9598 67.5707 59.7666 67.3953C59.6118 67.3726 59.4772 67.3528 59.3644 67.3412C57.4972 67.1493 60.2615 74.2705 62.1687 73.8815C66.8447 72.9278 69.1922 63.9649 66.1205 66.0448Z" fill="white"/>
<path d="M345.881 163.4V157.201V126.199H339.759V120H315.28V126.199H309.406H309.162H303.287V120H260.445V126.199H254.621V120H211.782V126.199H205.954V120H163.409H163.115H138.931V126.199H132.812V120H108.624H108.33H65.7855V126.199H59.9611V120H17.1186V126.199H11V175.801H17.1186V182H41.6012V175.801H47.7198V182H71.9041H72.1982H114.448H114.742H138.931V175.801H145.05V182H163.115H169.528H217.901H218.195H260.445H260.739H315.28H315.525H352V163.4H345.881Z" fill="black"/>
<path d="M17.1186 169.603V132.402H23.2413V126.199H53.8384V132.402H59.9611V169.603H47.7198V151.002H29.3599V169.603H17.1186ZM29.3599 144.799H47.7198V132.402H29.3599V144.799Z" fill="white"/>
<path d="M65.7855 163.4V157.201H78.0268V163.4H96.3826V151.002H71.8958V144.799H65.7855V132.402H71.8958V126.199H102.497V132.402H108.616V138.6H96.3826V132.402H78.0268V144.799H102.505V151.002H108.624V163.4H102.505V169.603H71.8958V163.4H65.7855Z" fill="white"/>
<path d="M114.452 169.603V126.199H126.69V132.402H132.792V138.6H138.914V132.402H145.033V126.199H157.274V169.603H145.049V144.799H138.931V151.002H132.792V144.799H126.69V169.603H114.452Z" fill="white"/>
<path d="M163.115 138.6V132.402H169.246V126.199H199.847V132.402H205.966V144.799H199.835V151.002H187.594V144.799H193.716V132.402H175.357V138.6H163.115ZM163.115 169.603V163.4H169.246V157.201H175.369V151.002H187.606V157.201H181.475V163.4H205.954V169.603H163.115Z" fill="white"/>
<path d="M211.782 163.4V132.402H217.901V126.199H248.502V132.402H254.621V163.4H248.502V169.603H217.901V163.4H211.782ZM224.019 144.799H230.142V138.6H236.261V132.402H224.019V144.799ZM230.142 163.4H242.379V144.799H236.261V151.002H230.142V163.4Z" fill="white"/>
<path d="M260.445 138.6V132.402H266.568V126.199H297.165V132.402H303.287V144.799H297.165V151.002H284.928V144.799H291.038V132.402H272.686V138.6H260.445ZM260.445 169.603V163.4H266.568V157.201H272.686V151.002H284.928V157.201H278.805V163.4H303.287V169.603H260.445Z" fill="white"/>
<path d="M309.162 144.799V138.6H315.28V132.402H321.399V126.199H333.64V163.4H339.759V169.603H315.28V163.4H321.399V144.799H309.162Z" fill="white"/>
</svg>
