<svg width="413" height="205" viewBox="0 0 413 205" fill="none" xmlns="http://www.w3.org/2000/svg">
<path d="M130.962 65.2194L130.744 65.11C129.722 64.8423 128.639 64.672 127.495 64.599C126.352 64.526 125.184 64.3679 123.992 64.1245C125.159 64.3679 126.303 64.5625 127.422 64.7085C128.542 64.8301 129.649 65.0735 130.744 65.4384C130.403 65.6574 130.038 65.7669 129.649 65.7669C129.186 65.7182 128.724 65.6452 128.262 65.5479C127.824 65.4506 127.349 65.3776 126.838 65.3289C126.838 65.1829 126.875 65.0735 126.948 65.0005C126.242 65.0005 125.537 64.9275 124.831 64.7815C124.15 64.6355 123.481 64.4773 122.824 64.307C122.167 64.1124 121.522 63.9421 120.889 63.7961C120.281 63.6257 119.709 63.5406 119.174 63.5406C119.174 63.6136 119.162 63.6501 119.137 63.6501C119.77 63.7717 120.366 63.9421 120.926 64.161C121.485 64.38 122.118 64.5503 122.824 64.672C123.505 64.8423 124.162 64.964 124.795 65.037C125.451 65.11 126.096 65.2073 126.729 65.3289C125.707 65.2316 124.661 65.0856 123.59 64.891C122.544 64.6963 121.51 64.4773 120.488 64.234L118.772 63.7961C118.164 65.3533 117.544 66.8861 116.911 68.3947C116.303 69.8789 115.707 71.3874 115.123 72.9203C115.074 72.823 114.989 72.7622 114.867 72.7378C114.77 72.7378 114.661 72.7378 114.539 72.7378C114.442 72.7378 114.344 72.7013 114.247 72.6283C114.15 72.5797 114.101 72.458 114.101 72.2634C114.101 72.0687 114.15 71.7889 114.247 71.4239C114.344 71.0833 114.527 70.621 114.794 70.0371C114.746 69.9884 114.661 69.9641 114.539 69.9641C114.442 69.9397 114.369 69.9276 114.32 69.9276C113.833 70.9495 113.359 71.7281 112.896 72.2634C112.459 72.823 112.106 73.1028 111.838 73.1028C111.546 73.1028 111.4 72.823 111.4 72.2634C111.4 71.8011 111.485 71.2171 111.656 70.5115C111.826 69.7816 112.033 69.003 112.276 68.1757C112.544 67.3484 112.836 66.4968 113.152 65.6209C113.468 64.7207 113.772 63.8447 114.064 62.9931C113.797 62.8228 113.505 62.7012 113.188 62.6282C112.896 62.5552 112.568 62.4943 112.203 62.4457C112.276 62.3483 112.313 62.2267 112.313 62.0807C112.313 61.9347 112.325 61.7887 112.349 61.6427C112.373 61.4968 112.422 61.3751 112.495 61.2778C112.568 61.1804 112.702 61.1318 112.896 61.1318C112.945 61.1318 113.091 61.1561 113.334 61.2048V60.8763C112.945 60.6817 112.641 60.4505 112.422 60.1829C112.227 59.9152 112.13 59.6476 112.13 59.3799C112.13 58.796 112.69 58.504 113.809 58.504C114.125 58.504 114.442 58.5283 114.758 58.577C115.098 58.6013 115.439 58.6378 115.78 58.6865L117.459 54.8543C117.824 54.027 118.213 53.1754 118.627 52.2995C119.064 51.4236 119.575 50.5598 120.159 49.7082C120.743 48.8566 121.4 48.0537 122.13 47.2994C122.884 46.5208 123.748 45.8274 124.722 45.2191L125.269 45.0001C125.95 45.1704 126.498 45.3164 126.911 45.4381C127.349 45.5354 127.702 45.6084 127.97 45.6571C128.213 45.7544 128.408 45.8152 128.554 45.8395H128.517L128.554 45.949C128.554 45.9734 128.542 45.9977 128.517 46.022L128.955 46.7885C130.537 49.4406 131.875 52.19 132.97 55.0368C134.065 57.8836 135.001 60.6817 135.78 63.4311C135.975 64.0394 136.206 64.6963 136.474 65.4019C136.766 66.0832 137.033 66.7402 137.276 67.3728C137.544 67.9811 137.763 68.5407 137.933 69.0516C138.104 69.5383 138.189 69.8911 138.189 70.11C138.189 70.2804 138.152 70.3899 138.079 70.4385C138.006 70.4628 137.909 70.475 137.787 70.475C137.155 68.8935 136.559 67.3363 135.999 65.8034C135.439 64.2949 134.892 62.7741 134.357 61.2413C134.843 62.7741 135.354 64.2949 135.89 65.8034C136.449 67.3363 137.009 68.8935 137.568 70.475H137.313C137.167 70.475 137.07 70.548 137.021 70.694C137.07 70.7427 137.13 70.8765 137.203 71.0955C137.276 71.2901 137.349 71.4969 137.422 71.7159C137.495 71.9592 137.556 72.2025 137.605 72.4459C137.654 72.6892 137.678 72.8717 137.678 72.9933C137.678 73.5286 137.52 73.7962 137.203 73.7962C137.033 73.7962 136.899 73.7597 136.802 73.6867C136.705 73.6138 136.595 73.5164 136.474 73.3948L136.109 73.0298C135.963 72.8838 135.78 72.7378 135.561 72.5918L132.057 62.5187C132.568 64.1002 133.067 65.6817 133.554 67.2633C134.065 68.8448 134.588 70.402 135.123 71.9349C134.734 71.4726 134.369 70.913 134.028 70.256C133.712 69.5991 133.408 68.9056 133.116 68.1757C132.848 67.4458 132.593 66.7037 132.349 65.9494C132.106 65.1708 131.863 64.4408 131.619 63.7596C131.619 63.8082 131.619 63.8569 131.619 63.9056C131.644 63.9299 131.656 63.9664 131.656 64.015C131.656 64.4043 131.534 64.6963 131.291 64.891L130.962 65.2194ZM130.744 61.4238C130.792 61.4238 130.865 61.4116 130.962 61.3873C131.06 61.3386 131.133 61.3143 131.181 61.3143C130.379 59.2948 129.576 57.3361 128.773 55.4383C127.994 53.5404 127.13 51.7156 126.181 49.9637L125.962 50.1827L126.51 51.1681C127.361 52.7253 128.128 54.3312 128.809 55.9857C129.49 57.6402 130.135 59.3434 130.744 61.0953C130.038 59.1974 129.271 57.3118 128.444 55.4383C127.641 53.5404 126.778 51.825 125.853 50.2922L125.707 50.3652C124.88 51.2168 124.101 52.2387 123.371 53.4309C122.666 54.6232 121.996 55.8397 121.364 57.0806L120.415 59.3799L121.035 59.5259C121.4 59.6232 121.753 59.7327 122.094 59.8544C122.459 59.9517 122.775 60.0612 123.043 60.1829C123.578 60.4505 124.284 60.6573 125.159 60.8033C126.035 60.9493 126.887 61.0953 127.714 61.2413C128.566 61.3629 129.296 61.5089 129.904 61.6792C130.537 61.8252 130.853 62.0442 130.853 62.3362L126.4 61.8252C126.668 61.8739 126.996 61.9347 127.386 62.0077C127.775 62.0564 128.164 62.1172 128.554 62.1902C128.967 62.2632 129.369 62.3362 129.758 62.4092C130.147 62.4578 130.476 62.5065 130.744 62.5552C130.744 62.6282 130.731 62.7012 130.707 62.7741C130.707 62.8228 130.707 62.8715 130.707 62.9201C130.707 62.9688 130.731 63.0053 130.78 63.0296C130.853 63.0296 130.926 63.0418 130.999 63.0661C131.096 63.0661 131.181 63.0905 131.254 63.1391C131.327 63.1634 131.4 63.2364 131.473 63.3581L130.744 61.4238ZM122.824 53.6134C122.872 53.6134 122.884 53.6499 122.86 53.7229C122.86 53.7716 122.872 53.7959 122.897 53.7959C122.945 53.7959 123.091 53.6256 123.335 53.2849C123.578 52.9443 123.858 52.555 124.174 52.117C124.49 51.6791 124.795 51.2654 125.086 50.8761C125.378 50.4868 125.585 50.2313 125.707 50.1097L125.524 49.8542C125.013 50.3408 124.539 50.9126 124.101 51.5696C123.663 52.2265 123.237 52.9078 122.824 53.6134ZM126.51 49.6717C127.288 50.9856 128.006 52.3603 128.663 53.7959C129.296 55.2071 129.892 56.6183 130.452 58.0295C129.989 56.6183 129.43 55.2071 128.773 53.7959C128.091 52.3603 127.349 50.9856 126.546 49.6717H126.51ZM132.094 55.1463C132.848 57.0928 133.59 59.0758 134.32 61.0953C133.639 59.1244 132.921 57.1779 132.167 55.2558C131.461 53.3579 130.646 51.4479 129.722 49.5257C130.598 51.3749 131.388 53.2484 132.094 55.1463ZM126.729 48.8688C127.045 48.9418 127.264 49.0148 127.386 49.0878C127.507 49.1608 127.593 49.1973 127.641 49.1973L127.678 49.0878C127.702 49.0878 127.653 49.0756 127.532 49.0513C127.41 49.0269 127.313 49.0026 127.24 48.9783L127.313 48.8323L126.875 48.6863L126.729 48.8688ZM124.94 48.5038L125.232 49.2703L125.196 48.5038C125.147 48.5038 125.086 48.4917 125.013 48.4673C124.965 48.443 124.916 48.4308 124.867 48.4308L124.94 48.5038ZM125.889 49.5622L125.634 49.7447L125.853 50.0367L126.072 49.8177L125.889 49.5622ZM126.4 49.4892H126.437L126.254 49.2338V49.2703L126.4 49.4892ZM160.358 48.9418L160.248 49.5987C160.127 50.791 160.054 52.0684 160.029 53.4309C160.005 54.7691 159.908 56.1195 159.737 57.4821C159.932 56.1439 160.09 54.83 160.212 53.5404C160.333 52.2022 160.455 50.8883 160.577 49.5987C160.698 49.988 160.796 50.4017 160.869 50.8396C160.966 51.2776 161.015 51.7399 161.015 52.2265C160.893 53.4431 160.783 54.611 160.686 55.7302C160.589 56.8495 160.455 58.0174 160.285 59.2339L159.81 59.3434C159.689 60.4627 159.433 61.6792 159.044 62.9931C158.654 64.307 158.083 65.5236 157.328 66.6428C156.598 67.7621 155.65 68.6988 154.482 69.4531C153.314 70.183 151.915 70.548 150.285 70.548C149.749 70.548 149.177 70.5115 148.569 70.4385C147.985 70.3412 147.413 70.2074 146.854 70.0371C146.294 69.8424 145.759 69.5991 145.248 69.3071C144.737 69.0151 144.299 68.6502 143.934 68.2122L143.971 68.2852V68.3217L143.934 68.3582L143.825 68.3217C143.971 68.5407 144.129 68.7353 144.299 68.9056C143.861 68.5163 143.46 68.0662 143.095 67.5553C142.486 66.728 142 65.7426 141.635 64.599C141.416 63.9177 141.245 63.2243 141.124 62.5187C141.002 61.8131 140.917 61.071 140.868 60.2924C140.82 59.4894 140.783 58.6257 140.759 57.7011C140.759 56.7765 140.759 55.7546 140.759 54.6353C140.978 53.7594 141.148 52.8835 141.27 52.0075C141.391 51.1316 141.477 50.2557 141.525 49.3798C141.598 49.3798 141.683 49.3676 141.781 49.3433C141.878 49.3189 141.975 49.3068 142.073 49.3068C142.243 49.3068 142.389 49.4041 142.511 49.5987C142.657 49.7934 142.73 50.207 142.73 50.8396V51.1681C142.73 51.2654 142.717 51.3749 142.693 51.4966H143.131C143.326 50.4747 143.557 49.6961 143.825 49.1608C144.092 48.6255 144.36 48.3578 144.627 48.3578C144.822 48.3578 144.992 48.6376 145.138 49.1973C145.309 49.7326 145.394 50.5842 145.394 51.7521C145.394 52.6037 145.37 53.4674 145.321 54.3433C145.272 55.2193 145.248 56.1195 145.248 57.0441C145.248 58.4797 145.309 59.7814 145.43 60.9493C145.576 62.1172 145.844 63.1148 146.233 63.9421C146.623 64.7693 147.17 65.4141 147.876 65.8764C148.606 66.3144 149.542 66.5333 150.686 66.5333C151.635 66.5333 152.426 66.2414 153.058 65.6574C153.691 65.0735 154.226 64.2949 154.664 63.3216C155.102 62.3483 155.467 61.2291 155.759 59.9639C156.075 58.6743 156.367 57.3361 156.635 55.9492C156.684 55.5599 156.72 55.1706 156.744 54.7813C156.769 54.392 156.781 53.9905 156.781 53.5769V52.4455C156.781 51.7399 156.817 51.1438 156.89 50.6571C156.963 50.1705 157.17 49.8907 157.511 49.8177C157.511 51.0586 157.474 52.2873 157.401 53.5039C157.353 54.6718 157.255 55.8397 157.109 57.0076C157.28 55.864 157.414 54.7205 157.511 53.5769C157.608 52.3847 157.681 51.1681 157.73 49.9272C157.876 50.0245 157.998 50.0732 158.095 50.0732C158.192 50.0732 158.29 50.0245 158.387 49.9272V48.6133C158.509 48.1753 158.63 47.8712 158.752 47.7009C158.873 47.5062 159.007 47.4089 159.153 47.4089C159.299 47.4089 159.445 47.4819 159.591 47.6279C159.737 47.7739 159.883 47.9564 160.029 48.1753L160.358 48.9418ZM145.284 69.6356C145.868 69.9519 146.464 70.2074 147.073 70.402C147.705 70.5723 148.289 70.694 148.825 70.767C149.384 70.84 149.834 70.8765 150.175 70.8765C151.878 70.8765 153.326 70.4993 154.518 69.7451C155.71 68.9908 156.684 68.054 157.438 66.9348C158.217 65.7912 158.813 64.5747 159.226 63.2851C159.616 62.0685 159.908 60.9493 160.102 59.9274C159.932 60.9493 159.664 62.0807 159.299 63.3216C158.886 64.6355 158.29 65.8642 157.511 67.0078C156.757 68.1514 155.796 69.1125 154.628 69.8911C153.46 70.6697 152.049 71.059 150.394 71.059C149.469 71.059 148.557 70.9373 147.657 70.694C146.756 70.4507 145.917 70.0735 145.138 69.5626C145.187 69.5869 145.236 69.6113 145.284 69.6356ZM159.263 60.6573C159.336 60.2437 159.397 59.8422 159.445 59.4529C159.494 59.1123 159.543 58.7716 159.591 58.431C159.445 59.5016 159.202 60.633 158.861 61.8252C158.521 63.0661 158.046 64.2462 157.438 65.3654C156.83 66.4603 156.063 67.4336 155.139 68.2852C154.263 69.0881 153.241 69.6356 152.073 69.9276C153.095 69.7086 154.007 69.2828 154.81 68.6502C155.637 67.9932 156.343 67.2268 156.927 66.3509C157.511 65.4749 157.985 64.5382 158.35 63.5406C158.74 62.543 159.044 61.5819 159.263 60.6573ZM155.65 63.2121C155.382 63.7474 155.078 64.2584 154.737 64.745C154.421 65.2316 154.056 65.6696 153.642 66.0589C154.08 65.6939 154.457 65.2681 154.774 64.7815C155.114 64.2949 155.406 63.7717 155.65 63.2121ZM145.138 69.5626C144.846 69.3679 144.567 69.149 144.299 68.9056C144.567 69.149 144.846 69.3679 145.138 69.5626ZM160.139 59.6719L160.102 59.9274L160.139 59.6719ZM159.628 58.2485C159.603 58.3215 159.591 58.3823 159.591 58.431C159.591 58.3823 159.603 58.3215 159.628 58.2485ZM167.704 65.2924C168.093 65.4141 168.555 65.6331 169.09 65.9494C169.65 66.2657 170.271 66.5942 170.952 66.9348C171.633 67.2754 172.375 67.5796 173.178 67.8472C174.005 68.1149 174.881 68.2487 175.806 68.2487H176.207C176.353 68.2487 176.524 68.2244 176.718 68.1757L177.12 68.4677C178.069 68.1757 178.847 67.6282 179.456 66.8253C180.064 65.998 180.368 64.891 180.368 63.5041C180.368 62.5065 180.125 61.8252 179.638 61.4603C179.176 61.071 178.312 60.8763 177.047 60.8763C176.268 60.8763 175.453 60.9371 174.601 61.0588C173.774 61.1561 172.898 61.2048 171.974 61.2048C171.56 61.2048 171.134 61.1926 170.696 61.1683C170.258 61.1196 169.808 61.0345 169.346 60.9128V61.1318C170.319 61.3751 171.28 61.4968 172.229 61.4968C173.154 61.4968 174.03 61.4481 174.857 61.3508C175.709 61.2291 176.524 61.1683 177.302 61.1683C177.959 61.1683 178.47 61.2413 178.835 61.3873C179.224 61.5089 179.516 61.6792 179.711 61.8982C179.906 62.1172 180.027 62.3848 180.076 62.7012C180.149 62.9931 180.186 63.3216 180.186 63.6866C180.186 64.8301 179.881 65.8034 179.273 66.6063C178.689 67.3606 177.996 67.8351 177.193 68.0297C178.093 67.7134 178.799 67.166 179.31 66.3874C179.845 65.5601 180.113 64.6355 180.113 63.6136C180.113 62.8836 179.918 62.324 179.529 61.9347C179.164 61.5454 178.519 61.3508 177.594 61.3508C176.84 61.3508 175.988 61.3994 175.039 61.4968C174.091 61.5941 173.081 61.6427 172.01 61.6427C171.353 61.6427 170.587 61.5576 169.711 61.3873C168.859 61.2169 168.044 60.9006 167.266 60.4383C166.487 59.976 165.83 59.3434 165.295 58.5405C164.759 57.7132 164.492 56.6427 164.492 55.3288C164.492 54.2825 164.699 53.3214 165.112 52.4455C165.55 51.5452 166.122 50.7666 166.828 50.1097C167.533 49.4284 168.336 48.8931 169.236 48.5038C170.161 48.1145 171.11 47.9077 172.083 47.8834C173.008 47.8834 173.884 48.0172 174.711 48.2848C175.563 48.5282 176.366 48.8566 177.12 49.2703C177.874 49.6596 178.592 50.0975 179.273 50.5842C179.954 51.0708 180.587 51.5574 181.171 52.044L180.441 52.774C180.271 52.774 180.015 52.6766 179.675 52.482C179.334 52.263 178.811 51.898 178.105 51.3871L177.886 51.7156C178.762 52.4212 179.395 53.0781 179.784 53.6864C180.198 54.2947 180.405 54.7691 180.405 55.1098C180.356 55.3044 180.234 55.4018 180.04 55.4018C179.845 55.4018 179.456 55.2436 178.872 54.9273C178.288 54.611 177.619 54.2582 176.864 53.8689C176.134 53.4796 175.356 53.1268 174.529 52.8105C173.701 52.4942 172.947 52.336 172.266 52.336C171.876 52.336 171.487 52.409 171.098 52.555C170.708 52.701 170.356 52.9078 170.039 53.1754C169.723 53.4188 169.455 53.7229 169.236 54.0879C169.042 54.4528 168.944 54.8543 168.944 55.2923C168.944 55.9979 169.273 56.4723 169.93 56.7156C170.587 56.959 171.451 57.0806 172.521 57.0806C172.74 57.0806 172.971 57.0806 173.215 57.0806C173.482 57.0563 173.726 57.0198 173.945 56.9711C174.504 56.9711 174.869 56.959 175.039 56.9346C175.234 56.886 175.417 56.8616 175.587 56.8616C176.633 56.8616 177.679 56.9346 178.726 57.0806C179.772 57.2266 180.709 57.5429 181.536 58.0295C182.363 58.5162 183.032 59.2096 183.543 60.1099C184.054 61.0101 184.31 62.2145 184.31 63.7231C184.31 64.7693 184.127 65.8156 183.762 66.8618C183.422 67.8837 182.898 68.8083 182.193 69.6356C181.487 70.4385 180.611 71.0833 179.565 71.5699C178.519 72.0809 177.29 72.3364 175.879 72.3364C175.027 72.3364 174.018 72.166 172.85 71.8254C171.706 71.5091 170.611 71.132 169.565 70.694C168.543 70.2317 167.667 69.7572 166.937 69.2706C166.232 68.784 165.879 68.3704 165.879 68.0297C165.879 67.9324 165.94 67.8594 166.061 67.8107C167.545 68.9056 169.054 69.8059 170.587 70.5115C172.095 71.1685 173.64 71.5334 175.222 71.6064C174.443 71.5578 173.665 71.4239 172.886 71.205C172.083 70.9616 171.28 70.6697 170.477 70.329C169.699 69.9641 168.944 69.5626 168.215 69.1246C167.509 68.6623 166.828 68.2 166.171 67.7377L166.718 67.2633C166.645 67.2389 166.511 67.1538 166.317 67.0078C166.122 66.8618 165.927 66.6793 165.733 66.4603C165.562 66.2414 165.404 66.0102 165.258 65.7669C165.112 65.5236 165.039 65.2924 165.039 65.0735C165.039 64.8301 165.088 64.672 165.185 64.599C165.283 64.526 165.392 64.4895 165.514 64.4895C165.635 64.4895 165.891 64.5747 166.28 64.745C166.669 64.9153 167.144 65.0978 167.704 65.2924ZM175.769 69.0151C174.918 69.0151 173.969 68.8448 172.923 68.5042C171.901 68.1392 170.927 67.6769 170.003 67.1173C170.757 67.6282 171.597 68.0905 172.521 68.5042C173.446 68.8935 174.516 69.0881 175.733 69.0881C177.363 69.0881 178.653 68.5893 179.602 67.5918C180.575 66.5942 181.061 65.2559 181.061 63.5771V63.2121C180.94 62.4335 180.672 61.8009 180.259 61.3143C179.869 60.8033 179.261 60.5235 178.434 60.4748C178.945 60.5722 179.358 60.7303 179.675 60.9493C180.015 61.1683 180.271 61.4359 180.441 61.7522C180.636 62.0442 180.769 62.3727 180.842 62.7377C180.915 63.1026 180.952 63.4798 180.952 63.8691C180.855 65.4749 180.344 66.7402 179.419 67.6647C178.495 68.565 177.278 69.0151 175.769 69.0151ZM180.405 70.4385C181.013 70.0492 181.499 69.5748 181.864 69.0151C182.229 68.4555 182.546 67.8716 182.813 67.2633C182.302 68.2852 181.597 69.1855 180.696 69.9641C179.821 70.7427 178.774 71.2293 177.558 71.4239C178.02 71.3509 178.495 71.2536 178.981 71.132C179.492 70.986 179.967 70.7548 180.405 70.4385ZM183.872 63.5771C183.872 63.3094 183.823 63.054 183.726 62.8106C183.653 62.616 183.592 62.4092 183.543 62.1902L183.58 62.6647C183.604 62.8593 183.616 63.127 183.616 63.4676C183.616 64.1245 183.543 64.7572 183.397 65.3654C183.251 65.9737 183.069 66.5698 182.85 67.1538C183.069 66.6185 183.276 66.0589 183.47 65.4749C183.689 64.8666 183.823 64.234 183.872 63.5771ZM183.543 62.0807C183.543 62.105 183.543 62.1415 183.543 62.1902C183.543 62.1415 183.543 62.105 183.543 62.0807ZM177.156 68.0662C177.132 68.0662 177.108 68.0662 177.083 68.0662C177.108 68.0662 177.132 68.0662 177.156 68.0662ZM186.667 68.7232C186.667 68.5772 186.752 68.4433 186.922 68.3217C187.092 68.2 187.287 68.0905 187.506 67.9932C187.749 67.8959 187.98 67.8107 188.199 67.7377C188.443 67.6647 188.625 67.6039 188.747 67.5553C189.915 67.7012 191.083 67.8229 192.251 67.9202C193.419 68.0175 194.586 68.0662 195.754 68.0662C196.192 68.0662 196.801 68.0662 197.579 68.0662C198.358 68.0419 199.209 67.9932 200.134 67.9202C201.059 67.8472 201.995 67.7377 202.944 67.5918C203.893 67.4214 204.757 67.1903 205.536 66.8983C206.314 66.6063 206.947 66.2414 207.433 65.8034C207.92 65.3654 208.163 64.818 208.163 64.161C208.163 63.6257 208.042 63.1513 207.798 62.7377C207.579 62.2997 207.275 61.9226 206.886 61.6062C206.521 61.2656 206.107 60.9858 205.645 60.7668C205.475 60.6695 205.292 60.5843 205.098 60.5113C205.292 60.6087 205.475 60.706 205.645 60.8033C206.083 61.0466 206.472 61.3508 206.813 61.7157C207.178 62.0564 207.47 62.4457 207.689 62.8836C207.908 63.2973 208.017 63.7717 208.017 64.307C208.017 64.891 207.798 65.3898 207.36 65.8034C206.947 66.1927 206.399 66.5212 205.718 66.7888C205.061 67.0565 204.319 67.2633 203.492 67.4093C202.689 67.5553 201.886 67.6647 201.083 67.7377C200.28 67.8107 199.538 67.8594 198.857 67.8837C198.175 67.8837 197.64 67.8837 197.251 67.8837C196.01 67.8837 194.757 67.8472 193.492 67.7742C192.251 67.6769 191.01 67.5674 189.769 67.4458C190.207 67.3241 190.645 67.2389 191.083 67.1903C191.545 67.1173 192.007 67.0808 192.47 67.0808C193.248 67.0808 194.015 67.093 194.769 67.1173C195.523 67.1173 196.277 67.1173 197.032 67.1173C197.932 67.1173 198.82 67.1051 199.696 67.0808C200.572 67.0321 201.472 66.9348 202.397 66.7888L202.506 67.2268C202.871 67.1538 203.334 67.0443 203.893 66.8983C204.453 66.728 204.988 66.5212 205.499 66.2779C206.034 66.0345 206.484 65.7304 206.849 65.3654C207.239 65.0005 207.433 64.5747 207.433 64.088C207.433 63.3824 207.178 62.762 206.667 62.2267C206.156 61.6914 205.499 61.2169 204.696 60.8033C203.918 60.3653 203.029 59.9882 202.032 59.6719C201.034 59.3556 200.049 59.0758 199.076 58.8325C198.127 58.5892 197.226 58.3702 196.375 58.1755C195.523 57.9809 194.842 57.7984 194.331 57.6281V57.8471C194.842 58.0417 195.511 58.2485 196.338 58.4675C197.166 58.6622 198.054 58.8811 199.003 59.1244C199.976 59.3678 200.949 59.6476 201.922 59.9639C202.896 60.2559 203.772 60.6087 204.55 61.0223C205.353 61.4359 205.998 61.9104 206.484 62.4457C206.995 62.981 207.251 63.5892 207.251 64.2705C207.251 64.6598 207.068 65.0005 206.703 65.2924C206.338 65.5844 205.901 65.8399 205.39 66.0589C204.903 66.2535 204.404 66.4117 203.893 66.5333C203.382 66.655 202.993 66.7402 202.725 66.7888C203.042 66.7158 203.443 66.6185 203.93 66.4968C204.441 66.3509 204.927 66.1684 205.39 65.9494C205.876 65.7304 206.29 65.4749 206.63 65.1829C206.971 64.8666 207.141 64.5017 207.141 64.088C207.141 63.4068 206.874 62.835 206.338 62.3727C205.803 61.9104 205.098 61.4968 204.222 61.1318C203.346 60.7668 202.348 60.4383 201.229 60.1464C200.11 59.8544 198.954 59.5381 197.762 59.1974C196.594 58.8568 195.45 58.4675 194.331 58.0295C193.212 57.5916 192.214 57.0441 191.338 56.3872C190.462 55.7302 189.757 54.9516 189.221 54.0514C188.686 53.1511 188.418 52.0684 188.418 50.8031C188.418 49.5622 188.71 48.516 189.294 47.6644C189.903 46.7885 190.669 46.0829 191.594 45.5476C192.543 44.9879 193.577 44.5865 194.696 44.3432C195.815 44.0999 196.898 43.9782 197.944 43.9782C199.477 43.9782 200.973 44.1972 202.433 44.6351C203.918 45.0731 205.317 45.6814 206.63 46.46C206.484 46.5087 206.399 46.5816 206.375 46.679C206.351 46.752 206.326 46.8371 206.302 46.9345C206.302 47.0318 206.278 47.1169 206.229 47.1899C206.205 47.2629 206.132 47.2994 206.01 47.2994C205.913 47.2994 205.718 47.2629 205.426 47.1899C205.158 47.0926 204.866 46.9953 204.55 46.898C204.234 46.7763 203.93 46.6668 203.638 46.5695C203.346 46.4722 203.151 46.3992 203.054 46.3505L202.944 46.679C203.163 46.7763 203.443 46.9223 203.784 47.1169C204.149 47.2873 204.489 47.5062 204.806 47.7739C205.146 48.0172 205.426 48.2848 205.645 48.5768C205.888 48.8688 206.01 49.1608 206.01 49.4527C206.01 49.7691 205.864 49.9272 205.572 49.9272C205.207 49.9272 204.769 49.8299 204.258 49.6352C203.772 49.4406 203.224 49.2338 202.616 49.0148C202.008 48.7715 201.351 48.5525 200.645 48.3578C199.964 48.1632 199.27 48.0659 198.565 48.0659C198.102 48.0659 197.555 48.1145 196.922 48.2118C196.314 48.2848 195.718 48.443 195.134 48.6863C194.574 48.9053 194.1 49.2216 193.711 49.6352C193.321 50.0245 193.127 50.5233 193.127 51.1316C193.127 51.6912 193.382 52.1657 193.893 52.555C194.428 52.9443 195.122 53.2971 195.973 53.6134C196.849 53.9297 197.835 54.2339 198.93 54.5258C200.025 54.8178 201.144 55.1463 202.287 55.5112C203.455 55.8519 204.587 56.2534 205.682 56.7156C206.776 57.1779 207.75 57.7376 208.601 58.3945C209.477 59.0515 210.171 59.8301 210.682 60.7303C211.217 61.6306 211.485 62.689 211.485 63.9056C211.485 65.0978 211.241 66.1075 210.755 66.9348C210.268 67.7621 209.623 68.4555 208.82 69.0151C208.017 69.5504 207.105 69.9762 206.083 70.2925C205.061 70.5845 204.003 70.8157 202.908 70.986C201.837 71.132 200.767 71.2171 199.696 71.2415C198.65 71.2901 197.701 71.3144 196.849 71.3144H193.2C192.981 71.3144 192.676 71.3023 192.287 71.2779C191.922 71.2779 191.557 71.2536 191.192 71.205C190.827 71.1806 190.511 71.1198 190.243 71.0225C189.976 70.9251 189.842 70.8035 189.842 70.6575L189.878 70.475C190.876 70.5237 191.861 70.5723 192.835 70.621C193.808 70.6453 194.793 70.6575 195.791 70.6575C196.715 70.6575 197.64 70.6575 198.565 70.6575C199.392 70.6332 200.219 70.5845 201.046 70.5115C200.633 70.5358 200.219 70.5602 199.806 70.5845C199.295 70.5845 198.796 70.5845 198.309 70.5845H196.849C194.562 70.5845 192.311 70.5115 190.097 70.3655C190.146 70.1709 190.17 70.0371 190.17 69.9641C190.17 69.8667 190.146 69.7694 190.097 69.6721C190.049 69.6721 189.976 69.6842 189.878 69.7086C189.805 69.7086 189.708 69.7086 189.586 69.7086C189.319 69.7086 189.015 69.6964 188.674 69.6721C188.358 69.6477 188.041 69.5991 187.725 69.5261C187.433 69.4531 187.178 69.3558 186.959 69.2341C186.764 69.0881 186.667 68.9178 186.667 68.7232ZM209.076 67.7742C208.662 68.1392 208.224 68.4433 207.762 68.6867C207.348 68.9056 206.922 69.1125 206.484 69.3071C206.922 69.1611 207.348 68.9908 207.762 68.7962C208.224 68.6015 208.662 68.2609 209.076 67.7742ZM217.396 81.7526C217.444 80.39 217.481 79.0396 217.505 77.7014C217.529 76.3875 217.542 74.9885 217.542 73.5043C217.542 72.8717 217.529 72.239 217.505 71.6064C217.481 70.9981 217.444 70.402 217.396 69.8181V73.8327C217.396 75.171 217.371 76.497 217.323 77.8109C217.298 79.1491 217.213 80.463 217.067 81.7526C216.946 81.5336 216.836 81.3025 216.739 81.0591C216.641 80.8402 216.568 80.5968 216.52 80.3292C216.568 79.6723 216.593 79.064 216.593 78.5044C216.617 77.9691 216.629 77.3729 216.629 76.716L217.067 76.497C216.994 75.9861 216.946 75.4629 216.921 74.9276C216.897 74.4167 216.885 73.9057 216.885 73.3948C216.885 72.8352 216.885 72.2877 216.885 71.7524C216.909 71.2415 216.921 70.7062 216.921 70.1465C216.921 69.4653 216.897 68.7962 216.848 68.1392C216.824 67.4579 216.751 66.7767 216.629 66.0954H216.52C216.568 67.1173 216.605 68.127 216.629 69.1246C216.678 70.1222 216.702 71.1198 216.702 72.1174C216.702 72.5553 216.69 72.9933 216.666 73.4313L216.629 74.3802C216.581 72.0444 216.495 69.7572 216.374 67.5188C216.276 65.1343 216.106 62.689 215.863 60.1829L216.009 57.1536C215.741 57.1293 215.461 57.1171 215.169 57.1171H214.33L214.22 56.2777C214.22 56.156 214.306 56.0465 214.476 55.9492C214.646 55.8519 214.987 55.8032 215.498 55.8032H215.863V55.3653C215.06 55.2679 214.427 55.0976 213.965 54.8543C213.527 54.611 213.308 54.3555 213.308 54.0879C213.308 53.8445 213.527 53.6377 213.965 53.4674C214.403 53.2728 214.963 53.1268 215.644 53.0295C216.349 52.9078 217.116 52.8226 217.943 52.774C218.77 52.7253 219.573 52.701 220.352 52.701C221.204 52.701 222.116 52.7253 223.089 52.774C224.087 52.8226 225.084 52.9443 226.082 53.1389C227.08 53.3336 228.041 53.6377 228.965 54.0514C229.914 54.4407 230.766 55.0003 231.52 55.7302C232.274 56.4358 232.895 57.3361 233.381 58.431C233.892 59.5016 234.221 60.8155 234.367 62.3727C234.367 63.6866 234.075 64.7693 233.491 65.6209C232.931 66.4482 232.25 67.1173 231.447 67.6282C230.644 68.1392 229.805 68.5042 228.929 68.7232C228.077 68.9421 227.371 69.0881 226.812 69.1611C226.252 69.2828 225.607 69.4288 224.878 69.5991C224.148 69.7451 223.527 69.8181 223.016 69.8181C222.457 69.8181 222.128 69.7572 222.031 69.6356C221.933 69.5139 221.885 69.3558 221.885 69.1611C222.98 69.1125 224.075 69.0273 225.17 68.9056C226.264 68.7597 227.359 68.5163 228.454 68.1757C227.359 68.4433 226.264 68.6502 225.17 68.7962C224.075 68.9178 222.98 69.003 221.885 69.0516C221.885 68.9056 221.873 68.7597 221.848 68.6137C221.824 68.4433 221.751 68.3582 221.629 68.3582C221.386 68.3582 221.191 68.7475 221.045 69.5261C220.924 70.3047 220.826 71.2293 220.753 72.2999C220.705 73.3948 220.668 74.514 220.644 75.6576C220.644 76.8012 220.644 77.7501 220.644 78.5044C220.644 78.845 220.656 79.1978 220.68 79.5628C220.729 79.9521 220.753 80.2805 220.753 80.5482C220.753 80.7915 220.717 80.9983 220.644 81.1686C220.571 81.339 220.364 81.4241 220.023 81.4241V76.8255C219.975 77.6041 219.938 78.3705 219.914 79.1248C219.914 79.8791 219.914 80.6455 219.914 81.4241H219.257V81.7161C219.257 81.9351 219.293 82.0932 219.366 82.1905C219.099 82.6528 218.795 82.884 218.454 82.884C218.186 82.884 217.98 82.811 217.834 82.665C217.712 82.519 217.529 82.3244 217.286 82.0811L217.396 81.7526ZM220.936 66.5333H221.447C222.298 66.5333 223.272 66.4847 224.367 66.3874C225.486 66.29 226.532 66.1075 227.505 65.8399C228.479 65.5723 229.294 65.1951 229.951 64.7085C230.632 64.2219 230.973 63.5892 230.973 62.8106V62.5187C230.973 62.2754 230.948 62.0077 230.9 61.7157C230.875 61.4238 230.778 61.1439 230.608 60.8763C230.632 60.998 230.693 61.2413 230.79 61.6062C230.887 61.9712 230.936 62.2754 230.936 62.5187C230.936 63.2729 230.668 63.8934 230.133 64.38C229.622 64.8423 228.965 65.2194 228.162 65.5114C227.384 65.7791 226.52 65.9737 225.571 66.0954C224.646 66.1927 223.758 66.2414 222.907 66.2414H222.177C221.933 66.2414 221.69 66.2292 221.447 66.2049C221.787 65.9372 222.225 65.7547 222.761 65.6574C223.32 65.5358 223.904 65.4384 224.513 65.3654C225.121 65.2924 225.717 65.2194 226.301 65.1465C226.885 65.0735 227.384 64.9518 227.797 64.7815L228.016 65.2194C228.868 64.8058 229.464 64.4043 229.805 64.015C230.17 63.6014 230.352 63.0418 230.352 62.3362C230.352 61.2169 230.036 60.2315 229.403 59.3799C228.795 58.5283 227.968 57.9565 226.921 57.6646L226.812 57.8836C227.712 58.2242 228.491 58.7838 229.148 59.5624C229.805 60.341 230.133 61.2778 230.133 62.3727C230.133 62.9566 229.999 63.4189 229.732 63.7596C229.488 64.0515 229.099 64.3192 228.564 64.5625C229.002 64.3679 229.33 64.1245 229.549 63.8326C229.817 63.4919 229.999 63.1148 230.097 62.7012C230.097 61.6792 229.853 60.8155 229.367 60.1099C228.88 59.4043 228.199 58.8446 227.323 58.431C226.447 57.993 225.388 57.6889 224.148 57.5186C222.931 57.3239 221.581 57.2266 220.096 57.2266C220.291 58.2729 220.401 59.4164 220.425 60.6573C220.474 61.8739 220.559 63.0661 220.68 64.234L220.936 66.5333ZM217.25 60.9493C217.298 60.9006 217.347 60.6938 217.396 60.3288C217.444 59.9639 217.481 59.5746 217.505 59.1609C217.554 58.723 217.59 58.3215 217.615 57.9565C217.663 57.5672 217.712 57.3361 217.761 57.2631L217.286 57.2266L217.25 60.9493ZM228.381 64.6355L228.564 64.5625L228.381 64.6355ZM251.31 71.8254C250.385 72.1417 249.679 72.312 249.193 72.3364C248.706 72.385 248.28 72.4215 247.915 72.4459C246.553 72.4459 245.324 72.1904 244.229 71.6794C243.134 71.1685 242.198 70.475 241.419 69.5991C240.64 68.7232 240.032 67.7012 239.594 66.5333C239.18 65.3411 238.974 64.0759 238.974 62.7377C238.974 61.959 239.047 61.1561 239.193 60.3288C239.339 59.4773 239.558 58.65 239.85 57.8471C240.142 57.0198 240.519 56.2534 240.981 55.5477C241.419 54.8421 241.942 54.2095 242.55 53.6499C241.918 54.1609 241.382 54.7691 240.944 55.4747C240.482 56.1804 240.093 56.9468 239.777 57.7741C239.46 58.577 239.229 59.4164 239.083 60.2924C238.937 61.1439 238.864 61.9712 238.864 62.7741C238.864 63.7961 239.022 64.891 239.339 66.0589C239.679 67.2025 240.215 68.273 240.944 69.2706C241.674 70.2439 242.611 71.059 243.755 71.7159C244.923 72.3729 246.334 72.7013 247.988 72.7013C248.767 72.7013 249.582 72.5918 250.434 72.3729C249.509 72.9811 248.475 73.2853 247.331 73.2853C246.407 73.2853 245.531 73.1393 244.704 72.8473C243.901 72.5797 243.146 72.1904 242.441 71.6794C241.76 71.1928 241.139 70.6088 240.58 69.9276C240.02 69.2463 239.545 68.5163 239.156 67.7377L239.485 67.4458C239.071 66.6185 238.767 65.7912 238.572 64.964C238.402 64.1367 238.317 63.2973 238.317 62.4457C238.317 61.2048 238.487 60.0125 238.828 58.869C239.193 57.7254 239.667 56.6427 240.251 55.6207L241.127 54.4163C241.273 54.1487 241.48 53.881 241.747 53.6134C242.039 53.3458 242.356 53.0903 242.696 52.847C243.037 52.5793 243.39 52.3482 243.755 52.1535C244.144 51.9345 244.509 51.7399 244.85 51.5696C245.726 51.1316 246.602 50.7423 247.477 50.4017C248.353 50.0367 249.375 49.7691 250.543 49.5987L250.397 49.4892C248.159 49.7082 246.261 50.2557 244.704 51.1316C243.146 51.9832 241.881 53.0295 240.908 54.2703C239.935 55.5112 239.229 56.8738 238.791 58.358C238.353 59.8179 238.134 61.2534 238.134 62.6647C238.134 63.4189 238.195 64.1854 238.317 64.964C238.463 65.7182 238.669 66.4725 238.937 67.2268C238.329 65.7669 238.025 64.2219 238.025 62.5917C238.025 60.9858 238.292 59.3921 238.828 57.8106C239.363 56.229 240.202 54.7691 241.346 53.4309C242.806 52.0927 244.4 51.0708 246.127 50.3652C247.855 49.6352 249.521 49.2703 251.127 49.2703C251.638 49.2703 252.161 49.3554 252.697 49.5257C253.232 49.6961 253.718 49.9637 254.156 50.3287C254.594 50.6693 254.947 51.1194 255.215 51.6791C255.507 52.2387 255.653 52.92 255.653 53.7229C255.653 54.3798 255.495 55.1828 255.178 56.1317C254.862 57.0806 254.388 58.0052 253.755 58.9055C253.147 59.7814 252.38 60.5357 251.456 61.1683C250.531 61.7766 249.46 62.0807 248.244 62.0807H247.039C246.139 61.8861 245.312 61.6671 244.558 61.4238C243.828 61.1561 243.134 60.9493 242.477 60.8033C242.38 61.1926 242.319 61.5697 242.295 61.9347C242.295 62.2754 242.295 62.616 242.295 62.9566C242.295 63.6622 242.368 64.3557 242.514 65.037C242.684 65.6939 242.94 66.3022 243.28 66.8618C243.621 67.4214 244.047 67.8959 244.558 68.2852C245.093 68.6502 245.738 68.8813 246.492 68.9786C246.954 69.076 247.356 69.1368 247.696 69.1611C248.037 69.1611 248.317 69.1733 248.536 69.1976C248.779 69.1976 248.949 69.2341 249.047 69.3071C249.168 69.3558 249.229 69.4653 249.229 69.6356C248.986 69.7086 248.731 69.7572 248.463 69.7816C248.22 69.8059 247.964 69.8181 247.696 69.8181C246.845 69.8181 246.078 69.6842 245.397 69.4166C244.716 69.1246 244.132 68.7962 243.645 68.4312C244.205 68.9908 244.874 69.3923 245.653 69.6356C246.431 69.8546 247.198 69.9641 247.952 69.9641C248.366 69.9641 248.791 69.9276 249.229 69.8546C249.181 70.0006 249.156 70.0857 249.156 70.11C249.156 70.256 249.217 70.3534 249.339 70.402C249.436 70.3777 249.606 70.3169 249.85 70.2195C250.093 70.0979 250.336 69.9884 250.58 69.8911C250.847 69.7694 251.103 69.6721 251.346 69.5991C251.589 69.5018 251.76 69.4531 251.857 69.4531C251.979 69.4531 252.088 69.4774 252.186 69.5261C252.283 69.5504 252.332 69.6842 252.332 69.9276C252.332 70.1709 252.246 70.4628 252.076 70.8035C251.906 71.1441 251.65 71.4848 251.31 71.8254ZM246.273 57.3726L247.076 57.5186C247.344 57.5672 247.587 57.5916 247.806 57.5916C248.049 57.5916 248.329 57.5186 248.645 57.3726C248.986 57.2023 249.314 56.9711 249.631 56.6791C249.971 56.3872 250.263 56.0222 250.507 55.5842C250.774 55.1463 250.969 54.6475 251.091 54.0879L251.164 53.8689C250.823 53.8689 250.312 53.954 249.631 54.1244C248.949 54.2947 248.244 54.5258 247.514 54.8178C246.784 55.0854 246.103 55.4139 245.47 55.8032C244.837 56.1682 244.4 56.5697 244.156 57.0076C244.521 57.0806 244.874 57.1536 245.215 57.2266C245.58 57.2753 245.932 57.3239 246.273 57.3726ZM244.594 60.0734C244.643 60.0247 244.667 59.9517 244.667 59.8544C244.692 59.7571 244.704 59.6841 244.704 59.6354L242.988 59.015L242.806 59.5259L244.594 60.0734ZM243.572 68.3582C243.402 68.1635 243.232 67.9689 243.061 67.7742C242.915 67.6039 242.794 67.4336 242.696 67.2633C242.915 67.6769 243.207 68.0419 243.572 68.3582ZM272.231 71.8254C271.307 72.1417 270.601 72.312 270.114 72.3364C269.628 72.385 269.202 72.4215 268.837 72.4459C267.474 72.4459 266.246 72.1904 265.151 71.6794C264.056 71.1685 263.119 70.475 262.341 69.5991C261.562 68.7232 260.954 67.7012 260.516 66.5333C260.102 65.3411 259.895 64.0759 259.895 62.7377C259.895 61.959 259.968 61.1561 260.114 60.3288C260.26 59.4773 260.479 58.65 260.771 57.8471C261.063 57.0198 261.44 56.2534 261.903 55.5477C262.341 54.8421 262.864 54.2095 263.472 53.6499C262.839 54.1609 262.304 54.7691 261.866 55.4747C261.404 56.1804 261.015 56.9468 260.698 57.7741C260.382 58.577 260.151 59.4164 260.005 60.2924C259.859 61.1439 259.786 61.9712 259.786 62.7741C259.786 63.7961 259.944 64.891 260.26 66.0589C260.601 67.2025 261.136 68.273 261.866 69.2706C262.596 70.2439 263.533 71.059 264.676 71.7159C265.844 72.3729 267.255 72.7013 268.91 72.7013C269.689 72.7013 270.504 72.5918 271.355 72.3729C270.431 72.9811 269.397 73.2853 268.253 73.2853C267.328 73.2853 266.453 73.1393 265.625 72.8473C264.822 72.5797 264.068 72.1904 263.362 71.6794C262.681 71.1928 262.061 70.6088 261.501 69.9276C260.942 69.2463 260.467 68.5163 260.078 67.7377L260.406 67.4458C259.993 66.6185 259.688 65.7912 259.494 64.964C259.323 64.1367 259.238 63.2973 259.238 62.4457C259.238 61.2048 259.409 60.0125 259.749 58.869C260.114 57.7254 260.589 56.6427 261.173 55.6207L262.049 54.4163C262.195 54.1487 262.401 53.881 262.669 53.6134C262.961 53.3458 263.277 53.0903 263.618 52.847C263.959 52.5793 264.311 52.3482 264.676 52.1535C265.066 51.9345 265.431 51.7399 265.771 51.5696C266.647 51.1316 267.523 50.7423 268.399 50.4017C269.275 50.0367 270.297 49.7691 271.465 49.5987L271.319 49.4892C269.08 49.7082 267.182 50.2557 265.625 51.1316C264.068 51.9832 262.803 53.0295 261.83 54.2703C260.856 55.5112 260.151 56.8738 259.713 58.358C259.275 59.8179 259.056 61.2534 259.056 62.6647C259.056 63.4189 259.117 64.1854 259.238 64.964C259.384 65.7182 259.591 66.4725 259.859 67.2268C259.25 65.7669 258.946 64.2219 258.946 62.5917C258.946 60.9858 259.214 59.3921 259.749 57.8106C260.285 56.229 261.124 54.7691 262.268 53.4309C263.727 52.0927 265.321 51.0708 267.049 50.3652C268.776 49.6352 270.443 49.2703 272.049 49.2703C272.56 49.2703 273.083 49.3554 273.618 49.5257C274.153 49.6961 274.64 49.9637 275.078 50.3287C275.516 50.6693 275.869 51.1194 276.136 51.6791C276.428 52.2387 276.574 52.92 276.574 53.7229C276.574 54.3798 276.416 55.1828 276.1 56.1317C275.784 57.0806 275.309 58.0052 274.677 58.9055C274.068 59.7814 273.302 60.5357 272.377 61.1683C271.453 61.7766 270.382 62.0807 269.165 62.0807H267.961C267.061 61.8861 266.234 61.6671 265.479 61.4238C264.749 61.1561 264.056 60.9493 263.399 60.8033C263.302 61.1926 263.241 61.5697 263.216 61.9347C263.216 62.2754 263.216 62.616 263.216 62.9566C263.216 63.6622 263.289 64.3557 263.435 65.037C263.606 65.6939 263.861 66.3022 264.202 66.8618C264.543 67.4214 264.968 67.8959 265.479 68.2852C266.015 68.6502 266.659 68.8813 267.414 68.9786C267.876 69.076 268.277 69.1368 268.618 69.1611C268.959 69.1611 269.238 69.1733 269.457 69.1976C269.701 69.1976 269.871 69.2341 269.968 69.3071C270.09 69.3558 270.151 69.4653 270.151 69.6356C269.908 69.7086 269.652 69.7572 269.384 69.7816C269.141 69.8059 268.886 69.8181 268.618 69.8181C267.766 69.8181 267 69.6842 266.319 69.4166C265.637 69.1246 265.054 68.7962 264.567 68.4312C265.126 68.9908 265.796 69.3923 266.574 69.6356C267.353 69.8546 268.119 69.9641 268.874 69.9641C269.287 69.9641 269.713 69.9276 270.151 69.8546C270.102 70.0006 270.078 70.0857 270.078 70.11C270.078 70.256 270.139 70.3534 270.26 70.402C270.358 70.3777 270.528 70.3169 270.771 70.2195C271.015 70.0979 271.258 69.9884 271.501 69.8911C271.769 69.7694 272.024 69.6721 272.268 69.5991C272.511 69.5018 272.681 69.4531 272.779 69.4531C272.9 69.4531 273.01 69.4774 273.107 69.5261C273.205 69.5504 273.253 69.6842 273.253 69.9276C273.253 70.1709 273.168 70.4628 272.998 70.8035C272.827 71.1441 272.572 71.4848 272.231 71.8254ZM267.195 57.3726L267.998 57.5186C268.265 57.5672 268.509 57.5916 268.728 57.5916C268.971 57.5916 269.251 57.5186 269.567 57.3726C269.908 57.2023 270.236 56.9711 270.552 56.6791C270.893 56.3872 271.185 56.0222 271.428 55.5842C271.696 55.1463 271.891 54.6475 272.012 54.0879L272.085 53.8689C271.745 53.8689 271.234 53.954 270.552 54.1244C269.871 54.2947 269.165 54.5258 268.436 54.8178C267.706 55.0854 267.024 55.4139 266.392 55.8032C265.759 56.1682 265.321 56.5697 265.078 57.0076C265.443 57.0806 265.796 57.1536 266.136 57.2266C266.501 57.2753 266.854 57.3239 267.195 57.3726ZM265.516 60.0734C265.564 60.0247 265.589 59.9517 265.589 59.8544C265.613 59.7571 265.625 59.6841 265.625 59.6354L263.91 59.015L263.727 59.5259L265.516 60.0734ZM264.494 68.3582C264.324 68.1635 264.153 67.9689 263.983 67.7742C263.837 67.6039 263.715 67.4336 263.618 67.2633C263.837 67.6769 264.129 68.0419 264.494 68.3582ZM299.138 44.5257C299.187 45.2313 299.224 45.9247 299.248 46.606C299.272 47.2629 299.284 47.9442 299.284 48.6498C299.284 50.1097 299.236 51.5817 299.138 53.0659C299.065 54.5258 298.968 56.01 298.846 57.5186C298.725 59.0271 298.603 60.5722 298.481 62.1537C298.36 63.7352 298.25 65.3776 298.153 67.0808C298.153 67.3484 298.141 67.6282 298.116 67.9202C298.116 68.1879 298.092 68.492 298.043 68.8326V69.2706C298.043 69.3436 298.019 69.4409 297.97 69.5626C297.922 69.6842 297.873 69.7694 297.824 69.8181C297.508 70.183 297.216 70.4628 296.949 70.6575C296.705 70.8278 296.474 70.9616 296.255 71.059C296.036 71.132 295.829 71.1685 295.635 71.1685C295.44 71.1928 295.245 71.2171 295.051 71.2415H295.27C295.343 71.2415 295.477 71.2293 295.671 71.205C295.89 71.1806 296.121 71.1441 296.365 71.0955C296.632 71.0225 296.876 70.9373 297.095 70.84C297.338 70.7183 297.508 70.5602 297.605 70.3655L297.934 69.7086C298.08 69.4409 298.165 69.1611 298.189 68.8691C298.238 68.5528 298.262 68.2487 298.262 67.9567C298.287 67.6404 298.299 67.3363 298.299 67.0443C298.299 66.7523 298.323 66.4725 298.372 66.2049C298.445 64.672 298.542 63.1391 298.664 61.6062C298.81 60.0734 298.944 58.5283 299.065 56.9711C299.187 55.4139 299.297 53.8446 299.394 52.263C299.491 50.6571 299.54 49.0269 299.54 47.3724C299.54 46.8615 299.528 46.3748 299.503 45.9125C299.503 45.4259 299.491 44.9636 299.467 44.5257C299.54 44.623 299.613 44.7811 299.686 45.0001C299.783 45.1948 299.856 45.5111 299.905 45.949C300.026 46.2167 300.099 46.5087 300.124 46.825C300.148 47.1413 300.185 47.4697 300.233 47.8104C300.233 49.4649 300.172 51.0708 300.051 52.628C299.929 54.1609 299.807 55.6937 299.686 57.2266L299.357 57.3361L299.029 63.5771C299.029 65.3289 298.944 66.7767 298.773 67.9202C298.627 69.0395 298.494 69.7816 298.372 70.1465V70.256C298.007 70.621 297.691 70.9008 297.423 71.0955C297.18 71.2658 296.949 71.3996 296.73 71.4969C296.511 71.5943 296.304 71.6429 296.109 71.6429C295.939 71.6672 295.756 71.6794 295.562 71.6794H293.226C292.569 71.6064 291.863 71.5699 291.109 71.5699C290.355 71.5943 289.564 71.5213 288.737 71.3509C287.909 71.1806 287.058 70.8278 286.182 70.2925C285.33 69.7572 284.467 68.9056 283.591 67.7377C283.591 67.7864 283.578 67.8229 283.554 67.8472C283.53 67.8716 283.505 67.9081 283.481 67.9567C284.284 69.0516 285.245 69.9519 286.364 70.6575C287.508 71.3631 288.737 71.7767 290.051 71.8984H293.116C293.408 71.9471 293.7 71.9714 293.992 71.9714C294.309 71.9957 294.649 72.0079 295.014 72.0079C295.379 72.0079 295.854 71.9592 296.438 71.8619C297.046 71.7646 297.618 71.4483 298.153 70.913C298.25 70.7913 298.311 70.7062 298.335 70.6575C298.384 70.5845 298.433 70.4872 298.481 70.3655L298.591 70.1465C298.713 69.9276 298.798 69.7086 298.846 69.4896C298.919 69.2463 298.98 69.0151 299.029 68.7962C299.029 69.0638 299.005 69.2949 298.956 69.4896C298.932 69.6842 298.846 69.9762 298.7 70.3655L298.591 70.475L298.153 71.132C297.934 71.3509 297.691 71.5213 297.423 71.6429C297.155 71.7646 296.9 71.8497 296.657 71.8984C296.413 71.9714 296.182 72.0201 295.963 72.0444C295.768 72.0687 295.622 72.093 295.525 72.1174H294.321C294.004 72.1174 293.737 72.1052 293.518 72.0809C293.323 72.0809 293.165 72.0687 293.043 72.0444C292.946 72.0444 292.861 72.0322 292.788 72.0079H291.693C291.474 72.0079 291.255 72.0079 291.036 72.0079C290.817 72.0322 290.586 72.0444 290.343 72.0444C289.199 72.0444 288.08 71.7646 286.985 71.205C285.914 70.6697 284.917 69.9032 283.992 68.9056C283.092 67.9081 282.289 66.728 281.583 65.3654C280.878 64.0029 280.342 62.4943 279.977 60.8398C279.977 60.5722 279.953 60.3167 279.904 60.0734C279.88 59.8301 279.868 59.5746 279.868 59.3069C279.868 58.4067 280.002 57.4942 280.269 56.5697C280.561 55.6207 281.072 54.7691 281.802 54.0149C282.532 53.2606 283.518 52.6523 284.759 52.19C285.999 51.7034 287.569 51.4601 289.467 51.4601C290.343 51.4601 291.194 51.4844 292.021 51.5331C292.849 51.5574 293.688 51.5939 294.54 51.6426C294.442 51.7156 294.394 51.8007 294.394 51.898C294.394 52.0197 294.418 52.1292 294.467 52.2265C294.515 52.2995 294.54 52.3847 294.54 52.482C294.54 52.6037 294.442 52.7131 294.248 52.8105C294.077 52.8835 293.7 52.92 293.116 52.92C292.922 52.92 292.691 52.92 292.423 52.92C292.18 52.8956 291.9 52.8713 291.583 52.847V53.1754C292.751 53.3458 293.688 53.5769 294.394 53.8689C295.124 54.1365 295.574 54.3798 295.744 54.5988L295.817 54.6718L295.963 53.0659C296.036 52.409 296.073 51.6669 296.073 50.8396C296.073 49.988 296.048 49.1486 296 48.3213C295.951 47.4941 295.927 46.8493 295.927 46.387C295.927 45.803 295.963 45.4137 296.036 45.2191C296.109 45.0244 296.206 44.9271 296.328 44.9271C296.425 44.9271 296.498 45.1339 296.547 45.5476C296.62 45.9612 296.669 46.4357 296.693 46.9709C296.742 47.4819 296.766 47.9929 296.766 48.5038V49.5622C296.766 50.2678 296.754 50.9856 296.73 51.7156C296.705 52.4212 296.669 53.1268 296.62 53.8324C296.693 52.9078 296.754 52.0075 296.803 51.1316C296.851 50.2313 296.876 49.3189 296.876 48.3943C296.876 47.8347 296.863 47.2873 296.839 46.752C296.815 46.1923 296.778 45.6327 296.73 45.0731C296.876 45.2191 296.985 45.2921 297.058 45.2921C297.155 45.2921 297.228 45.2191 297.277 45.0731C297.253 44.8785 297.228 44.6716 297.204 44.4527C297.18 44.258 297.168 44.0634 297.168 43.8687V43.3213C297.289 43.0293 297.447 42.8103 297.642 42.6643C297.837 42.494 298.007 42.4088 298.153 42.4088C298.567 42.4088 298.932 42.859 299.248 43.7592L299.138 44.5257ZM293.226 55.4747C292.423 55.5234 291.51 55.5721 290.489 55.6207C289.491 55.6694 288.542 55.8032 287.642 56.0222C286.742 56.2169 285.963 56.521 285.306 56.9346C284.673 57.3483 284.321 57.92 284.248 58.65C284.248 59.4529 284.418 60.3532 284.759 61.3508C285.099 62.3483 285.549 63.2973 286.109 64.1975C286.669 65.0735 287.301 65.8277 288.007 66.4603C288.737 67.093 289.491 67.4458 290.27 67.5188H292.35C292.472 67.5188 292.557 67.5309 292.605 67.5553C292.678 67.5553 292.776 67.5796 292.897 67.6282H293.773C294.138 67.7012 294.503 67.7377 294.868 67.7377C294.868 65.6939 294.953 63.6014 295.124 61.4603C295.318 59.2948 295.525 57.1779 295.744 55.1098C295.428 55.3531 294.588 55.4747 293.226 55.4747ZM295.854 63.0296C295.854 63.2973 295.829 63.5771 295.781 63.8691C295.756 64.1367 295.744 64.4408 295.744 64.7815C296.012 63.4189 296.17 61.9834 296.219 60.4748C296.267 58.9663 296.328 57.5186 296.401 56.1317C296.279 57.2996 296.182 58.4553 296.109 59.5989C296.06 60.7182 295.975 61.8617 295.854 63.0296ZM299.029 66.9713C299.029 66.7037 299.041 66.436 299.065 66.1684C299.09 65.8764 299.126 65.5723 299.175 65.2559C299.151 65.9859 299.138 66.6793 299.138 67.3363C299.138 67.9689 299.102 68.419 299.029 68.6867C299.029 68.565 299.029 68.4555 299.029 68.3582C299.053 68.2365 299.065 68.1149 299.065 67.9932C299.065 67.7986 299.053 67.6161 299.029 67.4458C299.029 67.2754 299.029 67.1173 299.029 66.9713ZM299.576 61.0588C299.528 61.1804 299.491 61.3264 299.467 61.4968C299.443 61.6427 299.406 61.8009 299.357 61.9712L299.503 59.7449L299.576 61.0588ZM299.248 63.9056C299.248 64.1245 299.236 64.3435 299.211 64.5625C299.211 64.7815 299.199 64.9883 299.175 65.1829C299.175 64.6963 299.187 64.2097 299.211 63.7231C299.236 63.2121 299.272 62.7498 299.321 62.3362L299.248 63.9056ZM295.635 66.1684C295.659 66.071 295.671 65.9737 295.671 65.8764C295.671 65.7791 295.695 65.6696 295.744 65.5479V65.1465C295.72 65.1951 295.708 65.2438 295.708 65.2924C295.708 65.3168 295.695 65.3411 295.671 65.3654L295.635 65.4384V66.1684ZM295.525 67.9202C295.549 67.7012 295.574 67.4823 295.598 67.2633C295.622 67.02 295.635 66.7767 295.635 66.5333V66.4238L295.489 67.8472L295.525 67.9202ZM310.204 71.5699C309.961 71.6186 309.693 71.6429 309.401 71.6429H308.343C307.71 71.6429 307.26 71.7159 306.993 71.8619C306.749 72.0079 306.603 72.0809 306.555 72.0809L306.409 71.4239V70.767L306.226 67.3363C306.178 66.6793 306.044 65.9737 305.825 65.2194C305.606 64.4652 305.435 63.6987 305.314 62.9201C305.241 62.4092 305.18 61.9226 305.131 61.4603L304.985 60.0369C304.937 59.5502 304.876 59.0515 304.803 58.5405C304.754 58.0295 304.669 57.4821 304.547 56.8981C304.547 56.7521 304.547 56.6062 304.547 56.4602C304.572 56.3142 304.584 56.1682 304.584 56.0222C304.584 55.2679 304.523 54.5258 304.401 53.7959C304.28 53.0659 304.109 52.3482 303.89 51.6426C304.061 51.5696 304.219 51.5087 304.365 51.4601C304.511 51.3871 304.645 51.3506 304.766 51.3506C304.888 51.3506 305.022 51.4966 305.168 51.7886C305.314 52.0562 305.472 52.628 305.642 53.5039C305.691 53.5039 305.764 53.4917 305.861 53.4674C305.959 53.4188 306.032 53.3944 306.08 53.3944C306.056 52.9808 305.995 52.5428 305.898 52.0805C305.8 51.5939 305.703 51.1316 305.606 50.6936C305.508 50.2557 305.411 49.8664 305.314 49.5257C305.241 49.1608 305.204 48.8688 305.204 48.6498C305.204 48.6011 305.204 48.5403 305.204 48.4673C305.229 48.3943 305.289 48.3578 305.387 48.3578C305.508 48.3578 305.667 48.4917 305.861 48.7593C306.056 49.0269 306.263 49.3676 306.482 49.7812C306.701 50.1949 306.907 50.645 307.102 51.1316C307.321 51.5939 307.516 52.0319 307.686 52.4455C308.343 51.2046 309.085 50.2678 309.912 49.6352C310.764 48.9783 311.871 48.6498 313.234 48.6498C314.231 48.6498 315.046 48.7715 315.679 49.0148C316.312 49.2338 316.798 49.4892 317.139 49.7812C317.504 50.0489 317.747 50.3043 317.869 50.5477L318.088 50.9126C318.088 51.0586 318.015 51.1559 317.869 51.2046C317.236 50.5963 316.518 50.134 315.715 49.8177C314.912 49.5014 314.085 49.3433 313.234 49.3433C312.406 49.3433 311.786 49.4527 311.372 49.6717C310.983 49.8664 310.569 50.1097 310.131 50.4017C310.594 50.1097 311.019 49.8785 311.409 49.7082C311.822 49.5379 312.419 49.4527 313.197 49.4527C314.049 49.4527 314.864 49.6231 315.642 49.9637C316.421 50.28 317.09 50.6936 317.65 51.2046C317.528 51.2533 317.419 51.3141 317.321 51.3871C317.248 51.4357 317.212 51.5209 317.212 51.6426C317.333 51.6426 317.467 51.7277 317.613 51.898C317.759 52.044 317.893 52.2265 318.015 52.4455C318.136 52.6645 318.234 52.8956 318.307 53.1389C318.404 53.3579 318.453 53.5404 318.453 53.6864C318.453 54.1 318.295 54.3068 317.978 54.3068C317.735 54.3068 317.443 54.2217 317.102 54.0514C317.029 54.027 316.871 53.8932 316.628 53.6499C316.409 53.4066 316.129 53.1633 315.788 52.92C315.448 52.6523 315.058 52.409 314.621 52.19C314.183 51.971 313.696 51.8615 313.161 51.8615C312.723 51.8615 312.333 51.9589 311.993 52.1535C311.676 52.3238 311.384 52.5672 311.117 52.8835C310.849 53.1754 310.606 53.5161 310.387 53.9054L309.912 54.7813C310.277 54.1244 310.679 53.5282 311.117 52.993C311.603 52.3603 312.212 52.044 312.942 52.044C313.574 52.044 314.158 52.19 314.693 52.482C315.229 52.7496 315.667 53.0903 316.007 53.5039C315.594 53.3336 315.107 53.1633 314.548 52.993C313.988 52.8226 313.453 52.7375 312.942 52.7375C312.674 52.7375 312.443 52.7983 312.248 52.92C312.054 53.0416 311.883 53.1998 311.737 53.3944C311.616 53.5647 311.494 53.7594 311.372 53.9784C311.275 54.1974 311.165 54.4042 311.044 54.5988L310.569 54.6718C310.156 55.3774 309.815 56.2047 309.547 57.1536C309.304 58.0782 309.182 59.0515 309.182 60.0734C309.182 60.6817 309.207 61.2291 309.255 61.7157C309.328 62.2024 309.426 62.7012 309.547 63.2121L309.985 64.3435L309.912 63.2851C309.864 62.4578 309.815 61.7279 309.766 61.0953C309.718 60.4383 309.693 59.7206 309.693 58.942C309.742 58.2364 309.839 57.5672 309.985 56.9346C310.107 56.3993 310.29 55.9005 310.533 55.4383C310.241 56.0222 310.046 56.6913 309.949 57.4456C309.827 58.2729 309.766 59.1488 309.766 60.0734C309.766 60.8033 309.803 61.4968 309.876 62.1537C309.949 62.8106 310.034 63.4676 310.131 64.1245C310.253 64.7815 310.375 65.4628 310.496 66.1684C310.618 66.8496 310.715 67.6039 310.788 68.4312L310.898 69.1246L311.117 71.205L310.204 71.5699ZM310.642 55.2558L310.533 55.4383L310.642 55.2558ZM339.884 48.9418L339.775 49.5987C339.653 50.791 339.58 52.0684 339.556 53.4309C339.532 54.7691 339.434 56.1195 339.264 57.4821C339.459 56.1439 339.617 54.83 339.738 53.5404C339.86 52.2022 339.982 50.8883 340.103 49.5987C340.225 49.988 340.322 50.4017 340.395 50.8396C340.493 51.2776 340.541 51.7399 340.541 52.2265C340.42 53.4431 340.31 54.611 340.213 55.7302C340.116 56.8495 339.982 58.0174 339.811 59.2339L339.337 59.3434C339.215 60.4627 338.96 61.6792 338.571 62.9931C338.181 64.307 337.609 65.5236 336.855 66.6428C336.125 67.7621 335.176 68.6988 334.008 69.4531C332.84 70.183 331.441 70.548 329.811 70.548C329.276 70.548 328.704 70.5115 328.096 70.4385C327.512 70.3412 326.94 70.2074 326.381 70.0371C325.821 69.8424 325.286 69.5991 324.775 69.3071C324.264 69.0151 323.826 68.6502 323.461 68.2122L323.497 68.2852V68.3217L323.461 68.3582L323.351 68.3217C323.497 68.5407 323.655 68.7353 323.826 68.9056C323.388 68.5163 322.986 68.0662 322.621 67.5553C322.013 66.728 321.526 65.7426 321.161 64.599C320.942 63.9177 320.772 63.2243 320.65 62.5187C320.529 61.8131 320.444 61.071 320.395 60.2924C320.346 59.4894 320.31 58.6257 320.286 57.7011C320.286 56.7765 320.286 55.7546 320.286 54.6353C320.504 53.7594 320.675 52.8835 320.796 52.0075C320.918 51.1316 321.003 50.2557 321.052 49.3798C321.125 49.3798 321.21 49.3676 321.307 49.3433C321.405 49.3189 321.502 49.3068 321.599 49.3068C321.77 49.3068 321.916 49.4041 322.037 49.5987C322.183 49.7934 322.256 50.207 322.256 50.8396V51.1681C322.256 51.2654 322.244 51.3749 322.22 51.4966H322.658C322.852 50.4747 323.084 49.6961 323.351 49.1608C323.619 48.6255 323.887 48.3578 324.154 48.3578C324.349 48.3578 324.519 48.6376 324.665 49.1973C324.835 49.7326 324.921 50.5842 324.921 51.7521C324.921 52.6037 324.896 53.4674 324.848 54.3433C324.799 55.2193 324.775 56.1195 324.775 57.0441C324.775 58.4797 324.835 59.7814 324.957 60.9493C325.103 62.1172 325.371 63.1148 325.76 63.9421C326.149 64.7693 326.697 65.4141 327.402 65.8764C328.132 66.3144 329.069 66.5333 330.213 66.5333C331.162 66.5333 331.952 66.2414 332.585 65.6574C333.218 65.0735 333.753 64.2949 334.191 63.3216C334.629 62.3483 334.994 61.2291 335.286 59.9639C335.602 58.6743 335.894 57.3361 336.162 55.9492C336.21 55.5599 336.247 55.1706 336.271 54.7813C336.296 54.392 336.308 53.9905 336.308 53.5769V52.4455C336.308 51.7399 336.344 51.1438 336.417 50.6571C336.49 50.1705 336.697 49.8907 337.038 49.8177C337.038 51.0586 337.001 52.2873 336.928 53.5039C336.879 54.6718 336.782 55.8397 336.636 57.0076C336.806 55.864 336.94 54.7205 337.038 53.5769C337.135 52.3847 337.208 51.1681 337.257 49.9272C337.403 50.0245 337.524 50.0732 337.622 50.0732C337.719 50.0732 337.816 50.0245 337.914 49.9272V48.6133C338.035 48.1753 338.157 47.8712 338.279 47.7009C338.4 47.5062 338.534 47.4089 338.68 47.4089C338.826 47.4089 338.972 47.4819 339.118 47.6279C339.264 47.7739 339.41 47.9564 339.556 48.1753L339.884 48.9418ZM324.811 69.6356C325.395 69.9519 325.991 70.2074 326.599 70.402C327.232 70.5723 327.816 70.694 328.351 70.767C328.911 70.84 329.361 70.8765 329.702 70.8765C331.405 70.8765 332.853 70.4993 334.045 69.7451C335.237 68.9908 336.21 68.054 336.965 66.9348C337.743 65.7912 338.339 64.5747 338.753 63.2851C339.142 62.0685 339.434 60.9493 339.629 59.9274C339.459 60.9493 339.191 62.0807 338.826 63.3216C338.412 64.6355 337.816 65.8642 337.038 67.0078C336.283 68.1514 335.322 69.1125 334.154 69.8911C332.986 70.6697 331.575 71.059 329.921 71.059C328.996 71.059 328.084 70.9373 327.183 70.694C326.283 70.4507 325.444 70.0735 324.665 69.5626C324.714 69.5869 324.762 69.6113 324.811 69.6356ZM338.789 60.6573C338.862 60.2437 338.923 59.8422 338.972 59.4529C339.021 59.1123 339.069 58.7716 339.118 58.431C338.972 59.5016 338.729 60.633 338.388 61.8252C338.047 63.0661 337.573 64.2462 336.965 65.3654C336.356 66.4603 335.59 67.4336 334.665 68.2852C333.789 69.0881 332.767 69.6356 331.6 69.9276C332.621 69.7086 333.534 69.2828 334.337 68.6502C335.164 67.9932 335.87 67.2268 336.454 66.3509C337.038 65.4749 337.512 64.5382 337.877 63.5406C338.266 62.543 338.571 61.5819 338.789 60.6573ZM335.176 63.2121C334.909 63.7474 334.605 64.2584 334.264 64.745C333.948 65.2316 333.583 65.6696 333.169 66.0589C333.607 65.6939 333.984 65.2681 334.3 64.7815C334.641 64.2949 334.933 63.7717 335.176 63.2121ZM324.665 69.5626C324.373 69.3679 324.093 69.149 323.826 68.9056C324.093 69.149 324.373 69.3679 324.665 69.5626ZM339.665 59.6719L339.629 59.9274L339.665 59.6719ZM339.154 58.2485C339.13 58.3215 339.118 58.3823 339.118 58.431C339.118 58.3823 339.13 58.3215 339.154 58.2485ZM344.566 68.8326C344.566 68.711 344.602 68.565 344.675 68.3947C344.748 68.2244 344.785 68.0419 344.785 67.8472C344.858 67.2633 344.907 66.8496 344.931 66.6063C344.955 66.3387 344.967 66.1075 344.967 65.9129C344.967 64.891 344.931 63.7961 344.858 62.6282C344.809 61.4359 344.748 60.2924 344.675 59.1974C344.675 58.8568 344.663 58.4553 344.639 57.993C344.639 57.5307 344.615 57.1658 344.566 56.8981C344.639 56.0465 344.7 55.2071 344.748 54.3798C344.797 53.5526 344.821 52.7131 344.821 51.8615V50.9491C344.821 50.6328 344.809 50.3165 344.785 50.0002C344.858 50.0732 344.931 50.1097 345.004 50.1097C345.101 50.1097 345.199 50.0732 345.296 50.0002C345.418 49.9272 345.527 49.8907 345.624 49.8907C345.795 49.8907 345.929 50.0732 346.026 50.4382C346.148 50.8031 346.208 51.6061 346.208 52.847H346.537C346.658 51.4844 346.841 50.4017 347.084 49.5987C347.352 48.7958 347.62 48.3943 347.887 48.3943C348.009 48.3943 348.204 48.662 348.471 49.1973C348.739 49.7082 348.873 50.5233 348.873 51.6426L349.274 50.9856C349.542 50.6693 349.834 50.3408 350.15 50.0002C350.491 49.6596 350.868 49.3554 351.281 49.0878C351.695 48.8201 352.157 48.6011 352.668 48.4308C353.179 48.2362 353.763 48.1389 354.42 48.1389C355.685 48.1389 356.78 48.4308 357.705 49.0148C358.654 49.5744 359.445 50.3165 360.077 51.2411C360.71 52.1414 361.221 53.1754 361.61 54.3433C362.024 55.4869 362.34 56.6548 362.559 57.8471C362.778 59.015 362.924 60.1464 362.997 61.2413C363.07 62.3362 363.106 63.2729 363.106 64.0515C363.106 64.7572 363.058 65.1829 362.96 65.3289C362.887 65.4506 362.741 65.5236 362.523 65.5479C362.474 63.6744 362.352 61.7644 362.158 59.8179C361.963 57.8714 361.501 55.9857 360.771 54.1609C361.428 56.083 361.841 57.9809 362.012 59.8544C362.206 61.7036 362.304 63.5649 362.304 65.4384C362.158 65.3654 362.024 65.3289 361.902 65.3289C361.805 65.3289 361.72 65.3654 361.647 65.4384C361.647 65.6331 361.659 65.8399 361.683 66.0589C361.707 66.2535 361.72 66.4482 361.72 66.6428C361.744 66.8375 361.756 67.02 361.756 67.1903C361.61 67.7499 361.464 68.1514 361.318 68.3947C361.172 68.638 361.038 68.7597 360.917 68.7597C360.771 68.7597 360.649 68.6988 360.552 68.5772C360.454 68.4312 360.357 68.2609 360.26 68.0662C360.187 67.8716 360.102 67.6647 360.004 67.4458C359.931 67.2025 359.822 66.9713 359.676 66.7523C359.724 66.3387 359.761 66.0102 359.785 65.7669C359.81 65.4993 359.822 65.2803 359.822 65.11C359.822 64.453 359.81 63.6622 359.785 62.7377C359.761 61.8131 359.688 60.852 359.566 59.8544C359.469 58.8325 359.299 57.8227 359.055 56.8251C358.836 55.8032 358.52 54.903 358.106 54.1244C357.717 53.3214 357.218 52.6766 356.61 52.19C356.002 51.6791 355.272 51.4236 354.42 51.4236C353.836 51.4236 353.313 51.6182 352.851 52.0075C352.413 52.3968 352.024 52.8956 351.683 53.5039C351.367 54.1122 351.087 54.7813 350.843 55.5112C350.6 56.2169 350.406 56.8981 350.26 57.5551C350.479 56.8738 350.697 56.1804 350.916 55.4747C351.16 54.7691 351.44 54.1244 351.756 53.5404C352.097 52.9565 352.486 52.482 352.924 52.117C353.362 51.7277 353.873 51.5331 354.457 51.5331C355.211 51.5331 355.856 51.7399 356.391 52.1535C356.951 52.5672 357.413 53.1024 357.778 53.7594C358.167 54.4163 358.471 55.1706 358.69 56.0222C358.934 56.8495 359.116 57.7011 359.238 58.577C359.359 59.4286 359.432 60.268 359.457 61.0953C359.505 61.8982 359.53 62.5917 359.53 63.1756C359.53 63.6379 359.518 64.1002 359.493 64.5625C359.493 65.0248 359.481 65.4993 359.457 65.9859C359.238 65.0613 359.067 64.1002 358.946 63.1026C358.848 62.0807 358.739 61.0831 358.617 60.1099C358.496 59.1123 358.338 58.1634 358.143 57.2631C357.973 56.3385 357.717 55.4869 357.376 54.7083L357.632 54.3433C357.389 53.7837 357.109 53.3579 356.792 53.0659C356.501 52.7496 356.209 52.5185 355.917 52.3725C355.625 52.2265 355.357 52.1414 355.114 52.117C354.87 52.0927 354.712 52.0805 354.639 52.0805C354.031 52.0805 353.483 52.2995 352.997 52.7375C352.535 53.1754 352.121 53.7716 351.756 54.5258C351.415 55.2558 351.111 56.1074 350.843 57.0806C350.576 58.0539 350.345 59.0758 350.15 60.1464C349.955 61.2169 349.785 62.2997 349.639 63.3946C349.493 64.4652 349.371 65.4749 349.274 66.4238H349.603C349.724 65.5966 349.846 64.6842 349.968 63.6866C350.114 62.689 350.26 61.6792 350.406 60.6573C350.576 59.6111 350.77 58.6013 350.989 57.6281C351.208 56.6548 351.464 55.7789 351.756 55.0003C352.072 54.2217 352.437 53.5891 352.851 53.1024C353.24 52.6401 353.715 52.3725 354.274 52.2995C353.739 52.4212 353.289 52.7618 352.924 53.3214C352.535 53.9054 352.194 54.6232 351.902 55.4747C351.61 56.3263 351.342 57.2631 351.099 58.285C350.88 59.2826 350.673 60.2437 350.479 61.1683L349.749 66.4968C349.651 66.8375 349.578 67.1416 349.53 67.4093L349.384 68.1757C349.335 68.419 349.286 68.6867 349.238 68.9786C349.189 69.2463 349.128 69.5626 349.055 69.9276L348.946 70.3655H348.727L345.04 69.1246C344.919 69.1003 344.821 69.0638 344.748 69.0151C344.7 68.9665 344.639 68.9056 344.566 68.8326ZM350.916 50.1097C350.43 50.5233 350.041 50.9735 349.749 51.4601C349.481 51.9224 349.225 52.3968 348.982 52.8835V52.92C349.323 52.2144 349.797 51.4966 350.406 50.7666C350.989 50.0854 351.768 49.5744 352.741 49.2338C352.425 49.3311 352.121 49.4284 351.829 49.5257C351.488 49.6474 351.184 49.842 350.916 50.1097ZM355.296 48.9053C355.174 48.881 355.004 48.8688 354.785 48.8688C355.564 49.0634 356.294 49.2824 356.975 49.5257C357.656 49.7447 358.301 50.1948 358.909 50.8761C358.496 50.3165 357.948 49.8785 357.267 49.5622C356.61 49.2459 355.953 49.0269 355.296 48.9053ZM356.282 53.0659C356.087 52.92 355.856 52.8105 355.588 52.7375C355.345 52.6401 355.041 52.5185 354.676 52.3725L354.639 52.2995C355.053 52.3238 355.418 52.4212 355.734 52.5915C356.05 52.7375 356.355 53.0051 356.647 53.3944L356.282 53.0659ZM358.982 50.9491C359.323 51.3628 359.639 51.8372 359.931 52.3725C360.223 52.9078 360.479 53.3823 360.698 53.7959C360.454 53.2363 360.223 52.7253 360.004 52.263C359.785 51.8007 359.445 51.3628 358.982 50.9491ZM369.791 65.2924C370.181 65.4141 370.643 65.6331 371.178 65.9494C371.738 66.2657 372.358 66.5942 373.04 66.9348C373.721 67.2754 374.463 67.5796 375.266 67.8472C376.093 68.1149 376.969 68.2487 377.894 68.2487H378.295C378.441 68.2487 378.612 68.2244 378.806 68.1757L379.208 68.4677C380.157 68.1757 380.935 67.6282 381.543 66.8253C382.152 65.998 382.456 64.891 382.456 63.5041C382.456 62.5065 382.213 61.8252 381.726 61.4603C381.264 61.071 380.4 60.8763 379.135 60.8763C378.356 60.8763 377.541 60.9371 376.689 61.0588C375.862 61.1561 374.986 61.2048 374.062 61.2048C373.648 61.2048 373.222 61.1926 372.784 61.1683C372.346 61.1196 371.896 61.0345 371.434 60.9128V61.1318C372.407 61.3751 373.368 61.4968 374.317 61.4968C375.242 61.4968 376.118 61.4481 376.945 61.3508C377.796 61.2291 378.612 61.1683 379.39 61.1683C380.047 61.1683 380.558 61.2413 380.923 61.3873C381.312 61.5089 381.604 61.6792 381.799 61.8982C381.994 62.1172 382.115 62.3848 382.164 62.7012C382.237 62.9931 382.273 63.3216 382.273 63.6866C382.273 64.8301 381.969 65.8034 381.361 66.6063C380.777 67.3606 380.084 67.8351 379.281 68.0297C380.181 67.7134 380.887 67.166 381.397 66.3874C381.933 65.5601 382.2 64.6355 382.2 63.6136C382.2 62.8836 382.006 62.324 381.616 61.9347C381.251 61.5454 380.607 61.3508 379.682 61.3508C378.928 61.3508 378.076 61.3994 377.127 61.4968C376.178 61.5941 375.169 61.6427 374.098 61.6427C373.441 61.6427 372.675 61.5576 371.799 61.3873C370.947 61.2169 370.132 60.9006 369.353 60.4383C368.575 59.976 367.918 59.3434 367.383 58.5405C366.847 57.7132 366.58 56.6427 366.58 55.3288C366.58 54.2825 366.786 53.3214 367.2 52.4455C367.638 51.5452 368.21 50.7666 368.915 50.1097C369.621 49.4284 370.424 48.8931 371.324 48.5038C372.249 48.1145 373.198 47.9077 374.171 47.8834C375.096 47.8834 375.972 48.0172 376.799 48.2848C377.65 48.5282 378.453 48.8566 379.208 49.2703C379.962 49.6596 380.68 50.0975 381.361 50.5842C382.042 51.0708 382.675 51.5574 383.259 52.044L382.529 52.774C382.359 52.774 382.103 52.6766 381.762 52.482C381.422 52.263 380.899 51.898 380.193 51.3871L379.974 51.7156C380.85 52.4212 381.483 53.0781 381.872 53.6864C382.286 54.2947 382.492 54.7691 382.492 55.1098C382.444 55.3044 382.322 55.4018 382.127 55.4018C381.933 55.4018 381.543 55.2436 380.959 54.9273C380.376 54.611 379.706 54.2582 378.952 53.8689C378.222 53.4796 377.444 53.1268 376.616 52.8105C375.789 52.4942 375.035 52.336 374.354 52.336C373.964 52.336 373.575 52.409 373.186 52.555C372.796 52.701 372.444 52.9078 372.127 53.1754C371.811 53.4188 371.543 53.7229 371.324 54.0879C371.13 54.4528 371.032 54.8543 371.032 55.2923C371.032 55.9979 371.361 56.4723 372.018 56.7156C372.675 56.959 373.538 57.0806 374.609 57.0806C374.828 57.0806 375.059 57.0806 375.302 57.0806C375.57 57.0563 375.813 57.0198 376.032 56.9711C376.592 56.9711 376.957 56.959 377.127 56.9346C377.322 56.886 377.504 56.8616 377.675 56.8616C378.721 56.8616 379.767 56.9346 380.814 57.0806C381.86 57.2266 382.797 57.5429 383.624 58.0295C384.451 58.5162 385.12 59.2096 385.631 60.1099C386.142 61.0101 386.398 62.2145 386.398 63.7231C386.398 64.7693 386.215 65.8156 385.85 66.8618C385.509 67.8837 384.986 68.8083 384.281 69.6356C383.575 70.4385 382.699 71.0833 381.653 71.5699C380.607 72.0809 379.378 72.3364 377.967 72.3364C377.115 72.3364 376.105 72.166 374.937 71.8254C373.794 71.5091 372.699 71.132 371.653 70.694C370.631 70.2317 369.755 69.7572 369.025 69.2706C368.319 68.784 367.967 68.3704 367.967 68.0297C367.967 67.9324 368.027 67.8594 368.149 67.8107C369.633 68.9056 371.142 69.8059 372.675 70.5115C374.183 71.1685 375.728 71.5334 377.31 71.6064C376.531 71.5578 375.753 71.4239 374.974 71.205C374.171 70.9616 373.368 70.6697 372.565 70.329C371.787 69.9641 371.032 69.5626 370.302 69.1246C369.597 68.6623 368.915 68.2 368.259 67.7377L368.806 67.2633C368.733 67.2389 368.599 67.1538 368.405 67.0078C368.21 66.8618 368.015 66.6793 367.821 66.4603C367.65 66.2414 367.492 66.0102 367.346 65.7669C367.2 65.5236 367.127 65.2924 367.127 65.0735C367.127 64.8301 367.176 64.672 367.273 64.599C367.37 64.526 367.48 64.4895 367.602 64.4895C367.723 64.4895 367.979 64.5747 368.368 64.745C368.757 64.9153 369.232 65.0978 369.791 65.2924ZM377.857 69.0151C377.006 69.0151 376.057 68.8448 375.01 68.5042C373.989 68.1392 373.015 67.6769 372.091 67.1173C372.845 67.6282 373.684 68.0905 374.609 68.5042C375.534 68.8935 376.604 69.0881 377.821 69.0881C379.451 69.0881 380.741 68.5893 381.689 67.5918C382.663 66.5942 383.149 65.2559 383.149 63.5771V63.2121C383.028 62.4335 382.76 61.8009 382.346 61.3143C381.957 60.8033 381.349 60.5235 380.522 60.4748C381.032 60.5722 381.446 60.7303 381.762 60.9493C382.103 61.1683 382.359 61.4359 382.529 61.7522C382.724 62.0442 382.857 62.3727 382.93 62.7377C383.003 63.1026 383.04 63.4798 383.04 63.8691C382.943 65.4749 382.432 66.7402 381.507 67.6647C380.582 68.565 379.366 69.0151 377.857 69.0151ZM382.492 70.4385C383.101 70.0492 383.587 69.5748 383.952 69.0151C384.317 68.4555 384.634 67.8716 384.901 67.2633C384.39 68.2852 383.685 69.1855 382.784 69.9641C381.908 70.7427 380.862 71.2293 379.646 71.4239C380.108 71.3509 380.582 71.2536 381.069 71.132C381.58 70.986 382.054 70.7548 382.492 70.4385ZM385.96 63.5771C385.96 63.3094 385.911 63.054 385.814 62.8106C385.741 62.616 385.68 62.4092 385.631 62.1902L385.668 62.6647C385.692 62.8593 385.704 63.127 385.704 63.4676C385.704 64.1245 385.631 64.7572 385.485 65.3654C385.339 65.9737 385.157 66.5698 384.938 67.1538C385.157 66.6185 385.363 66.0589 385.558 65.4749C385.777 64.8666 385.911 64.234 385.96 63.5771ZM385.631 62.0807C385.631 62.105 385.631 62.1415 385.631 62.1902C385.631 62.1415 385.631 62.105 385.631 62.0807ZM379.244 68.0662C379.22 68.0662 379.195 68.0662 379.171 68.0662C379.195 68.0662 379.22 68.0662 379.244 68.0662Z" fill="white"/>
<path fill-rule="evenodd" clip-rule="evenodd" d="M77.3792 82.4332C71.2685 77.4897 62.9972 70.7983 37.373 89.4844C23.5506 78.847 20.2053 60.4934 25.7783 50.6473C29.947 48.2632 33.3885 44.1564 36.8382 40.0399C43.4206 32.1851 50.0327 24.2948 61.7827 28.2686C55.0621 38.8351 77.1499 49.9653 77.1499 23.5127C81.3586 31.7587 86.9656 37.0893 91.6021 41.4973C96.2237 45.891 99.881 49.368 100.228 53.9018C101.271 67.5254 97.2598 79.7105 87.2512 84.936C83.1316 87.0869 80.5454 84.9947 77.3792 82.4332ZM86.977 50.5074C86.977 53.6829 84.5636 56.2571 81.5865 56.2571C78.6094 56.2571 76.196 53.6829 76.196 50.5074C76.196 47.332 78.6094 44.7578 81.5865 44.7578C84.5636 44.7578 86.977 47.332 86.977 50.5074ZM49.549 45.4087H40.3953V55.1722H49.5487V55.1722H40.3953V65.1526H49.5487V55.1722H49.549V65.1526H58.7024V55.1722H49.549V45.4087ZM31.2415 55.1722H40.3951V65.1526H31.2415V55.1722ZM40.3953 65.1528H49.549V74.9163H40.3953V65.1528ZM72.4327 66.0205C75.4098 66.0205 77.8232 63.4464 77.8232 60.2709C77.8232 57.0955 75.4098 54.5213 72.4327 54.5213C69.4556 54.5213 67.0422 57.0955 67.0422 60.2709C67.0422 63.4464 69.4556 66.0205 72.4327 66.0205ZM86.977 70.0344C86.977 73.2098 84.5636 75.784 81.5865 75.784C78.6094 75.784 76.196 73.2098 76.196 70.0344C76.196 66.859 78.6094 64.2848 81.5865 64.2848C84.5636 64.2848 86.977 66.859 86.977 70.0344ZM90.7399 66.0205C93.717 66.0205 96.1304 63.4464 96.1304 60.2709C96.1304 57.0955 93.717 54.5213 90.7399 54.5213C87.7628 54.5213 85.3494 57.0955 85.3494 60.2709C85.3494 63.4464 87.7628 66.0205 90.7399 66.0205ZM89.1205 89.0448C86.3486 90.9218 83.9598 90.5707 82.7666 90.3953C82.6118 90.3726 82.4772 90.3528 82.3644 90.3412C80.4972 90.1493 83.2615 97.2705 85.1687 96.8815C89.8447 95.9278 92.1922 86.9649 89.1205 89.0448Z" fill="white"/>
<path d="M370.881 186.4V180.201V149.199H364.759V143H340.28V149.199H334.406H334.162H328.287V143H285.445V149.199H279.621V143H236.782V149.199H230.954V143H188.409H188.115H163.931V149.199H157.812V143H133.624H133.33H90.7855V149.199H84.9611V143H42.1186V149.199H36V198.801H42.1186V205H66.6012V198.801H72.7198V205H96.9041H97.1982H139.448H139.742H163.931V198.801H170.05V205H188.115H194.528H242.901H243.195H285.445H285.739H340.28H340.525H377V186.4H370.881Z" fill="black"/>
<path d="M42.1186 192.603V155.402H48.2413V149.199H78.8384V155.402H84.9611V192.603H72.7198V174.002H54.3599V192.603H42.1186ZM54.3599 167.799H72.7198V155.402H54.3599V167.799Z" fill="white"/>
<path d="M90.7855 186.4V180.201H103.027V186.4H121.383V174.002H96.8958V167.799H90.7855V155.402H96.8958V149.199H127.497V155.402H133.616V161.6H121.383V155.402H103.027V167.799H127.505V174.002H133.624V186.4H127.505V192.603H96.8958V186.4H90.7855Z" fill="white"/>
<path d="M139.452 192.603V149.199H151.69V155.402H157.792V161.6H163.914V155.402H170.033V149.199H182.274V192.603H170.049V167.799H163.931V174.002H157.792V167.799H151.69V192.603H139.452Z" fill="white"/>
<path d="M188.115 161.6V155.402H194.246V149.199H224.847V155.402H230.966V167.799H224.835V174.002H212.594V167.799H218.716V155.402H200.357V161.6H188.115ZM188.115 192.603V186.4H194.246V180.201H200.369V174.002H212.606V180.201H206.475V186.4H230.954V192.603H188.115Z" fill="white"/>
<path d="M236.782 186.4V155.402H242.901V149.199H273.502V155.402H279.621V186.4H273.502V192.603H242.901V186.4H236.782ZM249.019 167.799H255.142V161.6H261.261V155.402H249.019V167.799ZM255.142 186.4H267.379V167.799H261.261V174.002H255.142V186.4Z" fill="white"/>
<path d="M285.445 161.6V155.402H291.568V149.199H322.165V155.402H328.287V167.799H322.165V174.002H309.928V167.799H316.038V155.402H297.686V161.6H285.445ZM285.445 192.603V186.4H291.568V180.201H297.686V174.002H309.928V180.201H303.805V186.4H328.287V192.603H285.445Z" fill="white"/>
<path d="M334.162 167.799V161.6H340.28V155.402H346.399V149.199H358.64V186.4H364.759V192.603H340.28V186.4H346.399V167.799H334.162Z" fill="white"/>
</svg>
