<svg width="204" height="149" viewBox="0 0 204 149" fill="none" xmlns="http://www.w3.org/2000/svg">
<g clip-path="url(#clip0)">
<path d="M51.4201 3.19998C52.9749 2.99998 54.4325 2.79998 55.9873 2.59998C56.376 2.59998 56.7648 2.79998 56.7648 3.19998C57.0563 5.89998 57.3478 8.49998 57.6393 11.2C57.6393 11.6 57.445 11.9 56.9591 12C55.3071 12.2 53.7523 12.4 52.1003 12.6C51.8088 12.6 51.4201 12.4 51.3229 12.1C50.254 9.59998 47.7274 9.49998 46.1726 9.69998C42.0912 10.3 40.5364 13.3 41.0223 16.1C41.5082 19 43.9376 21.6 47.8246 21C50.3512 20.6 51.906 20 53.3636 17.2C54.141 15.6 55.2099 16 55.5986 16.1C56.4732 16.5 57.445 16.8 58.3196 17.2C58.5139 17.3 58.7083 17.5 58.9026 17.6C59.9715 18.3 58.9026 21.7 57.2506 23.6C55.2099 25.8 53.2664 27 48.3105 27.7C41.2166 28.7 35.1918 24.4 33.9285 17.3C32.568 9.79997 37.8155 4.29998 45.0065 3.29998C47.0472 2.99998 49.1851 3.19998 50.7399 3.99998C50.7399 3.89998 50.837 3.69998 50.837 3.59998C50.837 3.39998 51.1286 3.19998 51.4201 3.19998Z" fill="#FFC629"/>
<path d="M85.9174 16.1C83.2937 16.2 80.6699 16.3 78.1434 16.5C77.8518 16.5 77.6575 16.7 77.5603 16.9C77.366 17.4 77.6575 17.8 78.1434 17.9C78.3377 17.9 78.5321 17.9 78.7264 17.9C79.1151 17.9 79.4067 18.2 79.4067 18.6C79.4067 19.9 79.5038 21.9 79.5038 23.2C79.5038 23.6 79.2123 23.9 78.8236 23.9C75.6168 24.1 72.41 24.3 69.3004 24.6C68.9117 24.6 68.6202 24.3 68.523 24C68.4258 22.3 68.2315 20.6 68.1343 19C68.1343 18.6 68.4258 18.3 68.8145 18.2C69.2032 18.2 69.6891 18.1 70.0778 18.1C70.3693 18.1 70.5637 17.9 70.6608 17.7C72.7987 12.2 75.3253 6.19998 77.6575 0.799976C77.7547 0.499976 78.0462 0.399976 78.2405 0.399976C80.2812 0.299976 82.2247 0.199976 84.2654 0.0999756C84.557 0.0999756 84.8485 0.199976 84.9457 0.499976C87.9581 5.79998 90.7762 11.2 93.5943 16.6C93.6915 16.8 93.983 17 94.2745 17C94.6632 17 95.1491 17 95.5378 17C95.9265 17 96.2181 17.3 96.2181 17.7C96.2181 19.4 96.3152 21.1 96.3152 22.8C96.3152 23.2 96.0237 23.5 95.635 23.5C92.4282 23.6 89.2214 23.7 86.1118 23.8C85.7231 23.8 85.4316 23.5 85.4316 23.1C85.3344 21.8 85.2372 19.9 85.0428 18.5C85.0428 18.1 85.2372 17.8 85.6259 17.7C85.8202 17.7 86.0146 17.6 86.209 17.6C86.6948 17.5 86.9864 17 86.6948 16.6C86.4033 16.2 86.209 16.1 85.9174 16.1ZM80.8643 11.5C81.4473 11.5 82.1276 11.4 82.7106 11.4C83.1965 11.4 83.5852 10.8 83.2937 10.4C83.0022 9.79997 82.6135 9.19998 82.3219 8.59998C82.0304 7.99998 81.253 7.99998 80.9615 8.59998C80.6699 9.19998 80.3784 9.89997 80.1841 10.5C79.9897 11 80.3784 11.5 80.8643 11.5Z" fill="#FFC629"/>
<path d="M127.12 18.2C127.314 18.1 127.509 18 127.703 17.9C127.897 17.8 128.092 17.6 128.092 17.3C128.092 17 128.092 16.6 128.189 16.3C128.189 15.6 127.217 15.3 126.926 15.9C125.371 18.5 123.816 21.1 122.358 23.8C121.678 23.8 120.901 23.7 120.22 23.7C119.929 23.7 119.735 23.5 119.637 23.3C118.471 20.7 117.208 18 115.945 15.4C115.653 14.7 114.584 14.9 114.584 15.7C114.584 16 114.584 16.4 114.584 16.7C114.584 17 114.681 17.2 114.973 17.3C115.167 17.4 115.362 17.5 115.556 17.6C115.75 17.7 115.945 18 115.945 18.2C115.848 19.7 115.848 21.2 115.75 22.7C115.75 23.1 115.459 23.4 115.07 23.4C112.252 23.3 109.434 23.2 106.519 23.2C106.13 23.2 105.839 22.9 105.839 22.5C105.839 20.8 105.839 19.1 105.839 17.4C105.839 17 106.13 16.7 106.519 16.7C106.81 16.7 107.102 16.7 107.393 16.7C107.782 16.7 108.074 16.4 108.074 16C108.074 13 108.171 10.1 108.171 7.10002C108.171 6.70002 107.879 6.40002 107.49 6.40002C107.199 6.40002 106.907 6.40002 106.616 6.40002C106.227 6.40002 105.936 6.10002 105.936 5.70002C105.936 4.00002 105.936 2.30002 105.936 0.600024C105.936 0.200024 106.227 -0.0999756 106.713 -0.0999756C109.726 -0.0999756 112.641 2.44156e-05 115.653 0.100024C115.945 0.100024 116.139 0.300024 116.333 0.500024C117.985 4.10002 119.54 7.80002 121.095 11.5C121.289 12 122.067 12.1 122.358 11.6C124.205 8.10003 126.148 4.60002 128.189 1.20002C128.286 1.00002 128.578 0.800024 128.869 0.800024C131.784 1.00002 134.797 1.20002 137.712 1.50002C138.101 1.50002 138.392 1.90002 138.392 2.30002C138.295 4.00002 138.101 5.70002 138.004 7.40002C138.004 7.80002 137.615 8.10003 137.226 8.00002C136.935 8.00002 136.643 7.90002 136.352 7.90002C135.963 7.90002 135.574 8.20002 135.574 8.50002C135.38 11.4 135.088 14.4 134.894 17.3C134.894 17.7 135.186 18 135.574 18.1C135.866 18.1 136.157 18.1 136.449 18.2C136.838 18.2 137.129 18.6 137.129 19C137.032 20.7 136.838 22.4 136.74 24C136.74 24.4 136.352 24.7 135.963 24.6C133.145 24.3 130.327 24.1 127.412 23.9C127.023 23.9 126.731 23.5 126.731 23.2C126.828 21.7 126.926 20.2 127.023 18.7C126.731 18.5 126.828 18.3 127.12 18.2Z" fill="#FFC629"/>
<path d="M156.759 19.8C156.759 19.9 156.759 20 156.759 20C156.661 20.4 156.953 20.7 157.244 20.8C157.828 20.9 158.313 21.1 158.896 21.2C159.285 21.3 159.48 21.6 159.382 22C159.188 23.6 158.896 25.1 158.702 26.7C158.605 27.1 158.313 27.3 157.925 27.3C154.621 26.8 151.22 26.3 147.916 25.9C147.527 25.9 147.235 25.5 147.333 25.1C147.527 23.4 147.721 21.8 147.916 20.1C147.916 19.7 148.304 19.4 148.693 19.5C148.985 19.5 149.276 19.6 149.568 19.6C149.956 19.6 150.345 19.4 150.345 19C150.734 16.1 151.025 13.1 151.414 10.2C151.414 9.80002 151.22 9.50002 150.831 9.40002C150.539 9.40002 150.248 9.30002 149.956 9.30002C149.568 9.30002 149.276 8.90002 149.276 8.50002C149.47 6.80002 149.665 5.10002 149.859 3.40002C149.859 3.00002 150.248 2.70002 150.637 2.80002C153.843 3.10002 162.589 4.30002 162.978 4.40002C169.877 5.50002 172.112 9.10002 171.335 13.5C170.752 16.9 166.865 20.3 161.715 19.6C160.354 19.4 158.994 19.2 157.633 19C157.147 19.2 156.856 19.4 156.759 19.8ZM158.022 11.1C157.925 11.7 157.828 12.2 157.828 12.8C157.73 13.2 158.022 13.5 158.411 13.6C159.48 13.8 160.548 13.9 161.617 14.1C164.144 14.5 164.824 11.4 162.103 10.9C161.715 10.8 160.646 10.7 158.896 10.5C158.411 10.4 158.022 10.7 158.022 11.1Z" fill="#FFC629"/>
<path d="M24.5024 109.6H10.5091C7.49665 109.6 5.06726 107.1 5.06726 104V44.7C5.06726 41.9 7.3023 36.9 11.578 36.9H29.9442C51.4201 36.9 61.0405 50.9 60.9433 66.9C60.9433 66.9 61.1376 82.5 49.5737 89.2C40.6336 94.3 34.803 94.3 31.5962 94.9C30.5273 95.1 29.5555 95.9 29.5555 97.1L29.4584 104.6V104.7C29.3612 107.4 27.1261 109.6 24.5024 109.6ZM31.3047 75.5C34.9002 75.5 36.5522 74.7 38.3985 71.9C40.2449 69.2 40.4392 65.9 39.3703 63.1C38.69 61.3 37.2324 59.8 35.4832 59.1L33.5397 58.7C33.151 58.7 29.1668 58.2 29.264 59.5V72.6C29.264 73.2 29.1668 75.6 30.8188 75.5H31.3047Z" fill="#FFC629"/>
<path d="M182.219 38.6L169.003 52.2C167.254 54 164.338 54 162.589 52.2L149.373 38.6C147.624 36.8 144.709 36.8 142.96 38.6L132.173 49.7C130.424 51.5 130.424 54.5 132.173 56.3L145.195 70C146.944 71.8 146.944 74.8 145.195 76.6L131.979 90.2C130.23 92 130.23 95 131.979 96.8L142.765 107.9C144.514 109.7 147.43 109.7 149.179 107.9L162.395 94.3C164.144 92.5 167.059 92.5 168.808 94.3L182.219 108C183.968 109.8 186.883 109.8 188.632 108L199.419 96.9C201.168 95.1 201.168 92.1 199.419 90.3L186.203 76.7C184.454 74.9 184.454 71.9 186.203 70.1L199.419 56.5C201.168 54.7 201.168 51.7 199.419 49.9L188.632 38.8C186.883 36.8 183.968 36.8 182.219 38.6Z" fill="#FFC629"/>
<path d="M91.748 85.7L104.381 107.7C105.061 108.9 106.227 109.6 107.588 109.6H125.468C128.286 109.6 130.132 106.4 128.675 103.9L92.7197 39.7C92.0395 38.4 90.1932 38.4 89.5129 39.7L53.4608 103.9C52.0031 106.5 53.8495 109.6 56.6676 109.6H74.5479C75.9083 109.6 77.0745 108.9 77.7547 107.7L90.3875 85.7C90.7762 85.2 91.4565 85.2 91.748 85.7Z" fill="#FFC629"/>
<path d="M153.649 148.5C152.094 148.5 151.414 147.4 151.414 146.5V143.6C151.414 141.4 152.58 139.9 153.552 139L158.022 134.9C158.605 134.4 158.994 133.9 158.994 132.9C158.994 131.8 158.313 131.1 157.342 131.1C156.467 131.1 155.884 131.7 155.69 132.3L155.592 132.6C155.398 133.2 155.106 134.5 153.552 134.5C152.094 134.5 151.414 133.4 151.414 132.3V132C151.414 129 153.843 127.2 157.147 127.2C160.646 127.2 163.172 129.3 163.172 133.1C163.172 135.4 162.298 136.5 160.451 138.3L156.758 141.7C155.981 142.4 155.592 142.9 155.592 143.7V144.4H161.229C162.783 144.4 163.464 145.5 163.464 146.5C163.464 147.4 162.783 148.5 161.229 148.5H153.649Z" fill="#FFC629"/>
<path d="M166.379 132.9C166.379 129.7 169.197 126.9 172.598 126.9C175.999 126.9 178.817 129.7 178.817 132.9V142.9C178.817 146.2 175.999 149 172.598 149C169.294 149 166.379 146.2 166.379 142.9V132.9ZM170.655 133.5V142.5C170.655 144 171.626 144.7 172.598 144.7C173.57 144.7 174.542 144.1 174.542 142.5V133.5C174.542 132 173.57 131.3 172.598 131.3C171.626 131.3 170.655 132 170.655 133.5Z" fill="#FFC629"/>
<path d="M184.259 148.5C182.704 148.5 182.024 147.4 182.024 146.5V143.6C182.024 141.4 183.19 139.9 184.162 139L188.632 134.9C189.215 134.4 189.604 133.9 189.604 132.9C189.604 131.8 188.924 131.1 187.952 131.1C187.077 131.1 186.494 131.7 186.3 132.3L186.203 132.6C186.008 133.2 185.717 134.5 184.162 134.5C182.704 134.5 182.024 133.4 182.024 132.3V132C182.024 129 184.454 127.2 187.758 127.2C191.256 127.2 193.782 129.3 193.782 133.1C193.782 135.4 192.908 136.5 191.062 138.3L187.369 141.7C186.591 142.4 186.203 142.9 186.203 143.7V144.4H191.839C193.394 144.4 194.074 145.5 194.074 146.5C194.074 147.4 193.394 148.5 191.839 148.5H184.259Z" fill="#FFC629"/>
<path d="M201.265 127.5C202.917 127.5 203.5 128.6 203.5 129.5V146.5C203.5 147.5 202.82 148.7 201.362 148.7C199.904 148.7 199.224 147.5 199.224 146.5V131.5H198.155C196.601 131.5 196.017 130.4 196.017 129.4C196.017 128.5 196.698 127.4 198.155 127.4H201.265V127.5Z" fill="#FFC629"/>
<path d="M13.0357 143.7C13.0357 141.9 13.0357 140.6 13.23 137.9H13.1328C12.9385 138.6 12.3554 140.2 12.1611 140.9L10.995 144C10.5091 145.4 9.53734 145.6 8.85711 145.6C8.27406 145.6 7.3023 145.5 6.71924 144L5.55314 140.9C5.35878 140.5 4.67855 138.6 4.58138 137.9H4.4842C4.58138 139.4 4.67856 141.5 4.77573 143.7V146.5C4.77573 147.5 4.0955 148.7 2.63787 148.7C1.18023 148.7 0.5 147.6 0.5 146.5V129.7C0.5 128.2 1.27741 127.2 2.54069 127.2C3.41527 127.2 4.28985 127.7 4.87291 129L8.85711 138.7H8.95429L12.9385 129C13.5215 127.7 14.2989 127.2 15.1735 127.2C16.4368 127.2 17.3114 128.2 17.3114 129.7V146.5C17.3114 147.5 16.6312 148.7 15.1735 148.7C13.7159 148.7 13.0357 147.5 13.0357 146.5V143.7Z" fill="#FFC629"/>
<path d="M21.004 129.5C21.004 128.6 21.6843 127.5 23.2391 127.5H29.9442C31.499 127.5 32.1792 128.6 32.1792 129.5C32.1792 130.5 31.499 131.6 29.9442 131.6H25.2798V135.8H28.7781C30.3329 135.8 31.0131 136.9 31.0131 137.8C31.0131 138.8 30.3329 139.9 28.7781 139.9H25.2798V144.4H29.9442C31.499 144.4 32.1792 145.5 32.1792 146.4C32.1792 147.4 31.499 148.5 29.9442 148.5H23.2391C21.6843 148.5 21.004 147.4 21.004 146.5V129.5Z" fill="#FFC629"/>
<path d="M37.4268 148.5C35.9692 148.5 35.2889 147.6 35.2889 146.5V129.4C35.2889 128.4 35.9692 127.2 37.4268 127.2C38.8844 127.2 39.5647 128.4 39.5647 129.4V144.4H43.8404C45.3952 144.4 46.0754 145.5 46.0754 146.4C46.0754 147.4 45.3952 148.5 43.8404 148.5H37.4268Z" fill="#FFC629"/>
<path d="M51.2258 148.5C49.671 148.5 48.9907 147.4 48.9907 146.5V129.6C48.9907 128.7 49.671 127.6 51.2258 127.6H54.6269C58.5139 127.6 61.2349 130 61.2349 133.1V133.3C61.2349 135 60.5546 136.3 58.9998 137.4C60.749 138.2 61.5264 139.9 61.5264 142V142.2C61.5264 145.8 58.8055 148.5 54.9184 148.5H51.2258ZM54.6269 135.6C55.8902 135.6 56.9591 135 56.9591 133.7V133.5C56.9591 132.2 55.8902 131.6 54.6269 131.6H53.2664V135.6H54.6269ZM54.9184 144.4C56.1817 144.4 57.2507 143.7 57.2507 142.1V141.9C57.2507 140.4 56.0845 139.8 54.9184 139.8H53.2664V144.4H54.9184Z" fill="#FFC629"/>
<path d="M64.636 132.9C64.636 129.7 67.4541 127.2 70.8552 127.2C74.2564 127.2 77.0745 129.7 77.0745 132.9V142.9C77.0745 146.2 74.2564 148.7 70.8552 148.7C67.4541 148.7 64.636 146.3 64.636 143V132.9ZM68.9117 133.5V142.5C68.9117 144 69.8835 144.7 70.8552 144.7C71.827 144.7 72.7988 144.1 72.7988 142.5V133.5C72.7988 132 71.827 131.3 70.8552 131.3C69.8835 131.3 68.9117 132 68.9117 133.5Z" fill="#FFC629"/>
<path d="M92.9141 143C92.9141 146.3 90.096 148.8 86.6948 148.8C83.2937 148.8 80.4756 146.3 80.4756 143V129.4C80.4756 128.4 81.1558 127.2 82.6134 127.2C84.0711 127.2 84.7513 128.4 84.7513 129.4V142.4C84.7513 143.9 85.7231 144.6 86.6948 144.6C87.6666 144.6 88.6383 144 88.6383 142.4V129.4C88.6383 128.4 89.3186 127.2 90.7762 127.2C92.2339 127.2 92.9141 128.4 92.9141 129.4V143Z" fill="#FFC629"/>
<path d="M101.757 140.3H100.785V146.6C100.785 147.6 100.105 148.8 98.6474 148.8C97.1897 148.8 96.5095 147.6 96.5095 146.6V129.6C96.5095 128.7 97.1897 127.6 98.7446 127.6H101.66C105.644 127.6 108.462 130.3 108.462 133.9V134.1C108.462 136.2 107.49 138 105.838 139.1L109.337 145.7C110.017 147.1 109.045 148.8 107.49 148.8C106.616 148.8 105.936 148.3 105.547 147.6L101.757 140.3ZM101.66 136.2C102.923 136.2 104.186 135.5 104.186 134V133.8C104.186 132.3 102.923 131.6 101.66 131.6H100.785V136.2H101.66Z" fill="#FFC629"/>
<path d="M121.192 129.4C121.192 128.4 121.872 127.2 123.33 127.2C124.788 127.2 125.468 128.4 125.468 129.4V146.2C125.468 147.7 124.691 148.7 123.33 148.7C122.358 148.7 121.581 148.2 120.998 147L116.722 137.9H116.625C116.819 140 116.819 142.1 116.819 143.6V146.5C116.819 147.5 116.139 148.7 114.681 148.7C113.224 148.7 112.544 147.5 112.544 146.5V129.7C112.544 128.2 113.321 127.2 114.681 127.2C115.653 127.2 116.431 127.7 117.014 128.9L121.192 137.9H121.289C121.095 135.8 121.192 133.8 121.192 132.3V129.4Z" fill="#FFC629"/>
<path d="M129.161 129.5C129.161 128.6 129.841 127.5 131.396 127.5H138.101C139.656 127.5 140.336 128.6 140.336 129.5C140.336 130.5 139.656 131.6 138.101 131.6H133.436V135.8H136.935C138.49 135.8 139.17 136.9 139.17 137.8C139.17 138.8 138.49 139.9 136.935 139.9H133.436V144.4H138.101C139.656 144.4 140.336 145.5 140.336 146.4C140.336 147.4 139.656 148.5 138.101 148.5H131.396C129.841 148.5 129.161 147.4 129.161 146.5V129.5Z" fill="#FFC629"/>
</g>
<defs>
<clipPath id="clip0">
<rect width="203" height="149" fill="white" transform="translate(0.5)"/>
</clipPath>
</defs>
</svg>
