<svg width="313" height="115" viewBox="0 0 313 115" fill="none" xmlns="http://www.w3.org/2000/svg">
<path d="M365.483 158.483C432.398 91.5673 432.398 -16.9238 365.483 -83.8391C298.567 -150.754 190.076 -150.754 123.161 -83.8391C56.2456 -16.9238 56.2456 91.5674 123.161 158.483C190.076 225.398 298.567 225.398 365.483 158.483Z" fill="#FFC629" stroke="#C08C04" stroke-width="2.46" stroke-miterlimit="10"/>
<path d="M357.718 150.588C420.345 87.9619 420.345 -13.5758 357.718 -76.2023C295.092 -138.829 193.554 -138.829 130.927 -76.2023C68.3008 -13.5757 68.3008 87.9619 130.927 150.588C193.554 213.215 295.092 213.215 357.718 150.588Z" stroke="#C08C04" stroke-width="11.09" stroke-miterlimit="10" stroke-dasharray="0.74 1.97"/>
<path d="M348.958 141.828C406.746 84.0397 406.746 -9.65347 348.958 -67.4417C291.169 -125.23 197.476 -125.23 139.688 -67.4417C81.8998 -9.65351 81.8998 84.0397 139.688 141.828C197.476 199.616 291.169 199.616 348.958 141.828Z" fill="#FFC629" stroke="#C08C04" stroke-width="2.96" stroke-miterlimit="10"/>
<path d="M245.743 173.405H244.756C244.462 173.405 244.172 173.347 243.901 173.234C243.63 173.12 243.384 172.954 243.178 172.745C242.972 172.536 242.809 172.288 242.7 172.015C242.59 171.742 242.536 171.451 242.54 171.157L242.977 149.727C242.994 149.149 243.234 148.6 243.647 148.196C244.061 147.791 244.615 147.563 245.193 147.559H245.322C245.9 147.559 246.455 147.787 246.866 148.192C247.278 148.598 247.513 149.149 247.522 149.727L247.942 171.157C247.949 171.45 247.897 171.741 247.789 172.014C247.681 172.286 247.52 172.535 247.316 172.744C247.111 172.953 246.866 173.12 246.596 173.233C246.326 173.347 246.036 173.405 245.743 173.405ZM359.866 106.477L341.525 95.4143C341.031 95.115 340.674 94.6348 340.529 94.076C340.384 93.5171 340.463 92.9237 340.749 92.4221V92.3251C341.034 91.8215 341.507 91.4507 342.064 91.2933C342.621 91.1358 343.218 91.2044 343.725 91.484L362.519 101.803C362.775 101.946 363.001 102.138 363.182 102.369C363.363 102.6 363.497 102.865 363.575 103.148C363.654 103.43 363.675 103.726 363.638 104.017C363.601 104.308 363.507 104.589 363.36 104.844C363.198 105.135 363.053 105.41 362.875 105.685C362.578 106.186 362.096 106.549 361.533 106.698C360.97 106.846 360.371 106.767 359.866 106.477ZM177.586 155.517C177.294 155.371 177.019 155.21 176.744 155.048C176.492 154.899 176.271 154.702 176.094 154.468C175.917 154.234 175.788 153.968 175.715 153.684C175.641 153.4 175.624 153.104 175.665 152.814C175.706 152.523 175.803 152.244 175.952 151.991L187.015 133.633C187.311 133.137 187.792 132.776 188.352 132.631C188.912 132.486 189.507 132.567 190.007 132.857H190.088C190.592 133.143 190.962 133.615 191.12 134.172C191.277 134.729 191.209 135.326 190.929 135.833L180.626 154.627C180.487 154.888 180.298 155.118 180.069 155.304C179.84 155.49 179.576 155.629 179.293 155.712C179.01 155.795 178.713 155.82 178.42 155.787C178.126 155.753 177.843 155.661 177.586 155.517ZM379.146 39.889L357.715 39.4361C357.138 39.4276 356.586 39.1921 356.181 38.7805C355.775 38.3689 355.548 37.8143 355.548 37.2364V37.107C355.548 36.5292 355.775 35.9746 356.181 35.563C356.586 35.1514 357.138 34.9159 357.715 34.9074L379.146 34.4868C379.44 34.4826 379.731 34.5367 380.004 34.6461C380.276 34.7556 380.525 34.9181 380.734 35.1243C380.943 35.3305 381.109 35.5762 381.222 35.8472C381.336 36.1181 381.394 36.409 381.394 36.7027V37.6893C381.394 37.9823 381.336 38.2724 381.222 38.5424C381.109 38.8125 380.942 39.0572 380.733 39.2621C380.523 39.467 380.275 39.628 380.003 39.7357C379.73 39.8433 379.439 39.8954 379.146 39.889ZM132.638 39.5978L111.224 40.0183C110.929 40.027 110.636 39.9765 110.362 39.8699C110.088 39.7632 109.837 39.6025 109.626 39.3974C109.415 39.1923 109.247 38.9469 109.133 38.6757C109.018 38.4045 108.959 38.1131 108.959 37.8187V36.8321C108.959 36.5377 109.018 36.2463 109.133 35.9751C109.247 35.7039 109.415 35.4585 109.626 35.2534C109.837 35.0482 110.088 34.8876 110.362 34.7809C110.636 34.6743 110.929 34.6237 111.224 34.6324L132.638 35.0529C133.211 35.0739 133.755 35.3165 134.153 35.7299C134.551 36.1432 134.773 36.6948 134.773 37.2688V37.4467C134.757 38.0094 134.527 38.5448 134.131 38.9443C133.734 39.3439 133.2 39.5775 132.638 39.5978ZM300.265 -58.4651H300.168C299.665 -58.7507 299.294 -59.2233 299.136 -59.7804C298.979 -60.3375 299.048 -60.9342 299.327 -61.4412L309.614 -80.2839C309.755 -80.5459 309.948 -80.7767 310.181 -80.9626C310.414 -81.1484 310.681 -81.2854 310.968 -81.3654C311.255 -81.4455 311.555 -81.4668 311.85 -81.4283C312.146 -81.3897 312.43 -81.2921 312.687 -81.1411L313.528 -80.6559C313.783 -80.5091 314.006 -80.3127 314.183 -80.0783C314.361 -79.844 314.489 -79.5764 314.562 -79.2914C314.634 -79.0064 314.649 -78.7098 314.604 -78.4191C314.56 -78.1284 314.458 -77.8496 314.304 -77.599L303.274 -59.2415C302.974 -58.7434 302.491 -58.383 301.928 -58.2377C301.366 -58.0925 300.768 -58.1742 300.265 -58.4651ZM146.531 -17.0112L127.737 -27.2493C127.48 -27.3893 127.253 -27.5793 127.071 -27.808C126.888 -28.0368 126.753 -28.2997 126.673 -28.5814C126.593 -28.8631 126.57 -29.1579 126.606 -29.4485C126.641 -29.7391 126.735 -30.0197 126.88 -30.2739L127.365 -31.1149C127.511 -31.371 127.706 -31.5953 127.94 -31.7745C128.174 -31.9537 128.441 -32.0841 128.726 -32.158C129.011 -32.2319 129.308 -32.2478 129.599 -32.2048C129.891 -32.1617 130.171 -32.0606 130.422 -31.9074L148.78 -20.8606C149.277 -20.5642 149.637 -20.0839 149.782 -19.5239C149.927 -18.9638 149.846 -18.369 149.556 -17.8684V-17.7875C149.409 -17.5371 149.214 -17.3183 148.982 -17.1436C148.751 -16.9688 148.486 -16.8418 148.205 -16.7696C147.924 -16.6974 147.632 -16.6816 147.344 -16.7231C147.057 -16.7645 146.781 -16.8624 146.531 -17.0112ZM245.047 -73.1835H244.934C244.355 -73.1833 243.798 -73.4101 243.384 -73.8152C242.97 -74.2204 242.731 -74.7716 242.718 -75.3508L242.282 -96.7975C242.273 -97.0918 242.323 -97.3848 242.43 -97.6592C242.537 -97.9336 242.697 -98.1838 242.902 -98.3949C243.108 -98.6061 243.353 -98.7739 243.624 -98.8885C243.895 -99.003 244.187 -99.062 244.481 -99.0619H245.468C245.763 -99.062 246.055 -99.0031 246.327 -98.8887C246.599 -98.7743 246.846 -98.6068 247.052 -98.3958C247.258 -98.1849 247.421 -97.9349 247.529 -97.6604C247.638 -97.3859 247.69 -97.0926 247.684 -96.7975L247.263 -75.3832C247.259 -74.7983 247.023 -74.2388 246.608 -73.8268C246.193 -73.4147 245.632 -73.1835 245.047 -73.1835ZM177.893 155.646L177.036 155.161C176.781 155.014 176.558 154.818 176.381 154.584C176.203 154.35 176.073 154.083 175.999 153.799C175.925 153.514 175.909 153.218 175.951 152.927C175.993 152.636 176.092 152.356 176.243 152.104L187.29 133.747C187.435 133.499 187.628 133.282 187.857 133.109C188.086 132.936 188.347 132.81 188.625 132.738C188.903 132.666 189.192 132.649 189.477 132.689C189.761 132.729 190.035 132.825 190.282 132.97H190.379C190.883 133.256 191.254 133.728 191.411 134.286C191.568 134.843 191.5 135.439 191.22 135.946L180.934 154.741C180.798 155.004 180.61 155.237 180.382 155.426C180.154 155.615 179.89 155.757 179.606 155.841C179.322 155.926 179.024 155.952 178.73 155.919C178.435 155.885 178.151 155.792 177.893 155.646ZM310.196 154.369L299.748 135.639C299.47 135.131 299.401 134.534 299.555 133.976C299.709 133.418 300.074 132.941 300.573 132.647H300.67C301.168 132.355 301.762 132.272 302.322 132.414C302.881 132.556 303.363 132.913 303.662 133.407L314.822 151.7C314.974 151.951 315.074 152.23 315.117 152.52C315.16 152.81 315.145 153.106 315.073 153.391C315 153.675 314.872 153.942 314.696 154.177C314.52 154.411 314.299 154.608 314.046 154.757L313.221 155.242C312.703 155.526 312.095 155.593 311.528 155.429C310.961 155.266 310.483 154.884 310.196 154.369ZM127.705 106.186L127.204 105.345C127.057 105.091 126.963 104.81 126.926 104.519C126.889 104.227 126.91 103.932 126.988 103.649C127.066 103.366 127.2 103.102 127.381 102.871C127.563 102.64 127.788 102.447 128.045 102.304L146.774 91.8722C147.279 91.5912 147.874 91.5202 148.431 91.6746C148.988 91.8289 149.462 92.1962 149.75 92.6971C150.044 93.1963 150.13 93.7907 149.991 94.353C149.852 94.9153 149.499 95.4007 149.006 95.7054L130.762 106.995C130.509 107.147 130.229 107.248 129.937 107.289C129.645 107.331 129.347 107.314 129.062 107.239C128.777 107.163 128.51 107.031 128.276 106.85C128.043 106.669 127.849 106.444 127.705 106.186ZM340.539 -18.3536V-18.4507C340.247 -18.9493 340.163 -19.5427 340.306 -20.1025C340.448 -20.6624 340.805 -21.1438 341.299 -21.4429L359.592 -32.6514C359.841 -32.806 360.119 -32.909 360.409 -32.9544C360.699 -32.9998 360.995 -32.9867 361.28 -32.9158C361.565 -32.845 361.833 -32.7178 362.068 -32.5419C362.303 -32.3659 362.5 -32.1447 362.648 -31.8913L363.134 -31.0502C363.283 -30.7974 363.38 -30.5172 363.419 -30.2262C363.459 -29.9352 363.439 -29.6393 363.362 -29.3559C363.286 -29.0725 363.153 -28.8074 362.972 -28.5761C362.791 -28.3449 362.565 -28.1522 362.309 -28.0095L343.515 -17.5449C343.01 -17.2639 342.414 -17.1929 341.857 -17.3473C341.301 -17.5016 340.827 -17.8689 340.539 -18.3698V-18.3536ZM186.53 -58.8857L175.37 -77.1623C175.215 -77.4131 175.111 -77.6924 175.066 -77.9836C175.02 -78.2749 175.033 -78.5724 175.104 -78.8586C175.175 -79.1447 175.302 -79.4139 175.478 -79.6503C175.654 -79.8868 175.876 -80.0856 176.13 -80.2354L176.971 -80.7206C177.225 -80.867 177.506 -80.9615 177.797 -80.9984C178.089 -81.0354 178.384 -81.0141 178.667 -80.9359C178.95 -80.8576 179.215 -80.7239 179.445 -80.5426C179.676 -80.3613 179.869 -80.1359 180.012 -79.8795L190.46 -61.2147C190.741 -60.7098 190.812 -60.1145 190.658 -59.5576C190.503 -59.0007 190.136 -58.527 189.635 -58.2387H189.538C189.052 -57.9318 188.464 -57.8277 187.902 -57.9486C187.34 -58.0695 186.847 -58.4059 186.53 -58.8857Z" fill="#C08C04" stroke="#FFC629" stroke-width="1.48" stroke-linecap="round" stroke-linejoin="round"/>
<path d="M195.507 87.2305C195.881 86.2753 196.429 85.3978 197.124 84.6426C201.087 79.1435 205.098 73.6605 209.093 68.1775C212.554 63.4385 216.048 58.6995 219.509 53.9444L229.213 40.6008C229.617 40.1373 229.98 39.6394 230.297 39.1128C230.537 38.6043 230.938 38.1892 231.438 37.9319C231.938 37.6746 232.509 37.5894 233.063 37.6895C236.669 37.7866 240.276 37.6895 243.883 37.6895C244.174 37.6895 244.482 37.5763 244.724 37.8189L244.336 38.1747C228.162 54.3487 212.015 70.5227 195.895 86.6967C195.798 86.8585 195.668 87.0526 195.507 87.2305Z" fill="#C08C04" stroke="#C08C04" stroke-width="0.99" stroke-linejoin="round"/>
<path d="M200.472 -9.23121L208.333 -3.47326L219.816 4.90487L229.391 11.892C229.477 11.9036 229.564 11.9036 229.65 11.892C231.429 13.2183 233.208 14.5608 235.004 15.8709C238.238 18.1999 241.435 20.5182 244.595 22.8257C244.833 22.9857 245.025 23.2064 245.15 23.4651C245.275 23.7237 245.329 24.0111 245.306 24.2975C245.306 28.1469 245.306 31.9963 245.306 35.8457C245.362 36.1468 245.322 36.4578 245.193 36.7353L195.83 -12.4822C197.512 -11.4956 198.919 -10.2663 200.472 -9.23121Z" fill="#C08C04" stroke="#C08C04" stroke-width="0.99" stroke-linejoin="round"/>
<path d="M245.953 37.4469C246.147 37.2366 246.342 37.0102 246.552 36.7999C262.607 20.723 278.63 4.65682 294.621 -11.3986L295.365 -12.1426C294.507 -10.7225 293.556 -9.36087 292.518 -8.06673C289.704 -4.18497 286.879 -0.308602 284.043 3.56238L275.714 14.9974L267.287 26.5456L259.701 36.994C259.613 37.1252 259.492 37.2313 259.35 37.3022C259.208 37.373 259.051 37.4061 258.893 37.3984L245.953 37.4469Z" fill="#C08C04" stroke="#C08C04" stroke-width="0.99" stroke-linejoin="round"/>
<path d="M295.074 87.5864C293.398 86.5164 291.779 85.3612 290.222 84.1251C286.356 81.3432 282.507 78.5128 278.657 75.6985L267.109 67.2718L255.626 58.8937L246.051 52.0036C245.93 51.9247 245.831 51.8166 245.763 51.6894C245.695 51.5622 245.661 51.4199 245.662 51.2758C245.662 46.9411 245.662 42.6065 245.662 38.3365L246.034 38.6924L294.556 87.2144L295.074 87.5864Z" fill="#C08C04" stroke="#C08C04" stroke-width="0.99" stroke-linejoin="round"/>
<path d="M195.83 87.4406C196.781 87.0667 197.653 86.5181 198.402 85.8232C203.901 81.8444 209.384 77.8441 214.851 73.8221L229.084 63.3899L242.427 53.6855C242.885 53.2768 243.378 52.9088 243.899 52.5857C244.408 52.3455 244.823 51.9443 245.08 51.4443C245.337 50.9442 245.423 50.3733 245.323 49.8199C245.225 46.2131 245.323 42.6063 245.323 38.9995C245.323 38.7084 245.436 38.4011 245.193 38.1584L244.837 38.5466C228.663 54.7206 212.516 70.8946 196.396 87.0686C196.234 87.1495 196.008 87.2951 195.83 87.4406Z" fill="#FFC629" stroke="#C08C04" stroke-width="0.99" stroke-linejoin="round"/>
<path d="M292.098 82.3621L286.324 74.5177L277.929 63.0342L270.942 53.4592C270.9 53.3825 270.868 53.3011 270.845 53.2166L266.866 47.863C264.537 44.6282 262.214 41.4311 259.895 38.2718C259.735 38.0331 259.515 37.8414 259.256 37.7163C258.997 37.5912 258.71 37.5373 258.424 37.5601C254.574 37.5601 250.741 37.5601 246.892 37.5601C246.591 37.5022 246.279 37.5419 246.002 37.6733L295.349 86.9717C294.362 85.322 293.117 83.9148 292.098 82.3621Z" fill="#FFC629" stroke="#C08C04" stroke-width="0.99" stroke-linejoin="round"/>
<path d="M245.614 36.7515L246.261 36.153C262.273 20.1084 278.296 4.06921 294.33 -11.9646L295.058 -12.7086C293.649 -11.8414 292.293 -10.8908 290.998 -9.862C287.116 -7.04772 283.251 -4.2011 279.369 -1.37065L267.95 6.97514L256.402 15.418L245.97 23.0198C245.837 23.1035 245.73 23.2212 245.659 23.3607C245.588 23.5001 245.555 23.6561 245.565 23.8123C245.598 28.1307 245.598 32.4492 245.614 36.7515Z" fill="#FFC629" stroke="#C08C04" stroke-width="0.99" stroke-linejoin="round"/>
<path d="M195.361 -12.1265C196.431 -10.447 197.592 -8.82724 198.838 -7.27426C201.62 -3.40868 204.451 0.424566 207.265 4.27398L215.643 15.8707C218.425 19.7094 221.218 23.5372 224.021 27.3543L230.944 36.8646C231.018 36.9862 231.122 37.0861 231.247 37.1543C231.372 37.2225 231.513 37.2564 231.655 37.2528H244.595L244.239 36.8646L195.717 -11.5765L195.361 -12.1265Z" fill="#FFC629" stroke="#C08C04" stroke-width="0.99" stroke-linejoin="round"/>
<path d="M153.082 37.3176C154.327 36.7886 155.661 36.5031 157.013 36.4766C165.779 35.0532 174.561 33.6946 183.328 32.3198C190.929 31.1391 198.547 29.9746 206.149 28.7777L227.483 25.3974C228.285 25.3537 229.081 25.2346 229.86 25.0415C230.548 24.7749 231.307 24.7514 232.01 24.975C232.713 25.1986 233.318 25.6558 233.726 26.2708C236.961 29.6996 240.39 32.983 243.721 36.331C243.98 36.5898 244.368 36.7839 244.384 37.2206H243.689C213.789 37.2206 183.888 37.2206 153.988 37.2206C153.685 37.2362 153.382 37.2686 153.082 37.3176Z" fill="#C08C04" stroke="#C08C04" stroke-width="0.99" stroke-linejoin="round"/>
<path d="M246.94 -47.3695L248.881 -34.7699C249.83 -28.6454 250.789 -22.5154 251.76 -16.3801C252.552 -11.2691 253.377 -6.15811 254.154 -1.04712C254.188 -0.935513 254.243 -0.831295 254.315 -0.739819C254.736 2.13915 255.14 5.01813 255.593 7.8971C256.391 13.0081 257.2 18.1137 258.019 23.2139C258.093 23.5823 258.067 23.9636 257.945 24.3189C257.823 24.6742 257.608 24.9906 257.324 25.2356C253.733 28.7616 250.191 32.3522 246.617 35.8943C246.358 36.1531 246.18 36.5089 245.695 36.6221V-54.6639C246.374 -52.2055 246.455 -49.747 246.94 -47.3695Z" fill="#C08C04" stroke="#C08C04" stroke-width="0.99" stroke-linejoin="round"/>
<path d="M245.905 37.8513H247.053H336.01H337.401C335.271 38.3618 333.11 38.7346 330.932 38.9673C324.737 39.9863 318.526 40.9406 312.315 41.911L294.039 44.7738L275.649 47.5881L258.957 50.2244C258.755 50.2725 258.543 50.2631 258.346 50.1974C258.149 50.1317 257.974 50.0122 257.841 49.8524C253.879 45.8413 249.884 41.8463 245.905 37.8513Z" fill="#C08C04" stroke="#C08C04" stroke-width="0.99" stroke-linejoin="round"/>
<path d="M244.886 129.784C244.306 127.227 243.864 124.641 243.559 122.037C242.54 115.891 241.619 109.712 240.648 103.55C239.678 97.3878 238.723 91.2255 237.753 85.0632C236.783 78.9009 235.844 72.8033 234.874 66.6895C234.076 61.6109 233.273 56.543 232.464 51.486C232.415 51.3032 232.416 51.1105 232.467 50.9283C232.518 50.7462 232.618 50.5812 232.755 50.4508C236.799 46.472 240.831 42.4824 244.853 38.4821C244.853 38.7085 244.853 38.9349 244.853 39.1614V128.862C244.918 129.17 244.902 129.477 244.886 129.784Z" fill="#C08C04" stroke="#C08C04" stroke-width="0.99" stroke-linejoin="round"/>
<path d="M153.163 37.8027C154.414 38.3303 155.753 38.6157 157.11 38.6438C165.876 40.0563 174.648 41.4311 183.425 42.7682C191.043 43.9489 198.645 45.0972 206.246 46.2941C213.363 47.3939 220.463 48.5261 227.58 49.6421C228.382 49.6857 229.178 49.8049 229.958 49.9979C230.651 50.2466 231.408 50.2593 232.11 50.0342C232.812 49.809 233.42 49.3585 233.839 48.7525C237.074 45.3236 240.487 42.0403 243.819 38.6923C244.077 38.4335 244.466 38.2556 244.466 37.8027H243.786H154.085C153.778 37.8188 153.47 37.8188 153.163 37.8027Z" fill="#FFC629" stroke="#C08C04" stroke-width="0.99" stroke-linejoin="round"/>
<path d="M246.972 122.199C247.598 117.993 248.239 113.794 248.897 109.599C249.835 103.464 250.784 97.3284 251.744 91.1931L254.121 75.8763C254.159 75.766 254.213 75.6623 254.283 75.569C254.704 72.69 255.108 69.7949 255.545 66.9321C256.342 61.8211 257.151 56.7101 257.971 51.5991C258.046 51.2293 258.02 50.8459 257.894 50.4899C257.769 50.1338 257.549 49.8185 257.259 49.5774C253.668 46.0514 250.126 42.477 246.552 38.9349C246.293 38.6761 246.099 38.3041 245.63 38.207V129.493C246.374 127.035 246.471 124.576 246.972 122.199Z" fill="#FFC629" stroke="#C08C04" stroke-width="0.99" stroke-linejoin="round"/>
<path d="M246.147 36.9778H247.312H336.269H337.644C335.514 36.4652 333.353 36.0924 331.174 35.8618C324.963 34.859 318.753 33.9209 312.542 32.9505L294.265 30.1039L275.762 27.2249L259.071 24.6047C258.868 24.5566 258.657 24.566 258.46 24.6317C258.262 24.6975 258.087 24.8169 257.955 24.9767C254.121 28.9717 250.126 32.9667 246.147 36.9778Z" fill="#FFC629" stroke="#C08C04" stroke-width="0.99" stroke-linejoin="round"/>
<path d="M244.87 -54.7449C244.304 -52.186 243.866 -49.6003 243.56 -46.9975C242.557 -40.8514 241.635 -34.6729 240.665 -28.5106L237.802 -10.0238L234.939 8.33374C234.141 13.4016 233.338 18.4695 232.529 23.5373C232.487 23.7192 232.493 23.909 232.547 24.0878C232.601 24.2666 232.701 24.4281 232.836 24.5563L244.935 36.525C244.935 36.2986 244.935 36.0722 244.935 35.8457C244.935 5.94538 244.935 -23.955 244.935 -53.8553C244.902 -54.1464 244.886 -54.4537 244.87 -54.7449Z" fill="#FFC629" stroke="#C08C04" stroke-width="0.99" stroke-linejoin="round"/>
<path d="M267.189 31.2684L207.216 -79.9279L223.908 44.9678L223.795 45.0001L283.768 156.213L267.076 31.3008L267.189 31.2684Z" fill="#C08C04" stroke="#FFC629" stroke-width="1.23" stroke-linejoin="round"/>
<path d="M260.656 32.7887L245.857 37.3821L229.877 42.6872L217.746 -48.3724L260.656 32.7887Z" fill="#FFC629"/>
<path d="M245.614 46.1483C243.627 46.1181 241.722 45.3579 240.26 44.0125C238.798 42.6672 237.883 40.8309 237.688 38.8538C237.514 36.7479 238.182 34.6588 239.547 33.0454C240.912 31.432 242.861 30.4264 244.967 30.2493H245.63C247.619 30.2799 249.527 31.0424 250.989 32.3911C252.451 33.7398 253.364 35.58 253.555 37.5599C253.73 39.6453 253.073 41.7152 251.728 43.3182C250.383 44.9211 248.458 45.9268 246.374 46.116C246.122 46.1466 245.868 46.1574 245.614 46.1483Z" fill="#C08C04"/>
<path d="M245.63 31.2197C247.414 31.241 249.121 31.9454 250.401 33.1879C251.682 34.4303 252.437 36.1163 252.511 37.8986C252.586 39.681 251.974 41.4242 250.803 42.7693C249.631 44.1143 247.988 44.959 246.212 45.1293H245.614C243.8 45.1563 242.048 44.474 240.731 43.2279C239.413 41.9817 238.635 40.2703 238.561 38.4584C238.487 36.6465 239.124 34.8774 240.336 33.5283C241.547 32.1791 243.238 31.3565 245.047 31.2359H245.63V31.2197ZM245.63 29.2465C245.382 29.2303 245.133 29.2303 244.886 29.2465C242.532 29.3715 240.322 30.419 238.735 32.162C237.148 33.9049 236.312 36.203 236.408 38.5582C236.504 40.9134 237.524 43.136 239.247 44.7444C240.97 46.3528 243.257 47.2175 245.614 47.1511H246.374C248.675 46.9551 250.811 45.8785 252.337 44.1457C253.863 42.4129 254.662 40.1578 254.566 37.8507C254.47 35.5435 253.487 33.3625 251.822 31.7625C250.157 30.1624 247.939 29.2669 245.63 29.2627V29.2465Z" fill="#FFC629"/>
</svg>
