<svg width="144" height="42" viewBox="0 0 144 42" fill="none" xmlns="http://www.w3.org/2000/svg">
<path d="M33.5638 22.5608H37.2531C39.1505 25.752 41.0689 28.9775 43.0875 32.3769V22.5687H47.5252V41.3736H43.3616L38.0463 32.4138V41.3894H33.5665L33.5638 22.5608Z" fill="#3E5154"/>
<path d="M49.3487 0.659424H54.0394C54.2397 0.957203 54.1553 1.27343 54.1553 1.56857C54.1553 5.2034 54.1553 8.83648 54.1553 12.4678C54.1321 12.9668 54.1863 13.4664 54.3161 13.9488C54.6139 14.8843 55.2437 15.3349 56.2503 15.3217C57.257 15.3086 57.8815 14.8237 58.1424 13.8908C58.271 13.3794 58.3277 12.8526 58.3111 12.3255C58.3111 8.74688 58.3111 5.16827 58.3111 1.58965C58.3111 1.29451 58.2346 0.983555 58.427 0.659424H63.0096C63.0597 0.746386 63.1098 0.79382 63.1098 0.838618C63.0834 5.358 63.3733 9.88529 62.978 14.3915C62.6855 17.7329 60.4772 19.6619 57.1305 19.8464C55.6521 19.9307 54.1896 19.9044 52.8035 19.2798C50.4792 18.2257 49.4409 16.2783 49.3777 13.9014C49.2644 9.52427 49.3487 5.14192 49.3487 0.659424Z" fill="#EB6059"/>
<path d="M72.1196 33.9579V37.2361H79.2083V41.3602H67.4447V22.5659H79.1002V26.6531H72.1406V29.7627H78.0409V33.9579H72.1196Z" fill="#3E5154"/>
<path d="M87.662 15.3428H94.7007V19.4406H83.003V0.685791H94.5979V4.68077H87.6673V7.82721H93.557V12.004H87.662V15.3428Z" fill="#EB6059"/>
<path d="M64.6435 27.7072L60.7407 28.9194C60.4245 28.7086 60.435 28.3713 60.3217 28.1025C59.9291 27.1802 59.3124 26.5873 58.2478 26.5952C57.2517 26.5952 56.5349 27.1064 56.1607 28.1974C55.5256 30.042 55.6337 31.9684 55.7575 33.8815C55.7884 34.6324 55.9573 35.3711 56.2556 36.0609C56.6298 36.8725 57.1964 37.4154 58.1477 37.4549C59.099 37.4944 59.7288 37.0333 60.161 36.2401C60.3823 35.829 60.5484 35.3915 60.7776 34.8803L64.7884 36.3323C64.6234 37.6612 64.0326 38.9009 63.1045 39.8661C62.1763 40.8314 60.9606 41.4702 59.6392 41.687C55.1594 42.4776 51.9971 40.4011 51.0511 35.9607C50.6619 34.0256 50.5598 32.0438 50.748 30.0789C50.8316 28.8609 51.0762 27.6594 51.4753 26.5056C52.4161 23.8704 54.3134 22.4816 57.0383 22.168C57.9209 22.0565 58.8146 22.0662 59.6945 22.197C62.3851 22.6318 64.2535 24.6978 64.6435 27.7072Z" fill="#3E5154"/>
<path d="M14.145 27.7073L10.092 28.9669C9.93654 28.5822 9.81268 28.2475 9.66511 27.9128C9.29091 27.0827 8.67164 26.5952 7.7256 26.5952C7.2916 26.5736 6.86213 26.692 6.50058 26.9331C6.13902 27.1741 5.86451 27.525 5.71757 27.9339C5.5601 28.288 5.44169 28.6583 5.36445 29.0381C5.02713 31.0107 5.02713 33.0263 5.36445 34.9989C5.45695 35.7245 5.77924 36.4013 6.28414 36.9305C7.09842 37.7395 8.56096 37.6051 9.3199 36.6881C9.73363 36.1874 9.91809 35.5734 10.1895 34.8777L14.3084 36.3561C13.7576 38.4115 12.8616 40.1191 10.9379 41.1179C6.79537 43.2682 1.96239 41.189 0.692224 36.7223C0.370083 35.5727 0.193027 34.3874 0.165182 33.1938C0.101937 30.8854 0.130924 28.5927 0.955745 26.3844C1.93077 23.794 3.83603 22.4316 6.52394 22.1681C8.63211 21.9678 10.706 22.0943 12.3056 23.8019C13.3281 24.8797 13.7919 26.1947 14.145 27.7073Z" fill="#3E5154"/>
<path d="M42.9214 12.9501C44.2812 13.4771 45.67 13.8408 46.9454 14.4706C46.2497 18.0887 43.3931 20.2338 39.7803 19.8912C35.7062 19.5091 33.8511 17.733 33.0947 13.3559C32.6271 10.7243 32.7168 8.0239 33.3583 5.42919C33.6274 4.38309 34.1287 3.41104 34.8249 2.58523C35.5212 1.75942 36.3945 1.10105 37.3801 0.659028C38.3657 0.217001 39.4381 0.00266599 40.5179 0.0319384C41.5977 0.0612108 42.657 0.333339 43.6171 0.828115C45.5725 1.83213 46.3525 3.62934 46.8505 5.76386L42.7923 7.03667L42.4866 6.22239C42.0808 5.16831 41.3588 4.64126 40.3785 4.66235C39.3982 4.68343 38.6735 5.23419 38.323 6.30672C37.7195 8.16454 37.7564 10.0777 37.9251 11.9935C37.9745 12.7166 38.1354 13.4277 38.4021 14.1017C38.7499 14.9318 39.3191 15.4667 40.2652 15.5352C41.256 15.6037 41.9016 15.1004 42.3522 14.2993C42.567 13.8606 42.7571 13.4101 42.9214 12.9501V12.9501Z" fill="#EB6059"/>
<path d="M110.66 31.5626C111.554 31.6255 112.452 31.5687 113.332 31.394C113.88 33.8342 114.834 34.8487 116.562 34.8513C117.264 34.85 117.944 34.6123 118.493 34.1767C119.043 33.7411 119.429 33.133 119.59 32.4507C119.97 30.801 119.24 29.573 117.24 28.5848C117.692 27.784 118.035 26.926 118.259 26.0339C121.019 26.5821 122.984 29.7074 122.492 32.643C121.965 35.858 119 38.148 115.94 37.7185C112.723 37.2784 110.346 34.5588 110.66 31.5626Z" fill="#EB6059"/>
<path d="M130.748 37.3496C131.112 36.5092 131.358 35.6223 131.478 34.7144C133.812 35.0016 135.112 34.4034 135.694 32.8065C135.934 32.1494 135.946 31.4306 135.727 30.766C135.509 30.1015 135.073 29.5299 134.49 29.1435C133.048 28.2028 131.678 28.4953 129.984 30.1291C129.381 29.4539 128.686 28.8666 127.92 28.3846C129.117 26.0392 132.616 25.0431 135.249 26.2448C136.678 26.9025 137.795 28.0901 138.364 29.5565C138.934 31.0229 138.911 32.6532 138.3 34.103C137.703 35.5141 136.584 36.6398 135.177 37.2449C133.769 37.8499 132.182 37.8874 130.748 37.3496V37.3496Z" fill="#EB6059"/>
<path d="M127.448 5.13673C126.007 3.50553 124.566 3.14451 123.143 3.99568C122.506 4.35123 122.015 4.9184 121.754 5.59864C121.492 6.27887 121.477 7.02919 121.712 7.71923C122.286 9.36624 123.614 9.99869 125.928 9.66929C126.152 10.5257 126.234 11.4375 126.613 12.2492C124.634 13.5457 121.029 12.3229 119.564 9.89328C119.139 9.20101 118.858 8.4305 118.737 7.6275C118.617 6.82451 118.658 6.0054 118.86 5.21883C119.062 4.43226 119.42 3.69426 119.912 3.04866C120.405 2.40306 121.022 1.86302 121.727 1.46061C124.418 -0.0599044 128.223 0.828161 129.517 3.32634C128.821 3.87446 128.055 4.36988 127.448 5.13673Z" fill="#EB6059"/>
<path d="M109.869 10.552C110.159 11.4032 110.367 12.3018 110.986 13.1424C109.824 13.5008 108.984 14.1649 108.596 15.2927C108.372 15.9262 108.372 16.6173 108.596 17.2507C108.815 17.899 109.239 18.4582 109.805 18.8434C110.37 19.2286 111.046 19.4189 111.729 19.3852C113.392 19.2772 114.259 18.3153 114.77 15.9595C115.659 16.0833 116.552 16.223 117.448 16.1228C117.901 18.7343 115.603 21.6199 112.704 22.1706C111.928 22.3269 111.127 22.3273 110.35 22.1718C109.573 22.0162 108.835 21.7079 108.178 21.2646C107.522 20.8213 106.959 20.252 106.524 19.5896C106.089 18.9273 105.79 18.1851 105.645 17.4062C105.054 14.4442 107.044 11.1792 109.869 10.552Z" fill="#EB6059"/>
<path d="M121.857 35.9554C123.453 37.5893 124.929 37.9266 126.318 37.0095C126.933 36.6255 127.394 36.0387 127.622 35.3506C127.85 34.6625 127.831 33.9164 127.567 33.2412C126.956 31.66 125.588 31.0513 123.366 31.4229C123.235 30.5348 123.127 29.6336 122.687 28.8509C124.268 27.7599 128.107 28.3634 129.825 31.2858C131.478 34.0923 130.566 37.8739 127.794 39.5209C125.021 41.1679 121.364 40.4063 119.769 37.7526C120.555 37.2671 121.26 36.6606 121.857 35.9554Z" fill="#EB6059"/>
<path d="M139.449 30.4531C139.214 29.5834 138.86 28.7506 138.395 27.9787C139.449 27.5175 140.345 26.9641 140.704 25.831C140.931 25.172 140.931 24.4556 140.704 23.7966C140.245 22.5027 138.941 21.5909 137.634 21.6884C135.921 21.7991 134.922 22.8875 134.545 25.1511C133.673 24.9166 132.772 24.9824 131.886 24.9535C131.359 22.4052 133.781 19.4195 136.764 18.8925C137.553 18.7621 138.359 18.7899 139.137 18.9744C139.915 19.1588 140.649 19.4961 141.295 19.9668C141.941 20.4374 142.487 21.0319 142.901 21.7157C143.316 22.3994 143.59 23.1587 143.708 23.9494C144.127 26.943 142.029 30.1949 139.449 30.4531Z" fill="#EB6059"/>
<path d="M106.894 21.1904C107.55 21.8123 108.359 22.2234 109.144 22.6556C108.143 24.8797 108.317 26.2632 109.7 27.3147C110.238 27.7431 110.907 27.9727 111.594 27.9645C112.281 27.9564 112.944 27.711 113.471 27.2699C114.836 26.1604 114.994 24.8086 113.993 22.6741C114.808 22.2852 115.569 21.7937 116.259 21.2115C118.202 23.2301 117.97 26.9694 115.809 29.0802C114.686 30.2007 113.164 30.83 111.578 30.83C109.992 30.83 108.47 30.2007 107.347 29.0802C105.191 26.9484 104.954 23.1378 106.894 21.1904Z" fill="#EB6059"/>
<path d="M142.469 19.8834C141.775 19.3027 140.997 18.8309 140.161 18.4841C141.194 16.2784 141.017 14.8106 139.634 13.7776C139.061 13.3534 138.36 13.1378 137.648 13.1666C136.936 13.1953 136.255 13.4667 135.718 13.9357C134.45 15.0794 134.334 16.5841 135.43 18.4498C134.568 18.7919 133.772 19.2814 133.077 19.8965C131.138 17.8121 131.407 14.0991 133.604 11.9408C135.863 9.71672 139.647 9.72199 141.955 11.954C144.137 14.0569 144.398 17.7805 142.469 19.8834Z" fill="#EB6059"/>
<path d="M119.345 10.9685C119.935 11.6449 120.628 12.2247 121.398 12.6866C120.734 14.4838 117.261 16.2784 114.072 14.8449C111.144 13.5273 109.766 9.9223 111.126 6.8391C112.362 4.03524 115.869 2.53317 118.505 3.73483C118.294 4.59918 117.933 5.44244 117.909 6.44909C116.771 6.12496 115.695 6.11442 114.747 6.8312C114.16 7.26031 113.74 7.87821 113.556 8.58098C113.384 9.25799 113.443 9.97308 113.724 10.6125C114.005 11.2519 114.492 11.7788 115.108 12.1095C116.515 12.8895 117.896 12.5364 119.345 10.9685Z" fill="#EB6059"/>
<path d="M135.958 9.70343C135.694 7.51357 134.587 6.27766 132.901 6.21178C132.157 6.1919 131.429 6.43329 130.845 6.89401C130.26 7.35473 129.856 8.00566 129.702 8.73368C129.341 10.2779 130.194 11.6482 132.073 12.4862C131.876 12.9026 131.657 13.311 131.483 13.7379C131.309 14.1648 131.204 14.5707 131.072 14.9765C128.647 14.7947 126.526 11.7194 126.774 8.80746C126.847 8.01788 127.076 7.25049 127.446 6.54913C127.816 5.84777 128.32 5.22618 128.93 4.71987C129.541 4.21356 130.245 3.83244 131.003 3.59829C131.76 3.36414 132.557 3.28154 133.346 3.35521C136.395 3.60029 138.93 6.4674 138.674 9.47944C137.8 9.50052 136.893 9.46363 135.958 9.70343Z" fill="#EB6059"/>
<path fill-rule="evenodd" clip-rule="evenodd" d="M87.2325 35.6524H88.8637C89.425 37.5972 89.9705 39.4814 90.5134 41.355H95.7364C95.5135 40.6523 95.2927 39.9558 95.0732 39.2634L95.0708 39.2556L95.07 39.2532C94.5457 37.5993 94.029 35.969 93.5096 34.3348C95.5993 32.4665 95.9182 30.0737 95.5993 27.5255C95.1935 24.2921 93.2039 22.5528 89.9389 22.5186H85.8596H82.4628V41.3656H87.2325V35.6524ZM87.2457 26.8139V31.4387C87.6111 31.3757 87.9889 31.3899 88.3587 31.4038C89.2264 31.4364 90.0497 31.4673 90.5634 30.4953C91.0826 29.515 91.1089 28.4109 90.4264 27.4938C89.8355 26.6965 89.0308 26.7485 88.2081 26.8018C87.8862 26.8226 87.5615 26.8436 87.2457 26.8139Z" fill="#3E5154"/>
<path fill-rule="evenodd" clip-rule="evenodd" d="M69.1459 0.714102C68.2623 0.728387 67.3756 0.742724 66.4849 0.742724V19.4712H71.252V13.7844C71.3336 13.7778 71.4131 13.7705 71.4911 13.7634C71.9744 13.719 72.3951 13.6804 72.849 13.8529C73.3971 15.7292 73.9452 17.6107 74.4881 19.4817H79.7058C79.3053 18.2176 78.9128 16.9769 78.523 15.7447C78.1742 14.6419 77.8275 13.5459 77.479 12.4457C79.6109 10.6248 79.827 8.26098 79.5872 5.77861C79.3184 3.01427 77.6714 0.964081 75.1811 0.790158C73.181 0.648863 71.1719 0.681346 69.1459 0.714102ZM71.2599 4.9248V9.43101C72.9807 9.74987 73.9373 9.59176 74.4538 8.8091C74.9703 8.02644 75.0019 6.44268 74.4749 5.71536C73.8449 4.84323 72.9958 4.8815 72.133 4.92039C71.8408 4.93356 71.5472 4.9468 71.2599 4.9248Z" fill="#EB6059"/>
<path fill-rule="evenodd" clip-rule="evenodd" d="M20.4985 22.5215H26.3302C27.9113 28.7801 29.4687 35.0282 31.0525 41.3448H26.0667C25.8664 40.5068 25.6688 39.6767 25.4553 38.7886H21.1942L20.5617 41.3553H15.7182C17.3178 35.0598 18.9042 28.8038 20.4985 22.5215ZM22.0243 34.7853H24.6199C24.3832 33.5513 24.1111 32.1831 23.8473 30.8571L23.8473 30.8568C23.6678 29.9543 23.4921 29.0713 23.3342 28.2634L22.0243 34.7853Z" fill="#3E5154"/>
</svg>
