<svg width="1920" height="156" viewBox="0 0 1920 156" fill="none" xmlns="http://www.w3.org/2000/svg">
<g clip-path="url(#clip0)">
<path d="M718.531 160.326H1280.89V168H0V-2.18602H443.233C569.419 -2.18602 603.415 160.326 718.531 160.326Z" fill="url(#paint0_linear)"/>
<path d="M466.746 -8.95735C592.932 -8.95735 622.03 151.297 737.146 151.297C667.782 151.297 599.986 29.8649 575.004 -22.5H466.746V-8.95735Z" fill="url(#paint1_linear)"/>
<path d="M1924.5 151.297H737.146M737.146 151.297C622.03 151.297 592.933 -8.95735 466.746 -8.95735V-22.5H575.004C599.986 29.8649 667.782 151.297 737.146 151.297Z" stroke="url(#paint2_linear)" stroke-width="10"/>
</g>
<defs>
<linearGradient id="paint0_linear" x1="324.002" y1="-2.18602" x2="324.002" y2="154.457" gradientUnits="userSpaceOnUse">
<stop stop-color="#DF3422"/>
<stop offset="1" stop-color="#7E1F15"/>
</linearGradient>
<linearGradient id="paint1_linear" x1="1195.62" y1="-22.5" x2="1195.62" y2="151.297" gradientUnits="userSpaceOnUse">
<stop stop-color="#0C94DE"/>
<stop offset="1" stop-color="#085D8B"/>
</linearGradient>
<linearGradient id="paint2_linear" x1="1195.62" y1="-22.5" x2="1195.62" y2="151.297" gradientUnits="userSpaceOnUse">
<stop stop-color="#0C94DE"/>
<stop offset="1" stop-color="#085D8B"/>
</linearGradient>
<clipPath id="clip0">
<rect width="1920" height="156" fill="white"/>
</clipPath>
</defs>
</svg>
