<?xml version="1.0" encoding="utf-8"?>
<!-- Generator: Adobe Illustrator 24.0.2, SVG Export Plug-In . SVG Version: 6.00 Build 0)  -->
<svg version="1.1" id="Layer_1" xmlns="http://www.w3.org/2000/svg" xmlns:xlink="http://www.w3.org/1999/xlink" x="0px" y="0px"
	 width="164.6px" height="131.4px" viewBox="0 0 164.6 131.4" style="enable-background:new 0 0 164.6 131.4;" xml:space="preserve"
	>
<style type="text/css">
	.st0{fill:#FFFFFF;}
	.st1{fill:#00539F;}
</style>
<g>
	<g>
		<path class="st0" d="M156.8,127.4c0-1.8,2.1-2.1,3.5-2.1h1.3c0,0.9-0.1,1.8-0.7,2.5c-0.5,0.6-1.2,1.1-2.2,1.1
			C157.7,128.9,156.8,128.4,156.8,127.4 M155.2,122.2c1-0.8,2.4-1.3,3.7-1.3c1.8,0,2.7,0.7,2.7,2.6h-1.7c-1.3,0-2.8,0.1-4,0.7
			s-2,1.6-2,3.4c0,2.3,2.1,3.5,4.2,3.5c1.4,0,3-0.7,3.7-2.1l0,0c0,0.4,0,1.2,0.1,1.8h2.7c-0.1-0.9-0.1-1.8-0.1-2.7c0-0.9,0-1.8,0-3
			v-1.5c0-3.5-1.5-5-5.2-5c-1.3,0-2.9,0.3-4.2,0.9L155.2,122.2z M148.3,116.7h3.1v-3h-3.1V116.7z M148.3,130.8h3.1v-11.9h-3.1V130.8
			z M142,130.8h3.1v-17.4H142V130.8z M131.4,127.4c0-1.8,2.1-2.1,3.5-2.1h1.3c0,0.9-0.1,1.8-0.6,2.5c-0.5,0.6-1.2,1.1-2.2,1.1
			C132.2,128.9,131.4,128.4,131.4,127.4 M129.8,122.2c1-0.8,2.4-1.3,3.7-1.3c1.8,0,2.7,0.7,2.7,2.6h-1.7c-1.3,0-2.8,0.1-4,0.7
			s-2,1.6-2,3.4c0,2.3,2.1,3.5,4.2,3.5c1.4,0,3-0.7,3.7-2.1l0,0c0,0.4,0,1.2,0.1,1.8h2.7c-0.1-0.9-0.1-1.8-0.1-2.7c0-0.9,0-1.8,0-3
			v-1.5c0-3.5-1.5-5-5.1-5c-1.3,0-2.9,0.3-4.2,0.9L129.8,122.2z M120.3,130.8h3.1v-4.4c0-1.7,0-4.9,2.5-4.9c0.6,0,1.1,0.1,1.4,0.3
			v-3.1c-0.3-0.1-0.7-0.1-1-0.1c-1.9,0-3.1,1.9-3.3,3l0,0v-2.7h-2.8v11.9H120.3z M112.4,127.3c0,2.4,1.3,3.9,3.8,3.9
			c0.9,0,1.6-0.1,2.3-0.3l-0.1-2.5c-0.3,0.2-0.9,0.3-1.4,0.3c-1.2,0-1.5-1-1.5-2v-5.6h2.8v-2.3h-2.8v-3.4l-3.1,1v2.4h-2.3v2.3h2.3
			C112.4,121.1,112.4,127.3,112.4,127.3z M108.5,119.1c-1-0.2-1.9-0.4-3.4-0.4c-2.4,0-4.7,1.1-4.7,3.7c0,4.3,5.4,2.7,5.4,5.1
			c0,1.2-1.3,1.5-2,1.5c-1.1,0-2.1-0.3-3.1-0.8l-0.2,2.6c1.1,0.3,2.3,0.5,3.5,0.5c2.5,0,5-1.1,5-3.9c0-4.3-5.4-3.1-5.4-5
			c0-1,1-1.3,1.8-1.3c1.1,0,1.8,0.2,2.8,0.5L108.5,119.1z M98.1,118.9H95v5.8c0,1.5-0.5,4-2.7,4c-2,0-2-2-2-3.4v-6.4h-3.1v7.5
			c0,2.7,1.2,4.7,4.1,4.7c1.6,0,3-0.7,3.9-1.9l0,0v1.6h2.9C98.1,130.8,98.1,118.9,98.1,118.9z M69.1,130.8h3.4l1.4-3.7h6.6l1.4,3.7
			h3.6L79,114.7h-3.7L69.1,130.8z M79.5,124.6h-4.7l2.3-6.7l0,0L79.5,124.6z M50.1,130.8h3.1V125c0-1.5,0.5-4,2.7-4c2,0,2,2,2,3.4
			v6.4H61v-7.5c0-2.7-1.2-4.7-4.1-4.7c-1.6,0-3,0.7-3.8,1.9l0,0v-7.1H50L50.1,130.8L50.1,130.8z M42.2,127.3c0,2.4,1.3,3.9,3.8,3.9
			c0.9,0,1.6-0.1,2.3-0.3l-0.1-2.5c-0.3,0.2-0.9,0.3-1.4,0.3c-1.2,0-1.5-1-1.5-2v-5.6H48v-2.3h-2.8v-3.4l-3.1,1v2.4h-2.3v2.3h2.3
			L42.2,127.3L42.2,127.3z M38.1,118.9H35v5.8c0,1.5-0.5,4-2.7,4c-2,0-2-2-2-3.4v-6.4h-3.1v7.5c0,2.7,1.2,4.7,4.1,4.7
			c1.6,0,3-0.7,3.9-1.9l0,0v1.6h2.9C38.1,130.8,38.1,118.9,38.1,118.9z M15.5,124.6c0-1.8,1-3.6,3-3.6s3,1.7,3,3.6
			c0,2-0.6,4.1-3,4.1S15.5,126.6,15.5,124.6 M12.3,125c0,3.4,2.3,6.2,6.2,6.2c4,0,6.3-2.7,6.3-6.2c0-3.9-2.7-6.3-6.3-6.3
			C15,118.6,12.3,121,12.3,125 M9.5,115c-1.2-0.4-2.5-0.6-3.9-0.6c-2.9,0-5.7,1.3-5.7,4.9c0,5.4,7.1,4.1,7.1,7.2
			c0,1.5-1.6,2.1-2.9,2.1s-2.6-0.4-3.7-1l-0.3,2.9c1.6,0.4,2.4,0.6,4.2,0.6c3.3,0,6.1-1.3,6.1-4.9c0-5.4-7.1-4.2-7.1-7.1
			c0-1.8,1.4-2.3,2.6-2.3c1.1,0,2.3,0.3,3.3,0.7L9.5,115z"/>
		<path class="st0" d="M145.6,103h3.1v-9.7h2.7V91h-2.7v-1.5c0-0.9,0.3-1.8,1.4-1.8c0.7,0,1.1,0.3,1.3,0.4l0.3-2.6
			c-0.6-0.1-1.5-0.3-2.3-0.3c-2.5,0-3.8,1.7-3.8,4.1V91h-2.3v2.3h2.3V103z M132.8,96.7c0-1.8,1-3.5,3-3.5s3,1.7,3,3.5
			c0,2-0.6,4.1-3,4.1C133.5,100.9,132.8,98.7,132.8,96.7 M129.6,97.1c0,3.4,2.3,6.2,6.2,6.2c4,0,6.3-2.7,6.3-6.2
			c0-3.9-2.7-6.3-6.3-6.3C132.3,90.8,129.6,93.2,129.6,97.1 M113.3,91.1h-3.4l4.6,12.6c0,1.3-0.8,2.1-2,2.1c-0.8,0-1.2-0.1-1.6-0.2
			l-0.2,2.3c0.7,0.2,1.5,0.3,2.2,0.3c3.2,0,4-2.6,5-5.2l4.5-11.9h-3.2l-2.9,8.7l0,0L113.3,91.1z M103.4,99.4c0,2.4,1.3,3.9,3.8,3.9
			c0.9,0,1.6-0.1,2.3-0.3l-0.1-2.5c-0.3,0.2-0.9,0.3-1.4,0.3c-1.2,0-1.5-1-1.5-2v-5.6h2.8v-2.3h-2.8v-3.4l-3.1,1v2.4h-2.3v2.3h2.3
			C103.4,93.2,103.4,99.4,103.4,99.4z M96.1,88.9h3.1v-3h-3.1V88.9z M96.1,103h3.1V91.1h-3.1V103z M93.1,91.2
			c-1-0.2-1.9-0.4-3.4-0.4c-2.4,0-4.7,1.1-4.7,3.7c0,4.3,5.4,2.7,5.4,5.1c0,1.2-1.3,1.5-2,1.5c-1.1,0-2.1-0.3-3.1-0.8l-0.2,2.6
			c1.1,0.3,2.3,0.5,3.5,0.5c2.5,0,5-1.1,5-3.9c0-4.3-5.4-3.1-5.4-5c0-1,1-1.3,1.8-1.3c1.1,0,1.8,0.2,2.8,0.5L93.1,91.2z M77,103h3.1
			v-4.4c0-1.7,0-4.9,2.5-4.9c0.6,0,1.1,0.1,1.4,0.3v-3.1c-0.3-0.1-0.7-0.1-1-0.1c-1.9,0-3.1,1.9-3.3,3l0,0v-2.7H77V103z M73.7,99.8
			c-1.2,0.6-2.5,1.2-4,1.2c-1.9,0-3.3-1.1-3.4-3h8.3c0-4.2-1.3-7.2-5.7-7.2c-3.7,0-5.5,2.9-5.5,6.3c0,3.9,2.3,6.2,6.2,6.2
			c1.7,0,3-0.3,4.1-1V99.8z M66.3,95.9c0.1-1.6,1-2.8,2.8-2.8c1.7,0,2.4,1.3,2.5,2.8H66.3z M54.4,103H58l4.4-11.9h-3.1l-2.9,8.7l0,0
			l-3-8.7H50L54.4,103z M45.1,88.9h3.1v-3h-3.1V88.9z M45.1,103h3.1V91.1h-3.1V103z M30.9,103H34v-5.8c0-1.5,0.5-4,2.7-4
			c2,0,2,2,2,3.4v6.4h3.1v-7.5c0-2.7-1.2-4.7-4.1-4.7c-1.6,0-2.9,0.5-3.9,1.9l0,0v-1.6h-2.9V103z M14.5,97.2c0,4.3,2.5,6.1,6.6,6.1
			c4.2,0,6.6-1.8,6.6-6.1V86.8h-3.2v9.3c0,2.8-0.9,4.6-3.4,4.6s-3.4-1.8-3.4-4.6v-9.3h-3.2C14.5,86.8,14.5,97.2,14.5,97.2z"/>
	</g>
	<g>
		<g>
			<path class="st0" d="M111.9,43c0,16.3-13.2,29.6-29.6,29.6S52.7,59.3,52.7,43V0h59.2V43z"/>
			<path class="st1" d="M74.3,27.8l-5.4-3.1l-5.4,3.1V43c0,10.4,8.4,18.8,18.8,18.8s18.8-8.4,18.8-18.8V12.4l5.4-3.1l-5.4-3.1
				l-5.4,3.1V43c0,7.4-6.1,13.4-13.5,13.4s-13.4-6-13.4-13.4V30.9L74.3,27.8z"/>
		</g>
		<path class="st1" d="M85,43c0,1.5-1.2,2.7-2.7,2.7s-2.7-1.2-2.7-2.7V24.7l5.4-3.1l-5.4-3.1l-5.4,3.1V43c0,4.5,3.6,8.1,8.1,8.1
			s8.1-3.6,8.1-8.1V18.6l5.4-3.1l-5.4-3.1L85,15.5V43z"/>
	</g>
</g>
</svg>
