<svg width="56" height="1016" viewBox="0 0 56 1016" fill="none" xmlns="http://www.w3.org/2000/svg">
<g clip-path="url(#clip0)">
<path d="M-2651.87 1071.97L147.001 1071.97L147.001 -13.1876L-2651.87 -13.1877L-2651.87 1071.97Z" fill="#302414"/>
<path d="M-1.40992 900.148C-9.71512 902.033 -15.688 907.689 -20.4853 913.967C-42.4239 932.329 -57.9914 956.31 -70.9991 980.686C-79.3802 1000.27 -100.883 1014.34 -103.594 1035.66C-102.191 1083.6 -54.1991 1030.48 -48.6054 1010.94C-36.3752 991.112 -22.6659 971.976 -9.58239 952.502C-1.06862 937.57 19.1824 912.968 -1.40992 900.148Z" stroke="#251803" stroke-width="2.69255" stroke-miterlimit="10"/>
<path d="M-2.09258 889.175C-11.5734 890.834 -18.0583 897.64 -24.0122 904.257C-44.87 924.053 -63.3576 945.828 -77.1048 970.525C-86.4529 991.263 -108.259 1004.72 -116.393 1025.88C-120.356 1041.43 -122.859 1083.62 -93.9807 1067.01C-69.3305 1055.42 -50.9377 1034.38 -40.3003 1011.02C-24.4483 976.953 12.3941 949.73 15.5797 911.591C15.7314 901.166 11.2564 888.647 -2.09258 889.175Z" stroke="#251803" stroke-width="2.69255" stroke-miterlimit="10"/>
<path d="M-24.714 893.06C-37.2098 908.858 -53.8012 921.452 -65.1782 938.023C-79.7407 957.611 -91.0039 979.311 -109.7 996.033C-122.822 1010.83 -136.246 1028.44 -135.109 1048.27C-135.109 1080.98 -129.761 1101.76 -93.3931 1075.18C-63.5285 1058.34 -42.6707 1033.25 -29.2459 1003.78C-17.5845 982.403 -0.708597 963.965 12.7731 943.547C32.8535 912.403 19.9406 852.621 -24.714 893.06Z" stroke="#251803" stroke-width="2.69255" stroke-miterlimit="10"/>
<path d="M-130.918 1119.56C-121.608 1110.45 -114.535 1099.57 -103.841 1091.67C-86.3579 1076.27 -65.576 1064.32 -49.4206 1047.56C-34.8391 1032.95 -29.4351 1012.85 -18.3236 996.127C-6.35876 977.783 9.39836 961.721 20.6237 943.038C30.4647 923.28 29.9149 899.583 22.1027 879.505C15.6747 866.704 -2.775 870.531 -14.4174 874.735C-28.5818 880.749 -34.7633 894.907 -45.0784 904.993C-57.8998 916.361 -69.2158 929.304 -78.7543 943.509C-93.2031 966.811 -114.781 984.646 -132.036 1005.84C-138.711 1015.56 -150.202 1023.14 -153.122 1034.55C-155.17 1046.46 -156.914 1058.79 -157.824 1070.88C-155.928 1081.4 -150.809 1091.3 -150.391 1102.12C-149.826 1107.92 -149.876 1113.76 -150.543 1119.56L-130.918 1119.56Z" stroke="#251803" stroke-width="2.69255" stroke-miterlimit="10"/>
<path d="M-118.65 1119.56C-97.7921 1089.39 -63.0733 1071.84 -38.1388 1045.28C-25.9844 1028.4 -20.0494 1008.27 -7.15548 991.753C4.2215 974.786 20.4527 960.703 29.3267 942.472C33.6604 930.531 35.5118 917.839 34.7687 905.165C34.0256 892.492 30.7035 880.1 25.0035 868.74C15.2951 854.299 -12.5027 864.064 -26.193 869.588C-35.4842 876.545 -40.3004 887.159 -47.43 895.793C-58.0295 907.256 -70.4115 917.229 -79.6648 929.728C-98.323 958.912 -126.803 980.197 -148.913 1006.85C-163.324 1018.41 -171.667 1033.25 -173.373 1050.72C-182.456 1072.88 -164.594 1091.88 -163.779 1113.54C-163.627 1115.54 -163.627 1117.54 -163.646 1119.54L-118.65 1119.56Z" stroke="#251803" stroke-width="2.69255" stroke-miterlimit="10"/>
<path d="M-111.843 1119.56C-92.881 1091.96 -62.2959 1074.74 -37.7027 1052.1C-23.8607 1035.57 -17.9257 1014.92 -5.46788 997.598C7.2933 978.406 26.2549 962.834 35.5082 941.794C43.3204 917.55 38.4473 889.987 30.8247 866.384C25.5913 858.371 17.6843 853.47 7.27434 855.355C-4.10264 856.957 -15.8399 858.107 -26.6101 862.066C-36.6977 868.08 -42.0069 877.469 -47.9419 886.745C-56.2851 899.941 -69.9754 909.217 -80.1767 921.151C-95.6304 939.626 -109.605 959.346 -129.686 973.938C-142.542 985.966 -152.439 1000.33 -165.997 1011.89C-180.977 1028.06 -185.167 1052.03 -183.973 1072.61C-181.47 1083.19 -175.971 1092.97 -173.79 1103.66C-172.479 1108.9 -171.579 1114.22 -171.098 1119.59L-111.843 1119.56Z" stroke="#251803" stroke-width="2.69255" stroke-miterlimit="10"/>
<path d="M-106.401 1119.55C-105.339 1119.46 -104.296 1119.39 -103.235 1119.29C-90.5861 1103.27 -75.6953 1089.14 -59.0161 1077.32C-44.9845 1066.84 -29.6066 1056.59 -22.1168 1040.96C-12.4463 1021.63 -2.32081 1002.56 12.2417 985.814C26.4061 968.998 43.1492 952.784 46.1641 930.746C43.9835 903.711 45.8607 872.302 29.7054 848.944C15.5979 841.836 -0.898678 848.944 -15.9732 849.773C-51.5831 852.62 -50.3127 888.101 -76.8969 906.991C-97.0721 924.826 -112.317 946.94 -134.711 962.701C-150.222 976.388 -161.883 993.355 -177.697 1006.82C-189.358 1023.1 -193.549 1043.6 -195.161 1062.73C-195.047 1080.25 -184.296 1095.69 -182.532 1113.07C-182.096 1115.22 -181.774 1117.39 -181.47 1119.55L-106.401 1119.55Z" stroke="#251803" stroke-width="2.69255" stroke-miterlimit="10"/>
<path d="M-106.306 1119.56C-102.627 1119.25 -98.9361 1118.95 -95.2322 1118.63C-74.3744 1087.53 -31.9573 1074.14 -15.7071 1040.54C-7.34505 1022.96 2.515 1006.08 15.6554 991.113C28.9286 975.541 44.9891 961.137 49.9949 941.134C54.925 920.265 47.9471 898.848 46.2026 877.94C43.1498 863.103 45.1787 843.61 28.7958 835.635C5.62472 840.537 -36.3753 838.765 -49.7812 857.617C-57.2141 871.003 -63.2819 885.161 -74.6589 896.322C-99.5555 920.51 -126.31 942.737 -153.236 964.851C-160.157 972.034 -165.504 980.423 -172.861 987.267C-180.218 994.11 -189.073 999.992 -191.595 1009.63C-210.102 1068.18 -204.129 1060.7 -190.837 1115.31L-190.192 1119.56L-106.306 1119.56Z" stroke="#251803" stroke-width="2.69255" stroke-miterlimit="10"/>
<path d="M-106.381 1119.56C-99.6687 1119.01 -92.9753 1118.44 -86.2629 1117.86C-67.3012 1091.46 -33.4357 1078.27 -14.8533 1052.1C-8.9942 1040.79 -3.79871 1029.18 2.8189 1018.17C20.586 989.17 56.6699 968.715 57.8076 932.688C55.6839 900.355 51.0004 867.778 46.7909 835.578C42.5435 808.807 23.2027 826.283 5.66315 829.488C-15.3653 835.144 -43.7698 832.165 -55.7915 852.79C-73.6913 897.754 -117.606 925.392 -158.184 952.144C-167.115 957.95 -172.481 967.226 -179.649 974.767C-184.693 979.574 -191.633 982.741 -195.33 988.699C-201.815 998.521 -201.493 1010 -203.522 1020.96C-205.664 1035.38 -212.054 1049.23 -212.244 1063.81C-212.244 1081.89 -200.867 1097.74 -199.767 1115.88L-199.198 1119.54L-106.381 1119.56Z" stroke="#251803" stroke-width="2.69255" stroke-miterlimit="10"/>
<path d="M74.626 651.859C58.5465 662.718 45.1975 678.818 51.1325 697.878C53.3321 711.924 51.4169 726.157 51.6634 740.127C53.1993 748.46 56.9917 757.585 58.793 765.258C61.7246 765.824 64.7541 765.615 67.5791 764.652C70.4041 763.69 72.9255 762.007 74.8914 759.772C87.6716 754.116 92.2413 740.052 102.443 731.493C112.644 722.934 126.77 717.07 128.42 703.383C130.942 678.083 108.245 623.203 74.626 651.859Z" stroke="#251803" stroke-width="2.69255" stroke-miterlimit="10"/>
<path d="M-106.382 1119.56C-96.4966 1118.74 -86.6112 1117.9 -76.7259 1117.03C-58.9589 1095.24 -33.1142 1081.21 -13.2613 1061.53C-4.29247 1047.39 0.675466 1031.36 10.5166 1017.69C21.7987 1001.09 38.2574 988.341 50.9238 972.788C69.8854 946.884 62.1681 916.23 58.8498 887.687C53.806 859.408 58.8498 828.998 49.6344 801.756C34.4651 801.756 22.6141 812.163 8.90483 816.838C-6.89021 822.89 -24.6004 822.268 -40.111 829.112C-72.3458 845.249 -67.8329 881.899 -103.993 905.125C-121.314 918.049 -139.71 929.483 -158.981 939.305C-177.279 945.734 -190.647 958.346 -202.593 972.128C-210.652 983.666 -209.476 997.711 -210.045 1010.76C-211.069 1025.39 -215.734 1039.43 -219.279 1053.65C-225.347 1075.59 -210.69 1094.97 -208.68 1116.41L-208.168 1119.48L-106.382 1119.56Z" stroke="#251803" stroke-width="2.69255" stroke-miterlimit="10"/>
<path d="M-106.344 1119.56C-93.1718 1118.46 -79.9935 1117.32 -66.8088 1116.14C-49.5727 1094.58 -22.1352 1082.57 -5.43003 1061.02C6.89159 1031.05 26.2159 1004.43 50.9429 983.364C82.4951 949.919 63.4955 905.446 62.3199 866.327C60.9926 837.859 60.4237 807.733 72.7867 781.056C87.3872 760.94 101.476 738.845 123.471 724.913C135.152 717.013 136.744 704.759 133.767 692.524C130.127 672.861 122.808 653.254 108.093 638.417C84.3913 618.244 30.9574 664.056 36.0391 688.282C41.1777 705.796 37.9353 723.537 35.4323 741.183C49.7484 780.547 22.0454 803.679 -18.4187 809.806C-85.6756 825.303 -58.2382 885.368 -143.566 921.942C-165.789 936.006 -194.914 938.664 -215.203 955.179C-220.569 961.834 -218.104 971.788 -218.995 979.688C-219.128 993.789 -215.999 1007.97 -218.71 1021.96C-220.872 1036.53 -227.641 1050.23 -229.12 1064.92C-230.087 1083.77 -219.488 1100.95 -216.454 1119.59L-106.344 1119.56Z" stroke="#251803" stroke-width="2.69255" stroke-miterlimit="10"/>
<path d="M-106.325 1119.56C-89.3227 1118.16 -72.3267 1116.66 -55.3371 1115.07C-40.5281 1097.05 -18.1533 1086.26 -2.33934 1069.39C6.4399 1056.19 10.7821 1040.88 19.751 1027.67C30.616 1010.7 47.2833 998.012 60.5943 982.742C90.2314 944.659 66.4156 897.792 68.179 855.373C68.0463 825.906 71.1749 793.838 90.8192 769.33C100.3 757.66 108.321 744.633 121.158 735.64C129.766 729.419 139.645 723.574 142.224 713.13C140.025 684.662 131.549 653.518 113.004 630.442C100.85 613.758 78.2666 626.427 61.9217 629.99C44.3821 635.872 38.5609 655.007 27.5063 667.695C17.2291 680.779 24.0173 695.729 23.9036 710.208C24.0363 721.161 20.1113 731.624 17.9686 742.257C16.7171 750.439 16.8309 759.225 13.2661 766.766C-4.50096 798.042 -29.9285 776.154 -67.0743 832.392C-77.5032 846.833 -83.2865 863.631 -94.2843 877.751C-118.726 906.671 -156.858 922.281 -193.738 932.858C-248.727 943.377 -233.235 961.4 -226.466 1001.31C-222.674 1023.43 -234.392 1044.16 -238.469 1065.52C-240.858 1084.21 -229.196 1101.12 -226.276 1119.56L-106.325 1119.56Z" stroke="#251803" stroke-width="2.69255" stroke-miterlimit="10"/>
<path d="M-106.363 1119.56C-85.5683 1117.83 -64.78 1115.95 -43.9981 1113.9C-30.0423 1096.78 -7.09874 1088.39 5.90894 1070.78C17.1153 1047.39 27.2977 1022.78 48.0417 1004.67C99.5036 963.191 75.9912 918.623 74.4932 865.534C73.09 835.483 75.6688 802.642 93.7961 776.587C122.807 728.212 162.854 737.789 144.291 691.845C137.332 667.204 132.023 640.811 116.323 619.639C103.239 600.409 79.4991 616.415 61.1632 619.168C41.007 623.24 34.2187 643.054 23.9415 657.344C-0.556952 685.227 16.9446 712.017 1.96494 743.35C-5.61972 763.127 -28.9994 770.875 -42.6897 786.391C-56.6644 807.242 -72.5732 827.226 -84.5191 849.246C-101.3 887.837 -141.404 910.818 -182.854 922.469C-203.921 928.578 -230.637 929.2 -242.299 949.466C-251.78 970.732 -232.42 990.81 -233.614 1012.36C-232.211 1037.87 -255.553 1062.22 -245.617 1087.15C-240.848 1097.43 -237.597 1108.35 -235.966 1119.56L-106.363 1119.56Z" stroke="#251803" stroke-width="2.69255" stroke-miterlimit="10"/>
<path d="M-106.382 1119.55C-81.4665 1117.51 -56.5635 1115.24 -31.6732 1112.75C-19.8222 1099.74 -2.605 1092.56 9.75798 1080.08C30.009 1040.49 32.7964 1025.63 68.7476 992.733C86.5905 971.392 91.5016 943.414 85.3201 917.643C82.3225 896.732 80.6002 875.66 80.1625 854.543C79.9729 828.62 84.8461 801.642 99.9395 779.245C108.87 766.652 119.375 754.567 132.402 745.424C144.575 737.581 158.853 727.57 156.161 712.168C145.485 683.889 131.511 604.707 105.23 592.34C93.5874 593.603 83.1206 601.766 71.7057 604.745C59.8736 607.894 47.3589 610.401 38.2763 618.677C25.8375 638.925 12.0903 659.06 0.978755 679.967C-4.70974 697.425 -2.81357 716.315 -9.69664 733.528C-16.447 748.798 -33.3228 757.263 -43.8276 770.14C-52.3793 781.3 -57.1007 794.082 -64.4768 805.828C-74.4127 822.569 -86.9843 837.877 -95.517 855.391C-114.896 890.193 -155 909.819 -194.667 918.661C-221.365 921.922 -250.585 933.743 -256.008 960.928C-258.492 979.366 -241.085 994.147 -242.413 1012.91C-241.01 1035.53 -257.089 1055.3 -258.322 1077.38C-254.908 1091.67 -247.532 1105 -245.238 1119.55L-106.382 1119.55Z" stroke="#251803" stroke-width="2.69255" stroke-miterlimit="10"/>
<path d="M-106.344 1119.55C-76.4098 1117.04 -46.5136 1114.26 -16.6553 1111.2C4.46792 1096.12 23.7898 1084.47 30.104 1058.72C38.7126 1032.32 59.5515 1012.62 78.3614 992.167C90.0607 972.843 98.1384 949.768 93.0567 927.767C88.8372 901.767 86.7697 875.468 86.8752 849.132C89.1506 789.35 114.104 769.781 159.745 733.792C170.477 715.938 156.578 698.085 151.876 680.778C145.049 656.383 140.063 631.554 129.558 608.214C122.959 591.511 117.669 574.128 117.84 556.105C118.029 545.503 116.837 534.92 114.294 524.621C113.668 522.114 114.787 517.08 111.999 517.193C96.8301 529.259 103.182 552.071 95.7492 568.096C74.8914 601.748 40.2106 584.177 26.4824 612.946C20.6422 633.684 8.18441 651.877 -4.27338 669.787C-13.7542 686.754 -17.319 705.758 -23.5763 723.837C-31.8815 739.787 -45.7614 752.305 -54.4459 768.122C-62.4287 786.975 -70.1082 806.224 -83.1727 822.795C-110.212 866.778 -128.131 893.323 -183.764 908.989C-225.101 916.531 -250.301 921.753 -268.03 961.626C-275.937 977.368 -257.278 988.51 -254.472 1003.1C-247.02 1025.27 -259.838 1046.46 -266.759 1067.33C-271.177 1085.58 -258.549 1101.78 -255.269 1119.54L-106.344 1119.55Z" stroke="#251803" stroke-width="2.69255" stroke-miterlimit="10"/>
<path d="M52.3845 293.281C45.8807 302.707 54.1479 316.847 50.8486 327.838C48.7818 342.185 54.9633 355.683 56.6319 369.747C58.5281 380.154 58.0351 391.164 61.9222 401.137C67.0608 412.448 81.6233 423.232 94.157 413.561C96.6978 405.454 98.8784 396.386 101.419 387.996C105.477 370.407 107.013 352.365 109.876 334.587C112.929 319.656 100.244 310.474 87.6152 304.309C76.0486 300.313 65.3543 291.471 52.3845 293.281Z" stroke="#251803" stroke-width="2.69255" stroke-miterlimit="10"/>
<path d="M-106.325 1119.56C-70.5061 1116.61 -34.7445 1113.28 0.941301 1109.3C25.7621 1094.22 33.9914 1071.48 43.8894 1047.26C53.6926 1025.67 73.4127 1010.55 87.2357 991.584C94.0998 974.503 103.069 956.273 100.926 937.835C95.7723 910.098 93.2771 881.938 93.4741 853.733C92.6777 804.132 118.579 770.895 161.489 743.596C181.096 724.517 164.258 700.725 157.147 680.402C150.321 660.738 148.956 639.718 141.257 620.318C128.439 593.114 128.667 563.459 127.738 534.275C124.344 509.05 113.801 484.787 108.454 460.109C104.813 461.522 100.168 462.786 97.3612 465.387C85.0931 494.42 93.0949 562.064 58.3192 573.13C6.81943 580.294 23.3161 602.521 7.12282 637.229C-1.73227 652.123 -13.6023 665.32 -20.2388 681.344C-30.3264 703.477 -39.0867 725.95 -52.0754 746.839C-65.0641 767.727 -67.8136 792.405 -82.7932 812.276C-115.142 859.408 -131.809 890.383 -195.444 905.144C-225.005 908.915 -246.641 916.456 -263.991 940.304C-272.315 950.636 -280.487 961.419 -285.19 973.391C-284.583 976.954 -282.175 980.31 -280.848 983.684C-245.503 1017.36 -272.125 1041.52 -276.752 1078.57C-274.969 1092.65 -268.314 1105.7 -265.489 1119.56L-106.325 1119.56Z" stroke="#251803" stroke-width="2.69255" stroke-miterlimit="10"/>
<path d="M57.7696 1041.02C66.6057 1027.39 77.357 1016.17 88.1082 1003.8C95.4941 994.344 100.734 983.411 103.467 971.751C105.275 964.795 106.311 957.664 106.558 950.485C106.812 943.407 106.68 936.32 106.16 929.257C104.264 904.899 98.8595 881.315 100.016 856.976C100.395 844.59 100.395 832.222 104.245 819.855C113.839 788.145 140.272 769.217 166.059 749.497C178.745 739.448 179.124 722.82 176.052 708.511C162.988 689.187 159.537 665.979 154.55 642.791C153.628 638.608 152.476 634.48 151.099 630.423C148.165 623.449 145.972 616.189 144.557 608.762C141.504 597.45 138.413 587.439 136.119 576.222C135.74 574.676 136.119 572.734 135.74 571.188C134.583 553.806 138.812 536.782 134.204 519.777C134.204 519.381 133.427 518.608 133.427 518.231L132.27 512.424C127.662 496.965 123.055 481.506 122.296 465.651C117.309 445.931 108.852 427.38 108.852 406.887C108.982 385.174 111.429 363.535 116.152 342.336C120.76 329.572 123.055 312.567 110.767 303.669C108.094 301.784 105.079 302.123 102.329 301.35C98.5371 299.804 95.4085 295.939 91.5782 293.997C88.4315 292.797 85.2224 291.765 81.9647 290.906C78.5137 289.36 76.2762 285.891 72.7493 284.345C67.7624 282.46 63.534 279.707 58.1678 278.934C53.5601 278.538 49.3317 277.765 45.1033 280.084C42.1303 281.931 39.7541 284.589 38.258 287.741C36.762 290.893 36.2091 294.406 36.6653 297.862C38.5615 314.83 40.8938 330.722 42.8089 347.746C43.1881 353.534 45.8807 358.945 46.6012 364.714C47.7579 374.762 48.1371 384.811 49.2938 394.878C49.673 397.97 50.4504 401.081 50.8297 404.172C50.7672 406.755 50.8939 409.338 51.2089 411.902C52.2578 418.629 55.1883 424.926 59.6658 430.076C64.2735 435.091 69.2604 439.351 72.7114 445.535C73.1096 446.308 73.4888 447.42 73.868 448.231C77.6604 460.994 72.3322 473.758 67.3452 485.352C67.6643 495.443 66.2339 505.512 63.1168 515.12C62.2466 517.132 61.2195 519.074 60.045 520.927C51.9863 536.386 36.6274 544.493 24.3402 556.879C19.6085 561.608 15.7112 567.096 12.8116 573.111C9.70456 580.717 7.39174 588.62 5.90955 596.696C5.90955 597.073 5.13211 597.846 5.13211 598.242C3.59622 605.198 2.45852 611.439 0.922629 618.339C0.922629 618.735 0.145209 619.508 0.145209 619.885C-2.22262 630.861 -6.79527 641.249 -13.2986 650.426C-15.1948 653.141 -17.0909 654.687 -18.6647 657.383L-26.7234 672.465C-36.337 691.412 -45.1541 709.586 -53.611 728.91C-53.9903 729.683 -53.611 730.06 -53.9903 730.795C-56.3036 735.829 -58.5979 740.862 -60.9113 746.273C-64.7036 756.698 -68.97 766.37 -72.421 776.814C-74.3171 782.225 -76.2133 787.636 -77.8061 793.046C-81.5984 798.457 -84.3289 804.641 -88.5573 809.674C-110.06 846.399 -139.242 881.578 -182.247 893.569C-195.691 897.339 -208.357 900.129 -221.801 903.221C-230.512 905.375 -238.995 908.355 -247.133 912.12C-254.262 918.615 -260.921 925.601 -267.062 933.027C-267.441 933.423 -268.219 933.8 -268.598 934.196C-272.826 939.607 -277.055 944.622 -281.264 950.051C-281.663 950.428 -282.421 950.824 -282.8 951.201C-285.791 955.147 -289 958.923 -292.414 962.513C-293.172 963.286 -293.552 964.398 -294.31 965.209C-296.544 967.078 -298.601 969.148 -300.454 971.392C-301.989 973.711 -303.146 976.03 -302.35 978.745C-301.311 982.017 -299.615 985.044 -297.363 987.643C-291.674 994.204 -285.076 999.615 -279.691 1006.59C-278.553 1008.48 -277.794 1010.06 -276.619 1012C-272.409 1021.28 -273.168 1031.33 -275.747 1041.07" stroke="#251803" stroke-width="2.69255" stroke-miterlimit="10"/>
<path d="M69.4497 1041.13C79.0322 1029.81 87.8076 1017.84 95.7116 1005.31C102.427 993.853 107.02 981.293 109.269 968.224C114.275 960.89 114.654 951.257 114.275 942.717C113.118 927.257 110.805 912.175 108.89 896.32C106.915 881.071 106.281 865.679 106.994 850.32C107.531 839.077 109.841 827.989 113.839 817.459C116.403 811.475 119.354 805.663 122.675 800.058C124.571 796.967 126.903 794.648 128.819 791.556C131.511 788.068 134.507 786.145 137.276 782.657C137.655 782.28 138.413 782.28 138.811 781.884L141.106 779.566C158.778 766.369 179.882 755.981 183.732 732.792C185.313 721.891 183.713 710.767 179.124 700.743C178.745 699.97 179.124 699.574 178.745 698.857C170.667 677.215 156.465 656.722 158.38 632.76C153.188 619.299 149.581 605.286 147.629 591.001C144.178 567.04 143.836 544.228 141.485 520.247C141.017 515.505 139.986 510.835 138.413 506.334C137.276 501.319 136.517 496.286 135.341 491.252C135.341 490.856 134.583 490.083 134.583 489.687C131.132 473.851 128.439 458.769 125.368 443.31C113.839 413.145 117.309 380.681 123.471 348.198C126.145 335.435 129.16 323.463 127.264 310.7C126.784 306.799 125.33 303.079 123.035 299.879C118.447 293.921 111.545 291.678 105.003 289.755C98.1008 287.436 91.1798 285.984 84.657 282.402L68.5396 274.277C63.6306 271.438 58.3182 269.353 52.7825 268.093C48.9902 267.716 44.7238 265.774 41.2728 268.489C35.5849 272.921 31.4236 279.002 29.3649 285.89C28.0981 290.279 27.579 294.848 27.829 299.407C27.3928 303.019 27.5207 306.675 28.2082 310.248C30.9008 324.161 34.3518 336.528 36.2859 350.064C37.0443 358.171 38.182 366.297 38.9594 374.422C39.3576 379.437 39.3576 384.848 39.7369 389.881C39.9818 399.697 39.4683 409.516 38.201 419.254C37.0443 426.21 35.5084 432.45 35.8877 439.369C36.3562 445.501 37.3844 451.578 38.9594 457.525C40.4953 462.558 42.4294 467.592 44.3445 472.607C45.5956 475.988 46.4978 479.488 47.0371 483.051C47.9065 490.606 46.5909 498.252 43.2448 505.09C40.5059 510.594 37.1608 515.779 33.2709 520.549C28.2651 526.356 24.0556 531.37 18.6705 536.781C16.3761 539.496 14.0628 542.588 11.7685 545.284C2.15491 556.897 -2.05457 570.414 -4.74713 585.119C-8.19814 603.972 -9.73405 622.617 -19.3476 639.226C-36.2424 663.207 -48.5295 689.883 -58.5034 717.333C-59.2808 719.218 -60.0393 720.802 -60.8167 722.348C-66.1828 737.43 -71.1697 752.512 -76.5548 767.594C-84.1395 806.242 -114.194 833.315 -138.768 861.537C-149.158 868.417 -160.068 874.487 -171.401 879.692C-173.643 880.427 -175.824 881.335 -177.924 882.407C-198.796 889.908 -220.241 895.727 -242.052 899.808C-249.352 903.277 -255.098 909.083 -261.639 914.494C-263.536 916.04 -264.711 917.982 -266.626 919.528C-278.136 931.895 -287.75 944.64 -298.861 957.799C-302.312 961.663 -306.541 964.755 -309.612 968.997C-313.063 973.635 -317.292 977.896 -316.533 984.079C-315.417 989.333 -313.043 994.241 -309.612 998.388C-306.541 1001.86 -302.312 1003.4 -298.861 1006.51L-296.548 1008.83C-291.836 1013.56 -288.749 1019.64 -287.731 1026.21C-287.454 1031.21 -287.606 1036.22 -288.186 1041.18" stroke="#251803" stroke-width="2.69255" stroke-miterlimit="10"/>
<path d="M78.6085 1041.18C83.5007 1034.34 88.8858 1028.16 94.6501 1021.58C97.7219 1018.49 100.794 1015.39 103.865 1011.93C109.434 999.44 113.433 986.32 115.773 972.862C118.75 951.22 118.447 930.35 116.854 909.084C115.318 893.229 113.062 878.147 113.782 862.31C113.869 850.719 115.288 839.175 118.011 827.904C119.97 821.499 122.509 815.284 125.595 809.334C128.359 804.538 131.716 800.104 135.588 796.138C143.647 788.012 152.085 781.055 160.921 773.326C164.713 769.857 167.842 766.765 171.293 763.277C176.982 756.698 182.424 750.08 187.41 743.18C193.099 730.794 191.639 716.881 186.652 704.514C183.201 696.388 178.195 689.431 175.123 681.325C173.065 675.792 171.399 670.122 170.136 664.357C170.136 663.98 169.378 663.207 169.378 662.812C166.685 650.84 164.77 640 162.457 628.028C162.078 625.71 160.921 623.391 160.561 621.072C159.486 613.223 157.819 605.465 155.574 597.864C153.261 587.816 150.966 578.54 150.568 568.492C150.189 559.593 151.345 551.091 150.966 542.192C151.222 538.581 151.088 534.954 150.568 531.371C140.594 489.612 132.137 449.795 125.235 408.829C120.248 395.292 123.339 380.983 125.994 366.674C128.307 351.592 132.535 338.075 134.451 323.313C135.607 312.869 135.986 301.651 129.464 292.376C128.744 291.541 128.108 290.638 127.568 289.68C125.201 287.076 122.331 284.973 119.13 283.496C118.352 283.1 117.233 282.723 116.437 282.327C105.781 279.311 95.0294 276.954 84.6194 272.731C83.861 272.354 83.4628 272.731 82.7233 272.354C76.2005 269.639 70.0569 267.716 63.9133 263.852C58.235 259.798 51.2936 257.88 44.326 258.441C40.8926 259.11 37.5422 260.147 34.3332 261.533C32.906 262.348 31.6246 263.393 30.5408 264.625C27.7109 266.937 25.4533 269.866 23.9422 273.184C23.544 273.957 23.1648 275.069 22.7855 275.88C20.9883 281.654 19.9557 287.637 19.7137 293.677C19.3345 324.218 28.9291 353.59 32.3801 384.169C32.6326 389.714 32.5059 395.27 32.0009 400.797C32.0009 401.966 31.2235 403.512 31.2235 404.662C30.0858 416.652 27.4311 427.851 26.2365 439.841C26.0469 442.804 26.0469 445.776 26.2365 448.74C28.5945 460.835 29.6244 473.148 29.3083 485.465C28.5499 497.832 23.9422 508.653 17.0212 519.399C8.18507 533.332 -1.40952 544.53 -9.5251 558.462C-14.6044 567.964 -18.3495 578.113 -20.6556 588.626C-22.1772 594.998 -23.3357 601.449 -24.1256 607.95C-25.433 614.426 -27.3372 620.769 -29.814 626.897C-34.0425 636.569 -38.2709 645.467 -42.8786 654.743C-47.4863 663.245 -51.7148 671.71 -55.9242 680.646C-57.6958 684.543 -59.2344 688.54 -60.5319 692.618C-67.4529 718.144 -72.4398 742.879 -82.4326 766.859C-82.8118 767.632 -82.4326 768.009 -82.8118 768.745C-86.6042 777.247 -90.1121 785.712 -94.3216 794.271C-97.7915 800.832 -101.243 807.016 -105.471 813.595C-120.052 835.238 -136.568 852.639 -159.227 865.402L-160.384 866.552C-170.156 872.256 -180.439 877.047 -191.102 880.861C-204.819 883.088 -218.403 886.059 -231.793 889.76C-239.378 891.645 -247.152 892.852 -254.073 897.489C-254.898 898.206 -255.794 898.837 -256.747 899.375C-260.751 902.304 -264.145 905.98 -266.74 910.196C-268.636 912.911 -270.532 914.834 -272.428 917.549C-277.794 925.278 -282.781 931.858 -288.925 939.191C-293.931 944.998 -298.14 950.409 -303.904 955.047C-305.801 956.592 -306.976 958.138 -308.91 959.684C-309.29 960.08 -310.048 960.08 -310.446 960.457C-314.908 964.386 -318.897 968.814 -322.335 973.654C-325.407 979.084 -327.341 984.494 -326.564 990.622C-325.028 1000.27 -318.126 1007.25 -311.982 1014.21C-311.205 1014.98 -311.205 1016.09 -310.446 1016.9L-309.29 1018.07C-304.682 1025.03 -303.146 1032.76 -302.539 1040.98" stroke="#251803" stroke-width="2.69255" stroke-miterlimit="10"/>
<path d="M90.572 1041.13C93.8713 1037.83 96.9431 1034.34 100.792 1030.85C102.573 1028.89 104.238 1026.82 105.779 1024.67C106.974 1023.98 108.019 1023.07 108.851 1021.97L111.164 1018.49C113.06 1013.47 113.838 1008.06 115.374 1002.63C119.981 984.475 122.674 967.847 126.125 949.296C127.282 944.263 126.125 939.625 125.746 934.591C122.295 894.002 113.459 851.093 133.425 812.822C134.155 811.989 134.791 811.079 135.321 810.107C137.635 807.411 139.929 805.092 142.242 802.378C160.294 783.431 182.176 769.14 194.084 745.16C196.106 740.49 197.386 735.535 197.876 730.474C198.066 727.385 198.066 724.287 197.876 721.198C197.294 717.81 196.528 714.456 195.582 711.15C192.889 703.797 188.661 697.613 184.432 691.034C179.824 683.304 177.53 675.198 174.838 666.676C171.143 654.127 169.335 641.103 169.471 628.028C165.679 612.569 162.171 597.091 159.858 581.632C160.256 556.124 156.407 531.371 151.42 505.467C144.897 471.834 136.819 440.916 133.368 407.66C133.298 406.471 133.042 405.301 132.61 404.191L132.61 400.326C131.523 391.735 131.01 383.081 131.074 374.422C135.814 346.973 143.02 320.315 139.948 292.036C139.569 287.398 136.497 283.534 133.046 280.442C127.358 275.785 120.759 273.862 113.838 271.92C104.623 270.035 95.7865 269.224 87.2917 266.133C66.9458 258.403 48.1169 245.64 26.2352 243.321C22.4429 248.732 22.7842 255.688 20.8691 261.872C20.4591 262.298 20.1881 262.836 20.0917 263.418C19.7124 264.587 19.7124 266.133 19.3332 267.188C15.5409 279.179 9.71963 290.773 8.96117 303.536C10.8573 323.633 17.3991 342.58 21.2483 363.073C22.2317 368.57 22.865 374.124 23.1445 379.701C22.7652 400.571 20.4519 421.064 19.6934 441.915C19.3142 450.813 18.5368 459.712 17.7973 468.591C17.0574 474.761 15.943 480.88 14.46 486.916C14.46 487.293 13.7016 488.066 13.7016 488.462C10.8528 499.771 6.59792 510.683 1.03519 520.945C-6.8076 535.125 -15.5277 548.806 -25.075 561.912C-30.7635 570.037 -32.6596 578.879 -36.2244 587.816C-38.5188 594.395 -39.6754 600.579 -41.5906 607.535C-43.0177 612.892 -44.0695 618.341 -44.7382 623.843C-45.3241 626.6 -46.0969 629.315 -47.0515 631.968C-62.0123 667.525 -79.6845 703.1 -79.6845 742.143C-82.377 752.588 -84.2922 763.013 -88.8998 773.081C-89.2791 773.854 -88.8998 774.231 -89.2791 774.966C-108.866 820.966 -148.06 856.541 -194.876 873.169C-196.033 873.546 -197.19 874.319 -198.327 874.715C-209.733 878.367 -221.421 881.078 -233.274 882.822C-242.11 883.595 -250.946 884.368 -258.227 890.174C-269.377 899.073 -275.899 910.667 -283.958 922.658C-287.751 927.672 -291.638 931.537 -295.487 936.571C-296.245 937.344 -297.383 938.117 -298.16 938.89C-306.238 948.561 -314.676 956.668 -323.133 965.943C-327.824 970.397 -331.491 975.805 -333.884 981.798C-334.695 984.463 -335.329 987.177 -335.78 989.924C-336.558 1005.38 -326.565 1018.52 -320.801 1032.44C-320.595 1033.65 -320.212 1034.82 -319.663 1035.92C-319.353 1036.5 -319.215 1037.16 -319.265 1037.81C-318.885 1038.19 -318.885 1038.96 -318.506 1039.36C-318.506 1040.13 -318.127 1040.51 -318.108 1041.13" stroke="#251803" stroke-width="2.69255" stroke-miterlimit="10"/>
<path d="M105.174 1041.19C110.009 1035.89 115.773 1030.48 118.75 1023.52C120.962 1017.97 122.243 1012.09 122.542 1006.12C122.542 997.617 122.163 989.152 124.856 980.612C127.529 972.486 128.648 963.984 130.544 955.481L131.701 944.641C132.478 930.351 129.805 916.362 128.25 902.128C127.871 874.283 129.008 845.683 139.38 819.384C142.831 811.277 148.975 805.47 155.118 799.287C165.49 789.615 176.621 782.319 186.235 771.837C186.614 771.46 186.614 770.687 186.993 770.291C193.615 763.211 198.827 754.945 202.352 745.934C204.229 741.098 205.391 736.018 205.803 730.852C206.58 722.349 204.267 714.619 200.816 706.89C195.45 695.673 188.908 685.247 183.542 673.653C183.163 672.88 183.542 672.484 183.163 671.767C181.048 667.471 179.499 662.921 178.555 658.231C176.101 648.034 174.202 637.713 172.867 627.313C167.88 588.269 168.638 551.148 159.423 512.481C149.973 471.56 142.92 430.127 138.3 388.393C137.795 384.291 137.668 380.151 137.92 376.026C138.3 371.765 138.698 367.504 139.456 362.829C141.769 349.632 144.443 337.698 145.979 324.558C147.875 307.157 151.364 288.229 139.835 272.751C138.718 271.817 137.689 270.782 136.764 269.659C135.189 268.494 133.521 267.46 131.777 266.567C129.677 265.707 127.49 265.075 125.254 264.682C116.797 263.513 108.738 263.136 100.281 260.817C78.0205 254.633 58.8124 244.189 38.0873 234.914C33.8624 232.994 29.5396 231.295 25.1365 229.823C23.8606 229.596 22.5453 229.772 21.3753 230.327C20.2053 230.881 19.2395 231.787 18.6137 232.915C17.9355 234.271 17.42 235.701 17.0778 237.176C14.006 249.166 12.0909 260.365 9.77757 272.732C7.89229 280.201 5.58801 287.558 2.87554 294.771C-1.35291 306.082 0.182988 317.978 3.634 329.573C3.9727 332.05 4.48592 334.501 5.16989 336.906C5.91383 338.643 6.43003 340.468 6.70578 342.336C7.12189 342.757 7.39392 343.298 7.48321 343.882C7.86245 345.032 7.86245 346.578 8.24168 347.747C8.65779 348.168 8.92981 348.709 9.0191 349.293C9.83231 352.345 10.4654 355.442 10.9153 358.568C11.8908 362.107 12.5257 365.731 12.8114 369.39L12.8114 381.38C11.6737 404.965 14.3473 428.153 12.4322 451.738C11.7351 460.314 10.4682 468.836 8.63987 477.246C5.56808 488.84 2.0981 499.68 -4.04547 510.106C-12.1042 523.303 -21.3195 533.691 -30.5918 546.058C-36.4253 553.837 -41.0528 562.441 -44.32 571.584C-47.771 584.348 -50.4636 596.319 -53.5353 609.082C-60.8356 636.136 -69.2735 661.662 -81.1814 686.378C-81.9399 694.881 -82.7173 703.346 -83.4758 712.282C-83.4758 713.451 -84.2532 714.601 -84.2532 715.77C-88.0455 757.905 -101.527 801.587 -135.715 828.263C-142.238 830.582 -146.466 836.766 -151.832 841.46C-154.782 843.88 -158.001 845.954 -161.427 847.644C-164.12 849.529 -165.656 852.282 -168.348 854.223C-169.386 854.625 -170.31 855.272 -171.041 856.109C-191.766 868.476 -214.804 870.022 -238.222 873.491C-242.925 874.241 -247.551 875.408 -252.045 876.979C-257.212 878.688 -262.029 881.306 -266.266 884.708C-268.132 886.598 -269.803 888.67 -271.253 890.892C-286.233 916.795 -304.663 937.665 -324.345 960.1L-327.796 964.738C-328.176 965.115 -328.953 965.511 -329.332 965.888C-339.306 977.105 -348.92 991.018 -344.312 1006.5C-340.842 1018.47 -335.476 1029.29 -330.773 1040.96" stroke="#251803" stroke-width="2.69255" stroke-miterlimit="10"/>
<path d="M122.543 1041.19C131.569 1023.9 130.791 1004.18 130.791 985.249C133.484 971.317 136.48 958.177 138.869 943.773C139.248 939.532 139.248 935.667 139.627 931.406C140.405 906.275 135.835 881.918 138.869 856.41C139.627 851.376 140.765 847.135 141.941 842.101C142.794 838.491 144.067 834.993 145.733 831.675C148.174 824.897 151.815 818.608 156.484 813.106C165.32 804.603 173.758 796.873 182.215 787.975C183.372 786.429 184.51 785.279 185.666 783.733C186.046 783.337 186.823 782.96 187.202 782.564C197.298 771.678 204.985 758.807 209.767 744.784C211.663 737.054 214.374 729.701 213.995 721.576C213.443 715.429 211.498 709.487 208.307 704.194C202.163 694.126 194.863 686.02 190.255 675.575L189.098 672.088C178.745 626.087 174.896 582.029 173.36 536.349C172.688 533.274 171.657 530.287 170.288 527.45C155.309 481.054 150.322 434.28 146.093 386.338C144.197 367.391 147.629 349.613 151.099 330.666C153.773 315.584 156.788 301.294 154.892 286.212C153.735 278.105 151.099 269.979 144.918 264.173C130.317 250.259 109.592 248.714 90.7634 248.337C82.2687 246.198 73.9313 243.483 65.8099 240.211C65.0324 239.815 64.6532 240.211 63.9137 239.815L59.306 237.496C58.5286 237.119 58.1494 237.496 57.4099 237.119C55.2902 236.236 53.237 235.203 51.2663 234.027C42.4491 228.994 35.5281 222.037 25.9336 218.945C20.9466 217.399 14.0257 217.06 10.1954 221.264C5.58773 234.461 6.40308 248.337 5.18953 261.854C4.05184 271.902 2.51594 281.574 -4.02582 290.472C-5.16352 292.791 -4.78429 295.487 -5.92199 297.806C-12.0845 307.119 -10.9468 318.431 -6.39603 327.631C-4.10167 337.302 -1.78836 346.578 0.126763 356.626C1.28342 363.979 2.02293 370.935 3.19855 378.288L3.19855 381.757C6.99088 416.559 3.97598 449.796 -3.70349 484.598C-4.10168 485.748 -4.48091 486.483 -4.86015 487.69C-10.2453 510.106 -28.2778 524.038 -43.2575 539.874C-53.6295 550.695 -57.4597 564.628 -59.3938 578.918C-60.9297 591.681 -61.29 603.275 -64.0015 616.039C-67.7938 631.121 -73.5961 644.657 -79.3604 658.57C-82.4322 665.131 -84.7265 670.938 -89.3342 677.121C-91.6977 680.573 -93.1516 684.56 -93.5627 688.716C-93.5627 701.913 -92.7853 714.619 -93.5627 727.76C-94.4924 738.987 -96.3957 750.114 -99.2512 761.016C-101.609 769.368 -104.957 777.411 -109.225 784.977C-110.521 786.958 -111.68 789.024 -112.695 791.161L-113.833 792.33C-116.525 797.364 -120.374 801.228 -123.825 805.866C-128.433 812.427 -134.577 817.461 -140.341 822.475C-147.243 828.282 -152.628 834.089 -159.53 839.443C-162.571 841.849 -165.777 844.041 -169.125 846.003C-173.353 848.322 -176.709 850.264 -181.033 852.187C-185.299 853.974 -189.661 855.528 -194.097 856.844C-208.3 860.709 -221.743 861.482 -236.325 864.177C-243.246 865.346 -250.148 866.063 -256.671 869.211C-257.448 869.588 -257.827 869.211 -258.567 869.588C-262.24 871.416 -265.71 873.621 -268.92 876.168C-273.926 880.41 -276.997 885.839 -280.449 891.25C-289.664 905.936 -298.5 919.849 -307.715 933.763C-315.395 942.265 -322.297 950.73 -330.754 958.893C-333.048 961.608 -335.361 964.304 -338.054 967.019C-347.269 977.84 -355.707 989.83 -356.485 1004.12C-356.864 1017.32 -350.341 1029.25 -344.691 1040.94" stroke="#251803" stroke-width="2.69255" stroke-miterlimit="10"/>
<path d="M-358.041 1041.15C-363.066 1028.93 -367.674 1016.17 -365.36 1002.25C-364.191 995.703 -361.568 989.495 -357.681 984.08C-348.864 970.883 -338.492 961.268 -328.499 949.673C-317.748 936.91 -307.394 925.316 -298.558 911.007C-297.781 909.461 -297.022 907.538 -296.245 905.992C-293.173 900.958 -291.258 896.32 -288.566 891.306C-284.708 883.277 -280.079 875.637 -274.743 868.494C-273.689 867.588 -272.53 866.809 -271.292 866.175C-268.599 865.006 -266.305 863.856 -263.991 862.687C-263.233 862.31 -262.835 862.687 -262.095 862.31C-251.003 857.616 -238.659 856.127 -226.352 855.354C-224.577 855.026 -222.772 854.893 -220.967 854.958C-215.798 854.553 -210.665 853.778 -205.608 852.639C-192.998 850.237 -180.991 845.374 -170.283 838.33C-169.306 837.652 -168.404 836.875 -167.59 836.011C-161.299 832.178 -155.388 827.759 -149.937 822.814C-144.552 817.78 -139.186 813.143 -134.199 808.128L-124.984 797.683C-122.291 793.819 -119.598 790.331 -117.399 786.466C-115.503 782.601 -113.607 779.509 -111.71 775.645C-109.258 770.258 -107.205 764.7 -105.567 759.017C-101.611 745.334 -99.9262 731.102 -100.58 716.881C-101.04 709.515 -101.882 702.178 -103.102 694.899C-103.879 688.715 -100.807 683.7 -99.3095 677.931C-88.5391 661.015 -80.2395 642.665 -74.6593 623.428C-72.7632 615.699 -71.1894 608.346 -69.6535 600.616C-67.6989 584.841 -66.6732 568.965 -66.5817 553.07C-66.2024 549.959 -64.2873 547.263 -62.7894 544.172C-59.5195 539.655 -55.4912 535.733 -50.8814 532.577C-50.123 531.804 -49.3455 530.692 -48.5871 529.862C-42.9253 524.87 -37.5387 519.577 -32.4507 514.007C-32.0715 513.63 -32.0715 512.857 -31.6923 512.461C-30.0631 510.877 -28.5248 509.203 -27.0846 507.447C-24.3334 503.731 -21.8009 499.859 -19.4999 495.852C-17.1866 491.592 -15.2715 487.331 -13.3564 483.089C-9.30958 471.841 -6.59864 460.161 -5.27871 448.287L-5.27871 444.743C-3.61859 431.137 -3.4914 417.39 -4.89948 403.757C-6.43537 386.356 -8.35049 369.822 -10.588 352.346C-10.9672 345.766 -13.6598 339.978 -15.9541 333.776C-18.6467 325.273 -20.96 315.998 -17.8503 307.099C-7.09902 287.398 -2.09315 265.737 -1.33469 243.321C-0.955454 230.124 -1.71391 216.644 -1.71391 203.504C-1.71892 203.049 -1.63348 202.598 -1.46253 202.177C-1.29157 201.755 -1.03847 201.371 -0.717758 201.047C-0.397051 200.723 -0.0150852 200.465 0.406208 200.288C0.827502 200.111 1.27981 200.019 1.7371 200.016C10.194 199.639 17.8735 204.277 25.1547 208.142C41.6703 217.04 56.2708 228.239 73.5448 235.968C76.3879 237.001 79.3618 237.636 82.3809 237.854C93.8907 239.739 104.263 240.55 115.791 242.095C130.752 244.414 146.509 248.298 154.568 262.588C154.868 263.046 155.002 263.591 154.947 264.134C155.372 265.085 155.887 265.994 156.483 266.849C157.297 268.98 157.932 271.174 158.379 273.41L158.379 275.295C159.524 279.711 159.915 284.287 159.536 288.831C155.307 334.436 152.634 379.682 156.085 425.287L157.241 438.823C157.241 439.992 158 441.538 158 442.688C159.911 460.906 162.989 478.985 167.215 496.814C170.287 508.408 173.359 518.853 177.208 530.07C178.466 532.103 179.226 534.402 179.427 536.781C182.119 563.458 181.323 590.134 184.034 616.811C186.746 643.487 190.557 671.71 207.073 693.353C212.761 703.42 220.137 713.469 221.009 725.402" stroke="#251803" stroke-width="2.69255" stroke-miterlimit="10"/>
<path d="M-93.9796 -45.5767C-85.8261 1.7058 -66.618 46.5751 -33.985 82.9231C-33.0901 83.9889 -32.3203 85.1527 -31.6906 86.392C-26.0021 103.02 -19.7827 118.875 -14.3976 135.88C-13.259 140.323 -12.4853 144.849 -12.0843 149.416C-11.5965 154 -10.3134 158.465 -8.29197 162.613C-6.75608 165.328 -4.84095 168.024 -2.92582 170.739L-0.612516 173.058C0.923377 175.377 2.8385 177.3 4.37439 179.618C7.82541 183.389 11.959 186.971 15.5049 190.93C18.5767 193.645 21.6484 195.964 24.7202 199.055C25.5299 199.709 26.4387 200.231 27.4128 200.601L29.7071 202.92C32.7789 205.239 35.3956 207.162 38.5433 209.481C65.4309 227.278 94.992 234.235 125.767 233.839C128.512 233.977 131.225 234.497 133.825 235.385L138.433 237.703C145.803 241.45 151.937 247.221 156.105 254.331L157.262 255.5C167.236 271.732 168.772 289.906 165.321 308.457C159.936 338.622 159.936 367.598 161.528 397.367C161.927 405.888 162.685 413.995 163.425 422.497C163.425 423.666 164.183 424.382 164.183 425.589C164.775 437.425 166.316 449.195 168.791 460.787C173.778 488.614 179.163 513.348 183.77 541.194C184.529 544.285 184.927 547.377 185.667 550.469C188.738 567.436 190.274 583.329 192.189 600.334C192.967 610.006 191.81 619.677 192.189 629.33C192 631.777 192 634.235 192.189 636.682C193.21 644.447 195.014 652.089 197.574 659.494C199.11 663.359 200.646 667.601 202.182 671.465C208.543 685.117 216.073 698.198 224.69 710.566" stroke="#251803" stroke-width="2.69255" stroke-miterlimit="10"/>
<path d="M223.949 696.445C222.775 695.306 221.772 694.004 220.972 692.58C219.497 691.077 218.222 689.392 217.179 687.565L216.023 686.396C212.993 681.276 210.271 675.981 207.869 670.541C205.615 664.529 203.939 658.317 202.863 651.99C200.663 642.993 199.393 633.795 199.071 624.541C197.914 608.309 198.692 592.491 198.294 576.222C197.914 565.777 194.843 555.729 192.928 544.907C189.856 525.96 184.471 508.559 180.64 490.404C173.34 472.23 172.184 452.51 169.51 432.791L169.51 429.02C168.444 421.047 167.956 413.007 168.05 404.964C166.893 379.438 168.429 354.703 170.344 329.176C171.122 321.447 171.88 314.094 173.037 306.365C174.193 295.939 173.037 286.268 171.88 275.823C171.501 274.277 170.344 273.127 170.344 271.959C168.808 261.137 164.201 251.862 158.436 242.19C154.975 236.877 150.395 232.374 145.011 228.993C126.183 217.022 104.68 219.718 84.3343 218.172C64.3677 213.911 46.6954 203.09 30.578 189.572C15.5983 176.809 5.9279 160.181 -0.519057 141.63C-0.917251 140.461 -1.67571 139.745 -2.05494 138.538C-5.52492 130.036 -7.74342 121.137 -10.5118 112.145C-14.3041 100.55 -16.2003 88.9558 -23.9556 79.2844C-28.9425 72.7237 -34.3087 67.313 -39.3145 60.7334C-40.4522 59.5645 -41.6089 58.0186 -42.7656 56.8686C-54.763 41.1518 -64.5961 23.9127 -72.0044 5.60823C-78.6254 -10.8521 -83.0125 -28.1158 -85.05 -45.7276" stroke="#251803" stroke-width="2.69255" stroke-miterlimit="10"/>
<path d="M-77.0861 -45.5957C-75.4554 -34.6046 -72.3836 -24.5561 -69.691 -13.7347C-69.3118 -12.9618 -68.9326 -11.8495 -68.5533 -11.0199C-60.4757 3.27038 -53.5737 16.7877 -46.6527 31.4928C-40.6145 44.1014 -32.1349 55.4023 -21.6991 64.7489C-19.0066 69.0096 -14.7971 72.4785 -12.863 77.5122C-5.27837 100.701 3.25437 122.759 15.5794 144.383C17.0181 147.46 18.6718 150.433 20.5284 153.281L21.6851 154.431C25.1361 161.011 29.7438 166.421 34.3515 172.605C37.9821 177.293 42.2515 181.455 47.0368 184.972L49.3311 187.31C57.3898 193.098 64.6901 197.736 73.9813 200.507C90.4969 205.145 107.012 205.918 124.286 208.236C133.057 209.656 141.283 213.393 148.102 219.058C148.861 219.831 149.998 219.831 150.776 220.604C166.533 233.367 173.435 251.145 176.886 270.469C179.406 283.152 180.411 296.087 179.882 309.004C178.744 324.463 176.81 339.941 175.673 355.4C173.776 375.893 174.516 395.594 176.052 416.087C177.948 441.218 179.503 464.802 184.888 490.329C185.334 492.694 185.968 495.02 186.784 497.285C187.74 500.977 188.505 504.715 189.078 508.484C194.463 529.373 199.83 549.074 204.437 569.567C205.215 588.513 204.058 607.064 205.215 626.011C205.629 639.097 208.631 651.973 214.051 663.905C214.43 664.678 214.051 665.055 214.43 665.791C216.992 672.083 219.924 678.221 223.209 684.172" stroke="#251803" stroke-width="2.69255" stroke-miterlimit="10"/>
<path d="M222.242 668.298C221.607 667.203 221.176 666.002 220.972 664.754C212.64 644.168 209.351 621.906 211.377 599.807C212.327 594.711 212.715 589.527 212.534 584.347C210.49 564.928 206.501 545.761 200.626 527.13C200.247 525.961 200.247 524.415 199.849 523.265C194.618 507.948 190.891 492.164 188.718 476.133C188.718 474.248 188.339 472.363 188.339 470.327C187.182 461.824 185.267 453.699 183.731 445.196C181.418 428.229 181.835 411.959 182.575 395.331C183.352 367.485 185.646 339.282 184.471 311.436C184.471 304.857 185.248 298.673 183.712 292.112C183.902 290.698 183.902 289.266 183.712 287.852C183.333 286.306 183.333 285.156 182.935 283.61C182.742 277.749 181.973 271.921 180.641 266.209C178.744 260.025 177.948 253.446 175.654 247.262C171.046 235.272 167.197 223.677 159.138 213.327C154.692 207.909 149.207 203.423 143.002 200.13C142.622 199.753 141.864 200.13 141.466 199.753C138.079 197.608 134.295 196.159 130.335 195.493C112.682 190.478 95.0098 189.705 78.115 183.502C71.2561 180.993 64.6891 177.757 58.5276 173.85C49.3312 167.195 41.2725 161.011 34.3515 152.527C31.2797 148.757 28.663 145.948 25.9136 142.083C22.2065 136.846 19.0066 131.273 16.3569 125.436C14.4608 120.421 12.887 115.011 10.9718 109.6C8.27928 101.87 6.74338 93.7447 3.67159 86.0151C-0.184165 76.2164 -5.77094 67.1821 -12.825 59.3386C-16.6173 55.0779 -20.9027 51.9861 -24.3537 47.3483C-31.6539 36.9228 -37.7975 27.2514 -43.9411 16.43C-44.6995 15.2611 -44.6995 14.1111 -45.477 12.9422C-48.9659 7.92741 -50.881 3.2708 -53.9528 -1.74401C-55.1095 -3.28993 -55.849 -4.83584 -57.0246 -6.38176C-57.4038 -6.77767 -57.4038 -7.55063 -57.802 -8.26703L-58.9397 -9.41704C-65.8607 -20.6909 -68.9704 -32.6812 -70.8666 -45.6141" stroke="#251803" stroke-width="2.69255" stroke-miterlimit="10"/>
<path d="M-60.305 -45.5957C-52.4169 -5.23217 -26.686 27.628 0.182614 58.0939C8.24131 67.3883 12.0905 78.5868 16.319 89.4082C17.8548 93.1787 17.4567 97.1566 18.6133 101.021L18.6133 102.907C28.6061 145.551 68.5393 167.967 108.473 174.547C109.399 174.861 110.299 175.245 111.165 175.697C124.59 177.582 137.711 179.467 150.321 184.595C155.757 186.244 160.572 189.475 164.144 193.871C170.287 207.068 176.431 220.17 179.882 234.856C179.882 235.234 180.659 236.006 180.659 236.402C186.42 260.181 189.386 284.545 189.496 309.004C191.031 357.323 187.182 405.662 191.031 454.358C192.567 475.247 197.175 495.344 202.541 515.837C207.149 531.692 212.136 546.755 216.364 562.61C221.749 582.33 217.521 602.05 219.057 621.77C219.815 634.137 220.953 646.9 226.357 658.608" stroke="#251803" stroke-width="2.69255" stroke-miterlimit="10"/>
<path d="M-50.1805 -45.7276C-48.5877 -35.0004 -43.98 -25.706 -38.2157 -16.0535C-27.8437 -0.179519 -17.0924 12.5649 -6.39806 28.4011C-4.5019 31.493 -2.94704 34.2077 -1.03191 37.2996C0.124745 38.4684 0.503983 40.0144 2.03988 40.7873C3.41341 41.3694 4.60973 42.2988 5.50984 43.4832C13.0945 54.7006 17.3988 66.295 23.1631 77.8894L23.1631 79.0017C25.4765 83.2435 26.9555 87.8813 28.8516 92.1985C29.7866 94.4585 30.5535 96.7836 31.146 99.1552C33.0421 104.962 35.3744 110.467 37.2895 116.123C43.4331 133.524 59.1902 145.514 75.2128 152.848C94.0078 157.706 113.134 161.197 132.439 163.292C141.751 164.618 150.939 166.693 159.914 169.494C160.313 169.494 160.692 170.267 161.071 170.267C163.013 170.645 164.851 171.436 166.456 172.586C166.835 172.982 167.594 172.586 167.992 172.982C173.32 175.411 177.844 179.295 181.038 184.181C181.417 184.954 181.815 186.066 182.194 186.895C185.645 203.128 183.351 218.606 184.489 234.838C184.887 237.157 184.887 239.476 185.266 241.794C186.9 249.503 188.951 257.118 191.41 264.606C192.946 270.79 193.704 276.578 195.202 282.78C195.979 286.645 196.359 290.114 197.098 293.979C198.632 307.452 199.013 321.031 198.236 334.568C194.444 407.264 192.547 482.637 219.644 551.374" stroke="#251803" stroke-width="2.69255" stroke-miterlimit="10"/>
<path d="M218.45 530.372C216.743 523.265 213.671 517.062 212.534 510.106C212.534 509.728 211.756 509.333 211.756 508.956C207.149 492.327 205.613 476.095 203.698 459.467C203.318 455.207 203.318 450.569 202.92 446.27C202.541 441.237 202.92 436.222 202.92 431.188C202.162 386.734 205.613 342.279 202.162 297.334C200.626 276.446 196.473 256.745 191.79 235.856C191.285 232.272 191.158 228.645 191.411 225.034C192.946 206.483 199.469 184.049 183.826 169.363C181.93 167.817 180.034 166.667 178.137 165.121C176.443 163.821 174.648 162.655 172.771 161.633C167.765 159.748 163.556 156.995 158.948 155.053C157.739 154.851 156.568 154.463 155.478 153.903C154.9 153.587 154.24 153.449 153.582 153.507C153.158 153.104 152.624 152.835 152.046 152.735C132.667 148.248 114.237 147.098 94.6493 144.383C80.8263 142.498 68.5391 137.049 58.9256 126.605C52.3493 118.979 47.2741 110.192 43.9648 100.701C38.5797 86.015 34.3513 71.7058 26.6718 58.2639C24.3775 54.3991 22.8795 50.5343 19.7698 47.4424C18.6131 45.8965 18.6131 43.9735 17.4565 42.0317C-2.60492 12.565 -25.9277 -11.7926 -33.1521 -45.6897" stroke="#251803" stroke-width="2.69255" stroke-miterlimit="10"/>
<path d="M-4.88004 -45.7466C-4.87396 -37.3198 -3.94571 -28.9186 -2.11166 -20.6914C-0.575764 -15.2807 0.960138 -9.86998 2.87526 -4.83632C5.16962 0.574398 8.2414 5.21215 10.934 10.6229C12.065 12.6412 13.332 14.5812 14.7263 16.4295C19.7132 25.3091 23.9416 33.3969 29.3078 41.9371C31.0993 44.2989 32.7639 46.7531 34.2947 49.2897C43.9082 65.9177 53.5028 80.981 62.3389 98.0049C65.4107 103.02 67.7051 107.28 70.7769 112.295C76.9204 121.571 88.0509 122.74 98.0437 123.607C106.88 124.757 115.318 126.322 124.154 128.245C129.842 129.791 135.284 131.732 141.049 133.655C149.716 136.729 158.071 140.611 166.002 145.25C175.497 150.725 183.861 157.941 190.652 166.516C192.548 169.607 194.445 171.926 196.341 174.867" stroke="#251803" stroke-width="2.69255" stroke-miterlimit="10"/>
<path d="M13.076 -45.7275C13.2466 -33.8315 14.0051 -21.8412 14.0051 -9.90749C14.2094 -8.19345 14.5971 -6.506 15.1618 -4.87383C19.5243 7.31258 25.1883 18.9989 32.0566 29.9847C32.8151 31.1536 32.8151 31.87 33.5925 33.0766C40.8702 44.4782 48.8162 55.4442 57.3893 65.9179C57.7875 66.295 58.546 66.6909 58.9252 67.0679C64.6137 74.0245 68.918 81.3771 75.4408 87.5608C84.244 95.5964 94.414 102.012 105.476 106.508C118.522 111.522 132.022 115.783 145.03 120.798C154.342 124.511 163.239 129.181 171.576 134.73C181.232 141.648 189.304 150.521 195.259 160.766" stroke="#251803" stroke-width="2.69255" stroke-miterlimit="10"/>
<path d="M28.4733 -45.5388C27.8062 -35.9778 27.8506 -26.3808 28.606 -16.8262C29.3645 -4.06297 31.6778 9.07733 40.1158 19.5217C40.495 19.8988 40.1158 20.6717 40.495 21.0676C48.7213 32.9981 57.5827 44.4831 67.0413 55.4737C67.4205 55.8508 68.179 56.2467 68.5772 56.6237C72.3838 61.5032 76.6229 66.0334 81.2435 70.16C88.5438 76.3436 95.4458 82.9232 103.997 87.561L105.135 88.711C107.651 89.9087 110.051 91.335 112.303 92.9717C121.557 98.0421 131.53 101.691 141.883 103.793C149.942 105.678 157.621 106.508 164.921 111.146C175.274 118.102 182.195 127.001 188.775 136.729" stroke="#251803" stroke-width="2.69255" stroke-miterlimit="10"/>
<path d="M43.3206 -45.5767C43.401 -43.2068 43.3567 -40.8344 43.1879 -38.4692C42.0312 -30.7396 39.7368 -23.3871 40.1161 -15.6575C39.9301 -12.2672 40.3211 -8.86992 41.2727 -5.60902C43.5671 0.951702 45.8804 7.15423 50.4881 12.5649C51.2465 13.3379 51.2466 14.4502 52.024 15.2609C58.5468 24.5364 66.6055 30.343 74.7779 37.6955C76.4291 39.5313 77.9677 41.464 79.3856 43.4833C82.0592 47.3481 83.5951 51.2129 86.2877 54.7006C90.697 60.04 95.725 64.8429 101.267 69.0098C105.78 72.1016 109.269 75.2312 113.839 77.8894C119.982 81.3771 126.126 84.469 133.426 85.2419C144.178 86.392 156.18 84.469 165.661 90.6527C168.733 94.8945 174.118 96.4593 177.569 100.701C178.051 101.72 178.677 102.666 179.427 103.51C179.806 103.887 179.806 104.66 180.205 105.056L181.342 106.206C183.035 109.285 185.056 112.174 187.372 114.822" stroke="#251803" stroke-width="2.69255" stroke-miterlimit="10"/>
</g>
<defs>
<clipPath id="clip0">
<rect width="1016" height="56" fill="white" transform="translate(56) rotate(90)"/>
</clipPath>
</defs>
</svg>
